<?xml version='1.0' encoding='ASCII' standalone='yes'?>
<svg xmlns="http://www.w3.org/2000/svg" xmlns:xlink="http://www.w3.org/1999/xlink" version="1.1" width="30.0cm" viewBox="0 0 30.0cm 16.0cm" height="16.0cm">
  <g>
    <g transform="translate(0.0, 0.0) scale(1) translate(0, 0) scale(2) ">
      <g><metadata>
  <rdf:RDF xmlns:dc="http://purl.org/dc/elements/1.1/" xmlns:cc="http://creativecommons.org/ns#" xmlns:rdf="http://www.w3.org/1999/02/22-rdf-syntax-ns#">
   <cc:Work>
    <dc:type rdf:resource="http://purl.org/dc/dcmitype/StillImage"/>
    <dc:date>2022-08-05T16:00:54.439686</dc:date>
    <dc:format>image/svg+xml</dc:format>
    <dc:creator>
     <cc:Agent>
      <dc:title>Matplotlib v3.5.2, https://matplotlib.org/</dc:title>
     </cc:Agent>
    </dc:creator>
   </cc:Work>
  </rdf:RDF>
 </metadata>
 <defs>
  <style type="text/css">*{stroke-linejoin: round; stroke-linecap: butt}</style>
 </defs>
 <g id="figure_1">
  <g id="patch_1">
   <path d="M 0 134.225766  L 216.657313 134.225766  L 216.657313 0  L 0 0  z " style="fill: #ffffff; stroke: #ffffff; stroke-linejoin: miter"/>
  </g>
  <g id="axes_1">
   <g id="patch_2">
    <path d="M 42.057313 92.422251  L 209.457313 92.422251  L 209.457313 23.122251  L 42.057313 23.122251  z " style="fill: #ffffff"/>
   </g>
   <g id="matplotlib.axis_1">
    <g id="xtick_1">
     <g id="line2d_1">
      <path d="M 49.666403 92.422251  " style="fill: none; stroke: #000000; stroke-width: 1.5"/>
      <defs>
       <path id="mf0867e2f04" d="M 0 0  L 0 2.75  " style="stroke: #333333"/>
      </defs>
      <g>
       <use xlink:href="#mf0867e2f04" x="49.666403" y="92.422251" style="stroke: #333333"/>
      </g>
     </g>
     <g id="text_1">
      <!-- 0 -->
      <g style="fill: #4d4d4d" transform="translate(46.866903 104.058876)scale(0.088 -0.088)">
       <defs>
        <path id="DejaVuSans-30" d="M 2034 4250  Q 1547 4250 1301 3770  Q 1056 3291 1056 2328  Q 1056 1369 1301 889  Q 1547 409 2034 409  Q 2525 409 2770 889  Q 3016 1369 3016 2328  Q 3016 3291 2770 3770  Q 2525 4250 2034 4250  z M 2034 4750  Q 2819 4750 3233 4129  Q 3647 3509 3647 2328  Q 3647 1150 3233 529  Q 2819 -91 2034 -91  Q 1250 -91 836 529  Q 422 1150 422 2328  Q 422 3509 836 4129  Q 1250 4750 2034 4750  z " transform="scale(0.015625)"/>
       </defs>
       <use xlink:href="#DejaVuSans-30"/>
      </g>
     </g>
    </g>
    <g id="xtick_2">
     <g id="line2d_2">
      <path d="M 93.146923 92.422251  " style="fill: none; stroke: #000000; stroke-width: 1.5"/>
      <g>
       <use xlink:href="#mf0867e2f04" x="93.146923" y="92.422251" style="stroke: #333333"/>
      </g>
     </g>
     <g id="text_2">
      <!-- 0.2 -->
      <g style="fill: #4d4d4d" transform="translate(86.149548 104.058876)scale(0.088 -0.088)">
       <defs>
        <path id="DejaVuSans-2e" d="M 684 794  L 1344 794  L 1344 0  L 684 0  L 684 794  z " transform="scale(0.015625)"/>
        <path id="DejaVuSans-32" d="M 1228 531  L 3431 531  L 3431 0  L 469 0  L 469 531  Q 828 903 1448 1529  Q 2069 2156 2228 2338  Q 2531 2678 2651 2914  Q 2772 3150 2772 3378  Q 2772 3750 2511 3984  Q 2250 4219 1831 4219  Q 1534 4219 1204 4116  Q 875 4013 500 3803  L 500 4441  Q 881 4594 1212 4672  Q 1544 4750 1819 4750  Q 2544 4750 2975 4387  Q 3406 4025 3406 3419  Q 3406 3131 3298 2873  Q 3191 2616 2906 2266  Q 2828 2175 2409 1742  Q 1991 1309 1228 531  z " transform="scale(0.015625)"/>
       </defs>
       <use xlink:href="#DejaVuSans-30"/>
       <use xlink:href="#DejaVuSans-2e" x="63.623047"/>
       <use xlink:href="#DejaVuSans-32" x="95.410156"/>
      </g>
     </g>
    </g>
    <g id="xtick_3">
     <g id="line2d_3">
      <path d="M 136.627442 92.422251  " style="fill: none; stroke: #000000; stroke-width: 1.5"/>
      <g>
       <use xlink:href="#mf0867e2f04" x="136.627442" y="92.422251" style="stroke: #333333"/>
      </g>
     </g>
     <g id="text_3">
      <!-- 0.4 -->
      <g style="fill: #4d4d4d" transform="translate(129.630067 104.058876)scale(0.088 -0.088)">
       <defs>
        <path id="DejaVuSans-34" d="M 2419 4116  L 825 1625  L 2419 1625  L 2419 4116  z M 2253 4666  L 3047 4666  L 3047 1625  L 3713 1625  L 3713 1100  L 3047 1100  L 3047 0  L 2419 0  L 2419 1100  L 313 1100  L 313 1709  L 2253 4666  z " transform="scale(0.015625)"/>
       </defs>
       <use xlink:href="#DejaVuSans-30"/>
       <use xlink:href="#DejaVuSans-2e" x="63.623047"/>
       <use xlink:href="#DejaVuSans-34" x="95.410156"/>
      </g>
     </g>
    </g>
    <g id="xtick_4">
     <g id="line2d_4">
      <path d="M 180.107962 92.422251  " style="fill: none; stroke: #000000; stroke-width: 1.5"/>
      <g>
       <use xlink:href="#mf0867e2f04" x="180.107962" y="92.422251" style="stroke: #333333"/>
      </g>
     </g>
     <g id="text_4">
      <!-- 0.6 -->
      <g style="fill: #4d4d4d" transform="translate(173.110587 104.058876)scale(0.088 -0.088)">
       <defs>
        <path id="DejaVuSans-36" d="M 2113 2584  Q 1688 2584 1439 2293  Q 1191 2003 1191 1497  Q 1191 994 1439 701  Q 1688 409 2113 409  Q 2538 409 2786 701  Q 3034 994 3034 1497  Q 3034 2003 2786 2293  Q 2538 2584 2113 2584  z M 3366 4563  L 3366 3988  Q 3128 4100 2886 4159  Q 2644 4219 2406 4219  Q 1781 4219 1451 3797  Q 1122 3375 1075 2522  Q 1259 2794 1537 2939  Q 1816 3084 2150 3084  Q 2853 3084 3261 2657  Q 3669 2231 3669 1497  Q 3669 778 3244 343  Q 2819 -91 2113 -91  Q 1303 -91 875 529  Q 447 1150 447 2328  Q 447 3434 972 4092  Q 1497 4750 2381 4750  Q 2619 4750 2861 4703  Q 3103 4656 3366 4563  z " transform="scale(0.015625)"/>
       </defs>
       <use xlink:href="#DejaVuSans-30"/>
       <use xlink:href="#DejaVuSans-2e" x="63.623047"/>
       <use xlink:href="#DejaVuSans-36" x="95.410156"/>
      </g>
     </g>
    </g>
    <g id="xtick_5"/>
    <g id="xtick_6"/>
    <g id="xtick_7"/>
    <g id="xtick_8"/>
    <g id="text_5">
     <!-- fraction of all mRNA transcripts -->
     <g transform="translate(52.39325 117.127594)scale(0.09 -0.09)">
      <defs>
       <path id="DejaVuSans-66" d="M 2375 4863  L 2375 4384  L 1825 4384  Q 1516 4384 1395 4259  Q 1275 4134 1275 3809  L 1275 3500  L 2222 3500  L 2222 3053  L 1275 3053  L 1275 0  L 697 0  L 697 3053  L 147 3053  L 147 3500  L 697 3500  L 697 3744  Q 697 4328 969 4595  Q 1241 4863 1831 4863  L 2375 4863  z " transform="scale(0.015625)"/>
       <path id="DejaVuSans-72" d="M 2631 2963  Q 2534 3019 2420 3045  Q 2306 3072 2169 3072  Q 1681 3072 1420 2755  Q 1159 2438 1159 1844  L 1159 0  L 581 0  L 581 3500  L 1159 3500  L 1159 2956  Q 1341 3275 1631 3429  Q 1922 3584 2338 3584  Q 2397 3584 2469 3576  Q 2541 3569 2628 3553  L 2631 2963  z " transform="scale(0.015625)"/>
       <path id="DejaVuSans-61" d="M 2194 1759  Q 1497 1759 1228 1600  Q 959 1441 959 1056  Q 959 750 1161 570  Q 1363 391 1709 391  Q 2188 391 2477 730  Q 2766 1069 2766 1631  L 2766 1759  L 2194 1759  z M 3341 1997  L 3341 0  L 2766 0  L 2766 531  Q 2569 213 2275 61  Q 1981 -91 1556 -91  Q 1019 -91 701 211  Q 384 513 384 1019  Q 384 1609 779 1909  Q 1175 2209 1959 2209  L 2766 2209  L 2766 2266  Q 2766 2663 2505 2880  Q 2244 3097 1772 3097  Q 1472 3097 1187 3025  Q 903 2953 641 2809  L 641 3341  Q 956 3463 1253 3523  Q 1550 3584 1831 3584  Q 2591 3584 2966 3190  Q 3341 2797 3341 1997  z " transform="scale(0.015625)"/>
       <path id="DejaVuSans-63" d="M 3122 3366  L 3122 2828  Q 2878 2963 2633 3030  Q 2388 3097 2138 3097  Q 1578 3097 1268 2742  Q 959 2388 959 1747  Q 959 1106 1268 751  Q 1578 397 2138 397  Q 2388 397 2633 464  Q 2878 531 3122 666  L 3122 134  Q 2881 22 2623 -34  Q 2366 -91 2075 -91  Q 1284 -91 818 406  Q 353 903 353 1747  Q 353 2603 823 3093  Q 1294 3584 2113 3584  Q 2378 3584 2631 3529  Q 2884 3475 3122 3366  z " transform="scale(0.015625)"/>
       <path id="DejaVuSans-74" d="M 1172 4494  L 1172 3500  L 2356 3500  L 2356 3053  L 1172 3053  L 1172 1153  Q 1172 725 1289 603  Q 1406 481 1766 481  L 2356 481  L 2356 0  L 1766 0  Q 1100 0 847 248  Q 594 497 594 1153  L 594 3053  L 172 3053  L 172 3500  L 594 3500  L 594 4494  L 1172 4494  z " transform="scale(0.015625)"/>
       <path id="DejaVuSans-69" d="M 603 3500  L 1178 3500  L 1178 0  L 603 0  L 603 3500  z M 603 4863  L 1178 4863  L 1178 4134  L 603 4134  L 603 4863  z " transform="scale(0.015625)"/>
       <path id="DejaVuSans-6f" d="M 1959 3097  Q 1497 3097 1228 2736  Q 959 2375 959 1747  Q 959 1119 1226 758  Q 1494 397 1959 397  Q 2419 397 2687 759  Q 2956 1122 2956 1747  Q 2956 2369 2687 2733  Q 2419 3097 1959 3097  z M 1959 3584  Q 2709 3584 3137 3096  Q 3566 2609 3566 1747  Q 3566 888 3137 398  Q 2709 -91 1959 -91  Q 1206 -91 779 398  Q 353 888 353 1747  Q 353 2609 779 3096  Q 1206 3584 1959 3584  z " transform="scale(0.015625)"/>
       <path id="DejaVuSans-6e" d="M 3513 2113  L 3513 0  L 2938 0  L 2938 2094  Q 2938 2591 2744 2837  Q 2550 3084 2163 3084  Q 1697 3084 1428 2787  Q 1159 2491 1159 1978  L 1159 0  L 581 0  L 581 3500  L 1159 3500  L 1159 2956  Q 1366 3272 1645 3428  Q 1925 3584 2291 3584  Q 2894 3584 3203 3211  Q 3513 2838 3513 2113  z " transform="scale(0.015625)"/>
       <path id="DejaVuSans-20" transform="scale(0.015625)"/>
       <path id="DejaVuSans-6c" d="M 603 4863  L 1178 4863  L 1178 0  L 603 0  L 603 4863  z " transform="scale(0.015625)"/>
       <path id="DejaVuSans-6d" d="M 3328 2828  Q 3544 3216 3844 3400  Q 4144 3584 4550 3584  Q 5097 3584 5394 3201  Q 5691 2819 5691 2113  L 5691 0  L 5113 0  L 5113 2094  Q 5113 2597 4934 2840  Q 4756 3084 4391 3084  Q 3944 3084 3684 2787  Q 3425 2491 3425 1978  L 3425 0  L 2847 0  L 2847 2094  Q 2847 2600 2669 2842  Q 2491 3084 2119 3084  Q 1678 3084 1418 2786  Q 1159 2488 1159 1978  L 1159 0  L 581 0  L 581 3500  L 1159 3500  L 1159 2956  Q 1356 3278 1631 3431  Q 1906 3584 2284 3584  Q 2666 3584 2933 3390  Q 3200 3197 3328 2828  z " transform="scale(0.015625)"/>
       <path id="DejaVuSans-52" d="M 2841 2188  Q 3044 2119 3236 1894  Q 3428 1669 3622 1275  L 4263 0  L 3584 0  L 2988 1197  Q 2756 1666 2539 1819  Q 2322 1972 1947 1972  L 1259 1972  L 1259 0  L 628 0  L 628 4666  L 2053 4666  Q 2853 4666 3247 4331  Q 3641 3997 3641 3322  Q 3641 2881 3436 2590  Q 3231 2300 2841 2188  z M 1259 4147  L 1259 2491  L 2053 2491  Q 2509 2491 2742 2702  Q 2975 2913 2975 3322  Q 2975 3731 2742 3939  Q 2509 4147 2053 4147  L 1259 4147  z " transform="scale(0.015625)"/>
       <path id="DejaVuSans-4e" d="M 628 4666  L 1478 4666  L 3547 763  L 3547 4666  L 4159 4666  L 4159 0  L 3309 0  L 1241 3903  L 1241 0  L 628 0  L 628 4666  z " transform="scale(0.015625)"/>
       <path id="DejaVuSans-41" d="M 2188 4044  L 1331 1722  L 3047 1722  L 2188 4044  z M 1831 4666  L 2547 4666  L 4325 0  L 3669 0  L 3244 1197  L 1141 1197  L 716 0  L 50 0  L 1831 4666  z " transform="scale(0.015625)"/>
       <path id="DejaVuSans-73" d="M 2834 3397  L 2834 2853  Q 2591 2978 2328 3040  Q 2066 3103 1784 3103  Q 1356 3103 1142 2972  Q 928 2841 928 2578  Q 928 2378 1081 2264  Q 1234 2150 1697 2047  L 1894 2003  Q 2506 1872 2764 1633  Q 3022 1394 3022 966  Q 3022 478 2636 193  Q 2250 -91 1575 -91  Q 1294 -91 989 -36  Q 684 19 347 128  L 347 722  Q 666 556 975 473  Q 1284 391 1588 391  Q 1994 391 2212 530  Q 2431 669 2431 922  Q 2431 1156 2273 1281  Q 2116 1406 1581 1522  L 1381 1569  Q 847 1681 609 1914  Q 372 2147 372 2553  Q 372 3047 722 3315  Q 1072 3584 1716 3584  Q 2034 3584 2315 3537  Q 2597 3491 2834 3397  z " transform="scale(0.015625)"/>
       <path id="DejaVuSans-70" d="M 1159 525  L 1159 -1331  L 581 -1331  L 581 3500  L 1159 3500  L 1159 2969  Q 1341 3281 1617 3432  Q 1894 3584 2278 3584  Q 2916 3584 3314 3078  Q 3713 2572 3713 1747  Q 3713 922 3314 415  Q 2916 -91 2278 -91  Q 1894 -91 1617 61  Q 1341 213 1159 525  z M 3116 1747  Q 3116 2381 2855 2742  Q 2594 3103 2138 3103  Q 1681 3103 1420 2742  Q 1159 2381 1159 1747  Q 1159 1113 1420 752  Q 1681 391 2138 391  Q 2594 391 2855 752  Q 3116 1113 3116 1747  z " transform="scale(0.015625)"/>
      </defs>
      <use xlink:href="#DejaVuSans-66"/>
      <use xlink:href="#DejaVuSans-72" x="35.205078"/>
      <use xlink:href="#DejaVuSans-61" x="76.318359"/>
      <use xlink:href="#DejaVuSans-63" x="137.597656"/>
      <use xlink:href="#DejaVuSans-74" x="192.578125"/>
      <use xlink:href="#DejaVuSans-69" x="231.787109"/>
      <use xlink:href="#DejaVuSans-6f" x="259.570312"/>
      <use xlink:href="#DejaVuSans-6e" x="320.751953"/>
      <use xlink:href="#DejaVuSans-20" x="384.130859"/>
      <use xlink:href="#DejaVuSans-6f" x="415.917969"/>
      <use xlink:href="#DejaVuSans-66" x="477.099609"/>
      <use xlink:href="#DejaVuSans-20" x="512.304688"/>
      <use xlink:href="#DejaVuSans-61" x="544.091797"/>
      <use xlink:href="#DejaVuSans-6c" x="605.371094"/>
      <use xlink:href="#DejaVuSans-6c" x="633.154297"/>
      <use xlink:href="#DejaVuSans-20" x="660.9375"/>
      <use xlink:href="#DejaVuSans-6d" x="692.724609"/>
      <use xlink:href="#DejaVuSans-52" x="790.136719"/>
      <use xlink:href="#DejaVuSans-4e" x="859.619141"/>
      <use xlink:href="#DejaVuSans-41" x="934.423828"/>
      <use xlink:href="#DejaVuSans-20" x="1002.832031"/>
      <use xlink:href="#DejaVuSans-74" x="1034.619141"/>
      <use xlink:href="#DejaVuSans-72" x="1073.828125"/>
      <use xlink:href="#DejaVuSans-61" x="1114.941406"/>
      <use xlink:href="#DejaVuSans-6e" x="1176.220703"/>
      <use xlink:href="#DejaVuSans-73" x="1239.599609"/>
      <use xlink:href="#DejaVuSans-63" x="1291.699219"/>
      <use xlink:href="#DejaVuSans-72" x="1346.679688"/>
      <use xlink:href="#DejaVuSans-69" x="1387.792969"/>
      <use xlink:href="#DejaVuSans-70" x="1415.576172"/>
      <use xlink:href="#DejaVuSans-74" x="1479.052734"/>
      <use xlink:href="#DejaVuSans-73" x="1518.261719"/>
     </g>
     <!-- in cell from virus -->
     <g transform="translate(85.492156 125.154047)scale(0.09 -0.09)">
      <defs>
       <path id="DejaVuSans-65" d="M 3597 1894  L 3597 1613  L 953 1613  Q 991 1019 1311 708  Q 1631 397 2203 397  Q 2534 397 2845 478  Q 3156 559 3463 722  L 3463 178  Q 3153 47 2828 -22  Q 2503 -91 2169 -91  Q 1331 -91 842 396  Q 353 884 353 1716  Q 353 2575 817 3079  Q 1281 3584 2069 3584  Q 2775 3584 3186 3129  Q 3597 2675 3597 1894  z M 3022 2063  Q 3016 2534 2758 2815  Q 2500 3097 2075 3097  Q 1594 3097 1305 2825  Q 1016 2553 972 2059  L 3022 2063  z " transform="scale(0.015625)"/>
       <path id="DejaVuSans-76" d="M 191 3500  L 800 3500  L 1894 563  L 2988 3500  L 3597 3500  L 2284 0  L 1503 0  L 191 3500  z " transform="scale(0.015625)"/>
       <path id="DejaVuSans-75" d="M 544 1381  L 544 3500  L 1119 3500  L 1119 1403  Q 1119 906 1312 657  Q 1506 409 1894 409  Q 2359 409 2629 706  Q 2900 1003 2900 1516  L 2900 3500  L 3475 3500  L 3475 0  L 2900 0  L 2900 538  Q 2691 219 2414 64  Q 2138 -91 1772 -91  Q 1169 -91 856 284  Q 544 659 544 1381  z M 1991 3584  L 1991 3584  z " transform="scale(0.015625)"/>
      </defs>
      <use xlink:href="#DejaVuSans-69"/>
      <use xlink:href="#DejaVuSans-6e" x="27.783203"/>
      <use xlink:href="#DejaVuSans-20" x="91.162109"/>
      <use xlink:href="#DejaVuSans-63" x="122.949219"/>
      <use xlink:href="#DejaVuSans-65" x="177.929688"/>
      <use xlink:href="#DejaVuSans-6c" x="239.453125"/>
      <use xlink:href="#DejaVuSans-6c" x="267.236328"/>
      <use xlink:href="#DejaVuSans-20" x="295.019531"/>
      <use xlink:href="#DejaVuSans-66" x="326.806641"/>
      <use xlink:href="#DejaVuSans-72" x="362.011719"/>
      <use xlink:href="#DejaVuSans-6f" x="400.875"/>
      <use xlink:href="#DejaVuSans-6d" x="462.056641"/>
      <use xlink:href="#DejaVuSans-20" x="559.46875"/>
      <use xlink:href="#DejaVuSans-76" x="591.255859"/>
      <use xlink:href="#DejaVuSans-69" x="650.435547"/>
      <use xlink:href="#DejaVuSans-72" x="678.21875"/>
      <use xlink:href="#DejaVuSans-75" x="719.332031"/>
      <use xlink:href="#DejaVuSans-73" x="782.710938"/>
     </g>
    </g>
   </g>
   <g id="matplotlib.axis_2">
    <g id="ytick_1">
     <g id="line2d_5">
      <path d="M 42.057313 89.272251  " style="fill: none; stroke: #000000; stroke-width: 1.5"/>
      <defs>
       <path id="m305c962451" d="M 0 0  L -2.75 0  " style="stroke: #333333"/>
      </defs>
      <g>
       <use xlink:href="#m305c962451" x="42.057313" y="89.272251" style="stroke: #333333"/>
      </g>
     </g>
     <g id="text_6">
      <!-- 0 -->
      <g style="fill: #4d4d4d" transform="translate(31.508312 91.700501)scale(0.088 -0.088)">
       <use xlink:href="#DejaVuSans-30"/>
      </g>
     </g>
    </g>
    <g id="ytick_2">
     <g id="line2d_6">
      <path d="M 42.057313 67.548113  " style="fill: none; stroke: #000000; stroke-width: 1.5"/>
      <g>
       <use xlink:href="#m305c962451" x="42.057313" y="67.548113" style="stroke: #333333"/>
      </g>
     </g>
     <g id="text_7">
      <!-- 50 -->
      <g style="fill: #4d4d4d" transform="translate(25.909312 69.976363)scale(0.088 -0.088)">
       <defs>
        <path id="DejaVuSans-35" d="M 691 4666  L 3169 4666  L 3169 4134  L 1269 4134  L 1269 2991  Q 1406 3038 1543 3061  Q 1681 3084 1819 3084  Q 2600 3084 3056 2656  Q 3513 2228 3513 1497  Q 3513 744 3044 326  Q 2575 -91 1722 -91  Q 1428 -91 1123 -41  Q 819 9 494 109  L 494 744  Q 775 591 1075 516  Q 1375 441 1709 441  Q 2250 441 2565 725  Q 2881 1009 2881 1497  Q 2881 1984 2565 2268  Q 2250 2553 1709 2553  Q 1456 2553 1204 2497  Q 953 2441 691 2322  L 691 4666  z " transform="scale(0.015625)"/>
       </defs>
       <use xlink:href="#DejaVuSans-35"/>
       <use xlink:href="#DejaVuSans-30" x="63.623047"/>
      </g>
     </g>
    </g>
    <g id="ytick_3">
     <g id="line2d_7">
      <path d="M 42.057313 45.823975  " style="fill: none; stroke: #000000; stroke-width: 1.5"/>
      <g>
       <use xlink:href="#m305c962451" x="42.057313" y="45.823975" style="stroke: #333333"/>
      </g>
     </g>
     <g id="text_8">
      <!-- 100 -->
      <g style="fill: #4d4d4d" transform="translate(20.310312 48.252225)scale(0.088 -0.088)">
       <defs>
        <path id="DejaVuSans-31" d="M 794 531  L 1825 531  L 1825 4091  L 703 3866  L 703 4441  L 1819 4666  L 2450 4666  L 2450 531  L 3481 531  L 3481 0  L 794 0  L 794 531  z " transform="scale(0.015625)"/>
       </defs>
       <use xlink:href="#DejaVuSans-31"/>
       <use xlink:href="#DejaVuSans-30" x="63.623047"/>
       <use xlink:href="#DejaVuSans-30" x="127.246094"/>
      </g>
     </g>
    </g>
    <g id="ytick_4">
     <g id="line2d_8">
      <path d="M 42.057313 24.099837  " style="fill: none; stroke: #000000; stroke-width: 1.5"/>
      <g>
       <use xlink:href="#m305c962451" x="42.057313" y="24.099837" style="stroke: #333333"/>
      </g>
     </g>
     <g id="text_9">
      <!-- 150 -->
      <g style="fill: #4d4d4d" transform="translate(20.310312 26.528087)scale(0.088 -0.088)">
       <use xlink:href="#DejaVuSans-31"/>
       <use xlink:href="#DejaVuSans-35" x="63.623047"/>
       <use xlink:href="#DejaVuSans-30" x="127.246094"/>
      </g>
     </g>
    </g>
    <g id="ytick_5"/>
    <g id="ytick_6"/>
    <g id="ytick_7"/>
    <g id="text_10">
     <!-- # of cells -->
     <g transform="translate(14.038594 78.378735)rotate(-90)scale(0.09 -0.09)">
      <defs>
       <path id="DejaVuSans-23" d="M 3272 2816  L 2363 2816  L 2100 1772  L 3016 1772  L 3272 2816  z M 2803 4594  L 2478 3297  L 3391 3297  L 3719 4594  L 4219 4594  L 3897 3297  L 4872 3297  L 4872 2816  L 3775 2816  L 3519 1772  L 4513 1772  L 4513 1294  L 3397 1294  L 3072 0  L 2572 0  L 2894 1294  L 1978 1294  L 1656 0  L 1153 0  L 1478 1294  L 494 1294  L 494 1772  L 1594 1772  L 1856 2816  L 850 2816  L 850 3297  L 1978 3297  L 2297 4594  L 2803 4594  z " transform="scale(0.015625)"/>
      </defs>
      <use xlink:href="#DejaVuSans-23"/>
      <use xlink:href="#DejaVuSans-20" x="83.789062"/>
      <use xlink:href="#DejaVuSans-6f" x="115.576172"/>
      <use xlink:href="#DejaVuSans-66" x="176.757812"/>
      <use xlink:href="#DejaVuSans-20" x="211.962891"/>
      <use xlink:href="#DejaVuSans-63" x="243.75"/>
      <use xlink:href="#DejaVuSans-65" x="298.730469"/>
      <use xlink:href="#DejaVuSans-6c" x="360.253906"/>
      <use xlink:href="#DejaVuSans-6c" x="388.037109"/>
      <use xlink:href="#DejaVuSans-73" x="415.820312"/>
     </g>
    </g>
   </g>
   <g id="PolyCollection_1">
    <path d="M 49.666403 89.272251  L 49.666403 26.272251  L 60.536533 26.272251  L 60.536533 89.272251  z " clip-path="url(#p69a65ab727)" style="fill: #595959"/>
    <path d="M 60.536533 89.272251  L 60.536533 63.203285  L 71.406663 63.203285  L 71.406663 89.272251  z " clip-path="url(#p69a65ab727)" style="fill: #595959"/>
    <path d="M 71.406663 89.272251  L 71.406663 80.582595  L 82.276793 80.582595  L 82.276793 89.272251  z " clip-path="url(#p69a65ab727)" style="fill: #595959"/>
    <path d="M 82.276793 89.272251  L 82.276793 84.49294  L 93.146923 84.49294  L 93.146923 89.272251  z " clip-path="url(#p69a65ab727)" style="fill: #595959"/>
    <path d="M 93.146923 89.272251  L 93.146923 87.53432  L 104.017053 87.53432  L 104.017053 89.272251  z " clip-path="url(#p69a65ab727)" style="fill: #595959"/>
    <path d="M 104.017053 89.272251  L 104.017053 87.099837  L 114.887183 87.099837  L 114.887183 89.272251  z " clip-path="url(#p69a65ab727)" style="fill: #595959"/>
    <path d="M 114.887183 89.272251  L 114.887183 89.272251  L 125.757313 89.272251  L 125.757313 89.272251  z " clip-path="url(#p69a65ab727)" style="fill: #595959"/>
    <path d="M 125.757313 89.272251  L 125.757313 88.837768  L 136.627442 88.837768  L 136.627442 89.272251  z " clip-path="url(#p69a65ab727)" style="fill: #595959"/>
    <path d="M 136.627442 89.272251  L 136.627442 87.53432  L 147.497572 87.53432  L 147.497572 89.272251  z " clip-path="url(#p69a65ab727)" style="fill: #595959"/>
    <path d="M 147.497572 89.272251  L 147.497572 89.272251  L 158.367702 89.272251  L 158.367702 89.272251  z " clip-path="url(#p69a65ab727)" style="fill: #595959"/>
    <path d="M 158.367702 89.272251  L 158.367702 89.272251  L 169.237832 89.272251  L 169.237832 89.272251  z " clip-path="url(#p69a65ab727)" style="fill: #595959"/>
    <path d="M 169.237832 89.272251  L 169.237832 89.272251  L 180.107962 89.272251  L 180.107962 89.272251  z " clip-path="url(#p69a65ab727)" style="fill: #595959"/>
    <path d="M 180.107962 89.272251  L 180.107962 87.968802  L 190.978092 87.968802  L 190.978092 89.272251  z " clip-path="url(#p69a65ab727)" style="fill: #595959"/>
    <path d="M 190.978092 89.272251  L 190.978092 88.837768  L 201.848222 88.837768  L 201.848222 89.272251  z " clip-path="url(#p69a65ab727)" style="fill: #595959"/>
   </g>
   <g id="patch_3">
    <path d="M 42.057313 92.422251  L 42.057313 23.122251  " style="fill: none; stroke: #000000; stroke-linejoin: miter; stroke-linecap: square"/>
   </g>
   <g id="patch_4">
    <path d="M 42.057313 92.422251  L 209.457313 92.422251  " style="fill: none; stroke: #000000; stroke-linejoin: miter; stroke-linecap: square"/>
   </g>
  </g>
  <g id="text_11">
   <!-- Viral transcription in infected cells -->
   <g transform="translate(37.576062 14.798438)scale(0.1 -0.1)">
    <defs>
     <path id="DejaVuSans-56" d="M 1831 0  L 50 4666  L 709 4666  L 2188 738  L 3669 4666  L 4325 4666  L 2547 0  L 1831 0  z " transform="scale(0.015625)"/>
     <path id="DejaVuSans-64" d="M 2906 2969  L 2906 4863  L 3481 4863  L 3481 0  L 2906 0  L 2906 525  Q 2725 213 2448 61  Q 2172 -91 1784 -91  Q 1150 -91 751 415  Q 353 922 353 1747  Q 353 2572 751 3078  Q 1150 3584 1784 3584  Q 2172 3584 2448 3432  Q 2725 3281 2906 2969  z M 947 1747  Q 947 1113 1208 752  Q 1469 391 1925 391  Q 2381 391 2643 752  Q 2906 1113 2906 1747  Q 2906 2381 2643 2742  Q 2381 3103 1925 3103  Q 1469 3103 1208 2742  Q 947 2381 947 1747  z " transform="scale(0.015625)"/>
    </defs>
    <use xlink:href="#DejaVuSans-56"/>
    <use xlink:href="#DejaVuSans-69" x="66.158203"/>
    <use xlink:href="#DejaVuSans-72" x="93.941406"/>
    <use xlink:href="#DejaVuSans-61" x="135.054688"/>
    <use xlink:href="#DejaVuSans-6c" x="196.333984"/>
    <use xlink:href="#DejaVuSans-20" x="224.117188"/>
    <use xlink:href="#DejaVuSans-74" x="255.904297"/>
    <use xlink:href="#DejaVuSans-72" x="295.113281"/>
    <use xlink:href="#DejaVuSans-61" x="336.226562"/>
    <use xlink:href="#DejaVuSans-6e" x="397.505859"/>
    <use xlink:href="#DejaVuSans-73" x="460.884766"/>
    <use xlink:href="#DejaVuSans-63" x="512.984375"/>
    <use xlink:href="#DejaVuSans-72" x="567.964844"/>
    <use xlink:href="#DejaVuSans-69" x="609.078125"/>
    <use xlink:href="#DejaVuSans-70" x="636.861328"/>
    <use xlink:href="#DejaVuSans-74" x="700.337891"/>
    <use xlink:href="#DejaVuSans-69" x="739.546875"/>
    <use xlink:href="#DejaVuSans-6f" x="767.330078"/>
    <use xlink:href="#DejaVuSans-6e" x="828.511719"/>
    <use xlink:href="#DejaVuSans-20" x="891.890625"/>
    <use xlink:href="#DejaVuSans-69" x="923.677734"/>
    <use xlink:href="#DejaVuSans-6e" x="951.460938"/>
    <use xlink:href="#DejaVuSans-20" x="1014.839844"/>
    <use xlink:href="#DejaVuSans-69" x="1046.626953"/>
    <use xlink:href="#DejaVuSans-6e" x="1074.410156"/>
    <use xlink:href="#DejaVuSans-66" x="1137.789062"/>
    <use xlink:href="#DejaVuSans-65" x="1172.994141"/>
    <use xlink:href="#DejaVuSans-63" x="1234.517578"/>
    <use xlink:href="#DejaVuSans-74" x="1289.498047"/>
    <use xlink:href="#DejaVuSans-65" x="1328.707031"/>
    <use xlink:href="#DejaVuSans-64" x="1390.230469"/>
    <use xlink:href="#DejaVuSans-20" x="1453.707031"/>
    <use xlink:href="#DejaVuSans-63" x="1485.494141"/>
    <use xlink:href="#DejaVuSans-65" x="1540.474609"/>
    <use xlink:href="#DejaVuSans-6c" x="1601.998047"/>
    <use xlink:href="#DejaVuSans-6c" x="1629.78125"/>
    <use xlink:href="#DejaVuSans-73" x="1657.564453"/>
   </g>
  </g>
 </g>
 <defs>
  <clipPath id="p69a65ab727">
   <rect x="42.057313" y="23.122251" width="167.4" height="69.3"/>
  </clipPath>
 </defs>
</g>
      <text x="5" y="15" font-size="14" font-family="Verdana" font-weight="normal" letter-spacing="0" text-anchor="start" fill="black">A</text>
    </g>
    <g transform="translate(531.496062992126, 0.0) scale(1) translate(0, 0) scale(2) ">
      <g><metadata>
  <rdf:RDF xmlns:dc="http://purl.org/dc/elements/1.1/" xmlns:cc="http://creativecommons.org/ns#" xmlns:rdf="http://www.w3.org/1999/02/22-rdf-syntax-ns#">
   <cc:Work>
    <dc:type rdf:resource="http://purl.org/dc/dcmitype/StillImage"/>
    <dc:date>2022-08-05T16:00:57.442740</dc:date>
    <dc:format>image/svg+xml</dc:format>
    <dc:creator>
     <cc:Agent>
      <dc:title>Matplotlib v3.5.2, https://matplotlib.org/</dc:title>
     </cc:Agent>
    </dc:creator>
   </cc:Work>
  </rdf:RDF>
 </metadata>
 <defs>
  <style type="text/css">*{stroke-linejoin: round; stroke-linecap: butt}</style>
 </defs>
 <g id="figure_1">
  <g id="patch_1">
   <path d="M 0 121.281642  L 160.857313 121.281642  L 160.857313 0  L 0 0  z " style="fill: #ffffff; stroke: #ffffff; stroke-linejoin: miter"/>
  </g>
  <g id="axes_1">
   <g id="patch_2">
    <path d="M 42.057312 87.504579  L 153.657312 87.504579  L 153.657312 32.064579  L 42.057312 32.064579  z " style="fill: #ffffff"/>
   </g>
   <g id="matplotlib.axis_1">
    <g id="xtick_1">
     <g id="line2d_1">
      <path d="M 53.746641 87.504579  " style="fill: none; stroke: #000000; stroke-width: 1.5"/>
      <defs>
       <path id="m742c33456c" d="M 0 0  L 0 2.75  " style="stroke: #333333"/>
      </defs>
      <g>
       <use xlink:href="#m742c33456c" x="53.746641" y="87.504579" style="stroke: #333333"/>
      </g>
     </g>
     <g id="text_1">
      <!-- 2 -->
      <g style="fill: #4d4d4d" transform="translate(50.947141 99.141204)scale(0.088 -0.088)">
       <defs>
        <path id="DejaVuSans-32" d="M 1228 531  L 3431 531  L 3431 0  L 469 0  L 469 531  Q 828 903 1448 1529  Q 2069 2156 2228 2338  Q 2531 2678 2651 2914  Q 2772 3150 2772 3378  Q 2772 3750 2511 3984  Q 2250 4219 1831 4219  Q 1534 4219 1204 4116  Q 875 4013 500 3803  L 500 4441  Q 881 4594 1212 4672  Q 1544 4750 1819 4750  Q 2544 4750 2975 4387  Q 3406 4025 3406 3419  Q 3406 3131 3298 2873  Q 3191 2616 2906 2266  Q 2828 2175 2409 1742  Q 1991 1309 1228 531  z " transform="scale(0.015625)"/>
       </defs>
       <use xlink:href="#DejaVuSans-32"/>
      </g>
     </g>
    </g>
    <g id="xtick_2">
     <g id="line2d_2">
      <path d="M 83.153755 87.504579  " style="fill: none; stroke: #000000; stroke-width: 1.5"/>
      <g>
       <use xlink:href="#m742c33456c" x="83.153755" y="87.504579" style="stroke: #333333"/>
      </g>
     </g>
     <g id="text_2">
      <!-- 4 -->
      <g style="fill: #4d4d4d" transform="translate(80.354255 99.141204)scale(0.088 -0.088)">
       <defs>
        <path id="DejaVuSans-34" d="M 2419 4116  L 825 1625  L 2419 1625  L 2419 4116  z M 2253 4666  L 3047 4666  L 3047 1625  L 3713 1625  L 3713 1100  L 3047 1100  L 3047 0  L 2419 0  L 2419 1100  L 313 1100  L 313 1709  L 2253 4666  z " transform="scale(0.015625)"/>
       </defs>
       <use xlink:href="#DejaVuSans-34"/>
      </g>
     </g>
    </g>
    <g id="xtick_3">
     <g id="line2d_3">
      <path d="M 112.56087 87.504579  " style="fill: none; stroke: #000000; stroke-width: 1.5"/>
      <g>
       <use xlink:href="#m742c33456c" x="112.56087" y="87.504579" style="stroke: #333333"/>
      </g>
     </g>
     <g id="text_3">
      <!-- 6 -->
      <g style="fill: #4d4d4d" transform="translate(109.76137 99.141204)scale(0.088 -0.088)">
       <defs>
        <path id="DejaVuSans-36" d="M 2113 2584  Q 1688 2584 1439 2293  Q 1191 2003 1191 1497  Q 1191 994 1439 701  Q 1688 409 2113 409  Q 2538 409 2786 701  Q 3034 994 3034 1497  Q 3034 2003 2786 2293  Q 2538 2584 2113 2584  z M 3366 4563  L 3366 3988  Q 3128 4100 2886 4159  Q 2644 4219 2406 4219  Q 1781 4219 1451 3797  Q 1122 3375 1075 2522  Q 1259 2794 1537 2939  Q 1816 3084 2150 3084  Q 2853 3084 3261 2657  Q 3669 2231 3669 1497  Q 3669 778 3244 343  Q 2819 -91 2113 -91  Q 1303 -91 875 529  Q 447 1150 447 2328  Q 447 3434 972 4092  Q 1497 4750 2381 4750  Q 2619 4750 2861 4703  Q 3103 4656 3366 4563  z " transform="scale(0.015625)"/>
       </defs>
       <use xlink:href="#DejaVuSans-36"/>
      </g>
     </g>
    </g>
    <g id="xtick_4">
     <g id="line2d_4">
      <path d="M 141.967984 87.504579  " style="fill: none; stroke: #000000; stroke-width: 1.5"/>
      <g>
       <use xlink:href="#m742c33456c" x="141.967984" y="87.504579" style="stroke: #333333"/>
      </g>
     </g>
     <g id="text_4">
      <!-- 8 -->
      <g style="fill: #4d4d4d" transform="translate(139.168484 99.141204)scale(0.088 -0.088)">
       <defs>
        <path id="DejaVuSans-38" d="M 2034 2216  Q 1584 2216 1326 1975  Q 1069 1734 1069 1313  Q 1069 891 1326 650  Q 1584 409 2034 409  Q 2484 409 2743 651  Q 3003 894 3003 1313  Q 3003 1734 2745 1975  Q 2488 2216 2034 2216  z M 1403 2484  Q 997 2584 770 2862  Q 544 3141 544 3541  Q 544 4100 942 4425  Q 1341 4750 2034 4750  Q 2731 4750 3128 4425  Q 3525 4100 3525 3541  Q 3525 3141 3298 2862  Q 3072 2584 2669 2484  Q 3125 2378 3379 2068  Q 3634 1759 3634 1313  Q 3634 634 3220 271  Q 2806 -91 2034 -91  Q 1263 -91 848 271  Q 434 634 434 1313  Q 434 1759 690 2068  Q 947 2378 1403 2484  z M 1172 3481  Q 1172 3119 1398 2916  Q 1625 2713 2034 2713  Q 2441 2713 2670 2916  Q 2900 3119 2900 3481  Q 2900 3844 2670 4047  Q 2441 4250 2034 4250  Q 1625 4250 1398 4047  Q 1172 3844 1172 3481  z " transform="scale(0.015625)"/>
       </defs>
       <use xlink:href="#DejaVuSans-38"/>
      </g>
     </g>
    </g>
    <g id="xtick_5"/>
    <g id="xtick_6"/>
    <g id="xtick_7"/>
    <g id="text_5">
     <!-- # of viral genes detected -->
     <g transform="translate(38.843328 112.209923)scale(0.09 -0.09)">
      <defs>
       <path id="DejaVuSans-23" d="M 3272 2816  L 2363 2816  L 2100 1772  L 3016 1772  L 3272 2816  z M 2803 4594  L 2478 3297  L 3391 3297  L 3719 4594  L 4219 4594  L 3897 3297  L 4872 3297  L 4872 2816  L 3775 2816  L 3519 1772  L 4513 1772  L 4513 1294  L 3397 1294  L 3072 0  L 2572 0  L 2894 1294  L 1978 1294  L 1656 0  L 1153 0  L 1478 1294  L 494 1294  L 494 1772  L 1594 1772  L 1856 2816  L 850 2816  L 850 3297  L 1978 3297  L 2297 4594  L 2803 4594  z " transform="scale(0.015625)"/>
       <path id="DejaVuSans-20" transform="scale(0.015625)"/>
       <path id="DejaVuSans-6f" d="M 1959 3097  Q 1497 3097 1228 2736  Q 959 2375 959 1747  Q 959 1119 1226 758  Q 1494 397 1959 397  Q 2419 397 2687 759  Q 2956 1122 2956 1747  Q 2956 2369 2687 2733  Q 2419 3097 1959 3097  z M 1959 3584  Q 2709 3584 3137 3096  Q 3566 2609 3566 1747  Q 3566 888 3137 398  Q 2709 -91 1959 -91  Q 1206 -91 779 398  Q 353 888 353 1747  Q 353 2609 779 3096  Q 1206 3584 1959 3584  z " transform="scale(0.015625)"/>
       <path id="DejaVuSans-66" d="M 2375 4863  L 2375 4384  L 1825 4384  Q 1516 4384 1395 4259  Q 1275 4134 1275 3809  L 1275 3500  L 2222 3500  L 2222 3053  L 1275 3053  L 1275 0  L 697 0  L 697 3053  L 147 3053  L 147 3500  L 697 3500  L 697 3744  Q 697 4328 969 4595  Q 1241 4863 1831 4863  L 2375 4863  z " transform="scale(0.015625)"/>
       <path id="DejaVuSans-76" d="M 191 3500  L 800 3500  L 1894 563  L 2988 3500  L 3597 3500  L 2284 0  L 1503 0  L 191 3500  z " transform="scale(0.015625)"/>
       <path id="DejaVuSans-69" d="M 603 3500  L 1178 3500  L 1178 0  L 603 0  L 603 3500  z M 603 4863  L 1178 4863  L 1178 4134  L 603 4134  L 603 4863  z " transform="scale(0.015625)"/>
       <path id="DejaVuSans-72" d="M 2631 2963  Q 2534 3019 2420 3045  Q 2306 3072 2169 3072  Q 1681 3072 1420 2755  Q 1159 2438 1159 1844  L 1159 0  L 581 0  L 581 3500  L 1159 3500  L 1159 2956  Q 1341 3275 1631 3429  Q 1922 3584 2338 3584  Q 2397 3584 2469 3576  Q 2541 3569 2628 3553  L 2631 2963  z " transform="scale(0.015625)"/>
       <path id="DejaVuSans-61" d="M 2194 1759  Q 1497 1759 1228 1600  Q 959 1441 959 1056  Q 959 750 1161 570  Q 1363 391 1709 391  Q 2188 391 2477 730  Q 2766 1069 2766 1631  L 2766 1759  L 2194 1759  z M 3341 1997  L 3341 0  L 2766 0  L 2766 531  Q 2569 213 2275 61  Q 1981 -91 1556 -91  Q 1019 -91 701 211  Q 384 513 384 1019  Q 384 1609 779 1909  Q 1175 2209 1959 2209  L 2766 2209  L 2766 2266  Q 2766 2663 2505 2880  Q 2244 3097 1772 3097  Q 1472 3097 1187 3025  Q 903 2953 641 2809  L 641 3341  Q 956 3463 1253 3523  Q 1550 3584 1831 3584  Q 2591 3584 2966 3190  Q 3341 2797 3341 1997  z " transform="scale(0.015625)"/>
       <path id="DejaVuSans-6c" d="M 603 4863  L 1178 4863  L 1178 0  L 603 0  L 603 4863  z " transform="scale(0.015625)"/>
       <path id="DejaVuSans-67" d="M 2906 1791  Q 2906 2416 2648 2759  Q 2391 3103 1925 3103  Q 1463 3103 1205 2759  Q 947 2416 947 1791  Q 947 1169 1205 825  Q 1463 481 1925 481  Q 2391 481 2648 825  Q 2906 1169 2906 1791  z M 3481 434  Q 3481 -459 3084 -895  Q 2688 -1331 1869 -1331  Q 1566 -1331 1297 -1286  Q 1028 -1241 775 -1147  L 775 -588  Q 1028 -725 1275 -790  Q 1522 -856 1778 -856  Q 2344 -856 2625 -561  Q 2906 -266 2906 331  L 2906 616  Q 2728 306 2450 153  Q 2172 0 1784 0  Q 1141 0 747 490  Q 353 981 353 1791  Q 353 2603 747 3093  Q 1141 3584 1784 3584  Q 2172 3584 2450 3431  Q 2728 3278 2906 2969  L 2906 3500  L 3481 3500  L 3481 434  z " transform="scale(0.015625)"/>
       <path id="DejaVuSans-65" d="M 3597 1894  L 3597 1613  L 953 1613  Q 991 1019 1311 708  Q 1631 397 2203 397  Q 2534 397 2845 478  Q 3156 559 3463 722  L 3463 178  Q 3153 47 2828 -22  Q 2503 -91 2169 -91  Q 1331 -91 842 396  Q 353 884 353 1716  Q 353 2575 817 3079  Q 1281 3584 2069 3584  Q 2775 3584 3186 3129  Q 3597 2675 3597 1894  z M 3022 2063  Q 3016 2534 2758 2815  Q 2500 3097 2075 3097  Q 1594 3097 1305 2825  Q 1016 2553 972 2059  L 3022 2063  z " transform="scale(0.015625)"/>
       <path id="DejaVuSans-6e" d="M 3513 2113  L 3513 0  L 2938 0  L 2938 2094  Q 2938 2591 2744 2837  Q 2550 3084 2163 3084  Q 1697 3084 1428 2787  Q 1159 2491 1159 1978  L 1159 0  L 581 0  L 581 3500  L 1159 3500  L 1159 2956  Q 1366 3272 1645 3428  Q 1925 3584 2291 3584  Q 2894 3584 3203 3211  Q 3513 2838 3513 2113  z " transform="scale(0.015625)"/>
       <path id="DejaVuSans-73" d="M 2834 3397  L 2834 2853  Q 2591 2978 2328 3040  Q 2066 3103 1784 3103  Q 1356 3103 1142 2972  Q 928 2841 928 2578  Q 928 2378 1081 2264  Q 1234 2150 1697 2047  L 1894 2003  Q 2506 1872 2764 1633  Q 3022 1394 3022 966  Q 3022 478 2636 193  Q 2250 -91 1575 -91  Q 1294 -91 989 -36  Q 684 19 347 128  L 347 722  Q 666 556 975 473  Q 1284 391 1588 391  Q 1994 391 2212 530  Q 2431 669 2431 922  Q 2431 1156 2273 1281  Q 2116 1406 1581 1522  L 1381 1569  Q 847 1681 609 1914  Q 372 2147 372 2553  Q 372 3047 722 3315  Q 1072 3584 1716 3584  Q 2034 3584 2315 3537  Q 2597 3491 2834 3397  z " transform="scale(0.015625)"/>
       <path id="DejaVuSans-64" d="M 2906 2969  L 2906 4863  L 3481 4863  L 3481 0  L 2906 0  L 2906 525  Q 2725 213 2448 61  Q 2172 -91 1784 -91  Q 1150 -91 751 415  Q 353 922 353 1747  Q 353 2572 751 3078  Q 1150 3584 1784 3584  Q 2172 3584 2448 3432  Q 2725 3281 2906 2969  z M 947 1747  Q 947 1113 1208 752  Q 1469 391 1925 391  Q 2381 391 2643 752  Q 2906 1113 2906 1747  Q 2906 2381 2643 2742  Q 2381 3103 1925 3103  Q 1469 3103 1208 2742  Q 947 2381 947 1747  z " transform="scale(0.015625)"/>
       <path id="DejaVuSans-74" d="M 1172 4494  L 1172 3500  L 2356 3500  L 2356 3053  L 1172 3053  L 1172 1153  Q 1172 725 1289 603  Q 1406 481 1766 481  L 2356 481  L 2356 0  L 1766 0  Q 1100 0 847 248  Q 594 497 594 1153  L 594 3053  L 172 3053  L 172 3500  L 594 3500  L 594 4494  L 1172 4494  z " transform="scale(0.015625)"/>
       <path id="DejaVuSans-63" d="M 3122 3366  L 3122 2828  Q 2878 2963 2633 3030  Q 2388 3097 2138 3097  Q 1578 3097 1268 2742  Q 959 2388 959 1747  Q 959 1106 1268 751  Q 1578 397 2138 397  Q 2388 397 2633 464  Q 2878 531 3122 666  L 3122 134  Q 2881 22 2623 -34  Q 2366 -91 2075 -91  Q 1284 -91 818 406  Q 353 903 353 1747  Q 353 2603 823 3093  Q 1294 3584 2113 3584  Q 2378 3584 2631 3529  Q 2884 3475 3122 3366  z " transform="scale(0.015625)"/>
      </defs>
      <use xlink:href="#DejaVuSans-23"/>
      <use xlink:href="#DejaVuSans-20" x="83.789062"/>
      <use xlink:href="#DejaVuSans-6f" x="115.576172"/>
      <use xlink:href="#DejaVuSans-66" x="176.757812"/>
      <use xlink:href="#DejaVuSans-20" x="211.962891"/>
      <use xlink:href="#DejaVuSans-76" x="243.75"/>
      <use xlink:href="#DejaVuSans-69" x="302.929688"/>
      <use xlink:href="#DejaVuSans-72" x="330.712891"/>
      <use xlink:href="#DejaVuSans-61" x="371.826172"/>
      <use xlink:href="#DejaVuSans-6c" x="433.105469"/>
      <use xlink:href="#DejaVuSans-20" x="460.888672"/>
      <use xlink:href="#DejaVuSans-67" x="492.675781"/>
      <use xlink:href="#DejaVuSans-65" x="556.152344"/>
      <use xlink:href="#DejaVuSans-6e" x="617.675781"/>
      <use xlink:href="#DejaVuSans-65" x="681.054688"/>
      <use xlink:href="#DejaVuSans-73" x="742.578125"/>
      <use xlink:href="#DejaVuSans-20" x="794.677734"/>
      <use xlink:href="#DejaVuSans-64" x="826.464844"/>
      <use xlink:href="#DejaVuSans-65" x="889.941406"/>
      <use xlink:href="#DejaVuSans-74" x="951.464844"/>
      <use xlink:href="#DejaVuSans-65" x="990.673828"/>
      <use xlink:href="#DejaVuSans-63" x="1052.197266"/>
      <use xlink:href="#DejaVuSans-74" x="1107.177734"/>
      <use xlink:href="#DejaVuSans-65" x="1146.386719"/>
      <use xlink:href="#DejaVuSans-64" x="1207.910156"/>
     </g>
    </g>
   </g>
   <g id="matplotlib.axis_2">
    <g id="ytick_1">
     <g id="line2d_5">
      <path d="M 42.057312 84.984579  " style="fill: none; stroke: #000000; stroke-width: 1.5"/>
      <defs>
       <path id="me3d192c1cc" d="M 0 0  L -2.75 0  " style="stroke: #333333"/>
      </defs>
      <g>
       <use xlink:href="#me3d192c1cc" x="42.057312" y="84.984579" style="stroke: #333333"/>
      </g>
     </g>
     <g id="text_6">
      <!-- 0 -->
      <g style="fill: #4d4d4d" transform="translate(31.508312 87.412829)scale(0.088 -0.088)">
       <defs>
        <path id="DejaVuSans-30" d="M 2034 4250  Q 1547 4250 1301 3770  Q 1056 3291 1056 2328  Q 1056 1369 1301 889  Q 1547 409 2034 409  Q 2525 409 2770 889  Q 3016 1369 3016 2328  Q 3016 3291 2770 3770  Q 2525 4250 2034 4250  z M 2034 4750  Q 2819 4750 3233 4129  Q 3647 3509 3647 2328  Q 3647 1150 3233 529  Q 2819 -91 2034 -91  Q 1250 -91 836 529  Q 422 1150 422 2328  Q 422 3509 836 4129  Q 1250 4750 2034 4750  z " transform="scale(0.015625)"/>
       </defs>
       <use xlink:href="#DejaVuSans-30"/>
      </g>
     </g>
    </g>
    <g id="ytick_2">
     <g id="line2d_6">
      <path d="M 42.057312 70.584579  " style="fill: none; stroke: #000000; stroke-width: 1.5"/>
      <g>
       <use xlink:href="#me3d192c1cc" x="42.057312" y="70.584579" style="stroke: #333333"/>
      </g>
     </g>
     <g id="text_7">
      <!-- 50 -->
      <g style="fill: #4d4d4d" transform="translate(25.909312 73.012829)scale(0.088 -0.088)">
       <defs>
        <path id="DejaVuSans-35" d="M 691 4666  L 3169 4666  L 3169 4134  L 1269 4134  L 1269 2991  Q 1406 3038 1543 3061  Q 1681 3084 1819 3084  Q 2600 3084 3056 2656  Q 3513 2228 3513 1497  Q 3513 744 3044 326  Q 2575 -91 1722 -91  Q 1428 -91 1123 -41  Q 819 9 494 109  L 494 744  Q 775 591 1075 516  Q 1375 441 1709 441  Q 2250 441 2565 725  Q 2881 1009 2881 1497  Q 2881 1984 2565 2268  Q 2250 2553 1709 2553  Q 1456 2553 1204 2497  Q 953 2441 691 2322  L 691 4666  z " transform="scale(0.015625)"/>
       </defs>
       <use xlink:href="#DejaVuSans-35"/>
       <use xlink:href="#DejaVuSans-30" x="63.623047"/>
      </g>
     </g>
    </g>
    <g id="ytick_3">
     <g id="line2d_7">
      <path d="M 42.057312 56.184579  " style="fill: none; stroke: #000000; stroke-width: 1.5"/>
      <g>
       <use xlink:href="#me3d192c1cc" x="42.057312" y="56.184579" style="stroke: #333333"/>
      </g>
     </g>
     <g id="text_8">
      <!-- 100 -->
      <g style="fill: #4d4d4d" transform="translate(20.310312 58.612829)scale(0.088 -0.088)">
       <defs>
        <path id="DejaVuSans-31" d="M 794 531  L 1825 531  L 1825 4091  L 703 3866  L 703 4441  L 1819 4666  L 2450 4666  L 2450 531  L 3481 531  L 3481 0  L 794 0  L 794 531  z " transform="scale(0.015625)"/>
       </defs>
       <use xlink:href="#DejaVuSans-31"/>
       <use xlink:href="#DejaVuSans-30" x="63.623047"/>
       <use xlink:href="#DejaVuSans-30" x="127.246094"/>
      </g>
     </g>
    </g>
    <g id="ytick_4">
     <g id="line2d_8">
      <path d="M 42.057312 41.784579  " style="fill: none; stroke: #000000; stroke-width: 1.5"/>
      <g>
       <use xlink:href="#me3d192c1cc" x="42.057312" y="41.784579" style="stroke: #333333"/>
      </g>
     </g>
     <g id="text_9">
      <!-- 150 -->
      <g style="fill: #4d4d4d" transform="translate(20.310312 44.212829)scale(0.088 -0.088)">
       <use xlink:href="#DejaVuSans-31"/>
       <use xlink:href="#DejaVuSans-35" x="63.623047"/>
       <use xlink:href="#DejaVuSans-30" x="127.246094"/>
      </g>
     </g>
    </g>
    <g id="ytick_5"/>
    <g id="ytick_6"/>
    <g id="ytick_7"/>
    <g id="ytick_8"/>
    <g id="text_10">
     <!-- # of cells -->
     <g transform="translate(14.038594 80.481064)rotate(-90)scale(0.09 -0.09)">
      <use xlink:href="#DejaVuSans-23"/>
      <use xlink:href="#DejaVuSans-20" x="83.789062"/>
      <use xlink:href="#DejaVuSans-6f" x="115.576172"/>
      <use xlink:href="#DejaVuSans-66" x="176.757812"/>
      <use xlink:href="#DejaVuSans-20" x="211.962891"/>
      <use xlink:href="#DejaVuSans-63" x="243.75"/>
      <use xlink:href="#DejaVuSans-65" x="298.730469"/>
      <use xlink:href="#DejaVuSans-6c" x="360.253906"/>
      <use xlink:href="#DejaVuSans-6c" x="388.037109"/>
      <use xlink:href="#DejaVuSans-73" x="415.820312"/>
     </g>
    </g>
   </g>
   <g id="PolyCollection_1">
    <path d="M 47.13004 84.984579  L 47.13004 84.408579  L 60.363241 84.408579  L 60.363241 84.984579  z " clip-path="url(#pca0f4d311e)" style="fill: #595959"/>
    <path d="M 61.833597 84.984579  L 61.833597 84.408579  L 75.066799 84.408579  L 75.066799 84.984579  z " clip-path="url(#pca0f4d311e)" style="fill: #595959"/>
    <path d="M 76.537154 84.984579  L 76.537154 84.120579  L 89.770356 84.120579  L 89.770356 84.984579  z " clip-path="url(#pca0f4d311e)" style="fill: #595959"/>
    <path d="M 91.240712 84.984579  L 91.240712 82.680579  L 104.473913 82.680579  L 104.473913 84.984579  z " clip-path="url(#pca0f4d311e)" style="fill: #595959"/>
    <path d="M 105.944269 84.984579  L 105.944269 81.240579  L 119.177471 81.240579  L 119.177471 84.984579  z " clip-path="url(#pca0f4d311e)" style="fill: #595959"/>
    <path d="M 120.647826 84.984579  L 120.647826 64.824579  L 133.881028 64.824579  L 133.881028 84.984579  z " clip-path="url(#pca0f4d311e)" style="fill: #595959"/>
    <path d="M 135.351384 84.984579  L 135.351384 40.056579  L 148.584585 40.056579  L 148.584585 84.984579  z " clip-path="url(#pca0f4d311e)" style="fill: #595959"/>
   </g>
   <g id="patch_3">
    <path d="M 42.057312 87.504579  L 42.057312 32.064579  " style="fill: none; stroke: #000000; stroke-linejoin: miter; stroke-linecap: square"/>
   </g>
   <g id="patch_4">
    <path d="M 42.057312 87.504579  L 153.657312 87.504579  " style="fill: none; stroke: #000000; stroke-linejoin: miter; stroke-linecap: square"/>
   </g>
  </g>
  <g id="text_11">
   <!-- Number of viral genes -->
   <g transform="translate(40.426844 14.798438)scale(0.1 -0.1)">
    <defs>
     <path id="DejaVuSans-4e" d="M 628 4666  L 1478 4666  L 3547 763  L 3547 4666  L 4159 4666  L 4159 0  L 3309 0  L 1241 3903  L 1241 0  L 628 0  L 628 4666  z " transform="scale(0.015625)"/>
     <path id="DejaVuSans-75" d="M 544 1381  L 544 3500  L 1119 3500  L 1119 1403  Q 1119 906 1312 657  Q 1506 409 1894 409  Q 2359 409 2629 706  Q 2900 1003 2900 1516  L 2900 3500  L 3475 3500  L 3475 0  L 2900 0  L 2900 538  Q 2691 219 2414 64  Q 2138 -91 1772 -91  Q 1169 -91 856 284  Q 544 659 544 1381  z M 1991 3584  L 1991 3584  z " transform="scale(0.015625)"/>
     <path id="DejaVuSans-6d" d="M 3328 2828  Q 3544 3216 3844 3400  Q 4144 3584 4550 3584  Q 5097 3584 5394 3201  Q 5691 2819 5691 2113  L 5691 0  L 5113 0  L 5113 2094  Q 5113 2597 4934 2840  Q 4756 3084 4391 3084  Q 3944 3084 3684 2787  Q 3425 2491 3425 1978  L 3425 0  L 2847 0  L 2847 2094  Q 2847 2600 2669 2842  Q 2491 3084 2119 3084  Q 1678 3084 1418 2786  Q 1159 2488 1159 1978  L 1159 0  L 581 0  L 581 3500  L 1159 3500  L 1159 2956  Q 1356 3278 1631 3431  Q 1906 3584 2284 3584  Q 2666 3584 2933 3390  Q 3200 3197 3328 2828  z " transform="scale(0.015625)"/>
     <path id="DejaVuSans-62" d="M 3116 1747  Q 3116 2381 2855 2742  Q 2594 3103 2138 3103  Q 1681 3103 1420 2742  Q 1159 2381 1159 1747  Q 1159 1113 1420 752  Q 1681 391 2138 391  Q 2594 391 2855 752  Q 3116 1113 3116 1747  z M 1159 2969  Q 1341 3281 1617 3432  Q 1894 3584 2278 3584  Q 2916 3584 3314 3078  Q 3713 2572 3713 1747  Q 3713 922 3314 415  Q 2916 -91 2278 -91  Q 1894 -91 1617 61  Q 1341 213 1159 525  L 1159 0  L 581 0  L 581 4863  L 1159 4863  L 1159 2969  z " transform="scale(0.015625)"/>
    </defs>
    <use xlink:href="#DejaVuSans-4e"/>
    <use xlink:href="#DejaVuSans-75" x="74.804688"/>
    <use xlink:href="#DejaVuSans-6d" x="138.183594"/>
    <use xlink:href="#DejaVuSans-62" x="235.595703"/>
    <use xlink:href="#DejaVuSans-65" x="299.072266"/>
    <use xlink:href="#DejaVuSans-72" x="360.595703"/>
    <use xlink:href="#DejaVuSans-20" x="401.708984"/>
    <use xlink:href="#DejaVuSans-6f" x="433.496094"/>
    <use xlink:href="#DejaVuSans-66" x="494.677734"/>
    <use xlink:href="#DejaVuSans-20" x="529.882812"/>
    <use xlink:href="#DejaVuSans-76" x="561.669922"/>
    <use xlink:href="#DejaVuSans-69" x="620.849609"/>
    <use xlink:href="#DejaVuSans-72" x="648.632812"/>
    <use xlink:href="#DejaVuSans-61" x="689.746094"/>
    <use xlink:href="#DejaVuSans-6c" x="751.025391"/>
    <use xlink:href="#DejaVuSans-20" x="778.808594"/>
    <use xlink:href="#DejaVuSans-67" x="810.595703"/>
    <use xlink:href="#DejaVuSans-65" x="874.072266"/>
    <use xlink:href="#DejaVuSans-6e" x="935.595703"/>
    <use xlink:href="#DejaVuSans-65" x="998.974609"/>
    <use xlink:href="#DejaVuSans-73" x="1060.498047"/>
   </g>
   <!-- in infected cells -->
   <g transform="translate(56.758094 23.716719)scale(0.1 -0.1)">
    <use xlink:href="#DejaVuSans-69"/>
    <use xlink:href="#DejaVuSans-6e" x="27.783203"/>
    <use xlink:href="#DejaVuSans-20" x="91.162109"/>
    <use xlink:href="#DejaVuSans-69" x="122.949219"/>
    <use xlink:href="#DejaVuSans-6e" x="150.732422"/>
    <use xlink:href="#DejaVuSans-66" x="214.111328"/>
    <use xlink:href="#DejaVuSans-65" x="249.316406"/>
    <use xlink:href="#DejaVuSans-63" x="310.839844"/>
    <use xlink:href="#DejaVuSans-74" x="365.820312"/>
    <use xlink:href="#DejaVuSans-65" x="405.029297"/>
    <use xlink:href="#DejaVuSans-64" x="466.552734"/>
    <use xlink:href="#DejaVuSans-20" x="530.029297"/>
    <use xlink:href="#DejaVuSans-63" x="561.816406"/>
    <use xlink:href="#DejaVuSans-65" x="616.796875"/>
    <use xlink:href="#DejaVuSans-6c" x="678.320312"/>
    <use xlink:href="#DejaVuSans-6c" x="706.103516"/>
    <use xlink:href="#DejaVuSans-73" x="733.886719"/>
   </g>
  </g>
 </g>
 <defs>
  <clipPath id="pca0f4d311e">
   <rect x="42.057312" y="32.064579" width="111.6" height="55.44"/>
  </clipPath>
 </defs>
</g>
      <text x="5" y="15" font-size="14" font-family="Verdana" font-weight="normal" letter-spacing="0" text-anchor="start" fill="black">B</text>
    </g>
    <g transform="translate(0.0, 283.4645669291338) scale(1) translate(0, 0) scale(2) ">
      <g><metadata>
  <rdf:RDF xmlns:dc="http://purl.org/dc/elements/1.1/" xmlns:cc="http://creativecommons.org/ns#" xmlns:rdf="http://www.w3.org/1999/02/22-rdf-syntax-ns#">
   <cc:Work>
    <dc:type rdf:resource="http://purl.org/dc/dcmitype/StillImage"/>
    <dc:date>2022-08-05T16:00:59.870604</dc:date>
    <dc:format>image/svg+xml</dc:format>
    <dc:creator>
     <cc:Agent>
      <dc:title>Matplotlib v3.5.2, https://matplotlib.org/</dc:title>
     </cc:Agent>
    </dc:creator>
   </cc:Work>
  </rdf:RDF>
 </metadata>
 <defs>
  <style type="text/css">*{stroke-linejoin: round; stroke-linecap: butt}</style>
 </defs>
 <g id="figure_1">
  <g id="patch_1">
   <path d="M 0 168.122251  L 218.743 168.122251  L 218.743 0  L 0 0  z " style="fill: #ffffff; stroke: #ffffff; stroke-linejoin: miter"/>
  </g>
  <g id="axes_1">
   <g id="patch_2">
    <path d="M 39.255063 106.282251  L 206.655063 106.282251  L 206.655063 23.122251  L 39.255063 23.122251  z " style="fill: #ffffff"/>
   </g>
   <g id="matplotlib.axis_1">
    <g id="xtick_1">
     <g id="line2d_1">
      <path d="M 51.503843 106.282251  " style="fill: none; stroke: #000000; stroke-width: 1.5"/>
      <defs>
       <path id="mbd2efd425c" d="M 0 0  L 0 2.75  " style="stroke: #333333"/>
      </defs>
      <g>
       <use xlink:href="#mbd2efd425c" x="51.503843" y="106.282251" style="stroke: #333333"/>
      </g>
     </g>
     <g id="text_1">
      <!-- PB2 -->
      <g style="fill: #4d4d4d" transform="translate(43.032468 117.918876)scale(0.088 -0.088)">
       <defs>
        <path id="DejaVuSans-50" d="M 1259 4147  L 1259 2394  L 2053 2394  Q 2494 2394 2734 2622  Q 2975 2850 2975 3272  Q 2975 3691 2734 3919  Q 2494 4147 2053 4147  L 1259 4147  z M 628 4666  L 2053 4666  Q 2838 4666 3239 4311  Q 3641 3956 3641 3272  Q 3641 2581 3239 2228  Q 2838 1875 2053 1875  L 1259 1875  L 1259 0  L 628 0  L 628 4666  z " transform="scale(0.015625)"/>
        <path id="DejaVuSans-42" d="M 1259 2228  L 1259 519  L 2272 519  Q 2781 519 3026 730  Q 3272 941 3272 1375  Q 3272 1813 3026 2020  Q 2781 2228 2272 2228  L 1259 2228  z M 1259 4147  L 1259 2741  L 2194 2741  Q 2656 2741 2882 2914  Q 3109 3088 3109 3444  Q 3109 3797 2882 3972  Q 2656 4147 2194 4147  L 1259 4147  z M 628 4666  L 2241 4666  Q 2963 4666 3353 4366  Q 3744 4066 3744 3513  Q 3744 3084 3544 2831  Q 3344 2578 2956 2516  Q 3422 2416 3680 2098  Q 3938 1781 3938 1306  Q 3938 681 3513 340  Q 3088 0 2303 0  L 628 0  L 628 4666  z " transform="scale(0.015625)"/>
        <path id="DejaVuSans-32" d="M 1228 531  L 3431 531  L 3431 0  L 469 0  L 469 531  Q 828 903 1448 1529  Q 2069 2156 2228 2338  Q 2531 2678 2651 2914  Q 2772 3150 2772 3378  Q 2772 3750 2511 3984  Q 2250 4219 1831 4219  Q 1534 4219 1204 4116  Q 875 4013 500 3803  L 500 4441  Q 881 4594 1212 4672  Q 1544 4750 1819 4750  Q 2544 4750 2975 4387  Q 3406 4025 3406 3419  Q 3406 3131 3298 2873  Q 3191 2616 2906 2266  Q 2828 2175 2409 1742  Q 1991 1309 1228 531  z " transform="scale(0.015625)"/>
       </defs>
       <use xlink:href="#DejaVuSans-50"/>
       <use xlink:href="#DejaVuSans-42" x="60.302734"/>
       <use xlink:href="#DejaVuSans-32" x="128.90625"/>
      </g>
     </g>
    </g>
    <g id="xtick_2">
     <g id="line2d_2">
      <path d="M 71.918477 106.282251  " style="fill: none; stroke: #000000; stroke-width: 1.5"/>
      <g>
       <use xlink:href="#mbd2efd425c" x="71.918477" y="106.282251" style="stroke: #333333"/>
      </g>
     </g>
     <g id="text_2">
      <!-- PB1 -->
      <g style="fill: #4d4d4d" transform="translate(63.447102 117.918876)scale(0.088 -0.088)">
       <defs>
        <path id="DejaVuSans-31" d="M 794 531  L 1825 531  L 1825 4091  L 703 3866  L 703 4441  L 1819 4666  L 2450 4666  L 2450 531  L 3481 531  L 3481 0  L 794 0  L 794 531  z " transform="scale(0.015625)"/>
       </defs>
       <use xlink:href="#DejaVuSans-50"/>
       <use xlink:href="#DejaVuSans-42" x="60.302734"/>
       <use xlink:href="#DejaVuSans-31" x="128.90625"/>
      </g>
     </g>
    </g>
    <g id="xtick_3">
     <g id="line2d_3">
      <path d="M 92.333111 106.282251  " style="fill: none; stroke: #000000; stroke-width: 1.5"/>
      <g>
       <use xlink:href="#mbd2efd425c" x="92.333111" y="106.282251" style="stroke: #333333"/>
      </g>
     </g>
     <g id="text_3">
      <!-- PA -->
      <g style="fill: #4d4d4d" transform="translate(86.950674 117.918876)scale(0.088 -0.088)">
       <defs>
        <path id="DejaVuSans-41" d="M 2188 4044  L 1331 1722  L 3047 1722  L 2188 4044  z M 1831 4666  L 2547 4666  L 4325 0  L 3669 0  L 3244 1197  L 1141 1197  L 716 0  L 50 0  L 1831 4666  z " transform="scale(0.015625)"/>
       </defs>
       <use xlink:href="#DejaVuSans-50"/>
       <use xlink:href="#DejaVuSans-41" x="53.927734"/>
      </g>
     </g>
    </g>
    <g id="xtick_4">
     <g id="line2d_4">
      <path d="M 112.747745 106.282251  " style="fill: none; stroke: #000000; stroke-width: 1.5"/>
      <g>
       <use xlink:href="#mbd2efd425c" x="112.747745" y="106.282251" style="stroke: #333333"/>
      </g>
     </g>
     <g id="text_4">
      <!-- HA -->
      <g style="fill: #4d4d4d" transform="translate(106.428933 117.918876)scale(0.088 -0.088)">
       <defs>
        <path id="DejaVuSans-48" d="M 628 4666  L 1259 4666  L 1259 2753  L 3553 2753  L 3553 4666  L 4184 4666  L 4184 0  L 3553 0  L 3553 2222  L 1259 2222  L 1259 0  L 628 0  L 628 4666  z " transform="scale(0.015625)"/>
       </defs>
       <use xlink:href="#DejaVuSans-48"/>
       <use xlink:href="#DejaVuSans-41" x="75.195312"/>
      </g>
     </g>
    </g>
    <g id="xtick_5">
     <g id="line2d_5">
      <path d="M 133.16238 106.282251  " style="fill: none; stroke: #000000; stroke-width: 1.5"/>
      <g>
       <use xlink:href="#mbd2efd425c" x="133.16238" y="106.282251" style="stroke: #333333"/>
      </g>
     </g>
     <g id="text_5">
      <!-- NP -->
      <g style="fill: #4d4d4d" transform="translate(127.217567 117.918876)scale(0.088 -0.088)">
       <defs>
        <path id="DejaVuSans-4e" d="M 628 4666  L 1478 4666  L 3547 763  L 3547 4666  L 4159 4666  L 4159 0  L 3309 0  L 1241 3903  L 1241 0  L 628 0  L 628 4666  z " transform="scale(0.015625)"/>
       </defs>
       <use xlink:href="#DejaVuSans-4e"/>
       <use xlink:href="#DejaVuSans-50" x="74.804688"/>
      </g>
     </g>
    </g>
    <g id="xtick_6">
     <g id="line2d_6">
      <path d="M 153.577014 106.282251  " style="fill: none; stroke: #000000; stroke-width: 1.5"/>
      <g>
       <use xlink:href="#mbd2efd425c" x="153.577014" y="106.282251" style="stroke: #333333"/>
      </g>
     </g>
     <g id="text_6">
      <!-- NA -->
      <g style="fill: #4d4d4d" transform="translate(147.275389 117.918876)scale(0.088 -0.088)">
       <use xlink:href="#DejaVuSans-4e"/>
       <use xlink:href="#DejaVuSans-41" x="74.804688"/>
      </g>
     </g>
    </g>
    <g id="xtick_7">
     <g id="line2d_7">
      <path d="M 173.991648 106.282251  " style="fill: none; stroke: #000000; stroke-width: 1.5"/>
      <g>
       <use xlink:href="#mbd2efd425c" x="173.991648" y="106.282251" style="stroke: #333333"/>
      </g>
     </g>
     <g id="text_7">
      <!-- M -->
      <g style="fill: #4d4d4d" transform="translate(170.195273 117.918876)scale(0.088 -0.088)">
       <defs>
        <path id="DejaVuSans-4d" d="M 628 4666  L 1569 4666  L 2759 1491  L 3956 4666  L 4897 4666  L 4897 0  L 4281 0  L 4281 4097  L 3078 897  L 2444 897  L 1241 4097  L 1241 0  L 628 0  L 628 4666  z " transform="scale(0.015625)"/>
       </defs>
       <use xlink:href="#DejaVuSans-4d"/>
      </g>
     </g>
    </g>
    <g id="xtick_8">
     <g id="line2d_8">
      <path d="M 194.406282 106.282251  " style="fill: none; stroke: #000000; stroke-width: 1.5"/>
      <g>
       <use xlink:href="#mbd2efd425c" x="194.406282" y="106.282251" style="stroke: #333333"/>
      </g>
     </g>
     <g id="text_8">
      <!-- NS -->
      <g style="fill: #4d4d4d" transform="translate(188.32122 117.918876)scale(0.088 -0.088)">
       <defs>
        <path id="DejaVuSans-53" d="M 3425 4513  L 3425 3897  Q 3066 4069 2747 4153  Q 2428 4238 2131 4238  Q 1616 4238 1336 4038  Q 1056 3838 1056 3469  Q 1056 3159 1242 3001  Q 1428 2844 1947 2747  L 2328 2669  Q 3034 2534 3370 2195  Q 3706 1856 3706 1288  Q 3706 609 3251 259  Q 2797 -91 1919 -91  Q 1588 -91 1214 -16  Q 841 59 441 206  L 441 856  Q 825 641 1194 531  Q 1563 422 1919 422  Q 2459 422 2753 634  Q 3047 847 3047 1241  Q 3047 1584 2836 1778  Q 2625 1972 2144 2069  L 1759 2144  Q 1053 2284 737 2584  Q 422 2884 422 3419  Q 422 4038 858 4394  Q 1294 4750 2059 4750  Q 2388 4750 2728 4690  Q 3069 4631 3425 4513  z " transform="scale(0.015625)"/>
       </defs>
       <use xlink:href="#DejaVuSans-4e"/>
       <use xlink:href="#DejaVuSans-53" x="74.804688"/>
      </g>
     </g>
    </g>
   </g>
   <g id="matplotlib.axis_2">
    <g id="ytick_1">
     <g id="line2d_9">
      <path d="M 39.255063 102.502251  " style="fill: none; stroke: #000000; stroke-width: 1.5"/>
      <defs>
       <path id="mb61a2c4f86" d="M 0 0  L -2.75 0  " style="stroke: #333333"/>
      </defs>
      <g>
       <use xlink:href="#mb61a2c4f86" x="39.255063" y="102.502251" style="stroke: #333333"/>
      </g>
     </g>
     <g id="text_9">
      <!-- 0 -->
      <g style="fill: #4d4d4d" transform="translate(28.706062 104.930501)scale(0.088 -0.088)">
       <defs>
        <path id="DejaVuSans-30" d="M 2034 4250  Q 1547 4250 1301 3770  Q 1056 3291 1056 2328  Q 1056 1369 1301 889  Q 1547 409 2034 409  Q 2525 409 2770 889  Q 3016 1369 3016 2328  Q 3016 3291 2770 3770  Q 2525 4250 2034 4250  z M 2034 4750  Q 2819 4750 3233 4129  Q 3647 3509 3647 2328  Q 3647 1150 3233 529  Q 2819 -91 2034 -91  Q 1250 -91 836 529  Q 422 1150 422 2328  Q 422 3509 836 4129  Q 1250 4750 2034 4750  z " transform="scale(0.015625)"/>
       </defs>
       <use xlink:href="#DejaVuSans-30"/>
      </g>
     </g>
    </g>
    <g id="ytick_2">
     <g id="line2d_10">
      <path d="M 39.255063 89.354424  " style="fill: none; stroke: #000000; stroke-width: 1.5"/>
      <g>
       <use xlink:href="#mb61a2c4f86" x="39.255063" y="89.354424" style="stroke: #333333"/>
      </g>
     </g>
     <g id="text_10">
      <!-- 0.2 -->
      <g style="fill: #4d4d4d" transform="translate(20.310312 91.782674)scale(0.088 -0.088)">
       <defs>
        <path id="DejaVuSans-2e" d="M 684 794  L 1344 794  L 1344 0  L 684 0  L 684 794  z " transform="scale(0.015625)"/>
       </defs>
       <use xlink:href="#DejaVuSans-30"/>
       <use xlink:href="#DejaVuSans-2e" x="63.623047"/>
       <use xlink:href="#DejaVuSans-32" x="95.410156"/>
      </g>
     </g>
    </g>
    <g id="ytick_3">
     <g id="line2d_11">
      <path d="M 39.255063 76.206598  " style="fill: none; stroke: #000000; stroke-width: 1.5"/>
      <g>
       <use xlink:href="#mb61a2c4f86" x="39.255063" y="76.206598" style="stroke: #333333"/>
      </g>
     </g>
     <g id="text_11">
      <!-- 0.4 -->
      <g style="fill: #4d4d4d" transform="translate(20.310312 78.634848)scale(0.088 -0.088)">
       <defs>
        <path id="DejaVuSans-34" d="M 2419 4116  L 825 1625  L 2419 1625  L 2419 4116  z M 2253 4666  L 3047 4666  L 3047 1625  L 3713 1625  L 3713 1100  L 3047 1100  L 3047 0  L 2419 0  L 2419 1100  L 313 1100  L 313 1709  L 2253 4666  z " transform="scale(0.015625)"/>
       </defs>
       <use xlink:href="#DejaVuSans-30"/>
       <use xlink:href="#DejaVuSans-2e" x="63.623047"/>
       <use xlink:href="#DejaVuSans-34" x="95.410156"/>
      </g>
     </g>
    </g>
    <g id="ytick_4">
     <g id="line2d_12">
      <path d="M 39.255063 63.058772  " style="fill: none; stroke: #000000; stroke-width: 1.5"/>
      <g>
       <use xlink:href="#mb61a2c4f86" x="39.255063" y="63.058772" style="stroke: #333333"/>
      </g>
     </g>
     <g id="text_12">
      <!-- 0.6 -->
      <g style="fill: #4d4d4d" transform="translate(20.310312 65.487022)scale(0.088 -0.088)">
       <defs>
        <path id="DejaVuSans-36" d="M 2113 2584  Q 1688 2584 1439 2293  Q 1191 2003 1191 1497  Q 1191 994 1439 701  Q 1688 409 2113 409  Q 2538 409 2786 701  Q 3034 994 3034 1497  Q 3034 2003 2786 2293  Q 2538 2584 2113 2584  z M 3366 4563  L 3366 3988  Q 3128 4100 2886 4159  Q 2644 4219 2406 4219  Q 1781 4219 1451 3797  Q 1122 3375 1075 2522  Q 1259 2794 1537 2939  Q 1816 3084 2150 3084  Q 2853 3084 3261 2657  Q 3669 2231 3669 1497  Q 3669 778 3244 343  Q 2819 -91 2113 -91  Q 1303 -91 875 529  Q 447 1150 447 2328  Q 447 3434 972 4092  Q 1497 4750 2381 4750  Q 2619 4750 2861 4703  Q 3103 4656 3366 4563  z " transform="scale(0.015625)"/>
       </defs>
       <use xlink:href="#DejaVuSans-30"/>
       <use xlink:href="#DejaVuSans-2e" x="63.623047"/>
       <use xlink:href="#DejaVuSans-36" x="95.410156"/>
      </g>
     </g>
    </g>
    <g id="ytick_5">
     <g id="line2d_13">
      <path d="M 39.255063 49.910946  " style="fill: none; stroke: #000000; stroke-width: 1.5"/>
      <g>
       <use xlink:href="#mb61a2c4f86" x="39.255063" y="49.910946" style="stroke: #333333"/>
      </g>
     </g>
     <g id="text_13">
      <!-- 0.8 -->
      <g style="fill: #4d4d4d" transform="translate(20.310312 52.339196)scale(0.088 -0.088)">
       <defs>
        <path id="DejaVuSans-38" d="M 2034 2216  Q 1584 2216 1326 1975  Q 1069 1734 1069 1313  Q 1069 891 1326 650  Q 1584 409 2034 409  Q 2484 409 2743 651  Q 3003 894 3003 1313  Q 3003 1734 2745 1975  Q 2488 2216 2034 2216  z M 1403 2484  Q 997 2584 770 2862  Q 544 3141 544 3541  Q 544 4100 942 4425  Q 1341 4750 2034 4750  Q 2731 4750 3128 4425  Q 3525 4100 3525 3541  Q 3525 3141 3298 2862  Q 3072 2584 2669 2484  Q 3125 2378 3379 2068  Q 3634 1759 3634 1313  Q 3634 634 3220 271  Q 2806 -91 2034 -91  Q 1263 -91 848 271  Q 434 634 434 1313  Q 434 1759 690 2068  Q 947 2378 1403 2484  z M 1172 3481  Q 1172 3119 1398 2916  Q 1625 2713 2034 2713  Q 2441 2713 2670 2916  Q 2900 3119 2900 3481  Q 2900 3844 2670 4047  Q 2441 4250 2034 4250  Q 1625 4250 1398 4047  Q 1172 3844 1172 3481  z " transform="scale(0.015625)"/>
       </defs>
       <use xlink:href="#DejaVuSans-30"/>
       <use xlink:href="#DejaVuSans-2e" x="63.623047"/>
       <use xlink:href="#DejaVuSans-38" x="95.410156"/>
      </g>
     </g>
    </g>
    <g id="ytick_6">
     <g id="line2d_14">
      <path d="M 39.255063 36.76312  " style="fill: none; stroke: #000000; stroke-width: 1.5"/>
      <g>
       <use xlink:href="#mb61a2c4f86" x="39.255063" y="36.76312" style="stroke: #333333"/>
      </g>
     </g>
     <g id="text_14">
      <!-- 1 -->
      <g style="fill: #4d4d4d" transform="translate(28.706062 39.19137)scale(0.088 -0.088)">
       <use xlink:href="#DejaVuSans-31"/>
      </g>
     </g>
    </g>
    <g id="ytick_7"/>
    <g id="ytick_8"/>
    <g id="ytick_9"/>
    <g id="ytick_10"/>
    <g id="ytick_11"/>
    <g id="text_15">
     <!-- fraction of cells -->
     <g transform="translate(14.038594 98.733501)rotate(-90)scale(0.09 -0.09)">
      <defs>
       <path id="DejaVuSans-66" d="M 2375 4863  L 2375 4384  L 1825 4384  Q 1516 4384 1395 4259  Q 1275 4134 1275 3809  L 1275 3500  L 2222 3500  L 2222 3053  L 1275 3053  L 1275 0  L 697 0  L 697 3053  L 147 3053  L 147 3500  L 697 3500  L 697 3744  Q 697 4328 969 4595  Q 1241 4863 1831 4863  L 2375 4863  z " transform="scale(0.015625)"/>
       <path id="DejaVuSans-72" d="M 2631 2963  Q 2534 3019 2420 3045  Q 2306 3072 2169 3072  Q 1681 3072 1420 2755  Q 1159 2438 1159 1844  L 1159 0  L 581 0  L 581 3500  L 1159 3500  L 1159 2956  Q 1341 3275 1631 3429  Q 1922 3584 2338 3584  Q 2397 3584 2469 3576  Q 2541 3569 2628 3553  L 2631 2963  z " transform="scale(0.015625)"/>
       <path id="DejaVuSans-61" d="M 2194 1759  Q 1497 1759 1228 1600  Q 959 1441 959 1056  Q 959 750 1161 570  Q 1363 391 1709 391  Q 2188 391 2477 730  Q 2766 1069 2766 1631  L 2766 1759  L 2194 1759  z M 3341 1997  L 3341 0  L 2766 0  L 2766 531  Q 2569 213 2275 61  Q 1981 -91 1556 -91  Q 1019 -91 701 211  Q 384 513 384 1019  Q 384 1609 779 1909  Q 1175 2209 1959 2209  L 2766 2209  L 2766 2266  Q 2766 2663 2505 2880  Q 2244 3097 1772 3097  Q 1472 3097 1187 3025  Q 903 2953 641 2809  L 641 3341  Q 956 3463 1253 3523  Q 1550 3584 1831 3584  Q 2591 3584 2966 3190  Q 3341 2797 3341 1997  z " transform="scale(0.015625)"/>
       <path id="DejaVuSans-63" d="M 3122 3366  L 3122 2828  Q 2878 2963 2633 3030  Q 2388 3097 2138 3097  Q 1578 3097 1268 2742  Q 959 2388 959 1747  Q 959 1106 1268 751  Q 1578 397 2138 397  Q 2388 397 2633 464  Q 2878 531 3122 666  L 3122 134  Q 2881 22 2623 -34  Q 2366 -91 2075 -91  Q 1284 -91 818 406  Q 353 903 353 1747  Q 353 2603 823 3093  Q 1294 3584 2113 3584  Q 2378 3584 2631 3529  Q 2884 3475 3122 3366  z " transform="scale(0.015625)"/>
       <path id="DejaVuSans-74" d="M 1172 4494  L 1172 3500  L 2356 3500  L 2356 3053  L 1172 3053  L 1172 1153  Q 1172 725 1289 603  Q 1406 481 1766 481  L 2356 481  L 2356 0  L 1766 0  Q 1100 0 847 248  Q 594 497 594 1153  L 594 3053  L 172 3053  L 172 3500  L 594 3500  L 594 4494  L 1172 4494  z " transform="scale(0.015625)"/>
       <path id="DejaVuSans-69" d="M 603 3500  L 1178 3500  L 1178 0  L 603 0  L 603 3500  z M 603 4863  L 1178 4863  L 1178 4134  L 603 4134  L 603 4863  z " transform="scale(0.015625)"/>
       <path id="DejaVuSans-6f" d="M 1959 3097  Q 1497 3097 1228 2736  Q 959 2375 959 1747  Q 959 1119 1226 758  Q 1494 397 1959 397  Q 2419 397 2687 759  Q 2956 1122 2956 1747  Q 2956 2369 2687 2733  Q 2419 3097 1959 3097  z M 1959 3584  Q 2709 3584 3137 3096  Q 3566 2609 3566 1747  Q 3566 888 3137 398  Q 2709 -91 1959 -91  Q 1206 -91 779 398  Q 353 888 353 1747  Q 353 2609 779 3096  Q 1206 3584 1959 3584  z " transform="scale(0.015625)"/>
       <path id="DejaVuSans-6e" d="M 3513 2113  L 3513 0  L 2938 0  L 2938 2094  Q 2938 2591 2744 2837  Q 2550 3084 2163 3084  Q 1697 3084 1428 2787  Q 1159 2491 1159 1978  L 1159 0  L 581 0  L 581 3500  L 1159 3500  L 1159 2956  Q 1366 3272 1645 3428  Q 1925 3584 2291 3584  Q 2894 3584 3203 3211  Q 3513 2838 3513 2113  z " transform="scale(0.015625)"/>
       <path id="DejaVuSans-20" transform="scale(0.015625)"/>
       <path id="DejaVuSans-65" d="M 3597 1894  L 3597 1613  L 953 1613  Q 991 1019 1311 708  Q 1631 397 2203 397  Q 2534 397 2845 478  Q 3156 559 3463 722  L 3463 178  Q 3153 47 2828 -22  Q 2503 -91 2169 -91  Q 1331 -91 842 396  Q 353 884 353 1716  Q 353 2575 817 3079  Q 1281 3584 2069 3584  Q 2775 3584 3186 3129  Q 3597 2675 3597 1894  z M 3022 2063  Q 3016 2534 2758 2815  Q 2500 3097 2075 3097  Q 1594 3097 1305 2825  Q 1016 2553 972 2059  L 3022 2063  z " transform="scale(0.015625)"/>
       <path id="DejaVuSans-6c" d="M 603 4863  L 1178 4863  L 1178 0  L 603 0  L 603 4863  z " transform="scale(0.015625)"/>
       <path id="DejaVuSans-73" d="M 2834 3397  L 2834 2853  Q 2591 2978 2328 3040  Q 2066 3103 1784 3103  Q 1356 3103 1142 2972  Q 928 2841 928 2578  Q 928 2378 1081 2264  Q 1234 2150 1697 2047  L 1894 2003  Q 2506 1872 2764 1633  Q 3022 1394 3022 966  Q 3022 478 2636 193  Q 2250 -91 1575 -91  Q 1294 -91 989 -36  Q 684 19 347 128  L 347 722  Q 666 556 975 473  Q 1284 391 1588 391  Q 1994 391 2212 530  Q 2431 669 2431 922  Q 2431 1156 2273 1281  Q 2116 1406 1581 1522  L 1381 1569  Q 847 1681 609 1914  Q 372 2147 372 2553  Q 372 3047 722 3315  Q 1072 3584 1716 3584  Q 2034 3584 2315 3537  Q 2597 3491 2834 3397  z " transform="scale(0.015625)"/>
      </defs>
      <use xlink:href="#DejaVuSans-66"/>
      <use xlink:href="#DejaVuSans-72" x="35.205078"/>
      <use xlink:href="#DejaVuSans-61" x="76.318359"/>
      <use xlink:href="#DejaVuSans-63" x="137.597656"/>
      <use xlink:href="#DejaVuSans-74" x="192.578125"/>
      <use xlink:href="#DejaVuSans-69" x="231.787109"/>
      <use xlink:href="#DejaVuSans-6f" x="259.570312"/>
      <use xlink:href="#DejaVuSans-6e" x="320.751953"/>
      <use xlink:href="#DejaVuSans-20" x="384.130859"/>
      <use xlink:href="#DejaVuSans-6f" x="415.917969"/>
      <use xlink:href="#DejaVuSans-66" x="477.099609"/>
      <use xlink:href="#DejaVuSans-20" x="512.304688"/>
      <use xlink:href="#DejaVuSans-63" x="544.091797"/>
      <use xlink:href="#DejaVuSans-65" x="599.072266"/>
      <use xlink:href="#DejaVuSans-6c" x="660.595703"/>
      <use xlink:href="#DejaVuSans-6c" x="688.378906"/>
      <use xlink:href="#DejaVuSans-73" x="716.162109"/>
     </g>
    </g>
   </g>
   <g id="PolyCollection_1">
    <path d="M 42.317258 102.502251  L 42.317258 41.162983  L 60.690428 41.162983  L 60.690428 102.502251  z " clip-path="url(#p11b13b89f5)" style="fill: #999999"/>
    <path d="M 42.317258 41.162983  L 42.317258 36.76312  L 60.690428 36.76312  L 60.690428 41.162983  z " clip-path="url(#p11b13b89f5)" style="fill: #d55e00"/>
    <path d="M 62.731892 102.502251  L 62.731892 39.351275  L 81.105063 39.351275  L 81.105063 102.502251  z " clip-path="url(#p11b13b89f5)" style="fill: #999999"/>
    <path d="M 62.731892 39.351275  L 62.731892 36.76312  L 81.105063 36.76312  L 81.105063 39.351275  z " clip-path="url(#p11b13b89f5)" style="fill: #d55e00"/>
    <path d="M 83.146526 102.502251  L 83.146526 42.457061  L 101.519697 42.457061  L 101.519697 102.502251  z " clip-path="url(#p11b13b89f5)" style="fill: #999999"/>
    <path d="M 83.146526 42.457061  L 83.146526 36.76312  L 101.519697 36.76312  L 101.519697 42.457061  z " clip-path="url(#p11b13b89f5)" style="fill: #d55e00"/>
    <path d="M 103.56116 102.502251  L 103.56116 46.339293  L 121.934331 46.339293  L 121.934331 102.502251  z " clip-path="url(#p11b13b89f5)" style="fill: #999999"/>
    <path d="M 103.56116 46.339293  L 103.56116 36.76312  L 121.934331 36.76312  L 121.934331 46.339293  z " clip-path="url(#p11b13b89f5)" style="fill: #d55e00"/>
    <path d="M 123.975794 102.502251  L 123.975794 39.351275  L 142.348965 39.351275  L 142.348965 102.502251  z " clip-path="url(#p11b13b89f5)" style="fill: #999999"/>
    <path d="M 123.975794 39.351275  L 123.975794 36.76312  L 142.348965 36.76312  L 142.348965 39.351275  z " clip-path="url(#p11b13b89f5)" style="fill: #d55e00"/>
    <path d="M 144.390428 102.502251  L 144.390428 39.61009  L 162.763599 39.61009  L 162.763599 102.502251  z " clip-path="url(#p11b13b89f5)" style="fill: #999999"/>
    <path d="M 144.390428 39.61009  L 144.390428 36.76312  L 162.763599 36.76312  L 162.763599 39.61009  z " clip-path="url(#p11b13b89f5)" style="fill: #d55e00"/>
    <path d="M 164.805062 102.502251  L 164.805062 41.162983  L 183.178233 41.162983  L 183.178233 102.502251  z " clip-path="url(#p11b13b89f5)" style="fill: #999999"/>
    <path d="M 164.805062 41.162983  L 164.805062 36.76312  L 183.178233 36.76312  L 183.178233 41.162983  z " clip-path="url(#p11b13b89f5)" style="fill: #d55e00"/>
    <path d="M 185.219697 102.502251  L 185.219697 44.527584  L 203.592867 44.527584  L 203.592867 102.502251  z " clip-path="url(#p11b13b89f5)" style="fill: #999999"/>
    <path d="M 185.219697 44.527584  L 185.219697 36.76312  L 203.592867 36.76312  L 203.592867 44.527584  z " clip-path="url(#p11b13b89f5)" style="fill: #d55e00"/>
   </g>
   <g id="text_16">
    <g clip-path="url(#p11b13b89f5)">
     <!-- 0.07 -->
     <g style="fill: #d55e00" transform="translate(42.597593 32.396707)scale(0.08 -0.08)">
      <defs>
       <path id="DejaVuSans-37" d="M 525 4666  L 3525 4666  L 3525 4397  L 1831 0  L 1172 0  L 2766 4134  L 525 4134  L 525 4666  z " transform="scale(0.015625)"/>
      </defs>
      <use xlink:href="#DejaVuSans-30"/>
      <use xlink:href="#DejaVuSans-2e" x="63.623047"/>
      <use xlink:href="#DejaVuSans-30" x="95.410156"/>
      <use xlink:href="#DejaVuSans-37" x="159.033203"/>
     </g>
    </g>
   </g>
   <g id="text_17">
    <g clip-path="url(#p11b13b89f5)">
     <!-- 0.04 -->
     <g style="fill: #d55e00" transform="translate(63.012227 32.396707)scale(0.08 -0.08)">
      <use xlink:href="#DejaVuSans-30"/>
      <use xlink:href="#DejaVuSans-2e" x="63.623047"/>
      <use xlink:href="#DejaVuSans-30" x="95.410156"/>
      <use xlink:href="#DejaVuSans-34" x="159.033203"/>
     </g>
    </g>
   </g>
   <g id="text_18">
    <g clip-path="url(#p11b13b89f5)">
     <!-- 0.09 -->
     <g style="fill: #d55e00" transform="translate(83.426861 32.396707)scale(0.08 -0.08)">
      <defs>
       <path id="DejaVuSans-39" d="M 703 97  L 703 672  Q 941 559 1184 500  Q 1428 441 1663 441  Q 2288 441 2617 861  Q 2947 1281 2994 2138  Q 2813 1869 2534 1725  Q 2256 1581 1919 1581  Q 1219 1581 811 2004  Q 403 2428 403 3163  Q 403 3881 828 4315  Q 1253 4750 1959 4750  Q 2769 4750 3195 4129  Q 3622 3509 3622 2328  Q 3622 1225 3098 567  Q 2575 -91 1691 -91  Q 1453 -91 1209 -44  Q 966 3 703 97  z M 1959 2075  Q 2384 2075 2632 2365  Q 2881 2656 2881 3163  Q 2881 3666 2632 3958  Q 2384 4250 1959 4250  Q 1534 4250 1286 3958  Q 1038 3666 1038 3163  Q 1038 2656 1286 2365  Q 1534 2075 1959 2075  z " transform="scale(0.015625)"/>
      </defs>
      <use xlink:href="#DejaVuSans-30"/>
      <use xlink:href="#DejaVuSans-2e" x="63.623047"/>
      <use xlink:href="#DejaVuSans-30" x="95.410156"/>
      <use xlink:href="#DejaVuSans-39" x="159.033203"/>
     </g>
    </g>
   </g>
   <g id="text_19">
    <g clip-path="url(#p11b13b89f5)">
     <!-- 0.15 -->
     <g style="fill: #d55e00" transform="translate(103.841495 32.396707)scale(0.08 -0.08)">
      <defs>
       <path id="DejaVuSans-35" d="M 691 4666  L 3169 4666  L 3169 4134  L 1269 4134  L 1269 2991  Q 1406 3038 1543 3061  Q 1681 3084 1819 3084  Q 2600 3084 3056 2656  Q 3513 2228 3513 1497  Q 3513 744 3044 326  Q 2575 -91 1722 -91  Q 1428 -91 1123 -41  Q 819 9 494 109  L 494 744  Q 775 591 1075 516  Q 1375 441 1709 441  Q 2250 441 2565 725  Q 2881 1009 2881 1497  Q 2881 1984 2565 2268  Q 2250 2553 1709 2553  Q 1456 2553 1204 2497  Q 953 2441 691 2322  L 691 4666  z " transform="scale(0.015625)"/>
      </defs>
      <use xlink:href="#DejaVuSans-30"/>
      <use xlink:href="#DejaVuSans-2e" x="63.623047"/>
      <use xlink:href="#DejaVuSans-31" x="95.410156"/>
      <use xlink:href="#DejaVuSans-35" x="159.033203"/>
     </g>
    </g>
   </g>
   <g id="text_20">
    <g clip-path="url(#p11b13b89f5)">
     <!-- 0.04 -->
     <g style="fill: #d55e00" transform="translate(124.25613 32.396707)scale(0.08 -0.08)">
      <use xlink:href="#DejaVuSans-30"/>
      <use xlink:href="#DejaVuSans-2e" x="63.623047"/>
      <use xlink:href="#DejaVuSans-30" x="95.410156"/>
      <use xlink:href="#DejaVuSans-34" x="159.033203"/>
     </g>
    </g>
   </g>
   <g id="text_21">
    <g clip-path="url(#p11b13b89f5)">
     <!-- 0.04 -->
     <g style="fill: #d55e00" transform="translate(144.670764 32.396707)scale(0.08 -0.08)">
      <use xlink:href="#DejaVuSans-30"/>
      <use xlink:href="#DejaVuSans-2e" x="63.623047"/>
      <use xlink:href="#DejaVuSans-30" x="95.410156"/>
      <use xlink:href="#DejaVuSans-34" x="159.033203"/>
     </g>
    </g>
   </g>
   <g id="text_22">
    <g clip-path="url(#p11b13b89f5)">
     <!-- 0.07 -->
     <g style="fill: #d55e00" transform="translate(165.085398 32.396707)scale(0.08 -0.08)">
      <use xlink:href="#DejaVuSans-30"/>
      <use xlink:href="#DejaVuSans-2e" x="63.623047"/>
      <use xlink:href="#DejaVuSans-30" x="95.410156"/>
      <use xlink:href="#DejaVuSans-37" x="159.033203"/>
     </g>
    </g>
   </g>
   <g id="text_23">
    <g clip-path="url(#p11b13b89f5)">
     <!-- 0.12 -->
     <g style="fill: #d55e00" transform="translate(185.500032 32.396707)scale(0.08 -0.08)">
      <use xlink:href="#DejaVuSans-30"/>
      <use xlink:href="#DejaVuSans-2e" x="63.623047"/>
      <use xlink:href="#DejaVuSans-31" x="95.410156"/>
      <use xlink:href="#DejaVuSans-32" x="159.033203"/>
     </g>
    </g>
   </g>
   <g id="patch_3">
    <path d="M 39.255063 106.282251  L 39.255063 23.122251  " style="fill: none; stroke: #000000; stroke-linejoin: miter; stroke-linecap: square"/>
   </g>
   <g id="patch_4">
    <path d="M 39.255063 106.282251  L 206.655063 106.282251  " style="fill: none; stroke: #000000; stroke-linejoin: miter; stroke-linecap: square"/>
   </g>
   <g id="patch_5">
    <path d="M 28.967125 160.922251  L 211.543 160.922251  L 211.543 120.682251  L 28.967125 120.682251  z " style="fill: #ffffff"/>
   </g>
   <g id="patch_6">
    <path d="M 41.167125 148.722251  L 57.007125 148.722251  L 57.007125 132.882251  L 41.167125 132.882251  L 41.167125 148.722251  z " clip-path="url(#p19aaaa281b)" style="fill: none"/>
   </g>
   <g id="patch_7">
    <path d="M 41.167125 148.722251  L 57.007125 148.722251  L 57.007125 132.882251  L 41.167125 132.882251  z " clip-path="url(#p19aaaa281b)" style="fill: #d55e00"/>
   </g>
   <g id="text_24">
    <!-- Gene absent -->
    <g transform="translate(60.007125 143.230501)scale(0.088 -0.088)">
     <defs>
      <path id="DejaVuSans-47" d="M 3809 666  L 3809 1919  L 2778 1919  L 2778 2438  L 4434 2438  L 4434 434  Q 4069 175 3628 42  Q 3188 -91 2688 -91  Q 1594 -91 976 548  Q 359 1188 359 2328  Q 359 3472 976 4111  Q 1594 4750 2688 4750  Q 3144 4750 3555 4637  Q 3966 4525 4313 4306  L 4313 3634  Q 3963 3931 3569 4081  Q 3175 4231 2741 4231  Q 1884 4231 1454 3753  Q 1025 3275 1025 2328  Q 1025 1384 1454 906  Q 1884 428 2741 428  Q 3075 428 3337 486  Q 3600 544 3809 666  z " transform="scale(0.015625)"/>
      <path id="DejaVuSans-62" d="M 3116 1747  Q 3116 2381 2855 2742  Q 2594 3103 2138 3103  Q 1681 3103 1420 2742  Q 1159 2381 1159 1747  Q 1159 1113 1420 752  Q 1681 391 2138 391  Q 2594 391 2855 752  Q 3116 1113 3116 1747  z M 1159 2969  Q 1341 3281 1617 3432  Q 1894 3584 2278 3584  Q 2916 3584 3314 3078  Q 3713 2572 3713 1747  Q 3713 922 3314 415  Q 2916 -91 2278 -91  Q 1894 -91 1617 61  Q 1341 213 1159 525  L 1159 0  L 581 0  L 581 4863  L 1159 4863  L 1159 2969  z " transform="scale(0.015625)"/>
     </defs>
     <use xlink:href="#DejaVuSans-47"/>
     <use xlink:href="#DejaVuSans-65" x="77.490234"/>
     <use xlink:href="#DejaVuSans-6e" x="139.013672"/>
     <use xlink:href="#DejaVuSans-65" x="202.392578"/>
     <use xlink:href="#DejaVuSans-20" x="263.916016"/>
     <use xlink:href="#DejaVuSans-61" x="295.703125"/>
     <use xlink:href="#DejaVuSans-62" x="356.982422"/>
     <use xlink:href="#DejaVuSans-73" x="420.458984"/>
     <use xlink:href="#DejaVuSans-65" x="472.558594"/>
     <use xlink:href="#DejaVuSans-6e" x="534.082031"/>
     <use xlink:href="#DejaVuSans-74" x="597.460938"/>
    </g>
   </g>
   <g id="patch_8">
    <path d="M 121.03425 148.722251  L 136.87425 148.722251  L 136.87425 132.882251  L 121.03425 132.882251  L 121.03425 148.722251  z " clip-path="url(#p1f240330d6)" style="fill: none"/>
   </g>
   <g id="patch_9">
    <path d="M 121.03425 148.722251  L 136.87425 148.722251  L 136.87425 132.882251  L 121.03425 132.882251  z " clip-path="url(#p1f240330d6)" style="fill: #999999"/>
   </g>
   <g id="text_25">
    <!-- Gene present -->
    <g transform="translate(139.87425 143.230501)scale(0.088 -0.088)">
     <defs>
      <path id="DejaVuSans-70" d="M 1159 525  L 1159 -1331  L 581 -1331  L 581 3500  L 1159 3500  L 1159 2969  Q 1341 3281 1617 3432  Q 1894 3584 2278 3584  Q 2916 3584 3314 3078  Q 3713 2572 3713 1747  Q 3713 922 3314 415  Q 2916 -91 2278 -91  Q 1894 -91 1617 61  Q 1341 213 1159 525  z M 3116 1747  Q 3116 2381 2855 2742  Q 2594 3103 2138 3103  Q 1681 3103 1420 2742  Q 1159 2381 1159 1747  Q 1159 1113 1420 752  Q 1681 391 2138 391  Q 2594 391 2855 752  Q 3116 1113 3116 1747  z " transform="scale(0.015625)"/>
     </defs>
     <use xlink:href="#DejaVuSans-47"/>
     <use xlink:href="#DejaVuSans-65" x="77.490234"/>
     <use xlink:href="#DejaVuSans-6e" x="139.013672"/>
     <use xlink:href="#DejaVuSans-65" x="202.392578"/>
     <use xlink:href="#DejaVuSans-20" x="263.916016"/>
     <use xlink:href="#DejaVuSans-70" x="295.703125"/>
     <use xlink:href="#DejaVuSans-72" x="359.179688"/>
     <use xlink:href="#DejaVuSans-65" x="398.042969"/>
     <use xlink:href="#DejaVuSans-73" x="459.566406"/>
     <use xlink:href="#DejaVuSans-65" x="511.666016"/>
     <use xlink:href="#DejaVuSans-6e" x="573.189453"/>
     <use xlink:href="#DejaVuSans-74" x="636.568359"/>
    </g>
   </g>
  </g>
  <g id="text_26">
   <!-- Viral gene presence in infected cells -->
   <g transform="translate(29.617563 14.798438)scale(0.1 -0.1)">
    <defs>
     <path id="DejaVuSans-56" d="M 1831 0  L 50 4666  L 709 4666  L 2188 738  L 3669 4666  L 4325 4666  L 2547 0  L 1831 0  z " transform="scale(0.015625)"/>
     <path id="DejaVuSans-67" d="M 2906 1791  Q 2906 2416 2648 2759  Q 2391 3103 1925 3103  Q 1463 3103 1205 2759  Q 947 2416 947 1791  Q 947 1169 1205 825  Q 1463 481 1925 481  Q 2391 481 2648 825  Q 2906 1169 2906 1791  z M 3481 434  Q 3481 -459 3084 -895  Q 2688 -1331 1869 -1331  Q 1566 -1331 1297 -1286  Q 1028 -1241 775 -1147  L 775 -588  Q 1028 -725 1275 -790  Q 1522 -856 1778 -856  Q 2344 -856 2625 -561  Q 2906 -266 2906 331  L 2906 616  Q 2728 306 2450 153  Q 2172 0 1784 0  Q 1141 0 747 490  Q 353 981 353 1791  Q 353 2603 747 3093  Q 1141 3584 1784 3584  Q 2172 3584 2450 3431  Q 2728 3278 2906 2969  L 2906 3500  L 3481 3500  L 3481 434  z " transform="scale(0.015625)"/>
     <path id="DejaVuSans-64" d="M 2906 2969  L 2906 4863  L 3481 4863  L 3481 0  L 2906 0  L 2906 525  Q 2725 213 2448 61  Q 2172 -91 1784 -91  Q 1150 -91 751 415  Q 353 922 353 1747  Q 353 2572 751 3078  Q 1150 3584 1784 3584  Q 2172 3584 2448 3432  Q 2725 3281 2906 2969  z M 947 1747  Q 947 1113 1208 752  Q 1469 391 1925 391  Q 2381 391 2643 752  Q 2906 1113 2906 1747  Q 2906 2381 2643 2742  Q 2381 3103 1925 3103  Q 1469 3103 1208 2742  Q 947 2381 947 1747  z " transform="scale(0.015625)"/>
    </defs>
    <use xlink:href="#DejaVuSans-56"/>
    <use xlink:href="#DejaVuSans-69" x="66.158203"/>
    <use xlink:href="#DejaVuSans-72" x="93.941406"/>
    <use xlink:href="#DejaVuSans-61" x="135.054688"/>
    <use xlink:href="#DejaVuSans-6c" x="196.333984"/>
    <use xlink:href="#DejaVuSans-20" x="224.117188"/>
    <use xlink:href="#DejaVuSans-67" x="255.904297"/>
    <use xlink:href="#DejaVuSans-65" x="319.380859"/>
    <use xlink:href="#DejaVuSans-6e" x="380.904297"/>
    <use xlink:href="#DejaVuSans-65" x="444.283203"/>
    <use xlink:href="#DejaVuSans-20" x="505.806641"/>
    <use xlink:href="#DejaVuSans-70" x="537.59375"/>
    <use xlink:href="#DejaVuSans-72" x="601.070312"/>
    <use xlink:href="#DejaVuSans-65" x="639.933594"/>
    <use xlink:href="#DejaVuSans-73" x="701.457031"/>
    <use xlink:href="#DejaVuSans-65" x="753.556641"/>
    <use xlink:href="#DejaVuSans-6e" x="815.080078"/>
    <use xlink:href="#DejaVuSans-63" x="878.458984"/>
    <use xlink:href="#DejaVuSans-65" x="933.439453"/>
    <use xlink:href="#DejaVuSans-20" x="994.962891"/>
    <use xlink:href="#DejaVuSans-69" x="1026.75"/>
    <use xlink:href="#DejaVuSans-6e" x="1054.533203"/>
    <use xlink:href="#DejaVuSans-20" x="1117.912109"/>
    <use xlink:href="#DejaVuSans-69" x="1149.699219"/>
    <use xlink:href="#DejaVuSans-6e" x="1177.482422"/>
    <use xlink:href="#DejaVuSans-66" x="1240.861328"/>
    <use xlink:href="#DejaVuSans-65" x="1276.066406"/>
    <use xlink:href="#DejaVuSans-63" x="1337.589844"/>
    <use xlink:href="#DejaVuSans-74" x="1392.570312"/>
    <use xlink:href="#DejaVuSans-65" x="1431.779297"/>
    <use xlink:href="#DejaVuSans-64" x="1493.302734"/>
    <use xlink:href="#DejaVuSans-20" x="1556.779297"/>
    <use xlink:href="#DejaVuSans-63" x="1588.566406"/>
    <use xlink:href="#DejaVuSans-65" x="1643.546875"/>
    <use xlink:href="#DejaVuSans-6c" x="1705.070312"/>
    <use xlink:href="#DejaVuSans-6c" x="1732.853516"/>
    <use xlink:href="#DejaVuSans-73" x="1760.636719"/>
   </g>
  </g>
 </g>
 <defs>
  <clipPath id="p11b13b89f5">
   <rect x="39.255063" y="23.122251" width="167.4" height="83.16"/>
  </clipPath>
  <clipPath id="p19aaaa281b">
   <path d="M 41.167125 148.722251  L 41.167125 132.882251  L 57.007125 132.882251  L 57.007125 148.722251  "/>
  </clipPath>
  <clipPath id="p1f240330d6">
   <path d="M 121.03425 148.722251  L 121.03425 132.882251  L 136.87425 132.882251  L 136.87425 148.722251  "/>
  </clipPath>
 </defs>
</g>
      <text x="5" y="15" font-size="14" font-family="Verdana" font-weight="normal" letter-spacing="0" text-anchor="start" fill="black">C</text>
    </g>
  </g>
</svg>
