<?xml version="1.0" encoding="utf-8" standalone="no"?>
<!DOCTYPE svg PUBLIC "-//W3C//DTD SVG 1.1//EN"
  "http://www.w3.org/Graphics/SVG/1.1/DTD/svg11.dtd">
<svg xmlns:xlink="http://www.w3.org/1999/xlink" width="463.741312pt" height="270.506431pt" viewBox="0 0 463.741312 270.506431" xmlns="http://www.w3.org/2000/svg" version="1.1">
 <metadata>
  <rdf:RDF xmlns:dc="http://purl.org/dc/elements/1.1/" xmlns:cc="http://creativecommons.org/ns#" xmlns:rdf="http://www.w3.org/1999/02/22-rdf-syntax-ns#">
   <cc:Work>
    <dc:type rdf:resource="http://purl.org/dc/dcmitype/StillImage"/>
    <dc:date>2023-01-09T12:59:49.399213</dc:date>
    <dc:format>image/svg+xml</dc:format>
    <dc:creator>
     <cc:Agent>
      <dc:title>Matplotlib v3.5.2, https://matplotlib.org/</dc:title>
     </cc:Agent>
    </dc:creator>
   </cc:Work>
  </rdf:RDF>
 </metadata>
 <defs>
  <style type="text/css">*{stroke-linejoin: round; stroke-linecap: butt}</style>
 </defs>
 <g id="figure_1">
  <g id="patch_1">
   <path d="M -0 270.506431 
L 463.741312 270.506431 
L 463.741312 0 
L -0 0 
z
" style="fill: #ffffff; stroke: #ffffff; stroke-linejoin: miter"/>
  </g>
  <g id="axes_1">
   <g id="patch_2">
    <path d="M 57.949438 230.728931 
L 225.349437 230.728931 
L 225.349437 64.408931 
L 57.949438 64.408931 
z
" style="fill: #ffffff"/>
   </g>
   <g id="matplotlib.axis_1">
    <g id="xtick_1">
     <g id="line2d_1">
      <path d="M 65.558528 230.728931 
" style="fill: none; stroke: #000000; stroke-width: 1.5"/>
      <defs>
       <path id="m2cfa453d23" d="M 0 0 
L 0 2.75 
" style="stroke: #333333"/>
      </defs>
      <g>
       <use xlink:href="#m2cfa453d23" x="65.558528" y="230.728931" style="stroke: #333333"/>
      </g>
     </g>
     <g id="text_1">
      <!-- 0 -->
      <g transform="translate(61.741028 244.797056)scale(0.12 -0.12)">
       <defs>
        <path id="DejaVuSans-30" d="M 2034 4250 
Q 1547 4250 1301 3770 
Q 1056 3291 1056 2328 
Q 1056 1369 1301 889 
Q 1547 409 2034 409 
Q 2525 409 2770 889 
Q 3016 1369 3016 2328 
Q 3016 3291 2770 3770 
Q 2525 4250 2034 4250 
z
M 2034 4750 
Q 2819 4750 3233 4129 
Q 3647 3509 3647 2328 
Q 3647 1150 3233 529 
Q 2819 -91 2034 -91 
Q 1250 -91 836 529 
Q 422 1150 422 2328 
Q 422 3509 836 4129 
Q 1250 4750 2034 4750 
z
" transform="scale(0.015625)"/>
       </defs>
       <use xlink:href="#DejaVuSans-30"/>
      </g>
     </g>
    </g>
    <g id="xtick_2">
     <g id="line2d_2">
      <path d="M 134.732082 230.728931 
" style="fill: none; stroke: #000000; stroke-width: 1.5"/>
      <g>
       <use xlink:href="#m2cfa453d23" x="134.732082" y="230.728931" style="stroke: #333333"/>
      </g>
     </g>
     <g id="text_2">
      <!-- 0.1 -->
      <g transform="translate(125.190207 244.797056)scale(0.12 -0.12)">
       <defs>
        <path id="DejaVuSans-2e" d="M 684 794 
L 1344 794 
L 1344 0 
L 684 0 
L 684 794 
z
" transform="scale(0.015625)"/>
        <path id="DejaVuSans-31" d="M 794 531 
L 1825 531 
L 1825 4091 
L 703 3866 
L 703 4441 
L 1819 4666 
L 2450 4666 
L 2450 531 
L 3481 531 
L 3481 0 
L 794 0 
L 794 531 
z
" transform="scale(0.015625)"/>
       </defs>
       <use xlink:href="#DejaVuSans-30"/>
       <use xlink:href="#DejaVuSans-2e" x="63.623047"/>
       <use xlink:href="#DejaVuSans-31" x="95.410156"/>
      </g>
     </g>
    </g>
    <g id="xtick_3">
     <g id="line2d_3">
      <path d="M 203.905636 230.728931 
" style="fill: none; stroke: #000000; stroke-width: 1.5"/>
      <g>
       <use xlink:href="#m2cfa453d23" x="203.905636" y="230.728931" style="stroke: #333333"/>
      </g>
     </g>
     <g id="text_3">
      <!-- 0.2 -->
      <g transform="translate(194.363761 244.797056)scale(0.12 -0.12)">
       <defs>
        <path id="DejaVuSans-32" d="M 1228 531 
L 3431 531 
L 3431 0 
L 469 0 
L 469 531 
Q 828 903 1448 1529 
Q 2069 2156 2228 2338 
Q 2531 2678 2651 2914 
Q 2772 3150 2772 3378 
Q 2772 3750 2511 3984 
Q 2250 4219 1831 4219 
Q 1534 4219 1204 4116 
Q 875 4013 500 3803 
L 500 4441 
Q 881 4594 1212 4672 
Q 1544 4750 1819 4750 
Q 2544 4750 2975 4387 
Q 3406 4025 3406 3419 
Q 3406 3131 3298 2873 
Q 3191 2616 2906 2266 
Q 2828 2175 2409 1742 
Q 1991 1309 1228 531 
z
" transform="scale(0.015625)"/>
       </defs>
       <use xlink:href="#DejaVuSans-30"/>
       <use xlink:href="#DejaVuSans-2e" x="63.623047"/>
       <use xlink:href="#DejaVuSans-32" x="95.410156"/>
      </g>
     </g>
    </g>
    <g id="xtick_4"/>
    <g id="xtick_5"/>
    <g id="text_4">
     <!-- fraction physical progeny -->
     <g transform="translate(62.8235 260.810806)scale(0.12 -0.12)">
      <defs>
       <path id="DejaVuSans-66" d="M 2375 4863 
L 2375 4384 
L 1825 4384 
Q 1516 4384 1395 4259 
Q 1275 4134 1275 3809 
L 1275 3500 
L 2222 3500 
L 2222 3053 
L 1275 3053 
L 1275 0 
L 697 0 
L 697 3053 
L 147 3053 
L 147 3500 
L 697 3500 
L 697 3744 
Q 697 4328 969 4595 
Q 1241 4863 1831 4863 
L 2375 4863 
z
" transform="scale(0.015625)"/>
       <path id="DejaVuSans-72" d="M 2631 2963 
Q 2534 3019 2420 3045 
Q 2306 3072 2169 3072 
Q 1681 3072 1420 2755 
Q 1159 2438 1159 1844 
L 1159 0 
L 581 0 
L 581 3500 
L 1159 3500 
L 1159 2956 
Q 1341 3275 1631 3429 
Q 1922 3584 2338 3584 
Q 2397 3584 2469 3576 
Q 2541 3569 2628 3553 
L 2631 2963 
z
" transform="scale(0.015625)"/>
       <path id="DejaVuSans-61" d="M 2194 1759 
Q 1497 1759 1228 1600 
Q 959 1441 959 1056 
Q 959 750 1161 570 
Q 1363 391 1709 391 
Q 2188 391 2477 730 
Q 2766 1069 2766 1631 
L 2766 1759 
L 2194 1759 
z
M 3341 1997 
L 3341 0 
L 2766 0 
L 2766 531 
Q 2569 213 2275 61 
Q 1981 -91 1556 -91 
Q 1019 -91 701 211 
Q 384 513 384 1019 
Q 384 1609 779 1909 
Q 1175 2209 1959 2209 
L 2766 2209 
L 2766 2266 
Q 2766 2663 2505 2880 
Q 2244 3097 1772 3097 
Q 1472 3097 1187 3025 
Q 903 2953 641 2809 
L 641 3341 
Q 956 3463 1253 3523 
Q 1550 3584 1831 3584 
Q 2591 3584 2966 3190 
Q 3341 2797 3341 1997 
z
" transform="scale(0.015625)"/>
       <path id="DejaVuSans-63" d="M 3122 3366 
L 3122 2828 
Q 2878 2963 2633 3030 
Q 2388 3097 2138 3097 
Q 1578 3097 1268 2742 
Q 959 2388 959 1747 
Q 959 1106 1268 751 
Q 1578 397 2138 397 
Q 2388 397 2633 464 
Q 2878 531 3122 666 
L 3122 134 
Q 2881 22 2623 -34 
Q 2366 -91 2075 -91 
Q 1284 -91 818 406 
Q 353 903 353 1747 
Q 353 2603 823 3093 
Q 1294 3584 2113 3584 
Q 2378 3584 2631 3529 
Q 2884 3475 3122 3366 
z
" transform="scale(0.015625)"/>
       <path id="DejaVuSans-74" d="M 1172 4494 
L 1172 3500 
L 2356 3500 
L 2356 3053 
L 1172 3053 
L 1172 1153 
Q 1172 725 1289 603 
Q 1406 481 1766 481 
L 2356 481 
L 2356 0 
L 1766 0 
Q 1100 0 847 248 
Q 594 497 594 1153 
L 594 3053 
L 172 3053 
L 172 3500 
L 594 3500 
L 594 4494 
L 1172 4494 
z
" transform="scale(0.015625)"/>
       <path id="DejaVuSans-69" d="M 603 3500 
L 1178 3500 
L 1178 0 
L 603 0 
L 603 3500 
z
M 603 4863 
L 1178 4863 
L 1178 4134 
L 603 4134 
L 603 4863 
z
" transform="scale(0.015625)"/>
       <path id="DejaVuSans-6f" d="M 1959 3097 
Q 1497 3097 1228 2736 
Q 959 2375 959 1747 
Q 959 1119 1226 758 
Q 1494 397 1959 397 
Q 2419 397 2687 759 
Q 2956 1122 2956 1747 
Q 2956 2369 2687 2733 
Q 2419 3097 1959 3097 
z
M 1959 3584 
Q 2709 3584 3137 3096 
Q 3566 2609 3566 1747 
Q 3566 888 3137 398 
Q 2709 -91 1959 -91 
Q 1206 -91 779 398 
Q 353 888 353 1747 
Q 353 2609 779 3096 
Q 1206 3584 1959 3584 
z
" transform="scale(0.015625)"/>
       <path id="DejaVuSans-6e" d="M 3513 2113 
L 3513 0 
L 2938 0 
L 2938 2094 
Q 2938 2591 2744 2837 
Q 2550 3084 2163 3084 
Q 1697 3084 1428 2787 
Q 1159 2491 1159 1978 
L 1159 0 
L 581 0 
L 581 3500 
L 1159 3500 
L 1159 2956 
Q 1366 3272 1645 3428 
Q 1925 3584 2291 3584 
Q 2894 3584 3203 3211 
Q 3513 2838 3513 2113 
z
" transform="scale(0.015625)"/>
       <path id="DejaVuSans-20" transform="scale(0.015625)"/>
       <path id="DejaVuSans-70" d="M 1159 525 
L 1159 -1331 
L 581 -1331 
L 581 3500 
L 1159 3500 
L 1159 2969 
Q 1341 3281 1617 3432 
Q 1894 3584 2278 3584 
Q 2916 3584 3314 3078 
Q 3713 2572 3713 1747 
Q 3713 922 3314 415 
Q 2916 -91 2278 -91 
Q 1894 -91 1617 61 
Q 1341 213 1159 525 
z
M 3116 1747 
Q 3116 2381 2855 2742 
Q 2594 3103 2138 3103 
Q 1681 3103 1420 2742 
Q 1159 2381 1159 1747 
Q 1159 1113 1420 752 
Q 1681 391 2138 391 
Q 2594 391 2855 752 
Q 3116 1113 3116 1747 
z
" transform="scale(0.015625)"/>
       <path id="DejaVuSans-68" d="M 3513 2113 
L 3513 0 
L 2938 0 
L 2938 2094 
Q 2938 2591 2744 2837 
Q 2550 3084 2163 3084 
Q 1697 3084 1428 2787 
Q 1159 2491 1159 1978 
L 1159 0 
L 581 0 
L 581 4863 
L 1159 4863 
L 1159 2956 
Q 1366 3272 1645 3428 
Q 1925 3584 2291 3584 
Q 2894 3584 3203 3211 
Q 3513 2838 3513 2113 
z
" transform="scale(0.015625)"/>
       <path id="DejaVuSans-79" d="M 2059 -325 
Q 1816 -950 1584 -1140 
Q 1353 -1331 966 -1331 
L 506 -1331 
L 506 -850 
L 844 -850 
Q 1081 -850 1212 -737 
Q 1344 -625 1503 -206 
L 1606 56 
L 191 3500 
L 800 3500 
L 1894 763 
L 2988 3500 
L 3597 3500 
L 2059 -325 
z
" transform="scale(0.015625)"/>
       <path id="DejaVuSans-73" d="M 2834 3397 
L 2834 2853 
Q 2591 2978 2328 3040 
Q 2066 3103 1784 3103 
Q 1356 3103 1142 2972 
Q 928 2841 928 2578 
Q 928 2378 1081 2264 
Q 1234 2150 1697 2047 
L 1894 2003 
Q 2506 1872 2764 1633 
Q 3022 1394 3022 966 
Q 3022 478 2636 193 
Q 2250 -91 1575 -91 
Q 1294 -91 989 -36 
Q 684 19 347 128 
L 347 722 
Q 666 556 975 473 
Q 1284 391 1588 391 
Q 1994 391 2212 530 
Q 2431 669 2431 922 
Q 2431 1156 2273 1281 
Q 2116 1406 1581 1522 
L 1381 1569 
Q 847 1681 609 1914 
Q 372 2147 372 2553 
Q 372 3047 722 3315 
Q 1072 3584 1716 3584 
Q 2034 3584 2315 3537 
Q 2597 3491 2834 3397 
z
" transform="scale(0.015625)"/>
       <path id="DejaVuSans-6c" d="M 603 4863 
L 1178 4863 
L 1178 0 
L 603 0 
L 603 4863 
z
" transform="scale(0.015625)"/>
       <path id="DejaVuSans-67" d="M 2906 1791 
Q 2906 2416 2648 2759 
Q 2391 3103 1925 3103 
Q 1463 3103 1205 2759 
Q 947 2416 947 1791 
Q 947 1169 1205 825 
Q 1463 481 1925 481 
Q 2391 481 2648 825 
Q 2906 1169 2906 1791 
z
M 3481 434 
Q 3481 -459 3084 -895 
Q 2688 -1331 1869 -1331 
Q 1566 -1331 1297 -1286 
Q 1028 -1241 775 -1147 
L 775 -588 
Q 1028 -725 1275 -790 
Q 1522 -856 1778 -856 
Q 2344 -856 2625 -561 
Q 2906 -266 2906 331 
L 2906 616 
Q 2728 306 2450 153 
Q 2172 0 1784 0 
Q 1141 0 747 490 
Q 353 981 353 1791 
Q 353 2603 747 3093 
Q 1141 3584 1784 3584 
Q 2172 3584 2450 3431 
Q 2728 3278 2906 2969 
L 2906 3500 
L 3481 3500 
L 3481 434 
z
" transform="scale(0.015625)"/>
       <path id="DejaVuSans-65" d="M 3597 1894 
L 3597 1613 
L 953 1613 
Q 991 1019 1311 708 
Q 1631 397 2203 397 
Q 2534 397 2845 478 
Q 3156 559 3463 722 
L 3463 178 
Q 3153 47 2828 -22 
Q 2503 -91 2169 -91 
Q 1331 -91 842 396 
Q 353 884 353 1716 
Q 353 2575 817 3079 
Q 1281 3584 2069 3584 
Q 2775 3584 3186 3129 
Q 3597 2675 3597 1894 
z
M 3022 2063 
Q 3016 2534 2758 2815 
Q 2500 3097 2075 3097 
Q 1594 3097 1305 2825 
Q 1016 2553 972 2059 
L 3022 2063 
z
" transform="scale(0.015625)"/>
      </defs>
      <use xlink:href="#DejaVuSans-66"/>
      <use xlink:href="#DejaVuSans-72" x="35.205078"/>
      <use xlink:href="#DejaVuSans-61" x="76.318359"/>
      <use xlink:href="#DejaVuSans-63" x="137.597656"/>
      <use xlink:href="#DejaVuSans-74" x="192.578125"/>
      <use xlink:href="#DejaVuSans-69" x="231.787109"/>
      <use xlink:href="#DejaVuSans-6f" x="259.570312"/>
      <use xlink:href="#DejaVuSans-6e" x="320.751953"/>
      <use xlink:href="#DejaVuSans-20" x="384.130859"/>
      <use xlink:href="#DejaVuSans-70" x="415.917969"/>
      <use xlink:href="#DejaVuSans-68" x="479.394531"/>
      <use xlink:href="#DejaVuSans-79" x="542.773438"/>
      <use xlink:href="#DejaVuSans-73" x="601.953125"/>
      <use xlink:href="#DejaVuSans-69" x="654.052734"/>
      <use xlink:href="#DejaVuSans-63" x="681.835938"/>
      <use xlink:href="#DejaVuSans-61" x="736.816406"/>
      <use xlink:href="#DejaVuSans-6c" x="798.095703"/>
      <use xlink:href="#DejaVuSans-20" x="825.878906"/>
      <use xlink:href="#DejaVuSans-70" x="857.666016"/>
      <use xlink:href="#DejaVuSans-72" x="921.142578"/>
      <use xlink:href="#DejaVuSans-6f" x="960.005859"/>
      <use xlink:href="#DejaVuSans-67" x="1021.1875"/>
      <use xlink:href="#DejaVuSans-65" x="1084.664062"/>
      <use xlink:href="#DejaVuSans-6e" x="1146.1875"/>
      <use xlink:href="#DejaVuSans-79" x="1209.566406"/>
     </g>
    </g>
   </g>
   <g id="matplotlib.axis_2">
    <g id="ytick_1">
     <g id="line2d_4">
      <path d="M 57.949438 223.168931 
" style="fill: none; stroke: #000000; stroke-width: 1.5"/>
      <defs>
       <path id="m5762ecb139" d="M 0 0 
L -2.75 0 
" style="stroke: #333333"/>
      </defs>
      <g>
       <use xlink:href="#m5762ecb139" x="57.949438" y="223.168931" style="stroke: #333333"/>
      </g>
     </g>
     <g id="text_5">
      <!-- 0 -->
      <g transform="translate(45.364438 226.480181)scale(0.12 -0.12)">
       <use xlink:href="#DejaVuSans-30"/>
      </g>
     </g>
    </g>
    <g id="ytick_2">
     <g id="line2d_5">
      <path d="M 57.949438 154.441658 
" style="fill: none; stroke: #000000; stroke-width: 1.5"/>
      <g>
       <use xlink:href="#m5762ecb139" x="57.949438" y="154.441658" style="stroke: #333333"/>
      </g>
     </g>
     <g id="text_6">
      <!-- 0.1 -->
      <g transform="translate(33.915688 157.752908)scale(0.12 -0.12)">
       <use xlink:href="#DejaVuSans-30"/>
       <use xlink:href="#DejaVuSans-2e" x="63.623047"/>
       <use xlink:href="#DejaVuSans-31" x="95.410156"/>
      </g>
     </g>
    </g>
    <g id="ytick_3">
     <g id="line2d_6">
      <path d="M 57.949438 85.714386 
" style="fill: none; stroke: #000000; stroke-width: 1.5"/>
      <g>
       <use xlink:href="#m5762ecb139" x="57.949438" y="85.714386" style="stroke: #333333"/>
      </g>
     </g>
     <g id="text_7">
      <!-- 0.2 -->
      <g transform="translate(33.915688 89.025636)scale(0.12 -0.12)">
       <use xlink:href="#DejaVuSans-30"/>
       <use xlink:href="#DejaVuSans-2e" x="63.623047"/>
       <use xlink:href="#DejaVuSans-32" x="95.410156"/>
      </g>
     </g>
    </g>
    <g id="ytick_4"/>
    <g id="ytick_5"/>
    <g id="text_8">
     <!-- fraction  -->
     <g transform="translate(16.318125 171.443306)rotate(-90)scale(0.12 -0.12)">
      <use xlink:href="#DejaVuSans-66"/>
      <use xlink:href="#DejaVuSans-72" x="35.205078"/>
      <use xlink:href="#DejaVuSans-61" x="76.318359"/>
      <use xlink:href="#DejaVuSans-63" x="137.597656"/>
      <use xlink:href="#DejaVuSans-74" x="192.578125"/>
      <use xlink:href="#DejaVuSans-69" x="231.787109"/>
      <use xlink:href="#DejaVuSans-6f" x="259.570312"/>
      <use xlink:href="#DejaVuSans-6e" x="320.751953"/>
      <use xlink:href="#DejaVuSans-20" x="384.130859"/>
     </g>
     <!-- infectious progeny -->
     <g transform="translate(27.020063 202.253306)rotate(-90)scale(0.12 -0.12)">
      <defs>
       <path id="DejaVuSans-75" d="M 544 1381 
L 544 3500 
L 1119 3500 
L 1119 1403 
Q 1119 906 1312 657 
Q 1506 409 1894 409 
Q 2359 409 2629 706 
Q 2900 1003 2900 1516 
L 2900 3500 
L 3475 3500 
L 3475 0 
L 2900 0 
L 2900 538 
Q 2691 219 2414 64 
Q 2138 -91 1772 -91 
Q 1169 -91 856 284 
Q 544 659 544 1381 
z
M 1991 3584 
L 1991 3584 
z
" transform="scale(0.015625)"/>
      </defs>
      <use xlink:href="#DejaVuSans-69"/>
      <use xlink:href="#DejaVuSans-6e" x="27.783203"/>
      <use xlink:href="#DejaVuSans-66" x="91.162109"/>
      <use xlink:href="#DejaVuSans-65" x="126.367188"/>
      <use xlink:href="#DejaVuSans-63" x="187.890625"/>
      <use xlink:href="#DejaVuSans-74" x="242.871094"/>
      <use xlink:href="#DejaVuSans-69" x="282.080078"/>
      <use xlink:href="#DejaVuSans-6f" x="309.863281"/>
      <use xlink:href="#DejaVuSans-75" x="371.044922"/>
      <use xlink:href="#DejaVuSans-73" x="434.423828"/>
      <use xlink:href="#DejaVuSans-20" x="486.523438"/>
      <use xlink:href="#DejaVuSans-70" x="518.310547"/>
      <use xlink:href="#DejaVuSans-72" x="581.787109"/>
      <use xlink:href="#DejaVuSans-6f" x="620.650391"/>
      <use xlink:href="#DejaVuSans-67" x="681.832031"/>
      <use xlink:href="#DejaVuSans-65" x="745.308594"/>
      <use xlink:href="#DejaVuSans-6e" x="806.832031"/>
      <use xlink:href="#DejaVuSans-79" x="870.210938"/>
     </g>
    </g>
   </g>
   <g id="PathCollection_1">
    <path d="M 74.152935 225.433812 
C 74.975541 225.433812 75.764565 225.106987 76.346235 224.525318 
C 76.927905 223.943648 77.254729 223.154623 77.254729 222.332018 
C 77.254729 221.509412 76.927905 220.720388 76.346235 220.138718 
C 75.764565 219.557048 74.975541 219.230224 74.152935 219.230224 
C 73.33033 219.230224 72.541305 219.557048 71.959635 220.138718 
C 71.377965 220.720388 71.051141 221.509412 71.051141 222.332018 
C 71.051141 223.154623 71.377965 223.943648 71.959635 224.525318 
C 72.541305 225.106987 73.33033 225.433812 74.152935 225.433812 
z
" clip-path="url(#pc4826dde9f)" style="fill: #ff5349; fill-opacity: 0.4; stroke: #ff5349; stroke-opacity: 0.4; stroke-width: 0.886227"/>
    <path d="M 65.683035 226.124879 
C 66.505641 226.124879 67.294665 225.798054 67.876335 225.216384 
C 68.458005 224.634714 68.78483 223.84569 68.78483 223.023084 
C 68.78483 222.200479 68.458005 221.411455 67.876335 220.829785 
C 67.294665 220.248115 66.505641 219.92129 65.683035 219.92129 
C 64.86043 219.92129 64.071406 220.248115 63.489736 220.829785 
C 62.908066 221.411455 62.581241 222.200479 62.581241 223.023084 
C 62.581241 223.84569 62.908066 224.634714 63.489736 225.216384 
C 64.071406 225.798054 64.86043 226.124879 65.683035 226.124879 
z
" clip-path="url(#pc4826dde9f)" style="fill: #0072b2; fill-opacity: 0.4; stroke: #0072b2; stroke-opacity: 0.4; stroke-width: 0.886227"/>
    <path d="M 67.293858 225.966277 
C 68.116463 225.966277 68.905488 225.639453 69.487158 225.057783 
C 70.068828 224.476113 70.395652 223.687088 70.395652 222.864483 
C 70.395652 222.041877 70.068828 221.252853 69.487158 220.671183 
C 68.905488 220.089513 68.116463 219.762689 67.293858 219.762689 
C 66.471253 219.762689 65.682228 220.089513 65.100558 220.671183 
C 64.518888 221.252853 64.192064 222.041877 64.192064 222.864483 
C 64.192064 223.687088 64.518888 224.476113 65.100558 225.057783 
C 65.682228 225.639453 66.471253 225.966277 67.293858 225.966277 
z
" clip-path="url(#pc4826dde9f)" style="fill: #999999; fill-opacity: 0.4; stroke: #999999; stroke-opacity: 0.4; stroke-width: 0.886227"/>
    <path d="M 65.89238 223.604154 
C 66.714985 223.604154 67.504009 223.277329 68.085679 222.695659 
C 68.667349 222.11399 68.994174 221.324965 68.994174 220.50236 
C 68.994174 219.679754 68.667349 218.89073 68.085679 218.30906 
C 67.504009 217.72739 66.714985 217.400565 65.89238 217.400565 
C 65.069774 217.400565 64.28075 217.72739 63.69908 218.30906 
C 63.11741 218.89073 62.790585 219.679754 62.790585 220.50236 
C 62.790585 221.324965 63.11741 222.11399 63.69908 222.695659 
C 64.28075 223.277329 65.069774 223.604154 65.89238 223.604154 
z
" clip-path="url(#pc4826dde9f)" style="fill: #999999; fill-opacity: 0.4; stroke: #999999; stroke-opacity: 0.4; stroke-width: 0.886227"/>
    <path d="M 65.683035 226.124879 
C 66.505641 226.124879 67.294665 225.798054 67.876335 225.216384 
C 68.458005 224.634714 68.78483 223.84569 68.78483 223.023084 
C 68.78483 222.200479 68.458005 221.411455 67.876335 220.829785 
C 67.294665 220.248115 66.505641 219.92129 65.683035 219.92129 
C 64.86043 219.92129 64.071406 220.248115 63.489736 220.829785 
C 62.908066 221.411455 62.581241 222.200479 62.581241 223.023084 
C 62.581241 223.84569 62.908066 224.634714 63.489736 225.216384 
C 64.071406 225.798054 64.86043 226.124879 65.683035 226.124879 
z
" clip-path="url(#pc4826dde9f)" style="fill: #ff5349; fill-opacity: 0.4; stroke: #ff5349; stroke-opacity: 0.4; stroke-width: 0.886227"/>
    <path d="M 67.661268 225.940893 
C 68.483873 225.940893 69.272898 225.614069 69.854568 225.032399 
C 70.436237 224.450729 70.763062 223.661704 70.763062 222.839099 
C 70.763062 222.016494 70.436237 221.227469 69.854568 220.645799 
C 69.272898 220.064129 68.483873 219.737305 67.661268 219.737305 
C 66.838662 219.737305 66.049638 220.064129 65.467968 220.645799 
C 64.886298 221.227469 64.559474 222.016494 64.559474 222.839099 
C 64.559474 223.661704 64.886298 224.450729 65.467968 225.032399 
C 66.049638 225.614069 66.838662 225.940893 67.661268 225.940893 
z
" clip-path="url(#pc4826dde9f)" style="fill: #0072b2; fill-opacity: 0.4; stroke: #0072b2; stroke-opacity: 0.4; stroke-width: 0.886227"/>
    <path d="M 65.734608 226.064467 
C 66.557213 226.064467 67.346238 225.737642 67.927908 225.155972 
C 68.509578 224.574302 68.836402 223.785278 68.836402 222.962673 
C 68.836402 222.140067 68.509578 221.351043 67.927908 220.769373 
C 67.346238 220.187703 66.557213 219.860878 65.734608 219.860878 
C 64.912002 219.860878 64.122978 220.187703 63.541308 220.769373 
C 62.959638 221.351043 62.632814 222.140067 62.632814 222.962673 
C 62.632814 223.785278 62.959638 224.574302 63.541308 225.155972 
C 64.122978 225.737642 64.912002 226.064467 65.734608 226.064467 
z
" clip-path="url(#pc4826dde9f)" style="fill: #0072b2; fill-opacity: 0.4; stroke: #0072b2; stroke-opacity: 0.4; stroke-width: 0.886227"/>
    <path d="M 65.683035 226.124879 
C 66.505641 226.124879 67.294665 225.798054 67.876335 225.216384 
C 68.458005 224.634714 68.78483 223.84569 68.78483 223.023084 
C 68.78483 222.200479 68.458005 221.411455 67.876335 220.829785 
C 67.294665 220.248115 66.505641 219.92129 65.683035 219.92129 
C 64.86043 219.92129 64.071406 220.248115 63.489736 220.829785 
C 62.908066 221.411455 62.581241 222.200479 62.581241 223.023084 
C 62.581241 223.84569 62.908066 224.634714 63.489736 225.216384 
C 64.071406 225.798054 64.86043 226.124879 65.683035 226.124879 
z
" clip-path="url(#pc4826dde9f)" style="fill: #999999; fill-opacity: 0.4; stroke: #999999; stroke-opacity: 0.4; stroke-width: 0.886227"/>
    <path d="M 66.97013 225.845529 
C 67.792735 225.845529 68.58176 225.518704 69.16343 224.937034 
C 69.745099 224.355364 70.071924 223.56634 70.071924 222.743734 
C 70.071924 221.921129 69.745099 221.132104 69.16343 220.550435 
C 68.58176 219.968765 67.792735 219.64194 66.97013 219.64194 
C 66.147524 219.64194 65.3585 219.968765 64.77683 220.550435 
C 64.19516 221.132104 63.868336 221.921129 63.868336 222.743734 
C 63.868336 223.56634 64.19516 224.355364 64.77683 224.937034 
C 65.3585 225.518704 66.147524 225.845529 66.97013 225.845529 
z
" clip-path="url(#pc4826dde9f)" style="fill: #0072b2; fill-opacity: 0.4; stroke: #0072b2; stroke-opacity: 0.4; stroke-width: 0.886227"/>
    <path d="M 90.4264 225.974508 
C 91.249006 225.974508 92.03803 225.647684 92.6197 225.066014 
C 93.20137 224.484344 93.528195 223.69532 93.528195 222.872714 
C 93.528195 222.050109 93.20137 221.261084 92.6197 220.679414 
C 92.03803 220.097745 91.249006 219.77092 90.4264 219.77092 
C 89.603795 219.77092 88.81477 220.097745 88.233101 220.679414 
C 87.651431 221.261084 87.324606 222.050109 87.324606 222.872714 
C 87.324606 223.69532 87.651431 224.484344 88.233101 225.066014 
C 88.81477 225.647684 89.603795 225.974508 90.4264 225.974508 
z
" clip-path="url(#pc4826dde9f)" style="fill: #0072b2; fill-opacity: 0.4; stroke: #0072b2; stroke-opacity: 0.4; stroke-width: 0.886227"/>
    <path d="M 85.562629 225.439463 
C 86.385235 225.439463 87.174259 225.112639 87.755929 224.530969 
C 88.337599 223.949299 88.664424 223.160274 88.664424 222.337669 
C 88.664424 221.515063 88.337599 220.726039 87.755929 220.144369 
C 87.174259 219.562699 86.385235 219.235875 85.562629 219.235875 
C 84.740024 219.235875 83.950999 219.562699 83.36933 220.144369 
C 82.78766 220.726039 82.460835 221.515063 82.460835 222.337669 
C 82.460835 223.160274 82.78766 223.949299 83.36933 224.530969 
C 83.950999 225.112639 84.740024 225.439463 85.562629 225.439463 
z
" clip-path="url(#pc4826dde9f)" style="fill: #ff5349; fill-opacity: 0.4; stroke: #ff5349; stroke-opacity: 0.4; stroke-width: 0.886227"/>
    <path d="M 69.337364 214.614929 
C 70.15997 214.614929 70.948994 214.288104 71.530664 213.706434 
C 72.112334 213.124764 72.439158 212.33574 72.439158 211.513134 
C 72.439158 210.690529 72.112334 209.901504 71.530664 209.319835 
C 70.948994 208.738165 70.15997 208.41134 69.337364 208.41134 
C 68.514759 208.41134 67.725734 208.738165 67.144064 209.319835 
C 66.562394 209.901504 66.23557 210.690529 66.23557 211.513134 
C 66.23557 212.33574 66.562394 213.124764 67.144064 213.706434 
C 67.725734 214.288104 68.514759 214.614929 69.337364 214.614929 
z
" clip-path="url(#pc4826dde9f)" style="fill: #999999; fill-opacity: 0.4; stroke: #999999; stroke-opacity: 0.4; stroke-width: 0.886227"/>
    <path d="M 75.057881 221.176453 
C 75.880487 221.176453 76.669511 220.849629 77.251181 220.267959 
C 77.832851 219.686289 78.159676 218.897265 78.159676 218.074659 
C 78.159676 217.252054 77.832851 216.463029 77.251181 215.88136 
C 76.669511 215.29969 75.880487 214.972865 75.057881 214.972865 
C 74.235276 214.972865 73.446251 215.29969 72.864582 215.88136 
C 72.282912 216.463029 71.956087 217.252054 71.956087 218.074659 
C 71.956087 218.897265 72.282912 219.686289 72.864582 220.267959 
C 73.446251 220.849629 74.235276 221.176453 75.057881 221.176453 
z
" clip-path="url(#pc4826dde9f)" style="fill: #0072b2; fill-opacity: 0.4; stroke: #0072b2; stroke-opacity: 0.4; stroke-width: 0.886227"/>
    <path d="M 65.683035 226.124879 
C 66.505641 226.124879 67.294665 225.798054 67.876335 225.216384 
C 68.458005 224.634714 68.78483 223.84569 68.78483 223.023084 
C 68.78483 222.200479 68.458005 221.411455 67.876335 220.829785 
C 67.294665 220.248115 66.505641 219.92129 65.683035 219.92129 
C 64.86043 219.92129 64.071406 220.248115 63.489736 220.829785 
C 62.908066 221.411455 62.581241 222.200479 62.581241 223.023084 
C 62.581241 223.84569 62.908066 224.634714 63.489736 225.216384 
C 64.071406 225.798054 64.86043 226.124879 65.683035 226.124879 
z
" clip-path="url(#pc4826dde9f)" style="fill: #ff5349; fill-opacity: 0.4; stroke: #ff5349; stroke-opacity: 0.4; stroke-width: 0.886227"/>
    <path d="M 65.683035 226.124879 
C 66.505641 226.124879 67.294665 225.798054 67.876335 225.216384 
C 68.458005 224.634714 68.78483 223.84569 68.78483 223.023084 
C 68.78483 222.200479 68.458005 221.411455 67.876335 220.829785 
C 67.294665 220.248115 66.505641 219.92129 65.683035 219.92129 
C 64.86043 219.92129 64.071406 220.248115 63.489736 220.829785 
C 62.908066 221.411455 62.581241 222.200479 62.581241 223.023084 
C 62.581241 223.84569 62.908066 224.634714 63.489736 225.216384 
C 64.071406 225.798054 64.86043 226.124879 65.683035 226.124879 
z
" clip-path="url(#pc4826dde9f)" style="fill: #0072b2; fill-opacity: 0.4; stroke: #0072b2; stroke-opacity: 0.4; stroke-width: 0.886227"/>
    <path d="M 65.734608 226.064467 
C 66.557213 226.064467 67.346238 225.737642 67.927908 225.155972 
C 68.509578 224.574302 68.836402 223.785278 68.836402 222.962673 
C 68.836402 222.140067 68.509578 221.351043 67.927908 220.769373 
C 67.346238 220.187703 66.557213 219.860878 65.734608 219.860878 
C 64.912002 219.860878 64.122978 220.187703 63.541308 220.769373 
C 62.959638 221.351043 62.632814 222.140067 62.632814 222.962673 
C 62.632814 223.785278 62.959638 224.574302 63.541308 225.155972 
C 64.122978 225.737642 64.912002 226.064467 65.734608 226.064467 
z
" clip-path="url(#pc4826dde9f)" style="fill: #0072b2; fill-opacity: 0.4; stroke: #0072b2; stroke-opacity: 0.4; stroke-width: 0.886227"/>
    <path d="M 98.825441 154.70332 
C 99.648046 154.70332 100.43707 154.376495 101.01874 153.794825 
C 101.60041 153.213156 101.927235 152.424131 101.927235 151.601526 
C 101.927235 150.77892 101.60041 149.989896 101.01874 149.408226 
C 100.43707 148.826556 99.648046 148.499731 98.825441 148.499731 
C 98.002835 148.499731 97.213811 148.826556 96.632141 149.408226 
C 96.050471 149.989896 95.723646 150.77892 95.723646 151.601526 
C 95.723646 152.424131 96.050471 153.213156 96.632141 153.794825 
C 97.213811 154.376495 98.002835 154.70332 98.825441 154.70332 
z
" clip-path="url(#pc4826dde9f)" style="fill: #999999; fill-opacity: 0.4; stroke: #999999; stroke-opacity: 0.4; stroke-width: 0.886227"/>
    <path d="M 65.683035 226.124879 
C 66.505641 226.124879 67.294665 225.798054 67.876335 225.216384 
C 68.458005 224.634714 68.78483 223.84569 68.78483 223.023084 
C 68.78483 222.200479 68.458005 221.411455 67.876335 220.829785 
C 67.294665 220.248115 66.505641 219.92129 65.683035 219.92129 
C 64.86043 219.92129 64.071406 220.248115 63.489736 220.829785 
C 62.908066 221.411455 62.581241 222.200479 62.581241 223.023084 
C 62.581241 223.84569 62.908066 224.634714 63.489736 225.216384 
C 64.071406 225.798054 64.86043 226.124879 65.683035 226.124879 
z
" clip-path="url(#pc4826dde9f)" style="fill: #999999; fill-opacity: 0.4; stroke: #999999; stroke-opacity: 0.4; stroke-width: 0.886227"/>
    <path d="M 65.683035 226.124879 
C 66.505641 226.124879 67.294665 225.798054 67.876335 225.216384 
C 68.458005 224.634714 68.78483 223.84569 68.78483 223.023084 
C 68.78483 222.200479 68.458005 221.411455 67.876335 220.829785 
C 67.294665 220.248115 66.505641 219.92129 65.683035 219.92129 
C 64.86043 219.92129 64.071406 220.248115 63.489736 220.829785 
C 62.908066 221.411455 62.581241 222.200479 62.581241 223.023084 
C 62.581241 223.84569 62.908066 224.634714 63.489736 225.216384 
C 64.071406 225.798054 64.86043 226.124879 65.683035 226.124879 
z
" clip-path="url(#pc4826dde9f)" style="fill: #ff5349; fill-opacity: 0.4; stroke: #ff5349; stroke-opacity: 0.4; stroke-width: 0.886227"/>
    <path d="M 87.339382 224.138355 
C 88.161988 224.138355 88.951012 223.81153 89.532682 223.22986 
C 90.114352 222.64819 90.441177 221.859166 90.441177 221.036561 
C 90.441177 220.213955 90.114352 219.424931 89.532682 218.843261 
C 88.951012 218.261591 88.161988 217.934766 87.339382 217.934766 
C 86.516777 217.934766 85.727753 218.261591 85.146083 218.843261 
C 84.564413 219.424931 84.237588 220.213955 84.237588 221.036561 
C 84.237588 221.859166 84.564413 222.64819 85.146083 223.22986 
C 85.727753 223.81153 86.516777 224.138355 87.339382 224.138355 
z
" clip-path="url(#pc4826dde9f)" style="fill: #999999; fill-opacity: 0.4; stroke: #999999; stroke-opacity: 0.4; stroke-width: 0.886227"/>
    <path d="M 65.807542 225.979032 
C 66.630148 225.979032 67.419172 225.652207 68.000842 225.070537 
C 68.582512 224.488867 68.909337 223.699843 68.909337 222.877238 
C 68.909337 222.054632 68.582512 221.265608 68.000842 220.683938 
C 67.419172 220.102268 66.630148 219.775443 65.807542 219.775443 
C 64.984937 219.775443 64.195913 220.102268 63.614243 220.683938 
C 63.032573 221.265608 62.705748 222.054632 62.705748 222.877238 
C 62.705748 223.699843 63.032573 224.488867 63.614243 225.070537 
C 64.195913 225.652207 64.984937 225.979032 65.807542 225.979032 
z
" clip-path="url(#pc4826dde9f)" style="fill: #0072b2; fill-opacity: 0.4; stroke: #0072b2; stroke-opacity: 0.4; stroke-width: 0.886227"/>
    <path d="M 76.654747 221.55166 
C 77.477352 221.55166 78.266377 221.224835 78.848047 220.643166 
C 79.429716 220.061496 79.756541 219.272471 79.756541 218.449866 
C 79.756541 217.62726 79.429716 216.838236 78.848047 216.256566 
C 78.266377 215.674896 77.477352 215.348072 76.654747 215.348072 
C 75.832141 215.348072 75.043117 215.674896 74.461447 216.256566 
C 73.879777 216.838236 73.552953 217.62726 73.552953 218.449866 
C 73.552953 219.272471 73.879777 220.061496 74.461447 220.643166 
C 75.043117 221.224835 75.832141 221.55166 76.654747 221.55166 
z
" clip-path="url(#pc4826dde9f)" style="fill: #0072b2; fill-opacity: 0.4; stroke: #0072b2; stroke-opacity: 0.4; stroke-width: 0.886227"/>
    <path d="M 83.284508 222.692675 
C 84.107113 222.692675 84.896138 222.365851 85.477807 221.784181 
C 86.059477 221.202511 86.386302 220.413487 86.386302 219.590881 
C 86.386302 218.768276 86.059477 217.979251 85.477807 217.397582 
C 84.896138 216.815912 84.107113 216.489087 83.284508 216.489087 
C 82.461902 216.489087 81.672878 216.815912 81.091208 217.397582 
C 80.509538 217.979251 80.182713 218.768276 80.182713 219.590881 
C 80.182713 220.413487 80.509538 221.202511 81.091208 221.784181 
C 81.672878 222.365851 82.461902 222.692675 83.284508 222.692675 
z
" clip-path="url(#pc4826dde9f)" style="fill: #999999; fill-opacity: 0.4; stroke: #999999; stroke-opacity: 0.4; stroke-width: 0.886227"/>
    <path d="M 65.734608 226.064467 
C 66.557213 226.064467 67.346238 225.737642 67.927908 225.155972 
C 68.509578 224.574302 68.836402 223.785278 68.836402 222.962673 
C 68.836402 222.140067 68.509578 221.351043 67.927908 220.769373 
C 67.346238 220.187703 66.557213 219.860878 65.734608 219.860878 
C 64.912002 219.860878 64.122978 220.187703 63.541308 220.769373 
C 62.959638 221.351043 62.632814 222.140067 62.632814 222.962673 
C 62.632814 223.785278 62.959638 224.574302 63.541308 225.155972 
C 64.122978 225.737642 64.912002 226.064467 65.734608 226.064467 
z
" clip-path="url(#pc4826dde9f)" style="fill: #0072b2; fill-opacity: 0.4; stroke: #0072b2; stroke-opacity: 0.4; stroke-width: 0.886227"/>
    <path d="M 79.31114 214.800457 
C 80.133746 214.800457 80.92277 214.473632 81.50444 213.891963 
C 82.08611 213.310293 82.412935 212.521268 82.412935 211.698663 
C 82.412935 210.876057 82.08611 210.087033 81.50444 209.505363 
C 80.92277 208.923693 80.133746 208.596869 79.31114 208.596869 
C 78.488535 208.596869 77.699511 208.923693 77.117841 209.505363 
C 76.536171 210.087033 76.209346 210.876057 76.209346 211.698663 
C 76.209346 212.521268 76.536171 213.310293 77.117841 213.891963 
C 77.699511 214.473632 78.488535 214.800457 79.31114 214.800457 
z
" clip-path="url(#pc4826dde9f)" style="fill: #999999; fill-opacity: 0.4; stroke: #999999; stroke-opacity: 0.4; stroke-width: 0.886227"/>
    <path d="M 65.683035 226.124879 
C 66.505641 226.124879 67.294665 225.798054 67.876335 225.216384 
C 68.458005 224.634714 68.78483 223.84569 68.78483 223.023084 
C 68.78483 222.200479 68.458005 221.411455 67.876335 220.829785 
C 67.294665 220.248115 66.505641 219.92129 65.683035 219.92129 
C 64.86043 219.92129 64.071406 220.248115 63.489736 220.829785 
C 62.908066 221.411455 62.581241 222.200479 62.581241 223.023084 
C 62.581241 223.84569 62.908066 224.634714 63.489736 225.216384 
C 64.071406 225.798054 64.86043 226.124879 65.683035 226.124879 
z
" clip-path="url(#pc4826dde9f)" style="fill: #ff5349; fill-opacity: 0.4; stroke: #ff5349; stroke-opacity: 0.4; stroke-width: 0.886227"/>
    <path d="M 65.683035 226.124879 
C 66.505641 226.124879 67.294665 225.798054 67.876335 225.216384 
C 68.458005 224.634714 68.78483 223.84569 68.78483 223.023084 
C 68.78483 222.200479 68.458005 221.411455 67.876335 220.829785 
C 67.294665 220.248115 66.505641 219.92129 65.683035 219.92129 
C 64.86043 219.92129 64.071406 220.248115 63.489736 220.829785 
C 62.908066 221.411455 62.581241 222.200479 62.581241 223.023084 
C 62.581241 223.84569 62.908066 224.634714 63.489736 225.216384 
C 64.071406 225.798054 64.86043 226.124879 65.683035 226.124879 
z
" clip-path="url(#pc4826dde9f)" style="fill: #999999; fill-opacity: 0.4; stroke: #999999; stroke-opacity: 0.4; stroke-width: 0.886227"/>
    <path d="M 69.052418 226.018111 
C 69.875023 226.018111 70.664048 225.691287 71.245718 225.109617 
C 71.827388 224.527947 72.154212 223.738923 72.154212 222.916317 
C 72.154212 222.093712 71.827388 221.304687 71.245718 220.723017 
C 70.664048 220.141347 69.875023 219.814523 69.052418 219.814523 
C 68.229813 219.814523 67.440788 220.141347 66.859118 220.723017 
C 66.277448 221.304687 65.950624 222.093712 65.950624 222.916317 
C 65.950624 223.738923 66.277448 224.527947 66.859118 225.109617 
C 67.440788 225.691287 68.229813 226.018111 69.052418 226.018111 
z
" clip-path="url(#pc4826dde9f)" style="fill: #999999; fill-opacity: 0.4; stroke: #999999; stroke-opacity: 0.4; stroke-width: 0.886227"/>
    <path d="M 67.576393 226.124879 
C 68.398998 226.124879 69.188023 225.798054 69.769692 225.216384 
C 70.351362 224.634714 70.678187 223.84569 70.678187 223.023084 
C 70.678187 222.200479 70.351362 221.411455 69.769692 220.829785 
C 69.188023 220.248115 68.398998 219.92129 67.576393 219.92129 
C 66.753787 219.92129 65.964763 220.248115 65.383093 220.829785 
C 64.801423 221.411455 64.474599 222.200479 64.474599 223.023084 
C 64.474599 223.84569 64.801423 224.634714 65.383093 225.216384 
C 65.964763 225.798054 66.753787 226.124879 67.576393 226.124879 
z
" clip-path="url(#pc4826dde9f)" style="fill: #999999; fill-opacity: 0.4; stroke: #999999; stroke-opacity: 0.4; stroke-width: 0.886227"/>
    <path d="M 66.042846 225.979032 
C 66.865451 225.979032 67.654476 225.652207 68.236146 225.070537 
C 68.817816 224.488867 69.14464 223.699843 69.14464 222.877238 
C 69.14464 222.054632 68.817816 221.265608 68.236146 220.683938 
C 67.654476 220.102268 66.865451 219.775443 66.042846 219.775443 
C 65.22024 219.775443 64.431216 220.102268 63.849546 220.683938 
C 63.267876 221.265608 62.941052 222.054632 62.941052 222.877238 
C 62.941052 223.699843 63.267876 224.488867 63.849546 225.070537 
C 64.431216 225.652207 65.22024 225.979032 66.042846 225.979032 
z
" clip-path="url(#pc4826dde9f)" style="fill: #ff5349; fill-opacity: 0.4; stroke: #ff5349; stroke-opacity: 0.4; stroke-width: 0.886227"/>
    <path d="M 76.87274 200.010781 
C 77.695346 200.010781 78.48437 199.683957 79.06604 199.102287 
C 79.64771 198.520617 79.974534 197.731592 79.974534 196.908987 
C 79.974534 196.086382 79.64771 195.297357 79.06604 194.715687 
C 78.48437 194.134017 77.695346 193.807193 76.87274 193.807193 
C 76.050135 193.807193 75.26111 194.134017 74.67944 194.715687 
C 74.09777 195.297357 73.770946 196.086382 73.770946 196.908987 
C 73.770946 197.731592 74.09777 198.520617 74.67944 199.102287 
C 75.26111 199.683957 76.050135 200.010781 76.87274 200.010781 
z
" clip-path="url(#pc4826dde9f)" style="fill: #0072b2; fill-opacity: 0.4; stroke: #0072b2; stroke-opacity: 0.4; stroke-width: 0.886227"/>
    <path d="M 74.329049 223.890518 
C 75.151655 223.890518 75.940679 223.563693 76.522349 222.982023 
C 77.104019 222.400353 77.430844 221.611329 77.430844 220.788723 
C 77.430844 219.966118 77.104019 219.177094 76.522349 218.595424 
C 75.940679 218.013754 75.151655 217.686929 74.329049 217.686929 
C 73.506444 217.686929 72.717419 218.013754 72.13575 218.595424 
C 71.55408 219.177094 71.227255 219.966118 71.227255 220.788723 
C 71.227255 221.611329 71.55408 222.400353 72.13575 222.982023 
C 72.717419 223.563693 73.506444 223.890518 74.329049 223.890518 
z
" clip-path="url(#pc4826dde9f)" style="fill: #0072b2; fill-opacity: 0.4; stroke: #0072b2; stroke-opacity: 0.4; stroke-width: 0.886227"/>
    <path d="M 66.725258 226.064467 
C 67.547863 226.064467 68.336888 225.737642 68.918558 225.155972 
C 69.500227 224.574302 69.827052 223.785278 69.827052 222.962673 
C 69.827052 222.140067 69.500227 221.351043 68.918558 220.769373 
C 68.336888 220.187703 67.547863 219.860878 66.725258 219.860878 
C 65.902652 219.860878 65.113628 220.187703 64.531958 220.769373 
C 63.950288 221.351043 63.623464 222.140067 63.623464 222.962673 
C 63.623464 223.785278 63.950288 224.574302 64.531958 225.155972 
C 65.113628 225.737642 65.902652 226.064467 66.725258 226.064467 
z
" clip-path="url(#pc4826dde9f)" style="fill: #999999; fill-opacity: 0.4; stroke: #999999; stroke-opacity: 0.4; stroke-width: 0.886227"/>
    <path d="M 65.683035 226.124879 
C 66.505641 226.124879 67.294665 225.798054 67.876335 225.216384 
C 68.458005 224.634714 68.78483 223.84569 68.78483 223.023084 
C 68.78483 222.200479 68.458005 221.411455 67.876335 220.829785 
C 67.294665 220.248115 66.505641 219.92129 65.683035 219.92129 
C 64.86043 219.92129 64.071406 220.248115 63.489736 220.829785 
C 62.908066 221.411455 62.581241 222.200479 62.581241 223.023084 
C 62.581241 223.84569 62.908066 224.634714 63.489736 225.216384 
C 64.071406 225.798054 64.86043 226.124879 65.683035 226.124879 
z
" clip-path="url(#pc4826dde9f)" style="fill: #999999; fill-opacity: 0.4; stroke: #999999; stroke-opacity: 0.4; stroke-width: 0.886227"/>
    <path d="M 77.987047 165.573788 
C 78.809653 165.573788 79.598677 165.246964 80.180347 164.665294 
C 80.762017 164.083624 81.088842 163.2946 81.088842 162.471994 
C 81.088842 161.649389 80.762017 160.860364 80.180347 160.278694 
C 79.598677 159.697024 78.809653 159.3702 77.987047 159.3702 
C 77.164442 159.3702 76.375418 159.697024 75.793748 160.278694 
C 75.212078 160.860364 74.885253 161.649389 74.885253 162.471994 
C 74.885253 163.2946 75.212078 164.083624 75.793748 164.665294 
C 76.375418 165.246964 77.164442 165.573788 77.987047 165.573788 
z
" clip-path="url(#pc4826dde9f)" style="fill: #999999; fill-opacity: 0.4; stroke: #999999; stroke-opacity: 0.4; stroke-width: 0.886227"/>
    <path d="M 66.564025 225.979032 
C 67.38663 225.979032 68.175654 225.652207 68.757324 225.070537 
C 69.338994 224.488867 69.665819 223.699843 69.665819 222.877238 
C 69.665819 222.054632 69.338994 221.265608 68.757324 220.683938 
C 68.175654 220.102268 67.38663 219.775443 66.564025 219.775443 
C 65.741419 219.775443 64.952395 220.102268 64.370725 220.683938 
C 63.789055 221.265608 63.46223 222.054632 63.46223 222.877238 
C 63.46223 223.699843 63.789055 224.488867 64.370725 225.070537 
C 64.952395 225.652207 65.741419 225.979032 66.564025 225.979032 
z
" clip-path="url(#pc4826dde9f)" style="fill: #0072b2; fill-opacity: 0.4; stroke: #0072b2; stroke-opacity: 0.4; stroke-width: 0.886227"/>
    <path d="M 71.598672 225.444819 
C 72.421277 225.444819 73.210302 225.117995 73.791971 224.536325 
C 74.373641 223.954655 74.700466 223.165631 74.700466 222.343025 
C 74.700466 221.52042 74.373641 220.731395 73.791971 220.149725 
C 73.210302 219.568056 72.421277 219.241231 71.598672 219.241231 
C 70.776066 219.241231 69.987042 219.568056 69.405372 220.149725 
C 68.823702 220.731395 68.496877 221.52042 68.496877 222.343025 
C 68.496877 223.165631 68.823702 223.954655 69.405372 224.536325 
C 69.987042 225.117995 70.776066 225.444819 71.598672 225.444819 
z
" clip-path="url(#pc4826dde9f)" style="fill: #0072b2; fill-opacity: 0.4; stroke: #0072b2; stroke-opacity: 0.4; stroke-width: 0.886227"/>
    <path d="M 211.416568 220.108854 
C 212.239174 220.108854 213.028198 219.78203 213.609868 219.20036 
C 214.191538 218.61869 214.518363 217.829666 214.518363 217.00706 
C 214.518363 216.184455 214.191538 215.39543 213.609868 214.81376 
C 213.028198 214.232091 212.239174 213.905266 211.416568 213.905266 
C 210.593963 213.905266 209.804939 214.232091 209.223269 214.81376 
C 208.641599 215.39543 208.314774 216.184455 208.314774 217.00706 
C 208.314774 217.829666 208.641599 218.61869 209.223269 219.20036 
C 209.804939 219.78203 210.593963 220.108854 211.416568 220.108854 
z
" clip-path="url(#pc4826dde9f)" style="fill: #999999; fill-opacity: 0.4; stroke: #999999; stroke-opacity: 0.4; stroke-width: 0.886227"/>
    <path d="M 66.081015 225.979032 
C 66.903621 225.979032 67.692645 225.652207 68.274315 225.070537 
C 68.855985 224.488867 69.182809 223.699843 69.182809 222.877238 
C 69.182809 222.054632 68.855985 221.265608 68.274315 220.683938 
C 67.692645 220.102268 66.903621 219.775443 66.081015 219.775443 
C 65.25841 219.775443 64.469385 220.102268 63.887715 220.683938 
C 63.306046 221.265608 62.979221 222.054632 62.979221 222.877238 
C 62.979221 223.699843 63.306046 224.488867 63.887715 225.070537 
C 64.469385 225.652207 65.25841 225.979032 66.081015 225.979032 
z
" clip-path="url(#pc4826dde9f)" style="fill: #ff5349; fill-opacity: 0.4; stroke: #ff5349; stroke-opacity: 0.4; stroke-width: 0.886227"/>
    <path d="M 65.894635 226.094405 
C 66.717241 226.094405 67.506265 225.767581 68.087935 225.185911 
C 68.669605 224.604241 68.99643 223.815217 68.99643 222.992611 
C 68.99643 222.170006 68.669605 221.380981 68.087935 220.799311 
C 67.506265 220.217642 66.717241 219.890817 65.894635 219.890817 
C 65.07203 219.890817 64.283006 220.217642 63.701336 220.799311 
C 63.119666 221.380981 62.792841 222.170006 62.792841 222.992611 
C 62.792841 223.815217 63.119666 224.604241 63.701336 225.185911 
C 64.283006 225.767581 65.07203 226.094405 65.894635 226.094405 
z
" clip-path="url(#pc4826dde9f)" style="fill: #0072b2; fill-opacity: 0.4; stroke: #0072b2; stroke-opacity: 0.4; stroke-width: 0.886227"/>
    <path d="M 67.208533 225.979032 
C 68.031138 225.979032 68.820163 225.652207 69.401833 225.070537 
C 69.983503 224.488867 70.310327 223.699843 70.310327 222.877238 
C 70.310327 222.054632 69.983503 221.265608 69.401833 220.683938 
C 68.820163 220.102268 68.031138 219.775443 67.208533 219.775443 
C 66.385927 219.775443 65.596903 220.102268 65.015233 220.683938 
C 64.433563 221.265608 64.106739 222.054632 64.106739 222.877238 
C 64.106739 223.699843 64.433563 224.488867 65.015233 225.070537 
C 65.596903 225.652207 66.385927 225.979032 67.208533 225.979032 
z
" clip-path="url(#pc4826dde9f)" style="fill: #0072b2; fill-opacity: 0.4; stroke: #0072b2; stroke-opacity: 0.4; stroke-width: 0.886227"/>
    <path d="M 79.343193 225.269105 
C 80.165798 225.269105 80.954823 224.94228 81.536493 224.36061 
C 82.118163 223.77894 82.444987 222.989916 82.444987 222.167311 
C 82.444987 221.344705 82.118163 220.555681 81.536493 219.974011 
C 80.954823 219.392341 80.165798 219.065516 79.343193 219.065516 
C 78.520587 219.065516 77.731563 219.392341 77.149893 219.974011 
C 76.568223 220.555681 76.241399 221.344705 76.241399 222.167311 
C 76.241399 222.989916 76.568223 223.77894 77.149893 224.36061 
C 77.731563 224.94228 78.520587 225.269105 79.343193 225.269105 
z
" clip-path="url(#pc4826dde9f)" style="fill: #0072b2; fill-opacity: 0.4; stroke: #0072b2; stroke-opacity: 0.4; stroke-width: 0.886227"/>
    <path d="M 77.358637 225.46579 
C 78.181242 225.46579 78.970267 225.138965 79.551937 224.557296 
C 80.133607 223.975626 80.460431 223.186601 80.460431 222.363996 
C 80.460431 221.54139 80.133607 220.752366 79.551937 220.170696 
C 78.970267 219.589026 78.181242 219.262202 77.358637 219.262202 
C 76.536032 219.262202 75.747007 219.589026 75.165337 220.170696 
C 74.583667 220.752366 74.256843 221.54139 74.256843 222.363996 
C 74.256843 223.186601 74.583667 223.975626 75.165337 224.557296 
C 75.747007 225.138965 76.536032 225.46579 77.358637 225.46579 
z
" clip-path="url(#pc4826dde9f)" style="fill: #0072b2; fill-opacity: 0.4; stroke: #0072b2; stroke-opacity: 0.4; stroke-width: 0.886227"/>
    <path d="M 65.807542 225.979032 
C 66.630148 225.979032 67.419172 225.652207 68.000842 225.070537 
C 68.582512 224.488867 68.909337 223.699843 68.909337 222.877238 
C 68.909337 222.054632 68.582512 221.265608 68.000842 220.683938 
C 67.419172 220.102268 66.630148 219.775443 65.807542 219.775443 
C 64.984937 219.775443 64.195913 220.102268 63.614243 220.683938 
C 63.032573 221.265608 62.705748 222.054632 62.705748 222.877238 
C 62.705748 223.699843 63.032573 224.488867 63.614243 225.070537 
C 64.195913 225.652207 64.984937 225.979032 65.807542 225.979032 
z
" clip-path="url(#pc4826dde9f)" style="fill: #0072b2; fill-opacity: 0.4; stroke: #0072b2; stroke-opacity: 0.4; stroke-width: 0.886227"/>
    <path d="M 66.836819 225.081271 
C 67.659424 225.081271 68.448448 224.754446 69.030118 224.172776 
C 69.611788 223.591106 69.938613 222.802082 69.938613 221.979476 
C 69.938613 221.156871 69.611788 220.367846 69.030118 219.786177 
C 68.448448 219.204507 67.659424 218.877682 66.836819 218.877682 
C 66.014213 218.877682 65.225189 219.204507 64.643519 219.786177 
C 64.061849 220.367846 63.735024 221.156871 63.735024 221.979476 
C 63.735024 222.802082 64.061849 223.591106 64.643519 224.172776 
C 65.225189 224.754446 66.014213 225.081271 66.836819 225.081271 
z
" clip-path="url(#pc4826dde9f)" style="fill: #0072b2; fill-opacity: 0.4; stroke: #0072b2; stroke-opacity: 0.4; stroke-width: 0.886227"/>
    <path d="M 114.660919 224.679862 
C 115.483524 224.679862 116.272549 224.353037 116.854219 223.771367 
C 117.435889 223.189698 117.762713 222.400673 117.762713 221.578068 
C 117.762713 220.755462 117.435889 219.966438 116.854219 219.384768 
C 116.272549 218.803098 115.483524 218.476274 114.660919 218.476274 
C 113.838313 218.476274 113.049289 218.803098 112.467619 219.384768 
C 111.885949 219.966438 111.559125 220.755462 111.559125 221.578068 
C 111.559125 222.400673 111.885949 223.189698 112.467619 223.771367 
C 113.049289 224.353037 113.838313 224.679862 114.660919 224.679862 
z
" clip-path="url(#pc4826dde9f)" style="fill: #999999; fill-opacity: 0.4; stroke: #999999; stroke-opacity: 0.4; stroke-width: 0.886227"/>
    <path d="M 65.863507 225.913475 
C 66.686113 225.913475 67.475137 225.586651 68.056807 225.004981 
C 68.638477 224.423311 68.965301 223.634286 68.965301 222.811681 
C 68.965301 221.989075 68.638477 221.200051 68.056807 220.618381 
C 67.475137 220.036711 66.686113 219.709887 65.863507 219.709887 
C 65.040902 219.709887 64.251877 220.036711 63.670207 220.618381 
C 63.088537 221.200051 62.761713 221.989075 62.761713 222.811681 
C 62.761713 223.634286 63.088537 224.423311 63.670207 225.004981 
C 64.251877 225.586651 65.040902 225.913475 65.863507 225.913475 
z
" clip-path="url(#pc4826dde9f)" style="fill: #999999; fill-opacity: 0.4; stroke: #999999; stroke-opacity: 0.4; stroke-width: 0.886227"/>
    <path d="M 66.422013 226.124879 
C 67.244619 226.124879 68.033643 225.798054 68.615313 225.216384 
C 69.196983 224.634714 69.523807 223.84569 69.523807 223.023084 
C 69.523807 222.200479 69.196983 221.411455 68.615313 220.829785 
C 68.033643 220.248115 67.244619 219.92129 66.422013 219.92129 
C 65.599408 219.92129 64.810383 220.248115 64.228713 220.829785 
C 63.647044 221.411455 63.320219 222.200479 63.320219 223.023084 
C 63.320219 223.84569 63.647044 224.634714 64.228713 225.216384 
C 64.810383 225.798054 65.599408 226.124879 66.422013 226.124879 
z
" clip-path="url(#pc4826dde9f)" style="fill: #0072b2; fill-opacity: 0.4; stroke: #0072b2; stroke-opacity: 0.4; stroke-width: 0.886227"/>
    <path d="M 66.725258 226.064467 
C 67.547863 226.064467 68.336888 225.737642 68.918558 225.155972 
C 69.500227 224.574302 69.827052 223.785278 69.827052 222.962673 
C 69.827052 222.140067 69.500227 221.351043 68.918558 220.769373 
C 68.336888 220.187703 67.547863 219.860878 66.725258 219.860878 
C 65.902652 219.860878 65.113628 220.187703 64.531958 220.769373 
C 63.950288 221.351043 63.623464 222.140067 63.623464 222.962673 
C 63.623464 223.785278 63.950288 224.574302 64.531958 225.155972 
C 65.113628 225.737642 65.902652 226.064467 66.725258 226.064467 
z
" clip-path="url(#pc4826dde9f)" style="fill: #999999; fill-opacity: 0.4; stroke: #999999; stroke-opacity: 0.4; stroke-width: 0.886227"/>
    <path d="M 92.716668 210.937143 
C 93.539274 210.937143 94.328298 210.610318 94.909968 210.028648 
C 95.491638 209.446978 95.818462 208.657954 95.818462 207.835348 
C 95.818462 207.012743 95.491638 206.223718 94.909968 205.642049 
C 94.328298 205.060379 93.539274 204.733554 92.716668 204.733554 
C 91.894063 204.733554 91.105038 205.060379 90.523368 205.642049 
C 89.941698 206.223718 89.614874 207.012743 89.614874 207.835348 
C 89.614874 208.657954 89.941698 209.446978 90.523368 210.028648 
C 91.105038 210.610318 91.894063 210.937143 92.716668 210.937143 
z
" clip-path="url(#pc4826dde9f)" style="fill: #999999; fill-opacity: 0.4; stroke: #999999; stroke-opacity: 0.4; stroke-width: 0.886227"/>
    <path d="M 65.683035 226.124879 
C 66.505641 226.124879 67.294665 225.798054 67.876335 225.216384 
C 68.458005 224.634714 68.78483 223.84569 68.78483 223.023084 
C 68.78483 222.200479 68.458005 221.411455 67.876335 220.829785 
C 67.294665 220.248115 66.505641 219.92129 65.683035 219.92129 
C 64.86043 219.92129 64.071406 220.248115 63.489736 220.829785 
C 62.908066 221.411455 62.581241 222.200479 62.581241 223.023084 
C 62.581241 223.84569 62.908066 224.634714 63.489736 225.216384 
C 64.071406 225.798054 64.86043 226.124879 65.683035 226.124879 
z
" clip-path="url(#pc4826dde9f)" style="fill: #ff5349; fill-opacity: 0.4; stroke: #ff5349; stroke-opacity: 0.4; stroke-width: 0.886227"/>
    <path d="M 65.683035 226.124879 
C 66.505641 226.124879 67.294665 225.798054 67.876335 225.216384 
C 68.458005 224.634714 68.78483 223.84569 68.78483 223.023084 
C 68.78483 222.200479 68.458005 221.411455 67.876335 220.829785 
C 67.294665 220.248115 66.505641 219.92129 65.683035 219.92129 
C 64.86043 219.92129 64.071406 220.248115 63.489736 220.829785 
C 62.908066 221.411455 62.581241 222.200479 62.581241 223.023084 
C 62.581241 223.84569 62.908066 224.634714 63.489736 225.216384 
C 64.071406 225.798054 64.86043 226.124879 65.683035 226.124879 
z
" clip-path="url(#pc4826dde9f)" style="fill: #999999; fill-opacity: 0.4; stroke: #999999; stroke-opacity: 0.4; stroke-width: 0.886227"/>
    <path d="M 65.807542 225.979032 
C 66.630148 225.979032 67.419172 225.652207 68.000842 225.070537 
C 68.582512 224.488867 68.909337 223.699843 68.909337 222.877238 
C 68.909337 222.054632 68.582512 221.265608 68.000842 220.683938 
C 67.419172 220.102268 66.630148 219.775443 65.807542 219.775443 
C 64.984937 219.775443 64.195913 220.102268 63.614243 220.683938 
C 63.032573 221.265608 62.705748 222.054632 62.705748 222.877238 
C 62.705748 223.699843 63.032573 224.488867 63.614243 225.070537 
C 64.195913 225.652207 64.984937 225.979032 65.807542 225.979032 
z
" clip-path="url(#pc4826dde9f)" style="fill: #ff5349; fill-opacity: 0.4; stroke: #ff5349; stroke-opacity: 0.4; stroke-width: 0.886227"/>
    <path d="M 65.683035 226.124879 
C 66.505641 226.124879 67.294665 225.798054 67.876335 225.216384 
C 68.458005 224.634714 68.78483 223.84569 68.78483 223.023084 
C 68.78483 222.200479 68.458005 221.411455 67.876335 220.829785 
C 67.294665 220.248115 66.505641 219.92129 65.683035 219.92129 
C 64.86043 219.92129 64.071406 220.248115 63.489736 220.829785 
C 62.908066 221.411455 62.581241 222.200479 62.581241 223.023084 
C 62.581241 223.84569 62.908066 224.634714 63.489736 225.216384 
C 64.071406 225.798054 64.86043 226.124879 65.683035 226.124879 
z
" clip-path="url(#pc4826dde9f)" style="fill: #999999; fill-opacity: 0.4; stroke: #999999; stroke-opacity: 0.4; stroke-width: 0.886227"/>
    <path d="M 65.683035 226.124879 
C 66.505641 226.124879 67.294665 225.798054 67.876335 225.216384 
C 68.458005 224.634714 68.78483 223.84569 68.78483 223.023084 
C 68.78483 222.200479 68.458005 221.411455 67.876335 220.829785 
C 67.294665 220.248115 66.505641 219.92129 65.683035 219.92129 
C 64.86043 219.92129 64.071406 220.248115 63.489736 220.829785 
C 62.908066 221.411455 62.581241 222.200479 62.581241 223.023084 
C 62.581241 223.84569 62.908066 224.634714 63.489736 225.216384 
C 64.071406 225.798054 64.86043 226.124879 65.683035 226.124879 
z
" clip-path="url(#pc4826dde9f)" style="fill: #ff5349; fill-opacity: 0.4; stroke: #ff5349; stroke-opacity: 0.4; stroke-width: 0.886227"/>
    <path d="M 71.30186 225.881227 
C 72.124466 225.881227 72.91349 225.554402 73.49516 224.972732 
C 74.07683 224.391062 74.403654 223.602038 74.403654 222.779432 
C 74.403654 221.956827 74.07683 221.167802 73.49516 220.586133 
C 72.91349 220.004463 72.124466 219.677638 71.30186 219.677638 
C 70.479255 219.677638 69.69023 220.004463 69.10856 220.586133 
C 68.52689 221.167802 68.200066 221.956827 68.200066 222.779432 
C 68.200066 223.602038 68.52689 224.391062 69.10856 224.972732 
C 69.69023 225.554402 70.479255 225.881227 71.30186 225.881227 
z
" clip-path="url(#pc4826dde9f)" style="fill: #0072b2; fill-opacity: 0.4; stroke: #0072b2; stroke-opacity: 0.4; stroke-width: 0.886227"/>
    <path d="M 65.683035 226.124879 
C 66.505641 226.124879 67.294665 225.798054 67.876335 225.216384 
C 68.458005 224.634714 68.78483 223.84569 68.78483 223.023084 
C 68.78483 222.200479 68.458005 221.411455 67.876335 220.829785 
C 67.294665 220.248115 66.505641 219.92129 65.683035 219.92129 
C 64.86043 219.92129 64.071406 220.248115 63.489736 220.829785 
C 62.908066 221.411455 62.581241 222.200479 62.581241 223.023084 
C 62.581241 223.84569 62.908066 224.634714 63.489736 225.216384 
C 64.071406 225.798054 64.86043 226.124879 65.683035 226.124879 
z
" clip-path="url(#pc4826dde9f)" style="fill: #ff5349; fill-opacity: 0.4; stroke: #ff5349; stroke-opacity: 0.4; stroke-width: 0.886227"/>
    <path d="M 72.328976 223.669255 
C 73.151581 223.669255 73.940605 223.342431 74.522275 222.760761 
C 75.103945 222.179091 75.43077 221.390067 75.43077 220.567461 
C 75.43077 219.744856 75.103945 218.955831 74.522275 218.374161 
C 73.940605 217.792492 73.151581 217.465667 72.328976 217.465667 
C 71.50637 217.465667 70.717346 217.792492 70.135676 218.374161 
C 69.554006 218.955831 69.227181 219.744856 69.227181 220.567461 
C 69.227181 221.390067 69.554006 222.179091 70.135676 222.760761 
C 70.717346 223.342431 71.50637 223.669255 72.328976 223.669255 
z
" clip-path="url(#pc4826dde9f)" style="fill: #999999; fill-opacity: 0.4; stroke: #999999; stroke-opacity: 0.4; stroke-width: 0.886227"/>
    <path d="M 85.533242 183.688321 
C 86.355847 183.688321 87.144871 183.361496 87.726541 182.779827 
C 88.308211 182.198157 88.635036 181.409132 88.635036 180.586527 
C 88.635036 179.763921 88.308211 178.974897 87.726541 178.393227 
C 87.144871 177.811557 86.355847 177.484733 85.533242 177.484733 
C 84.710636 177.484733 83.921612 177.811557 83.339942 178.393227 
C 82.758272 178.974897 82.431447 179.763921 82.431447 180.586527 
C 82.431447 181.409132 82.758272 182.198157 83.339942 182.779827 
C 83.921612 183.361496 84.710636 183.688321 85.533242 183.688321 
z
" clip-path="url(#pc4826dde9f)" style="fill: #0072b2; fill-opacity: 0.4; stroke: #0072b2; stroke-opacity: 0.4; stroke-width: 0.886227"/>
    <path d="M 67.066126 225.65604 
C 67.888731 225.65604 68.677756 225.329215 69.259426 224.747545 
C 69.841096 224.165876 70.16792 223.376851 70.16792 222.554246 
C 70.16792 221.73164 69.841096 220.942616 69.259426 220.360946 
C 68.677756 219.779276 67.888731 219.452451 67.066126 219.452451 
C 66.243521 219.452451 65.454496 219.779276 64.872826 220.360946 
C 64.291156 220.942616 63.964332 221.73164 63.964332 222.554246 
C 63.964332 223.376851 64.291156 224.165876 64.872826 224.747545 
C 65.454496 225.329215 66.243521 225.65604 67.066126 225.65604 
z
" clip-path="url(#pc4826dde9f)" style="fill: #0072b2; fill-opacity: 0.4; stroke: #0072b2; stroke-opacity: 0.4; stroke-width: 0.886227"/>
    <path d="M 65.683035 226.124879 
C 66.505641 226.124879 67.294665 225.798054 67.876335 225.216384 
C 68.458005 224.634714 68.78483 223.84569 68.78483 223.023084 
C 68.78483 222.200479 68.458005 221.411455 67.876335 220.829785 
C 67.294665 220.248115 66.505641 219.92129 65.683035 219.92129 
C 64.86043 219.92129 64.071406 220.248115 63.489736 220.829785 
C 62.908066 221.411455 62.581241 222.200479 62.581241 223.023084 
C 62.581241 223.84569 62.908066 224.634714 63.489736 225.216384 
C 64.071406 225.798054 64.86043 226.124879 65.683035 226.124879 
z
" clip-path="url(#pc4826dde9f)" style="fill: #ff5349; fill-opacity: 0.4; stroke: #ff5349; stroke-opacity: 0.4; stroke-width: 0.886227"/>
    <path d="M 65.683035 226.124879 
C 66.505641 226.124879 67.294665 225.798054 67.876335 225.216384 
C 68.458005 224.634714 68.78483 223.84569 68.78483 223.023084 
C 68.78483 222.200479 68.458005 221.411455 67.876335 220.829785 
C 67.294665 220.248115 66.505641 219.92129 65.683035 219.92129 
C 64.86043 219.92129 64.071406 220.248115 63.489736 220.829785 
C 62.908066 221.411455 62.581241 222.200479 62.581241 223.023084 
C 62.581241 223.84569 62.908066 224.634714 63.489736 225.216384 
C 64.071406 225.798054 64.86043 226.124879 65.683035 226.124879 
z
" clip-path="url(#pc4826dde9f)" style="fill: #ff5349; fill-opacity: 0.4; stroke: #ff5349; stroke-opacity: 0.4; stroke-width: 0.886227"/>
    <path d="M 67.320219 167.679637 
C 68.142825 167.679637 68.931849 167.352813 69.513519 166.771143 
C 70.095189 166.189473 70.422013 165.400449 70.422013 164.577843 
C 70.422013 163.755238 70.095189 162.966213 69.513519 162.384543 
C 68.931849 161.802874 68.142825 161.476049 67.320219 161.476049 
C 66.497614 161.476049 65.708589 161.802874 65.126919 162.384543 
C 64.54525 162.966213 64.218425 163.755238 64.218425 164.577843 
C 64.218425 165.400449 64.54525 166.189473 65.126919 166.771143 
C 65.708589 167.352813 66.497614 167.679637 67.320219 167.679637 
z
" clip-path="url(#pc4826dde9f)" style="fill: #0072b2; fill-opacity: 0.4; stroke: #0072b2; stroke-opacity: 0.4; stroke-width: 0.886227"/>
    <path d="M 67.61833 226.064467 
C 68.440936 226.064467 69.22996 225.737642 69.81163 225.155972 
C 70.3933 224.574302 70.720125 223.785278 70.720125 222.962673 
C 70.720125 222.140067 70.3933 221.351043 69.81163 220.769373 
C 69.22996 220.187703 68.440936 219.860878 67.61833 219.860878 
C 66.795725 219.860878 66.0067 220.187703 65.425031 220.769373 
C 64.843361 221.351043 64.516536 222.140067 64.516536 222.962673 
C 64.516536 223.785278 64.843361 224.574302 65.425031 225.155972 
C 66.0067 225.737642 66.795725 226.064467 67.61833 226.064467 
z
" clip-path="url(#pc4826dde9f)" style="fill: #ff5349; fill-opacity: 0.4; stroke: #ff5349; stroke-opacity: 0.4; stroke-width: 0.886227"/>
    <path d="M 66.495339 225.730732 
C 67.317945 225.730732 68.106969 225.403907 68.688639 224.822237 
C 69.270309 224.240568 69.597133 223.451543 69.597133 222.628938 
C 69.597133 221.806332 69.270309 221.017308 68.688639 220.435638 
C 68.106969 219.853968 67.317945 219.527143 66.495339 219.527143 
C 65.672734 219.527143 64.883709 219.853968 64.302039 220.435638 
C 63.72037 221.017308 63.393545 221.806332 63.393545 222.628938 
C 63.393545 223.451543 63.72037 224.240568 64.302039 224.822237 
C 64.883709 225.403907 65.672734 225.730732 66.495339 225.730732 
z
" clip-path="url(#pc4826dde9f)" style="fill: #999999; fill-opacity: 0.4; stroke: #999999; stroke-opacity: 0.4; stroke-width: 0.886227"/>
    <path d="M 66.090749 225.913475 
C 66.913355 225.913475 67.702379 225.586651 68.284049 225.004981 
C 68.865719 224.423311 69.192543 223.634286 69.192543 222.811681 
C 69.192543 221.989075 68.865719 221.200051 68.284049 220.618381 
C 67.702379 220.036711 66.913355 219.709887 66.090749 219.709887 
C 65.268144 219.709887 64.479119 220.036711 63.897449 220.618381 
C 63.31578 221.200051 62.988955 221.989075 62.988955 222.811681 
C 62.988955 223.634286 63.31578 224.423311 63.897449 225.004981 
C 64.479119 225.586651 65.268144 225.913475 66.090749 225.913475 
z
" clip-path="url(#pc4826dde9f)" style="fill: #0072b2; fill-opacity: 0.4; stroke: #0072b2; stroke-opacity: 0.4; stroke-width: 0.886227"/>
    <path d="M 65.905422 226.124879 
C 66.728027 226.124879 67.517051 225.798054 68.098721 225.216384 
C 68.680391 224.634714 69.007216 223.84569 69.007216 223.023084 
C 69.007216 222.200479 68.680391 221.411455 68.098721 220.829785 
C 67.517051 220.248115 66.728027 219.92129 65.905422 219.92129 
C 65.082816 219.92129 64.293792 220.248115 63.712122 220.829785 
C 63.130452 221.411455 62.803627 222.200479 62.803627 223.023084 
C 62.803627 223.84569 63.130452 224.634714 63.712122 225.216384 
C 64.293792 225.798054 65.082816 226.124879 65.905422 226.124879 
z
" clip-path="url(#pc4826dde9f)" style="fill: #ff5349; fill-opacity: 0.4; stroke: #ff5349; stroke-opacity: 0.4; stroke-width: 0.886227"/>
    <path d="M 65.683035 226.124879 
C 66.505641 226.124879 67.294665 225.798054 67.876335 225.216384 
C 68.458005 224.634714 68.78483 223.84569 68.78483 223.023084 
C 68.78483 222.200479 68.458005 221.411455 67.876335 220.829785 
C 67.294665 220.248115 66.505641 219.92129 65.683035 219.92129 
C 64.86043 219.92129 64.071406 220.248115 63.489736 220.829785 
C 62.908066 221.411455 62.581241 222.200479 62.581241 223.023084 
C 62.581241 223.84569 62.908066 224.634714 63.489736 225.216384 
C 64.071406 225.798054 64.86043 226.124879 65.683035 226.124879 
z
" clip-path="url(#pc4826dde9f)" style="fill: #ff5349; fill-opacity: 0.4; stroke: #ff5349; stroke-opacity: 0.4; stroke-width: 0.886227"/>
    <path d="M 65.734608 226.064467 
C 66.557213 226.064467 67.346238 225.737642 67.927908 225.155972 
C 68.509578 224.574302 68.836402 223.785278 68.836402 222.962673 
C 68.836402 222.140067 68.509578 221.351043 67.927908 220.769373 
C 67.346238 220.187703 66.557213 219.860878 65.734608 219.860878 
C 64.912002 219.860878 64.122978 220.187703 63.541308 220.769373 
C 62.959638 221.351043 62.632814 222.140067 62.632814 222.962673 
C 62.632814 223.785278 62.959638 224.574302 63.541308 225.155972 
C 64.122978 225.737642 64.912002 226.064467 65.734608 226.064467 
z
" clip-path="url(#pc4826dde9f)" style="fill: #0072b2; fill-opacity: 0.4; stroke: #0072b2; stroke-opacity: 0.4; stroke-width: 0.886227"/>
    <path d="M 65.683035 226.124879 
C 66.505641 226.124879 67.294665 225.798054 67.876335 225.216384 
C 68.458005 224.634714 68.78483 223.84569 68.78483 223.023084 
C 68.78483 222.200479 68.458005 221.411455 67.876335 220.829785 
C 67.294665 220.248115 66.505641 219.92129 65.683035 219.92129 
C 64.86043 219.92129 64.071406 220.248115 63.489736 220.829785 
C 62.908066 221.411455 62.581241 222.200479 62.581241 223.023084 
C 62.581241 223.84569 62.908066 224.634714 63.489736 225.216384 
C 64.071406 225.798054 64.86043 226.124879 65.683035 226.124879 
z
" clip-path="url(#pc4826dde9f)" style="fill: #ff5349; fill-opacity: 0.4; stroke: #ff5349; stroke-opacity: 0.4; stroke-width: 0.886227"/>
    <path d="M 67.208533 225.979032 
C 68.031138 225.979032 68.820163 225.652207 69.401833 225.070537 
C 69.983503 224.488867 70.310327 223.699843 70.310327 222.877238 
C 70.310327 222.054632 69.983503 221.265608 69.401833 220.683938 
C 68.820163 220.102268 68.031138 219.775443 67.208533 219.775443 
C 66.385927 219.775443 65.596903 220.102268 65.015233 220.683938 
C 64.433563 221.265608 64.106739 222.054632 64.106739 222.877238 
C 64.106739 223.699843 64.433563 224.488867 65.015233 225.070537 
C 65.596903 225.652207 66.385927 225.979032 67.208533 225.979032 
z
" clip-path="url(#pc4826dde9f)" style="fill: #999999; fill-opacity: 0.4; stroke: #999999; stroke-opacity: 0.4; stroke-width: 0.886227"/>
    <path d="M 66.811092 223.579227 
C 67.633698 223.579227 68.422722 223.252403 69.004392 222.670733 
C 69.586062 222.089063 69.912887 221.300038 69.912887 220.477433 
C 69.912887 219.654828 69.586062 218.865803 69.004392 218.284133 
C 68.422722 217.702463 67.633698 217.375639 66.811092 217.375639 
C 65.988487 217.375639 65.199462 217.702463 64.617793 218.284133 
C 64.036123 218.865803 63.709298 219.654828 63.709298 220.477433 
C 63.709298 221.300038 64.036123 222.089063 64.617793 222.670733 
C 65.199462 223.252403 65.988487 223.579227 66.811092 223.579227 
z
" clip-path="url(#pc4826dde9f)" style="fill: #0072b2; fill-opacity: 0.4; stroke: #0072b2; stroke-opacity: 0.4; stroke-width: 0.886227"/>
    <path d="M 65.683035 226.124879 
C 66.505641 226.124879 67.294665 225.798054 67.876335 225.216384 
C 68.458005 224.634714 68.78483 223.84569 68.78483 223.023084 
C 68.78483 222.200479 68.458005 221.411455 67.876335 220.829785 
C 67.294665 220.248115 66.505641 219.92129 65.683035 219.92129 
C 64.86043 219.92129 64.071406 220.248115 63.489736 220.829785 
C 62.908066 221.411455 62.581241 222.200479 62.581241 223.023084 
C 62.581241 223.84569 62.908066 224.634714 63.489736 225.216384 
C 64.071406 225.798054 64.86043 226.124879 65.683035 226.124879 
z
" clip-path="url(#pc4826dde9f)" style="fill: #999999; fill-opacity: 0.4; stroke: #999999; stroke-opacity: 0.4; stroke-width: 0.886227"/>
    <path d="M 65.734608 226.064467 
C 66.557213 226.064467 67.346238 225.737642 67.927908 225.155972 
C 68.509578 224.574302 68.836402 223.785278 68.836402 222.962673 
C 68.836402 222.140067 68.509578 221.351043 67.927908 220.769373 
C 67.346238 220.187703 66.557213 219.860878 65.734608 219.860878 
C 64.912002 219.860878 64.122978 220.187703 63.541308 220.769373 
C 62.959638 221.351043 62.632814 222.140067 62.632814 222.962673 
C 62.632814 223.785278 62.959638 224.574302 63.541308 225.155972 
C 64.122978 225.737642 64.912002 226.064467 65.734608 226.064467 
z
" clip-path="url(#pc4826dde9f)" style="fill: #999999; fill-opacity: 0.4; stroke: #999999; stroke-opacity: 0.4; stroke-width: 0.886227"/>
    <path d="M 69.632164 188.881506 
C 70.454769 188.881506 71.243794 188.554682 71.825464 187.973012 
C 72.407134 187.391342 72.733958 186.602317 72.733958 185.779712 
C 72.733958 184.957107 72.407134 184.168082 71.825464 183.586412 
C 71.243794 183.004742 70.454769 182.677918 69.632164 182.677918 
C 68.809559 182.677918 68.020534 183.004742 67.438864 183.586412 
C 66.857194 184.168082 66.53037 184.957107 66.53037 185.779712 
C 66.53037 186.602317 66.857194 187.391342 67.438864 187.973012 
C 68.020534 188.554682 68.809559 188.881506 69.632164 188.881506 
z
" clip-path="url(#pc4826dde9f)" style="fill: #0072b2; fill-opacity: 0.4; stroke: #0072b2; stroke-opacity: 0.4; stroke-width: 0.886227"/>
    <path d="M 109.287779 126.918745 
C 110.110384 126.918745 110.899409 126.59192 111.481079 126.01025 
C 112.062749 125.42858 112.389573 124.639556 112.389573 123.81695 
C 112.389573 122.994345 112.062749 122.205321 111.481079 121.623651 
C 110.899409 121.041981 110.110384 120.715156 109.287779 120.715156 
C 108.465173 120.715156 107.676149 121.041981 107.094479 121.623651 
C 106.512809 122.205321 106.185985 122.994345 106.185985 123.81695 
C 106.185985 124.639556 106.512809 125.42858 107.094479 126.01025 
C 107.676149 126.59192 108.465173 126.918745 109.287779 126.918745 
z
" clip-path="url(#pc4826dde9f)" style="fill: #0072b2; fill-opacity: 0.4; stroke: #0072b2; stroke-opacity: 0.4; stroke-width: 0.886227"/>
    <path d="M 77.540699 225.839285 
C 78.363304 225.839285 79.152329 225.512461 79.733998 224.930791 
C 80.315668 224.349121 80.642493 223.560096 80.642493 222.737491 
C 80.642493 221.914886 80.315668 221.125861 79.733998 220.544191 
C 79.152329 219.962521 78.363304 219.635697 77.540699 219.635697 
C 76.718093 219.635697 75.929069 219.962521 75.347399 220.544191 
C 74.765729 221.125861 74.438905 221.914886 74.438905 222.737491 
C 74.438905 223.560096 74.765729 224.349121 75.347399 224.930791 
C 75.929069 225.512461 76.718093 225.839285 77.540699 225.839285 
z
" clip-path="url(#pc4826dde9f)" style="fill: #999999; fill-opacity: 0.4; stroke: #999999; stroke-opacity: 0.4; stroke-width: 0.886227"/>
    <path d="M 75.057881 221.176453 
C 75.880487 221.176453 76.669511 220.849629 77.251181 220.267959 
C 77.832851 219.686289 78.159676 218.897265 78.159676 218.074659 
C 78.159676 217.252054 77.832851 216.463029 77.251181 215.88136 
C 76.669511 215.29969 75.880487 214.972865 75.057881 214.972865 
C 74.235276 214.972865 73.446251 215.29969 72.864582 215.88136 
C 72.282912 216.463029 71.956087 217.252054 71.956087 218.074659 
C 71.956087 218.897265 72.282912 219.686289 72.864582 220.267959 
C 73.446251 220.849629 74.235276 221.176453 75.057881 221.176453 
z
" clip-path="url(#pc4826dde9f)" style="fill: #0072b2; fill-opacity: 0.4; stroke: #0072b2; stroke-opacity: 0.4; stroke-width: 0.886227"/>
    <path d="M 65.683035 226.124879 
C 66.505641 226.124879 67.294665 225.798054 67.876335 225.216384 
C 68.458005 224.634714 68.78483 223.84569 68.78483 223.023084 
C 68.78483 222.200479 68.458005 221.411455 67.876335 220.829785 
C 67.294665 220.248115 66.505641 219.92129 65.683035 219.92129 
C 64.86043 219.92129 64.071406 220.248115 63.489736 220.829785 
C 62.908066 221.411455 62.581241 222.200479 62.581241 223.023084 
C 62.581241 223.84569 62.908066 224.634714 63.489736 225.216384 
C 64.071406 225.798054 64.86043 226.124879 65.683035 226.124879 
z
" clip-path="url(#pc4826dde9f)" style="fill: #ff5349; fill-opacity: 0.4; stroke: #ff5349; stroke-opacity: 0.4; stroke-width: 0.886227"/>
    <path d="M 65.683035 226.124879 
C 66.505641 226.124879 67.294665 225.798054 67.876335 225.216384 
C 68.458005 224.634714 68.78483 223.84569 68.78483 223.023084 
C 68.78483 222.200479 68.458005 221.411455 67.876335 220.829785 
C 67.294665 220.248115 66.505641 219.92129 65.683035 219.92129 
C 64.86043 219.92129 64.071406 220.248115 63.489736 220.829785 
C 62.908066 221.411455 62.581241 222.200479 62.581241 223.023084 
C 62.581241 223.84569 62.908066 224.634714 63.489736 225.216384 
C 64.071406 225.798054 64.86043 226.124879 65.683035 226.124879 
z
" clip-path="url(#pc4826dde9f)" style="fill: #0072b2; fill-opacity: 0.4; stroke: #0072b2; stroke-opacity: 0.4; stroke-width: 0.886227"/>
    <path d="M 67.265969 226.064467 
C 68.088575 226.064467 68.877599 225.737642 69.459269 225.155972 
C 70.040939 224.574302 70.367764 223.785278 70.367764 222.962673 
C 70.367764 222.140067 70.040939 221.351043 69.459269 220.769373 
C 68.877599 220.187703 68.088575 219.860878 67.265969 219.860878 
C 66.443364 219.860878 65.65434 220.187703 65.07267 220.769373 
C 64.491 221.351043 64.164175 222.140067 64.164175 222.962673 
C 64.164175 223.785278 64.491 224.574302 65.07267 225.155972 
C 65.65434 225.737642 66.443364 226.064467 67.265969 226.064467 
z
" clip-path="url(#pc4826dde9f)" style="fill: #ff5349; fill-opacity: 0.4; stroke: #ff5349; stroke-opacity: 0.4; stroke-width: 0.886227"/>
    <path d="M 65.683035 226.124879 
C 66.505641 226.124879 67.294665 225.798054 67.876335 225.216384 
C 68.458005 224.634714 68.78483 223.84569 68.78483 223.023084 
C 68.78483 222.200479 68.458005 221.411455 67.876335 220.829785 
C 67.294665 220.248115 66.505641 219.92129 65.683035 219.92129 
C 64.86043 219.92129 64.071406 220.248115 63.489736 220.829785 
C 62.908066 221.411455 62.581241 222.200479 62.581241 223.023084 
C 62.581241 223.84569 62.908066 224.634714 63.489736 225.216384 
C 64.071406 225.798054 64.86043 226.124879 65.683035 226.124879 
z
" clip-path="url(#pc4826dde9f)" style="fill: #ff5349; fill-opacity: 0.4; stroke: #ff5349; stroke-opacity: 0.4; stroke-width: 0.886227"/>
    <path d="M 65.683035 226.124879 
C 66.505641 226.124879 67.294665 225.798054 67.876335 225.216384 
C 68.458005 224.634714 68.78483 223.84569 68.78483 223.023084 
C 68.78483 222.200479 68.458005 221.411455 67.876335 220.829785 
C 67.294665 220.248115 66.505641 219.92129 65.683035 219.92129 
C 64.86043 219.92129 64.071406 220.248115 63.489736 220.829785 
C 62.908066 221.411455 62.581241 222.200479 62.581241 223.023084 
C 62.581241 223.84569 62.908066 224.634714 63.489736 225.216384 
C 64.071406 225.798054 64.86043 226.124879 65.683035 226.124879 
z
" clip-path="url(#pc4826dde9f)" style="fill: #0072b2; fill-opacity: 0.4; stroke: #0072b2; stroke-opacity: 0.4; stroke-width: 0.886227"/>
    <path d="M 120.720431 99.122422 
C 121.543037 99.122422 122.332061 98.795598 122.913731 98.213928 
C 123.495401 97.632258 123.822225 96.843234 123.822225 96.020628 
C 123.822225 95.198023 123.495401 94.408998 122.913731 93.827329 
C 122.332061 93.245659 121.543037 92.918834 120.720431 92.918834 
C 119.897826 92.918834 119.108801 93.245659 118.527131 93.827329 
C 117.945462 94.408998 117.618637 95.198023 117.618637 96.020628 
C 117.618637 96.843234 117.945462 97.632258 118.527131 98.213928 
C 119.108801 98.795598 119.897826 99.122422 120.720431 99.122422 
z
" clip-path="url(#pc4826dde9f)" style="fill: #0072b2; fill-opacity: 0.4; stroke: #0072b2; stroke-opacity: 0.4; stroke-width: 0.886227"/>
    <path d="M 65.683035 226.124879 
C 66.505641 226.124879 67.294665 225.798054 67.876335 225.216384 
C 68.458005 224.634714 68.78483 223.84569 68.78483 223.023084 
C 68.78483 222.200479 68.458005 221.411455 67.876335 220.829785 
C 67.294665 220.248115 66.505641 219.92129 65.683035 219.92129 
C 64.86043 219.92129 64.071406 220.248115 63.489736 220.829785 
C 62.908066 221.411455 62.581241 222.200479 62.581241 223.023084 
C 62.581241 223.84569 62.908066 224.634714 63.489736 225.216384 
C 64.071406 225.798054 64.86043 226.124879 65.683035 226.124879 
z
" clip-path="url(#pc4826dde9f)" style="fill: #ff5349; fill-opacity: 0.4; stroke: #ff5349; stroke-opacity: 0.4; stroke-width: 0.886227"/>
    <path d="M 80.762924 159.412773 
C 81.585529 159.412773 82.374553 159.085948 82.956223 158.504278 
C 83.537893 157.922608 83.864718 157.133584 83.864718 156.310978 
C 83.864718 155.488373 83.537893 154.699348 82.956223 154.117679 
C 82.374553 153.536009 81.585529 153.209184 80.762924 153.209184 
C 79.940318 153.209184 79.151294 153.536009 78.569624 154.117679 
C 77.987954 154.699348 77.661129 155.488373 77.661129 156.310978 
C 77.661129 157.133584 77.987954 157.922608 78.569624 158.504278 
C 79.151294 159.085948 79.940318 159.412773 80.762924 159.412773 
z
" clip-path="url(#pc4826dde9f)" style="fill: #0072b2; fill-opacity: 0.4; stroke: #0072b2; stroke-opacity: 0.4; stroke-width: 0.886227"/>
    <path d="M 69.81856 226.099522 
C 70.641165 226.099522 71.43019 225.772697 72.011859 225.191027 
C 72.593529 224.609357 72.920354 223.820333 72.920354 222.997727 
C 72.920354 222.175122 72.593529 221.386097 72.011859 220.804428 
C 71.43019 220.222758 70.641165 219.895933 69.81856 219.895933 
C 68.995954 219.895933 68.20693 220.222758 67.62526 220.804428 
C 67.04359 221.386097 66.716765 222.175122 66.716765 222.997727 
C 66.716765 223.820333 67.04359 224.609357 67.62526 225.191027 
C 68.20693 225.772697 68.995954 226.099522 69.81856 226.099522 
z
" clip-path="url(#pc4826dde9f)" style="fill: #0072b2; fill-opacity: 0.4; stroke: #0072b2; stroke-opacity: 0.4; stroke-width: 0.886227"/>
    <path d="M 65.683035 226.124879 
C 66.505641 226.124879 67.294665 225.798054 67.876335 225.216384 
C 68.458005 224.634714 68.78483 223.84569 68.78483 223.023084 
C 68.78483 222.200479 68.458005 221.411455 67.876335 220.829785 
C 67.294665 220.248115 66.505641 219.92129 65.683035 219.92129 
C 64.86043 219.92129 64.071406 220.248115 63.489736 220.829785 
C 62.908066 221.411455 62.581241 222.200479 62.581241 223.023084 
C 62.581241 223.84569 62.908066 224.634714 63.489736 225.216384 
C 64.071406 225.798054 64.86043 226.124879 65.683035 226.124879 
z
" clip-path="url(#pc4826dde9f)" style="fill: #ff5349; fill-opacity: 0.4; stroke: #ff5349; stroke-opacity: 0.4; stroke-width: 0.886227"/>
    <path d="M 79.765374 225.559318 
C 80.58798 225.559318 81.377004 225.232493 81.958674 224.650824 
C 82.540344 224.069154 82.867168 223.280129 82.867168 222.457524 
C 82.867168 221.634918 82.540344 220.845894 81.958674 220.264224 
C 81.377004 219.682554 80.58798 219.35573 79.765374 219.35573 
C 78.942769 219.35573 78.153744 219.682554 77.572074 220.264224 
C 76.990404 220.845894 76.66358 221.634918 76.66358 222.457524 
C 76.66358 223.280129 76.990404 224.069154 77.572074 224.650824 
C 78.153744 225.232493 78.942769 225.559318 79.765374 225.559318 
z
" clip-path="url(#pc4826dde9f)" style="fill: #0072b2; fill-opacity: 0.4; stroke: #0072b2; stroke-opacity: 0.4; stroke-width: 0.886227"/>
    <path d="M 65.683035 226.124879 
C 66.505641 226.124879 67.294665 225.798054 67.876335 225.216384 
C 68.458005 224.634714 68.78483 223.84569 68.78483 223.023084 
C 68.78483 222.200479 68.458005 221.411455 67.876335 220.829785 
C 67.294665 220.248115 66.505641 219.92129 65.683035 219.92129 
C 64.86043 219.92129 64.071406 220.248115 63.489736 220.829785 
C 62.908066 221.411455 62.581241 222.200479 62.581241 223.023084 
C 62.581241 223.84569 62.908066 224.634714 63.489736 225.216384 
C 64.071406 225.798054 64.86043 226.124879 65.683035 226.124879 
z
" clip-path="url(#pc4826dde9f)" style="fill: #ff5349; fill-opacity: 0.4; stroke: #ff5349; stroke-opacity: 0.4; stroke-width: 0.886227"/>
    <path d="M 79.446053 226.026123 
C 80.268659 226.026123 81.057683 225.699298 81.639353 225.117629 
C 82.221023 224.535959 82.547848 223.746934 82.547848 222.924329 
C 82.547848 222.101723 82.221023 221.312699 81.639353 220.731029 
C 81.057683 220.149359 80.268659 219.822535 79.446053 219.822535 
C 78.623448 219.822535 77.834424 220.149359 77.252754 220.731029 
C 76.671084 221.312699 76.344259 222.101723 76.344259 222.924329 
C 76.344259 223.746934 76.671084 224.535959 77.252754 225.117629 
C 77.834424 225.699298 78.623448 226.026123 79.446053 226.026123 
z
" clip-path="url(#pc4826dde9f)" style="fill: #999999; fill-opacity: 0.4; stroke: #999999; stroke-opacity: 0.4; stroke-width: 0.886227"/>
   </g>
   <g id="patch_3">
    <path d="M 57.949438 230.728931 
L 57.949438 64.408931 
" style="fill: none; stroke: #000000; stroke-linejoin: miter; stroke-linecap: square"/>
   </g>
   <g id="patch_4">
    <path d="M 57.949438 230.728931 
L 225.349437 230.728931 
" style="fill: none; stroke: #000000; stroke-linejoin: miter; stroke-linecap: square"/>
   </g>
   <g id="patch_5">
    <path d="M 232.549437 192.455806 
L 456.541313 192.455806 
L 456.541313 100.522056 
L 232.549437 100.522056 
z
" style="fill: #ffffff"/>
   </g>
   <g id="text_9">
    <!-- Viral mutations -->
    <g transform="translate(244.749437 125.151431)scale(0.12 -0.12)">
     <defs>
      <path id="DejaVuSans-56" d="M 1831 0 
L 50 4666 
L 709 4666 
L 2188 738 
L 3669 4666 
L 4325 4666 
L 2547 0 
L 1831 0 
z
" transform="scale(0.015625)"/>
      <path id="DejaVuSans-6d" d="M 3328 2828 
Q 3544 3216 3844 3400 
Q 4144 3584 4550 3584 
Q 5097 3584 5394 3201 
Q 5691 2819 5691 2113 
L 5691 0 
L 5113 0 
L 5113 2094 
Q 5113 2597 4934 2840 
Q 4756 3084 4391 3084 
Q 3944 3084 3684 2787 
Q 3425 2491 3425 1978 
L 3425 0 
L 2847 0 
L 2847 2094 
Q 2847 2600 2669 2842 
Q 2491 3084 2119 3084 
Q 1678 3084 1418 2786 
Q 1159 2488 1159 1978 
L 1159 0 
L 581 0 
L 581 3500 
L 1159 3500 
L 1159 2956 
Q 1356 3278 1631 3431 
Q 1906 3584 2284 3584 
Q 2666 3584 2933 3390 
Q 3200 3197 3328 2828 
z
" transform="scale(0.015625)"/>
     </defs>
     <use xlink:href="#DejaVuSans-56"/>
     <use xlink:href="#DejaVuSans-69" x="66.158203"/>
     <use xlink:href="#DejaVuSans-72" x="93.941406"/>
     <use xlink:href="#DejaVuSans-61" x="135.054688"/>
     <use xlink:href="#DejaVuSans-6c" x="196.333984"/>
     <use xlink:href="#DejaVuSans-20" x="224.117188"/>
     <use xlink:href="#DejaVuSans-6d" x="255.904297"/>
     <use xlink:href="#DejaVuSans-75" x="353.316406"/>
     <use xlink:href="#DejaVuSans-74" x="416.695312"/>
     <use xlink:href="#DejaVuSans-61" x="455.904297"/>
     <use xlink:href="#DejaVuSans-74" x="517.183594"/>
     <use xlink:href="#DejaVuSans-69" x="556.392578"/>
     <use xlink:href="#DejaVuSans-6f" x="584.175781"/>
     <use xlink:href="#DejaVuSans-6e" x="645.357422"/>
     <use xlink:href="#DejaVuSans-73" x="708.736328"/>
    </g>
   </g>
   <g id="patch_6">
    <path d="M 244.749437 144.575806 
L 260.589437 144.575806 
L 260.589437 128.735806 
L 244.749437 128.735806 
L 244.749437 144.575806 
z
" clip-path="url(#p225ab87f28)" style="fill: none"/>
   </g>
   <g id="line2d_7">
    <path d="M 252.669437 136.655806 
" clip-path="url(#p225ab87f28)" style="fill: none; stroke: #1f77b4; stroke-opacity: 0.4; stroke-width: 1.5; stroke-linecap: square"/>
    <defs>
     <path id="m00ff21943f" d="M 0 3.101794 
C 0.822605 3.101794 1.61163 2.77497 2.1933 2.1933 
C 2.77497 1.61163 3.101794 0.822605 3.101794 0 
C 3.101794 -0.822605 2.77497 -1.61163 2.1933 -2.1933 
C 1.61163 -2.77497 0.822605 -3.101794 0 -3.101794 
C -0.822605 -3.101794 -1.61163 -2.77497 -2.1933 -2.1933 
C -2.77497 -1.61163 -3.101794 -0.822605 -3.101794 0 
C -3.101794 0.822605 -2.77497 1.61163 -2.1933 2.1933 
C -1.61163 2.77497 -0.822605 3.101794 0 3.101794 
z
" style="stroke: #0072b2; stroke-opacity: 0.4; stroke-width: 0.886227"/>
    </defs>
    <g clip-path="url(#p225ab87f28)">
     <use xlink:href="#m00ff21943f" x="252.669437" y="136.655806" style="fill: #0072b2; fill-opacity: 0.4; stroke: #0072b2; stroke-opacity: 0.4; stroke-width: 0.886227"/>
    </g>
   </g>
   <g id="text_10">
    <!-- Complete unmutated genome -->
    <g transform="translate(263.589437 139.967056)scale(0.12 -0.12)">
     <defs>
      <path id="DejaVuSans-43" d="M 4122 4306 
L 4122 3641 
Q 3803 3938 3442 4084 
Q 3081 4231 2675 4231 
Q 1875 4231 1450 3742 
Q 1025 3253 1025 2328 
Q 1025 1406 1450 917 
Q 1875 428 2675 428 
Q 3081 428 3442 575 
Q 3803 722 4122 1019 
L 4122 359 
Q 3791 134 3420 21 
Q 3050 -91 2638 -91 
Q 1578 -91 968 557 
Q 359 1206 359 2328 
Q 359 3453 968 4101 
Q 1578 4750 2638 4750 
Q 3056 4750 3426 4639 
Q 3797 4528 4122 4306 
z
" transform="scale(0.015625)"/>
      <path id="DejaVuSans-64" d="M 2906 2969 
L 2906 4863 
L 3481 4863 
L 3481 0 
L 2906 0 
L 2906 525 
Q 2725 213 2448 61 
Q 2172 -91 1784 -91 
Q 1150 -91 751 415 
Q 353 922 353 1747 
Q 353 2572 751 3078 
Q 1150 3584 1784 3584 
Q 2172 3584 2448 3432 
Q 2725 3281 2906 2969 
z
M 947 1747 
Q 947 1113 1208 752 
Q 1469 391 1925 391 
Q 2381 391 2643 752 
Q 2906 1113 2906 1747 
Q 2906 2381 2643 2742 
Q 2381 3103 1925 3103 
Q 1469 3103 1208 2742 
Q 947 2381 947 1747 
z
" transform="scale(0.015625)"/>
     </defs>
     <use xlink:href="#DejaVuSans-43"/>
     <use xlink:href="#DejaVuSans-6f" x="69.824219"/>
     <use xlink:href="#DejaVuSans-6d" x="131.005859"/>
     <use xlink:href="#DejaVuSans-70" x="228.417969"/>
     <use xlink:href="#DejaVuSans-6c" x="291.894531"/>
     <use xlink:href="#DejaVuSans-65" x="319.677734"/>
     <use xlink:href="#DejaVuSans-74" x="381.201172"/>
     <use xlink:href="#DejaVuSans-65" x="420.410156"/>
     <use xlink:href="#DejaVuSans-20" x="481.933594"/>
     <use xlink:href="#DejaVuSans-75" x="513.720703"/>
     <use xlink:href="#DejaVuSans-6e" x="577.099609"/>
     <use xlink:href="#DejaVuSans-6d" x="640.478516"/>
     <use xlink:href="#DejaVuSans-75" x="737.890625"/>
     <use xlink:href="#DejaVuSans-74" x="801.269531"/>
     <use xlink:href="#DejaVuSans-61" x="840.478516"/>
     <use xlink:href="#DejaVuSans-74" x="901.757812"/>
     <use xlink:href="#DejaVuSans-65" x="940.966797"/>
     <use xlink:href="#DejaVuSans-64" x="1002.490234"/>
     <use xlink:href="#DejaVuSans-20" x="1065.966797"/>
     <use xlink:href="#DejaVuSans-67" x="1097.753906"/>
     <use xlink:href="#DejaVuSans-65" x="1161.230469"/>
     <use xlink:href="#DejaVuSans-6e" x="1222.753906"/>
     <use xlink:href="#DejaVuSans-6f" x="1286.132812"/>
     <use xlink:href="#DejaVuSans-6d" x="1347.314453"/>
     <use xlink:href="#DejaVuSans-65" x="1444.726562"/>
    </g>
   </g>
   <g id="patch_7">
    <path d="M 244.749437 162.415806 
L 260.589437 162.415806 
L 260.589437 146.575806 
L 244.749437 146.575806 
L 244.749437 162.415806 
z
" clip-path="url(#p1f2bc16992)" style="fill: none"/>
   </g>
   <g id="line2d_8">
    <path d="M 252.669437 154.495806 
" clip-path="url(#p1f2bc16992)" style="fill: none; stroke: #1f77b4; stroke-opacity: 0.4; stroke-width: 1.5; stroke-linecap: square"/>
    <defs>
     <path id="m57031a8b47" d="M 0 3.101794 
C 0.822605 3.101794 1.61163 2.77497 2.1933 2.1933 
C 2.77497 1.61163 3.101794 0.822605 3.101794 0 
C 3.101794 -0.822605 2.77497 -1.61163 2.1933 -2.1933 
C 1.61163 -2.77497 0.822605 -3.101794 0 -3.101794 
C -0.822605 -3.101794 -1.61163 -2.77497 -2.1933 -2.1933 
C -2.77497 -1.61163 -3.101794 -0.822605 -3.101794 0 
C -3.101794 0.822605 -2.77497 1.61163 -2.1933 2.1933 
C -1.61163 2.77497 -0.822605 3.101794 0 3.101794 
z
" style="stroke: #999999; stroke-opacity: 0.4; stroke-width: 0.886227"/>
    </defs>
    <g clip-path="url(#p1f2bc16992)">
     <use xlink:href="#m57031a8b47" x="252.669437" y="154.495806" style="fill: #999999; fill-opacity: 0.4; stroke: #999999; stroke-opacity: 0.4; stroke-width: 0.886227"/>
    </g>
   </g>
   <g id="text_11">
    <!-- Complete mutated genome -->
    <g transform="translate(263.589437 157.807056)scale(0.12 -0.12)">
     <use xlink:href="#DejaVuSans-43"/>
     <use xlink:href="#DejaVuSans-6f" x="69.824219"/>
     <use xlink:href="#DejaVuSans-6d" x="131.005859"/>
     <use xlink:href="#DejaVuSans-70" x="228.417969"/>
     <use xlink:href="#DejaVuSans-6c" x="291.894531"/>
     <use xlink:href="#DejaVuSans-65" x="319.677734"/>
     <use xlink:href="#DejaVuSans-74" x="381.201172"/>
     <use xlink:href="#DejaVuSans-65" x="420.410156"/>
     <use xlink:href="#DejaVuSans-20" x="481.933594"/>
     <use xlink:href="#DejaVuSans-6d" x="513.720703"/>
     <use xlink:href="#DejaVuSans-75" x="611.132812"/>
     <use xlink:href="#DejaVuSans-74" x="674.511719"/>
     <use xlink:href="#DejaVuSans-61" x="713.720703"/>
     <use xlink:href="#DejaVuSans-74" x="775"/>
     <use xlink:href="#DejaVuSans-65" x="814.208984"/>
     <use xlink:href="#DejaVuSans-64" x="875.732422"/>
     <use xlink:href="#DejaVuSans-20" x="939.208984"/>
     <use xlink:href="#DejaVuSans-67" x="970.996094"/>
     <use xlink:href="#DejaVuSans-65" x="1034.472656"/>
     <use xlink:href="#DejaVuSans-6e" x="1095.996094"/>
     <use xlink:href="#DejaVuSans-6f" x="1159.375"/>
     <use xlink:href="#DejaVuSans-6d" x="1220.556641"/>
     <use xlink:href="#DejaVuSans-65" x="1317.96875"/>
    </g>
   </g>
   <g id="patch_8">
    <path d="M 244.749437 180.255806 
L 260.589437 180.255806 
L 260.589437 164.415806 
L 244.749437 164.415806 
L 244.749437 180.255806 
z
" clip-path="url(#p5a5e988d65)" style="fill: none"/>
   </g>
   <g id="line2d_9">
    <path d="M 252.669437 172.335806 
" clip-path="url(#p5a5e988d65)" style="fill: none; stroke: #1f77b4; stroke-opacity: 0.4; stroke-width: 1.5; stroke-linecap: square"/>
    <defs>
     <path id="m14050d4ea3" d="M 0 3.101794 
C 0.822605 3.101794 1.61163 2.77497 2.1933 2.1933 
C 2.77497 1.61163 3.101794 0.822605 3.101794 0 
C 3.101794 -0.822605 2.77497 -1.61163 2.1933 -2.1933 
C 1.61163 -2.77497 0.822605 -3.101794 0 -3.101794 
C -0.822605 -3.101794 -1.61163 -2.77497 -2.1933 -2.1933 
C -2.77497 -1.61163 -3.101794 -0.822605 -3.101794 0 
C -3.101794 0.822605 -2.77497 1.61163 -2.1933 2.1933 
C -1.61163 2.77497 -0.822605 3.101794 0 3.101794 
z
" style="stroke: #ff5349; stroke-opacity: 0.4; stroke-width: 0.886227"/>
    </defs>
    <g clip-path="url(#p5a5e988d65)">
     <use xlink:href="#m14050d4ea3" x="252.669437" y="172.335806" style="fill: #ff5349; fill-opacity: 0.4; stroke: #ff5349; stroke-opacity: 0.4; stroke-width: 0.886227"/>
    </g>
   </g>
   <g id="text_12">
    <!-- Missing viral gene(s) -->
    <g transform="translate(263.589437 175.647056)scale(0.12 -0.12)">
     <defs>
      <path id="DejaVuSans-4d" d="M 628 4666 
L 1569 4666 
L 2759 1491 
L 3956 4666 
L 4897 4666 
L 4897 0 
L 4281 0 
L 4281 4097 
L 3078 897 
L 2444 897 
L 1241 4097 
L 1241 0 
L 628 0 
L 628 4666 
z
" transform="scale(0.015625)"/>
      <path id="DejaVuSans-76" d="M 191 3500 
L 800 3500 
L 1894 563 
L 2988 3500 
L 3597 3500 
L 2284 0 
L 1503 0 
L 191 3500 
z
" transform="scale(0.015625)"/>
      <path id="DejaVuSans-28" d="M 1984 4856 
Q 1566 4138 1362 3434 
Q 1159 2731 1159 2009 
Q 1159 1288 1364 580 
Q 1569 -128 1984 -844 
L 1484 -844 
Q 1016 -109 783 600 
Q 550 1309 550 2009 
Q 550 2706 781 3412 
Q 1013 4119 1484 4856 
L 1984 4856 
z
" transform="scale(0.015625)"/>
      <path id="DejaVuSans-29" d="M 513 4856 
L 1013 4856 
Q 1481 4119 1714 3412 
Q 1947 2706 1947 2009 
Q 1947 1309 1714 600 
Q 1481 -109 1013 -844 
L 513 -844 
Q 928 -128 1133 580 
Q 1338 1288 1338 2009 
Q 1338 2731 1133 3434 
Q 928 4138 513 4856 
z
" transform="scale(0.015625)"/>
     </defs>
     <use xlink:href="#DejaVuSans-4d"/>
     <use xlink:href="#DejaVuSans-69" x="86.279297"/>
     <use xlink:href="#DejaVuSans-73" x="114.0625"/>
     <use xlink:href="#DejaVuSans-73" x="166.162109"/>
     <use xlink:href="#DejaVuSans-69" x="218.261719"/>
     <use xlink:href="#DejaVuSans-6e" x="246.044922"/>
     <use xlink:href="#DejaVuSans-67" x="309.423828"/>
     <use xlink:href="#DejaVuSans-20" x="372.900391"/>
     <use xlink:href="#DejaVuSans-76" x="404.6875"/>
     <use xlink:href="#DejaVuSans-69" x="463.867188"/>
     <use xlink:href="#DejaVuSans-72" x="491.650391"/>
     <use xlink:href="#DejaVuSans-61" x="532.763672"/>
     <use xlink:href="#DejaVuSans-6c" x="594.042969"/>
     <use xlink:href="#DejaVuSans-20" x="621.826172"/>
     <use xlink:href="#DejaVuSans-67" x="653.613281"/>
     <use xlink:href="#DejaVuSans-65" x="717.089844"/>
     <use xlink:href="#DejaVuSans-6e" x="778.613281"/>
     <use xlink:href="#DejaVuSans-65" x="841.992188"/>
     <use xlink:href="#DejaVuSans-28" x="903.515625"/>
     <use xlink:href="#DejaVuSans-73" x="942.529297"/>
     <use xlink:href="#DejaVuSans-29" x="994.628906"/>
    </g>
   </g>
  </g>
  <g id="text_13">
   <!-- Physical and infectious progeny -->
   <g transform="translate(27.797094 17.837813)scale(0.14 -0.14)">
    <defs>
     <path id="DejaVuSans-50" d="M 1259 4147 
L 1259 2394 
L 2053 2394 
Q 2494 2394 2734 2622 
Q 2975 2850 2975 3272 
Q 2975 3691 2734 3919 
Q 2494 4147 2053 4147 
L 1259 4147 
z
M 628 4666 
L 2053 4666 
Q 2838 4666 3239 4311 
Q 3641 3956 3641 3272 
Q 3641 2581 3239 2228 
Q 2838 1875 2053 1875 
L 1259 1875 
L 1259 0 
L 628 0 
L 628 4666 
z
" transform="scale(0.015625)"/>
    </defs>
    <use xlink:href="#DejaVuSans-50"/>
    <use xlink:href="#DejaVuSans-68" x="60.302734"/>
    <use xlink:href="#DejaVuSans-79" x="123.681641"/>
    <use xlink:href="#DejaVuSans-73" x="182.861328"/>
    <use xlink:href="#DejaVuSans-69" x="234.960938"/>
    <use xlink:href="#DejaVuSans-63" x="262.744141"/>
    <use xlink:href="#DejaVuSans-61" x="317.724609"/>
    <use xlink:href="#DejaVuSans-6c" x="379.003906"/>
    <use xlink:href="#DejaVuSans-20" x="406.787109"/>
    <use xlink:href="#DejaVuSans-61" x="438.574219"/>
    <use xlink:href="#DejaVuSans-6e" x="499.853516"/>
    <use xlink:href="#DejaVuSans-64" x="563.232422"/>
    <use xlink:href="#DejaVuSans-20" x="626.708984"/>
    <use xlink:href="#DejaVuSans-69" x="658.496094"/>
    <use xlink:href="#DejaVuSans-6e" x="686.279297"/>
    <use xlink:href="#DejaVuSans-66" x="749.658203"/>
    <use xlink:href="#DejaVuSans-65" x="784.863281"/>
    <use xlink:href="#DejaVuSans-63" x="846.386719"/>
    <use xlink:href="#DejaVuSans-74" x="901.367188"/>
    <use xlink:href="#DejaVuSans-69" x="940.576172"/>
    <use xlink:href="#DejaVuSans-6f" x="968.359375"/>
    <use xlink:href="#DejaVuSans-75" x="1029.541016"/>
    <use xlink:href="#DejaVuSans-73" x="1092.919922"/>
    <use xlink:href="#DejaVuSans-20" x="1145.019531"/>
    <use xlink:href="#DejaVuSans-70" x="1176.806641"/>
    <use xlink:href="#DejaVuSans-72" x="1240.283203"/>
    <use xlink:href="#DejaVuSans-6f" x="1279.146484"/>
    <use xlink:href="#DejaVuSans-67" x="1340.328125"/>
    <use xlink:href="#DejaVuSans-65" x="1403.804688"/>
    <use xlink:href="#DejaVuSans-6e" x="1465.328125"/>
    <use xlink:href="#DejaVuSans-79" x="1528.707031"/>
   </g>
   <!-- produced by single infected cells -->
   <g transform="translate(23.624437 30.323406)scale(0.14 -0.14)">
    <defs>
     <path id="DejaVuSans-62" d="M 3116 1747 
Q 3116 2381 2855 2742 
Q 2594 3103 2138 3103 
Q 1681 3103 1420 2742 
Q 1159 2381 1159 1747 
Q 1159 1113 1420 752 
Q 1681 391 2138 391 
Q 2594 391 2855 752 
Q 3116 1113 3116 1747 
z
M 1159 2969 
Q 1341 3281 1617 3432 
Q 1894 3584 2278 3584 
Q 2916 3584 3314 3078 
Q 3713 2572 3713 1747 
Q 3713 922 3314 415 
Q 2916 -91 2278 -91 
Q 1894 -91 1617 61 
Q 1341 213 1159 525 
L 1159 0 
L 581 0 
L 581 4863 
L 1159 4863 
L 1159 2969 
z
" transform="scale(0.015625)"/>
    </defs>
    <use xlink:href="#DejaVuSans-70"/>
    <use xlink:href="#DejaVuSans-72" x="63.476562"/>
    <use xlink:href="#DejaVuSans-6f" x="102.339844"/>
    <use xlink:href="#DejaVuSans-64" x="163.521484"/>
    <use xlink:href="#DejaVuSans-75" x="226.998047"/>
    <use xlink:href="#DejaVuSans-63" x="290.376953"/>
    <use xlink:href="#DejaVuSans-65" x="345.357422"/>
    <use xlink:href="#DejaVuSans-64" x="406.880859"/>
    <use xlink:href="#DejaVuSans-20" x="470.357422"/>
    <use xlink:href="#DejaVuSans-62" x="502.144531"/>
    <use xlink:href="#DejaVuSans-79" x="565.621094"/>
    <use xlink:href="#DejaVuSans-20" x="624.800781"/>
    <use xlink:href="#DejaVuSans-73" x="656.587891"/>
    <use xlink:href="#DejaVuSans-69" x="708.6875"/>
    <use xlink:href="#DejaVuSans-6e" x="736.470703"/>
    <use xlink:href="#DejaVuSans-67" x="799.849609"/>
    <use xlink:href="#DejaVuSans-6c" x="863.326172"/>
    <use xlink:href="#DejaVuSans-65" x="891.109375"/>
    <use xlink:href="#DejaVuSans-20" x="952.632812"/>
    <use xlink:href="#DejaVuSans-69" x="984.419922"/>
    <use xlink:href="#DejaVuSans-6e" x="1012.203125"/>
    <use xlink:href="#DejaVuSans-66" x="1075.582031"/>
    <use xlink:href="#DejaVuSans-65" x="1110.787109"/>
    <use xlink:href="#DejaVuSans-63" x="1172.310547"/>
    <use xlink:href="#DejaVuSans-74" x="1227.291016"/>
    <use xlink:href="#DejaVuSans-65" x="1266.5"/>
    <use xlink:href="#DejaVuSans-64" x="1328.023438"/>
    <use xlink:href="#DejaVuSans-20" x="1391.5"/>
    <use xlink:href="#DejaVuSans-63" x="1423.287109"/>
    <use xlink:href="#DejaVuSans-65" x="1478.267578"/>
    <use xlink:href="#DejaVuSans-6c" x="1539.791016"/>
    <use xlink:href="#DejaVuSans-6c" x="1567.574219"/>
    <use xlink:href="#DejaVuSans-73" x="1595.357422"/>
   </g>
   <!--  -->
   <g transform="translate(138.949437 42.809)scale(0.14 -0.14)"/>
   <!-- Low MOI -->
   <g transform="translate(109.324125 55.294594)scale(0.14 -0.14)">
    <defs>
     <path id="DejaVuSans-4c" d="M 628 4666 
L 1259 4666 
L 1259 531 
L 3531 531 
L 3531 0 
L 628 0 
L 628 4666 
z
" transform="scale(0.015625)"/>
     <path id="DejaVuSans-77" d="M 269 3500 
L 844 3500 
L 1563 769 
L 2278 3500 
L 2956 3500 
L 3675 769 
L 4391 3500 
L 4966 3500 
L 4050 0 
L 3372 0 
L 2619 2869 
L 1863 0 
L 1184 0 
L 269 3500 
z
" transform="scale(0.015625)"/>
     <path id="DejaVuSans-4f" d="M 2522 4238 
Q 1834 4238 1429 3725 
Q 1025 3213 1025 2328 
Q 1025 1447 1429 934 
Q 1834 422 2522 422 
Q 3209 422 3611 934 
Q 4013 1447 4013 2328 
Q 4013 3213 3611 3725 
Q 3209 4238 2522 4238 
z
M 2522 4750 
Q 3503 4750 4090 4092 
Q 4678 3434 4678 2328 
Q 4678 1225 4090 567 
Q 3503 -91 2522 -91 
Q 1538 -91 948 565 
Q 359 1222 359 2328 
Q 359 3434 948 4092 
Q 1538 4750 2522 4750 
z
" transform="scale(0.015625)"/>
     <path id="DejaVuSans-49" d="M 628 4666 
L 1259 4666 
L 1259 0 
L 628 0 
L 628 4666 
z
" transform="scale(0.015625)"/>
    </defs>
    <use xlink:href="#DejaVuSans-4c"/>
    <use xlink:href="#DejaVuSans-6f" x="53.962891"/>
    <use xlink:href="#DejaVuSans-77" x="115.144531"/>
    <use xlink:href="#DejaVuSans-20" x="196.931641"/>
    <use xlink:href="#DejaVuSans-4d" x="228.71875"/>
    <use xlink:href="#DejaVuSans-4f" x="314.998047"/>
    <use xlink:href="#DejaVuSans-49" x="393.708984"/>
   </g>
  </g>
 </g>
 <defs>
  <clipPath id="pc4826dde9f">
   <rect x="57.949438" y="64.408931" width="167.4" height="166.32"/>
  </clipPath>
  <clipPath id="p225ab87f28">
   <path d="M 244.749437 144.575806 
L 244.749437 128.735806 
L 260.589437 128.735806 
L 260.589437 144.575806 
"/>
  </clipPath>
  <clipPath id="p1f2bc16992">
   <path d="M 244.749437 162.415806 
L 244.749437 146.575806 
L 260.589437 146.575806 
L 260.589437 162.415806 
"/>
  </clipPath>
  <clipPath id="p5a5e988d65">
   <path d="M 244.749437 180.255806 
L 244.749437 164.415806 
L 260.589437 164.415806 
L 260.589437 180.255806 
"/>
  </clipPath>
 </defs>
</svg>
