<?xml version="1.0" encoding="utf-8" standalone="no"?>
<!DOCTYPE svg PUBLIC "-//W3C//DTD SVG 1.1//EN"
  "http://www.w3.org/Graphics/SVG/1.1/DTD/svg11.dtd">
<svg xmlns:xlink="http://www.w3.org/1999/xlink" width="212.45pt" height="161.784201pt" viewBox="0 0 212.45 161.784201" xmlns="http://www.w3.org/2000/svg" version="1.1">
 <metadata>
  <rdf:RDF xmlns:dc="http://purl.org/dc/elements/1.1/" xmlns:cc="http://creativecommons.org/ns#" xmlns:rdf="http://www.w3.org/1999/02/22-rdf-syntax-ns#">
   <cc:Work>
    <dc:type rdf:resource="http://purl.org/dc/dcmitype/StillImage"/>
    <dc:date>2022-11-02T16:16:22.990227</dc:date>
    <dc:format>image/svg+xml</dc:format>
    <dc:creator>
     <cc:Agent>
      <dc:title>Matplotlib v3.5.2, https://matplotlib.org/</dc:title>
     </cc:Agent>
    </dc:creator>
   </cc:Work>
  </rdf:RDF>
 </metadata>
 <defs>
  <style type="text/css">*{stroke-linejoin: round; stroke-linecap: butt}</style>
 </defs>
 <g id="figure_1">
  <g id="patch_1">
   <path d="M 0 161.784201 
L 212.45 161.784201 
L 212.45 0 
L 0 0 
z
" style="fill: #ffffff; stroke: #ffffff; stroke-linejoin: miter"/>
  </g>
  <g id="axes_1">
   <g id="patch_2">
    <path d="M 9.95 122.006701 
L 205.25 122.006701 
L 205.25 24.986701 
L 9.95 24.986701 
z
" style="fill: #ffffff"/>
   </g>
   <g id="matplotlib.axis_1">
    <g id="xtick_1">
     <g id="line2d_1">
      <path d="M 18.676538 122.006701 
" style="fill: none; stroke: #000000; stroke-width: 1.5"/>
      <defs>
       <path id="me95044773a" d="M 0 0 
L 0 2.75 
" style="stroke: #333333"/>
      </defs>
      <g>
       <use xlink:href="#me95044773a" x="18.676538" y="122.006701" style="stroke: #333333"/>
      </g>
     </g>
     <g id="text_1">
      <!-- 0 -->
      <g transform="translate(14.859038 136.074826)scale(0.12 -0.12)">
       <defs>
        <path id="DejaVuSans-30" d="M 2034 4250 
Q 1547 4250 1301 3770 
Q 1056 3291 1056 2328 
Q 1056 1369 1301 889 
Q 1547 409 2034 409 
Q 2525 409 2770 889 
Q 3016 1369 3016 2328 
Q 3016 3291 2770 3770 
Q 2525 4250 2034 4250 
z
M 2034 4750 
Q 2819 4750 3233 4129 
Q 3647 3509 3647 2328 
Q 3647 1150 3233 529 
Q 2819 -91 2034 -91 
Q 1250 -91 836 529 
Q 422 1150 422 2328 
Q 422 3509 836 4129 
Q 1250 4750 2034 4750 
z
" transform="scale(0.015625)"/>
       </defs>
       <use xlink:href="#DejaVuSans-30"/>
      </g>
     </g>
    </g>
    <g id="xtick_2">
     <g id="line2d_2">
      <path d="M 60.820658 122.006701 
" style="fill: none; stroke: #000000; stroke-width: 1.5"/>
      <g>
       <use xlink:href="#me95044773a" x="60.820658" y="122.006701" style="stroke: #333333"/>
      </g>
     </g>
     <g id="text_2">
      <!-- 0.05 -->
      <g transform="translate(47.461283 136.074826)scale(0.12 -0.12)">
       <defs>
        <path id="DejaVuSans-2e" d="M 684 794 
L 1344 794 
L 1344 0 
L 684 0 
L 684 794 
z
" transform="scale(0.015625)"/>
        <path id="DejaVuSans-35" d="M 691 4666 
L 3169 4666 
L 3169 4134 
L 1269 4134 
L 1269 2991 
Q 1406 3038 1543 3061 
Q 1681 3084 1819 3084 
Q 2600 3084 3056 2656 
Q 3513 2228 3513 1497 
Q 3513 744 3044 326 
Q 2575 -91 1722 -91 
Q 1428 -91 1123 -41 
Q 819 9 494 109 
L 494 744 
Q 775 591 1075 516 
Q 1375 441 1709 441 
Q 2250 441 2565 725 
Q 2881 1009 2881 1497 
Q 2881 1984 2565 2268 
Q 2250 2553 1709 2553 
Q 1456 2553 1204 2497 
Q 953 2441 691 2322 
L 691 4666 
z
" transform="scale(0.015625)"/>
       </defs>
       <use xlink:href="#DejaVuSans-30"/>
       <use xlink:href="#DejaVuSans-2e" x="63.623047"/>
       <use xlink:href="#DejaVuSans-30" x="95.410156"/>
       <use xlink:href="#DejaVuSans-35" x="159.033203"/>
      </g>
     </g>
    </g>
    <g id="xtick_3">
     <g id="line2d_3">
      <path d="M 102.964777 122.006701 
" style="fill: none; stroke: #000000; stroke-width: 1.5"/>
      <g>
       <use xlink:href="#me95044773a" x="102.964777" y="122.006701" style="stroke: #333333"/>
      </g>
     </g>
     <g id="text_3">
      <!-- 0.10 -->
      <g transform="translate(89.605402 136.074826)scale(0.12 -0.12)">
       <defs>
        <path id="DejaVuSans-31" d="M 794 531 
L 1825 531 
L 1825 4091 
L 703 3866 
L 703 4441 
L 1819 4666 
L 2450 4666 
L 2450 531 
L 3481 531 
L 3481 0 
L 794 0 
L 794 531 
z
" transform="scale(0.015625)"/>
       </defs>
       <use xlink:href="#DejaVuSans-30"/>
       <use xlink:href="#DejaVuSans-2e" x="63.623047"/>
       <use xlink:href="#DejaVuSans-31" x="95.410156"/>
       <use xlink:href="#DejaVuSans-30" x="159.033203"/>
      </g>
     </g>
    </g>
    <g id="xtick_4">
     <g id="line2d_4">
      <path d="M 145.108896 122.006701 
" style="fill: none; stroke: #000000; stroke-width: 1.5"/>
      <g>
       <use xlink:href="#me95044773a" x="145.108896" y="122.006701" style="stroke: #333333"/>
      </g>
     </g>
     <g id="text_4">
      <!-- 0.15 -->
      <g transform="translate(131.749521 136.074826)scale(0.12 -0.12)">
       <use xlink:href="#DejaVuSans-30"/>
       <use xlink:href="#DejaVuSans-2e" x="63.623047"/>
       <use xlink:href="#DejaVuSans-31" x="95.410156"/>
       <use xlink:href="#DejaVuSans-35" x="159.033203"/>
      </g>
     </g>
    </g>
    <g id="xtick_5">
     <g id="line2d_5">
      <path d="M 187.253016 122.006701 
" style="fill: none; stroke: #000000; stroke-width: 1.5"/>
      <g>
       <use xlink:href="#me95044773a" x="187.253016" y="122.006701" style="stroke: #333333"/>
      </g>
     </g>
     <g id="text_5">
      <!-- 0.20 -->
      <g transform="translate(173.893641 136.074826)scale(0.12 -0.12)">
       <defs>
        <path id="DejaVuSans-32" d="M 1228 531 
L 3431 531 
L 3431 0 
L 469 0 
L 469 531 
Q 828 903 1448 1529 
Q 2069 2156 2228 2338 
Q 2531 2678 2651 2914 
Q 2772 3150 2772 3378 
Q 2772 3750 2511 3984 
Q 2250 4219 1831 4219 
Q 1534 4219 1204 4116 
Q 875 4013 500 3803 
L 500 4441 
Q 881 4594 1212 4672 
Q 1544 4750 1819 4750 
Q 2544 4750 2975 4387 
Q 3406 4025 3406 3419 
Q 3406 3131 3298 2873 
Q 3191 2616 2906 2266 
Q 2828 2175 2409 1742 
Q 1991 1309 1228 531 
z
" transform="scale(0.015625)"/>
       </defs>
       <use xlink:href="#DejaVuSans-30"/>
       <use xlink:href="#DejaVuSans-2e" x="63.623047"/>
       <use xlink:href="#DejaVuSans-32" x="95.410156"/>
       <use xlink:href="#DejaVuSans-30" x="159.033203"/>
      </g>
     </g>
    </g>
    <g id="xtick_6"/>
    <g id="xtick_7"/>
    <g id="xtick_8"/>
    <g id="xtick_9"/>
    <g id="text_6">
     <!-- fraction physical progeny -->
     <g transform="translate(28.324063 152.088576)scale(0.12 -0.12)">
      <defs>
       <path id="DejaVuSans-66" d="M 2375 4863 
L 2375 4384 
L 1825 4384 
Q 1516 4384 1395 4259 
Q 1275 4134 1275 3809 
L 1275 3500 
L 2222 3500 
L 2222 3053 
L 1275 3053 
L 1275 0 
L 697 0 
L 697 3053 
L 147 3053 
L 147 3500 
L 697 3500 
L 697 3744 
Q 697 4328 969 4595 
Q 1241 4863 1831 4863 
L 2375 4863 
z
" transform="scale(0.015625)"/>
       <path id="DejaVuSans-72" d="M 2631 2963 
Q 2534 3019 2420 3045 
Q 2306 3072 2169 3072 
Q 1681 3072 1420 2755 
Q 1159 2438 1159 1844 
L 1159 0 
L 581 0 
L 581 3500 
L 1159 3500 
L 1159 2956 
Q 1341 3275 1631 3429 
Q 1922 3584 2338 3584 
Q 2397 3584 2469 3576 
Q 2541 3569 2628 3553 
L 2631 2963 
z
" transform="scale(0.015625)"/>
       <path id="DejaVuSans-61" d="M 2194 1759 
Q 1497 1759 1228 1600 
Q 959 1441 959 1056 
Q 959 750 1161 570 
Q 1363 391 1709 391 
Q 2188 391 2477 730 
Q 2766 1069 2766 1631 
L 2766 1759 
L 2194 1759 
z
M 3341 1997 
L 3341 0 
L 2766 0 
L 2766 531 
Q 2569 213 2275 61 
Q 1981 -91 1556 -91 
Q 1019 -91 701 211 
Q 384 513 384 1019 
Q 384 1609 779 1909 
Q 1175 2209 1959 2209 
L 2766 2209 
L 2766 2266 
Q 2766 2663 2505 2880 
Q 2244 3097 1772 3097 
Q 1472 3097 1187 3025 
Q 903 2953 641 2809 
L 641 3341 
Q 956 3463 1253 3523 
Q 1550 3584 1831 3584 
Q 2591 3584 2966 3190 
Q 3341 2797 3341 1997 
z
" transform="scale(0.015625)"/>
       <path id="DejaVuSans-63" d="M 3122 3366 
L 3122 2828 
Q 2878 2963 2633 3030 
Q 2388 3097 2138 3097 
Q 1578 3097 1268 2742 
Q 959 2388 959 1747 
Q 959 1106 1268 751 
Q 1578 397 2138 397 
Q 2388 397 2633 464 
Q 2878 531 3122 666 
L 3122 134 
Q 2881 22 2623 -34 
Q 2366 -91 2075 -91 
Q 1284 -91 818 406 
Q 353 903 353 1747 
Q 353 2603 823 3093 
Q 1294 3584 2113 3584 
Q 2378 3584 2631 3529 
Q 2884 3475 3122 3366 
z
" transform="scale(0.015625)"/>
       <path id="DejaVuSans-74" d="M 1172 4494 
L 1172 3500 
L 2356 3500 
L 2356 3053 
L 1172 3053 
L 1172 1153 
Q 1172 725 1289 603 
Q 1406 481 1766 481 
L 2356 481 
L 2356 0 
L 1766 0 
Q 1100 0 847 248 
Q 594 497 594 1153 
L 594 3053 
L 172 3053 
L 172 3500 
L 594 3500 
L 594 4494 
L 1172 4494 
z
" transform="scale(0.015625)"/>
       <path id="DejaVuSans-69" d="M 603 3500 
L 1178 3500 
L 1178 0 
L 603 0 
L 603 3500 
z
M 603 4863 
L 1178 4863 
L 1178 4134 
L 603 4134 
L 603 4863 
z
" transform="scale(0.015625)"/>
       <path id="DejaVuSans-6f" d="M 1959 3097 
Q 1497 3097 1228 2736 
Q 959 2375 959 1747 
Q 959 1119 1226 758 
Q 1494 397 1959 397 
Q 2419 397 2687 759 
Q 2956 1122 2956 1747 
Q 2956 2369 2687 2733 
Q 2419 3097 1959 3097 
z
M 1959 3584 
Q 2709 3584 3137 3096 
Q 3566 2609 3566 1747 
Q 3566 888 3137 398 
Q 2709 -91 1959 -91 
Q 1206 -91 779 398 
Q 353 888 353 1747 
Q 353 2609 779 3096 
Q 1206 3584 1959 3584 
z
" transform="scale(0.015625)"/>
       <path id="DejaVuSans-6e" d="M 3513 2113 
L 3513 0 
L 2938 0 
L 2938 2094 
Q 2938 2591 2744 2837 
Q 2550 3084 2163 3084 
Q 1697 3084 1428 2787 
Q 1159 2491 1159 1978 
L 1159 0 
L 581 0 
L 581 3500 
L 1159 3500 
L 1159 2956 
Q 1366 3272 1645 3428 
Q 1925 3584 2291 3584 
Q 2894 3584 3203 3211 
Q 3513 2838 3513 2113 
z
" transform="scale(0.015625)"/>
       <path id="DejaVuSans-20" transform="scale(0.015625)"/>
       <path id="DejaVuSans-70" d="M 1159 525 
L 1159 -1331 
L 581 -1331 
L 581 3500 
L 1159 3500 
L 1159 2969 
Q 1341 3281 1617 3432 
Q 1894 3584 2278 3584 
Q 2916 3584 3314 3078 
Q 3713 2572 3713 1747 
Q 3713 922 3314 415 
Q 2916 -91 2278 -91 
Q 1894 -91 1617 61 
Q 1341 213 1159 525 
z
M 3116 1747 
Q 3116 2381 2855 2742 
Q 2594 3103 2138 3103 
Q 1681 3103 1420 2742 
Q 1159 2381 1159 1747 
Q 1159 1113 1420 752 
Q 1681 391 2138 391 
Q 2594 391 2855 752 
Q 3116 1113 3116 1747 
z
" transform="scale(0.015625)"/>
       <path id="DejaVuSans-68" d="M 3513 2113 
L 3513 0 
L 2938 0 
L 2938 2094 
Q 2938 2591 2744 2837 
Q 2550 3084 2163 3084 
Q 1697 3084 1428 2787 
Q 1159 2491 1159 1978 
L 1159 0 
L 581 0 
L 581 4863 
L 1159 4863 
L 1159 2956 
Q 1366 3272 1645 3428 
Q 1925 3584 2291 3584 
Q 2894 3584 3203 3211 
Q 3513 2838 3513 2113 
z
" transform="scale(0.015625)"/>
       <path id="DejaVuSans-79" d="M 2059 -325 
Q 1816 -950 1584 -1140 
Q 1353 -1331 966 -1331 
L 506 -1331 
L 506 -850 
L 844 -850 
Q 1081 -850 1212 -737 
Q 1344 -625 1503 -206 
L 1606 56 
L 191 3500 
L 800 3500 
L 1894 763 
L 2988 3500 
L 3597 3500 
L 2059 -325 
z
" transform="scale(0.015625)"/>
       <path id="DejaVuSans-73" d="M 2834 3397 
L 2834 2853 
Q 2591 2978 2328 3040 
Q 2066 3103 1784 3103 
Q 1356 3103 1142 2972 
Q 928 2841 928 2578 
Q 928 2378 1081 2264 
Q 1234 2150 1697 2047 
L 1894 2003 
Q 2506 1872 2764 1633 
Q 3022 1394 3022 966 
Q 3022 478 2636 193 
Q 2250 -91 1575 -91 
Q 1294 -91 989 -36 
Q 684 19 347 128 
L 347 722 
Q 666 556 975 473 
Q 1284 391 1588 391 
Q 1994 391 2212 530 
Q 2431 669 2431 922 
Q 2431 1156 2273 1281 
Q 2116 1406 1581 1522 
L 1381 1569 
Q 847 1681 609 1914 
Q 372 2147 372 2553 
Q 372 3047 722 3315 
Q 1072 3584 1716 3584 
Q 2034 3584 2315 3537 
Q 2597 3491 2834 3397 
z
" transform="scale(0.015625)"/>
       <path id="DejaVuSans-6c" d="M 603 4863 
L 1178 4863 
L 1178 0 
L 603 0 
L 603 4863 
z
" transform="scale(0.015625)"/>
       <path id="DejaVuSans-67" d="M 2906 1791 
Q 2906 2416 2648 2759 
Q 2391 3103 1925 3103 
Q 1463 3103 1205 2759 
Q 947 2416 947 1791 
Q 947 1169 1205 825 
Q 1463 481 1925 481 
Q 2391 481 2648 825 
Q 2906 1169 2906 1791 
z
M 3481 434 
Q 3481 -459 3084 -895 
Q 2688 -1331 1869 -1331 
Q 1566 -1331 1297 -1286 
Q 1028 -1241 775 -1147 
L 775 -588 
Q 1028 -725 1275 -790 
Q 1522 -856 1778 -856 
Q 2344 -856 2625 -561 
Q 2906 -266 2906 331 
L 2906 616 
Q 2728 306 2450 153 
Q 2172 0 1784 0 
Q 1141 0 747 490 
Q 353 981 353 1791 
Q 353 2603 747 3093 
Q 1141 3584 1784 3584 
Q 2172 3584 2450 3431 
Q 2728 3278 2906 2969 
L 2906 3500 
L 3481 3500 
L 3481 434 
z
" transform="scale(0.015625)"/>
       <path id="DejaVuSans-65" d="M 3597 1894 
L 3597 1613 
L 953 1613 
Q 991 1019 1311 708 
Q 1631 397 2203 397 
Q 2534 397 2845 478 
Q 3156 559 3463 722 
L 3463 178 
Q 3153 47 2828 -22 
Q 2503 -91 2169 -91 
Q 1331 -91 842 396 
Q 353 884 353 1716 
Q 353 2575 817 3079 
Q 1281 3584 2069 3584 
Q 2775 3584 3186 3129 
Q 3597 2675 3597 1894 
z
M 3022 2063 
Q 3016 2534 2758 2815 
Q 2500 3097 2075 3097 
Q 1594 3097 1305 2825 
Q 1016 2553 972 2059 
L 3022 2063 
z
" transform="scale(0.015625)"/>
      </defs>
      <use xlink:href="#DejaVuSans-66"/>
      <use xlink:href="#DejaVuSans-72" x="35.205078"/>
      <use xlink:href="#DejaVuSans-61" x="76.318359"/>
      <use xlink:href="#DejaVuSans-63" x="137.597656"/>
      <use xlink:href="#DejaVuSans-74" x="192.578125"/>
      <use xlink:href="#DejaVuSans-69" x="231.787109"/>
      <use xlink:href="#DejaVuSans-6f" x="259.570312"/>
      <use xlink:href="#DejaVuSans-6e" x="320.751953"/>
      <use xlink:href="#DejaVuSans-20" x="384.130859"/>
      <use xlink:href="#DejaVuSans-70" x="415.917969"/>
      <use xlink:href="#DejaVuSans-68" x="479.394531"/>
      <use xlink:href="#DejaVuSans-79" x="542.773438"/>
      <use xlink:href="#DejaVuSans-73" x="601.953125"/>
      <use xlink:href="#DejaVuSans-69" x="654.052734"/>
      <use xlink:href="#DejaVuSans-63" x="681.835938"/>
      <use xlink:href="#DejaVuSans-61" x="736.816406"/>
      <use xlink:href="#DejaVuSans-6c" x="798.095703"/>
      <use xlink:href="#DejaVuSans-20" x="825.878906"/>
      <use xlink:href="#DejaVuSans-70" x="857.666016"/>
      <use xlink:href="#DejaVuSans-72" x="921.142578"/>
      <use xlink:href="#DejaVuSans-6f" x="960.005859"/>
      <use xlink:href="#DejaVuSans-67" x="1021.1875"/>
      <use xlink:href="#DejaVuSans-65" x="1084.664062"/>
      <use xlink:href="#DejaVuSans-6e" x="1146.1875"/>
      <use xlink:href="#DejaVuSans-79" x="1209.566406"/>
     </g>
    </g>
   </g>
   <g id="matplotlib.axis_2">
    <g id="ytick_1">
     <g id="line2d_6">
      <path d="M 9.95 103.815451 
" style="fill: none; stroke: #000000; stroke-width: 1.5"/>
      <defs>
       <path id="mf32e47c69b" d="M 0 0 
L -2.75 0 
" style="stroke: #333333"/>
      </defs>
      <g>
       <use xlink:href="#mf32e47c69b" x="9.95" y="103.815451" style="stroke: #333333"/>
      </g>
     </g>
    </g>
    <g id="ytick_2">
     <g id="line2d_7">
      <path d="M 9.95 73.496701 
" style="fill: none; stroke: #000000; stroke-width: 1.5"/>
      <g>
       <use xlink:href="#mf32e47c69b" x="9.95" y="73.496701" style="stroke: #333333"/>
      </g>
     </g>
    </g>
    <g id="ytick_3">
     <g id="line2d_8">
      <path d="M 9.95 43.177951 
" style="fill: none; stroke: #000000; stroke-width: 1.5"/>
      <g>
       <use xlink:href="#mf32e47c69b" x="9.95" y="43.177951" style="stroke: #333333"/>
      </g>
     </g>
    </g>
   </g>
   <g id="PathCollection_1">
    <path d="M 29.146549 111.014451 
C 29.969155 111.014451 30.758179 110.687626 31.339849 110.105956 
C 31.921519 109.524286 32.248343 108.735262 32.248343 107.912656 
C 32.248343 107.090051 31.921519 106.301026 31.339849 105.719357 
C 30.758179 105.137687 29.969155 104.810862 29.146549 104.810862 
C 28.323944 104.810862 27.534919 105.137687 26.95325 105.719357 
C 26.37158 106.301026 26.044755 107.090051 26.044755 107.912656 
C 26.044755 108.735262 26.37158 109.524286 26.95325 110.105956 
C 27.534919 110.687626 28.323944 111.014451 29.146549 111.014451 
z
" clip-path="url(#pa640891916)" style="fill-opacity: 0.4; stroke: #000000; stroke-opacity: 0.4; stroke-width: 0.886227"/>
    <path d="M 18.829102 49.367358 
C 19.651707 49.367358 20.440732 49.040533 21.022401 48.458863 
C 21.604071 47.877194 21.930896 47.088169 21.930896 46.265564 
C 21.930896 45.442958 21.604071 44.653934 21.022401 44.072264 
C 20.440732 43.490594 19.651707 43.163769 18.829102 43.163769 
C 18.006496 43.163769 17.217472 43.490594 16.635802 44.072264 
C 16.054132 44.653934 15.727307 45.442958 15.727307 46.265564 
C 15.727307 47.088169 16.054132 47.877194 16.635802 48.458863 
C 17.217472 49.040533 18.006496 49.367358 18.829102 49.367358 
z
" clip-path="url(#pa640891916)" style="fill-opacity: 0.4; stroke: #000000; stroke-opacity: 0.4; stroke-width: 0.886227"/>
    <path d="M 20.790662 47.395497 
C 21.613267 47.395497 22.402292 47.068672 22.983962 46.487002 
C 23.565631 45.905332 23.892456 45.116308 23.892456 44.293703 
C 23.892456 43.471097 23.565631 42.682073 22.983962 42.100403 
C 22.402292 41.518733 21.613267 41.191908 20.790662 41.191908 
C 19.968056 41.191908 19.179032 41.518733 18.597362 42.100403 
C 18.015692 42.682073 17.688868 43.471097 17.688868 44.293703 
C 17.688868 45.116308 18.015692 45.905332 18.597362 46.487002 
C 19.179032 47.068672 19.968056 47.395497 20.790662 47.395497 
z
" clip-path="url(#pa640891916)" style="fill-opacity: 0.4; stroke: #000000; stroke-opacity: 0.4; stroke-width: 0.886227"/>
    <path d="M 19.08422 47.166604 
C 19.906826 47.166604 20.69585 46.839779 21.27752 46.258109 
C 21.85919 45.676439 22.186015 44.887415 22.186015 44.064809 
C 22.186015 43.242204 21.85919 42.45318 21.27752 41.87151 
C 20.69585 41.28984 19.906826 40.963015 19.08422 40.963015 
C 18.261615 40.963015 17.47259 41.28984 16.890921 41.87151 
C 16.309251 42.45318 15.982426 43.242204 15.982426 44.064809 
C 15.982426 44.887415 16.309251 45.676439 16.890921 46.258109 
C 17.47259 46.839779 18.261615 47.166604 19.08422 47.166604 
z
" clip-path="url(#pa640891916)" style="fill-opacity: 0.4; stroke: #000000; stroke-opacity: 0.4; stroke-width: 0.886227"/>
    <path d="M 18.828912 74.934128 
C 19.651517 74.934128 20.440542 74.607303 21.022212 74.025633 
C 21.603882 73.443963 21.930706 72.654939 21.930706 71.832333 
C 21.930706 71.009728 21.603882 70.220704 21.022212 69.639034 
C 20.440542 69.057364 19.651517 68.730539 18.828912 68.730539 
C 18.006307 68.730539 17.217282 69.057364 16.635612 69.639034 
C 16.053942 70.220704 15.727118 71.009728 15.727118 71.832333 
C 15.727118 72.654939 16.053942 73.443963 16.635612 74.025633 
C 17.217282 74.607303 18.006307 74.934128 18.828912 74.934128 
z
" clip-path="url(#pa640891916)" style="fill-opacity: 0.4; stroke: #000000; stroke-opacity: 0.4; stroke-width: 0.886227"/>
    <path d="M 21.237997 50.315924 
C 22.060603 50.315924 22.849627 49.989099 23.431297 49.40743 
C 24.012967 48.82576 24.339791 48.036735 24.339791 47.21413 
C 24.339791 46.391524 24.012967 45.6025 23.431297 45.02083 
C 22.849627 44.43916 22.060603 44.112336 21.237997 44.112336 
C 20.415392 44.112336 19.626367 44.43916 19.044697 45.02083 
C 18.463028 45.6025 18.136203 46.391524 18.136203 47.21413 
C 18.136203 48.036735 18.463028 48.82576 19.044697 49.40743 
C 19.626367 49.989099 20.415392 50.315924 21.237997 50.315924 
z
" clip-path="url(#pa640891916)" style="fill-opacity: 0.4; stroke: #000000; stroke-opacity: 0.4; stroke-width: 0.886227"/>
    <path d="M 18.89205 46.823785 
C 19.714656 46.823785 20.50368 46.49696 21.08535 45.91529 
C 21.66702 45.333621 21.993844 44.544596 21.993844 43.721991 
C 21.993844 42.899385 21.66702 42.110361 21.08535 41.528691 
C 20.50368 40.947021 19.714656 40.620197 18.89205 40.620197 
C 18.069445 40.620197 17.28042 40.947021 16.69875 41.528691 
C 16.11708 42.110361 15.790256 42.899385 15.790256 43.721991 
C 15.790256 44.544596 16.11708 45.333621 16.69875 45.91529 
C 17.28042 46.49696 18.069445 46.823785 18.89205 46.823785 
z
" clip-path="url(#pa640891916)" style="fill-opacity: 0.4; stroke: #000000; stroke-opacity: 0.4; stroke-width: 0.886227"/>
    <path d="M 18.829292 43.571059 
C 19.651898 43.571059 20.440922 43.244234 21.022592 42.662564 
C 21.604262 42.080894 21.931087 41.29187 21.931087 40.469264 
C 21.931087 39.646659 21.604262 38.857635 21.022592 38.275965 
C 20.440922 37.694295 19.651898 37.36747 18.829292 37.36747 
C 18.006687 37.36747 17.217662 37.694295 16.635993 38.275965 
C 16.054323 38.857635 15.727498 39.646659 15.727498 40.469264 
C 15.727498 41.29187 16.054323 42.080894 16.635993 42.662564 
C 17.217662 43.244234 18.006687 43.571059 18.829292 43.571059 
z
" clip-path="url(#pa640891916)" style="fill-opacity: 0.4; stroke: #000000; stroke-opacity: 0.4; stroke-width: 0.886227"/>
    <path d="M 20.397302 45.509568 
C 21.219908 45.509568 22.008932 45.182744 22.590602 44.601074 
C 23.172272 44.019404 23.499097 43.23038 23.499097 42.407774 
C 23.499097 41.585169 23.172272 40.796144 22.590602 40.214474 
C 22.008932 39.632805 21.219908 39.30598 20.397302 39.30598 
C 19.574697 39.30598 18.785673 39.632805 18.204003 40.214474 
C 17.622333 40.796144 17.295508 41.585169 17.295508 42.407774 
C 17.295508 43.23038 17.622333 44.019404 18.204003 44.601074 
C 18.785673 45.182744 19.574697 45.509568 20.397302 45.509568 
z
" clip-path="url(#pa640891916)" style="fill-opacity: 0.4; stroke: #000000; stroke-opacity: 0.4; stroke-width: 0.886227"/>
    <path d="M 48.972086 42.595968 
C 49.794692 42.595968 50.583716 42.269143 51.165386 41.687473 
C 51.747056 41.105803 52.073881 40.316779 52.073881 39.494173 
C 52.073881 38.671568 51.747056 37.882544 51.165386 37.300874 
C 50.583716 36.719204 49.794692 36.392379 48.972086 36.392379 
C 48.149481 36.392379 47.360457 36.719204 46.778787 37.300874 
C 46.197117 37.882544 45.870292 38.671568 45.870292 39.494173 
C 45.870292 40.316779 46.197117 41.105803 46.778787 41.687473 
C 47.360457 42.269143 48.149481 42.595968 48.972086 42.595968 
z
" clip-path="url(#pa640891916)" style="fill-opacity: 0.4; stroke: #000000; stroke-opacity: 0.4; stroke-width: 0.886227"/>
    <path d="M 43.046806 108.466114 
C 43.869411 108.466114 44.658436 108.13929 45.240106 107.55762 
C 45.821776 106.97595 46.1486 106.186926 46.1486 105.36432 
C 46.1486 104.541715 45.821776 103.75269 45.240106 103.171021 
C 44.658436 102.589351 43.869411 102.262526 43.046806 102.262526 
C 42.224201 102.262526 41.435176 102.589351 40.853506 103.171021 
C 40.271836 103.75269 39.945012 104.541715 39.945012 105.36432 
C 39.945012 106.186926 40.271836 106.97595 40.853506 107.55762 
C 41.435176 108.13929 42.224201 108.466114 43.046806 108.466114 
z
" clip-path="url(#pa640891916)" style="fill-opacity: 0.4; stroke: #000000; stroke-opacity: 0.4; stroke-width: 0.886227"/>
    <path d="M 23.280017 46.067224 
C 24.102622 46.067224 24.891647 45.7404 25.473316 45.15873 
C 26.054986 44.57706 26.381811 43.788036 26.381811 42.96543 
C 26.381811 42.142825 26.054986 41.3538 25.473316 40.77213 
C 24.891647 40.190461 24.102622 39.863636 23.280017 39.863636 
C 22.457411 39.863636 21.668387 40.190461 21.086717 40.77213 
C 20.505047 41.3538 20.178222 42.142825 20.178222 42.96543 
C 20.178222 43.788036 20.505047 44.57706 21.086717 45.15873 
C 21.668387 45.7404 22.457411 46.067224 23.280017 46.067224 
z
" clip-path="url(#pa640891916)" style="fill-opacity: 0.4; stroke: #000000; stroke-opacity: 0.4; stroke-width: 0.886227"/>
    <path d="M 30.248618 49.407972 
C 31.071223 49.407972 31.860248 49.081147 32.441917 48.499477 
C 33.023587 47.917807 33.350412 47.128783 33.350412 46.306177 
C 33.350412 45.483572 33.023587 44.694548 32.441917 44.112878 
C 31.860248 43.531208 31.071223 43.204383 30.248618 43.204383 
C 29.426012 43.204383 28.636988 43.531208 28.055318 44.112878 
C 27.473648 44.694548 27.146823 45.483572 27.146823 46.306177 
C 27.146823 47.128783 27.473648 47.917807 28.055318 48.499477 
C 28.636988 49.081147 29.426012 49.407972 30.248618 49.407972 
z
" clip-path="url(#pa640891916)" style="fill-opacity: 0.4; stroke: #000000; stroke-opacity: 0.4; stroke-width: 0.886227"/>
    <path d="M 18.828663 107.169715 
C 19.651268 107.169715 20.440292 106.842891 21.021962 106.261221 
C 21.603632 105.679551 21.930457 104.890527 21.930457 104.067921 
C 21.930457 103.245316 21.603632 102.456291 21.021962 101.874621 
C 20.440292 101.292952 19.651268 100.966127 18.828663 100.966127 
C 18.006057 100.966127 17.217033 101.292952 16.635363 101.874621 
C 16.053693 102.456291 15.726868 103.245316 15.726868 104.067921 
C 15.726868 104.890527 16.053693 105.679551 16.635363 106.261221 
C 17.217033 106.842891 18.006057 107.169715 18.828663 107.169715 
z
" clip-path="url(#pa640891916)" style="fill-opacity: 0.4; stroke: #000000; stroke-opacity: 0.4; stroke-width: 0.886227"/>
    <path d="M 18.827421 44.53459 
C 19.650026 44.53459 20.439051 44.207765 21.020721 43.626095 
C 21.60239 43.044426 21.929215 42.255401 21.929215 41.432796 
C 21.929215 40.61019 21.60239 39.821166 21.020721 39.239496 
C 20.439051 38.657826 19.650026 38.331001 18.827421 38.331001 
C 18.004815 38.331001 17.215791 38.657826 16.634121 39.239496 
C 16.052451 39.821166 15.725627 40.61019 15.725627 41.432796 
C 15.725627 42.255401 16.052451 43.044426 16.634121 43.626095 
C 17.215791 44.207765 18.004815 44.53459 18.827421 44.53459 
z
" clip-path="url(#pa640891916)" style="fill-opacity: 0.4; stroke: #000000; stroke-opacity: 0.4; stroke-width: 0.886227"/>
    <path d="M 18.891192 48.327747 
C 19.713798 48.327747 20.502822 48.000923 21.084492 47.419253 
C 21.666162 46.837583 21.992987 46.048559 21.992987 45.225953 
C 21.992987 44.403348 21.666162 43.614323 21.084492 43.032653 
C 20.502822 42.450984 19.713798 42.124159 18.891192 42.124159 
C 18.068587 42.124159 17.279563 42.450984 16.697893 43.032653 
C 16.116223 43.614323 15.789398 44.403348 15.789398 45.225953 
C 15.789398 46.048559 16.116223 46.837583 16.697893 47.419253 
C 17.279563 48.000923 18.068587 48.327747 18.891192 48.327747 
z
" clip-path="url(#pa640891916)" style="fill-opacity: 0.4; stroke: #000000; stroke-opacity: 0.4; stroke-width: 0.886227"/>
    <path d="M 59.204975 47.626681 
C 60.027581 47.626681 60.816605 47.299857 61.398275 46.718187 
C 61.979945 46.136517 62.30677 45.347492 62.30677 44.524887 
C 62.30677 43.702282 61.979945 42.913257 61.398275 42.331587 
C 60.816605 41.749917 60.027581 41.423093 59.204975 41.423093 
C 58.38237 41.423093 57.593346 41.749917 57.011676 42.331587 
C 56.430006 42.913257 56.103181 43.702282 56.103181 44.524887 
C 56.103181 45.347492 56.430006 46.136517 57.011676 46.718187 
C 57.593346 47.299857 58.38237 47.626681 59.204975 47.626681 
z
" clip-path="url(#pa640891916)" style="fill-opacity: 0.4; stroke: #000000; stroke-opacity: 0.4; stroke-width: 0.886227"/>
    <path d="M 18.828234 46.894728 
C 19.65084 46.894728 20.439864 46.567904 21.021534 45.986234 
C 21.603204 45.404564 21.930028 44.615539 21.930028 43.792934 
C 21.930028 42.970329 21.603204 42.181304 21.021534 41.599634 
C 20.439864 41.017964 19.65084 40.69114 18.828234 40.69114 
C 18.005629 40.69114 17.216604 41.017964 16.634934 41.599634 
C 16.053265 42.181304 15.72644 42.970329 15.72644 43.792934 
C 15.72644 44.615539 16.053265 45.404564 16.634934 45.986234 
C 17.216604 46.567904 18.005629 46.894728 18.828234 46.894728 
z
" clip-path="url(#pa640891916)" style="fill-opacity: 0.4; stroke: #000000; stroke-opacity: 0.4; stroke-width: 0.886227"/>
    <path d="M 18.82829 78.282599 
C 19.650895 78.282599 20.439919 77.955774 21.021589 77.374104 
C 21.603259 76.792434 21.930084 76.00341 21.930084 75.180804 
C 21.930084 74.358199 21.603259 73.569174 21.021589 72.987505 
C 20.439919 72.405835 19.650895 72.07901 18.82829 72.07901 
C 18.005684 72.07901 17.21666 72.405835 16.63499 72.987505 
C 16.05332 73.569174 15.726495 74.358199 15.726495 75.180804 
C 15.726495 76.00341 16.05332 76.792434 16.63499 77.374104 
C 17.21666 77.955774 18.005684 78.282599 18.82829 78.282599 
z
" clip-path="url(#pa640891916)" style="fill-opacity: 0.4; stroke: #000000; stroke-opacity: 0.4; stroke-width: 0.886227"/>
    <path d="M 45.210879 46.268932 
C 46.033484 46.268932 46.822509 45.942107 47.404179 45.360437 
C 47.985849 44.778767 48.312673 43.989743 48.312673 43.167137 
C 48.312673 42.344532 47.985849 41.555508 47.404179 40.973838 
C 46.822509 40.392168 46.033484 40.065343 45.210879 40.065343 
C 44.388273 40.065343 43.599249 40.392168 43.017579 40.973838 
C 42.435909 41.555508 42.109085 42.344532 42.109085 43.167137 
C 42.109085 43.989743 42.435909 44.778767 43.017579 45.360437 
C 43.599249 45.942107 44.388273 46.268932 45.210879 46.268932 
z
" clip-path="url(#pa640891916)" style="fill-opacity: 0.4; stroke: #000000; stroke-opacity: 0.4; stroke-width: 0.886227"/>
    <path d="M 18.980895 47.221301 
C 19.8035 47.221301 20.592525 46.894477 21.174194 46.312807 
C 21.755864 45.731137 22.082689 44.942112 22.082689 44.119507 
C 22.082689 43.296901 21.755864 42.507877 21.174194 41.926207 
C 20.592525 41.344537 19.8035 41.017713 18.980895 41.017713 
C 18.158289 41.017713 17.369265 41.344537 16.787595 41.926207 
C 16.205925 42.507877 15.8791 43.296901 15.8791 44.119507 
C 15.8791 44.942112 16.205925 45.731137 16.787595 46.312807 
C 17.369265 46.894477 18.158289 47.221301 18.980895 47.221301 
z
" clip-path="url(#pa640891916)" style="fill-opacity: 0.4; stroke: #000000; stroke-opacity: 0.4; stroke-width: 0.886227"/>
    <path d="M 32.193979 47.547593 
C 33.016585 47.547593 33.805609 47.220768 34.387279 46.639098 
C 34.968949 46.057429 35.295774 45.268404 35.295774 44.445799 
C 35.295774 43.623193 34.968949 42.834169 34.387279 42.252499 
C 33.805609 41.670829 33.016585 41.344004 32.193979 41.344004 
C 31.371374 41.344004 30.58235 41.670829 30.00068 42.252499 
C 29.41901 42.834169 29.092185 43.623193 29.092185 44.445799 
C 29.092185 45.268404 29.41901 46.057429 30.00068 46.639098 
C 30.58235 47.220768 31.371374 47.547593 32.193979 47.547593 
z
" clip-path="url(#pa640891916)" style="fill-opacity: 0.4; stroke: #000000; stroke-opacity: 0.4; stroke-width: 0.886227"/>
    <path d="M 40.272375 46.242925 
C 41.09498 46.242925 41.884005 45.9161 42.465674 45.33443 
C 43.047344 44.75276 43.374169 43.963736 43.374169 43.14113 
C 43.374169 42.318525 43.047344 41.529501 42.465674 40.947831 
C 41.884005 40.366161 41.09498 40.039336 40.272375 40.039336 
C 39.449769 40.039336 38.660745 40.366161 38.079075 40.947831 
C 37.497405 41.529501 37.170581 42.318525 37.170581 43.14113 
C 37.170581 43.963736 37.497405 44.75276 38.079075 45.33443 
C 38.660745 45.9161 39.449769 46.242925 40.272375 46.242925 
z
" clip-path="url(#pa640891916)" style="fill-opacity: 0.4; stroke: #000000; stroke-opacity: 0.4; stroke-width: 0.886227"/>
    <path d="M 18.891974 44.923415 
C 19.71458 44.923415 20.503604 44.596591 21.085274 44.014921 
C 21.666944 43.433251 21.993768 42.644227 21.993768 41.821621 
C 21.993768 40.999016 21.666944 40.209991 21.085274 39.628321 
C 20.503604 39.046652 19.71458 38.719827 18.891974 38.719827 
C 18.069369 38.719827 17.280344 39.046652 16.698674 39.628321 
C 16.117004 40.209991 15.79018 40.999016 15.79018 41.821621 
C 15.79018 42.644227 16.117004 43.433251 16.698674 44.014921 
C 17.280344 44.596591 18.069369 44.923415 18.891974 44.923415 
z
" clip-path="url(#pa640891916)" style="fill-opacity: 0.4; stroke: #000000; stroke-opacity: 0.4; stroke-width: 0.886227"/>
    <path d="M 35.430678 48.354939 
C 36.253283 48.354939 37.042308 48.028115 37.623978 47.446445 
C 38.205647 46.864775 38.532472 46.075751 38.532472 45.253145 
C 38.532472 44.43054 38.205647 43.641515 37.623978 43.059846 
C 37.042308 42.478176 36.253283 42.151351 35.430678 42.151351 
C 34.608072 42.151351 33.819048 42.478176 33.237378 43.059846 
C 32.655708 43.641515 32.328884 44.43054 32.328884 45.253145 
C 32.328884 46.075751 32.655708 46.864775 33.237378 47.446445 
C 33.819048 48.028115 34.608072 48.354939 35.430678 48.354939 
z
" clip-path="url(#pa640891916)" style="fill-opacity: 0.4; stroke: #000000; stroke-opacity: 0.4; stroke-width: 0.886227"/>
    <path d="M 18.828796 109.938242 
C 19.651401 109.938242 20.440426 109.611417 21.022096 109.029747 
C 21.603766 108.448077 21.93059 107.659053 21.93059 106.836447 
C 21.93059 106.013842 21.603766 105.224817 21.022096 104.643148 
C 20.440426 104.061478 19.651401 103.734653 18.828796 103.734653 
C 18.006191 103.734653 17.217166 104.061478 16.635496 104.643148 
C 16.053826 105.224817 15.727002 106.013842 15.727002 106.836447 
C 15.727002 107.659053 16.053826 108.448077 16.635496 109.029747 
C 17.217166 109.611417 18.006191 109.938242 18.828796 109.938242 
z
" clip-path="url(#pa640891916)" style="fill-opacity: 0.4; stroke: #000000; stroke-opacity: 0.4; stroke-width: 0.886227"/>
    <path d="M 18.829281 43.177578 
C 19.651886 43.177578 20.440911 42.850754 21.022581 42.269084 
C 21.604251 41.687414 21.931075 40.89839 21.931075 40.075784 
C 21.931075 39.253179 21.604251 38.464154 21.022581 37.882484 
C 20.440911 37.300815 19.651886 36.97399 18.829281 36.97399 
C 18.006675 36.97399 17.217651 37.300815 16.635981 37.882484 
C 16.054311 38.464154 15.727487 39.253179 15.727487 40.075784 
C 15.727487 40.89839 16.054311 41.687414 16.635981 42.269084 
C 17.217651 42.850754 18.006675 43.177578 18.829281 43.177578 
z
" clip-path="url(#pa640891916)" style="fill-opacity: 0.4; stroke: #000000; stroke-opacity: 0.4; stroke-width: 0.886227"/>
    <path d="M 22.933017 43.232449 
C 23.755622 43.232449 24.544647 42.905624 25.126316 42.323954 
C 25.707986 41.742284 26.034811 40.95326 26.034811 40.130655 
C 26.034811 39.308049 25.707986 38.519025 25.126316 37.937355 
C 24.544647 37.355685 23.755622 37.02886 22.933017 37.02886 
C 22.110411 37.02886 21.321387 37.355685 20.739717 37.937355 
C 20.158047 38.519025 19.831223 39.308049 19.831223 40.130655 
C 19.831223 40.95326 20.158047 41.742284 20.739717 42.323954 
C 21.321387 42.905624 22.110411 43.232449 22.933017 43.232449 
z
" clip-path="url(#pa640891916)" style="fill-opacity: 0.4; stroke: #000000; stroke-opacity: 0.4; stroke-width: 0.886227"/>
    <path d="M 21.135238 45.979483 
C 21.957844 45.979483 22.746868 45.652658 23.328538 45.070988 
C 23.910208 44.489318 24.237032 43.700294 24.237032 42.877688 
C 24.237032 42.055083 23.910208 41.266059 23.328538 40.684389 
C 22.746868 40.102719 21.957844 39.775894 21.135238 39.775894 
C 20.312633 39.775894 19.523608 40.102719 18.941938 40.684389 
C 18.360268 41.266059 18.033444 42.055083 18.033444 42.877688 
C 18.033444 43.700294 18.360268 44.489318 18.941938 45.070988 
C 19.523608 45.652658 20.312633 45.979483 21.135238 45.979483 
z
" clip-path="url(#pa640891916)" style="fill-opacity: 0.4; stroke: #000000; stroke-opacity: 0.4; stroke-width: 0.886227"/>
    <path d="M 19.267261 75.733374 
C 20.089866 75.733374 20.878891 75.406549 21.460561 74.824879 
C 22.042231 74.243209 22.369055 73.454185 22.369055 72.63158 
C 22.369055 71.808974 22.042231 71.01995 21.460561 70.43828 
C 20.878891 69.85661 20.089866 69.529785 19.267261 69.529785 
C 18.444656 69.529785 17.655631 69.85661 17.073961 70.43828 
C 16.492291 71.01995 16.165467 71.808974 16.165467 72.63158 
C 16.165467 73.454185 16.492291 74.243209 17.073961 74.824879 
C 17.655631 75.406549 18.444656 75.733374 19.267261 75.733374 
z
" clip-path="url(#pa640891916)" style="fill-opacity: 0.4; stroke: #000000; stroke-opacity: 0.4; stroke-width: 0.886227"/>
    <path d="M 32.459744 42.309325 
C 33.28235 42.309325 34.071374 41.9825 34.653044 41.40083 
C 35.234714 40.819161 35.561538 40.030136 35.561538 39.207531 
C 35.561538 38.384925 35.234714 37.595901 34.653044 37.014231 
C 34.071374 36.432561 33.28235 36.105737 32.459744 36.105737 
C 31.637139 36.105737 30.848114 36.432561 30.266444 37.014231 
C 29.684774 37.595901 29.35795 38.384925 29.35795 39.207531 
C 29.35795 40.030136 29.684774 40.819161 30.266444 41.40083 
C 30.848114 41.9825 31.637139 42.309325 32.459744 42.309325 
z
" clip-path="url(#pa640891916)" style="fill-opacity: 0.4; stroke: #000000; stroke-opacity: 0.4; stroke-width: 0.886227"/>
    <path d="M 29.361426 43.996977 
C 30.184032 43.996977 30.973056 43.670153 31.554726 43.088483 
C 32.136396 42.506813 32.46322 41.717788 32.46322 40.895183 
C 32.46322 40.072578 32.136396 39.283553 31.554726 38.701883 
C 30.973056 38.120213 30.184032 37.793389 29.361426 37.793389 
C 28.538821 37.793389 27.749796 38.120213 27.168126 38.701883 
C 26.586457 39.283553 26.259632 40.072578 26.259632 40.895183 
C 26.259632 41.717788 26.586457 42.506813 27.168126 43.088483 
C 27.749796 43.670153 28.538821 43.996977 29.361426 43.996977 
z
" clip-path="url(#pa640891916)" style="fill-opacity: 0.4; stroke: #000000; stroke-opacity: 0.4; stroke-width: 0.886227"/>
    <path d="M 20.09802 41.932238 
C 20.920626 41.932238 21.70965 41.605414 22.29132 41.023744 
C 22.87299 40.442074 23.199814 39.65305 23.199814 38.830444 
C 23.199814 38.007839 22.87299 37.218814 22.29132 36.637144 
C 21.70965 36.055475 20.920626 35.72865 20.09802 35.72865 
C 19.275415 35.72865 18.48639 36.055475 17.90472 36.637144 
C 17.323051 37.218814 16.996226 38.007839 16.996226 38.830444 
C 16.996226 39.65305 17.323051 40.442074 17.90472 41.023744 
C 18.48639 41.605414 19.275415 41.932238 20.09802 41.932238 
z
" clip-path="url(#pa640891916)" style="fill-opacity: 0.4; stroke: #000000; stroke-opacity: 0.4; stroke-width: 0.886227"/>
    <path d="M 18.827295 49.232964 
C 19.649901 49.232964 20.438925 48.906139 21.020595 48.324469 
C 21.602265 47.742799 21.92909 46.953775 21.92909 46.131169 
C 21.92909 45.308564 21.602265 44.519539 21.020595 43.93787 
C 20.438925 43.3562 19.649901 43.029375 18.827295 43.029375 
C 18.00469 43.029375 17.215665 43.3562 16.633996 43.93787 
C 16.052326 44.519539 15.725501 45.308564 15.725501 46.131169 
C 15.725501 46.953775 16.052326 47.742799 16.633996 48.324469 
C 17.215665 48.906139 18.00469 49.232964 18.827295 49.232964 
z
" clip-path="url(#pa640891916)" style="fill-opacity: 0.4; stroke: #000000; stroke-opacity: 0.4; stroke-width: 0.886227"/>
    <path d="M 33.817269 42.381617 
C 34.639874 42.381617 35.428898 42.054792 36.010568 41.473122 
C 36.592238 40.891452 36.919063 40.102428 36.919063 39.279822 
C 36.919063 38.457217 36.592238 37.668192 36.010568 37.086523 
C 35.428898 36.504853 34.639874 36.178028 33.817269 36.178028 
C 32.994663 36.178028 32.205639 36.504853 31.623969 37.086523 
C 31.042299 37.668192 30.715474 38.457217 30.715474 39.279822 
C 30.715474 40.102428 31.042299 40.891452 31.623969 41.473122 
C 32.205639 42.054792 32.994663 42.381617 33.817269 42.381617 
z
" clip-path="url(#pa640891916)" style="fill-opacity: 0.4; stroke: #000000; stroke-opacity: 0.4; stroke-width: 0.886227"/>
    <path d="M 19.901925 48.113454 
C 20.72453 48.113454 21.513555 47.78663 22.095225 47.20496 
C 22.676894 46.62329 23.003719 45.834266 23.003719 45.01166 
C 23.003719 44.189055 22.676894 43.40003 22.095225 42.81836 
C 21.513555 42.236691 20.72453 41.909866 19.901925 41.909866 
C 19.079319 41.909866 18.290295 42.236691 17.708625 42.81836 
C 17.126955 43.40003 16.800131 44.189055 16.800131 45.01166 
C 16.800131 45.834266 17.126955 46.62329 17.708625 47.20496 
C 18.290295 47.78663 19.079319 48.113454 19.901925 48.113454 
z
" clip-path="url(#pa640891916)" style="fill-opacity: 0.4; stroke: #000000; stroke-opacity: 0.4; stroke-width: 0.886227"/>
    <path d="M 26.034983 46.477698 
C 26.857588 46.477698 27.646613 46.150874 28.228283 45.569204 
C 28.809953 44.987534 29.136777 44.19851 29.136777 43.375904 
C 29.136777 42.553299 28.809953 41.764274 28.228283 41.182604 
C 27.646613 40.600934 26.857588 40.27411 26.034983 40.27411 
C 25.212378 40.27411 24.423353 40.600934 23.841683 41.182604 
C 23.260013 41.764274 22.933189 42.553299 22.933189 43.375904 
C 22.933189 44.19851 23.260013 44.987534 23.841683 45.569204 
C 24.423353 46.150874 25.212378 46.477698 26.034983 46.477698 
z
" clip-path="url(#pa640891916)" style="fill-opacity: 0.4; stroke: #000000; stroke-opacity: 0.4; stroke-width: 0.886227"/>
    <path d="M 196.372727 44.364931 
C 197.195333 44.364931 197.984357 44.038106 198.566027 43.456436 
C 199.147697 42.874766 199.474522 42.085742 199.474522 41.263137 
C 199.474522 40.440531 199.147697 39.651507 198.566027 39.069837 
C 197.984357 38.488167 197.195333 38.161342 196.372727 38.161342 
C 195.550122 38.161342 194.761097 38.488167 194.179428 39.069837 
C 193.597758 39.651507 193.270933 40.440531 193.270933 41.263137 
C 193.270933 42.085742 193.597758 42.874766 194.179428 43.456436 
C 194.761097 44.038106 195.550122 44.364931 196.372727 44.364931 
z
" clip-path="url(#pa640891916)" style="fill-opacity: 0.4; stroke: #000000; stroke-opacity: 0.4; stroke-width: 0.886227"/>
    <path d="M 19.313858 105.263558 
C 20.136463 105.263558 20.925488 104.936734 21.507158 104.355064 
C 22.088828 103.773394 22.415652 102.98437 22.415652 102.161764 
C 22.415652 101.339159 22.088828 100.550134 21.507158 99.968464 
C 20.925488 99.386795 20.136463 99.05997 19.313858 99.05997 
C 18.491253 99.05997 17.702228 99.386795 17.120558 99.968464 
C 16.538888 100.550134 16.212064 101.339159 16.212064 102.161764 
C 16.212064 102.98437 16.538888 103.773394 17.120558 104.355064 
C 17.702228 104.936734 18.491253 105.263558 19.313858 105.263558 
z
" clip-path="url(#pa640891916)" style="fill-opacity: 0.4; stroke: #000000; stroke-opacity: 0.4; stroke-width: 0.886227"/>
    <path d="M 19.085136 49.401536 
C 19.907741 49.401536 20.696766 49.074711 21.278436 48.493041 
C 21.860106 47.911371 22.18693 47.122347 22.18693 46.299741 
C 22.18693 45.477136 21.860106 44.688112 21.278436 44.106442 
C 20.696766 43.524772 19.907741 43.197947 19.085136 43.197947 
C 18.26253 43.197947 17.473506 43.524772 16.891836 44.106442 
C 16.310166 44.688112 15.983342 45.477136 15.983342 46.299741 
C 15.983342 47.122347 16.310166 47.911371 16.891836 48.493041 
C 17.473506 49.074711 18.26253 49.401536 19.085136 49.401536 
z
" clip-path="url(#pa640891916)" style="fill-opacity: 0.4; stroke: #000000; stroke-opacity: 0.4; stroke-width: 0.886227"/>
    <path d="M 20.685844 45.067976 
C 21.508449 45.067976 22.297474 44.741151 22.879144 44.159481 
C 23.460814 43.577812 23.787638 42.788787 23.787638 41.966182 
C 23.787638 41.143576 23.460814 40.354552 22.879144 39.772882 
C 22.297474 39.191212 21.508449 38.864387 20.685844 38.864387 
C 19.863238 38.864387 19.074214 39.191212 18.492544 39.772882 
C 17.910874 40.354552 17.58405 41.143576 17.58405 41.966182 
C 17.58405 42.788787 17.910874 43.577812 18.492544 44.159481 
C 19.074214 44.741151 19.863238 45.067976 20.685844 45.067976 
z
" clip-path="url(#pa640891916)" style="fill-opacity: 0.4; stroke: #000000; stroke-opacity: 0.4; stroke-width: 0.886227"/>
    <path d="M 35.469887 50.817791 
C 36.292493 50.817791 37.081517 50.490966 37.663187 49.909296 
C 38.244857 49.327626 38.571682 48.538602 38.571682 47.715997 
C 38.571682 46.893391 38.244857 46.104367 37.663187 45.522697 
C 37.081517 44.941027 36.292493 44.614202 35.469887 44.614202 
C 34.647282 44.614202 33.858258 44.941027 33.276588 45.522697 
C 32.694918 46.104367 32.368093 46.893391 32.368093 47.715997 
C 32.368093 48.538602 32.694918 49.327626 33.276588 49.909296 
C 33.858258 50.490966 34.647282 50.817791 35.469887 50.817791 
z
" clip-path="url(#pa640891916)" style="fill-opacity: 0.4; stroke: #000000; stroke-opacity: 0.4; stroke-width: 0.886227"/>
    <path d="M 33.051929 49.532034 
C 33.874535 49.532034 34.663559 49.205209 35.245229 48.62354 
C 35.826899 48.04187 36.153724 47.252845 36.153724 46.43024 
C 36.153724 45.607634 35.826899 44.81861 35.245229 44.23694 
C 34.663559 43.65527 33.874535 43.328446 33.051929 43.328446 
C 32.229324 43.328446 31.440299 43.65527 30.85863 44.23694 
C 30.27696 44.81861 29.950135 45.607634 29.950135 46.43024 
C 29.950135 47.252845 30.27696 48.04187 30.85863 48.62354 
C 31.440299 49.205209 32.229324 49.532034 33.051929 49.532034 
z
" clip-path="url(#pa640891916)" style="fill-opacity: 0.4; stroke: #000000; stroke-opacity: 0.4; stroke-width: 0.886227"/>
    <path d="M 18.980606 46.281853 
C 19.803211 46.281853 20.592235 45.955028 21.173905 45.373358 
C 21.755575 44.791688 22.0824 44.002664 22.0824 43.180058 
C 22.0824 42.357453 21.755575 41.568428 21.173905 40.986759 
C 20.592235 40.405089 19.803211 40.078264 18.980606 40.078264 
C 18.158 40.078264 17.368976 40.405089 16.787306 40.986759 
C 16.205636 41.568428 15.878811 42.357453 15.878811 43.180058 
C 15.878811 44.002664 16.205636 44.791688 16.787306 45.373358 
C 17.368976 45.955028 18.158 46.281853 18.980606 46.281853 
z
" clip-path="url(#pa640891916)" style="fill-opacity: 0.4; stroke: #000000; stroke-opacity: 0.4; stroke-width: 0.886227"/>
    <path d="M 20.234593 44.711281 
C 21.057198 44.711281 21.846222 44.384457 22.427892 43.802787 
C 23.009562 43.221117 23.336387 42.432092 23.336387 41.609487 
C 23.336387 40.786881 23.009562 39.997857 22.427892 39.416187 
C 21.846222 38.834517 21.057198 38.507693 20.234593 38.507693 
C 19.411987 38.507693 18.622963 38.834517 18.041293 39.416187 
C 17.459623 39.997857 17.132798 40.786881 17.132798 41.609487 
C 17.132798 42.432092 17.459623 43.221117 18.041293 43.802787 
C 18.622963 44.384457 19.411987 44.711281 20.234593 44.711281 
z
" clip-path="url(#pa640891916)" style="fill-opacity: 0.4; stroke: #000000; stroke-opacity: 0.4; stroke-width: 0.886227"/>
    <path d="M 78.497124 47.014995 
C 79.319729 47.014995 80.108754 46.68817 80.690424 46.1065 
C 81.272093 45.52483 81.598918 44.735806 81.598918 43.9132 
C 81.598918 43.090595 81.272093 42.301571 80.690424 41.719901 
C 80.108754 41.138231 79.319729 40.811406 78.497124 40.811406 
C 77.674518 40.811406 76.885494 41.138231 76.303824 41.719901 
C 75.722154 42.301571 75.39533 43.090595 75.39533 43.9132 
C 75.39533 44.735806 75.722154 45.52483 76.303824 46.1065 
C 76.885494 46.68817 77.674518 47.014995 78.497124 47.014995 
z
" clip-path="url(#pa640891916)" style="fill-opacity: 0.4; stroke: #000000; stroke-opacity: 0.4; stroke-width: 0.886227"/>
    <path d="M 19.04908 47.571468 
C 19.871685 47.571468 20.66071 47.244644 21.24238 46.662974 
C 21.824049 46.081304 22.150874 45.29228 22.150874 44.469674 
C 22.150874 43.647069 21.824049 42.858044 21.24238 42.276375 
C 20.66071 41.694705 19.871685 41.36788 19.04908 41.36788 
C 18.226474 41.36788 17.43745 41.694705 16.85578 42.276375 
C 16.27411 42.858044 15.947286 43.647069 15.947286 44.469674 
C 15.947286 45.29228 16.27411 46.081304 16.85578 46.662974 
C 17.43745 47.244644 18.226474 47.571468 19.04908 47.571468 
z
" clip-path="url(#pa640891916)" style="fill-opacity: 0.4; stroke: #000000; stroke-opacity: 0.4; stroke-width: 0.886227"/>
    <path d="M 19.728914 45.393283 
C 20.551519 45.393283 21.340544 45.066459 21.922214 44.484789 
C 22.503884 43.903119 22.830708 43.114094 22.830708 42.291489 
C 22.830708 41.468883 22.503884 40.679859 21.922214 40.098189 
C 21.340544 39.516519 20.551519 39.189695 19.728914 39.189695 
C 18.906309 39.189695 18.117284 39.516519 17.535614 40.098189 
C 16.953944 40.679859 16.62712 41.468883 16.62712 42.291489 
C 16.62712 43.114094 16.953944 43.903119 17.535614 44.484789 
C 18.117284 45.066459 18.906309 45.393283 19.728914 45.393283 
z
" clip-path="url(#pa640891916)" style="fill-opacity: 0.4; stroke: #000000; stroke-opacity: 0.4; stroke-width: 0.886227"/>
    <path d="M 20.097978 42.738429 
C 20.920584 42.738429 21.709608 42.411605 22.291278 41.829935 
C 22.872948 41.248265 23.199772 40.459241 23.199772 39.636635 
C 23.199772 38.81403 22.872948 38.025005 22.291278 37.443335 
C 21.709608 36.861666 20.920584 36.534841 20.097978 36.534841 
C 19.275373 36.534841 18.486348 36.861666 17.904678 37.443335 
C 17.323008 38.025005 16.996184 38.81403 16.996184 39.636635 
C 16.996184 40.459241 17.323008 41.248265 17.904678 41.829935 
C 18.486348 42.411605 19.275373 42.738429 20.097978 42.738429 
z
" clip-path="url(#pa640891916)" style="fill-opacity: 0.4; stroke: #000000; stroke-opacity: 0.4; stroke-width: 0.886227"/>
    <path d="M 51.763298 48.84481 
C 52.585904 48.84481 53.374928 48.517985 53.956598 47.936315 
C 54.538268 47.354645 54.865093 46.565621 54.865093 45.743015 
C 54.865093 44.92041 54.538268 44.131385 53.956598 43.549716 
C 53.374928 42.968046 52.585904 42.641221 51.763298 42.641221 
C 50.940693 42.641221 50.151669 42.968046 49.569999 43.549716 
C 48.988329 44.131385 48.661504 44.92041 48.661504 45.743015 
C 48.661504 46.565621 48.988329 47.354645 49.569999 47.936315 
C 50.151669 48.517985 50.940693 48.84481 51.763298 48.84481 
z
" clip-path="url(#pa640891916)" style="fill-opacity: 0.4; stroke: #000000; stroke-opacity: 0.4; stroke-width: 0.886227"/>
    <path d="M 18.827784 72.135998 
C 19.650389 72.135998 20.439414 71.809174 21.021084 71.227504 
C 21.602753 70.645834 21.929578 69.85681 21.929578 69.034204 
C 21.929578 68.211599 21.602753 67.422574 21.021084 66.840904 
C 20.439414 66.259234 19.650389 65.93241 18.827784 65.93241 
C 18.005178 65.93241 17.216154 66.259234 16.634484 66.840904 
C 16.052814 67.422574 15.72599 68.211599 15.72599 69.034204 
C 15.72599 69.85681 16.052814 70.645834 16.634484 71.227504 
C 17.216154 71.809174 18.005178 72.135998 18.827784 72.135998 
z
" clip-path="url(#pa640891916)" style="fill-opacity: 0.4; stroke: #000000; stroke-opacity: 0.4; stroke-width: 0.886227"/>
    <path d="M 18.827995 49.92546 
C 19.6506 49.92546 20.439625 49.598635 21.021295 49.016965 
C 21.602965 48.435295 21.929789 47.646271 21.929789 46.823665 
C 21.929789 46.00106 21.602965 45.212036 21.021295 44.630366 
C 20.439625 44.048696 19.6506 43.721871 18.827995 43.721871 
C 18.005389 43.721871 17.216365 44.048696 16.634695 44.630366 
C 16.053025 45.212036 15.726201 46.00106 15.726201 46.823665 
C 15.726201 47.646271 16.053025 48.435295 16.634695 49.016965 
C 17.216365 49.598635 18.005389 49.92546 18.827995 49.92546 
z
" clip-path="url(#pa640891916)" style="fill-opacity: 0.4; stroke: #000000; stroke-opacity: 0.4; stroke-width: 0.886227"/>
    <path d="M 18.979701 72.524052 
C 19.802307 72.524052 20.591331 72.197227 21.173001 71.615558 
C 21.754671 71.033888 22.081496 70.244863 22.081496 69.422258 
C 22.081496 68.599652 21.754671 67.810628 21.173001 67.228958 
C 20.591331 66.647288 19.802307 66.320464 18.979701 66.320464 
C 18.157096 66.320464 17.368071 66.647288 16.786402 67.228958 
C 16.204732 67.810628 15.877907 68.599652 15.877907 69.422258 
C 15.877907 70.244863 16.204732 71.033888 16.786402 71.615558 
C 17.368071 72.197227 18.157096 72.524052 18.979701 72.524052 
z
" clip-path="url(#pa640891916)" style="fill-opacity: 0.4; stroke: #000000; stroke-opacity: 0.4; stroke-width: 0.886227"/>
    <path d="M 18.827365 42.101126 
C 19.64997 42.101126 20.438994 41.774302 21.020664 41.192632 
C 21.602334 40.610962 21.929159 39.821938 21.929159 38.999332 
C 21.929159 38.176727 21.602334 37.387702 21.020664 36.806032 
C 20.438994 36.224363 19.64997 35.897538 18.827365 35.897538 
C 18.004759 35.897538 17.215735 36.224363 16.634065 36.806032 
C 16.052395 37.387702 15.72557 38.176727 15.72557 38.999332 
C 15.72557 39.821938 16.052395 40.610962 16.634065 41.192632 
C 17.215735 41.774302 18.004759 42.101126 18.827365 42.101126 
z
" clip-path="url(#pa640891916)" style="fill-opacity: 0.4; stroke: #000000; stroke-opacity: 0.4; stroke-width: 0.886227"/>
    <path d="M 18.827923 75.223541 
C 19.650529 75.223541 20.439553 74.896717 21.021223 74.315047 
C 21.602893 73.733377 21.929718 72.944352 21.929718 72.121747 
C 21.929718 71.299142 21.602893 70.510117 21.021223 69.928447 
C 20.439553 69.346777 19.650529 69.019953 18.827923 69.019953 
C 18.005318 69.019953 17.216293 69.346777 16.634624 69.928447 
C 16.052954 70.510117 15.726129 71.299142 15.726129 72.121747 
C 15.726129 72.944352 16.052954 73.733377 16.634624 74.315047 
C 17.216293 74.896717 18.005318 75.223541 18.827923 75.223541 
z
" clip-path="url(#pa640891916)" style="fill-opacity: 0.4; stroke: #000000; stroke-opacity: 0.4; stroke-width: 0.886227"/>
    <path d="M 25.672757 44.927959 
C 26.495363 44.927959 27.284387 44.601134 27.866057 44.019464 
C 28.447727 43.437794 28.774552 42.64877 28.774552 41.826165 
C 28.774552 41.003559 28.447727 40.214535 27.866057 39.632865 
C 27.284387 39.051195 26.495363 38.72437 25.672757 38.72437 
C 24.850152 38.72437 24.061127 39.051195 23.479458 39.632865 
C 22.897788 40.214535 22.570963 41.003559 22.570963 41.826165 
C 22.570963 42.64877 22.897788 43.437794 23.479458 44.019464 
C 24.061127 44.601134 24.850152 44.927959 25.672757 44.927959 
z
" clip-path="url(#pa640891916)" style="fill-opacity: 0.4; stroke: #000000; stroke-opacity: 0.4; stroke-width: 0.886227"/>
    <path d="M 18.829318 72.449458 
C 19.651923 72.449458 20.440948 72.122633 21.022618 71.540963 
C 21.604288 70.959294 21.931112 70.170269 21.931112 69.347664 
C 21.931112 68.525058 21.604288 67.736034 21.022618 67.154364 
C 20.440948 66.572694 19.651923 66.245869 18.829318 66.245869 
C 18.006712 66.245869 17.217688 66.572694 16.636018 67.154364 
C 16.054348 67.736034 15.727524 68.525058 15.727524 69.347664 
C 15.727524 70.170269 16.054348 70.959294 16.636018 71.540963 
C 17.217688 72.122633 18.006712 72.449458 18.829318 72.449458 
z
" clip-path="url(#pa640891916)" style="fill-opacity: 0.4; stroke: #000000; stroke-opacity: 0.4; stroke-width: 0.886227"/>
    <path d="M 26.924544 48.700738 
C 27.747149 48.700738 28.536173 48.373913 29.117843 47.792243 
C 29.699513 47.210573 30.026338 46.421549 30.026338 45.598944 
C 30.026338 44.776338 29.699513 43.987314 29.117843 43.405644 
C 28.536173 42.823974 27.747149 42.497149 26.924544 42.497149 
C 26.101938 42.497149 25.312914 42.823974 24.731244 43.405644 
C 24.149574 43.987314 23.822749 44.776338 23.822749 45.598944 
C 23.822749 46.421549 24.149574 47.210573 24.731244 47.792243 
C 25.312914 48.373913 26.101938 48.700738 26.924544 48.700738 
z
" clip-path="url(#pa640891916)" style="fill-opacity: 0.4; stroke: #000000; stroke-opacity: 0.4; stroke-width: 0.886227"/>
    <path d="M 43.010652 47.617937 
C 43.833257 47.617937 44.622282 47.291112 45.203952 46.709442 
C 45.785622 46.127773 46.112446 45.338748 46.112446 44.516143 
C 46.112446 43.693537 45.785622 42.904513 45.203952 42.322843 
C 44.622282 41.741173 43.833257 41.414348 43.010652 41.414348 
C 42.188046 41.414348 41.399022 41.741173 40.817352 42.322843 
C 40.235682 42.904513 39.908858 43.693537 39.908858 44.516143 
C 39.908858 45.338748 40.235682 46.127773 40.817352 46.709442 
C 41.399022 47.291112 42.188046 47.617937 43.010652 47.617937 
z
" clip-path="url(#pa640891916)" style="fill-opacity: 0.4; stroke: #000000; stroke-opacity: 0.4; stroke-width: 0.886227"/>
    <path d="M 20.512916 42.129278 
C 21.335521 42.129278 22.124546 41.802453 22.706216 41.220783 
C 23.287886 40.639114 23.61471 39.850089 23.61471 39.027484 
C 23.61471 38.204878 23.287886 37.415854 22.706216 36.834184 
C 22.124546 36.252514 21.335521 35.92569 20.512916 35.92569 
C 19.69031 35.92569 18.901286 36.252514 18.319616 36.834184 
C 17.737946 37.415854 17.411122 38.204878 17.411122 39.027484 
C 17.411122 39.850089 17.737946 40.639114 18.319616 41.220783 
C 18.901286 41.802453 19.69031 42.129278 20.512916 42.129278 
z
" clip-path="url(#pa640891916)" style="fill-opacity: 0.4; stroke: #000000; stroke-opacity: 0.4; stroke-width: 0.886227"/>
    <path d="M 18.82922 107.256648 
C 19.651826 107.256648 20.44085 106.929823 21.02252 106.348153 
C 21.60419 105.766483 21.931014 104.977459 21.931014 104.154853 
C 21.931014 103.332248 21.60419 102.543224 21.02252 101.961554 
C 20.44085 101.379884 19.651826 101.053059 18.82922 101.053059 
C 18.006615 101.053059 17.21759 101.379884 16.63592 101.961554 
C 16.054251 102.543224 15.727426 103.332248 15.727426 104.154853 
C 15.727426 104.977459 16.054251 105.766483 16.63592 106.348153 
C 17.21759 106.929823 18.006615 107.256648 18.82922 107.256648 
z
" clip-path="url(#pa640891916)" style="fill-opacity: 0.4; stroke: #000000; stroke-opacity: 0.4; stroke-width: 0.886227"/>
    <path d="M 18.827407 106.452353 
C 19.650012 106.452353 20.439037 106.125528 21.020706 105.543859 
C 21.602376 104.962189 21.929201 104.173164 21.929201 103.350559 
C 21.929201 102.527953 21.602376 101.738929 21.020706 101.157259 
C 20.439037 100.575589 19.650012 100.248765 18.827407 100.248765 
C 18.004801 100.248765 17.215777 100.575589 16.634107 101.157259 
C 16.052437 101.738929 15.725612 102.527953 15.725612 103.350559 
C 15.725612 104.173164 16.052437 104.962189 16.634107 105.543859 
C 17.215777 106.125528 18.004801 106.452353 18.827407 106.452353 
z
" clip-path="url(#pa640891916)" style="fill-opacity: 0.4; stroke: #000000; stroke-opacity: 0.4; stroke-width: 0.886227"/>
    <path d="M 20.823608 42.703488 
C 21.646214 42.703488 22.435238 42.376664 23.016908 41.794994 
C 23.598578 41.213324 23.925403 40.424299 23.925403 39.601694 
C 23.925403 38.779089 23.598578 37.990064 23.016908 37.408394 
C 22.435238 36.826724 21.646214 36.4999 20.823608 36.4999 
C 20.001003 36.4999 19.211979 36.826724 18.630309 37.408394 
C 18.048639 37.990064 17.721814 38.779089 17.721814 39.601694 
C 17.721814 40.424299 18.048639 41.213324 18.630309 41.794994 
C 19.211979 42.376664 20.001003 42.703488 20.823608 42.703488 
z
" clip-path="url(#pa640891916)" style="fill-opacity: 0.4; stroke: #000000; stroke-opacity: 0.4; stroke-width: 0.886227"/>
    <path d="M 21.185749 108.421121 
C 22.008354 108.421121 22.797379 108.094297 23.379049 107.512627 
C 23.960719 106.930957 24.287543 106.141932 24.287543 105.319327 
C 24.287543 104.496722 23.960719 103.707697 23.379049 103.126027 
C 22.797379 102.544357 22.008354 102.217533 21.185749 102.217533 
C 20.363143 102.217533 19.574119 102.544357 18.992449 103.126027 
C 18.410779 103.707697 18.083955 104.496722 18.083955 105.319327 
C 18.083955 106.141932 18.410779 106.930957 18.992449 107.512627 
C 19.574119 108.094297 20.363143 108.421121 21.185749 108.421121 
z
" clip-path="url(#pa640891916)" style="fill-opacity: 0.4; stroke: #000000; stroke-opacity: 0.4; stroke-width: 0.886227"/>
    <path d="M 19.818671 42.358358 
C 20.641277 42.358358 21.430301 42.031533 22.011971 41.449863 
C 22.593641 40.868193 22.920465 40.079169 22.920465 39.256564 
C 22.920465 38.433958 22.593641 37.644934 22.011971 37.063264 
C 21.430301 36.481594 20.641277 36.154769 19.818671 36.154769 
C 18.996066 36.154769 18.207041 36.481594 17.625371 37.063264 
C 17.043701 37.644934 16.716877 38.433958 16.716877 39.256564 
C 16.716877 40.079169 17.043701 40.868193 17.625371 41.449863 
C 18.207041 42.031533 18.996066 42.358358 19.818671 42.358358 
z
" clip-path="url(#pa640891916)" style="fill-opacity: 0.4; stroke: #000000; stroke-opacity: 0.4; stroke-width: 0.886227"/>
    <path d="M 19.324979 49.055418 
C 20.147585 49.055418 20.936609 48.728593 21.518279 48.146923 
C 22.099949 47.565253 22.426774 46.776229 22.426774 45.953623 
C 22.426774 45.131018 22.099949 44.341993 21.518279 43.760324 
C 20.936609 43.178654 20.147585 42.851829 19.324979 42.851829 
C 18.502374 42.851829 17.71335 43.178654 17.13168 43.760324 
C 16.55001 44.341993 16.223185 45.131018 16.223185 45.953623 
C 16.223185 46.776229 16.55001 47.565253 17.13168 48.146923 
C 17.71335 48.728593 18.502374 49.055418 19.324979 49.055418 
z
" clip-path="url(#pa640891916)" style="fill-opacity: 0.4; stroke: #000000; stroke-opacity: 0.4; stroke-width: 0.886227"/>
    <path d="M 19.09923 75.761149 
C 19.921835 75.761149 20.71086 75.434324 21.29253 74.852654 
C 21.8742 74.270984 22.201024 73.48196 22.201024 72.659354 
C 22.201024 71.836749 21.8742 71.047725 21.29253 70.466055 
C 20.71086 69.884385 19.921835 69.55756 19.09923 69.55756 
C 18.276625 69.55756 17.4876 69.884385 16.90593 70.466055 
C 16.32426 71.047725 15.997436 71.836749 15.997436 72.659354 
C 15.997436 73.48196 16.32426 74.270984 16.90593 74.852654 
C 17.4876 75.434324 18.276625 75.761149 19.09923 75.761149 
z
" clip-path="url(#pa640891916)" style="fill-opacity: 0.4; stroke: #000000; stroke-opacity: 0.4; stroke-width: 0.886227"/>
    <path d="M 18.827616 78.357774 
C 19.650222 78.357774 20.439246 78.030949 21.020916 77.449279 
C 21.602586 76.867609 21.92941 76.078585 21.92941 75.255979 
C 21.92941 74.433374 21.602586 73.64435 21.020916 73.06268 
C 20.439246 72.48101 19.650222 72.154185 18.827616 72.154185 
C 18.005011 72.154185 17.215986 72.48101 16.634316 73.06268 
C 16.052647 73.64435 15.725822 74.433374 15.725822 75.255979 
C 15.725822 76.078585 16.052647 76.867609 16.634316 77.449279 
C 17.215986 78.030949 18.005011 78.357774 18.827616 78.357774 
z
" clip-path="url(#pa640891916)" style="fill-opacity: 0.4; stroke: #000000; stroke-opacity: 0.4; stroke-width: 0.886227"/>
    <path d="M 18.89189 49.982282 
C 19.714496 49.982282 20.50352 49.655457 21.08519 49.073787 
C 21.66686 48.492117 21.993685 47.703093 21.993685 46.880488 
C 21.993685 46.057882 21.66686 45.268858 21.08519 44.687188 
C 20.50352 44.105518 19.714496 43.778693 18.89189 43.778693 
C 18.069285 43.778693 17.28026 44.105518 16.698591 44.687188 
C 16.116921 45.268858 15.790096 46.057882 15.790096 46.880488 
C 15.790096 47.703093 16.116921 48.492117 16.698591 49.073787 
C 17.28026 49.655457 18.069285 49.982282 18.89189 49.982282 
z
" clip-path="url(#pa640891916)" style="fill-opacity: 0.4; stroke: #000000; stroke-opacity: 0.4; stroke-width: 0.886227"/>
    <path d="M 18.827302 76.445781 
C 19.649907 76.445781 20.438932 76.118957 21.020601 75.537287 
C 21.602271 74.955617 21.929096 74.166593 21.929096 73.343987 
C 21.929096 72.521382 21.602271 71.732357 21.020601 71.150688 
C 20.438932 70.569018 19.649907 70.242193 18.827302 70.242193 
C 18.004696 70.242193 17.215672 70.569018 16.634002 71.150688 
C 16.052332 71.732357 15.725507 72.521382 15.725507 73.343987 
C 15.725507 74.166593 16.052332 74.955617 16.634002 75.537287 
C 17.215672 76.118957 18.004696 76.445781 18.827302 76.445781 
z
" clip-path="url(#pa640891916)" style="fill-opacity: 0.4; stroke: #000000; stroke-opacity: 0.4; stroke-width: 0.886227"/>
    <path d="M 20.685876 47.640623 
C 21.508482 47.640623 22.297506 47.313799 22.879176 46.732129 
C 23.460846 46.150459 23.78767 45.361434 23.78767 44.538829 
C 23.78767 43.716224 23.460846 42.927199 22.879176 42.345529 
C 22.297506 41.763859 21.508482 41.437035 20.685876 41.437035 
C 19.863271 41.437035 19.074246 41.763859 18.492577 42.345529 
C 17.910907 42.927199 17.584082 43.716224 17.584082 44.538829 
C 17.584082 45.361434 17.910907 46.150459 18.492577 46.732129 
C 19.074246 47.313799 19.863271 47.640623 20.685876 47.640623 
z
" clip-path="url(#pa640891916)" style="fill-opacity: 0.4; stroke: #000000; stroke-opacity: 0.4; stroke-width: 0.886227"/>
    <path d="M 20.202175 43.202917 
C 21.024781 43.202917 21.813805 42.876092 22.395475 42.294422 
C 22.977145 41.712753 23.303969 40.923728 23.303969 40.101123 
C 23.303969 39.278517 22.977145 38.489493 22.395475 37.907823 
C 21.813805 37.326153 21.024781 36.999328 20.202175 36.999328 
C 19.37957 36.999328 18.590545 37.326153 18.008876 37.907823 
C 17.427206 38.489493 17.100381 39.278517 17.100381 40.101123 
C 17.100381 40.923728 17.427206 41.712753 18.008876 42.294422 
C 18.590545 42.876092 19.37957 43.202917 20.202175 43.202917 
z
" clip-path="url(#pa640891916)" style="fill-opacity: 0.4; stroke: #000000; stroke-opacity: 0.4; stroke-width: 0.886227"/>
    <path d="M 18.828907 44.89333 
C 19.651513 44.89333 20.440537 44.566505 21.022207 43.984835 
C 21.603877 43.403165 21.930701 42.614141 21.930701 41.791536 
C 21.930701 40.96893 21.603877 40.179906 21.022207 39.598236 
C 20.440537 39.016566 19.651513 38.689741 18.828907 38.689741 
C 18.006302 38.689741 17.217277 39.016566 16.635607 39.598236 
C 16.053937 40.179906 15.727113 40.96893 15.727113 41.791536 
C 15.727113 42.614141 16.053937 43.403165 16.635607 43.984835 
C 17.217277 44.566505 18.006302 44.89333 18.828907 44.89333 
z
" clip-path="url(#pa640891916)" style="fill-opacity: 0.4; stroke: #000000; stroke-opacity: 0.4; stroke-width: 0.886227"/>
    <path d="M 18.891066 42.770883 
C 19.713672 42.770883 20.502696 42.444058 21.084366 41.862388 
C 21.666036 41.280718 21.992861 40.491694 21.992861 39.669088 
C 21.992861 38.846483 21.666036 38.057459 21.084366 37.475789 
C 20.502696 36.894119 19.713672 36.567294 18.891066 36.567294 
C 18.068461 36.567294 17.279437 36.894119 16.697767 37.475789 
C 16.116097 38.057459 15.789272 38.846483 15.789272 39.669088 
C 15.789272 40.491694 16.116097 41.280718 16.697767 41.862388 
C 17.279437 42.444058 18.068461 42.770883 18.891066 42.770883 
z
" clip-path="url(#pa640891916)" style="fill-opacity: 0.4; stroke: #000000; stroke-opacity: 0.4; stroke-width: 0.886227"/>
    <path d="M 23.639659 49.619962 
C 24.462264 49.619962 25.251288 49.293137 25.832958 48.711467 
C 26.414628 48.129797 26.741453 47.340773 26.741453 46.518167 
C 26.741453 45.695562 26.414628 44.906538 25.832958 44.324868 
C 25.251288 43.743198 24.462264 43.416373 23.639659 43.416373 
C 22.817053 43.416373 22.028029 43.743198 21.446359 44.324868 
C 20.864689 44.906538 20.537864 45.695562 20.537864 46.518167 
C 20.537864 47.340773 20.864689 48.129797 21.446359 48.711467 
C 22.028029 49.293137 22.817053 49.619962 23.639659 49.619962 
z
" clip-path="url(#pa640891916)" style="fill-opacity: 0.4; stroke: #000000; stroke-opacity: 0.4; stroke-width: 0.886227"/>
    <path d="M 71.951322 42.910836 
C 72.773928 42.910836 73.562952 42.584011 74.144622 42.002342 
C 74.726292 41.420672 75.053116 40.631647 75.053116 39.809042 
C 75.053116 38.986436 74.726292 38.197412 74.144622 37.615742 
C 73.562952 37.034072 72.773928 36.707248 71.951322 36.707248 
C 71.128717 36.707248 70.339692 37.034072 69.758022 37.615742 
C 69.176353 38.197412 68.849528 38.986436 68.849528 39.809042 
C 68.849528 40.631647 69.176353 41.420672 69.758022 42.002342 
C 70.339692 42.584011 71.128717 42.910836 71.951322 42.910836 
z
" clip-path="url(#pa640891916)" style="fill-opacity: 0.4; stroke: #000000; stroke-opacity: 0.4; stroke-width: 0.886227"/>
    <path d="M 33.274092 42.974118 
C 34.096698 42.974118 34.885722 42.647293 35.467392 42.065623 
C 36.049062 41.483953 36.375887 40.694929 36.375887 39.872323 
C 36.375887 39.049718 36.049062 38.260694 35.467392 37.679024 
C 34.885722 37.097354 34.096698 36.770529 33.274092 36.770529 
C 32.451487 36.770529 31.662463 37.097354 31.080793 37.679024 
C 30.499123 38.260694 30.172298 39.049718 30.172298 39.872323 
C 30.172298 40.694929 30.499123 41.483953 31.080793 42.065623 
C 31.662463 42.647293 32.451487 42.974118 33.274092 42.974118 
z
" clip-path="url(#pa640891916)" style="fill-opacity: 0.4; stroke: #000000; stroke-opacity: 0.4; stroke-width: 0.886227"/>
    <path d="M 30.24953 47.83405 
C 31.072135 47.83405 31.86116 47.507225 32.442829 46.925555 
C 33.024499 46.343885 33.351324 45.554861 33.351324 44.732255 
C 33.351324 43.90965 33.024499 43.120626 32.442829 42.538956 
C 31.86116 41.957286 31.072135 41.630461 30.24953 41.630461 
C 29.426924 41.630461 28.6379 41.957286 28.05623 42.538956 
C 27.47456 43.120626 27.147735 43.90965 27.147735 44.732255 
C 27.147735 45.554861 27.47456 46.343885 28.05623 46.925555 
C 28.6379 47.507225 29.426924 47.83405 30.24953 47.83405 
z
" clip-path="url(#pa640891916)" style="fill-opacity: 0.4; stroke: #000000; stroke-opacity: 0.4; stroke-width: 0.886227"/>
    <path d="M 18.828083 74.182258 
C 19.650689 74.182258 20.439713 73.855433 21.021383 73.273763 
C 21.603053 72.692093 21.929878 71.903069 21.929878 71.080463 
C 21.929878 70.257858 21.603053 69.468833 21.021383 68.887164 
C 20.439713 68.305494 19.650689 67.978669 18.828083 67.978669 
C 18.005478 67.978669 17.216453 68.305494 16.634784 68.887164 
C 16.053114 69.468833 15.726289 70.257858 15.726289 71.080463 
C 15.726289 71.903069 16.053114 72.692093 16.634784 73.273763 
C 17.216453 73.855433 18.005478 74.182258 18.828083 74.182258 
z
" clip-path="url(#pa640891916)" style="fill-opacity: 0.4; stroke: #000000; stroke-opacity: 0.4; stroke-width: 0.886227"/>
    <path d="M 18.828495 47.431284 
C 19.6511 47.431284 20.440125 47.10446 21.021795 46.52279 
C 21.603465 45.94112 21.930289 45.152095 21.930289 44.32949 
C 21.930289 43.506884 21.603465 42.71786 21.021795 42.13619 
C 20.440125 41.55452 19.6511 41.227696 18.828495 41.227696 
C 18.00589 41.227696 17.216865 41.55452 16.635195 42.13619 
C 16.053525 42.71786 15.726701 43.506884 15.726701 44.32949 
C 15.726701 45.152095 16.053525 45.94112 16.635195 46.52279 
C 17.216865 47.10446 18.00589 47.431284 18.828495 47.431284 
z
" clip-path="url(#pa640891916)" style="fill-opacity: 0.4; stroke: #000000; stroke-opacity: 0.4; stroke-width: 0.886227"/>
    <path d="M 20.756143 104.181243 
C 21.578749 104.181243 22.367773 103.854419 22.949443 103.272749 
C 23.531113 102.691079 23.857938 101.902055 23.857938 101.079449 
C 23.857938 100.256844 23.531113 99.467819 22.949443 98.886149 
C 22.367773 98.30448 21.578749 97.977655 20.756143 97.977655 
C 19.933538 97.977655 19.144514 98.30448 18.562844 98.886149 
C 17.981174 99.467819 17.654349 100.256844 17.654349 101.079449 
C 17.654349 101.902055 17.981174 102.691079 18.562844 103.272749 
C 19.144514 103.854419 19.933538 104.181243 20.756143 104.181243 
z
" clip-path="url(#pa640891916)" style="fill-opacity: 0.4; stroke: #000000; stroke-opacity: 0.4; stroke-width: 0.886227"/>
    <path d="M 18.828398 103.183525 
C 19.651004 103.183525 20.440028 102.856701 21.021698 102.275031 
C 21.603368 101.693361 21.930193 100.904336 21.930193 100.081731 
C 21.930193 99.259126 21.603368 98.470101 21.021698 97.888431 
C 20.440028 97.306761 19.651004 96.979937 18.828398 96.979937 
C 18.005793 96.979937 17.216769 97.306761 16.635099 97.888431 
C 16.053429 98.470101 15.726604 99.259126 15.726604 100.081731 
C 15.726604 100.904336 16.053429 101.693361 16.635099 102.275031 
C 17.216769 102.856701 18.005793 103.183525 18.828398 103.183525 
z
" clip-path="url(#pa640891916)" style="fill-opacity: 0.4; stroke: #000000; stroke-opacity: 0.4; stroke-width: 0.886227"/>
    <path d="M 18.829166 49.200811 
C 19.651771 49.200811 20.440795 48.873986 21.022465 48.292316 
C 21.604135 47.710646 21.93096 46.921622 21.93096 46.099016 
C 21.93096 45.276411 21.604135 44.487386 21.022465 43.905717 
C 20.440795 43.324047 19.651771 42.997222 18.829166 42.997222 
C 18.00656 42.997222 17.217536 43.324047 16.635866 43.905717 
C 16.054196 44.487386 15.727371 45.276411 15.727371 46.099016 
C 15.727371 46.921622 16.054196 47.710646 16.635866 48.292316 
C 17.217536 48.873986 18.00656 49.200811 18.829166 49.200811 
z
" clip-path="url(#pa640891916)" style="fill-opacity: 0.4; stroke: #000000; stroke-opacity: 0.4; stroke-width: 0.886227"/>
    <path d="M 85.879476 50.692267 
C 86.702081 50.692267 87.491105 50.365442 88.072775 49.783772 
C 88.654445 49.202102 88.98127 48.413078 88.98127 47.590473 
C 88.98127 46.767867 88.654445 45.978843 88.072775 45.397173 
C 87.491105 44.815503 86.702081 44.488678 85.879476 44.488678 
C 85.05687 44.488678 84.267846 44.815503 83.686176 45.397173 
C 83.104506 45.978843 82.777681 46.767867 82.777681 47.590473 
C 82.777681 48.413078 83.104506 49.202102 83.686176 49.783772 
C 84.267846 50.365442 85.05687 50.692267 85.879476 50.692267 
z
" clip-path="url(#pa640891916)" style="fill-opacity: 0.4; stroke: #000000; stroke-opacity: 0.4; stroke-width: 0.886227"/>
    <path d="M 18.827555 74.457411 
C 19.65016 74.457411 20.439185 74.130587 21.020855 73.548917 
C 21.602524 72.967247 21.929349 72.178223 21.929349 71.355617 
C 21.929349 70.533012 21.602524 69.743987 21.020855 69.162317 
C 20.439185 68.580647 19.65016 68.253823 18.827555 68.253823 
C 18.004949 68.253823 17.215925 68.580647 16.634255 69.162317 
C 16.052585 69.743987 15.725761 70.533012 15.725761 71.355617 
C 15.725761 72.178223 16.052585 72.967247 16.634255 73.548917 
C 17.215925 74.130587 18.004949 74.457411 18.827555 74.457411 
z
" clip-path="url(#pa640891916)" style="fill-opacity: 0.4; stroke: #000000; stroke-opacity: 0.4; stroke-width: 0.886227"/>
    <path d="M 18.829006 42.547215 
C 19.651611 42.547215 20.440636 42.22039 21.022305 41.63872 
C 21.603975 41.05705 21.9308 40.268026 21.9308 39.44542 
C 21.9308 38.622815 21.603975 37.833791 21.022305 37.252121 
C 20.440636 36.670451 19.651611 36.343626 18.829006 36.343626 
C 18.0064 36.343626 17.217376 36.670451 16.635706 37.252121 
C 16.054036 37.833791 15.727211 38.622815 15.727211 39.44542 
C 15.727211 40.268026 16.054036 41.05705 16.635706 41.63872 
C 17.217376 42.22039 18.0064 42.547215 18.829006 42.547215 
z
" clip-path="url(#pa640891916)" style="fill-opacity: 0.4; stroke: #000000; stroke-opacity: 0.4; stroke-width: 0.886227"/>
    <path d="M 37.199431 48.331074 
C 38.022036 48.331074 38.81106 48.00425 39.39273 47.42258 
C 39.9744 46.84091 40.301225 46.051886 40.301225 45.22928 
C 40.301225 44.406675 39.9744 43.61765 39.39273 43.03598 
C 38.81106 42.45431 38.022036 42.127486 37.199431 42.127486 
C 36.376825 42.127486 35.587801 42.45431 35.006131 43.03598 
C 34.424461 43.61765 34.097636 44.406675 34.097636 45.22928 
C 34.097636 46.051886 34.424461 46.84091 35.006131 47.42258 
C 35.587801 48.00425 36.376825 48.331074 37.199431 48.331074 
z
" clip-path="url(#pa640891916)" style="fill-opacity: 0.4; stroke: #000000; stroke-opacity: 0.4; stroke-width: 0.886227"/>
    <path d="M 23.866216 43.052877 
C 24.688821 43.052877 25.477846 42.726053 26.059516 42.144383 
C 26.641185 41.562713 26.96801 40.773689 26.96801 39.951083 
C 26.96801 39.128478 26.641185 38.339453 26.059516 37.757783 
C 25.477846 37.176113 24.688821 36.849289 23.866216 36.849289 
C 23.04361 36.849289 22.254586 37.176113 21.672916 37.757783 
C 21.091246 38.339453 20.764422 39.128478 20.764422 39.951083 
C 20.764422 40.773689 21.091246 41.562713 21.672916 42.144383 
C 22.254586 42.726053 23.04361 43.052877 23.866216 43.052877 
z
" clip-path="url(#pa640891916)" style="fill-opacity: 0.4; stroke: #000000; stroke-opacity: 0.4; stroke-width: 0.886227"/>
    <path d="M 18.827273 111.227594 
C 19.649878 111.227594 20.438903 110.90077 21.020572 110.3191 
C 21.602242 109.73743 21.929067 108.948405 21.929067 108.1258 
C 21.929067 107.303194 21.602242 106.51417 21.020572 105.9325 
C 20.438903 105.35083 19.649878 105.024006 18.827273 105.024006 
C 18.004667 105.024006 17.215643 105.35083 16.633973 105.9325 
C 16.052303 106.51417 15.725478 107.303194 15.725478 108.1258 
C 15.725478 108.948405 16.052303 109.73743 16.633973 110.3191 
C 17.215643 110.90077 18.004667 111.227594 18.827273 111.227594 
z
" clip-path="url(#pa640891916)" style="fill-opacity: 0.4; stroke: #000000; stroke-opacity: 0.4; stroke-width: 0.886227"/>
    <path d="M 35.984828 49.111515 
C 36.807433 49.111515 37.596458 48.78469 38.178127 48.20302 
C 38.759797 47.62135 39.086622 46.832326 39.086622 46.009721 
C 39.086622 45.187115 38.759797 44.398091 38.178127 43.816421 
C 37.596458 43.234751 36.807433 42.907926 35.984828 42.907926 
C 35.162222 42.907926 34.373198 43.234751 33.791528 43.816421 
C 33.209858 44.398091 32.883033 45.187115 32.883033 46.009721 
C 32.883033 46.832326 33.209858 47.62135 33.791528 48.20302 
C 34.373198 48.78469 35.162222 49.111515 35.984828 49.111515 
z
" clip-path="url(#pa640891916)" style="fill-opacity: 0.4; stroke: #000000; stroke-opacity: 0.4; stroke-width: 0.886227"/>
    <path d="M 18.828822 79.629909 
C 19.651428 79.629909 20.440452 79.303085 21.022122 78.721415 
C 21.603792 78.139745 21.930617 77.35072 21.930617 76.528115 
C 21.930617 75.705509 21.603792 74.916485 21.022122 74.334815 
C 20.440452 73.753145 19.651428 73.426321 18.828822 73.426321 
C 18.006217 73.426321 17.217192 73.753145 16.635523 74.334815 
C 16.053853 74.916485 15.727028 75.705509 15.727028 76.528115 
C 15.727028 77.35072 16.053853 78.139745 16.635523 78.721415 
C 17.217192 79.303085 18.006217 79.629909 18.828822 79.629909 
z
" clip-path="url(#pa640891916)" style="fill-opacity: 0.4; stroke: #000000; stroke-opacity: 0.4; stroke-width: 0.886227"/>
    <path d="M 35.596301 43.673727 
C 36.418907 43.673727 37.207931 43.346902 37.789601 42.765233 
C 38.371271 42.183563 38.698096 41.394538 38.698096 40.571933 
C 38.698096 39.749327 38.371271 38.960303 37.789601 38.378633 
C 37.207931 37.796963 36.418907 37.470139 35.596301 37.470139 
C 34.773696 37.470139 33.984672 37.796963 33.403002 38.378633 
C 32.821332 38.960303 32.494507 39.749327 32.494507 40.571933 
C 32.494507 41.394538 32.821332 42.183563 33.403002 42.765233 
C 33.984672 43.346902 34.773696 43.673727 35.596301 43.673727 
z
" clip-path="url(#pa640891916)" style="fill-opacity: 0.4; stroke: #000000; stroke-opacity: 0.4; stroke-width: 0.886227"/>
   </g>
   <g id="PolyCollection_1">
    <defs>
     <path id="mb44cb241b1" d="M 22.401751 -44.325312 
L 22.401751 -44.325312 
L 22.401751 -71.612187 
L 22.401751 -71.612187 
L 22.401751 -44.325312 
z
" style="stroke: #56b4e9; stroke-width: 0.886227"/>
    </defs>
    <g clip-path="url(#pa640891916)">
     <use xlink:href="#mb44cb241b1" x="0" y="161.784201" style="fill-opacity: 0; stroke: #56b4e9; stroke-width: 0.886227"/>
    </g>
   </g>
   <g id="LineCollection_1">
    <path d="M 22.401751 117.458888 
L 22.401751 90.172013 
" clip-path="url(#pa640891916)" style="fill: none; stroke: #56b4e9; stroke-width: 1.772454"/>
   </g>
   <g id="PolyCollection_2">
    <defs>
     <path id="mda31344874" d="M 18.894451 -74.644062 
L 18.894451 -74.644062 
L 18.894451 -101.930937 
L 18.894451 -101.930937 
L 18.894451 -74.644062 
z
" style="stroke: #56b4e9; stroke-width: 0.886227"/>
    </defs>
    <g clip-path="url(#pa640891916)">
     <use xlink:href="#mda31344874" x="0" y="161.784201" style="fill-opacity: 0; stroke: #56b4e9; stroke-width: 0.886227"/>
    </g>
   </g>
   <g id="LineCollection_2">
    <path d="M 18.894451 87.140138 
L 18.894451 59.853263 
" clip-path="url(#pa640891916)" style="fill: none; stroke: #56b4e9; stroke-width: 1.772454"/>
   </g>
   <g id="PolyCollection_3">
    <defs>
     <path id="m9a1370ca0b" d="M 30.4276 -104.962812 
L 30.4276 -104.962812 
L 30.4276 -132.249687 
L 30.4276 -132.249687 
L 30.4276 -104.962812 
z
" style="stroke: #56b4e9; stroke-width: 0.886227"/>
    </defs>
    <g clip-path="url(#pa640891916)">
     <use xlink:href="#m9a1370ca0b" x="0" y="161.784201" style="fill-opacity: 0; stroke: #56b4e9; stroke-width: 0.886227"/>
    </g>
   </g>
   <g id="LineCollection_3">
    <path d="M 30.4276 56.821388 
L 30.4276 29.534513 
" clip-path="url(#pa640891916)" style="fill: none; stroke: #56b4e9; stroke-width: 1.772454"/>
   </g>
   <g id="patch_3">
    <path d="M 9.95 122.006701 
L 9.95 24.986701 
" style="fill: none; stroke: #000000; stroke-linejoin: miter; stroke-linecap: square"/>
   </g>
   <g id="patch_4">
    <path d="M 9.95 122.006701 
L 205.25 122.006701 
" style="fill: none; stroke: #000000; stroke-linejoin: miter; stroke-linecap: square"/>
   </g>
  </g>
  <g id="text_7">
   <!-- Viral progeny production -->
   <g transform="translate(30.307813 16.318125)scale(0.12 -0.12)">
    <defs>
     <path id="DejaVuSans-56" d="M 1831 0 
L 50 4666 
L 709 4666 
L 2188 738 
L 3669 4666 
L 4325 4666 
L 2547 0 
L 1831 0 
z
" transform="scale(0.015625)"/>
     <path id="DejaVuSans-64" d="M 2906 2969 
L 2906 4863 
L 3481 4863 
L 3481 0 
L 2906 0 
L 2906 525 
Q 2725 213 2448 61 
Q 2172 -91 1784 -91 
Q 1150 -91 751 415 
Q 353 922 353 1747 
Q 353 2572 751 3078 
Q 1150 3584 1784 3584 
Q 2172 3584 2448 3432 
Q 2725 3281 2906 2969 
z
M 947 1747 
Q 947 1113 1208 752 
Q 1469 391 1925 391 
Q 2381 391 2643 752 
Q 2906 1113 2906 1747 
Q 2906 2381 2643 2742 
Q 2381 3103 1925 3103 
Q 1469 3103 1208 2742 
Q 947 2381 947 1747 
z
" transform="scale(0.015625)"/>
     <path id="DejaVuSans-75" d="M 544 1381 
L 544 3500 
L 1119 3500 
L 1119 1403 
Q 1119 906 1312 657 
Q 1506 409 1894 409 
Q 2359 409 2629 706 
Q 2900 1003 2900 1516 
L 2900 3500 
L 3475 3500 
L 3475 0 
L 2900 0 
L 2900 538 
Q 2691 219 2414 64 
Q 2138 -91 1772 -91 
Q 1169 -91 856 284 
Q 544 659 544 1381 
z
M 1991 3584 
L 1991 3584 
z
" transform="scale(0.015625)"/>
    </defs>
    <use xlink:href="#DejaVuSans-56"/>
    <use xlink:href="#DejaVuSans-69" x="66.158203"/>
    <use xlink:href="#DejaVuSans-72" x="93.941406"/>
    <use xlink:href="#DejaVuSans-61" x="135.054688"/>
    <use xlink:href="#DejaVuSans-6c" x="196.333984"/>
    <use xlink:href="#DejaVuSans-20" x="224.117188"/>
    <use xlink:href="#DejaVuSans-70" x="255.904297"/>
    <use xlink:href="#DejaVuSans-72" x="319.380859"/>
    <use xlink:href="#DejaVuSans-6f" x="358.244141"/>
    <use xlink:href="#DejaVuSans-67" x="419.425781"/>
    <use xlink:href="#DejaVuSans-65" x="482.902344"/>
    <use xlink:href="#DejaVuSans-6e" x="544.425781"/>
    <use xlink:href="#DejaVuSans-79" x="607.804688"/>
    <use xlink:href="#DejaVuSans-20" x="666.984375"/>
    <use xlink:href="#DejaVuSans-70" x="698.771484"/>
    <use xlink:href="#DejaVuSans-72" x="762.248047"/>
    <use xlink:href="#DejaVuSans-6f" x="801.111328"/>
    <use xlink:href="#DejaVuSans-64" x="862.292969"/>
    <use xlink:href="#DejaVuSans-75" x="925.769531"/>
    <use xlink:href="#DejaVuSans-63" x="989.148438"/>
    <use xlink:href="#DejaVuSans-74" x="1044.128906"/>
    <use xlink:href="#DejaVuSans-69" x="1083.337891"/>
    <use xlink:href="#DejaVuSans-6f" x="1111.121094"/>
    <use xlink:href="#DejaVuSans-6e" x="1172.302734"/>
   </g>
  </g>
 </g>
 <defs>
  <clipPath id="pa640891916">
   <rect x="9.95" y="24.986701" width="195.3" height="97.02"/>
  </clipPath>
 </defs>
</svg>
