<?xml version="1.0" encoding="utf-8" standalone="no"?>
<!DOCTYPE svg PUBLIC "-//W3C//DTD SVG 1.1//EN"
  "http://www.w3.org/Graphics/SVG/1.1/DTD/svg11.dtd">
<svg xmlns:xlink="http://www.w3.org/1999/xlink" width="223.2pt" height="158.4pt" viewBox="0 0 223.2 158.4" xmlns="http://www.w3.org/2000/svg" version="1.1">
 <metadata>
  <rdf:RDF xmlns:dc="http://purl.org/dc/elements/1.1/" xmlns:cc="http://creativecommons.org/ns#" xmlns:rdf="http://www.w3.org/1999/02/22-rdf-syntax-ns#">
   <cc:Work>
    <dc:type rdf:resource="http://purl.org/dc/dcmitype/StillImage"/>
    <dc:date>2022-10-27T09:10:54.421262</dc:date>
    <dc:format>image/svg+xml</dc:format>
    <dc:creator>
     <cc:Agent>
      <dc:title>Matplotlib v3.5.2, https://matplotlib.org/</dc:title>
     </cc:Agent>
    </dc:creator>
   </cc:Work>
  </rdf:RDF>
 </metadata>
 <defs>
  <style type="text/css">*{stroke-linejoin: round; stroke-linecap: butt}</style>
 </defs>
 <g id="figure_1">
  <g id="patch_1">
   <path d="M 0 158.4 
L 223.2 158.4 
L 223.2 0 
L 0 0 
z
" style="fill: #ffffff"/>
  </g>
  <g id="axes_1">
   <g id="patch_2">
    <path d="M 14.3 116.33875 
L 212.4 116.33875 
L 212.4 25.44 
L 14.3 25.44 
z
" style="fill: #ffffff"/>
   </g>
   <g id="matplotlib.axis_1">
    <g id="xtick_1">
     <g id="line2d_1">
      <defs>
       <path id="m4c58f08b91" d="M 0 0 
L 0 3.5 
" style="stroke: #000000; stroke-width: 0.8"/>
      </defs>
      <g>
       <use xlink:href="#m4c58f08b91" x="23.150685" y="116.33875" style="stroke: #000000; stroke-width: 0.8"/>
      </g>
     </g>
     <g id="text_1">
      <!-- 0.00 -->
      <g transform="translate(12.017873 130.937188)scale(0.1 -0.1)">
       <defs>
        <path id="DejaVuSans-30" d="M 2034 4250 
Q 1547 4250 1301 3770 
Q 1056 3291 1056 2328 
Q 1056 1369 1301 889 
Q 1547 409 2034 409 
Q 2525 409 2770 889 
Q 3016 1369 3016 2328 
Q 3016 3291 2770 3770 
Q 2525 4250 2034 4250 
z
M 2034 4750 
Q 2819 4750 3233 4129 
Q 3647 3509 3647 2328 
Q 3647 1150 3233 529 
Q 2819 -91 2034 -91 
Q 1250 -91 836 529 
Q 422 1150 422 2328 
Q 422 3509 836 4129 
Q 1250 4750 2034 4750 
z
" transform="scale(0.015625)"/>
        <path id="DejaVuSans-2e" d="M 684 794 
L 1344 794 
L 1344 0 
L 684 0 
L 684 794 
z
" transform="scale(0.015625)"/>
       </defs>
       <use xlink:href="#DejaVuSans-30"/>
       <use xlink:href="#DejaVuSans-2e" x="63.623047"/>
       <use xlink:href="#DejaVuSans-30" x="95.410156"/>
       <use xlink:href="#DejaVuSans-30" x="159.033203"/>
      </g>
     </g>
    </g>
    <g id="xtick_2">
     <g id="line2d_2">
      <g>
       <use xlink:href="#m4c58f08b91" x="65.899153" y="116.33875" style="stroke: #000000; stroke-width: 0.8"/>
      </g>
     </g>
     <g id="text_2">
      <!-- 0.05 -->
      <g transform="translate(54.76634 130.937188)scale(0.1 -0.1)">
       <defs>
        <path id="DejaVuSans-35" d="M 691 4666 
L 3169 4666 
L 3169 4134 
L 1269 4134 
L 1269 2991 
Q 1406 3038 1543 3061 
Q 1681 3084 1819 3084 
Q 2600 3084 3056 2656 
Q 3513 2228 3513 1497 
Q 3513 744 3044 326 
Q 2575 -91 1722 -91 
Q 1428 -91 1123 -41 
Q 819 9 494 109 
L 494 744 
Q 775 591 1075 516 
Q 1375 441 1709 441 
Q 2250 441 2565 725 
Q 2881 1009 2881 1497 
Q 2881 1984 2565 2268 
Q 2250 2553 1709 2553 
Q 1456 2553 1204 2497 
Q 953 2441 691 2322 
L 691 4666 
z
" transform="scale(0.015625)"/>
       </defs>
       <use xlink:href="#DejaVuSans-30"/>
       <use xlink:href="#DejaVuSans-2e" x="63.623047"/>
       <use xlink:href="#DejaVuSans-30" x="95.410156"/>
       <use xlink:href="#DejaVuSans-35" x="159.033203"/>
      </g>
     </g>
    </g>
    <g id="xtick_3">
     <g id="line2d_3">
      <g>
       <use xlink:href="#m4c58f08b91" x="108.647621" y="116.33875" style="stroke: #000000; stroke-width: 0.8"/>
      </g>
     </g>
     <g id="text_3">
      <!-- 0.10 -->
      <g transform="translate(97.514808 130.937188)scale(0.1 -0.1)">
       <defs>
        <path id="DejaVuSans-31" d="M 794 531 
L 1825 531 
L 1825 4091 
L 703 3866 
L 703 4441 
L 1819 4666 
L 2450 4666 
L 2450 531 
L 3481 531 
L 3481 0 
L 794 0 
L 794 531 
z
" transform="scale(0.015625)"/>
       </defs>
       <use xlink:href="#DejaVuSans-30"/>
       <use xlink:href="#DejaVuSans-2e" x="63.623047"/>
       <use xlink:href="#DejaVuSans-31" x="95.410156"/>
       <use xlink:href="#DejaVuSans-30" x="159.033203"/>
      </g>
     </g>
    </g>
    <g id="xtick_4">
     <g id="line2d_4">
      <g>
       <use xlink:href="#m4c58f08b91" x="151.396088" y="116.33875" style="stroke: #000000; stroke-width: 0.8"/>
      </g>
     </g>
     <g id="text_4">
      <!-- 0.15 -->
      <g transform="translate(140.263276 130.937188)scale(0.1 -0.1)">
       <use xlink:href="#DejaVuSans-30"/>
       <use xlink:href="#DejaVuSans-2e" x="63.623047"/>
       <use xlink:href="#DejaVuSans-31" x="95.410156"/>
       <use xlink:href="#DejaVuSans-35" x="159.033203"/>
      </g>
     </g>
    </g>
    <g id="xtick_5">
     <g id="line2d_5">
      <g>
       <use xlink:href="#m4c58f08b91" x="194.144556" y="116.33875" style="stroke: #000000; stroke-width: 0.8"/>
      </g>
     </g>
     <g id="text_5">
      <!-- 0.20 -->
      <g transform="translate(183.011743 130.937188)scale(0.1 -0.1)">
       <defs>
        <path id="DejaVuSans-32" d="M 1228 531 
L 3431 531 
L 3431 0 
L 469 0 
L 469 531 
Q 828 903 1448 1529 
Q 2069 2156 2228 2338 
Q 2531 2678 2651 2914 
Q 2772 3150 2772 3378 
Q 2772 3750 2511 3984 
Q 2250 4219 1831 4219 
Q 1534 4219 1204 4116 
Q 875 4013 500 3803 
L 500 4441 
Q 881 4594 1212 4672 
Q 1544 4750 1819 4750 
Q 2544 4750 2975 4387 
Q 3406 4025 3406 3419 
Q 3406 3131 3298 2873 
Q 3191 2616 2906 2266 
Q 2828 2175 2409 1742 
Q 1991 1309 1228 531 
z
" transform="scale(0.015625)"/>
       </defs>
       <use xlink:href="#DejaVuSans-30"/>
       <use xlink:href="#DejaVuSans-2e" x="63.623047"/>
       <use xlink:href="#DejaVuSans-32" x="95.410156"/>
       <use xlink:href="#DejaVuSans-30" x="159.033203"/>
      </g>
     </g>
    </g>
    <g id="text_6">
     <!-- freq_supernatant -->
     <g transform="translate(70.517969 144.615313)scale(0.1 -0.1)">
      <defs>
       <path id="DejaVuSans-66" d="M 2375 4863 
L 2375 4384 
L 1825 4384 
Q 1516 4384 1395 4259 
Q 1275 4134 1275 3809 
L 1275 3500 
L 2222 3500 
L 2222 3053 
L 1275 3053 
L 1275 0 
L 697 0 
L 697 3053 
L 147 3053 
L 147 3500 
L 697 3500 
L 697 3744 
Q 697 4328 969 4595 
Q 1241 4863 1831 4863 
L 2375 4863 
z
" transform="scale(0.015625)"/>
       <path id="DejaVuSans-72" d="M 2631 2963 
Q 2534 3019 2420 3045 
Q 2306 3072 2169 3072 
Q 1681 3072 1420 2755 
Q 1159 2438 1159 1844 
L 1159 0 
L 581 0 
L 581 3500 
L 1159 3500 
L 1159 2956 
Q 1341 3275 1631 3429 
Q 1922 3584 2338 3584 
Q 2397 3584 2469 3576 
Q 2541 3569 2628 3553 
L 2631 2963 
z
" transform="scale(0.015625)"/>
       <path id="DejaVuSans-65" d="M 3597 1894 
L 3597 1613 
L 953 1613 
Q 991 1019 1311 708 
Q 1631 397 2203 397 
Q 2534 397 2845 478 
Q 3156 559 3463 722 
L 3463 178 
Q 3153 47 2828 -22 
Q 2503 -91 2169 -91 
Q 1331 -91 842 396 
Q 353 884 353 1716 
Q 353 2575 817 3079 
Q 1281 3584 2069 3584 
Q 2775 3584 3186 3129 
Q 3597 2675 3597 1894 
z
M 3022 2063 
Q 3016 2534 2758 2815 
Q 2500 3097 2075 3097 
Q 1594 3097 1305 2825 
Q 1016 2553 972 2059 
L 3022 2063 
z
" transform="scale(0.015625)"/>
       <path id="DejaVuSans-71" d="M 947 1747 
Q 947 1113 1208 752 
Q 1469 391 1925 391 
Q 2381 391 2643 752 
Q 2906 1113 2906 1747 
Q 2906 2381 2643 2742 
Q 2381 3103 1925 3103 
Q 1469 3103 1208 2742 
Q 947 2381 947 1747 
z
M 2906 525 
Q 2725 213 2448 61 
Q 2172 -91 1784 -91 
Q 1150 -91 751 415 
Q 353 922 353 1747 
Q 353 2572 751 3078 
Q 1150 3584 1784 3584 
Q 2172 3584 2448 3432 
Q 2725 3281 2906 2969 
L 2906 3500 
L 3481 3500 
L 3481 -1331 
L 2906 -1331 
L 2906 525 
z
" transform="scale(0.015625)"/>
       <path id="DejaVuSans-5f" d="M 3263 -1063 
L 3263 -1509 
L -63 -1509 
L -63 -1063 
L 3263 -1063 
z
" transform="scale(0.015625)"/>
       <path id="DejaVuSans-73" d="M 2834 3397 
L 2834 2853 
Q 2591 2978 2328 3040 
Q 2066 3103 1784 3103 
Q 1356 3103 1142 2972 
Q 928 2841 928 2578 
Q 928 2378 1081 2264 
Q 1234 2150 1697 2047 
L 1894 2003 
Q 2506 1872 2764 1633 
Q 3022 1394 3022 966 
Q 3022 478 2636 193 
Q 2250 -91 1575 -91 
Q 1294 -91 989 -36 
Q 684 19 347 128 
L 347 722 
Q 666 556 975 473 
Q 1284 391 1588 391 
Q 1994 391 2212 530 
Q 2431 669 2431 922 
Q 2431 1156 2273 1281 
Q 2116 1406 1581 1522 
L 1381 1569 
Q 847 1681 609 1914 
Q 372 2147 372 2553 
Q 372 3047 722 3315 
Q 1072 3584 1716 3584 
Q 2034 3584 2315 3537 
Q 2597 3491 2834 3397 
z
" transform="scale(0.015625)"/>
       <path id="DejaVuSans-75" d="M 544 1381 
L 544 3500 
L 1119 3500 
L 1119 1403 
Q 1119 906 1312 657 
Q 1506 409 1894 409 
Q 2359 409 2629 706 
Q 2900 1003 2900 1516 
L 2900 3500 
L 3475 3500 
L 3475 0 
L 2900 0 
L 2900 538 
Q 2691 219 2414 64 
Q 2138 -91 1772 -91 
Q 1169 -91 856 284 
Q 544 659 544 1381 
z
M 1991 3584 
L 1991 3584 
z
" transform="scale(0.015625)"/>
       <path id="DejaVuSans-70" d="M 1159 525 
L 1159 -1331 
L 581 -1331 
L 581 3500 
L 1159 3500 
L 1159 2969 
Q 1341 3281 1617 3432 
Q 1894 3584 2278 3584 
Q 2916 3584 3314 3078 
Q 3713 2572 3713 1747 
Q 3713 922 3314 415 
Q 2916 -91 2278 -91 
Q 1894 -91 1617 61 
Q 1341 213 1159 525 
z
M 3116 1747 
Q 3116 2381 2855 2742 
Q 2594 3103 2138 3103 
Q 1681 3103 1420 2742 
Q 1159 2381 1159 1747 
Q 1159 1113 1420 752 
Q 1681 391 2138 391 
Q 2594 391 2855 752 
Q 3116 1113 3116 1747 
z
" transform="scale(0.015625)"/>
       <path id="DejaVuSans-6e" d="M 3513 2113 
L 3513 0 
L 2938 0 
L 2938 2094 
Q 2938 2591 2744 2837 
Q 2550 3084 2163 3084 
Q 1697 3084 1428 2787 
Q 1159 2491 1159 1978 
L 1159 0 
L 581 0 
L 581 3500 
L 1159 3500 
L 1159 2956 
Q 1366 3272 1645 3428 
Q 1925 3584 2291 3584 
Q 2894 3584 3203 3211 
Q 3513 2838 3513 2113 
z
" transform="scale(0.015625)"/>
       <path id="DejaVuSans-61" d="M 2194 1759 
Q 1497 1759 1228 1600 
Q 959 1441 959 1056 
Q 959 750 1161 570 
Q 1363 391 1709 391 
Q 2188 391 2477 730 
Q 2766 1069 2766 1631 
L 2766 1759 
L 2194 1759 
z
M 3341 1997 
L 3341 0 
L 2766 0 
L 2766 531 
Q 2569 213 2275 61 
Q 1981 -91 1556 -91 
Q 1019 -91 701 211 
Q 384 513 384 1019 
Q 384 1609 779 1909 
Q 1175 2209 1959 2209 
L 2766 2209 
L 2766 2266 
Q 2766 2663 2505 2880 
Q 2244 3097 1772 3097 
Q 1472 3097 1187 3025 
Q 903 2953 641 2809 
L 641 3341 
Q 956 3463 1253 3523 
Q 1550 3584 1831 3584 
Q 2591 3584 2966 3190 
Q 3341 2797 3341 1997 
z
" transform="scale(0.015625)"/>
       <path id="DejaVuSans-74" d="M 1172 4494 
L 1172 3500 
L 2356 3500 
L 2356 3053 
L 1172 3053 
L 1172 1153 
Q 1172 725 1289 603 
Q 1406 481 1766 481 
L 2356 481 
L 2356 0 
L 1766 0 
Q 1100 0 847 248 
Q 594 497 594 1153 
L 594 3053 
L 172 3053 
L 172 3500 
L 594 3500 
L 594 4494 
L 1172 4494 
z
" transform="scale(0.015625)"/>
      </defs>
      <use xlink:href="#DejaVuSans-66"/>
      <use xlink:href="#DejaVuSans-72" x="35.205078"/>
      <use xlink:href="#DejaVuSans-65" x="74.068359"/>
      <use xlink:href="#DejaVuSans-71" x="135.591797"/>
      <use xlink:href="#DejaVuSans-5f" x="199.068359"/>
      <use xlink:href="#DejaVuSans-73" x="249.068359"/>
      <use xlink:href="#DejaVuSans-75" x="301.167969"/>
      <use xlink:href="#DejaVuSans-70" x="364.546875"/>
      <use xlink:href="#DejaVuSans-65" x="428.023438"/>
      <use xlink:href="#DejaVuSans-72" x="489.546875"/>
      <use xlink:href="#DejaVuSans-6e" x="528.910156"/>
      <use xlink:href="#DejaVuSans-61" x="592.289062"/>
      <use xlink:href="#DejaVuSans-74" x="653.568359"/>
      <use xlink:href="#DejaVuSans-61" x="692.777344"/>
      <use xlink:href="#DejaVuSans-6e" x="754.056641"/>
      <use xlink:href="#DejaVuSans-74" x="817.435547"/>
     </g>
    </g>
   </g>
   <g id="matplotlib.axis_2">
    <g id="ytick_1">
     <g id="line2d_6">
      <defs>
       <path id="m04499e462a" d="M 0 0 
L -3.5 0 
" style="stroke: #000000; stroke-width: 0.8"/>
      </defs>
      <g>
       <use xlink:href="#m04499e462a" x="14.3" y="40.589792" style="stroke: #000000; stroke-width: 0.8"/>
      </g>
     </g>
    </g>
    <g id="ytick_2">
     <g id="line2d_7">
      <g>
       <use xlink:href="#m04499e462a" x="14.3" y="70.889375" style="stroke: #000000; stroke-width: 0.8"/>
      </g>
     </g>
    </g>
    <g id="ytick_3">
     <g id="line2d_8">
      <g>
       <use xlink:href="#m04499e462a" x="14.3" y="101.188958" style="stroke: #000000; stroke-width: 0.8"/>
      </g>
     </g>
    </g>
   </g>
   <g id="patch_3">
    <path d="M 14.3 116.33875 
L 14.3 25.44 
" style="fill: none; stroke: #000000; stroke-width: 0.8; stroke-linejoin: miter; stroke-linecap: square"/>
   </g>
   <g id="patch_4">
    <path d="M 14.3 116.33875 
L 212.4 116.33875 
" style="fill: none; stroke: #000000; stroke-width: 0.8; stroke-linejoin: miter; stroke-linecap: square"/>
   </g>
   <g id="PathCollection_1">
    <defs>
     <path id="C0_0_7e04b6c2bd" d="M 0 2 
C 0.530406 2 1.03916 1.789267 1.414214 1.414214 
C 1.789267 1.03916 2 0.530406 2 -0 
C 2 -0.530406 1.789267 -1.03916 1.414214 -1.414214 
C 1.03916 -1.789267 0.530406 -2 0 -2 
C -0.530406 -2 -1.03916 -1.789267 -1.414214 -1.414214 
C -1.789267 -1.03916 -2 -0.530406 -2 0 
C -2 0.530406 -1.789267 1.03916 -1.414214 1.414214 
C -1.03916 1.789267 -0.530406 2 0 2 
z
"/>
    </defs>
    <g clip-path="url(#p046e1e77f2)">
     <use xlink:href="#C0_0_7e04b6c2bd" x="23.304545" y="40.589792" style="fill: #4f4f4f"/>
    </g>
    <g clip-path="url(#p046e1e77f2)">
     <use xlink:href="#C0_0_7e04b6c2bd" x="23.304545" y="37.459669" style="fill: #4f4f4f"/>
    </g>
    <g clip-path="url(#p046e1e77f2)">
     <use xlink:href="#C0_0_7e04b6c2bd" x="23.304545" y="43.719914" style="fill: #4f4f4f"/>
    </g>
    <g clip-path="url(#p046e1e77f2)">
     <use xlink:href="#C0_0_7e04b6c2bd" x="23.304545" y="34.329547" style="fill: #4f4f4f"/>
    </g>
    <g clip-path="url(#p046e1e77f2)">
     <use xlink:href="#C0_0_7e04b6c2bd" x="23.304545" y="46.850036" style="fill: #4f4f4f"/>
    </g>
    <g clip-path="url(#p046e1e77f2)">
     <use xlink:href="#C0_0_7e04b6c2bd" x="23.304545" y="49.980158" style="fill: #4f4f4f"/>
    </g>
    <g clip-path="url(#p046e1e77f2)">
     <use xlink:href="#C0_0_7e04b6c2bd" x="23.304545" y="31.199425" style="fill: #4f4f4f"/>
    </g>
    <g clip-path="url(#p046e1e77f2)">
     <use xlink:href="#C0_0_7e04b6c2bd" x="23.304545" y="52.709625" style="fill: #4f4f4f"/>
    </g>
    <g clip-path="url(#p046e1e77f2)">
     <use xlink:href="#C0_0_7e04b6c2bd" x="23.304545" y="28.469958" style="fill: #4f4f4f"/>
    </g>
    <g clip-path="url(#p046e1e77f2)">
     <use xlink:href="#C0_0_7e04b6c2bd" x="23.304545" y="52.709625" style="fill: #4f4f4f"/>
    </g>
    <g clip-path="url(#p046e1e77f2)">
     <use xlink:href="#C0_0_7e04b6c2bd" x="23.304545" y="28.469958" style="fill: #4f4f4f"/>
    </g>
    <g clip-path="url(#p046e1e77f2)">
     <use xlink:href="#C0_0_7e04b6c2bd" x="23.304545" y="52.709625" style="fill: #4f4f4f"/>
    </g>
    <g clip-path="url(#p046e1e77f2)">
     <use xlink:href="#C0_0_7e04b6c2bd" x="23.368276" y="28.469958" style="fill: #4f4f4f"/>
    </g>
    <g clip-path="url(#p046e1e77f2)">
     <use xlink:href="#C0_0_7e04b6c2bd" x="23.368276" y="52.709625" style="fill: #4f4f4f"/>
    </g>
    <g clip-path="url(#p046e1e77f2)">
     <use xlink:href="#C0_0_7e04b6c2bd" x="23.368276" y="28.469958" style="fill: #4f4f4f"/>
    </g>
    <g clip-path="url(#p046e1e77f2)">
     <use xlink:href="#C0_0_7e04b6c2bd" x="23.368276" y="52.709625" style="fill: #4f4f4f"/>
    </g>
    <g clip-path="url(#p046e1e77f2)">
     <use xlink:href="#C0_0_7e04b6c2bd" x="23.368276" y="28.469958" style="fill: #4f4f4f"/>
    </g>
    <g clip-path="url(#p046e1e77f2)">
     <use xlink:href="#C0_0_7e04b6c2bd" x="23.458406" y="52.709625" style="fill: #4f4f4f"/>
    </g>
    <g clip-path="url(#p046e1e77f2)">
     <use xlink:href="#C0_0_7e04b6c2bd" x="23.458406" y="28.469958" style="fill: #4f4f4f"/>
    </g>
    <g clip-path="url(#p046e1e77f2)">
     <use xlink:href="#C0_0_7e04b6c2bd" x="23.527564" y="52.709625" style="fill: #4f4f4f"/>
    </g>
    <g clip-path="url(#p046e1e77f2)">
     <use xlink:href="#C0_0_7e04b6c2bd" x="23.563244" y="28.469958" style="fill: #4f4f4f"/>
    </g>
    <g clip-path="url(#p046e1e77f2)">
     <use xlink:href="#C0_0_7e04b6c2bd" x="23.566031" y="28.469958" style="fill: #4f4f4f"/>
    </g>
    <g clip-path="url(#p046e1e77f2)">
     <use xlink:href="#C0_0_7e04b6c2bd" x="23.80838" y="52.709625" style="fill: #4f4f4f"/>
    </g>
    <g clip-path="url(#p046e1e77f2)">
     <use xlink:href="#C0_0_7e04b6c2bd" x="24.217741" y="28.469958" style="fill: #4f4f4f"/>
    </g>
    <g clip-path="url(#p046e1e77f2)">
     <use xlink:href="#C0_0_7e04b6c2bd" x="24.308354" y="52.709625" style="fill: #4f4f4f"/>
    </g>
    <g clip-path="url(#p046e1e77f2)">
     <use xlink:href="#C0_0_7e04b6c2bd" x="24.393232" y="28.469958" style="fill: #4f4f4f"/>
    </g>
    <g clip-path="url(#p046e1e77f2)">
     <use xlink:href="#C0_0_7e04b6c2bd" x="24.592477" y="52.709625" style="fill: #4f4f4f"/>
    </g>
    <g clip-path="url(#p046e1e77f2)">
     <use xlink:href="#C0_0_7e04b6c2bd" x="24.592477" y="28.469958" style="fill: #4f4f4f"/>
    </g>
    <g clip-path="url(#p046e1e77f2)">
     <use xlink:href="#C0_0_7e04b6c2bd" x="24.698547" y="52.709625" style="fill: #4f4f4f"/>
    </g>
    <g clip-path="url(#p046e1e77f2)">
     <use xlink:href="#C0_0_7e04b6c2bd" x="24.730338" y="28.469958" style="fill: #4f4f4f"/>
    </g>
    <g clip-path="url(#p046e1e77f2)">
     <use xlink:href="#C0_0_7e04b6c2bd" x="24.895079" y="52.709625" style="fill: #4f4f4f"/>
    </g>
    <g clip-path="url(#p046e1e77f2)">
     <use xlink:href="#C0_0_7e04b6c2bd" x="25.013706" y="28.469958" style="fill: #4f4f4f"/>
    </g>
    <g clip-path="url(#p046e1e77f2)">
     <use xlink:href="#C0_0_7e04b6c2bd" x="25.189686" y="52.709625" style="fill: #4f4f4f"/>
    </g>
    <g clip-path="url(#p046e1e77f2)">
     <use xlink:href="#C0_0_7e04b6c2bd" x="25.189686" y="28.469958" style="fill: #4f4f4f"/>
    </g>
    <g clip-path="url(#p046e1e77f2)">
     <use xlink:href="#C0_0_7e04b6c2bd" x="25.295127" y="52.709625" style="fill: #4f4f4f"/>
    </g>
    <g clip-path="url(#p046e1e77f2)">
     <use xlink:href="#C0_0_7e04b6c2bd" x="25.327703" y="28.469958" style="fill: #4f4f4f"/>
    </g>
    <g clip-path="url(#p046e1e77f2)">
     <use xlink:href="#C0_0_7e04b6c2bd" x="25.644271" y="52.709625" style="fill: #4f4f4f"/>
    </g>
    <g clip-path="url(#p046e1e77f2)">
     <use xlink:href="#C0_0_7e04b6c2bd" x="25.749155" y="28.469958" style="fill: #4f4f4f"/>
    </g>
    <g clip-path="url(#p046e1e77f2)">
     <use xlink:href="#C0_0_7e04b6c2bd" x="27.468276" y="39.284743" style="fill: #4f4f4f"/>
    </g>
    <g clip-path="url(#p046e1e77f2)">
     <use xlink:href="#C0_0_7e04b6c2bd" x="27.8204" y="42.405604" style="fill: #4f4f4f"/>
    </g>
    <g clip-path="url(#p046e1e77f2)">
     <use xlink:href="#C0_0_7e04b6c2bd" x="28.1847" y="36.193138" style="fill: #4f4f4f"/>
    </g>
    <g clip-path="url(#p046e1e77f2)">
     <use xlink:href="#C0_0_7e04b6c2bd" x="28.415039" y="45.509242" style="fill: #4f4f4f"/>
    </g>
    <g clip-path="url(#p046e1e77f2)">
     <use xlink:href="#C0_0_7e04b6c2bd" x="30.248035" y="33.398518" style="fill: #4f4f4f"/>
    </g>
    <g clip-path="url(#p046e1e77f2)">
     <use xlink:href="#C0_0_7e04b6c2bd" x="30.614821" y="48.25484" style="fill: #4f4f4f"/>
    </g>
    <g clip-path="url(#p046e1e77f2)">
     <use xlink:href="#C0_0_7e04b6c2bd" x="31.517298" y="30.390948" style="fill: #4f4f4f"/>
    </g>
    <g clip-path="url(#p046e1e77f2)">
     <use xlink:href="#C0_0_7e04b6c2bd" x="33.988898" y="40.589792" style="fill: #4f4f4f"/>
    </g>
    <g clip-path="url(#p046e1e77f2)">
     <use xlink:href="#C0_0_7e04b6c2bd" x="34.889556" y="37.520765" style="fill: #4f4f4f"/>
    </g>
    <g clip-path="url(#p046e1e77f2)">
     <use xlink:href="#C0_0_7e04b6c2bd" x="34.889556" y="43.658818" style="fill: #4f4f4f"/>
    </g>
    <g clip-path="url(#p046e1e77f2)">
     <use xlink:href="#C0_0_7e04b6c2bd" x="36.86289" y="34.69596" style="fill: #4f4f4f"/>
    </g>
    <g clip-path="url(#p046e1e77f2)">
     <use xlink:href="#C0_0_7e04b6c2bd" x="37.132276" y="46.388149" style="fill: #4f4f4f"/>
    </g>
    <g clip-path="url(#p046e1e77f2)">
     <use xlink:href="#C0_0_7e04b6c2bd" x="37.732726" y="49.491264" style="fill: #4f4f4f"/>
    </g>
    <g clip-path="url(#p046e1e77f2)">
     <use xlink:href="#C0_0_7e04b6c2bd" x="37.957709" y="31.656548" style="fill: #4f4f4f"/>
    </g>
    <g clip-path="url(#p046e1e77f2)">
     <use xlink:href="#C0_0_7e04b6c2bd" x="38.509287" y="40.082804" style="fill: #4f4f4f"/>
    </g>
    <g clip-path="url(#p046e1e77f2)">
     <use xlink:href="#C0_0_7e04b6c2bd" x="40.145541" y="43.006435" style="fill: #4f4f4f"/>
    </g>
    <g clip-path="url(#p046e1e77f2)">
     <use xlink:href="#C0_0_7e04b6c2bd" x="40.18515" y="37.169668" style="fill: #4f4f4f"/>
    </g>
    <g clip-path="url(#p046e1e77f2)">
     <use xlink:href="#C0_0_7e04b6c2bd" x="40.312261" y="52.077942" style="fill: #4f4f4f"/>
    </g>
    <g clip-path="url(#p046e1e77f2)">
     <use xlink:href="#C0_0_7e04b6c2bd" x="40.706863" y="29.152772" style="fill: #4f4f4f"/>
    </g>
    <g clip-path="url(#p046e1e77f2)">
     <use xlink:href="#C0_0_7e04b6c2bd" x="41.939589" y="45.88652" style="fill: #4f4f4f"/>
    </g>
    <g clip-path="url(#p046e1e77f2)">
     <use xlink:href="#C0_0_7e04b6c2bd" x="45.055649" y="40.589792" style="fill: #4f4f4f"/>
    </g>
    <g clip-path="url(#p046e1e77f2)">
     <use xlink:href="#C0_0_7e04b6c2bd" x="47.834532" y="38.101387" style="fill: #4f4f4f"/>
    </g>
    <g clip-path="url(#p046e1e77f2)">
     <use xlink:href="#C0_0_7e04b6c2bd" x="50.06648" y="40.834837" style="fill: #4f4f4f"/>
    </g>
    <g clip-path="url(#p046e1e77f2)">
     <use xlink:href="#C0_0_7e04b6c2bd" x="53.881277" y="39.101922" style="fill: #4f4f4f"/>
    </g>
    <g clip-path="url(#p046e1e77f2)">
     <use xlink:href="#C0_0_7e04b6c2bd" x="56.711486" y="41.56317" style="fill: #4f4f4f"/>
    </g>
    <g clip-path="url(#p046e1e77f2)">
     <use xlink:href="#C0_0_7e04b6c2bd" x="64.260431" y="40.589792" style="fill: #4f4f4f"/>
    </g>
    <g clip-path="url(#p046e1e77f2)">
     <use xlink:href="#C0_0_7e04b6c2bd" x="77.189315" y="40.589792" style="fill: #4f4f4f"/>
    </g>
    <g clip-path="url(#p046e1e77f2)">
     <use xlink:href="#C0_0_7e04b6c2bd" x="83.829199" y="40.589792" style="fill: #4f4f4f"/>
    </g>
    <g clip-path="url(#p046e1e77f2)">
     <use xlink:href="#C0_0_7e04b6c2bd" x="91.31727" y="40.589792" style="fill: #4f4f4f"/>
    </g>
    <g clip-path="url(#p046e1e77f2)">
     <use xlink:href="#C0_0_7e04b6c2bd" x="203.395455" y="40.589792" style="fill: #4f4f4f"/>
    </g>
   </g>
   <g id="PathCollection_2">
    <defs>
     <path id="C1_0_eeccd21fd1" d="M 0 2 
C 0.530406 2 1.03916 1.789267 1.414214 1.414214 
C 1.789267 1.03916 2 0.530406 2 -0 
C 2 -0.530406 1.789267 -1.03916 1.414214 -1.414214 
C 1.03916 -1.789267 0.530406 -2 0 -2 
C -0.530406 -2 -1.03916 -1.789267 -1.414214 -1.414214 
C -1.789267 -1.03916 -2 -0.530406 -2 0 
C -2 0.530406 -1.789267 1.03916 -1.414214 1.414214 
C -1.03916 1.789267 -0.530406 2 0 2 
z
"/>
    </defs>
    <g clip-path="url(#p046e1e77f2)">
     <use xlink:href="#C1_0_eeccd21fd1" x="23.304545" y="70.889375" style="fill: #4f4f4f"/>
    </g>
    <g clip-path="url(#p046e1e77f2)">
     <use xlink:href="#C1_0_eeccd21fd1" x="23.304545" y="67.759253" style="fill: #4f4f4f"/>
    </g>
    <g clip-path="url(#p046e1e77f2)">
     <use xlink:href="#C1_0_eeccd21fd1" x="23.304545" y="74.019497" style="fill: #4f4f4f"/>
    </g>
    <g clip-path="url(#p046e1e77f2)">
     <use xlink:href="#C1_0_eeccd21fd1" x="23.304545" y="64.629131" style="fill: #4f4f4f"/>
    </g>
    <g clip-path="url(#p046e1e77f2)">
     <use xlink:href="#C1_0_eeccd21fd1" x="23.304545" y="77.149619" style="fill: #4f4f4f"/>
    </g>
    <g clip-path="url(#p046e1e77f2)">
     <use xlink:href="#C1_0_eeccd21fd1" x="23.304545" y="61.499008" style="fill: #4f4f4f"/>
    </g>
    <g clip-path="url(#p046e1e77f2)">
     <use xlink:href="#C1_0_eeccd21fd1" x="23.304545" y="80.279742" style="fill: #4f4f4f"/>
    </g>
    <g clip-path="url(#p046e1e77f2)">
     <use xlink:href="#C1_0_eeccd21fd1" x="23.304545" y="58.769542" style="fill: #4f4f4f"/>
    </g>
    <g clip-path="url(#p046e1e77f2)">
     <use xlink:href="#C1_0_eeccd21fd1" x="23.304545" y="83.009208" style="fill: #4f4f4f"/>
    </g>
    <g clip-path="url(#p046e1e77f2)">
     <use xlink:href="#C1_0_eeccd21fd1" x="23.304545" y="58.769542" style="fill: #4f4f4f"/>
    </g>
    <g clip-path="url(#p046e1e77f2)">
     <use xlink:href="#C1_0_eeccd21fd1" x="23.458406" y="83.009208" style="fill: #4f4f4f"/>
    </g>
    <g clip-path="url(#p046e1e77f2)">
     <use xlink:href="#C1_0_eeccd21fd1" x="23.57936" y="58.769542" style="fill: #4f4f4f"/>
    </g>
    <g clip-path="url(#p046e1e77f2)">
     <use xlink:href="#C1_0_eeccd21fd1" x="23.749183" y="83.009208" style="fill: #4f4f4f"/>
    </g>
   </g>
   <g id="PathCollection_3">
    <defs>
     <path id="C2_0_ecf9dd6fdd" d="M 0 2 
C 0.530406 2 1.03916 1.789267 1.414214 1.414214 
C 1.789267 1.03916 2 0.530406 2 -0 
C 2 -0.530406 1.789267 -1.03916 1.414214 -1.414214 
C 1.03916 -1.789267 0.530406 -2 0 -2 
C -0.530406 -2 -1.03916 -1.789267 -1.414214 -1.414214 
C -1.789267 -1.03916 -2 -0.530406 -2 0 
C -2 0.530406 -1.789267 1.03916 -1.414214 1.414214 
C -1.03916 1.789267 -0.530406 2 0 2 
z
"/>
    </defs>
    <g clip-path="url(#p046e1e77f2)">
     <use xlink:href="#C2_0_ecf9dd6fdd" x="23.304545" y="101.188958" style="fill: #4f4f4f"/>
    </g>
    <g clip-path="url(#p046e1e77f2)">
     <use xlink:href="#C2_0_ecf9dd6fdd" x="23.304545" y="98.058836" style="fill: #4f4f4f"/>
    </g>
    <g clip-path="url(#p046e1e77f2)">
     <use xlink:href="#C2_0_ecf9dd6fdd" x="23.304545" y="104.319081" style="fill: #4f4f4f"/>
    </g>
    <g clip-path="url(#p046e1e77f2)">
     <use xlink:href="#C2_0_ecf9dd6fdd" x="23.304545" y="94.928714" style="fill: #4f4f4f"/>
    </g>
    <g clip-path="url(#p046e1e77f2)">
     <use xlink:href="#C2_0_ecf9dd6fdd" x="23.304545" y="107.449203" style="fill: #4f4f4f"/>
    </g>
    <g clip-path="url(#p046e1e77f2)">
     <use xlink:href="#C2_0_ecf9dd6fdd" x="23.304545" y="91.798592" style="fill: #4f4f4f"/>
    </g>
    <g clip-path="url(#p046e1e77f2)">
     <use xlink:href="#C2_0_ecf9dd6fdd" x="23.796351" y="110.561233" style="fill: #4f4f4f"/>
    </g>
    <g clip-path="url(#p046e1e77f2)">
     <use xlink:href="#C2_0_ecf9dd6fdd" x="25.260664" y="89.069125" style="fill: #4f4f4f"/>
    </g>
    <g clip-path="url(#p046e1e77f2)">
     <use xlink:href="#C2_0_ecf9dd6fdd" x="25.696095" y="113.308792" style="fill: #4f4f4f"/>
    </g>
    <g clip-path="url(#p046e1e77f2)">
     <use xlink:href="#C2_0_ecf9dd6fdd" x="33.771264" y="101.188958" style="fill: #4f4f4f"/>
    </g>
    <g clip-path="url(#p046e1e77f2)">
     <use xlink:href="#C2_0_ecf9dd6fdd" x="47.870848" y="101.188958" style="fill: #4f4f4f"/>
    </g>
   </g>
   <g id="text_7">
    <!-- Viral progeny production -->
    <g transform="translate(39.207813 19.44)scale(0.12 -0.12)">
     <defs>
      <path id="DejaVuSans-56" d="M 1831 0 
L 50 4666 
L 709 4666 
L 2188 738 
L 3669 4666 
L 4325 4666 
L 2547 0 
L 1831 0 
z
" transform="scale(0.015625)"/>
      <path id="DejaVuSans-69" d="M 603 3500 
L 1178 3500 
L 1178 0 
L 603 0 
L 603 3500 
z
M 603 4863 
L 1178 4863 
L 1178 4134 
L 603 4134 
L 603 4863 
z
" transform="scale(0.015625)"/>
      <path id="DejaVuSans-6c" d="M 603 4863 
L 1178 4863 
L 1178 0 
L 603 0 
L 603 4863 
z
" transform="scale(0.015625)"/>
      <path id="DejaVuSans-20" transform="scale(0.015625)"/>
      <path id="DejaVuSans-6f" d="M 1959 3097 
Q 1497 3097 1228 2736 
Q 959 2375 959 1747 
Q 959 1119 1226 758 
Q 1494 397 1959 397 
Q 2419 397 2687 759 
Q 2956 1122 2956 1747 
Q 2956 2369 2687 2733 
Q 2419 3097 1959 3097 
z
M 1959 3584 
Q 2709 3584 3137 3096 
Q 3566 2609 3566 1747 
Q 3566 888 3137 398 
Q 2709 -91 1959 -91 
Q 1206 -91 779 398 
Q 353 888 353 1747 
Q 353 2609 779 3096 
Q 1206 3584 1959 3584 
z
" transform="scale(0.015625)"/>
      <path id="DejaVuSans-67" d="M 2906 1791 
Q 2906 2416 2648 2759 
Q 2391 3103 1925 3103 
Q 1463 3103 1205 2759 
Q 947 2416 947 1791 
Q 947 1169 1205 825 
Q 1463 481 1925 481 
Q 2391 481 2648 825 
Q 2906 1169 2906 1791 
z
M 3481 434 
Q 3481 -459 3084 -895 
Q 2688 -1331 1869 -1331 
Q 1566 -1331 1297 -1286 
Q 1028 -1241 775 -1147 
L 775 -588 
Q 1028 -725 1275 -790 
Q 1522 -856 1778 -856 
Q 2344 -856 2625 -561 
Q 2906 -266 2906 331 
L 2906 616 
Q 2728 306 2450 153 
Q 2172 0 1784 0 
Q 1141 0 747 490 
Q 353 981 353 1791 
Q 353 2603 747 3093 
Q 1141 3584 1784 3584 
Q 2172 3584 2450 3431 
Q 2728 3278 2906 2969 
L 2906 3500 
L 3481 3500 
L 3481 434 
z
" transform="scale(0.015625)"/>
      <path id="DejaVuSans-79" d="M 2059 -325 
Q 1816 -950 1584 -1140 
Q 1353 -1331 966 -1331 
L 506 -1331 
L 506 -850 
L 844 -850 
Q 1081 -850 1212 -737 
Q 1344 -625 1503 -206 
L 1606 56 
L 191 3500 
L 800 3500 
L 1894 763 
L 2988 3500 
L 3597 3500 
L 2059 -325 
z
" transform="scale(0.015625)"/>
      <path id="DejaVuSans-64" d="M 2906 2969 
L 2906 4863 
L 3481 4863 
L 3481 0 
L 2906 0 
L 2906 525 
Q 2725 213 2448 61 
Q 2172 -91 1784 -91 
Q 1150 -91 751 415 
Q 353 922 353 1747 
Q 353 2572 751 3078 
Q 1150 3584 1784 3584 
Q 2172 3584 2448 3432 
Q 2725 3281 2906 2969 
z
M 947 1747 
Q 947 1113 1208 752 
Q 1469 391 1925 391 
Q 2381 391 2643 752 
Q 2906 1113 2906 1747 
Q 2906 2381 2643 2742 
Q 2381 3103 1925 3103 
Q 1469 3103 1208 2742 
Q 947 2381 947 1747 
z
" transform="scale(0.015625)"/>
      <path id="DejaVuSans-63" d="M 3122 3366 
L 3122 2828 
Q 2878 2963 2633 3030 
Q 2388 3097 2138 3097 
Q 1578 3097 1268 2742 
Q 959 2388 959 1747 
Q 959 1106 1268 751 
Q 1578 397 2138 397 
Q 2388 397 2633 464 
Q 2878 531 3122 666 
L 3122 134 
Q 2881 22 2623 -34 
Q 2366 -91 2075 -91 
Q 1284 -91 818 406 
Q 353 903 353 1747 
Q 353 2603 823 3093 
Q 1294 3584 2113 3584 
Q 2378 3584 2631 3529 
Q 2884 3475 3122 3366 
z
" transform="scale(0.015625)"/>
     </defs>
     <use xlink:href="#DejaVuSans-56"/>
     <use xlink:href="#DejaVuSans-69" x="66.158203"/>
     <use xlink:href="#DejaVuSans-72" x="93.941406"/>
     <use xlink:href="#DejaVuSans-61" x="135.054688"/>
     <use xlink:href="#DejaVuSans-6c" x="196.333984"/>
     <use xlink:href="#DejaVuSans-20" x="224.117188"/>
     <use xlink:href="#DejaVuSans-70" x="255.904297"/>
     <use xlink:href="#DejaVuSans-72" x="319.380859"/>
     <use xlink:href="#DejaVuSans-6f" x="358.244141"/>
     <use xlink:href="#DejaVuSans-67" x="419.425781"/>
     <use xlink:href="#DejaVuSans-65" x="482.902344"/>
     <use xlink:href="#DejaVuSans-6e" x="544.425781"/>
     <use xlink:href="#DejaVuSans-79" x="607.804688"/>
     <use xlink:href="#DejaVuSans-20" x="666.984375"/>
     <use xlink:href="#DejaVuSans-70" x="698.771484"/>
     <use xlink:href="#DejaVuSans-72" x="762.248047"/>
     <use xlink:href="#DejaVuSans-6f" x="801.111328"/>
     <use xlink:href="#DejaVuSans-64" x="862.292969"/>
     <use xlink:href="#DejaVuSans-75" x="925.769531"/>
     <use xlink:href="#DejaVuSans-63" x="989.148438"/>
     <use xlink:href="#DejaVuSans-74" x="1044.128906"/>
     <use xlink:href="#DejaVuSans-69" x="1083.337891"/>
     <use xlink:href="#DejaVuSans-6f" x="1111.121094"/>
     <use xlink:href="#DejaVuSans-6e" x="1172.302734"/>
    </g>
   </g>
   <g id="line2d_9">
    <path d="M 35.070257 28.469958 
L 35.070257 52.709625 
" clip-path="url(#p046e1e77f2)" style="fill: none; stroke: #56b4e9; stroke-width: 2; stroke-linecap: square"/>
   </g>
   <g id="line2d_10">
    <path d="M 23.371723 58.769542 
L 23.371723 83.009208 
" clip-path="url(#p046e1e77f2)" style="fill: none; stroke: #56b4e9; stroke-width: 2; stroke-linecap: square"/>
   </g>
   <g id="line2d_11">
    <path d="M 26.929318 89.069125 
L 26.929318 113.308792 
" clip-path="url(#p046e1e77f2)" style="fill: none; stroke: #56b4e9; stroke-width: 2; stroke-linecap: square"/>
   </g>
  </g>
 </g>
 <defs>
  <clipPath id="p046e1e77f2">
   <rect x="14.3" y="25.44" width="198.1" height="90.89875"/>
  </clipPath>
 </defs>
</svg>
