<?xml version="1.0" encoding="utf-8" standalone="no"?>
<!DOCTYPE svg PUBLIC "-//W3C//DTD SVG 1.1//EN"
  "http://www.w3.org/Graphics/SVG/1.1/DTD/svg11.dtd">
<svg xmlns:xlink="http://www.w3.org/1999/xlink" width="212.45pt" height="161.784201pt" viewBox="0 0 212.45 161.784201" xmlns="http://www.w3.org/2000/svg" version="1.1">
 <metadata>
  <rdf:RDF xmlns:dc="http://purl.org/dc/elements/1.1/" xmlns:cc="http://creativecommons.org/ns#" xmlns:rdf="http://www.w3.org/1999/02/22-rdf-syntax-ns#">
   <cc:Work>
    <dc:type rdf:resource="http://purl.org/dc/dcmitype/StillImage"/>
    <dc:date>2022-08-26T14:30:18.488881</dc:date>
    <dc:format>image/svg+xml</dc:format>
    <dc:creator>
     <cc:Agent>
      <dc:title>Matplotlib v3.5.2, https://matplotlib.org/</dc:title>
     </cc:Agent>
    </dc:creator>
   </cc:Work>
  </rdf:RDF>
 </metadata>
 <defs>
  <style type="text/css">*{stroke-linejoin: round; stroke-linecap: butt}</style>
 </defs>
 <g id="figure_1">
  <g id="patch_1">
   <path d="M 0 161.784201 
L 212.45 161.784201 
L 212.45 0 
L 0 0 
z
" style="fill: #ffffff; stroke: #ffffff; stroke-linejoin: miter"/>
  </g>
  <g id="axes_1">
   <g id="patch_2">
    <path d="M 9.95 122.006701 
L 205.25 122.006701 
L 205.25 24.986701 
L 9.95 24.986701 
z
" style="fill: #ffffff"/>
   </g>
   <g id="matplotlib.axis_1">
    <g id="xtick_1">
     <g id="line2d_1">
      <path d="M 18.676671 122.006701 
" style="fill: none; stroke: #000000; stroke-width: 1.5"/>
      <defs>
       <path id="m6231185b78" d="M 0 0 
L 0 2.75 
" style="stroke: #333333"/>
      </defs>
      <g>
       <use xlink:href="#m6231185b78" x="18.676671" y="122.006701" style="stroke: #333333"/>
      </g>
     </g>
     <g id="text_1">
      <!-- 0 -->
      <g transform="translate(14.859171 136.074826)scale(0.12 -0.12)">
       <defs>
        <path id="DejaVuSans-30" d="M 2034 4250 
Q 1547 4250 1301 3770 
Q 1056 3291 1056 2328 
Q 1056 1369 1301 889 
Q 1547 409 2034 409 
Q 2525 409 2770 889 
Q 3016 1369 3016 2328 
Q 3016 3291 2770 3770 
Q 2525 4250 2034 4250 
z
M 2034 4750 
Q 2819 4750 3233 4129 
Q 3647 3509 3647 2328 
Q 3647 1150 3233 529 
Q 2819 -91 2034 -91 
Q 1250 -91 836 529 
Q 422 1150 422 2328 
Q 422 3509 836 4129 
Q 1250 4750 2034 4750 
z
" transform="scale(0.015625)"/>
       </defs>
       <use xlink:href="#DejaVuSans-30"/>
      </g>
     </g>
    </g>
    <g id="xtick_2">
     <g id="line2d_2">
      <path d="M 60.820504 122.006701 
" style="fill: none; stroke: #000000; stroke-width: 1.5"/>
      <g>
       <use xlink:href="#m6231185b78" x="60.820504" y="122.006701" style="stroke: #333333"/>
      </g>
     </g>
     <g id="text_2">
      <!-- 0.05 -->
      <g transform="translate(47.461129 136.074826)scale(0.12 -0.12)">
       <defs>
        <path id="DejaVuSans-2e" d="M 684 794 
L 1344 794 
L 1344 0 
L 684 0 
L 684 794 
z
" transform="scale(0.015625)"/>
        <path id="DejaVuSans-35" d="M 691 4666 
L 3169 4666 
L 3169 4134 
L 1269 4134 
L 1269 2991 
Q 1406 3038 1543 3061 
Q 1681 3084 1819 3084 
Q 2600 3084 3056 2656 
Q 3513 2228 3513 1497 
Q 3513 744 3044 326 
Q 2575 -91 1722 -91 
Q 1428 -91 1123 -41 
Q 819 9 494 109 
L 494 744 
Q 775 591 1075 516 
Q 1375 441 1709 441 
Q 2250 441 2565 725 
Q 2881 1009 2881 1497 
Q 2881 1984 2565 2268 
Q 2250 2553 1709 2553 
Q 1456 2553 1204 2497 
Q 953 2441 691 2322 
L 691 4666 
z
" transform="scale(0.015625)"/>
       </defs>
       <use xlink:href="#DejaVuSans-30"/>
       <use xlink:href="#DejaVuSans-2e" x="63.623047"/>
       <use xlink:href="#DejaVuSans-30" x="95.410156"/>
       <use xlink:href="#DejaVuSans-35" x="159.033203"/>
      </g>
     </g>
    </g>
    <g id="xtick_3">
     <g id="line2d_3">
      <path d="M 102.964337 122.006701 
" style="fill: none; stroke: #000000; stroke-width: 1.5"/>
      <g>
       <use xlink:href="#m6231185b78" x="102.964337" y="122.006701" style="stroke: #333333"/>
      </g>
     </g>
     <g id="text_3">
      <!-- 0.10 -->
      <g transform="translate(89.604962 136.074826)scale(0.12 -0.12)">
       <defs>
        <path id="DejaVuSans-31" d="M 794 531 
L 1825 531 
L 1825 4091 
L 703 3866 
L 703 4441 
L 1819 4666 
L 2450 4666 
L 2450 531 
L 3481 531 
L 3481 0 
L 794 0 
L 794 531 
z
" transform="scale(0.015625)"/>
       </defs>
       <use xlink:href="#DejaVuSans-30"/>
       <use xlink:href="#DejaVuSans-2e" x="63.623047"/>
       <use xlink:href="#DejaVuSans-31" x="95.410156"/>
       <use xlink:href="#DejaVuSans-30" x="159.033203"/>
      </g>
     </g>
    </g>
    <g id="xtick_4">
     <g id="line2d_4">
      <path d="M 145.10817 122.006701 
" style="fill: none; stroke: #000000; stroke-width: 1.5"/>
      <g>
       <use xlink:href="#m6231185b78" x="145.10817" y="122.006701" style="stroke: #333333"/>
      </g>
     </g>
     <g id="text_4">
      <!-- 0.15 -->
      <g transform="translate(131.748795 136.074826)scale(0.12 -0.12)">
       <use xlink:href="#DejaVuSans-30"/>
       <use xlink:href="#DejaVuSans-2e" x="63.623047"/>
       <use xlink:href="#DejaVuSans-31" x="95.410156"/>
       <use xlink:href="#DejaVuSans-35" x="159.033203"/>
      </g>
     </g>
    </g>
    <g id="xtick_5">
     <g id="line2d_5">
      <path d="M 187.252003 122.006701 
" style="fill: none; stroke: #000000; stroke-width: 1.5"/>
      <g>
       <use xlink:href="#m6231185b78" x="187.252003" y="122.006701" style="stroke: #333333"/>
      </g>
     </g>
     <g id="text_5">
      <!-- 0.20 -->
      <g transform="translate(173.892628 136.074826)scale(0.12 -0.12)">
       <defs>
        <path id="DejaVuSans-32" d="M 1228 531 
L 3431 531 
L 3431 0 
L 469 0 
L 469 531 
Q 828 903 1448 1529 
Q 2069 2156 2228 2338 
Q 2531 2678 2651 2914 
Q 2772 3150 2772 3378 
Q 2772 3750 2511 3984 
Q 2250 4219 1831 4219 
Q 1534 4219 1204 4116 
Q 875 4013 500 3803 
L 500 4441 
Q 881 4594 1212 4672 
Q 1544 4750 1819 4750 
Q 2544 4750 2975 4387 
Q 3406 4025 3406 3419 
Q 3406 3131 3298 2873 
Q 3191 2616 2906 2266 
Q 2828 2175 2409 1742 
Q 1991 1309 1228 531 
z
" transform="scale(0.015625)"/>
       </defs>
       <use xlink:href="#DejaVuSans-30"/>
       <use xlink:href="#DejaVuSans-2e" x="63.623047"/>
       <use xlink:href="#DejaVuSans-32" x="95.410156"/>
       <use xlink:href="#DejaVuSans-30" x="159.033203"/>
      </g>
     </g>
    </g>
    <g id="xtick_6"/>
    <g id="xtick_7"/>
    <g id="xtick_8"/>
    <g id="xtick_9"/>
    <g id="text_6">
     <!-- fraction physical progeny -->
     <g transform="translate(28.324063 152.088576)scale(0.12 -0.12)">
      <defs>
       <path id="DejaVuSans-66" d="M 2375 4863 
L 2375 4384 
L 1825 4384 
Q 1516 4384 1395 4259 
Q 1275 4134 1275 3809 
L 1275 3500 
L 2222 3500 
L 2222 3053 
L 1275 3053 
L 1275 0 
L 697 0 
L 697 3053 
L 147 3053 
L 147 3500 
L 697 3500 
L 697 3744 
Q 697 4328 969 4595 
Q 1241 4863 1831 4863 
L 2375 4863 
z
" transform="scale(0.015625)"/>
       <path id="DejaVuSans-72" d="M 2631 2963 
Q 2534 3019 2420 3045 
Q 2306 3072 2169 3072 
Q 1681 3072 1420 2755 
Q 1159 2438 1159 1844 
L 1159 0 
L 581 0 
L 581 3500 
L 1159 3500 
L 1159 2956 
Q 1341 3275 1631 3429 
Q 1922 3584 2338 3584 
Q 2397 3584 2469 3576 
Q 2541 3569 2628 3553 
L 2631 2963 
z
" transform="scale(0.015625)"/>
       <path id="DejaVuSans-61" d="M 2194 1759 
Q 1497 1759 1228 1600 
Q 959 1441 959 1056 
Q 959 750 1161 570 
Q 1363 391 1709 391 
Q 2188 391 2477 730 
Q 2766 1069 2766 1631 
L 2766 1759 
L 2194 1759 
z
M 3341 1997 
L 3341 0 
L 2766 0 
L 2766 531 
Q 2569 213 2275 61 
Q 1981 -91 1556 -91 
Q 1019 -91 701 211 
Q 384 513 384 1019 
Q 384 1609 779 1909 
Q 1175 2209 1959 2209 
L 2766 2209 
L 2766 2266 
Q 2766 2663 2505 2880 
Q 2244 3097 1772 3097 
Q 1472 3097 1187 3025 
Q 903 2953 641 2809 
L 641 3341 
Q 956 3463 1253 3523 
Q 1550 3584 1831 3584 
Q 2591 3584 2966 3190 
Q 3341 2797 3341 1997 
z
" transform="scale(0.015625)"/>
       <path id="DejaVuSans-63" d="M 3122 3366 
L 3122 2828 
Q 2878 2963 2633 3030 
Q 2388 3097 2138 3097 
Q 1578 3097 1268 2742 
Q 959 2388 959 1747 
Q 959 1106 1268 751 
Q 1578 397 2138 397 
Q 2388 397 2633 464 
Q 2878 531 3122 666 
L 3122 134 
Q 2881 22 2623 -34 
Q 2366 -91 2075 -91 
Q 1284 -91 818 406 
Q 353 903 353 1747 
Q 353 2603 823 3093 
Q 1294 3584 2113 3584 
Q 2378 3584 2631 3529 
Q 2884 3475 3122 3366 
z
" transform="scale(0.015625)"/>
       <path id="DejaVuSans-74" d="M 1172 4494 
L 1172 3500 
L 2356 3500 
L 2356 3053 
L 1172 3053 
L 1172 1153 
Q 1172 725 1289 603 
Q 1406 481 1766 481 
L 2356 481 
L 2356 0 
L 1766 0 
Q 1100 0 847 248 
Q 594 497 594 1153 
L 594 3053 
L 172 3053 
L 172 3500 
L 594 3500 
L 594 4494 
L 1172 4494 
z
" transform="scale(0.015625)"/>
       <path id="DejaVuSans-69" d="M 603 3500 
L 1178 3500 
L 1178 0 
L 603 0 
L 603 3500 
z
M 603 4863 
L 1178 4863 
L 1178 4134 
L 603 4134 
L 603 4863 
z
" transform="scale(0.015625)"/>
       <path id="DejaVuSans-6f" d="M 1959 3097 
Q 1497 3097 1228 2736 
Q 959 2375 959 1747 
Q 959 1119 1226 758 
Q 1494 397 1959 397 
Q 2419 397 2687 759 
Q 2956 1122 2956 1747 
Q 2956 2369 2687 2733 
Q 2419 3097 1959 3097 
z
M 1959 3584 
Q 2709 3584 3137 3096 
Q 3566 2609 3566 1747 
Q 3566 888 3137 398 
Q 2709 -91 1959 -91 
Q 1206 -91 779 398 
Q 353 888 353 1747 
Q 353 2609 779 3096 
Q 1206 3584 1959 3584 
z
" transform="scale(0.015625)"/>
       <path id="DejaVuSans-6e" d="M 3513 2113 
L 3513 0 
L 2938 0 
L 2938 2094 
Q 2938 2591 2744 2837 
Q 2550 3084 2163 3084 
Q 1697 3084 1428 2787 
Q 1159 2491 1159 1978 
L 1159 0 
L 581 0 
L 581 3500 
L 1159 3500 
L 1159 2956 
Q 1366 3272 1645 3428 
Q 1925 3584 2291 3584 
Q 2894 3584 3203 3211 
Q 3513 2838 3513 2113 
z
" transform="scale(0.015625)"/>
       <path id="DejaVuSans-20" transform="scale(0.015625)"/>
       <path id="DejaVuSans-70" d="M 1159 525 
L 1159 -1331 
L 581 -1331 
L 581 3500 
L 1159 3500 
L 1159 2969 
Q 1341 3281 1617 3432 
Q 1894 3584 2278 3584 
Q 2916 3584 3314 3078 
Q 3713 2572 3713 1747 
Q 3713 922 3314 415 
Q 2916 -91 2278 -91 
Q 1894 -91 1617 61 
Q 1341 213 1159 525 
z
M 3116 1747 
Q 3116 2381 2855 2742 
Q 2594 3103 2138 3103 
Q 1681 3103 1420 2742 
Q 1159 2381 1159 1747 
Q 1159 1113 1420 752 
Q 1681 391 2138 391 
Q 2594 391 2855 752 
Q 3116 1113 3116 1747 
z
" transform="scale(0.015625)"/>
       <path id="DejaVuSans-68" d="M 3513 2113 
L 3513 0 
L 2938 0 
L 2938 2094 
Q 2938 2591 2744 2837 
Q 2550 3084 2163 3084 
Q 1697 3084 1428 2787 
Q 1159 2491 1159 1978 
L 1159 0 
L 581 0 
L 581 4863 
L 1159 4863 
L 1159 2956 
Q 1366 3272 1645 3428 
Q 1925 3584 2291 3584 
Q 2894 3584 3203 3211 
Q 3513 2838 3513 2113 
z
" transform="scale(0.015625)"/>
       <path id="DejaVuSans-79" d="M 2059 -325 
Q 1816 -950 1584 -1140 
Q 1353 -1331 966 -1331 
L 506 -1331 
L 506 -850 
L 844 -850 
Q 1081 -850 1212 -737 
Q 1344 -625 1503 -206 
L 1606 56 
L 191 3500 
L 800 3500 
L 1894 763 
L 2988 3500 
L 3597 3500 
L 2059 -325 
z
" transform="scale(0.015625)"/>
       <path id="DejaVuSans-73" d="M 2834 3397 
L 2834 2853 
Q 2591 2978 2328 3040 
Q 2066 3103 1784 3103 
Q 1356 3103 1142 2972 
Q 928 2841 928 2578 
Q 928 2378 1081 2264 
Q 1234 2150 1697 2047 
L 1894 2003 
Q 2506 1872 2764 1633 
Q 3022 1394 3022 966 
Q 3022 478 2636 193 
Q 2250 -91 1575 -91 
Q 1294 -91 989 -36 
Q 684 19 347 128 
L 347 722 
Q 666 556 975 473 
Q 1284 391 1588 391 
Q 1994 391 2212 530 
Q 2431 669 2431 922 
Q 2431 1156 2273 1281 
Q 2116 1406 1581 1522 
L 1381 1569 
Q 847 1681 609 1914 
Q 372 2147 372 2553 
Q 372 3047 722 3315 
Q 1072 3584 1716 3584 
Q 2034 3584 2315 3537 
Q 2597 3491 2834 3397 
z
" transform="scale(0.015625)"/>
       <path id="DejaVuSans-6c" d="M 603 4863 
L 1178 4863 
L 1178 0 
L 603 0 
L 603 4863 
z
" transform="scale(0.015625)"/>
       <path id="DejaVuSans-67" d="M 2906 1791 
Q 2906 2416 2648 2759 
Q 2391 3103 1925 3103 
Q 1463 3103 1205 2759 
Q 947 2416 947 1791 
Q 947 1169 1205 825 
Q 1463 481 1925 481 
Q 2391 481 2648 825 
Q 2906 1169 2906 1791 
z
M 3481 434 
Q 3481 -459 3084 -895 
Q 2688 -1331 1869 -1331 
Q 1566 -1331 1297 -1286 
Q 1028 -1241 775 -1147 
L 775 -588 
Q 1028 -725 1275 -790 
Q 1522 -856 1778 -856 
Q 2344 -856 2625 -561 
Q 2906 -266 2906 331 
L 2906 616 
Q 2728 306 2450 153 
Q 2172 0 1784 0 
Q 1141 0 747 490 
Q 353 981 353 1791 
Q 353 2603 747 3093 
Q 1141 3584 1784 3584 
Q 2172 3584 2450 3431 
Q 2728 3278 2906 2969 
L 2906 3500 
L 3481 3500 
L 3481 434 
z
" transform="scale(0.015625)"/>
       <path id="DejaVuSans-65" d="M 3597 1894 
L 3597 1613 
L 953 1613 
Q 991 1019 1311 708 
Q 1631 397 2203 397 
Q 2534 397 2845 478 
Q 3156 559 3463 722 
L 3463 178 
Q 3153 47 2828 -22 
Q 2503 -91 2169 -91 
Q 1331 -91 842 396 
Q 353 884 353 1716 
Q 353 2575 817 3079 
Q 1281 3584 2069 3584 
Q 2775 3584 3186 3129 
Q 3597 2675 3597 1894 
z
M 3022 2063 
Q 3016 2534 2758 2815 
Q 2500 3097 2075 3097 
Q 1594 3097 1305 2825 
Q 1016 2553 972 2059 
L 3022 2063 
z
" transform="scale(0.015625)"/>
      </defs>
      <use xlink:href="#DejaVuSans-66"/>
      <use xlink:href="#DejaVuSans-72" x="35.205078"/>
      <use xlink:href="#DejaVuSans-61" x="76.318359"/>
      <use xlink:href="#DejaVuSans-63" x="137.597656"/>
      <use xlink:href="#DejaVuSans-74" x="192.578125"/>
      <use xlink:href="#DejaVuSans-69" x="231.787109"/>
      <use xlink:href="#DejaVuSans-6f" x="259.570312"/>
      <use xlink:href="#DejaVuSans-6e" x="320.751953"/>
      <use xlink:href="#DejaVuSans-20" x="384.130859"/>
      <use xlink:href="#DejaVuSans-70" x="415.917969"/>
      <use xlink:href="#DejaVuSans-68" x="479.394531"/>
      <use xlink:href="#DejaVuSans-79" x="542.773438"/>
      <use xlink:href="#DejaVuSans-73" x="601.953125"/>
      <use xlink:href="#DejaVuSans-69" x="654.052734"/>
      <use xlink:href="#DejaVuSans-63" x="681.835938"/>
      <use xlink:href="#DejaVuSans-61" x="736.816406"/>
      <use xlink:href="#DejaVuSans-6c" x="798.095703"/>
      <use xlink:href="#DejaVuSans-20" x="825.878906"/>
      <use xlink:href="#DejaVuSans-70" x="857.666016"/>
      <use xlink:href="#DejaVuSans-72" x="921.142578"/>
      <use xlink:href="#DejaVuSans-6f" x="960.005859"/>
      <use xlink:href="#DejaVuSans-67" x="1021.1875"/>
      <use xlink:href="#DejaVuSans-65" x="1084.664062"/>
      <use xlink:href="#DejaVuSans-6e" x="1146.1875"/>
      <use xlink:href="#DejaVuSans-79" x="1209.566406"/>
     </g>
    </g>
   </g>
   <g id="matplotlib.axis_2">
    <g id="ytick_1">
     <g id="line2d_6">
      <path d="M 9.95 103.815451 
" style="fill: none; stroke: #000000; stroke-width: 1.5"/>
      <defs>
       <path id="mffc5ccd467" d="M 0 0 
L -2.75 0 
" style="stroke: #333333"/>
      </defs>
      <g>
       <use xlink:href="#mffc5ccd467" x="9.95" y="103.815451" style="stroke: #333333"/>
      </g>
     </g>
    </g>
    <g id="ytick_2">
     <g id="line2d_7">
      <path d="M 9.95 73.496701 
" style="fill: none; stroke: #000000; stroke-width: 1.5"/>
      <g>
       <use xlink:href="#mffc5ccd467" x="9.95" y="73.496701" style="stroke: #333333"/>
      </g>
     </g>
    </g>
    <g id="ytick_3">
     <g id="line2d_8">
      <path d="M 9.95 43.177951 
" style="fill: none; stroke: #000000; stroke-width: 1.5"/>
      <g>
       <use xlink:href="#mffc5ccd467" x="9.95" y="43.177951" style="stroke: #333333"/>
      </g>
     </g>
    </g>
   </g>
   <g id="PathCollection_1">
    <path d="M 29.147138 107.932564 
C 29.969743 107.932564 30.758767 107.605739 31.340437 107.024069 
C 31.922107 106.442399 32.248932 105.653375 32.248932 104.830769 
C 32.248932 104.008164 31.922107 103.21914 31.340437 102.63747 
C 30.758767 102.0558 29.969743 101.728975 29.147138 101.728975 
C 28.324532 101.728975 27.535508 102.0558 26.953838 102.63747 
C 26.372168 103.21914 26.045343 104.008164 26.045343 104.830769 
C 26.045343 105.653375 26.372168 106.442399 26.953838 107.024069 
C 27.535508 107.605739 28.324532 107.932564 29.147138 107.932564 
z
" clip-path="url(#p4e96c2d2c2)" style="fill-opacity: 0.4; stroke: #000000; stroke-opacity: 0.4; stroke-width: 0.886227"/>
    <path d="M 18.828732 42.443655 
C 19.651337 42.443655 20.440362 42.11683 21.022032 41.53516 
C 21.603701 40.95349 21.930526 40.164466 21.930526 39.341861 
C 21.930526 38.519255 21.603701 37.730231 21.022032 37.148561 
C 20.440362 36.566891 19.651337 36.240066 18.828732 36.240066 
C 18.006126 36.240066 17.217102 36.566891 16.635432 37.148561 
C 16.053762 37.730231 15.726938 38.519255 15.726938 39.341861 
C 15.726938 40.164466 16.053762 40.95349 16.635432 41.53516 
C 17.217102 42.11683 18.006126 42.443655 18.828732 42.443655 
z
" clip-path="url(#p4e96c2d2c2)" style="fill-opacity: 0.4; stroke: #000000; stroke-opacity: 0.4; stroke-width: 0.886227"/>
    <path d="M 20.791333 49.634434 
C 21.613938 49.634434 22.402963 49.307609 22.984633 48.72594 
C 23.566303 48.14427 23.893127 47.355245 23.893127 46.53264 
C 23.893127 45.710034 23.566303 44.92101 22.984633 44.33934 
C 22.402963 43.75767 21.613938 43.430846 20.791333 43.430846 
C 19.968728 43.430846 19.179703 43.75767 18.598033 44.33934 
C 18.016363 44.92101 17.689539 45.710034 17.689539 46.53264 
C 17.689539 47.355245 18.016363 48.14427 18.598033 48.72594 
C 19.179703 49.307609 19.968728 49.634434 20.791333 49.634434 
z
" clip-path="url(#p4e96c2d2c2)" style="fill-opacity: 0.4; stroke: #000000; stroke-opacity: 0.4; stroke-width: 0.886227"/>
    <path d="M 19.08241 44.505356 
C 19.905015 44.505356 20.69404 44.178532 21.27571 43.596862 
C 21.85738 43.015192 22.184204 42.226167 22.184204 41.403562 
C 22.184204 40.580956 21.85738 39.791932 21.27571 39.210262 
C 20.69404 38.628592 19.905015 38.301768 19.08241 38.301768 
C 18.259805 38.301768 17.47078 38.628592 16.88911 39.210262 
C 16.30744 39.791932 15.980616 40.580956 15.980616 41.403562 
C 15.980616 42.226167 16.30744 43.015192 16.88911 43.596862 
C 17.47078 44.178532 18.259805 44.505356 19.08241 44.505356 
z
" clip-path="url(#p4e96c2d2c2)" style="fill-opacity: 0.4; stroke: #000000; stroke-opacity: 0.4; stroke-width: 0.886227"/>
    <path d="M 18.828522 80.323401 
C 19.651128 80.323401 20.440152 79.996576 21.021822 79.414906 
C 21.603492 78.833236 21.930316 78.044212 21.930316 77.221606 
C 21.930316 76.399001 21.603492 75.609977 21.021822 75.028307 
C 20.440152 74.446637 19.651128 74.119812 18.828522 74.119812 
C 18.005917 74.119812 17.216892 74.446637 16.635222 75.028307 
C 16.053553 75.609977 15.726728 76.399001 15.726728 77.221606 
C 15.726728 78.044212 16.053553 78.833236 16.635222 79.414906 
C 17.216892 79.996576 18.005917 80.323401 18.828522 80.323401 
z
" clip-path="url(#p4e96c2d2c2)" style="fill-opacity: 0.4; stroke: #000000; stroke-opacity: 0.4; stroke-width: 0.886227"/>
    <path d="M 21.238722 44.160407 
C 22.061327 44.160407 22.850352 43.833583 23.432021 43.251913 
C 24.013691 42.670243 24.340516 41.881219 24.340516 41.058613 
C 24.340516 40.236008 24.013691 39.446983 23.432021 38.865313 
C 22.850352 38.283644 22.061327 37.956819 21.238722 37.956819 
C 20.416116 37.956819 19.627092 38.283644 19.045422 38.865313 
C 18.463752 39.446983 18.136927 40.236008 18.136927 41.058613 
C 18.136927 41.881219 18.463752 42.670243 19.045422 43.251913 
C 19.627092 43.833583 20.416116 44.160407 21.238722 44.160407 
z
" clip-path="url(#p4e96c2d2c2)" style="fill-opacity: 0.4; stroke: #000000; stroke-opacity: 0.4; stroke-width: 0.886227"/>
    <path d="M 18.892137 44.685932 
C 19.714742 44.685932 20.503767 44.359107 21.085437 43.777438 
C 21.667107 43.195768 21.993931 42.406743 21.993931 41.584138 
C 21.993931 40.761532 21.667107 39.972508 21.085437 39.390838 
C 20.503767 38.809168 19.714742 38.482344 18.892137 38.482344 
C 18.069532 38.482344 17.280507 38.809168 16.698837 39.390838 
C 16.117167 39.972508 15.790343 40.761532 15.790343 41.584138 
C 15.790343 42.406743 16.117167 43.195768 16.698837 43.777438 
C 17.280507 44.359107 18.069532 44.685932 18.892137 44.685932 
z
" clip-path="url(#p4e96c2d2c2)" style="fill-opacity: 0.4; stroke: #000000; stroke-opacity: 0.4; stroke-width: 0.886227"/>
    <path d="M 18.827301 44.396859 
C 19.649906 44.396859 20.438931 44.070034 21.0206 43.488364 
C 21.60227 42.906694 21.929095 42.11767 21.929095 41.295065 
C 21.929095 40.472459 21.60227 39.683435 21.0206 39.101765 
C 20.438931 38.520095 19.649906 38.19327 18.827301 38.19327 
C 18.004695 38.19327 17.215671 38.520095 16.634001 39.101765 
C 16.052331 39.683435 15.725506 40.472459 15.725506 41.295065 
C 15.725506 42.11767 16.052331 42.906694 16.634001 43.488364 
C 17.215671 44.070034 18.004695 44.396859 18.827301 44.396859 
z
" clip-path="url(#p4e96c2d2c2)" style="fill-opacity: 0.4; stroke: #000000; stroke-opacity: 0.4; stroke-width: 0.886227"/>
    <path d="M 20.397436 44.797024 
C 21.220042 44.797024 22.009066 44.4702 22.590736 43.88853 
C 23.172406 43.30686 23.49923 42.517835 23.49923 41.69523 
C 23.49923 40.872624 23.172406 40.0836 22.590736 39.50193 
C 22.009066 38.92026 21.220042 38.593436 20.397436 38.593436 
C 19.574831 38.593436 18.785806 38.92026 18.204136 39.50193 
C 17.622467 40.0836 17.295642 40.872624 17.295642 41.69523 
C 17.295642 42.517835 17.622467 43.30686 18.204136 43.88853 
C 18.785806 44.4702 19.574831 44.797024 20.397436 44.797024 
z
" clip-path="url(#p4e96c2d2c2)" style="fill-opacity: 0.4; stroke: #000000; stroke-opacity: 0.4; stroke-width: 0.886227"/>
    <path d="M 48.973679 47.195152 
C 49.796284 47.195152 50.585309 46.868327 51.166979 46.286657 
C 51.748648 45.704987 52.075473 44.915963 52.075473 44.093358 
C 52.075473 43.270752 51.748648 42.481728 51.166979 41.900058 
C 50.585309 41.318388 49.796284 40.991563 48.973679 40.991563 
C 48.151073 40.991563 47.362049 41.318388 46.780379 41.900058 
C 46.198709 42.481728 45.871885 43.270752 45.871885 44.093358 
C 45.871885 44.915963 46.198709 45.704987 46.780379 46.286657 
C 47.362049 46.868327 48.151073 47.195152 48.973679 47.195152 
z
" clip-path="url(#p4e96c2d2c2)" style="fill-opacity: 0.4; stroke: #000000; stroke-opacity: 0.4; stroke-width: 0.886227"/>
    <path d="M 43.046732 104.688917 
C 43.869338 104.688917 44.658362 104.362092 45.240032 103.780422 
C 45.821702 103.198752 46.148527 102.409728 46.148527 101.587122 
C 46.148527 100.764517 45.821702 99.975493 45.240032 99.393823 
C 44.658362 98.812153 43.869338 98.485328 43.046732 98.485328 
C 42.224127 98.485328 41.435103 98.812153 40.853433 99.393823 
C 40.271763 99.975493 39.944938 100.764517 39.944938 101.587122 
C 39.944938 102.409728 40.271763 103.198752 40.853433 103.780422 
C 41.435103 104.362092 42.224127 104.688917 43.046732 104.688917 
z
" clip-path="url(#p4e96c2d2c2)" style="fill-opacity: 0.4; stroke: #000000; stroke-opacity: 0.4; stroke-width: 0.886227"/>
    <path d="M 23.280265 44.564543 
C 24.102871 44.564543 24.891895 44.237718 25.473565 43.656049 
C 26.055235 43.074379 26.38206 42.285354 26.38206 41.462749 
C 26.38206 40.640143 26.055235 39.851119 25.473565 39.269449 
C 24.891895 38.687779 24.102871 38.360955 23.280265 38.360955 
C 22.45766 38.360955 21.668636 38.687779 21.086966 39.269449 
C 20.505296 39.851119 20.178471 40.640143 20.178471 41.462749 
C 20.178471 42.285354 20.505296 43.074379 21.086966 43.656049 
C 21.668636 44.237718 22.45766 44.564543 23.280265 44.564543 
z
" clip-path="url(#p4e96c2d2c2)" style="fill-opacity: 0.4; stroke: #000000; stroke-opacity: 0.4; stroke-width: 0.886227"/>
    <path d="M 30.249577 49.076994 
C 31.072182 49.076994 31.861207 48.750169 32.442877 48.168499 
C 33.024546 47.586829 33.351371 46.797805 33.351371 45.9752 
C 33.351371 45.152594 33.024546 44.36357 32.442877 43.7819 
C 31.861207 43.20023 31.072182 42.873405 30.249577 42.873405 
C 29.426971 42.873405 28.637947 43.20023 28.056277 43.7819 
C 27.474607 44.36357 27.147783 45.152594 27.147783 45.9752 
C 27.147783 46.797805 27.474607 47.586829 28.056277 48.168499 
C 28.637947 48.750169 29.426971 49.076994 30.249577 49.076994 
z
" clip-path="url(#p4e96c2d2c2)" style="fill-opacity: 0.4; stroke: #000000; stroke-opacity: 0.4; stroke-width: 0.886227"/>
    <path d="M 18.828806 106.735218 
C 19.651411 106.735218 20.440435 106.408393 21.022105 105.826723 
C 21.603775 105.245053 21.9306 104.456029 21.9306 103.633424 
C 21.9306 102.810818 21.603775 102.021794 21.022105 101.440124 
C 20.440435 100.858454 19.651411 100.531629 18.828806 100.531629 
C 18.0062 100.531629 17.217176 100.858454 16.635506 101.440124 
C 16.053836 102.021794 15.727011 102.810818 15.727011 103.633424 
C 15.727011 104.456029 16.053836 105.245053 16.635506 105.826723 
C 17.217176 106.408393 18.0062 106.735218 18.828806 106.735218 
z
" clip-path="url(#p4e96c2d2c2)" style="fill-opacity: 0.4; stroke: #000000; stroke-opacity: 0.4; stroke-width: 0.886227"/>
    <path d="M 18.828432 43.812589 
C 19.651037 43.812589 20.440062 43.485765 21.021731 42.904095 
C 21.603401 42.322425 21.930226 41.5334 21.930226 40.710795 
C 21.930226 39.88819 21.603401 39.099165 21.021731 38.517495 
C 20.440062 37.935825 19.651037 37.609001 18.828432 37.609001 
C 18.005826 37.609001 17.216802 37.935825 16.635132 38.517495 
C 16.053462 39.099165 15.726637 39.88819 15.726637 40.710795 
C 15.726637 41.5334 16.053462 42.322425 16.635132 42.904095 
C 17.216802 43.485765 18.005826 43.812589 18.828432 43.812589 
z
" clip-path="url(#p4e96c2d2c2)" style="fill-opacity: 0.4; stroke: #000000; stroke-opacity: 0.4; stroke-width: 0.886227"/>
    <path d="M 18.891311 46.305968 
C 19.713917 46.305968 20.502941 45.979143 21.084611 45.397473 
C 21.666281 44.815803 21.993105 44.026779 21.993105 43.204173 
C 21.993105 42.381568 21.666281 41.592543 21.084611 41.010874 
C 20.502941 40.429204 19.713917 40.102379 18.891311 40.102379 
C 18.068706 40.102379 17.279681 40.429204 16.698011 41.010874 
C 16.116342 41.592543 15.789517 42.381568 15.789517 43.204173 
C 15.789517 44.026779 16.116342 44.815803 16.698011 45.397473 
C 17.279681 45.979143 18.068706 46.305968 18.891311 46.305968 
z
" clip-path="url(#p4e96c2d2c2)" style="fill-opacity: 0.4; stroke: #000000; stroke-opacity: 0.4; stroke-width: 0.886227"/>
    <path d="M 59.204 43.762103 
C 60.026606 43.762103 60.81563 43.435278 61.3973 42.853609 
C 61.97897 42.271939 62.305794 41.482914 62.305794 40.660309 
C 62.305794 39.837703 61.97897 39.048679 61.3973 38.467009 
C 60.81563 37.885339 60.026606 37.558515 59.204 37.558515 
C 58.381395 37.558515 57.59237 37.885339 57.0107 38.467009 
C 56.42903 39.048679 56.102206 39.837703 56.102206 40.660309 
C 56.102206 41.482914 56.42903 42.271939 57.0107 42.853609 
C 57.59237 43.435278 58.381395 43.762103 59.204 43.762103 
z
" clip-path="url(#p4e96c2d2c2)" style="fill-opacity: 0.4; stroke: #000000; stroke-opacity: 0.4; stroke-width: 0.886227"/>
    <path d="M 18.827387 50.399172 
C 19.649992 50.399172 20.439017 50.072348 21.020687 49.490678 
C 21.602357 48.909008 21.929181 48.119983 21.929181 47.297378 
C 21.929181 46.474772 21.602357 45.685748 21.020687 45.104078 
C 20.439017 44.522408 19.649992 44.195584 18.827387 44.195584 
C 18.004782 44.195584 17.215757 44.522408 16.634087 45.104078 
C 16.052417 45.685748 15.725593 46.474772 15.725593 47.297378 
C 15.725593 48.119983 16.052417 48.909008 16.634087 49.490678 
C 17.215757 50.072348 18.004782 50.399172 18.827387 50.399172 
z
" clip-path="url(#p4e96c2d2c2)" style="fill-opacity: 0.4; stroke: #000000; stroke-opacity: 0.4; stroke-width: 0.886227"/>
    <path d="M 18.828012 77.558493 
C 19.650618 77.558493 20.439642 77.231669 21.021312 76.649999 
C 21.602982 76.068329 21.929806 75.279305 21.929806 74.456699 
C 21.929806 73.634094 21.602982 72.845069 21.021312 72.263399 
C 20.439642 71.68173 19.650618 71.354905 18.828012 71.354905 
C 18.005407 71.354905 17.216382 71.68173 16.634712 72.263399 
C 16.053043 72.845069 15.726218 73.634094 15.726218 74.456699 
C 15.726218 75.279305 16.053043 76.068329 16.634712 76.649999 
C 17.216382 77.231669 18.005407 77.558493 18.828012 77.558493 
z
" clip-path="url(#p4e96c2d2c2)" style="fill-opacity: 0.4; stroke: #000000; stroke-opacity: 0.4; stroke-width: 0.886227"/>
    <path d="M 45.211435 43.954992 
C 46.034041 43.954992 46.823065 43.628168 47.404735 43.046498 
C 47.986405 42.464828 48.313229 41.675804 48.313229 40.853198 
C 48.313229 40.030593 47.986405 39.241568 47.404735 38.659898 
C 46.823065 38.078228 46.034041 37.751404 45.211435 37.751404 
C 44.38883 37.751404 43.599805 38.078228 43.018135 38.659898 
C 42.436465 39.241568 42.109641 40.030593 42.109641 40.853198 
C 42.109641 41.675804 42.436465 42.464828 43.018135 43.046498 
C 43.599805 43.628168 44.38883 43.954992 45.211435 43.954992 
z
" clip-path="url(#p4e96c2d2c2)" style="fill-opacity: 0.4; stroke: #000000; stroke-opacity: 0.4; stroke-width: 0.886227"/>
    <path d="M 18.980983 43.970526 
C 19.803588 43.970526 20.592613 43.643702 21.174283 43.062032 
C 21.755952 42.480362 22.082777 41.691337 22.082777 40.868732 
C 22.082777 40.046126 21.755952 39.257102 21.174283 38.675432 
C 20.592613 38.093762 19.803588 37.766938 18.980983 37.766938 
C 18.158377 37.766938 17.369353 38.093762 16.787683 38.675432 
C 16.206013 39.257102 15.879189 40.046126 15.879189 40.868732 
C 15.879189 41.691337 16.206013 42.480362 16.787683 43.062032 
C 17.369353 43.643702 18.158377 43.970526 18.980983 43.970526 
z
" clip-path="url(#p4e96c2d2c2)" style="fill-opacity: 0.4; stroke: #000000; stroke-opacity: 0.4; stroke-width: 0.886227"/>
    <path d="M 32.194284 45.288841 
C 33.016889 45.288841 33.805913 44.962016 34.387583 44.380347 
C 34.969253 43.798677 35.296078 43.009652 35.296078 42.187047 
C 35.296078 41.364441 34.969253 40.575417 34.387583 39.993747 
C 33.805913 39.412077 33.016889 39.085253 32.194284 39.085253 
C 31.371678 39.085253 30.582654 39.412077 30.000984 39.993747 
C 29.419314 40.575417 29.092489 41.364441 29.092489 42.187047 
C 29.092489 43.009652 29.419314 43.798677 30.000984 44.380347 
C 30.582654 44.962016 31.371678 45.288841 32.194284 45.288841 
z
" clip-path="url(#p4e96c2d2c2)" style="fill-opacity: 0.4; stroke: #000000; stroke-opacity: 0.4; stroke-width: 0.886227"/>
    <path d="M 40.272078 50.104998 
C 41.094683 50.104998 41.883708 49.778173 42.465378 49.196503 
C 43.047047 48.614833 43.373872 47.825809 43.373872 47.003204 
C 43.373872 46.180598 43.047047 45.391574 42.465378 44.809904 
C 41.883708 44.228234 41.094683 43.901409 40.272078 43.901409 
C 39.449472 43.901409 38.660448 44.228234 38.078778 44.809904 
C 37.497108 45.391574 37.170284 46.180598 37.170284 47.003204 
C 37.170284 47.825809 37.497108 48.614833 38.078778 49.196503 
C 38.660448 49.778173 39.449472 50.104998 40.272078 50.104998 
z
" clip-path="url(#p4e96c2d2c2)" style="fill-opacity: 0.4; stroke: #000000; stroke-opacity: 0.4; stroke-width: 0.886227"/>
    <path d="M 18.891681 46.521132 
C 19.714286 46.521132 20.50331 46.194308 21.08498 45.612638 
C 21.66665 45.030968 21.993475 44.241944 21.993475 43.419338 
C 21.993475 42.596733 21.66665 41.807708 21.08498 41.226038 
C 20.50331 40.644368 19.714286 40.317544 18.891681 40.317544 
C 18.069075 40.317544 17.280051 40.644368 16.698381 41.226038 
C 16.116711 41.807708 15.789886 42.596733 15.789886 43.419338 
C 15.789886 44.241944 16.116711 45.030968 16.698381 45.612638 
C 17.280051 46.194308 18.069075 46.521132 18.891681 46.521132 
z
" clip-path="url(#p4e96c2d2c2)" style="fill-opacity: 0.4; stroke: #000000; stroke-opacity: 0.4; stroke-width: 0.886227"/>
    <path d="M 35.431257 48.591637 
C 36.253863 48.591637 37.042887 48.264812 37.624557 47.683142 
C 38.206227 47.101472 38.533052 46.312448 38.533052 45.489843 
C 38.533052 44.667237 38.206227 43.878213 37.624557 43.296543 
C 37.042887 42.714873 36.253863 42.388048 35.431257 42.388048 
C 34.608652 42.388048 33.819627 42.714873 33.237958 43.296543 
C 32.656288 43.878213 32.329463 44.667237 32.329463 45.489843 
C 32.329463 46.312448 32.656288 47.101472 33.237958 47.683142 
C 33.819627 48.264812 34.608652 48.591637 35.431257 48.591637 
z
" clip-path="url(#p4e96c2d2c2)" style="fill-opacity: 0.4; stroke: #000000; stroke-opacity: 0.4; stroke-width: 0.886227"/>
    <path d="M 18.828873 108.907072 
C 19.651478 108.907072 20.440502 108.580248 21.022172 107.998578 
C 21.603842 107.416908 21.930667 106.627883 21.930667 105.805278 
C 21.930667 104.982673 21.603842 104.193648 21.022172 103.611978 
C 20.440502 103.030308 19.651478 102.703484 18.828873 102.703484 
C 18.006267 102.703484 17.217243 103.030308 16.635573 103.611978 
C 16.053903 104.193648 15.727078 104.982673 15.727078 105.805278 
C 15.727078 106.627883 16.053903 107.416908 16.635573 107.998578 
C 17.217243 108.580248 18.006267 108.907072 18.828873 108.907072 
z
" clip-path="url(#p4e96c2d2c2)" style="fill-opacity: 0.4; stroke: #000000; stroke-opacity: 0.4; stroke-width: 0.886227"/>
    <path d="M 18.82937 44.9355 
C 19.651976 44.9355 20.441 44.608675 21.02267 44.027005 
C 21.60434 43.445336 21.931165 42.656311 21.931165 41.833706 
C 21.931165 41.0111 21.60434 40.222076 21.02267 39.640406 
C 20.441 39.058736 19.651976 38.731911 18.82937 38.731911 
C 18.006765 38.731911 17.217741 39.058736 16.636071 39.640406 
C 16.054401 40.222076 15.727576 41.0111 15.727576 41.833706 
C 15.727576 42.656311 16.054401 43.445336 16.636071 44.027005 
C 17.217741 44.608675 18.006765 44.9355 18.82937 44.9355 
z
" clip-path="url(#p4e96c2d2c2)" style="fill-opacity: 0.4; stroke: #000000; stroke-opacity: 0.4; stroke-width: 0.886227"/>
    <path d="M 22.932135 42.715222 
C 23.754741 42.715222 24.543765 42.388398 25.125435 41.806728 
C 25.707105 41.225058 26.03393 40.436034 26.03393 39.613428 
C 26.03393 38.790823 25.707105 38.001798 25.125435 37.420128 
C 24.543765 36.838458 23.754741 36.511634 22.932135 36.511634 
C 22.10953 36.511634 21.320506 36.838458 20.738836 37.420128 
C 20.157166 38.001798 19.830341 38.790823 19.830341 39.613428 
C 19.830341 40.436034 20.157166 41.225058 20.738836 41.806728 
C 21.320506 42.388398 22.10953 42.715222 22.932135 42.715222 
z
" clip-path="url(#p4e96c2d2c2)" style="fill-opacity: 0.4; stroke: #000000; stroke-opacity: 0.4; stroke-width: 0.886227"/>
    <path d="M 21.134126 50.778176 
C 21.956731 50.778176 22.745756 50.451351 23.327425 49.869681 
C 23.909095 49.288011 24.23592 48.498987 24.23592 47.676382 
C 24.23592 46.853776 23.909095 46.064752 23.327425 45.483082 
C 22.745756 44.901412 21.956731 44.574587 21.134126 44.574587 
C 20.31152 44.574587 19.522496 44.901412 18.940826 45.483082 
C 18.359156 46.064752 18.032331 46.853776 18.032331 47.676382 
C 18.032331 48.498987 18.359156 49.288011 18.940826 49.869681 
C 19.522496 50.451351 20.31152 50.778176 21.134126 50.778176 
z
" clip-path="url(#p4e96c2d2c2)" style="fill-opacity: 0.4; stroke: #000000; stroke-opacity: 0.4; stroke-width: 0.886227"/>
    <path d="M 19.266954 72.279853 
C 20.08956 72.279853 20.878584 71.953028 21.460254 71.371358 
C 22.041924 70.789688 22.368749 70.000664 22.368749 69.178058 
C 22.368749 68.355453 22.041924 67.566428 21.460254 66.984759 
C 20.878584 66.403089 20.08956 66.076264 19.266954 66.076264 
C 18.444349 66.076264 17.655325 66.403089 17.073655 66.984759 
C 16.491985 67.566428 16.16516 68.355453 16.16516 69.178058 
C 16.16516 70.000664 16.491985 70.789688 17.073655 71.371358 
C 17.655325 71.953028 18.444349 72.279853 19.266954 72.279853 
z
" clip-path="url(#p4e96c2d2c2)" style="fill-opacity: 0.4; stroke: #000000; stroke-opacity: 0.4; stroke-width: 0.886227"/>
    <path d="M 32.460097 42.488714 
C 33.282702 42.488714 34.071727 42.161889 34.653397 41.580219 
C 35.235067 40.998549 35.561891 40.209525 35.561891 39.38692 
C 35.561891 38.564314 35.235067 37.77529 34.653397 37.19362 
C 34.071727 36.61195 33.282702 36.285125 32.460097 36.285125 
C 31.637491 36.285125 30.848467 36.61195 30.266797 37.19362 
C 29.685127 37.77529 29.358303 38.564314 29.358303 39.38692 
C 29.358303 40.209525 29.685127 40.998549 30.266797 41.580219 
C 30.848467 42.161889 31.637491 42.488714 32.460097 42.488714 
z
" clip-path="url(#p4e96c2d2c2)" style="fill-opacity: 0.4; stroke: #000000; stroke-opacity: 0.4; stroke-width: 0.886227"/>
    <path d="M 29.361531 42.430761 
C 30.184137 42.430761 30.973161 42.103936 31.554831 41.522266 
C 32.136501 40.940596 32.463326 40.151572 32.463326 39.328967 
C 32.463326 38.506361 32.136501 37.717337 31.554831 37.135667 
C 30.973161 36.553997 30.184137 36.227172 29.361531 36.227172 
C 28.538926 36.227172 27.749902 36.553997 27.168232 37.135667 
C 26.586562 37.717337 26.259737 38.506361 26.259737 39.328967 
C 26.259737 40.151572 26.586562 40.940596 27.168232 41.522266 
C 27.749902 42.103936 28.538926 42.430761 29.361531 42.430761 
z
" clip-path="url(#p4e96c2d2c2)" style="fill-opacity: 0.4; stroke: #000000; stroke-opacity: 0.4; stroke-width: 0.886227"/>
    <path d="M 20.09731 45.167174 
C 20.919915 45.167174 21.70894 44.840349 22.29061 44.258679 
C 22.87228 43.677009 23.199104 42.887985 23.199104 42.06538 
C 23.199104 41.242774 22.87228 40.45375 22.29061 39.87208 
C 21.70894 39.29041 20.919915 38.963585 20.09731 38.963585 
C 19.274705 38.963585 18.48568 39.29041 17.90401 39.87208 
C 17.32234 40.45375 16.995516 41.242774 16.995516 42.06538 
C 16.995516 42.887985 17.32234 43.677009 17.90401 44.258679 
C 18.48568 44.840349 19.274705 45.167174 20.09731 45.167174 
z
" clip-path="url(#p4e96c2d2c2)" style="fill-opacity: 0.4; stroke: #000000; stroke-opacity: 0.4; stroke-width: 0.886227"/>
    <path d="M 18.829296 49.644094 
C 19.651902 49.644094 20.440926 49.31727 21.022596 48.7356 
C 21.604266 48.15393 21.93109 47.364906 21.93109 46.5423 
C 21.93109 45.719695 21.604266 44.93067 21.022596 44.349 
C 20.440926 43.767331 19.651902 43.440506 18.829296 43.440506 
C 18.006691 43.440506 17.217666 43.767331 16.635996 44.349 
C 16.054326 44.93067 15.727502 45.719695 15.727502 46.5423 
C 15.727502 47.364906 16.054326 48.15393 16.635996 48.7356 
C 17.217666 49.31727 18.006691 49.644094 18.829296 49.644094 
z
" clip-path="url(#p4e96c2d2c2)" style="fill-opacity: 0.4; stroke: #000000; stroke-opacity: 0.4; stroke-width: 0.886227"/>
    <path d="M 33.816985 50.32513 
C 34.639591 50.32513 35.428615 49.998305 36.010285 49.416635 
C 36.591955 48.834965 36.91878 48.045941 36.91878 47.223335 
C 36.91878 46.40073 36.591955 45.611706 36.010285 45.030036 
C 35.428615 44.448366 34.639591 44.121541 33.816985 44.121541 
C 32.99438 44.121541 32.205355 44.448366 31.623686 45.030036 
C 31.042016 45.611706 30.715191 46.40073 30.715191 47.223335 
C 30.715191 48.045941 31.042016 48.834965 31.623686 49.416635 
C 32.205355 49.998305 32.99438 50.32513 33.816985 50.32513 
z
" clip-path="url(#p4e96c2d2c2)" style="fill-opacity: 0.4; stroke: #000000; stroke-opacity: 0.4; stroke-width: 0.886227"/>
    <path d="M 19.902373 45.446048 
C 20.724978 45.446048 21.514003 45.119223 22.095672 44.537553 
C 22.677342 43.955884 23.004167 43.166859 23.004167 42.344254 
C 23.004167 41.521648 22.677342 40.732624 22.095672 40.150954 
C 21.514003 39.569284 20.724978 39.242459 19.902373 39.242459 
C 19.079767 39.242459 18.290743 39.569284 17.709073 40.150954 
C 17.127403 40.732624 16.800578 41.521648 16.800578 42.344254 
C 16.800578 43.166859 17.127403 43.955884 17.709073 44.537553 
C 18.290743 45.119223 19.079767 45.446048 19.902373 45.446048 
z
" clip-path="url(#p4e96c2d2c2)" style="fill-opacity: 0.4; stroke: #000000; stroke-opacity: 0.4; stroke-width: 0.886227"/>
    <path d="M 26.035894 50.214089 
C 26.858499 50.214089 27.647524 49.887264 28.229194 49.305594 
C 28.810863 48.723924 29.137688 47.9349 29.137688 47.112294 
C 29.137688 46.289689 28.810863 45.500665 28.229194 44.918995 
C 27.647524 44.337325 26.858499 44.0105 26.035894 44.0105 
C 25.213288 44.0105 24.424264 44.337325 23.842594 44.918995 
C 23.260924 45.500665 22.9341 46.289689 22.9341 47.112294 
C 22.9341 47.9349 23.260924 48.723924 23.842594 49.305594 
C 24.424264 49.887264 25.213288 50.214089 26.035894 50.214089 
z
" clip-path="url(#p4e96c2d2c2)" style="fill-opacity: 0.4; stroke: #000000; stroke-opacity: 0.4; stroke-width: 0.886227"/>
    <path d="M 196.372727 44.320018 
C 197.195333 44.320018 197.984357 43.993194 198.566027 43.411524 
C 199.147697 42.829854 199.474522 42.040829 199.474522 41.218224 
C 199.474522 40.395619 199.147697 39.606594 198.566027 39.024924 
C 197.984357 38.443254 197.195333 38.11643 196.372727 38.11643 
C 195.550122 38.11643 194.761097 38.443254 194.179428 39.024924 
C 193.597758 39.606594 193.270933 40.395619 193.270933 41.218224 
C 193.270933 42.040829 193.597758 42.829854 194.179428 43.411524 
C 194.761097 43.993194 195.550122 44.320018 196.372727 44.320018 
z
" clip-path="url(#p4e96c2d2c2)" style="fill-opacity: 0.4; stroke: #000000; stroke-opacity: 0.4; stroke-width: 0.886227"/>
    <path d="M 19.312439 109.941965 
C 20.135045 109.941965 20.924069 109.615141 21.505739 109.033471 
C 22.087409 108.451801 22.414233 107.662777 22.414233 106.840171 
C 22.414233 106.017566 22.087409 105.228541 21.505739 104.646871 
C 20.924069 104.065202 20.135045 103.738377 19.312439 103.738377 
C 18.489834 103.738377 17.700809 104.065202 17.119139 104.646871 
C 16.537469 105.228541 16.210645 106.017566 16.210645 106.840171 
C 16.210645 107.662777 16.537469 108.451801 17.119139 109.033471 
C 17.700809 109.615141 18.489834 109.941965 19.312439 109.941965 
z
" clip-path="url(#p4e96c2d2c2)" style="fill-opacity: 0.4; stroke: #000000; stroke-opacity: 0.4; stroke-width: 0.886227"/>
    <path d="M 19.085256 44.88425 
C 19.907861 44.88425 20.696885 44.557425 21.278555 43.975755 
C 21.860225 43.394085 22.18705 42.605061 22.18705 41.782455 
C 22.18705 40.95985 21.860225 40.170826 21.278555 39.589156 
C 20.696885 39.007486 19.907861 38.680661 19.085256 38.680661 
C 18.26265 38.680661 17.473626 39.007486 16.891956 39.589156 
C 16.310286 40.170826 15.983461 40.95985 15.983461 41.782455 
C 15.983461 42.605061 16.310286 43.394085 16.891956 43.975755 
C 17.473626 44.557425 18.26265 44.88425 19.085256 44.88425 
z
" clip-path="url(#p4e96c2d2c2)" style="fill-opacity: 0.4; stroke: #000000; stroke-opacity: 0.4; stroke-width: 0.886227"/>
    <path d="M 20.68592 46.683398 
C 21.508525 46.683398 22.29755 46.356573 22.87922 45.774904 
C 23.46089 45.193234 23.787714 44.404209 23.787714 43.581604 
C 23.787714 42.758998 23.46089 41.969974 22.87922 41.388304 
C 22.29755 40.806634 21.508525 40.47981 20.68592 40.47981 
C 19.863314 40.47981 19.07429 40.806634 18.49262 41.388304 
C 17.91095 41.969974 17.584126 42.758998 17.584126 43.581604 
C 17.584126 44.404209 17.91095 45.193234 18.49262 45.774904 
C 19.07429 46.356573 19.863314 46.683398 20.68592 46.683398 
z
" clip-path="url(#p4e96c2d2c2)" style="fill-opacity: 0.4; stroke: #000000; stroke-opacity: 0.4; stroke-width: 0.886227"/>
    <path d="M 35.469702 44.5688 
C 36.292308 44.5688 37.081332 44.241975 37.663002 43.660306 
C 38.244672 43.078636 38.571497 42.289611 38.571497 41.467006 
C 38.571497 40.6444 38.244672 39.855376 37.663002 39.273706 
C 37.081332 38.692036 36.292308 38.365212 35.469702 38.365212 
C 34.647097 38.365212 33.858073 38.692036 33.276403 39.273706 
C 32.694733 39.855376 32.367908 40.6444 32.367908 41.467006 
C 32.367908 42.289611 32.694733 43.078636 33.276403 43.660306 
C 33.858073 44.241975 34.647097 44.5688 35.469702 44.5688 
z
" clip-path="url(#p4e96c2d2c2)" style="fill-opacity: 0.4; stroke: #000000; stroke-opacity: 0.4; stroke-width: 0.886227"/>
    <path d="M 33.053477 49.556217 
C 33.876083 49.556217 34.665107 49.229392 35.246777 48.647722 
C 35.828447 48.066052 36.155272 47.277028 36.155272 46.454422 
C 36.155272 45.631817 35.828447 44.842793 35.246777 44.261123 
C 34.665107 43.679453 33.876083 43.352628 33.053477 43.352628 
C 32.230872 43.352628 31.441848 43.679453 30.860178 44.261123 
C 30.278508 44.842793 29.951683 45.631817 29.951683 46.454422 
C 29.951683 47.277028 30.278508 48.066052 30.860178 48.647722 
C 31.441848 49.229392 32.230872 49.556217 33.053477 49.556217 
z
" clip-path="url(#p4e96c2d2c2)" style="fill-opacity: 0.4; stroke: #000000; stroke-opacity: 0.4; stroke-width: 0.886227"/>
    <path d="M 18.981023 48.76005 
C 19.803629 48.76005 20.592653 48.433225 21.174323 47.851555 
C 21.755993 47.269885 22.082817 46.480861 22.082817 45.658255 
C 22.082817 44.83565 21.755993 44.046626 21.174323 43.464956 
C 20.592653 42.883286 19.803629 42.556461 18.981023 42.556461 
C 18.158418 42.556461 17.369393 42.883286 16.787723 43.464956 
C 16.206053 44.046626 15.879229 44.83565 15.879229 45.658255 
C 15.879229 46.480861 16.206053 47.269885 16.787723 47.851555 
C 17.369393 48.433225 18.158418 48.76005 18.981023 48.76005 
z
" clip-path="url(#p4e96c2d2c2)" style="fill-opacity: 0.4; stroke: #000000; stroke-opacity: 0.4; stroke-width: 0.886227"/>
    <path d="M 20.233469 42.464093 
C 21.056074 42.464093 21.845099 42.137269 22.426769 41.555599 
C 23.008439 40.973929 23.335263 40.184904 23.335263 39.362299 
C 23.335263 38.539694 23.008439 37.750669 22.426769 37.168999 
C 21.845099 36.587329 21.056074 36.260505 20.233469 36.260505 
C 19.410864 36.260505 18.621839 36.587329 18.040169 37.168999 
C 17.458499 37.750669 17.131675 38.539694 17.131675 39.362299 
C 17.131675 40.184904 17.458499 40.973929 18.040169 41.555599 
C 18.621839 42.137269 19.410864 42.464093 20.233469 42.464093 
z
" clip-path="url(#p4e96c2d2c2)" style="fill-opacity: 0.4; stroke: #000000; stroke-opacity: 0.4; stroke-width: 0.886227"/>
    <path d="M 78.497378 50.827257 
C 79.319984 50.827257 80.109008 50.500432 80.690678 49.918762 
C 81.272348 49.337092 81.599173 48.548068 81.599173 47.725462 
C 81.599173 46.902857 81.272348 46.113833 80.690678 45.532163 
C 80.109008 44.950493 79.319984 44.623668 78.497378 44.623668 
C 77.674773 44.623668 76.885749 44.950493 76.304079 45.532163 
C 75.722409 46.113833 75.395584 46.902857 75.395584 47.725462 
C 75.395584 48.548068 75.722409 49.337092 76.304079 49.918762 
C 76.885749 50.500432 77.674773 50.827257 78.497378 50.827257 
z
" clip-path="url(#p4e96c2d2c2)" style="fill-opacity: 0.4; stroke: #000000; stroke-opacity: 0.4; stroke-width: 0.886227"/>
    <path d="M 19.048448 48.456071 
C 19.871053 48.456071 20.660077 48.129246 21.241747 47.547576 
C 21.823417 46.965906 22.150242 46.176882 22.150242 45.354276 
C 22.150242 44.531671 21.823417 43.742646 21.241747 43.160977 
C 20.660077 42.579307 19.871053 42.252482 19.048448 42.252482 
C 18.225842 42.252482 17.436818 42.579307 16.855148 43.160977 
C 16.273478 43.742646 15.946653 44.531671 15.946653 45.354276 
C 15.946653 46.176882 16.273478 46.965906 16.855148 47.547576 
C 17.436818 48.129246 18.225842 48.456071 19.048448 48.456071 
z
" clip-path="url(#p4e96c2d2c2)" style="fill-opacity: 0.4; stroke: #000000; stroke-opacity: 0.4; stroke-width: 0.886227"/>
    <path d="M 19.729065 49.514055 
C 20.55167 49.514055 21.340695 49.18723 21.922365 48.60556 
C 22.504034 48.02389 22.830859 47.234866 22.830859 46.41226 
C 22.830859 45.589655 22.504034 44.800631 21.922365 44.218961 
C 21.340695 43.637291 20.55167 43.310466 19.729065 43.310466 
C 18.906459 43.310466 18.117435 43.637291 17.535765 44.218961 
C 16.954095 44.800631 16.627271 45.589655 16.627271 46.41226 
C 16.627271 47.234866 16.954095 48.02389 17.535765 48.60556 
C 18.117435 49.18723 18.906459 49.514055 19.729065 49.514055 
z
" clip-path="url(#p4e96c2d2c2)" style="fill-opacity: 0.4; stroke: #000000; stroke-opacity: 0.4; stroke-width: 0.886227"/>
    <path d="M 20.097104 42.678592 
C 20.91971 42.678592 21.708734 42.351767 22.290404 41.770097 
C 22.872074 41.188427 23.198898 40.399403 23.198898 39.576797 
C 23.198898 38.754192 22.872074 37.965168 22.290404 37.383498 
C 21.708734 36.801828 20.91971 36.475003 20.097104 36.475003 
C 19.274499 36.475003 18.485474 36.801828 17.903804 37.383498 
C 17.322135 37.965168 16.99531 38.754192 16.99531 39.576797 
C 16.99531 40.399403 17.322135 41.188427 17.903804 41.770097 
C 18.485474 42.351767 19.274499 42.678592 20.097104 42.678592 
z
" clip-path="url(#p4e96c2d2c2)" style="fill-opacity: 0.4; stroke: #000000; stroke-opacity: 0.4; stroke-width: 0.886227"/>
    <path d="M 51.762625 45.571797 
C 52.58523 45.571797 53.374255 45.244972 53.955925 44.663302 
C 54.537594 44.081632 54.864419 43.292608 54.864419 42.470002 
C 54.864419 41.647397 54.537594 40.858373 53.955925 40.276703 
C 53.374255 39.695033 52.58523 39.368208 51.762625 39.368208 
C 50.940019 39.368208 50.150995 39.695033 49.569325 40.276703 
C 48.987655 40.858373 48.660831 41.647397 48.660831 42.470002 
C 48.660831 43.292608 48.987655 44.081632 49.569325 44.663302 
C 50.150995 45.244972 50.940019 45.571797 51.762625 45.571797 
z
" clip-path="url(#p4e96c2d2c2)" style="fill-opacity: 0.4; stroke: #000000; stroke-opacity: 0.4; stroke-width: 0.886227"/>
    <path d="M 18.829162 78.519448 
C 19.651768 78.519448 20.440792 78.192623 21.022462 77.610953 
C 21.604132 77.029283 21.930956 76.240259 21.930956 75.417653 
C 21.930956 74.595048 21.604132 73.806024 21.022462 73.224354 
C 20.440792 72.642684 19.651768 72.315859 18.829162 72.315859 
C 18.006557 72.315859 17.217532 72.642684 16.635862 73.224354 
C 16.054193 73.806024 15.727368 74.595048 15.727368 75.417653 
C 15.727368 76.240259 16.054193 77.029283 16.635862 77.610953 
C 17.217532 78.192623 18.006557 78.519448 18.829162 78.519448 
z
" clip-path="url(#p4e96c2d2c2)" style="fill-opacity: 0.4; stroke: #000000; stroke-opacity: 0.4; stroke-width: 0.886227"/>
    <path d="M 18.827997 46.698238 
C 19.650602 46.698238 20.439627 46.371413 21.021297 45.789744 
C 21.602966 45.208074 21.929791 44.419049 21.929791 43.596444 
C 21.929791 42.773838 21.602966 41.984814 21.021297 41.403144 
C 20.439627 40.821474 19.650602 40.49465 18.827997 40.49465 
C 18.005391 40.49465 17.216367 40.821474 16.634697 41.403144 
C 16.053027 41.984814 15.726203 42.773838 15.726203 43.596444 
C 15.726203 44.419049 16.053027 45.208074 16.634697 45.789744 
C 17.216367 46.371413 18.005391 46.698238 18.827997 46.698238 
z
" clip-path="url(#p4e96c2d2c2)" style="fill-opacity: 0.4; stroke: #000000; stroke-opacity: 0.4; stroke-width: 0.886227"/>
    <path d="M 18.979943 79.641778 
C 19.802549 79.641778 20.591573 79.314953 21.173243 78.733283 
C 21.754913 78.151613 22.081738 77.362589 22.081738 76.539983 
C 22.081738 75.717378 21.754913 74.928354 21.173243 74.346684 
C 20.591573 73.765014 19.802549 73.438189 18.979943 73.438189 
C 18.157338 73.438189 17.368314 73.765014 16.786644 74.346684 
C 16.204974 74.928354 15.878149 75.717378 15.878149 76.539983 
C 15.878149 77.362589 16.204974 78.151613 16.786644 78.733283 
C 17.368314 79.314953 18.157338 79.641778 18.979943 79.641778 
z
" clip-path="url(#p4e96c2d2c2)" style="fill-opacity: 0.4; stroke: #000000; stroke-opacity: 0.4; stroke-width: 0.886227"/>
    <path d="M 18.827367 42.351974 
C 19.649972 42.351974 20.438996 42.02515 21.020666 41.44348 
C 21.602336 40.86181 21.929161 40.072786 21.929161 39.25018 
C 21.929161 38.427575 21.602336 37.63855 21.020666 37.056881 
C 20.438996 36.475211 19.649972 36.148386 18.827367 36.148386 
C 18.004761 36.148386 17.215737 36.475211 16.634067 37.056881 
C 16.052397 37.63855 15.725572 38.427575 15.725572 39.25018 
C 15.725572 40.072786 16.052397 40.86181 16.634067 41.44348 
C 17.215737 42.02515 18.004761 42.351974 18.827367 42.351974 
z
" clip-path="url(#p4e96c2d2c2)" style="fill-opacity: 0.4; stroke: #000000; stroke-opacity: 0.4; stroke-width: 0.886227"/>
    <path d="M 18.829356 77.202954 
C 19.651962 77.202954 20.440986 76.87613 21.022656 76.29446 
C 21.604326 75.71279 21.93115 74.923766 21.93115 74.10116 
C 21.93115 73.278555 21.604326 72.48953 21.022656 71.90786 
C 20.440986 71.326191 19.651962 70.999366 18.829356 70.999366 
C 18.006751 70.999366 17.217726 71.326191 16.636056 71.90786 
C 16.054386 72.48953 15.727562 73.278555 15.727562 74.10116 
C 15.727562 74.923766 16.054386 75.71279 16.636056 76.29446 
C 17.217726 76.87613 18.006751 77.202954 18.829356 77.202954 
z
" clip-path="url(#p4e96c2d2c2)" style="fill-opacity: 0.4; stroke: #000000; stroke-opacity: 0.4; stroke-width: 0.886227"/>
    <path d="M 25.674425 41.846278 
C 26.497031 41.846278 27.286055 41.519453 27.867725 40.937783 
C 28.449395 40.356113 28.776219 39.567089 28.776219 38.744484 
C 28.776219 37.921878 28.449395 37.132854 27.867725 36.551184 
C 27.286055 35.969514 26.497031 35.642689 25.674425 35.642689 
C 24.85182 35.642689 24.062795 35.969514 23.481125 36.551184 
C 22.899456 37.132854 22.572631 37.921878 22.572631 38.744484 
C 22.572631 39.567089 22.899456 40.356113 23.481125 40.937783 
C 24.062795 41.519453 24.85182 41.846278 25.674425 41.846278 
z
" clip-path="url(#p4e96c2d2c2)" style="fill-opacity: 0.4; stroke: #000000; stroke-opacity: 0.4; stroke-width: 0.886227"/>
    <path d="M 18.827462 76.29398 
C 19.650067 76.29398 20.439092 75.967155 21.020762 75.385485 
C 21.602432 74.803816 21.929256 74.014791 21.929256 73.192186 
C 21.929256 72.36958 21.602432 71.580556 21.020762 70.998886 
C 20.439092 70.417216 19.650067 70.090391 18.827462 70.090391 
C 18.004857 70.090391 17.215832 70.417216 16.634162 70.998886 
C 16.052492 71.580556 15.725668 72.36958 15.725668 73.192186 
C 15.725668 74.014791 16.052492 74.803816 16.634162 75.385485 
C 17.215832 75.967155 18.004857 76.29398 18.827462 76.29398 
z
" clip-path="url(#p4e96c2d2c2)" style="fill-opacity: 0.4; stroke: #000000; stroke-opacity: 0.4; stroke-width: 0.886227"/>
    <path d="M 26.924241 50.625625 
C 27.746847 50.625625 28.535871 50.2988 29.117541 49.71713 
C 29.699211 49.135461 30.026036 48.346436 30.026036 47.523831 
C 30.026036 46.701225 29.699211 45.912201 29.117541 45.330531 
C 28.535871 44.748861 27.746847 44.422036 26.924241 44.422036 
C 26.101636 44.422036 25.312612 44.748861 24.730942 45.330531 
C 24.149272 45.912201 23.822447 46.701225 23.822447 47.523831 
C 23.822447 48.346436 24.149272 49.135461 24.730942 49.71713 
C 25.312612 50.2988 26.101636 50.625625 26.924241 50.625625 
z
" clip-path="url(#p4e96c2d2c2)" style="fill-opacity: 0.4; stroke: #000000; stroke-opacity: 0.4; stroke-width: 0.886227"/>
    <path d="M 43.012438 45.135187 
C 43.835043 45.135187 44.624068 44.808363 45.205738 44.226693 
C 45.787408 43.645023 46.114232 42.855998 46.114232 42.033393 
C 46.114232 41.210788 45.787408 40.421763 45.205738 39.840093 
C 44.624068 39.258423 43.835043 38.931599 43.012438 38.931599 
C 42.189833 38.931599 41.400808 39.258423 40.819138 39.840093 
C 40.237468 40.421763 39.910644 41.210788 39.910644 42.033393 
C 39.910644 42.855998 40.237468 43.645023 40.819138 44.226693 
C 41.400808 44.808363 42.189833 45.135187 43.012438 45.135187 
z
" clip-path="url(#p4e96c2d2c2)" style="fill-opacity: 0.4; stroke: #000000; stroke-opacity: 0.4; stroke-width: 0.886227"/>
    <path d="M 20.513377 48.31517 
C 21.335982 48.31517 22.125007 47.988345 22.706677 47.406676 
C 23.288347 46.825006 23.615171 46.035981 23.615171 45.213376 
C 23.615171 44.39077 23.288347 43.601746 22.706677 43.020076 
C 22.125007 42.438406 21.335982 42.111582 20.513377 42.111582 
C 19.690772 42.111582 18.901747 42.438406 18.320077 43.020076 
C 17.738407 43.601746 17.411583 44.39077 17.411583 45.213376 
C 17.411583 46.035981 17.738407 46.825006 18.320077 47.406676 
C 18.901747 47.988345 19.690772 48.31517 20.513377 48.31517 
z
" clip-path="url(#p4e96c2d2c2)" style="fill-opacity: 0.4; stroke: #000000; stroke-opacity: 0.4; stroke-width: 0.886227"/>
    <path d="M 18.827984 108.023045 
C 19.650589 108.023045 20.439614 107.69622 21.021283 107.11455 
C 21.602953 106.53288 21.929778 105.743856 21.929778 104.92125 
C 21.929778 104.098645 21.602953 103.309621 21.021283 102.727951 
C 20.439614 102.146281 19.650589 101.819456 18.827984 101.819456 
C 18.005378 101.819456 17.216354 102.146281 16.634684 102.727951 
C 16.053014 103.309621 15.726189 104.098645 15.726189 104.92125 
C 15.726189 105.743856 16.053014 106.53288 16.634684 107.11455 
C 17.216354 107.69622 18.005378 108.023045 18.827984 108.023045 
z
" clip-path="url(#p4e96c2d2c2)" style="fill-opacity: 0.4; stroke: #000000; stroke-opacity: 0.4; stroke-width: 0.886227"/>
    <path d="M 18.827273 106.940501 
C 19.649878 106.940501 20.438903 106.613676 21.020572 106.032007 
C 21.602242 105.450337 21.929067 104.661312 21.929067 103.838707 
C 21.929067 103.016101 21.602242 102.227077 21.020572 101.645407 
C 20.438903 101.063737 19.649878 100.736913 18.827273 100.736913 
C 18.004667 100.736913 17.215643 101.063737 16.633973 101.645407 
C 16.052303 102.227077 15.725478 103.016101 15.725478 103.838707 
C 15.725478 104.661312 16.052303 105.450337 16.633973 106.032007 
C 17.215643 106.613676 18.004667 106.940501 18.827273 106.940501 
z
" clip-path="url(#p4e96c2d2c2)" style="fill-opacity: 0.4; stroke: #000000; stroke-opacity: 0.4; stroke-width: 0.886227"/>
    <path d="M 20.823234 50.346669 
C 21.645839 50.346669 22.434864 50.019844 23.016534 49.438174 
C 23.598203 48.856504 23.925028 48.06748 23.925028 47.244874 
C 23.925028 46.422269 23.598203 45.633245 23.016534 45.051575 
C 22.434864 44.469905 21.645839 44.14308 20.823234 44.14308 
C 20.000628 44.14308 19.211604 44.469905 18.629934 45.051575 
C 18.048264 45.633245 17.72144 46.422269 17.72144 47.244874 
C 17.72144 48.06748 18.048264 48.856504 18.629934 49.438174 
C 19.211604 50.019844 20.000628 50.346669 20.823234 50.346669 
z
" clip-path="url(#p4e96c2d2c2)" style="fill-opacity: 0.4; stroke: #000000; stroke-opacity: 0.4; stroke-width: 0.886227"/>
    <path d="M 21.185203 107.366609 
C 22.007809 107.366609 22.796833 107.039784 23.378503 106.458114 
C 23.960173 105.876444 24.286998 105.08742 24.286998 104.264815 
C 24.286998 103.442209 23.960173 102.653185 23.378503 102.071515 
C 22.796833 101.489845 22.007809 101.16302 21.185203 101.16302 
C 20.362598 101.16302 19.573574 101.489845 18.991904 102.071515 
C 18.410234 102.653185 18.083409 103.442209 18.083409 104.264815 
C 18.083409 105.08742 18.410234 105.876444 18.991904 106.458114 
C 19.573574 107.039784 20.362598 107.366609 21.185203 107.366609 
z
" clip-path="url(#p4e96c2d2c2)" style="fill-opacity: 0.4; stroke: #000000; stroke-opacity: 0.4; stroke-width: 0.886227"/>
    <path d="M 19.817468 48.638897 
C 20.640074 48.638897 21.429098 48.312073 22.010768 47.730403 
C 22.592438 47.148733 22.919263 46.359708 22.919263 45.537103 
C 22.919263 44.714497 22.592438 43.925473 22.010768 43.343803 
C 21.429098 42.762133 20.640074 42.435309 19.817468 42.435309 
C 18.994863 42.435309 18.205839 42.762133 17.624169 43.343803 
C 17.042499 43.925473 16.715674 44.714497 16.715674 45.537103 
C 16.715674 46.359708 17.042499 47.148733 17.624169 47.730403 
C 18.205839 48.312073 18.994863 48.638897 19.817468 48.638897 
z
" clip-path="url(#p4e96c2d2c2)" style="fill-opacity: 0.4; stroke: #000000; stroke-opacity: 0.4; stroke-width: 0.886227"/>
    <path d="M 19.324802 42.767104 
C 20.147408 42.767104 20.936432 42.440279 21.518102 41.858609 
C 22.099772 41.276939 22.426597 40.487915 22.426597 39.665309 
C 22.426597 38.842704 22.099772 38.05368 21.518102 37.47201 
C 20.936432 36.89034 20.147408 36.563515 19.324802 36.563515 
C 18.502197 36.563515 17.713173 36.89034 17.131503 37.47201 
C 16.549833 38.05368 16.223008 38.842704 16.223008 39.665309 
C 16.223008 40.487915 16.549833 41.276939 17.131503 41.858609 
C 17.713173 42.440279 18.502197 42.767104 19.324802 42.767104 
z
" clip-path="url(#p4e96c2d2c2)" style="fill-opacity: 0.4; stroke: #000000; stroke-opacity: 0.4; stroke-width: 0.886227"/>
    <path d="M 19.098255 75.386417 
C 19.920861 75.386417 20.709885 75.059593 21.291555 74.477923 
C 21.873225 73.896253 22.200049 73.107229 22.200049 72.284623 
C 22.200049 71.462018 21.873225 70.672993 21.291555 70.091323 
C 20.709885 69.509653 19.920861 69.182829 19.098255 69.182829 
C 18.27565 69.182829 17.486625 69.509653 16.904956 70.091323 
C 16.323286 70.672993 15.996461 71.462018 15.996461 72.284623 
C 15.996461 73.107229 16.323286 73.896253 16.904956 74.477923 
C 17.486625 75.059593 18.27565 75.386417 19.098255 75.386417 
z
" clip-path="url(#p4e96c2d2c2)" style="fill-opacity: 0.4; stroke: #000000; stroke-opacity: 0.4; stroke-width: 0.886227"/>
    <path d="M 18.828336 75.123547 
C 19.650941 75.123547 20.439966 74.796723 21.021636 74.215053 
C 21.603305 73.633383 21.93013 72.844358 21.93013 72.021753 
C 21.93013 71.199148 21.603305 70.410123 21.021636 69.828453 
C 20.439966 69.246783 19.650941 68.919959 18.828336 68.919959 
C 18.00573 68.919959 17.216706 69.246783 16.635036 69.828453 
C 16.053366 70.410123 15.726542 71.199148 15.726542 72.021753 
C 15.726542 72.844358 16.053366 73.633383 16.635036 74.215053 
C 17.216706 74.796723 18.00573 75.123547 18.828336 75.123547 
z
" clip-path="url(#p4e96c2d2c2)" style="fill-opacity: 0.4; stroke: #000000; stroke-opacity: 0.4; stroke-width: 0.886227"/>
    <path d="M 18.891815 49.953032 
C 19.714421 49.953032 20.503445 49.626208 21.085115 49.044538 
C 21.666785 48.462868 21.993609 47.673844 21.993609 46.851238 
C 21.993609 46.028633 21.666785 45.239608 21.085115 44.657938 
C 20.503445 44.076269 19.714421 43.749444 18.891815 43.749444 
C 18.06921 43.749444 17.280185 44.076269 16.698515 44.657938 
C 16.116846 45.239608 15.790021 46.028633 15.790021 46.851238 
C 15.790021 47.673844 16.116846 48.462868 16.698515 49.044538 
C 17.280185 49.626208 18.06921 49.953032 18.891815 49.953032 
z
" clip-path="url(#p4e96c2d2c2)" style="fill-opacity: 0.4; stroke: #000000; stroke-opacity: 0.4; stroke-width: 0.886227"/>
    <path d="M 18.8279 75.185132 
C 19.650505 75.185132 20.439529 74.858308 21.021199 74.276638 
C 21.602869 73.694968 21.929694 72.905944 21.929694 72.083338 
C 21.929694 71.260733 21.602869 70.471708 21.021199 69.890038 
C 20.439529 69.308368 19.650505 68.981544 18.8279 68.981544 
C 18.005294 68.981544 17.21627 69.308368 16.6346 69.890038 
C 16.05293 70.471708 15.726105 71.260733 15.726105 72.083338 
C 15.726105 72.905944 16.05293 73.694968 16.6346 74.276638 
C 17.21627 74.858308 18.005294 75.185132 18.8279 75.185132 
z
" clip-path="url(#p4e96c2d2c2)" style="fill-opacity: 0.4; stroke: #000000; stroke-opacity: 0.4; stroke-width: 0.886227"/>
    <path d="M 20.686709 43.963478 
C 21.509314 43.963478 22.298339 43.636653 22.880009 43.054983 
C 23.461679 42.473314 23.788503 41.684289 23.788503 40.861684 
C 23.788503 40.039078 23.461679 39.250054 22.880009 38.668384 
C 22.298339 38.086714 21.509314 37.75989 20.686709 37.75989 
C 19.864103 37.75989 19.075079 38.086714 18.493409 38.668384 
C 17.911739 39.250054 17.584915 40.039078 17.584915 40.861684 
C 17.584915 41.684289 17.911739 42.473314 18.493409 43.054983 
C 19.075079 43.636653 19.864103 43.963478 20.686709 43.963478 
z
" clip-path="url(#p4e96c2d2c2)" style="fill-opacity: 0.4; stroke: #000000; stroke-opacity: 0.4; stroke-width: 0.886227"/>
    <path d="M 20.203702 50.238791 
C 21.026307 50.238791 21.815332 49.911966 22.397001 49.330296 
C 22.978671 48.748626 23.305496 47.959602 23.305496 47.136996 
C 23.305496 46.314391 22.978671 45.525367 22.397001 44.943697 
C 21.815332 44.362027 21.026307 44.035202 20.203702 44.035202 
C 19.381096 44.035202 18.592072 44.362027 18.010402 44.943697 
C 17.428732 45.525367 17.101907 46.314391 17.101907 47.136996 
C 17.101907 47.959602 17.428732 48.748626 18.010402 49.330296 
C 18.592072 49.911966 19.381096 50.238791 20.203702 50.238791 
z
" clip-path="url(#p4e96c2d2c2)" style="fill-opacity: 0.4; stroke: #000000; stroke-opacity: 0.4; stroke-width: 0.886227"/>
    <path d="M 18.829201 43.075065 
C 19.651806 43.075065 20.440831 42.74824 21.022501 42.16657 
C 21.604171 41.5849 21.930995 40.795876 21.930995 39.97327 
C 21.930995 39.150665 21.604171 38.36164 21.022501 37.779971 
C 20.440831 37.198301 19.651806 36.871476 18.829201 36.871476 
C 18.006596 36.871476 17.217571 37.198301 16.635901 37.779971 
C 16.054231 38.36164 15.727407 39.150665 15.727407 39.97327 
C 15.727407 40.795876 16.054231 41.5849 16.635901 42.16657 
C 17.217571 42.74824 18.006596 43.075065 18.829201 43.075065 
z
" clip-path="url(#p4e96c2d2c2)" style="fill-opacity: 0.4; stroke: #000000; stroke-opacity: 0.4; stroke-width: 0.886227"/>
    <path d="M 18.891501 46.280703 
C 19.714107 46.280703 20.503131 45.953878 21.084801 45.372208 
C 21.666471 44.790538 21.993296 44.001514 21.993296 43.178909 
C 21.993296 42.356303 21.666471 41.567279 21.084801 40.985609 
C 20.503131 40.403939 19.714107 40.077114 18.891501 40.077114 
C 18.068896 40.077114 17.279872 40.403939 16.698202 40.985609 
C 16.116532 41.567279 15.789707 42.356303 15.789707 43.178909 
C 15.789707 44.001514 16.116532 44.790538 16.698202 45.372208 
C 17.279872 45.953878 18.068896 46.280703 18.891501 46.280703 
z
" clip-path="url(#p4e96c2d2c2)" style="fill-opacity: 0.4; stroke: #000000; stroke-opacity: 0.4; stroke-width: 0.886227"/>
    <path d="M 23.639601 43.966502 
C 24.462207 43.966502 25.251231 43.639677 25.832901 43.058007 
C 26.414571 42.476337 26.741395 41.687313 26.741395 40.864708 
C 26.741395 40.042102 26.414571 39.253078 25.832901 38.671408 
C 25.251231 38.089738 24.462207 37.762913 23.639601 37.762913 
C 22.816996 37.762913 22.027971 38.089738 21.446301 38.671408 
C 20.864632 39.253078 20.537807 40.042102 20.537807 40.864708 
C 20.537807 41.687313 20.864632 42.476337 21.446301 43.058007 
C 22.027971 43.639677 22.816996 43.966502 23.639601 43.966502 
z
" clip-path="url(#p4e96c2d2c2)" style="fill-opacity: 0.4; stroke: #000000; stroke-opacity: 0.4; stroke-width: 0.886227"/>
    <path d="M 71.95134 50.589483 
C 72.773945 50.589483 73.562969 50.262658 74.144639 49.680988 
C 74.726309 49.099318 75.053134 48.310294 75.053134 47.487688 
C 75.053134 46.665083 74.726309 45.876059 74.144639 45.294389 
C 73.562969 44.712719 72.773945 44.385894 71.95134 44.385894 
C 71.128734 44.385894 70.33971 44.712719 69.75804 45.294389 
C 69.17637 45.876059 68.849545 46.665083 68.849545 47.487688 
C 68.849545 48.310294 69.17637 49.099318 69.75804 49.680988 
C 70.33971 50.262658 71.128734 50.589483 71.95134 50.589483 
z
" clip-path="url(#p4e96c2d2c2)" style="fill-opacity: 0.4; stroke: #000000; stroke-opacity: 0.4; stroke-width: 0.886227"/>
    <path d="M 33.273931 42.286598 
C 34.096536 42.286598 34.885561 41.959773 35.467231 41.378103 
C 36.048901 40.796433 36.375725 40.007409 36.375725 39.184803 
C 36.375725 38.362198 36.048901 37.573173 35.467231 36.991504 
C 34.885561 36.409834 34.096536 36.083009 33.273931 36.083009 
C 32.451326 36.083009 31.662301 36.409834 31.080631 36.991504 
C 30.498961 37.573173 30.172137 38.362198 30.172137 39.184803 
C 30.172137 40.007409 30.498961 40.796433 31.080631 41.378103 
C 31.662301 41.959773 32.451326 42.286598 33.273931 42.286598 
z
" clip-path="url(#p4e96c2d2c2)" style="fill-opacity: 0.4; stroke: #000000; stroke-opacity: 0.4; stroke-width: 0.886227"/>
    <path d="M 30.249012 44.534524 
C 31.071618 44.534524 31.860642 44.207699 32.442312 43.62603 
C 33.023982 43.04436 33.350806 42.255335 33.350806 41.43273 
C 33.350806 40.610124 33.023982 39.8211 32.442312 39.23943 
C 31.860642 38.65776 31.071618 38.330936 30.249012 38.330936 
C 29.426407 38.330936 28.637382 38.65776 28.055712 39.23943 
C 27.474043 39.8211 27.147218 40.610124 27.147218 41.43273 
C 27.147218 42.255335 27.474043 43.04436 28.055712 43.62603 
C 28.637382 44.207699 29.426407 44.534524 30.249012 44.534524 
z
" clip-path="url(#p4e96c2d2c2)" style="fill-opacity: 0.4; stroke: #000000; stroke-opacity: 0.4; stroke-width: 0.886227"/>
    <path d="M 18.828187 76.037713 
C 19.650793 76.037713 20.439817 75.710889 21.021487 75.129219 
C 21.603157 74.547549 21.929982 73.758525 21.929982 72.935919 
C 21.929982 72.113314 21.603157 71.324289 21.021487 70.742619 
C 20.439817 70.16095 19.650793 69.834125 18.828187 69.834125 
C 18.005582 69.834125 17.216557 70.16095 16.634888 70.742619 
C 16.053218 71.324289 15.726393 72.113314 15.726393 72.935919 
C 15.726393 73.758525 16.053218 74.547549 16.634888 75.129219 
C 17.216557 75.710889 18.005582 76.037713 18.828187 76.037713 
z
" clip-path="url(#p4e96c2d2c2)" style="fill-opacity: 0.4; stroke: #000000; stroke-opacity: 0.4; stroke-width: 0.886227"/>
    <path d="M 18.828627 47.950388 
C 19.651232 47.950388 20.440257 47.623564 21.021927 47.041894 
C 21.603597 46.460224 21.930421 45.671199 21.930421 44.848594 
C 21.930421 44.025989 21.603597 43.236964 21.021927 42.655294 
C 20.440257 42.073624 19.651232 41.7468 18.828627 41.7468 
C 18.006022 41.7468 17.216997 42.073624 16.635327 42.655294 
C 16.053657 43.236964 15.726833 44.025989 15.726833 44.848594 
C 15.726833 45.671199 16.053657 46.460224 16.635327 47.041894 
C 17.216997 47.623564 18.006022 47.950388 18.828627 47.950388 
z
" clip-path="url(#p4e96c2d2c2)" style="fill-opacity: 0.4; stroke: #000000; stroke-opacity: 0.4; stroke-width: 0.886227"/>
    <path d="M 20.756154 104.045815 
C 21.578759 104.045815 22.367784 103.71899 22.949454 103.137321 
C 23.531124 102.555651 23.857948 101.766626 23.857948 100.944021 
C 23.857948 100.121415 23.531124 99.332391 22.949454 98.750721 
C 22.367784 98.169051 21.578759 97.842227 20.756154 97.842227 
C 19.933548 97.842227 19.144524 98.169051 18.562854 98.750721 
C 17.981184 99.332391 17.65436 100.121415 17.65436 100.944021 
C 17.65436 101.766626 17.981184 102.555651 18.562854 103.137321 
C 19.144524 103.71899 19.933548 104.045815 20.756154 104.045815 
z
" clip-path="url(#p4e96c2d2c2)" style="fill-opacity: 0.4; stroke: #000000; stroke-opacity: 0.4; stroke-width: 0.886227"/>
    <path d="M 18.829079 103.850131 
C 19.651685 103.850131 20.440709 103.523307 21.022379 102.941637 
C 21.604049 102.359967 21.930874 101.570942 21.930874 100.748337 
C 21.930874 99.925732 21.604049 99.136707 21.022379 98.555037 
C 20.440709 97.973367 19.651685 97.646543 18.829079 97.646543 
C 18.006474 97.646543 17.21745 97.973367 16.63578 98.555037 
C 16.05411 99.136707 15.727285 99.925732 15.727285 100.748337 
C 15.727285 101.570942 16.05411 102.359967 16.63578 102.941637 
C 17.21745 103.523307 18.006474 103.850131 18.829079 103.850131 
z
" clip-path="url(#p4e96c2d2c2)" style="fill-opacity: 0.4; stroke: #000000; stroke-opacity: 0.4; stroke-width: 0.886227"/>
    <path d="M 18.828834 44.312068 
C 19.65144 44.312068 20.440464 43.985244 21.022134 43.403574 
C 21.603804 42.821904 21.930628 42.032879 21.930628 41.210274 
C 21.930628 40.387669 21.603804 39.598644 21.022134 39.016974 
C 20.440464 38.435304 19.65144 38.10848 18.828834 38.10848 
C 18.006229 38.10848 17.217204 38.435304 16.635535 39.016974 
C 16.053865 39.598644 15.72704 40.387669 15.72704 41.210274 
C 15.72704 42.032879 16.053865 42.821904 16.635535 43.403574 
C 17.217204 43.985244 18.006229 44.312068 18.828834 44.312068 
z
" clip-path="url(#p4e96c2d2c2)" style="fill-opacity: 0.4; stroke: #000000; stroke-opacity: 0.4; stroke-width: 0.886227"/>
    <path d="M 85.879207 48.386877 
C 86.701812 48.386877 87.490837 48.060053 88.072507 47.478383 
C 88.654176 46.896713 88.981001 46.107688 88.981001 45.285083 
C 88.981001 44.462478 88.654176 43.673453 88.072507 43.091783 
C 87.490837 42.510113 86.701812 42.183289 85.879207 42.183289 
C 85.056601 42.183289 84.267577 42.510113 83.685907 43.091783 
C 83.104237 43.673453 82.777413 44.462478 82.777413 45.285083 
C 82.777413 46.107688 83.104237 46.896713 83.685907 47.478383 
C 84.267577 48.060053 85.056601 48.386877 85.879207 48.386877 
z
" clip-path="url(#p4e96c2d2c2)" style="fill-opacity: 0.4; stroke: #000000; stroke-opacity: 0.4; stroke-width: 0.886227"/>
    <path d="M 18.827646 80.801159 
C 19.650251 80.801159 20.439276 80.474334 21.020945 79.892664 
C 21.602615 79.310995 21.92944 78.52197 21.92944 77.699365 
C 21.92944 76.876759 21.602615 76.087735 21.020945 75.506065 
C 20.439276 74.924395 19.650251 74.59757 18.827646 74.59757 
C 18.00504 74.59757 17.216016 74.924395 16.634346 75.506065 
C 16.052676 76.087735 15.725852 76.876759 15.725852 77.699365 
C 15.725852 78.52197 16.052676 79.310995 16.634346 79.892664 
C 17.216016 80.474334 18.00504 80.801159 18.827646 80.801159 
z
" clip-path="url(#p4e96c2d2c2)" style="fill-opacity: 0.4; stroke: #000000; stroke-opacity: 0.4; stroke-width: 0.886227"/>
    <path d="M 18.828725 49.741245 
C 19.65133 49.741245 20.440354 49.414421 21.022024 48.832751 
C 21.603694 48.251081 21.930519 47.462056 21.930519 46.639451 
C 21.930519 45.816845 21.603694 45.027821 21.022024 44.446151 
C 20.440354 43.864481 19.65133 43.537657 18.828725 43.537657 
C 18.006119 43.537657 17.217095 43.864481 16.635425 44.446151 
C 16.053755 45.027821 15.72693 45.816845 15.72693 46.639451 
C 15.72693 47.462056 16.053755 48.251081 16.635425 48.832751 
C 17.217095 49.414421 18.006119 49.741245 18.828725 49.741245 
z
" clip-path="url(#p4e96c2d2c2)" style="fill-opacity: 0.4; stroke: #000000; stroke-opacity: 0.4; stroke-width: 0.886227"/>
    <path d="M 37.199592 46.665255 
C 38.022198 46.665255 38.811222 46.338431 39.392892 45.756761 
C 39.974562 45.175091 40.301387 44.386066 40.301387 43.563461 
C 40.301387 42.740856 39.974562 41.951831 39.392892 41.370161 
C 38.811222 40.788491 38.022198 40.461667 37.199592 40.461667 
C 36.376987 40.461667 35.587962 40.788491 35.006293 41.370161 
C 34.424623 41.951831 34.097798 42.740856 34.097798 43.563461 
C 34.097798 44.386066 34.424623 45.175091 35.006293 45.756761 
C 35.587962 46.338431 36.376987 46.665255 37.199592 46.665255 
z
" clip-path="url(#p4e96c2d2c2)" style="fill-opacity: 0.4; stroke: #000000; stroke-opacity: 0.4; stroke-width: 0.886227"/>
    <path d="M 23.866482 45.108196 
C 24.689087 45.108196 25.478112 44.781371 26.059782 44.199701 
C 26.641451 43.618031 26.968276 42.829007 26.968276 42.006401 
C 26.968276 41.183796 26.641451 40.394772 26.059782 39.813102 
C 25.478112 39.231432 24.689087 38.904607 23.866482 38.904607 
C 23.043876 38.904607 22.254852 39.231432 21.673182 39.813102 
C 21.091512 40.394772 20.764688 41.183796 20.764688 42.006401 
C 20.764688 42.829007 21.091512 43.618031 21.673182 44.199701 
C 22.254852 44.781371 23.043876 45.108196 23.866482 45.108196 
z
" clip-path="url(#p4e96c2d2c2)" style="fill-opacity: 0.4; stroke: #000000; stroke-opacity: 0.4; stroke-width: 0.886227"/>
    <path d="M 18.82838 102.38956 
C 19.650986 102.38956 20.44001 102.062736 21.02168 101.481066 
C 21.60335 100.899396 21.930174 100.110371 21.930174 99.287766 
C 21.930174 98.465161 21.60335 97.676136 21.02168 97.094466 
C 20.44001 96.512796 19.650986 96.185972 18.82838 96.185972 
C 18.005775 96.185972 17.21675 96.512796 16.63508 97.094466 
C 16.053411 97.676136 15.726586 98.465161 15.726586 99.287766 
C 15.726586 100.110371 16.053411 100.899396 16.63508 101.481066 
C 17.21675 102.062736 18.005775 102.38956 18.82838 102.38956 
z
" clip-path="url(#p4e96c2d2c2)" style="fill-opacity: 0.4; stroke: #000000; stroke-opacity: 0.4; stroke-width: 0.886227"/>
    <path d="M 35.985554 47.976829 
C 36.808159 47.976829 37.597184 47.650005 38.178854 47.068335 
C 38.760524 46.486665 39.087348 45.697641 39.087348 44.875035 
C 39.087348 44.05243 38.760524 43.263405 38.178854 42.681735 
C 37.597184 42.100066 36.808159 41.773241 35.985554 41.773241 
C 35.162949 41.773241 34.373924 42.100066 33.792254 42.681735 
C 33.210584 43.263405 32.88376 44.05243 32.88376 44.875035 
C 32.88376 45.697641 33.210584 46.486665 33.792254 47.068335 
C 34.373924 47.650005 35.162949 47.976829 35.985554 47.976829 
z
" clip-path="url(#p4e96c2d2c2)" style="fill-opacity: 0.4; stroke: #000000; stroke-opacity: 0.4; stroke-width: 0.886227"/>
    <path d="M 18.828469 72.824261 
C 19.651074 72.824261 20.440099 72.497436 21.021769 71.915766 
C 21.603439 71.334096 21.930263 70.545072 21.930263 69.722466 
C 21.930263 68.899861 21.603439 68.110837 21.021769 67.529167 
C 20.440099 66.947497 19.651074 66.620672 18.828469 66.620672 
C 18.005864 66.620672 17.216839 66.947497 16.635169 67.529167 
C 16.053499 68.110837 15.726675 68.899861 15.726675 69.722466 
C 15.726675 70.545072 16.053499 71.334096 16.635169 71.915766 
C 17.216839 72.497436 18.005864 72.824261 18.828469 72.824261 
z
" clip-path="url(#p4e96c2d2c2)" style="fill-opacity: 0.4; stroke: #000000; stroke-opacity: 0.4; stroke-width: 0.886227"/>
    <path d="M 35.595463 42.316714 
C 36.418068 42.316714 37.207093 41.98989 37.788763 41.40822 
C 38.370433 40.82655 38.697257 40.037526 38.697257 39.21492 
C 38.697257 38.392315 38.370433 37.60329 37.788763 37.02162 
C 37.207093 36.439951 36.418068 36.113126 35.595463 36.113126 
C 34.772858 36.113126 33.983833 36.439951 33.402163 37.02162 
C 32.820493 37.60329 32.493669 38.392315 32.493669 39.21492 
C 32.493669 40.037526 32.820493 40.82655 33.402163 41.40822 
C 33.983833 41.98989 34.772858 42.316714 35.595463 42.316714 
z
" clip-path="url(#p4e96c2d2c2)" style="fill-opacity: 0.4; stroke: #000000; stroke-opacity: 0.4; stroke-width: 0.886227"/>
   </g>
   <g id="PolyCollection_1">
    <defs>
     <path id="m0d3c952f7b" d="M 22.401858 -44.325312 
L 22.401858 -44.325312 
L 22.401858 -71.612187 
L 22.401858 -71.612187 
L 22.401858 -44.325312 
z
" style="stroke: #56b4e9; stroke-width: 0.886227"/>
    </defs>
    <g clip-path="url(#p4e96c2d2c2)">
     <use xlink:href="#m0d3c952f7b" x="0" y="161.784201" style="fill-opacity: 0; stroke: #56b4e9; stroke-width: 0.886227"/>
    </g>
   </g>
   <g id="LineCollection_1">
    <path d="M 22.401858 117.458888 
L 22.401858 90.172013 
" clip-path="url(#p4e96c2d2c2)" style="fill: none; stroke: #56b4e9; stroke-width: 1.772454"/>
   </g>
   <g id="PolyCollection_2">
    <defs>
     <path id="mcd1a8fae51" d="M 18.894583 -74.644062 
L 18.894583 -74.644062 
L 18.894583 -101.930937 
L 18.894583 -101.930937 
L 18.894583 -74.644062 
z
" style="stroke: #56b4e9; stroke-width: 0.886227"/>
    </defs>
    <g clip-path="url(#p4e96c2d2c2)">
     <use xlink:href="#mcd1a8fae51" x="0" y="161.784201" style="fill-opacity: 0; stroke: #56b4e9; stroke-width: 0.886227"/>
    </g>
   </g>
   <g id="LineCollection_2">
    <path d="M 18.894583 87.140138 
L 18.894583 59.853263 
" clip-path="url(#p4e96c2d2c2)" style="fill: none; stroke: #56b4e9; stroke-width: 1.772454"/>
   </g>
   <g id="PolyCollection_3">
    <defs>
     <path id="me1bb4b5c3e" d="M 30.427652 -104.962812 
L 30.427652 -104.962812 
L 30.427652 -132.249687 
L 30.427652 -132.249687 
L 30.427652 -104.962812 
z
" style="stroke: #56b4e9; stroke-width: 0.886227"/>
    </defs>
    <g clip-path="url(#p4e96c2d2c2)">
     <use xlink:href="#me1bb4b5c3e" x="0" y="161.784201" style="fill-opacity: 0; stroke: #56b4e9; stroke-width: 0.886227"/>
    </g>
   </g>
   <g id="LineCollection_3">
    <path d="M 30.427652 56.821388 
L 30.427652 29.534513 
" clip-path="url(#p4e96c2d2c2)" style="fill: none; stroke: #56b4e9; stroke-width: 1.772454"/>
   </g>
   <g id="patch_3">
    <path d="M 9.95 122.006701 
L 9.95 24.986701 
" style="fill: none; stroke: #000000; stroke-linejoin: miter; stroke-linecap: square"/>
   </g>
   <g id="patch_4">
    <path d="M 9.95 122.006701 
L 205.25 122.006701 
" style="fill: none; stroke: #000000; stroke-linejoin: miter; stroke-linecap: square"/>
   </g>
  </g>
  <g id="text_7">
   <!-- Viral progeny production -->
   <g transform="translate(30.307813 16.318125)scale(0.12 -0.12)">
    <defs>
     <path id="DejaVuSans-56" d="M 1831 0 
L 50 4666 
L 709 4666 
L 2188 738 
L 3669 4666 
L 4325 4666 
L 2547 0 
L 1831 0 
z
" transform="scale(0.015625)"/>
     <path id="DejaVuSans-64" d="M 2906 2969 
L 2906 4863 
L 3481 4863 
L 3481 0 
L 2906 0 
L 2906 525 
Q 2725 213 2448 61 
Q 2172 -91 1784 -91 
Q 1150 -91 751 415 
Q 353 922 353 1747 
Q 353 2572 751 3078 
Q 1150 3584 1784 3584 
Q 2172 3584 2448 3432 
Q 2725 3281 2906 2969 
z
M 947 1747 
Q 947 1113 1208 752 
Q 1469 391 1925 391 
Q 2381 391 2643 752 
Q 2906 1113 2906 1747 
Q 2906 2381 2643 2742 
Q 2381 3103 1925 3103 
Q 1469 3103 1208 2742 
Q 947 2381 947 1747 
z
" transform="scale(0.015625)"/>
     <path id="DejaVuSans-75" d="M 544 1381 
L 544 3500 
L 1119 3500 
L 1119 1403 
Q 1119 906 1312 657 
Q 1506 409 1894 409 
Q 2359 409 2629 706 
Q 2900 1003 2900 1516 
L 2900 3500 
L 3475 3500 
L 3475 0 
L 2900 0 
L 2900 538 
Q 2691 219 2414 64 
Q 2138 -91 1772 -91 
Q 1169 -91 856 284 
Q 544 659 544 1381 
z
M 1991 3584 
L 1991 3584 
z
" transform="scale(0.015625)"/>
    </defs>
    <use xlink:href="#DejaVuSans-56"/>
    <use xlink:href="#DejaVuSans-69" x="66.158203"/>
    <use xlink:href="#DejaVuSans-72" x="93.941406"/>
    <use xlink:href="#DejaVuSans-61" x="135.054688"/>
    <use xlink:href="#DejaVuSans-6c" x="196.333984"/>
    <use xlink:href="#DejaVuSans-20" x="224.117188"/>
    <use xlink:href="#DejaVuSans-70" x="255.904297"/>
    <use xlink:href="#DejaVuSans-72" x="319.380859"/>
    <use xlink:href="#DejaVuSans-6f" x="358.244141"/>
    <use xlink:href="#DejaVuSans-67" x="419.425781"/>
    <use xlink:href="#DejaVuSans-65" x="482.902344"/>
    <use xlink:href="#DejaVuSans-6e" x="544.425781"/>
    <use xlink:href="#DejaVuSans-79" x="607.804688"/>
    <use xlink:href="#DejaVuSans-20" x="666.984375"/>
    <use xlink:href="#DejaVuSans-70" x="698.771484"/>
    <use xlink:href="#DejaVuSans-72" x="762.248047"/>
    <use xlink:href="#DejaVuSans-6f" x="801.111328"/>
    <use xlink:href="#DejaVuSans-64" x="862.292969"/>
    <use xlink:href="#DejaVuSans-75" x="925.769531"/>
    <use xlink:href="#DejaVuSans-63" x="989.148438"/>
    <use xlink:href="#DejaVuSans-74" x="1044.128906"/>
    <use xlink:href="#DejaVuSans-69" x="1083.337891"/>
    <use xlink:href="#DejaVuSans-6f" x="1111.121094"/>
    <use xlink:href="#DejaVuSans-6e" x="1172.302734"/>
   </g>
  </g>
 </g>
 <defs>
  <clipPath id="p4e96c2d2c2">
   <rect x="9.95" y="24.986701" width="195.3" height="97.02"/>
  </clipPath>
 </defs>
</svg>
