<?xml version="1.0" encoding="utf-8" standalone="no"?>
<!DOCTYPE svg PUBLIC "-//W3C//DTD SVG 1.1//EN"
  "http://www.w3.org/Graphics/SVG/1.1/DTD/svg11.dtd">
<svg xmlns:xlink="http://www.w3.org/1999/xlink" width="463.741312pt" height="270.506431pt" viewBox="0 0 463.741312 270.506431" xmlns="http://www.w3.org/2000/svg" version="1.1">
 <metadata>
  <rdf:RDF xmlns:dc="http://purl.org/dc/elements/1.1/" xmlns:cc="http://creativecommons.org/ns#" xmlns:rdf="http://www.w3.org/1999/02/22-rdf-syntax-ns#">
   <cc:Work>
    <dc:type rdf:resource="http://purl.org/dc/dcmitype/StillImage"/>
    <dc:date>2022-12-05T15:25:19.301603</dc:date>
    <dc:format>image/svg+xml</dc:format>
    <dc:creator>
     <cc:Agent>
      <dc:title>Matplotlib v3.5.2, https://matplotlib.org/</dc:title>
     </cc:Agent>
    </dc:creator>
   </cc:Work>
  </rdf:RDF>
 </metadata>
 <defs>
  <style type="text/css">*{stroke-linejoin: round; stroke-linecap: butt}</style>
 </defs>
 <g id="figure_1">
  <g id="patch_1">
   <path d="M -0 270.506431 
L 463.741312 270.506431 
L 463.741312 0 
L -0 0 
z
" style="fill: #ffffff; stroke: #ffffff; stroke-linejoin: miter"/>
  </g>
  <g id="axes_1">
   <g id="patch_2">
    <path d="M 57.949438 230.728931 
L 225.349437 230.728931 
L 225.349437 64.408931 
L 57.949438 64.408931 
z
" style="fill: #ffffff"/>
   </g>
   <g id="matplotlib.axis_1">
    <g id="xtick_1">
     <g id="line2d_1">
      <path d="M 65.558528 230.728931 
" style="fill: none; stroke: #000000; stroke-width: 1.5"/>
      <defs>
       <path id="m3f9d298b3e" d="M 0 0 
L 0 2.75 
" style="stroke: #333333"/>
      </defs>
      <g>
       <use xlink:href="#m3f9d298b3e" x="65.558528" y="230.728931" style="stroke: #333333"/>
      </g>
     </g>
     <g id="text_1">
      <!-- 0 -->
      <g transform="translate(61.741028 244.797056)scale(0.12 -0.12)">
       <defs>
        <path id="DejaVuSans-30" d="M 2034 4250 
Q 1547 4250 1301 3770 
Q 1056 3291 1056 2328 
Q 1056 1369 1301 889 
Q 1547 409 2034 409 
Q 2525 409 2770 889 
Q 3016 1369 3016 2328 
Q 3016 3291 2770 3770 
Q 2525 4250 2034 4250 
z
M 2034 4750 
Q 2819 4750 3233 4129 
Q 3647 3509 3647 2328 
Q 3647 1150 3233 529 
Q 2819 -91 2034 -91 
Q 1250 -91 836 529 
Q 422 1150 422 2328 
Q 422 3509 836 4129 
Q 1250 4750 2034 4750 
z
" transform="scale(0.015625)"/>
       </defs>
       <use xlink:href="#DejaVuSans-30"/>
      </g>
     </g>
    </g>
    <g id="xtick_2">
     <g id="line2d_2">
      <path d="M 134.732082 230.728931 
" style="fill: none; stroke: #000000; stroke-width: 1.5"/>
      <g>
       <use xlink:href="#m3f9d298b3e" x="134.732082" y="230.728931" style="stroke: #333333"/>
      </g>
     </g>
     <g id="text_2">
      <!-- 0.1 -->
      <g transform="translate(125.190207 244.797056)scale(0.12 -0.12)">
       <defs>
        <path id="DejaVuSans-2e" d="M 684 794 
L 1344 794 
L 1344 0 
L 684 0 
L 684 794 
z
" transform="scale(0.015625)"/>
        <path id="DejaVuSans-31" d="M 794 531 
L 1825 531 
L 1825 4091 
L 703 3866 
L 703 4441 
L 1819 4666 
L 2450 4666 
L 2450 531 
L 3481 531 
L 3481 0 
L 794 0 
L 794 531 
z
" transform="scale(0.015625)"/>
       </defs>
       <use xlink:href="#DejaVuSans-30"/>
       <use xlink:href="#DejaVuSans-2e" x="63.623047"/>
       <use xlink:href="#DejaVuSans-31" x="95.410156"/>
      </g>
     </g>
    </g>
    <g id="xtick_3">
     <g id="line2d_3">
      <path d="M 203.905636 230.728931 
" style="fill: none; stroke: #000000; stroke-width: 1.5"/>
      <g>
       <use xlink:href="#m3f9d298b3e" x="203.905636" y="230.728931" style="stroke: #333333"/>
      </g>
     </g>
     <g id="text_3">
      <!-- 0.2 -->
      <g transform="translate(194.363761 244.797056)scale(0.12 -0.12)">
       <defs>
        <path id="DejaVuSans-32" d="M 1228 531 
L 3431 531 
L 3431 0 
L 469 0 
L 469 531 
Q 828 903 1448 1529 
Q 2069 2156 2228 2338 
Q 2531 2678 2651 2914 
Q 2772 3150 2772 3378 
Q 2772 3750 2511 3984 
Q 2250 4219 1831 4219 
Q 1534 4219 1204 4116 
Q 875 4013 500 3803 
L 500 4441 
Q 881 4594 1212 4672 
Q 1544 4750 1819 4750 
Q 2544 4750 2975 4387 
Q 3406 4025 3406 3419 
Q 3406 3131 3298 2873 
Q 3191 2616 2906 2266 
Q 2828 2175 2409 1742 
Q 1991 1309 1228 531 
z
" transform="scale(0.015625)"/>
       </defs>
       <use xlink:href="#DejaVuSans-30"/>
       <use xlink:href="#DejaVuSans-2e" x="63.623047"/>
       <use xlink:href="#DejaVuSans-32" x="95.410156"/>
      </g>
     </g>
    </g>
    <g id="xtick_4"/>
    <g id="xtick_5"/>
    <g id="text_4">
     <!-- fraction physical progeny -->
     <g transform="translate(62.8235 260.810806)scale(0.12 -0.12)">
      <defs>
       <path id="DejaVuSans-66" d="M 2375 4863 
L 2375 4384 
L 1825 4384 
Q 1516 4384 1395 4259 
Q 1275 4134 1275 3809 
L 1275 3500 
L 2222 3500 
L 2222 3053 
L 1275 3053 
L 1275 0 
L 697 0 
L 697 3053 
L 147 3053 
L 147 3500 
L 697 3500 
L 697 3744 
Q 697 4328 969 4595 
Q 1241 4863 1831 4863 
L 2375 4863 
z
" transform="scale(0.015625)"/>
       <path id="DejaVuSans-72" d="M 2631 2963 
Q 2534 3019 2420 3045 
Q 2306 3072 2169 3072 
Q 1681 3072 1420 2755 
Q 1159 2438 1159 1844 
L 1159 0 
L 581 0 
L 581 3500 
L 1159 3500 
L 1159 2956 
Q 1341 3275 1631 3429 
Q 1922 3584 2338 3584 
Q 2397 3584 2469 3576 
Q 2541 3569 2628 3553 
L 2631 2963 
z
" transform="scale(0.015625)"/>
       <path id="DejaVuSans-61" d="M 2194 1759 
Q 1497 1759 1228 1600 
Q 959 1441 959 1056 
Q 959 750 1161 570 
Q 1363 391 1709 391 
Q 2188 391 2477 730 
Q 2766 1069 2766 1631 
L 2766 1759 
L 2194 1759 
z
M 3341 1997 
L 3341 0 
L 2766 0 
L 2766 531 
Q 2569 213 2275 61 
Q 1981 -91 1556 -91 
Q 1019 -91 701 211 
Q 384 513 384 1019 
Q 384 1609 779 1909 
Q 1175 2209 1959 2209 
L 2766 2209 
L 2766 2266 
Q 2766 2663 2505 2880 
Q 2244 3097 1772 3097 
Q 1472 3097 1187 3025 
Q 903 2953 641 2809 
L 641 3341 
Q 956 3463 1253 3523 
Q 1550 3584 1831 3584 
Q 2591 3584 2966 3190 
Q 3341 2797 3341 1997 
z
" transform="scale(0.015625)"/>
       <path id="DejaVuSans-63" d="M 3122 3366 
L 3122 2828 
Q 2878 2963 2633 3030 
Q 2388 3097 2138 3097 
Q 1578 3097 1268 2742 
Q 959 2388 959 1747 
Q 959 1106 1268 751 
Q 1578 397 2138 397 
Q 2388 397 2633 464 
Q 2878 531 3122 666 
L 3122 134 
Q 2881 22 2623 -34 
Q 2366 -91 2075 -91 
Q 1284 -91 818 406 
Q 353 903 353 1747 
Q 353 2603 823 3093 
Q 1294 3584 2113 3584 
Q 2378 3584 2631 3529 
Q 2884 3475 3122 3366 
z
" transform="scale(0.015625)"/>
       <path id="DejaVuSans-74" d="M 1172 4494 
L 1172 3500 
L 2356 3500 
L 2356 3053 
L 1172 3053 
L 1172 1153 
Q 1172 725 1289 603 
Q 1406 481 1766 481 
L 2356 481 
L 2356 0 
L 1766 0 
Q 1100 0 847 248 
Q 594 497 594 1153 
L 594 3053 
L 172 3053 
L 172 3500 
L 594 3500 
L 594 4494 
L 1172 4494 
z
" transform="scale(0.015625)"/>
       <path id="DejaVuSans-69" d="M 603 3500 
L 1178 3500 
L 1178 0 
L 603 0 
L 603 3500 
z
M 603 4863 
L 1178 4863 
L 1178 4134 
L 603 4134 
L 603 4863 
z
" transform="scale(0.015625)"/>
       <path id="DejaVuSans-6f" d="M 1959 3097 
Q 1497 3097 1228 2736 
Q 959 2375 959 1747 
Q 959 1119 1226 758 
Q 1494 397 1959 397 
Q 2419 397 2687 759 
Q 2956 1122 2956 1747 
Q 2956 2369 2687 2733 
Q 2419 3097 1959 3097 
z
M 1959 3584 
Q 2709 3584 3137 3096 
Q 3566 2609 3566 1747 
Q 3566 888 3137 398 
Q 2709 -91 1959 -91 
Q 1206 -91 779 398 
Q 353 888 353 1747 
Q 353 2609 779 3096 
Q 1206 3584 1959 3584 
z
" transform="scale(0.015625)"/>
       <path id="DejaVuSans-6e" d="M 3513 2113 
L 3513 0 
L 2938 0 
L 2938 2094 
Q 2938 2591 2744 2837 
Q 2550 3084 2163 3084 
Q 1697 3084 1428 2787 
Q 1159 2491 1159 1978 
L 1159 0 
L 581 0 
L 581 3500 
L 1159 3500 
L 1159 2956 
Q 1366 3272 1645 3428 
Q 1925 3584 2291 3584 
Q 2894 3584 3203 3211 
Q 3513 2838 3513 2113 
z
" transform="scale(0.015625)"/>
       <path id="DejaVuSans-20" transform="scale(0.015625)"/>
       <path id="DejaVuSans-70" d="M 1159 525 
L 1159 -1331 
L 581 -1331 
L 581 3500 
L 1159 3500 
L 1159 2969 
Q 1341 3281 1617 3432 
Q 1894 3584 2278 3584 
Q 2916 3584 3314 3078 
Q 3713 2572 3713 1747 
Q 3713 922 3314 415 
Q 2916 -91 2278 -91 
Q 1894 -91 1617 61 
Q 1341 213 1159 525 
z
M 3116 1747 
Q 3116 2381 2855 2742 
Q 2594 3103 2138 3103 
Q 1681 3103 1420 2742 
Q 1159 2381 1159 1747 
Q 1159 1113 1420 752 
Q 1681 391 2138 391 
Q 2594 391 2855 752 
Q 3116 1113 3116 1747 
z
" transform="scale(0.015625)"/>
       <path id="DejaVuSans-68" d="M 3513 2113 
L 3513 0 
L 2938 0 
L 2938 2094 
Q 2938 2591 2744 2837 
Q 2550 3084 2163 3084 
Q 1697 3084 1428 2787 
Q 1159 2491 1159 1978 
L 1159 0 
L 581 0 
L 581 4863 
L 1159 4863 
L 1159 2956 
Q 1366 3272 1645 3428 
Q 1925 3584 2291 3584 
Q 2894 3584 3203 3211 
Q 3513 2838 3513 2113 
z
" transform="scale(0.015625)"/>
       <path id="DejaVuSans-79" d="M 2059 -325 
Q 1816 -950 1584 -1140 
Q 1353 -1331 966 -1331 
L 506 -1331 
L 506 -850 
L 844 -850 
Q 1081 -850 1212 -737 
Q 1344 -625 1503 -206 
L 1606 56 
L 191 3500 
L 800 3500 
L 1894 763 
L 2988 3500 
L 3597 3500 
L 2059 -325 
z
" transform="scale(0.015625)"/>
       <path id="DejaVuSans-73" d="M 2834 3397 
L 2834 2853 
Q 2591 2978 2328 3040 
Q 2066 3103 1784 3103 
Q 1356 3103 1142 2972 
Q 928 2841 928 2578 
Q 928 2378 1081 2264 
Q 1234 2150 1697 2047 
L 1894 2003 
Q 2506 1872 2764 1633 
Q 3022 1394 3022 966 
Q 3022 478 2636 193 
Q 2250 -91 1575 -91 
Q 1294 -91 989 -36 
Q 684 19 347 128 
L 347 722 
Q 666 556 975 473 
Q 1284 391 1588 391 
Q 1994 391 2212 530 
Q 2431 669 2431 922 
Q 2431 1156 2273 1281 
Q 2116 1406 1581 1522 
L 1381 1569 
Q 847 1681 609 1914 
Q 372 2147 372 2553 
Q 372 3047 722 3315 
Q 1072 3584 1716 3584 
Q 2034 3584 2315 3537 
Q 2597 3491 2834 3397 
z
" transform="scale(0.015625)"/>
       <path id="DejaVuSans-6c" d="M 603 4863 
L 1178 4863 
L 1178 0 
L 603 0 
L 603 4863 
z
" transform="scale(0.015625)"/>
       <path id="DejaVuSans-67" d="M 2906 1791 
Q 2906 2416 2648 2759 
Q 2391 3103 1925 3103 
Q 1463 3103 1205 2759 
Q 947 2416 947 1791 
Q 947 1169 1205 825 
Q 1463 481 1925 481 
Q 2391 481 2648 825 
Q 2906 1169 2906 1791 
z
M 3481 434 
Q 3481 -459 3084 -895 
Q 2688 -1331 1869 -1331 
Q 1566 -1331 1297 -1286 
Q 1028 -1241 775 -1147 
L 775 -588 
Q 1028 -725 1275 -790 
Q 1522 -856 1778 -856 
Q 2344 -856 2625 -561 
Q 2906 -266 2906 331 
L 2906 616 
Q 2728 306 2450 153 
Q 2172 0 1784 0 
Q 1141 0 747 490 
Q 353 981 353 1791 
Q 353 2603 747 3093 
Q 1141 3584 1784 3584 
Q 2172 3584 2450 3431 
Q 2728 3278 2906 2969 
L 2906 3500 
L 3481 3500 
L 3481 434 
z
" transform="scale(0.015625)"/>
       <path id="DejaVuSans-65" d="M 3597 1894 
L 3597 1613 
L 953 1613 
Q 991 1019 1311 708 
Q 1631 397 2203 397 
Q 2534 397 2845 478 
Q 3156 559 3463 722 
L 3463 178 
Q 3153 47 2828 -22 
Q 2503 -91 2169 -91 
Q 1331 -91 842 396 
Q 353 884 353 1716 
Q 353 2575 817 3079 
Q 1281 3584 2069 3584 
Q 2775 3584 3186 3129 
Q 3597 2675 3597 1894 
z
M 3022 2063 
Q 3016 2534 2758 2815 
Q 2500 3097 2075 3097 
Q 1594 3097 1305 2825 
Q 1016 2553 972 2059 
L 3022 2063 
z
" transform="scale(0.015625)"/>
      </defs>
      <use xlink:href="#DejaVuSans-66"/>
      <use xlink:href="#DejaVuSans-72" x="35.205078"/>
      <use xlink:href="#DejaVuSans-61" x="76.318359"/>
      <use xlink:href="#DejaVuSans-63" x="137.597656"/>
      <use xlink:href="#DejaVuSans-74" x="192.578125"/>
      <use xlink:href="#DejaVuSans-69" x="231.787109"/>
      <use xlink:href="#DejaVuSans-6f" x="259.570312"/>
      <use xlink:href="#DejaVuSans-6e" x="320.751953"/>
      <use xlink:href="#DejaVuSans-20" x="384.130859"/>
      <use xlink:href="#DejaVuSans-70" x="415.917969"/>
      <use xlink:href="#DejaVuSans-68" x="479.394531"/>
      <use xlink:href="#DejaVuSans-79" x="542.773438"/>
      <use xlink:href="#DejaVuSans-73" x="601.953125"/>
      <use xlink:href="#DejaVuSans-69" x="654.052734"/>
      <use xlink:href="#DejaVuSans-63" x="681.835938"/>
      <use xlink:href="#DejaVuSans-61" x="736.816406"/>
      <use xlink:href="#DejaVuSans-6c" x="798.095703"/>
      <use xlink:href="#DejaVuSans-20" x="825.878906"/>
      <use xlink:href="#DejaVuSans-70" x="857.666016"/>
      <use xlink:href="#DejaVuSans-72" x="921.142578"/>
      <use xlink:href="#DejaVuSans-6f" x="960.005859"/>
      <use xlink:href="#DejaVuSans-67" x="1021.1875"/>
      <use xlink:href="#DejaVuSans-65" x="1084.664062"/>
      <use xlink:href="#DejaVuSans-6e" x="1146.1875"/>
      <use xlink:href="#DejaVuSans-79" x="1209.566406"/>
     </g>
    </g>
   </g>
   <g id="matplotlib.axis_2">
    <g id="ytick_1">
     <g id="line2d_4">
      <path d="M 57.949438 223.168931 
" style="fill: none; stroke: #000000; stroke-width: 1.5"/>
      <defs>
       <path id="mcdc1f6080f" d="M 0 0 
L -2.75 0 
" style="stroke: #333333"/>
      </defs>
      <g>
       <use xlink:href="#mcdc1f6080f" x="57.949438" y="223.168931" style="stroke: #333333"/>
      </g>
     </g>
     <g id="text_5">
      <!-- 0 -->
      <g transform="translate(45.364438 226.480181)scale(0.12 -0.12)">
       <use xlink:href="#DejaVuSans-30"/>
      </g>
     </g>
    </g>
    <g id="ytick_2">
     <g id="line2d_5">
      <path d="M 57.949438 154.441658 
" style="fill: none; stroke: #000000; stroke-width: 1.5"/>
      <g>
       <use xlink:href="#mcdc1f6080f" x="57.949438" y="154.441658" style="stroke: #333333"/>
      </g>
     </g>
     <g id="text_6">
      <!-- 0.1 -->
      <g transform="translate(33.915688 157.752908)scale(0.12 -0.12)">
       <use xlink:href="#DejaVuSans-30"/>
       <use xlink:href="#DejaVuSans-2e" x="63.623047"/>
       <use xlink:href="#DejaVuSans-31" x="95.410156"/>
      </g>
     </g>
    </g>
    <g id="ytick_3">
     <g id="line2d_6">
      <path d="M 57.949438 85.714386 
" style="fill: none; stroke: #000000; stroke-width: 1.5"/>
      <g>
       <use xlink:href="#mcdc1f6080f" x="57.949438" y="85.714386" style="stroke: #333333"/>
      </g>
     </g>
     <g id="text_7">
      <!-- 0.2 -->
      <g transform="translate(33.915688 89.025636)scale(0.12 -0.12)">
       <use xlink:href="#DejaVuSans-30"/>
       <use xlink:href="#DejaVuSans-2e" x="63.623047"/>
       <use xlink:href="#DejaVuSans-32" x="95.410156"/>
      </g>
     </g>
    </g>
    <g id="ytick_4"/>
    <g id="ytick_5"/>
    <g id="text_8">
     <!-- fraction  -->
     <g transform="translate(16.318125 171.443306)rotate(-90)scale(0.12 -0.12)">
      <use xlink:href="#DejaVuSans-66"/>
      <use xlink:href="#DejaVuSans-72" x="35.205078"/>
      <use xlink:href="#DejaVuSans-61" x="76.318359"/>
      <use xlink:href="#DejaVuSans-63" x="137.597656"/>
      <use xlink:href="#DejaVuSans-74" x="192.578125"/>
      <use xlink:href="#DejaVuSans-69" x="231.787109"/>
      <use xlink:href="#DejaVuSans-6f" x="259.570312"/>
      <use xlink:href="#DejaVuSans-6e" x="320.751953"/>
      <use xlink:href="#DejaVuSans-20" x="384.130859"/>
     </g>
     <!-- infectious progeny -->
     <g transform="translate(27.020063 202.253306)rotate(-90)scale(0.12 -0.12)">
      <defs>
       <path id="DejaVuSans-75" d="M 544 1381 
L 544 3500 
L 1119 3500 
L 1119 1403 
Q 1119 906 1312 657 
Q 1506 409 1894 409 
Q 2359 409 2629 706 
Q 2900 1003 2900 1516 
L 2900 3500 
L 3475 3500 
L 3475 0 
L 2900 0 
L 2900 538 
Q 2691 219 2414 64 
Q 2138 -91 1772 -91 
Q 1169 -91 856 284 
Q 544 659 544 1381 
z
M 1991 3584 
L 1991 3584 
z
" transform="scale(0.015625)"/>
      </defs>
      <use xlink:href="#DejaVuSans-69"/>
      <use xlink:href="#DejaVuSans-6e" x="27.783203"/>
      <use xlink:href="#DejaVuSans-66" x="91.162109"/>
      <use xlink:href="#DejaVuSans-65" x="126.367188"/>
      <use xlink:href="#DejaVuSans-63" x="187.890625"/>
      <use xlink:href="#DejaVuSans-74" x="242.871094"/>
      <use xlink:href="#DejaVuSans-69" x="282.080078"/>
      <use xlink:href="#DejaVuSans-6f" x="309.863281"/>
      <use xlink:href="#DejaVuSans-75" x="371.044922"/>
      <use xlink:href="#DejaVuSans-73" x="434.423828"/>
      <use xlink:href="#DejaVuSans-20" x="486.523438"/>
      <use xlink:href="#DejaVuSans-70" x="518.310547"/>
      <use xlink:href="#DejaVuSans-72" x="581.787109"/>
      <use xlink:href="#DejaVuSans-6f" x="620.650391"/>
      <use xlink:href="#DejaVuSans-67" x="681.832031"/>
      <use xlink:href="#DejaVuSans-65" x="745.308594"/>
      <use xlink:href="#DejaVuSans-6e" x="806.832031"/>
      <use xlink:href="#DejaVuSans-79" x="870.210938"/>
     </g>
    </g>
   </g>
   <g id="PathCollection_1">
    <path d="M 74.151388 225.43399 
C 74.973994 225.43399 75.763018 225.107165 76.344688 224.525495 
C 76.926358 223.943825 77.253183 223.154801 77.253183 222.332195 
C 77.253183 221.50959 76.926358 220.720566 76.344688 220.138896 
C 75.763018 219.557226 74.973994 219.230401 74.151388 219.230401 
C 73.328783 219.230401 72.539759 219.557226 71.958089 220.138896 
C 71.376419 220.720566 71.049594 221.50959 71.049594 222.332195 
C 71.049594 223.154801 71.376419 223.943825 71.958089 224.525495 
C 72.539759 225.107165 73.328783 225.43399 74.151388 225.43399 
z
" clip-path="url(#p038fffef92)" style="fill: #ff5349; fill-opacity: 0.4; stroke: #ff5349; stroke-opacity: 0.4; stroke-width: 0.886227"/>
    <path d="M 65.683013 226.12491 
C 66.505618 226.12491 67.294643 225.798085 67.876313 225.216415 
C 68.457983 224.634745 68.784807 223.845721 68.784807 223.023115 
C 68.784807 222.20051 68.457983 221.411485 67.876313 220.829816 
C 67.294643 220.248146 66.505618 219.921321 65.683013 219.921321 
C 64.860408 219.921321 64.071383 220.248146 63.489713 220.829816 
C 62.908043 221.411485 62.581219 222.20051 62.581219 223.023115 
C 62.581219 223.845721 62.908043 224.634745 63.489713 225.216415 
C 64.071383 225.798085 64.860408 226.12491 65.683013 226.12491 
z
" clip-path="url(#p038fffef92)" style="fill: #0072b2; fill-opacity: 0.4; stroke: #0072b2; stroke-opacity: 0.4; stroke-width: 0.886227"/>
    <path d="M 67.293546 225.966342 
C 68.116151 225.966342 68.905176 225.639517 69.486845 225.057847 
C 70.068515 224.476177 70.39534 223.687153 70.39534 222.864548 
C 70.39534 222.041942 70.068515 221.252918 69.486845 220.671248 
C 68.905176 220.089578 68.116151 219.762753 67.293546 219.762753 
C 66.47094 219.762753 65.681916 220.089578 65.100246 220.671248 
C 64.518576 221.252918 64.191751 222.041942 64.191751 222.864548 
C 64.191751 223.687153 64.518576 224.476177 65.100246 225.057847 
C 65.681916 225.639517 66.47094 225.966342 67.293546 225.966342 
z
" clip-path="url(#p038fffef92)" style="fill: #999999; fill-opacity: 0.4; stroke: #999999; stroke-opacity: 0.4; stroke-width: 0.886227"/>
    <path d="M 65.89232 223.60472 
C 66.714925 223.60472 67.503949 223.277895 68.085619 222.696225 
C 68.667289 222.114555 68.994114 221.325531 68.994114 220.502925 
C 68.994114 219.68032 68.667289 218.891296 68.085619 218.309626 
C 67.503949 217.727956 66.714925 217.401131 65.89232 217.401131 
C 65.069714 217.401131 64.28069 217.727956 63.69902 218.309626 
C 63.11735 218.891296 62.790525 219.68032 62.790525 220.502925 
C 62.790525 221.325531 63.11735 222.114555 63.69902 222.696225 
C 64.28069 223.277895 65.069714 223.60472 65.89232 223.60472 
z
" clip-path="url(#p038fffef92)" style="fill: #999999; fill-opacity: 0.4; stroke: #999999; stroke-opacity: 0.4; stroke-width: 0.886227"/>
    <path d="M 65.683013 226.12491 
C 66.505618 226.12491 67.294643 225.798085 67.876313 225.216415 
C 68.457983 224.634745 68.784807 223.845721 68.784807 223.023115 
C 68.784807 222.20051 68.457983 221.411485 67.876313 220.829816 
C 67.294643 220.248146 66.505618 219.921321 65.683013 219.921321 
C 64.860408 219.921321 64.071383 220.248146 63.489713 220.829816 
C 62.908043 221.411485 62.581219 222.20051 62.581219 223.023115 
C 62.581219 223.845721 62.908043 224.634745 63.489713 225.216415 
C 64.071383 225.798085 64.860408 226.12491 65.683013 226.12491 
z
" clip-path="url(#p038fffef92)" style="fill: #ff5349; fill-opacity: 0.4; stroke: #ff5349; stroke-opacity: 0.4; stroke-width: 0.886227"/>
    <path d="M 67.660889 225.940963 
C 68.483495 225.940963 69.272519 225.614139 69.854189 225.032469 
C 70.435859 224.450799 70.762684 223.661774 70.762684 222.839169 
C 70.762684 222.016564 70.435859 221.227539 69.854189 220.645869 
C 69.272519 220.064199 68.483495 219.737375 67.660889 219.737375 
C 66.838284 219.737375 66.04926 220.064199 65.46759 220.645869 
C 64.88592 221.227539 64.559095 222.016564 64.559095 222.839169 
C 64.559095 223.661774 64.88592 224.450799 65.46759 225.032469 
C 66.04926 225.614139 66.838284 225.940963 67.660889 225.940963 
z
" clip-path="url(#p038fffef92)" style="fill: #0072b2; fill-opacity: 0.4; stroke: #0072b2; stroke-opacity: 0.4; stroke-width: 0.886227"/>
    <path d="M 65.734576 226.064511 
C 66.557182 226.064511 67.346206 225.737686 67.927876 225.156016 
C 68.509546 224.574346 68.83637 223.785322 68.83637 222.962716 
C 68.83637 222.140111 68.509546 221.351087 67.927876 220.769417 
C 67.346206 220.187747 66.557182 219.860922 65.734576 219.860922 
C 64.911971 219.860922 64.122946 220.187747 63.541277 220.769417 
C 62.959607 221.351087 62.632782 222.140111 62.632782 222.962716 
C 62.632782 223.785322 62.959607 224.574346 63.541277 225.156016 
C 64.122946 225.737686 64.911971 226.064511 65.734576 226.064511 
z
" clip-path="url(#p038fffef92)" style="fill: #0072b2; fill-opacity: 0.4; stroke: #0072b2; stroke-opacity: 0.4; stroke-width: 0.886227"/>
    <path d="M 65.683013 226.12491 
C 66.505618 226.12491 67.294643 225.798085 67.876313 225.216415 
C 68.457983 224.634745 68.784807 223.845721 68.784807 223.023115 
C 68.784807 222.20051 68.457983 221.411485 67.876313 220.829816 
C 67.294643 220.248146 66.505618 219.921321 65.683013 219.921321 
C 64.860408 219.921321 64.071383 220.248146 63.489713 220.829816 
C 62.908043 221.411485 62.581219 222.20051 62.581219 223.023115 
C 62.581219 223.845721 62.908043 224.634745 63.489713 225.216415 
C 64.071383 225.798085 64.860408 226.12491 65.683013 226.12491 
z
" clip-path="url(#p038fffef92)" style="fill: #999999; fill-opacity: 0.4; stroke: #999999; stroke-opacity: 0.4; stroke-width: 0.886227"/>
    <path d="M 66.969876 225.845619 
C 67.792481 225.845619 68.581506 225.518794 69.163176 224.937124 
C 69.744845 224.355454 70.07167 223.56643 70.07167 222.743824 
C 70.07167 221.921219 69.744845 221.132195 69.163176 220.550525 
C 68.581506 219.968855 67.792481 219.64203 66.969876 219.64203 
C 66.14727 219.64203 65.358246 219.968855 64.776576 220.550525 
C 64.194906 221.132195 63.868082 221.921219 63.868082 222.743824 
C 63.868082 223.56643 64.194906 224.355454 64.776576 224.937124 
C 65.358246 225.518794 66.14727 225.845619 66.969876 225.845619 
z
" clip-path="url(#p038fffef92)" style="fill: #0072b2; fill-opacity: 0.4; stroke: #0072b2; stroke-opacity: 0.4; stroke-width: 0.886227"/>
    <path d="M 90.421925 225.974571 
C 91.24453 225.974571 92.033555 225.647747 92.615225 225.066077 
C 93.196895 224.484407 93.523719 223.695383 93.523719 222.872777 
C 93.523719 222.050172 93.196895 221.261147 92.615225 220.679477 
C 92.033555 220.097807 91.24453 219.770983 90.421925 219.770983 
C 89.59932 219.770983 88.810295 220.097807 88.228625 220.679477 
C 87.646955 221.261147 87.320131 222.050172 87.320131 222.872777 
C 87.320131 223.695383 87.646955 224.484407 88.228625 225.066077 
C 88.810295 225.647747 89.59932 225.974571 90.421925 225.974571 
z
" clip-path="url(#p038fffef92)" style="fill: #0072b2; fill-opacity: 0.4; stroke: #0072b2; stroke-opacity: 0.4; stroke-width: 0.886227"/>
    <path d="M 85.559029 225.439639 
C 86.381635 225.439639 87.170659 225.112815 87.752329 224.531145 
C 88.333999 223.949475 88.660824 223.160451 88.660824 222.337845 
C 88.660824 221.51524 88.333999 220.726215 87.752329 220.144546 
C 87.170659 219.562876 86.381635 219.236051 85.559029 219.236051 
C 84.736424 219.236051 83.947399 219.562876 83.36573 220.144546 
C 82.78406 220.726215 82.457235 221.51524 82.457235 222.337845 
C 82.457235 223.160451 82.78406 223.949475 83.36573 224.531145 
C 83.947399 225.112815 84.736424 225.439639 85.559029 225.439639 
z
" clip-path="url(#p038fffef92)" style="fill: #ff5349; fill-opacity: 0.4; stroke: #ff5349; stroke-opacity: 0.4; stroke-width: 0.886227"/>
    <path d="M 69.336684 214.617401 
C 70.15929 214.617401 70.948314 214.290577 71.529984 213.708907 
C 72.111654 213.127237 72.438478 212.338213 72.438478 211.515607 
C 72.438478 210.693002 72.111654 209.903977 71.529984 209.322307 
C 70.948314 208.740638 70.15929 208.413813 69.336684 208.413813 
C 68.514079 208.413813 67.725054 208.740638 67.143384 209.322307 
C 66.561714 209.903977 66.23489 210.693002 66.23489 211.515607 
C 66.23489 212.338213 66.561714 213.127237 67.143384 213.708907 
C 67.725054 214.290577 68.514079 214.617401 69.336684 214.617401 
z
" clip-path="url(#p038fffef92)" style="fill: #999999; fill-opacity: 0.4; stroke: #999999; stroke-opacity: 0.4; stroke-width: 0.886227"/>
    <path d="M 75.056172 221.177534 
C 75.878777 221.177534 76.667802 220.85071 77.249472 220.26904 
C 77.831141 219.68737 78.157966 218.898346 78.157966 218.07574 
C 78.157966 217.253135 77.831141 216.46411 77.249472 215.88244 
C 76.667802 215.30077 75.878777 214.973946 75.056172 214.973946 
C 74.233566 214.973946 73.444542 215.30077 72.862872 215.88244 
C 72.281202 216.46411 71.954378 217.253135 71.954378 218.07574 
C 71.954378 218.898346 72.281202 219.68737 72.862872 220.26904 
C 73.444542 220.85071 74.233566 221.177534 75.056172 221.177534 
z
" clip-path="url(#p038fffef92)" style="fill: #0072b2; fill-opacity: 0.4; stroke: #0072b2; stroke-opacity: 0.4; stroke-width: 0.886227"/>
    <path d="M 65.683013 226.12491 
C 66.505618 226.12491 67.294643 225.798085 67.876313 225.216415 
C 68.457983 224.634745 68.784807 223.845721 68.784807 223.023115 
C 68.784807 222.20051 68.457983 221.411485 67.876313 220.829816 
C 67.294643 220.248146 66.505618 219.921321 65.683013 219.921321 
C 64.860408 219.921321 64.071383 220.248146 63.489713 220.829816 
C 62.908043 221.411485 62.581219 222.20051 62.581219 223.023115 
C 62.581219 223.845721 62.908043 224.634745 63.489713 225.216415 
C 64.071383 225.798085 64.860408 226.12491 65.683013 226.12491 
z
" clip-path="url(#p038fffef92)" style="fill: #ff5349; fill-opacity: 0.4; stroke: #ff5349; stroke-opacity: 0.4; stroke-width: 0.886227"/>
    <path d="M 65.683013 226.12491 
C 66.505618 226.12491 67.294643 225.798085 67.876313 225.216415 
C 68.457983 224.634745 68.784807 223.845721 68.784807 223.023115 
C 68.784807 222.20051 68.457983 221.411485 67.876313 220.829816 
C 67.294643 220.248146 66.505618 219.921321 65.683013 219.921321 
C 64.860408 219.921321 64.071383 220.248146 63.489713 220.829816 
C 62.908043 221.411485 62.581219 222.20051 62.581219 223.023115 
C 62.581219 223.845721 62.908043 224.634745 63.489713 225.216415 
C 64.071383 225.798085 64.860408 226.12491 65.683013 226.12491 
z
" clip-path="url(#p038fffef92)" style="fill: #0072b2; fill-opacity: 0.4; stroke: #0072b2; stroke-opacity: 0.4; stroke-width: 0.886227"/>
    <path d="M 65.734576 226.064511 
C 66.557182 226.064511 67.346206 225.737686 67.927876 225.156016 
C 68.509546 224.574346 68.83637 223.785322 68.83637 222.962716 
C 68.83637 222.140111 68.509546 221.351087 67.927876 220.769417 
C 67.346206 220.187747 66.557182 219.860922 65.734576 219.860922 
C 64.911971 219.860922 64.122946 220.187747 63.541277 220.769417 
C 62.959607 221.351087 62.632782 222.140111 62.632782 222.962716 
C 62.632782 223.785322 62.959607 224.574346 63.541277 225.156016 
C 64.122946 225.737686 64.911971 226.064511 65.734576 226.064511 
z
" clip-path="url(#p038fffef92)" style="fill: #0072b2; fill-opacity: 0.4; stroke: #0072b2; stroke-opacity: 0.4; stroke-width: 0.886227"/>
    <path d="M 98.819454 154.718504 
C 99.642059 154.718504 100.431084 154.39168 101.012754 153.81001 
C 101.594423 153.22834 101.921248 152.439315 101.921248 151.61671 
C 101.921248 150.794104 101.594423 150.00508 101.012754 149.42341 
C 100.431084 148.84174 99.642059 148.514916 98.819454 148.514916 
C 97.996848 148.514916 97.207824 148.84174 96.626154 149.42341 
C 96.044484 150.00508 95.71766 150.794104 95.71766 151.61671 
C 95.71766 152.439315 96.044484 153.22834 96.626154 153.81001 
C 97.207824 154.39168 97.996848 154.718504 98.819454 154.718504 
z
" clip-path="url(#p038fffef92)" style="fill: #999999; fill-opacity: 0.4; stroke: #999999; stroke-opacity: 0.4; stroke-width: 0.886227"/>
    <path d="M 65.683013 226.12491 
C 66.505618 226.12491 67.294643 225.798085 67.876313 225.216415 
C 68.457983 224.634745 68.784807 223.845721 68.784807 223.023115 
C 68.784807 222.20051 68.457983 221.411485 67.876313 220.829816 
C 67.294643 220.248146 66.505618 219.921321 65.683013 219.921321 
C 64.860408 219.921321 64.071383 220.248146 63.489713 220.829816 
C 62.908043 221.411485 62.581219 222.20051 62.581219 223.023115 
C 62.581219 223.845721 62.908043 224.634745 63.489713 225.216415 
C 64.071383 225.798085 64.860408 226.12491 65.683013 226.12491 
z
" clip-path="url(#p038fffef92)" style="fill: #999999; fill-opacity: 0.4; stroke: #999999; stroke-opacity: 0.4; stroke-width: 0.886227"/>
    <path d="M 65.683013 226.12491 
C 66.505618 226.12491 67.294643 225.798085 67.876313 225.216415 
C 68.457983 224.634745 68.784807 223.845721 68.784807 223.023115 
C 68.784807 222.20051 68.457983 221.411485 67.876313 220.829816 
C 67.294643 220.248146 66.505618 219.921321 65.683013 219.921321 
C 64.860408 219.921321 64.071383 220.248146 63.489713 220.829816 
C 62.908043 221.411485 62.581219 222.20051 62.581219 223.023115 
C 62.581219 223.845721 62.908043 224.634745 63.489713 225.216415 
C 64.071383 225.798085 64.860408 226.12491 65.683013 226.12491 
z
" clip-path="url(#p038fffef92)" style="fill: #ff5349; fill-opacity: 0.4; stroke: #ff5349; stroke-opacity: 0.4; stroke-width: 0.886227"/>
    <path d="M 87.335463 224.138807 
C 88.158068 224.138807 88.947093 223.811983 89.528763 223.230313 
C 90.110432 222.648643 90.437257 221.859618 90.437257 221.037013 
C 90.437257 220.214408 90.110432 219.425383 89.528763 218.843713 
C 88.947093 218.262043 88.158068 217.935219 87.335463 217.935219 
C 86.512857 217.935219 85.723833 218.262043 85.142163 218.843713 
C 84.560493 219.425383 84.233669 220.214408 84.233669 221.037013 
C 84.233669 221.859618 84.560493 222.648643 85.142163 223.230313 
C 85.723833 223.811983 86.512857 224.138807 87.335463 224.138807 
z
" clip-path="url(#p038fffef92)" style="fill: #999999; fill-opacity: 0.4; stroke: #999999; stroke-opacity: 0.4; stroke-width: 0.886227"/>
    <path d="M 65.807498 225.979094 
C 66.630103 225.979094 67.419128 225.652269 68.000797 225.070599 
C 68.582467 224.488929 68.909292 223.699905 68.909292 222.877299 
C 68.909292 222.054694 68.582467 221.26567 68.000797 220.684 
C 67.419128 220.10233 66.630103 219.775505 65.807498 219.775505 
C 64.984892 219.775505 64.195868 220.10233 63.614198 220.684 
C 63.032528 221.26567 62.705703 222.054694 62.705703 222.877299 
C 62.705703 223.699905 63.032528 224.488929 63.614198 225.070599 
C 64.195868 225.652269 64.984892 225.979094 65.807498 225.979094 
z
" clip-path="url(#p038fffef92)" style="fill: #0072b2; fill-opacity: 0.4; stroke: #0072b2; stroke-opacity: 0.4; stroke-width: 0.886227"/>
    <path d="M 76.65275 221.552661 
C 77.475355 221.552661 78.26438 221.225837 78.84605 220.644167 
C 79.42772 220.062497 79.754544 219.273472 79.754544 218.450867 
C 79.754544 217.628262 79.42772 216.839237 78.84605 216.257567 
C 78.26438 215.675897 77.475355 215.349073 76.65275 215.349073 
C 75.830144 215.349073 75.04112 215.675897 74.45945 216.257567 
C 73.87778 216.839237 73.550956 217.628262 73.550956 218.450867 
C 73.550956 219.273472 73.87778 220.062497 74.45945 220.644167 
C 75.04112 221.225837 75.830144 221.552661 76.65275 221.552661 
z
" clip-path="url(#p038fffef92)" style="fill: #0072b2; fill-opacity: 0.4; stroke: #0072b2; stroke-opacity: 0.4; stroke-width: 0.886227"/>
    <path d="M 83.281318 222.693435 
C 84.103923 222.693435 84.892948 222.36661 85.474617 221.78494 
C 86.056287 221.20327 86.383112 220.414246 86.383112 219.59164 
C 86.383112 218.769035 86.056287 217.980011 85.474617 217.398341 
C 84.892948 216.816671 84.103923 216.489846 83.281318 216.489846 
C 82.458712 216.489846 81.669688 216.816671 81.088018 217.398341 
C 80.506348 217.980011 80.179523 218.769035 80.179523 219.59164 
C 80.179523 220.414246 80.506348 221.20327 81.088018 221.78494 
C 81.669688 222.36661 82.458712 222.693435 83.281318 222.693435 
z
" clip-path="url(#p038fffef92)" style="fill: #999999; fill-opacity: 0.4; stroke: #999999; stroke-opacity: 0.4; stroke-width: 0.886227"/>
    <path d="M 65.734576 226.064511 
C 66.557182 226.064511 67.346206 225.737686 67.927876 225.156016 
C 68.509546 224.574346 68.83637 223.785322 68.83637 222.962716 
C 68.83637 222.140111 68.509546 221.351087 67.927876 220.769417 
C 67.346206 220.187747 66.557182 219.860922 65.734576 219.860922 
C 64.911971 219.860922 64.122946 220.187747 63.541277 220.769417 
C 62.959607 221.351087 62.632782 222.140111 62.632782 222.962716 
C 62.632782 223.785322 62.959607 224.574346 63.541277 225.156016 
C 64.122946 225.737686 64.911971 226.064511 65.734576 226.064511 
z
" clip-path="url(#p038fffef92)" style="fill: #0072b2; fill-opacity: 0.4; stroke: #0072b2; stroke-opacity: 0.4; stroke-width: 0.886227"/>
    <path d="M 79.308665 214.802891 
C 80.131271 214.802891 80.920295 214.476066 81.501965 213.894396 
C 82.083635 213.312726 82.41046 212.523702 82.41046 211.701096 
C 82.41046 210.878491 82.083635 210.089467 81.501965 209.507797 
C 80.920295 208.926127 80.131271 208.599302 79.308665 208.599302 
C 78.48606 208.599302 77.697036 208.926127 77.115366 209.507797 
C 76.533696 210.089467 76.206871 210.878491 76.206871 211.701096 
C 76.206871 212.523702 76.533696 213.312726 77.115366 213.894396 
C 77.697036 214.476066 78.48606 214.802891 79.308665 214.802891 
z
" clip-path="url(#p038fffef92)" style="fill: #999999; fill-opacity: 0.4; stroke: #999999; stroke-opacity: 0.4; stroke-width: 0.886227"/>
    <path d="M 65.683013 226.12491 
C 66.505618 226.12491 67.294643 225.798085 67.876313 225.216415 
C 68.457983 224.634745 68.784807 223.845721 68.784807 223.023115 
C 68.784807 222.20051 68.457983 221.411485 67.876313 220.829816 
C 67.294643 220.248146 66.505618 219.921321 65.683013 219.921321 
C 64.860408 219.921321 64.071383 220.248146 63.489713 220.829816 
C 62.908043 221.411485 62.581219 222.20051 62.581219 223.023115 
C 62.581219 223.845721 62.908043 224.634745 63.489713 225.216415 
C 64.071383 225.798085 64.860408 226.12491 65.683013 226.12491 
z
" clip-path="url(#p038fffef92)" style="fill: #ff5349; fill-opacity: 0.4; stroke: #ff5349; stroke-opacity: 0.4; stroke-width: 0.886227"/>
    <path d="M 65.683013 226.12491 
C 66.505618 226.12491 67.294643 225.798085 67.876313 225.216415 
C 68.457983 224.634745 68.784807 223.845721 68.784807 223.023115 
C 68.784807 222.20051 68.457983 221.411485 67.876313 220.829816 
C 67.294643 220.248146 66.505618 219.921321 65.683013 219.921321 
C 64.860408 219.921321 64.071383 220.248146 63.489713 220.829816 
C 62.908043 221.411485 62.581219 222.20051 62.581219 223.023115 
C 62.581219 223.845721 62.908043 224.634745 63.489713 225.216415 
C 64.071383 225.798085 64.860408 226.12491 65.683013 226.12491 
z
" clip-path="url(#p038fffef92)" style="fill: #999999; fill-opacity: 0.4; stroke: #999999; stroke-opacity: 0.4; stroke-width: 0.886227"/>
    <path d="M 69.051789 226.018165 
C 69.874395 226.018165 70.663419 225.69134 71.245089 225.10967 
C 71.826759 224.528001 72.153583 223.738976 72.153583 222.916371 
C 72.153583 222.093765 71.826759 221.304741 71.245089 220.723071 
C 70.663419 220.141401 69.874395 219.814576 69.051789 219.814576 
C 68.229184 219.814576 67.440159 220.141401 66.858489 220.723071 
C 66.27682 221.304741 65.949995 222.093765 65.949995 222.916371 
C 65.949995 223.738976 66.27682 224.528001 66.858489 225.10967 
C 67.440159 225.69134 68.229184 226.018165 69.051789 226.018165 
z
" clip-path="url(#p038fffef92)" style="fill: #999999; fill-opacity: 0.4; stroke: #999999; stroke-opacity: 0.4; stroke-width: 0.886227"/>
    <path d="M 67.57603 226.12491 
C 68.398635 226.12491 69.187659 225.798085 69.769329 225.216415 
C 70.350999 224.634745 70.677824 223.845721 70.677824 223.023115 
C 70.677824 222.20051 70.350999 221.411485 69.769329 220.829816 
C 69.187659 220.248146 68.398635 219.921321 67.57603 219.921321 
C 66.753424 219.921321 65.9644 220.248146 65.38273 220.829816 
C 64.80106 221.411485 64.474235 222.20051 64.474235 223.023115 
C 64.474235 223.845721 64.80106 224.634745 65.38273 225.216415 
C 65.9644 225.798085 66.753424 226.12491 67.57603 226.12491 
z
" clip-path="url(#p038fffef92)" style="fill: #999999; fill-opacity: 0.4; stroke: #999999; stroke-opacity: 0.4; stroke-width: 0.886227"/>
    <path d="M 66.042759 225.979094 
C 66.865364 225.979094 67.654389 225.652269 68.236058 225.070599 
C 68.817728 224.488929 69.144553 223.699905 69.144553 222.877299 
C 69.144553 222.054694 68.817728 221.26567 68.236058 220.684 
C 67.654389 220.10233 66.865364 219.775505 66.042759 219.775505 
C 65.220153 219.775505 64.431129 220.10233 63.849459 220.684 
C 63.267789 221.26567 62.940964 222.054694 62.940964 222.877299 
C 62.940964 223.699905 63.267789 224.488929 63.849459 225.070599 
C 64.431129 225.652269 65.220153 225.979094 66.042759 225.979094 
z
" clip-path="url(#p038fffef92)" style="fill: #ff5349; fill-opacity: 0.4; stroke: #ff5349; stroke-opacity: 0.4; stroke-width: 0.886227"/>
    <path d="M 76.870704 200.016353 
C 77.693309 200.016353 78.482334 199.689528 79.064004 199.107858 
C 79.645674 198.526188 79.972498 197.737164 79.972498 196.914558 
C 79.972498 196.091953 79.645674 195.302929 79.064004 194.721259 
C 78.482334 194.139589 77.693309 193.812764 76.870704 193.812764 
C 76.048099 193.812764 75.259074 194.139589 74.677404 194.721259 
C 74.095734 195.302929 73.76891 196.091953 73.76891 196.914558 
C 73.76891 197.737164 74.095734 198.526188 74.677404 199.107858 
C 75.259074 199.689528 76.048099 200.016353 76.870704 200.016353 
z
" clip-path="url(#p038fffef92)" style="fill: #0072b2; fill-opacity: 0.4; stroke: #0072b2; stroke-opacity: 0.4; stroke-width: 0.886227"/>
    <path d="M 74.327471 223.891023 
C 75.150076 223.891023 75.939101 223.564198 76.520771 222.982528 
C 77.102441 222.400858 77.429265 221.611834 77.429265 220.789228 
C 77.429265 219.966623 77.102441 219.177599 76.520771 218.595929 
C 75.939101 218.014259 75.150076 217.687434 74.327471 217.687434 
C 73.504866 217.687434 72.715841 218.014259 72.134171 218.595929 
C 71.552501 219.177599 71.225677 219.966623 71.225677 220.789228 
C 71.225677 221.611834 71.552501 222.400858 72.134171 222.982528 
C 72.715841 223.564198 73.504866 223.891023 74.327471 223.891023 
z
" clip-path="url(#p038fffef92)" style="fill: #0072b2; fill-opacity: 0.4; stroke: #0072b2; stroke-opacity: 0.4; stroke-width: 0.886227"/>
    <path d="M 66.725048 226.064511 
C 67.547653 226.064511 68.336678 225.737686 68.918348 225.156016 
C 69.500017 224.574346 69.826842 223.785322 69.826842 222.962716 
C 69.826842 222.140111 69.500017 221.351087 68.918348 220.769417 
C 68.336678 220.187747 67.547653 219.860922 66.725048 219.860922 
C 65.902442 219.860922 65.113418 220.187747 64.531748 220.769417 
C 63.950078 221.351087 63.623254 222.140111 63.623254 222.962716 
C 63.623254 223.785322 63.950078 224.574346 64.531748 225.156016 
C 65.113418 225.737686 65.902442 226.064511 66.725048 226.064511 
z
" clip-path="url(#p038fffef92)" style="fill: #999999; fill-opacity: 0.4; stroke: #999999; stroke-opacity: 0.4; stroke-width: 0.886227"/>
    <path d="M 65.683013 226.12491 
C 66.505618 226.12491 67.294643 225.798085 67.876313 225.216415 
C 68.457983 224.634745 68.784807 223.845721 68.784807 223.023115 
C 68.784807 222.20051 68.457983 221.411485 67.876313 220.829816 
C 67.294643 220.248146 66.505618 219.921321 65.683013 219.921321 
C 64.860408 219.921321 64.071383 220.248146 63.489713 220.829816 
C 62.908043 221.411485 62.581219 222.20051 62.581219 223.023115 
C 62.581219 223.845721 62.908043 224.634745 63.489713 225.216415 
C 64.071383 225.798085 64.860408 226.12491 65.683013 226.12491 
z
" clip-path="url(#p038fffef92)" style="fill: #999999; fill-opacity: 0.4; stroke: #999999; stroke-opacity: 0.4; stroke-width: 0.886227"/>
    <path d="M 77.984811 165.586666 
C 78.807416 165.586666 79.596441 165.259842 80.17811 164.678172 
C 80.75978 164.096502 81.086605 163.307477 81.086605 162.484872 
C 81.086605 161.662266 80.75978 160.873242 80.17811 160.291572 
C 79.596441 159.709902 78.807416 159.383078 77.984811 159.383078 
C 77.162205 159.383078 76.373181 159.709902 75.791511 160.291572 
C 75.209841 160.873242 74.883017 161.662266 74.883017 162.484872 
C 74.883017 163.307477 75.209841 164.096502 75.791511 164.678172 
C 76.373181 165.259842 77.162205 165.586666 77.984811 165.586666 
z
" clip-path="url(#p038fffef92)" style="fill: #999999; fill-opacity: 0.4; stroke: #999999; stroke-opacity: 0.4; stroke-width: 0.886227"/>
    <path d="M 66.563844 225.979094 
C 67.386449 225.979094 68.175473 225.652269 68.757143 225.070599 
C 69.338813 224.488929 69.665638 223.699905 69.665638 222.877299 
C 69.665638 222.054694 69.338813 221.26567 68.757143 220.684 
C 68.175473 220.10233 67.386449 219.775505 66.563844 219.775505 
C 65.741238 219.775505 64.952214 220.10233 64.370544 220.684 
C 63.788874 221.26567 63.462049 222.054694 63.462049 222.877299 
C 63.462049 223.699905 63.788874 224.488929 64.370544 225.070599 
C 64.952214 225.652269 65.741238 225.979094 66.563844 225.979094 
z
" clip-path="url(#p038fffef92)" style="fill: #0072b2; fill-opacity: 0.4; stroke: #0072b2; stroke-opacity: 0.4; stroke-width: 0.886227"/>
    <path d="M 71.597585 225.444995 
C 72.42019 225.444995 73.209215 225.11817 73.790884 224.5365 
C 74.372554 223.95483 74.699379 223.165806 74.699379 222.3432 
C 74.699379 221.520595 74.372554 220.731571 73.790884 220.149901 
C 73.209215 219.568231 72.42019 219.241406 71.597585 219.241406 
C 70.774979 219.241406 69.985955 219.568231 69.404285 220.149901 
C 68.822615 220.731571 68.49579 221.520595 68.49579 222.3432 
C 68.49579 223.165806 68.822615 223.95483 69.404285 224.5365 
C 69.985955 225.11817 70.774979 225.444995 71.597585 225.444995 
z
" clip-path="url(#p038fffef92)" style="fill: #0072b2; fill-opacity: 0.4; stroke: #0072b2; stroke-opacity: 0.4; stroke-width: 0.886227"/>
    <path d="M 211.39032 220.110162 
C 212.212925 220.110162 213.00195 219.783337 213.58362 219.201667 
C 214.165289 218.619997 214.492114 217.830973 214.492114 217.008368 
C 214.492114 216.185762 214.165289 215.396738 213.58362 214.815068 
C 213.00195 214.233398 212.212925 213.906573 211.39032 213.906573 
C 210.567714 213.906573 209.77869 214.233398 209.19702 214.815068 
C 208.61535 215.396738 208.288526 216.185762 208.288526 217.008368 
C 208.288526 217.830973 208.61535 218.619997 209.19702 219.201667 
C 209.77869 219.783337 210.567714 220.110162 211.39032 220.110162 
z
" clip-path="url(#p038fffef92)" style="fill: #999999; fill-opacity: 0.4; stroke: #999999; stroke-opacity: 0.4; stroke-width: 0.886227"/>
    <path d="M 66.080921 225.979094 
C 66.903527 225.979094 67.692551 225.652269 68.274221 225.070599 
C 68.855891 224.488929 69.182715 223.699905 69.182715 222.877299 
C 69.182715 222.054694 68.855891 221.26567 68.274221 220.684 
C 67.692551 220.10233 66.903527 219.775505 66.080921 219.775505 
C 65.258316 219.775505 64.469291 220.10233 63.887621 220.684 
C 63.305952 221.26567 62.979127 222.054694 62.979127 222.877299 
C 62.979127 223.699905 63.305952 224.488929 63.887621 225.070599 
C 64.469291 225.652269 65.258316 225.979094 66.080921 225.979094 
z
" clip-path="url(#p038fffef92)" style="fill: #ff5349; fill-opacity: 0.4; stroke: #ff5349; stroke-opacity: 0.4; stroke-width: 0.886227"/>
    <path d="M 65.894575 226.094443 
C 66.71718 226.094443 67.506205 225.767618 68.087875 225.185948 
C 68.669545 224.604278 68.996369 223.815254 68.996369 222.992649 
C 68.996369 222.170043 68.669545 221.381019 68.087875 220.799349 
C 67.506205 220.217679 66.71718 219.890854 65.894575 219.890854 
C 65.07197 219.890854 64.282945 220.217679 63.701275 220.799349 
C 63.119605 221.381019 62.792781 222.170043 62.792781 222.992649 
C 62.792781 223.815254 63.119605 224.604278 63.701275 225.185948 
C 64.282945 225.767618 65.07197 226.094443 65.894575 226.094443 
z
" clip-path="url(#p038fffef92)" style="fill: #0072b2; fill-opacity: 0.4; stroke: #0072b2; stroke-opacity: 0.4; stroke-width: 0.886227"/>
    <path d="M 67.208236 225.979094 
C 68.030841 225.979094 68.819866 225.652269 69.401536 225.070599 
C 69.983206 224.488929 70.31003 223.699905 70.31003 222.877299 
C 70.31003 222.054694 69.983206 221.26567 69.401536 220.684 
C 68.819866 220.10233 68.030841 219.775505 67.208236 219.775505 
C 66.385631 219.775505 65.596606 220.10233 65.014936 220.684 
C 64.433266 221.26567 64.106442 222.054694 64.106442 222.877299 
C 64.106442 223.699905 64.433266 224.488929 65.014936 225.070599 
C 65.596606 225.652269 66.385631 225.979094 67.208236 225.979094 
z
" clip-path="url(#p038fffef92)" style="fill: #0072b2; fill-opacity: 0.4; stroke: #0072b2; stroke-opacity: 0.4; stroke-width: 0.886227"/>
    <path d="M 79.340712 225.269317 
C 80.163318 225.269317 80.952342 224.942493 81.534012 224.360823 
C 82.115682 223.779153 82.442506 222.990128 82.442506 222.167523 
C 82.442506 221.344918 82.115682 220.555893 81.534012 219.974223 
C 80.952342 219.392553 80.163318 219.065729 79.340712 219.065729 
C 78.518107 219.065729 77.729082 219.392553 77.147412 219.974223 
C 76.565743 220.555893 76.238918 221.344918 76.238918 222.167523 
C 76.238918 222.990128 76.565743 223.779153 77.147412 224.360823 
C 77.729082 224.942493 78.518107 225.269317 79.340712 225.269317 
z
" clip-path="url(#p038fffef92)" style="fill: #0072b2; fill-opacity: 0.4; stroke: #0072b2; stroke-opacity: 0.4; stroke-width: 0.886227"/>
    <path d="M 77.356513 225.465961 
C 78.179119 225.465961 78.968143 225.139136 79.549813 224.557466 
C 80.131483 223.975796 80.458308 223.186772 80.458308 222.364167 
C 80.458308 221.541561 80.131483 220.752537 79.549813 220.170867 
C 78.968143 219.589197 78.179119 219.262372 77.356513 219.262372 
C 76.533908 219.262372 75.744884 219.589197 75.163214 220.170867 
C 74.581544 220.752537 74.254719 221.541561 74.254719 222.364167 
C 74.254719 223.186772 74.581544 223.975796 75.163214 224.557466 
C 75.744884 225.139136 76.533908 225.465961 77.356513 225.465961 
z
" clip-path="url(#p038fffef92)" style="fill: #0072b2; fill-opacity: 0.4; stroke: #0072b2; stroke-opacity: 0.4; stroke-width: 0.886227"/>
    <path d="M 65.807498 225.979094 
C 66.630103 225.979094 67.419128 225.652269 68.000797 225.070599 
C 68.582467 224.488929 68.909292 223.699905 68.909292 222.877299 
C 68.909292 222.054694 68.582467 221.26567 68.000797 220.684 
C 67.419128 220.10233 66.630103 219.775505 65.807498 219.775505 
C 64.984892 219.775505 64.195868 220.10233 63.614198 220.684 
C 63.032528 221.26567 62.705703 222.054694 62.705703 222.877299 
C 62.705703 223.699905 63.032528 224.488929 63.614198 225.070599 
C 64.195868 225.652269 64.984892 225.979094 65.807498 225.979094 
z
" clip-path="url(#p038fffef92)" style="fill: #0072b2; fill-opacity: 0.4; stroke: #0072b2; stroke-opacity: 0.4; stroke-width: 0.886227"/>
    <path d="M 66.836589 225.081523 
C 67.659194 225.081523 68.448218 224.754698 69.029888 224.173028 
C 69.611558 223.591359 69.938383 222.802334 69.938383 221.979729 
C 69.938383 221.157123 69.611558 220.368099 69.029888 219.786429 
C 68.448218 219.204759 67.659194 218.877934 66.836589 218.877934 
C 66.013983 218.877934 65.224959 219.204759 64.643289 219.786429 
C 64.061619 220.368099 63.734794 221.157123 63.734794 221.979729 
C 63.734794 222.802334 64.061619 223.591359 64.643289 224.173028 
C 65.224959 224.754698 66.013983 225.081523 66.836589 225.081523 
z
" clip-path="url(#p038fffef92)" style="fill: #0072b2; fill-opacity: 0.4; stroke: #0072b2; stroke-opacity: 0.4; stroke-width: 0.886227"/>
    <path d="M 114.652082 224.6802 
C 115.474688 224.6802 116.263712 224.353375 116.845382 223.771705 
C 117.427052 223.190035 117.753877 222.401011 117.753877 221.578405 
C 117.753877 220.7558 117.427052 219.966775 116.845382 219.385106 
C 116.263712 218.803436 115.474688 218.476611 114.652082 218.476611 
C 113.829477 218.476611 113.040453 218.803436 112.458783 219.385106 
C 111.877113 219.966775 111.550288 220.7558 111.550288 221.578405 
C 111.550288 222.401011 111.877113 223.190035 112.458783 223.771705 
C 113.040453 224.353375 113.829477 224.6802 114.652082 224.6802 
z
" clip-path="url(#p038fffef92)" style="fill: #999999; fill-opacity: 0.4; stroke: #999999; stroke-opacity: 0.4; stroke-width: 0.886227"/>
    <path d="M 65.863452 225.913551 
C 66.686058 225.913551 67.475082 225.586726 68.056752 225.005056 
C 68.638422 224.423387 68.965246 223.634362 68.965246 222.811757 
C 68.965246 221.989151 68.638422 221.200127 68.056752 220.618457 
C 67.475082 220.036787 66.686058 219.709962 65.863452 219.709962 
C 65.040847 219.709962 64.251822 220.036787 63.670152 220.618457 
C 63.088483 221.200127 62.761658 221.989151 62.761658 222.811757 
C 62.761658 223.634362 63.088483 224.423387 63.670152 225.005056 
C 64.251822 225.586726 65.040847 225.913551 65.863452 225.913551 
z
" clip-path="url(#p038fffef92)" style="fill: #999999; fill-opacity: 0.4; stroke: #999999; stroke-opacity: 0.4; stroke-width: 0.886227"/>
    <path d="M 66.421858 226.12491 
C 67.244463 226.12491 68.033488 225.798085 68.615158 225.216415 
C 69.196827 224.634745 69.523652 223.845721 69.523652 223.023115 
C 69.523652 222.20051 69.196827 221.411485 68.615158 220.829816 
C 68.033488 220.248146 67.244463 219.921321 66.421858 219.921321 
C 65.599252 219.921321 64.810228 220.248146 64.228558 220.829816 
C 63.646888 221.411485 63.320064 222.20051 63.320064 223.023115 
C 63.320064 223.845721 63.646888 224.634745 64.228558 225.216415 
C 64.810228 225.798085 65.599252 226.12491 66.421858 226.12491 
z
" clip-path="url(#p038fffef92)" style="fill: #0072b2; fill-opacity: 0.4; stroke: #0072b2; stroke-opacity: 0.4; stroke-width: 0.886227"/>
    <path d="M 66.725048 226.064511 
C 67.547653 226.064511 68.336678 225.737686 68.918348 225.156016 
C 69.500017 224.574346 69.826842 223.785322 69.826842 222.962716 
C 69.826842 222.140111 69.500017 221.351087 68.918348 220.769417 
C 68.336678 220.187747 67.547653 219.860922 66.725048 219.860922 
C 65.902442 219.860922 65.113418 220.187747 64.531748 220.769417 
C 63.950078 221.351087 63.623254 222.140111 63.623254 222.962716 
C 63.623254 223.785322 63.950078 224.574346 64.531748 225.156016 
C 65.113418 225.737686 65.902442 226.064511 66.725048 226.064511 
z
" clip-path="url(#p038fffef92)" style="fill: #999999; fill-opacity: 0.4; stroke: #999999; stroke-opacity: 0.4; stroke-width: 0.886227"/>
    <path d="M 92.711781 210.940396 
C 93.534386 210.940396 94.323411 210.613571 94.90508 210.031901 
C 95.48675 209.450231 95.813575 208.661207 95.813575 207.838602 
C 95.813575 207.015996 95.48675 206.226972 94.90508 205.645302 
C 94.323411 205.063632 93.534386 204.736807 92.711781 204.736807 
C 91.889175 204.736807 91.100151 205.063632 90.518481 205.645302 
C 89.936811 206.226972 89.609986 207.015996 89.609986 207.838602 
C 89.609986 208.661207 89.936811 209.450231 90.518481 210.031901 
C 91.100151 210.613571 91.889175 210.940396 92.711781 210.940396 
z
" clip-path="url(#p038fffef92)" style="fill: #999999; fill-opacity: 0.4; stroke: #999999; stroke-opacity: 0.4; stroke-width: 0.886227"/>
    <path d="M 65.683013 226.12491 
C 66.505618 226.12491 67.294643 225.798085 67.876313 225.216415 
C 68.457983 224.634745 68.784807 223.845721 68.784807 223.023115 
C 68.784807 222.20051 68.457983 221.411485 67.876313 220.829816 
C 67.294643 220.248146 66.505618 219.921321 65.683013 219.921321 
C 64.860408 219.921321 64.071383 220.248146 63.489713 220.829816 
C 62.908043 221.411485 62.581219 222.20051 62.581219 223.023115 
C 62.581219 223.845721 62.908043 224.634745 63.489713 225.216415 
C 64.071383 225.798085 64.860408 226.12491 65.683013 226.12491 
z
" clip-path="url(#p038fffef92)" style="fill: #ff5349; fill-opacity: 0.4; stroke: #ff5349; stroke-opacity: 0.4; stroke-width: 0.886227"/>
    <path d="M 65.683013 226.12491 
C 66.505618 226.12491 67.294643 225.798085 67.876313 225.216415 
C 68.457983 224.634745 68.784807 223.845721 68.784807 223.023115 
C 68.784807 222.20051 68.457983 221.411485 67.876313 220.829816 
C 67.294643 220.248146 66.505618 219.921321 65.683013 219.921321 
C 64.860408 219.921321 64.071383 220.248146 63.489713 220.829816 
C 62.908043 221.411485 62.581219 222.20051 62.581219 223.023115 
C 62.581219 223.845721 62.908043 224.634745 63.489713 225.216415 
C 64.071383 225.798085 64.860408 226.12491 65.683013 226.12491 
z
" clip-path="url(#p038fffef92)" style="fill: #999999; fill-opacity: 0.4; stroke: #999999; stroke-opacity: 0.4; stroke-width: 0.886227"/>
    <path d="M 65.807498 225.979094 
C 66.630103 225.979094 67.419128 225.652269 68.000797 225.070599 
C 68.582467 224.488929 68.909292 223.699905 68.909292 222.877299 
C 68.909292 222.054694 68.582467 221.26567 68.000797 220.684 
C 67.419128 220.10233 66.630103 219.775505 65.807498 219.775505 
C 64.984892 219.775505 64.195868 220.10233 63.614198 220.684 
C 63.032528 221.26567 62.705703 222.054694 62.705703 222.877299 
C 62.705703 223.699905 63.032528 224.488929 63.614198 225.070599 
C 64.195868 225.652269 64.984892 225.979094 65.807498 225.979094 
z
" clip-path="url(#p038fffef92)" style="fill: #ff5349; fill-opacity: 0.4; stroke: #ff5349; stroke-opacity: 0.4; stroke-width: 0.886227"/>
    <path d="M 65.683013 226.12491 
C 66.505618 226.12491 67.294643 225.798085 67.876313 225.216415 
C 68.457983 224.634745 68.784807 223.845721 68.784807 223.023115 
C 68.784807 222.20051 68.457983 221.411485 67.876313 220.829816 
C 67.294643 220.248146 66.505618 219.921321 65.683013 219.921321 
C 64.860408 219.921321 64.071383 220.248146 63.489713 220.829816 
C 62.908043 221.411485 62.581219 222.20051 62.581219 223.023115 
C 62.581219 223.845721 62.908043 224.634745 63.489713 225.216415 
C 64.071383 225.798085 64.860408 226.12491 65.683013 226.12491 
z
" clip-path="url(#p038fffef92)" style="fill: #999999; fill-opacity: 0.4; stroke: #999999; stroke-opacity: 0.4; stroke-width: 0.886227"/>
    <path d="M 65.683013 226.12491 
C 66.505618 226.12491 67.294643 225.798085 67.876313 225.216415 
C 68.457983 224.634745 68.784807 223.845721 68.784807 223.023115 
C 68.784807 222.20051 68.457983 221.411485 67.876313 220.829816 
C 67.294643 220.248146 66.505618 219.921321 65.683013 219.921321 
C 64.860408 219.921321 64.071383 220.248146 63.489713 220.829816 
C 62.908043 221.411485 62.581219 222.20051 62.581219 223.023115 
C 62.581219 223.845721 62.908043 224.634745 63.489713 225.216415 
C 64.071383 225.798085 64.860408 226.12491 65.683013 226.12491 
z
" clip-path="url(#p038fffef92)" style="fill: #ff5349; fill-opacity: 0.4; stroke: #ff5349; stroke-opacity: 0.4; stroke-width: 0.886227"/>
    <path d="M 71.300826 225.881309 
C 72.123432 225.881309 72.912456 225.554485 73.494126 224.972815 
C 74.075796 224.391145 74.402621 223.60212 74.402621 222.779515 
C 74.402621 221.956909 74.075796 221.167885 73.494126 220.586215 
C 72.912456 220.004545 72.123432 219.677721 71.300826 219.677721 
C 70.478221 219.677721 69.689197 220.004545 69.107527 220.586215 
C 68.525857 221.167885 68.199032 221.956909 68.199032 222.779515 
C 68.199032 223.60212 68.525857 224.391145 69.107527 224.972815 
C 69.689197 225.554485 70.478221 225.881309 71.300826 225.881309 
z
" clip-path="url(#p038fffef92)" style="fill: #0072b2; fill-opacity: 0.4; stroke: #0072b2; stroke-opacity: 0.4; stroke-width: 0.886227"/>
    <path d="M 65.683013 226.12491 
C 66.505618 226.12491 67.294643 225.798085 67.876313 225.216415 
C 68.457983 224.634745 68.784807 223.845721 68.784807 223.023115 
C 68.784807 222.20051 68.457983 221.411485 67.876313 220.829816 
C 67.294643 220.248146 66.505618 219.921321 65.683013 219.921321 
C 64.860408 219.921321 64.071383 220.248146 63.489713 220.829816 
C 62.908043 221.411485 62.581219 222.20051 62.581219 223.023115 
C 62.581219 223.845721 62.908043 224.634745 63.489713 225.216415 
C 64.071383 225.798085 64.860408 226.12491 65.683013 226.12491 
z
" clip-path="url(#p038fffef92)" style="fill: #ff5349; fill-opacity: 0.4; stroke: #ff5349; stroke-opacity: 0.4; stroke-width: 0.886227"/>
    <path d="M 72.327757 223.669807 
C 73.150363 223.669807 73.939387 223.342983 74.521057 222.761313 
C 75.102727 222.179643 75.429551 221.390619 75.429551 220.568013 
C 75.429551 219.745408 75.102727 218.956383 74.521057 218.374713 
C 73.939387 217.793044 73.150363 217.466219 72.327757 217.466219 
C 71.505152 217.466219 70.716127 217.793044 70.134457 218.374713 
C 69.552788 218.956383 69.225963 219.745408 69.225963 220.568013 
C 69.225963 221.390619 69.552788 222.179643 70.134457 222.761313 
C 70.716127 223.342983 71.505152 223.669807 72.327757 223.669807 
z
" clip-path="url(#p038fffef92)" style="fill: #999999; fill-opacity: 0.4; stroke: #999999; stroke-opacity: 0.4; stroke-width: 0.886227"/>
    <path d="M 85.529647 183.697356 
C 86.352252 183.697356 87.141277 183.370531 87.722947 182.788861 
C 88.304616 182.207191 88.631441 181.418167 88.631441 180.595561 
C 88.631441 179.772956 88.304616 178.983932 87.722947 178.402262 
C 87.141277 177.820592 86.352252 177.493767 85.529647 177.493767 
C 84.707041 177.493767 83.918017 177.820592 83.336347 178.402262 
C 82.754677 178.983932 82.427853 179.772956 82.427853 180.595561 
C 82.427853 181.418167 82.754677 182.207191 83.336347 182.788861 
C 83.918017 183.370531 84.707041 183.697356 85.529647 183.697356 
z
" clip-path="url(#p038fffef92)" style="fill: #0072b2; fill-opacity: 0.4; stroke: #0072b2; stroke-opacity: 0.4; stroke-width: 0.886227"/>
    <path d="M 67.065855 225.65617 
C 67.88846 225.65617 68.677485 225.329346 69.259154 224.747676 
C 69.840824 224.166006 70.167649 223.376982 70.167649 222.554376 
C 70.167649 221.731771 69.840824 220.942746 69.259154 220.361076 
C 68.677485 219.779406 67.88846 219.452582 67.065855 219.452582 
C 66.243249 219.452582 65.454225 219.779406 64.872555 220.361076 
C 64.290885 220.942746 63.96406 221.731771 63.96406 222.554376 
C 63.96406 223.376982 64.290885 224.166006 64.872555 224.747676 
C 65.454225 225.329346 66.243249 225.65617 67.065855 225.65617 
z
" clip-path="url(#p038fffef92)" style="fill: #0072b2; fill-opacity: 0.4; stroke: #0072b2; stroke-opacity: 0.4; stroke-width: 0.886227"/>
    <path d="M 65.683013 226.12491 
C 66.505618 226.12491 67.294643 225.798085 67.876313 225.216415 
C 68.457983 224.634745 68.784807 223.845721 68.784807 223.023115 
C 68.784807 222.20051 68.457983 221.411485 67.876313 220.829816 
C 67.294643 220.248146 66.505618 219.921321 65.683013 219.921321 
C 64.860408 219.921321 64.071383 220.248146 63.489713 220.829816 
C 62.908043 221.411485 62.581219 222.20051 62.581219 223.023115 
C 62.581219 223.845721 62.908043 224.634745 63.489713 225.216415 
C 64.071383 225.798085 64.860408 226.12491 65.683013 226.12491 
z
" clip-path="url(#p038fffef92)" style="fill: #ff5349; fill-opacity: 0.4; stroke: #ff5349; stroke-opacity: 0.4; stroke-width: 0.886227"/>
    <path d="M 65.683013 226.12491 
C 66.505618 226.12491 67.294643 225.798085 67.876313 225.216415 
C 68.457983 224.634745 68.784807 223.845721 68.784807 223.023115 
C 68.784807 222.20051 68.457983 221.411485 67.876313 220.829816 
C 67.294643 220.248146 66.505618 219.921321 65.683013 219.921321 
C 64.860408 219.921321 64.071383 220.248146 63.489713 220.829816 
C 62.908043 221.411485 62.581219 222.20051 62.581219 223.023115 
C 62.581219 223.845721 62.908043 224.634745 63.489713 225.216415 
C 64.071383 225.798085 64.860408 226.12491 65.683013 226.12491 
z
" clip-path="url(#p038fffef92)" style="fill: #ff5349; fill-opacity: 0.4; stroke: #ff5349; stroke-opacity: 0.4; stroke-width: 0.886227"/>
    <path d="M 67.319902 167.692068 
C 68.142508 167.692068 68.931532 167.365244 69.513202 166.783574 
C 70.094872 166.201904 70.421696 165.41288 70.421696 164.590274 
C 70.421696 163.767669 70.094872 162.978644 69.513202 162.396974 
C 68.931532 161.815305 68.142508 161.48848 67.319902 161.48848 
C 66.497297 161.48848 65.708272 161.815305 65.126602 162.396974 
C 64.544933 162.978644 64.218108 163.767669 64.218108 164.590274 
C 64.218108 165.41288 64.544933 166.201904 65.126602 166.783574 
C 65.708272 167.365244 66.497297 167.692068 67.319902 167.692068 
z
" clip-path="url(#p038fffef92)" style="fill: #0072b2; fill-opacity: 0.4; stroke: #0072b2; stroke-opacity: 0.4; stroke-width: 0.886227"/>
    <path d="M 67.61796 226.064511 
C 68.440565 226.064511 69.229589 225.737686 69.811259 225.156016 
C 70.392929 224.574346 70.719754 223.785322 70.719754 222.962716 
C 70.719754 222.140111 70.392929 221.351087 69.811259 220.769417 
C 69.229589 220.187747 68.440565 219.860922 67.61796 219.860922 
C 66.795354 219.860922 66.00633 220.187747 65.42466 220.769417 
C 64.84299 221.351087 64.516165 222.140111 64.516165 222.962716 
C 64.516165 223.785322 64.84299 224.574346 65.42466 225.156016 
C 66.00633 225.737686 66.795354 226.064511 67.61796 226.064511 
z
" clip-path="url(#p038fffef92)" style="fill: #ff5349; fill-opacity: 0.4; stroke: #ff5349; stroke-opacity: 0.4; stroke-width: 0.886227"/>
    <path d="M 66.495171 225.730846 
C 67.317776 225.730846 68.1068 225.404022 68.68847 224.822352 
C 69.27014 224.240682 69.596965 223.451658 69.596965 222.629052 
C 69.596965 221.806447 69.27014 221.017422 68.68847 220.435752 
C 68.1068 219.854083 67.317776 219.527258 66.495171 219.527258 
C 65.672565 219.527258 64.883541 219.854083 64.301871 220.435752 
C 63.720201 221.017422 63.393376 221.806447 63.393376 222.629052 
C 63.393376 223.451658 63.720201 224.240682 64.301871 224.822352 
C 64.883541 225.404022 65.672565 225.730846 66.495171 225.730846 
z
" clip-path="url(#p038fffef92)" style="fill: #999999; fill-opacity: 0.4; stroke: #999999; stroke-opacity: 0.4; stroke-width: 0.886227"/>
    <path d="M 66.090653 225.913551 
C 66.913259 225.913551 67.702283 225.586726 68.283953 225.005056 
C 68.865623 224.423387 69.192448 223.634362 69.192448 222.811757 
C 69.192448 221.989151 68.865623 221.200127 68.283953 220.618457 
C 67.702283 220.036787 66.913259 219.709962 66.090653 219.709962 
C 65.268048 219.709962 64.479024 220.036787 63.897354 220.618457 
C 63.315684 221.200127 62.988859 221.989151 62.988859 222.811757 
C 62.988859 223.634362 63.315684 224.423387 63.897354 225.005056 
C 64.479024 225.586726 65.268048 225.913551 66.090653 225.913551 
z
" clip-path="url(#p038fffef92)" style="fill: #0072b2; fill-opacity: 0.4; stroke: #0072b2; stroke-opacity: 0.4; stroke-width: 0.886227"/>
    <path d="M 65.905359 226.12491 
C 66.727965 226.12491 67.516989 225.798085 68.098659 225.216415 
C 68.680329 224.634745 69.007153 223.845721 69.007153 223.023115 
C 69.007153 222.20051 68.680329 221.411485 68.098659 220.829816 
C 67.516989 220.248146 66.727965 219.921321 65.905359 219.921321 
C 65.082754 219.921321 64.293729 220.248146 63.712059 220.829816 
C 63.130389 221.411485 62.803565 222.20051 62.803565 223.023115 
C 62.803565 223.845721 63.130389 224.634745 63.712059 225.216415 
C 64.293729 225.798085 65.082754 226.12491 65.905359 226.12491 
z
" clip-path="url(#p038fffef92)" style="fill: #ff5349; fill-opacity: 0.4; stroke: #ff5349; stroke-opacity: 0.4; stroke-width: 0.886227"/>
    <path d="M 65.683013 226.12491 
C 66.505618 226.12491 67.294643 225.798085 67.876313 225.216415 
C 68.457983 224.634745 68.784807 223.845721 68.784807 223.023115 
C 68.784807 222.20051 68.457983 221.411485 67.876313 220.829816 
C 67.294643 220.248146 66.505618 219.921321 65.683013 219.921321 
C 64.860408 219.921321 64.071383 220.248146 63.489713 220.829816 
C 62.908043 221.411485 62.581219 222.20051 62.581219 223.023115 
C 62.581219 223.845721 62.908043 224.634745 63.489713 225.216415 
C 64.071383 225.798085 64.860408 226.12491 65.683013 226.12491 
z
" clip-path="url(#p038fffef92)" style="fill: #ff5349; fill-opacity: 0.4; stroke: #ff5349; stroke-opacity: 0.4; stroke-width: 0.886227"/>
    <path d="M 65.734576 226.064511 
C 66.557182 226.064511 67.346206 225.737686 67.927876 225.156016 
C 68.509546 224.574346 68.83637 223.785322 68.83637 222.962716 
C 68.83637 222.140111 68.509546 221.351087 67.927876 220.769417 
C 67.346206 220.187747 66.557182 219.860922 65.734576 219.860922 
C 64.911971 219.860922 64.122946 220.187747 63.541277 220.769417 
C 62.959607 221.351087 62.632782 222.140111 62.632782 222.962716 
C 62.632782 223.785322 62.959607 224.574346 63.541277 225.156016 
C 64.122946 225.737686 64.911971 226.064511 65.734576 226.064511 
z
" clip-path="url(#p038fffef92)" style="fill: #0072b2; fill-opacity: 0.4; stroke: #0072b2; stroke-opacity: 0.4; stroke-width: 0.886227"/>
    <path d="M 65.683013 226.12491 
C 66.505618 226.12491 67.294643 225.798085 67.876313 225.216415 
C 68.457983 224.634745 68.784807 223.845721 68.784807 223.023115 
C 68.784807 222.20051 68.457983 221.411485 67.876313 220.829816 
C 67.294643 220.248146 66.505618 219.921321 65.683013 219.921321 
C 64.860408 219.921321 64.071383 220.248146 63.489713 220.829816 
C 62.908043 221.411485 62.581219 222.20051 62.581219 223.023115 
C 62.581219 223.845721 62.908043 224.634745 63.489713 225.216415 
C 64.071383 225.798085 64.860408 226.12491 65.683013 226.12491 
z
" clip-path="url(#p038fffef92)" style="fill: #ff5349; fill-opacity: 0.4; stroke: #ff5349; stroke-opacity: 0.4; stroke-width: 0.886227"/>
    <path d="M 67.208236 225.979094 
C 68.030841 225.979094 68.819866 225.652269 69.401536 225.070599 
C 69.983206 224.488929 70.31003 223.699905 70.31003 222.877299 
C 70.31003 222.054694 69.983206 221.26567 69.401536 220.684 
C 68.819866 220.10233 68.030841 219.775505 67.208236 219.775505 
C 66.385631 219.775505 65.596606 220.10233 65.014936 220.684 
C 64.433266 221.26567 64.106442 222.054694 64.106442 222.877299 
C 64.106442 223.699905 64.433266 224.488929 65.014936 225.070599 
C 65.596606 225.652269 66.385631 225.979094 67.208236 225.979094 
z
" clip-path="url(#p038fffef92)" style="fill: #999999; fill-opacity: 0.4; stroke: #999999; stroke-opacity: 0.4; stroke-width: 0.886227"/>
    <path d="M 66.810867 223.579798 
C 67.633472 223.579798 68.422497 223.252974 69.004167 222.671304 
C 69.585837 222.089634 69.912661 221.300609 69.912661 220.478004 
C 69.912661 219.655399 69.585837 218.866374 69.004167 218.284704 
C 68.422497 217.703034 67.633472 217.37621 66.810867 217.37621 
C 65.988261 217.37621 65.199237 217.703034 64.617567 218.284704 
C 64.035897 218.866374 63.709073 219.655399 63.709073 220.478004 
C 63.709073 221.300609 64.035897 222.089634 64.617567 222.671304 
C 65.199237 223.252974 65.988261 223.579798 66.810867 223.579798 
z
" clip-path="url(#p038fffef92)" style="fill: #0072b2; fill-opacity: 0.4; stroke: #0072b2; stroke-opacity: 0.4; stroke-width: 0.886227"/>
    <path d="M 65.683013 226.12491 
C 66.505618 226.12491 67.294643 225.798085 67.876313 225.216415 
C 68.457983 224.634745 68.784807 223.845721 68.784807 223.023115 
C 68.784807 222.20051 68.457983 221.411485 67.876313 220.829816 
C 67.294643 220.248146 66.505618 219.921321 65.683013 219.921321 
C 64.860408 219.921321 64.071383 220.248146 63.489713 220.829816 
C 62.908043 221.411485 62.581219 222.20051 62.581219 223.023115 
C 62.581219 223.845721 62.908043 224.634745 63.489713 225.216415 
C 64.071383 225.798085 64.860408 226.12491 65.683013 226.12491 
z
" clip-path="url(#p038fffef92)" style="fill: #999999; fill-opacity: 0.4; stroke: #999999; stroke-opacity: 0.4; stroke-width: 0.886227"/>
    <path d="M 65.734576 226.064511 
C 66.557182 226.064511 67.346206 225.737686 67.927876 225.156016 
C 68.509546 224.574346 68.83637 223.785322 68.83637 222.962716 
C 68.83637 222.140111 68.509546 221.351087 67.927876 220.769417 
C 67.346206 220.187747 66.557182 219.860922 65.734576 219.860922 
C 64.911971 219.860922 64.122946 220.187747 63.541277 220.769417 
C 62.959607 221.351087 62.632782 222.140111 62.632782 222.962716 
C 62.632782 223.785322 62.959607 224.574346 63.541277 225.156016 
C 64.122946 225.737686 64.911971 226.064511 65.734576 226.064511 
z
" clip-path="url(#p038fffef92)" style="fill: #999999; fill-opacity: 0.4; stroke: #999999; stroke-opacity: 0.4; stroke-width: 0.886227"/>
    <path d="M 69.631431 188.889439 
C 70.454036 188.889439 71.243061 188.562614 71.824731 187.980944 
C 72.406401 187.399275 72.733225 186.61025 72.733225 185.787645 
C 72.733225 184.965039 72.406401 184.176015 71.824731 183.594345 
C 71.243061 183.012675 70.454036 182.685851 69.631431 182.685851 
C 68.808825 182.685851 68.019801 183.012675 67.438131 183.594345 
C 66.856461 184.176015 66.529637 184.965039 66.529637 185.787645 
C 66.529637 186.61025 66.856461 187.399275 67.438131 187.980944 
C 68.019801 188.562614 68.808825 188.889439 69.631431 188.889439 
z
" clip-path="url(#p038fffef92)" style="fill: #0072b2; fill-opacity: 0.4; stroke: #0072b2; stroke-opacity: 0.4; stroke-width: 0.886227"/>
    <path d="M 109.279909 126.939824 
C 110.102515 126.939824 110.891539 126.612999 111.473209 126.031329 
C 112.054879 125.449659 112.381704 124.660635 112.381704 123.838029 
C 112.381704 123.015424 112.054879 122.2264 111.473209 121.64473 
C 110.891539 121.06306 110.102515 120.736235 109.279909 120.736235 
C 108.457304 120.736235 107.66828 121.06306 107.08661 121.64473 
C 106.50494 122.2264 106.178115 123.015424 106.178115 123.838029 
C 106.178115 124.660635 106.50494 125.449659 107.08661 126.031329 
C 107.66828 126.612999 108.457304 126.939824 109.279909 126.939824 
z
" clip-path="url(#p038fffef92)" style="fill: #0072b2; fill-opacity: 0.4; stroke: #0072b2; stroke-opacity: 0.4; stroke-width: 0.886227"/>
    <path d="M 77.538542 225.839377 
C 78.361148 225.839377 79.150172 225.512552 79.731842 224.930882 
C 80.313512 224.349212 80.640337 223.560188 80.640337 222.737582 
C 80.640337 221.914977 80.313512 221.125953 79.731842 220.544283 
C 79.150172 219.962613 78.361148 219.635788 77.538542 219.635788 
C 76.715937 219.635788 75.926913 219.962613 75.345243 220.544283 
C 74.763573 221.125953 74.436748 221.914977 74.436748 222.737582 
C 74.436748 223.560188 74.763573 224.349212 75.345243 224.930882 
C 75.926913 225.512552 76.715937 225.839377 77.538542 225.839377 
z
" clip-path="url(#p038fffef92)" style="fill: #999999; fill-opacity: 0.4; stroke: #999999; stroke-opacity: 0.4; stroke-width: 0.886227"/>
    <path d="M 75.056172 221.177534 
C 75.878777 221.177534 76.667802 220.85071 77.249472 220.26904 
C 77.831141 219.68737 78.157966 218.898346 78.157966 218.07574 
C 78.157966 217.253135 77.831141 216.46411 77.249472 215.88244 
C 76.667802 215.30077 75.878777 214.973946 75.056172 214.973946 
C 74.233566 214.973946 73.444542 215.30077 72.862872 215.88244 
C 72.281202 216.46411 71.954378 217.253135 71.954378 218.07574 
C 71.954378 218.898346 72.281202 219.68737 72.862872 220.26904 
C 73.444542 220.85071 74.233566 221.177534 75.056172 221.177534 
z
" clip-path="url(#p038fffef92)" style="fill: #0072b2; fill-opacity: 0.4; stroke: #0072b2; stroke-opacity: 0.4; stroke-width: 0.886227"/>
    <path d="M 65.683013 226.12491 
C 66.505618 226.12491 67.294643 225.798085 67.876313 225.216415 
C 68.457983 224.634745 68.784807 223.845721 68.784807 223.023115 
C 68.784807 222.20051 68.457983 221.411485 67.876313 220.829816 
C 67.294643 220.248146 66.505618 219.921321 65.683013 219.921321 
C 64.860408 219.921321 64.071383 220.248146 63.489713 220.829816 
C 62.908043 221.411485 62.581219 222.20051 62.581219 223.023115 
C 62.581219 223.845721 62.908043 224.634745 63.489713 225.216415 
C 64.071383 225.798085 64.860408 226.12491 65.683013 226.12491 
z
" clip-path="url(#p038fffef92)" style="fill: #ff5349; fill-opacity: 0.4; stroke: #ff5349; stroke-opacity: 0.4; stroke-width: 0.886227"/>
    <path d="M 65.683013 226.12491 
C 66.505618 226.12491 67.294643 225.798085 67.876313 225.216415 
C 68.457983 224.634745 68.784807 223.845721 68.784807 223.023115 
C 68.784807 222.20051 68.457983 221.411485 67.876313 220.829816 
C 67.294643 220.248146 66.505618 219.921321 65.683013 219.921321 
C 64.860408 219.921321 64.071383 220.248146 63.489713 220.829816 
C 62.908043 221.411485 62.581219 222.20051 62.581219 223.023115 
C 62.581219 223.845721 62.908043 224.634745 63.489713 225.216415 
C 64.071383 225.798085 64.860408 226.12491 65.683013 226.12491 
z
" clip-path="url(#p038fffef92)" style="fill: #0072b2; fill-opacity: 0.4; stroke: #0072b2; stroke-opacity: 0.4; stroke-width: 0.886227"/>
    <path d="M 67.265662 226.064511 
C 68.088268 226.064511 68.877292 225.737686 69.458962 225.156016 
C 70.040632 224.574346 70.367456 223.785322 70.367456 222.962716 
C 70.367456 222.140111 70.040632 221.351087 69.458962 220.769417 
C 68.877292 220.187747 68.088268 219.860922 67.265662 219.860922 
C 66.443057 219.860922 65.654032 220.187747 65.072362 220.769417 
C 64.490692 221.351087 64.163868 222.140111 64.163868 222.962716 
C 64.163868 223.785322 64.490692 224.574346 65.072362 225.156016 
C 65.654032 225.737686 66.443057 226.064511 67.265662 226.064511 
z
" clip-path="url(#p038fffef92)" style="fill: #ff5349; fill-opacity: 0.4; stroke: #ff5349; stroke-opacity: 0.4; stroke-width: 0.886227"/>
    <path d="M 65.683013 226.12491 
C 66.505618 226.12491 67.294643 225.798085 67.876313 225.216415 
C 68.457983 224.634745 68.784807 223.845721 68.784807 223.023115 
C 68.784807 222.20051 68.457983 221.411485 67.876313 220.829816 
C 67.294643 220.248146 66.505618 219.921321 65.683013 219.921321 
C 64.860408 219.921321 64.071383 220.248146 63.489713 220.829816 
C 62.908043 221.411485 62.581219 222.20051 62.581219 223.023115 
C 62.581219 223.845721 62.908043 224.634745 63.489713 225.216415 
C 64.071383 225.798085 64.860408 226.12491 65.683013 226.12491 
z
" clip-path="url(#p038fffef92)" style="fill: #ff5349; fill-opacity: 0.4; stroke: #ff5349; stroke-opacity: 0.4; stroke-width: 0.886227"/>
    <path d="M 65.683013 226.12491 
C 66.505618 226.12491 67.294643 225.798085 67.876313 225.216415 
C 68.457983 224.634745 68.784807 223.845721 68.784807 223.023115 
C 68.784807 222.20051 68.457983 221.411485 67.876313 220.829816 
C 67.294643 220.248146 66.505618 219.921321 65.683013 219.921321 
C 64.860408 219.921321 64.071383 220.248146 63.489713 220.829816 
C 62.908043 221.411485 62.581219 222.20051 62.581219 223.023115 
C 62.581219 223.845721 62.908043 224.634745 63.489713 225.216415 
C 64.071383 225.798085 64.860408 226.12491 65.683013 226.12491 
z
" clip-path="url(#p038fffef92)" style="fill: #0072b2; fill-opacity: 0.4; stroke: #0072b2; stroke-opacity: 0.4; stroke-width: 0.886227"/>
    <path d="M 120.710504 99.149399 
C 121.53311 99.149399 122.322134 98.822574 122.903804 98.240905 
C 123.485474 97.659235 123.812298 96.87021 123.812298 96.047605 
C 123.812298 95.224999 123.485474 94.435975 122.903804 93.854305 
C 122.322134 93.272635 121.53311 92.945811 120.710504 92.945811 
C 119.887899 92.945811 119.098874 93.272635 118.517204 93.854305 
C 117.935535 94.435975 117.60871 95.224999 117.60871 96.047605 
C 117.60871 96.87021 117.935535 97.659235 118.517204 98.240905 
C 119.098874 98.822574 119.887899 99.149399 120.710504 99.149399 
z
" clip-path="url(#p038fffef92)" style="fill: #0072b2; fill-opacity: 0.4; stroke: #0072b2; stroke-opacity: 0.4; stroke-width: 0.886227"/>
    <path d="M 65.683013 226.12491 
C 66.505618 226.12491 67.294643 225.798085 67.876313 225.216415 
C 68.457983 224.634745 68.784807 223.845721 68.784807 223.023115 
C 68.784807 222.20051 68.457983 221.411485 67.876313 220.829816 
C 67.294643 220.248146 66.505618 219.921321 65.683013 219.921321 
C 64.860408 219.921321 64.071383 220.248146 63.489713 220.829816 
C 62.908043 221.411485 62.581219 222.20051 62.581219 223.023115 
C 62.581219 223.845721 62.908043 224.634745 63.489713 225.216415 
C 64.071383 225.798085 64.860408 226.12491 65.683013 226.12491 
z
" clip-path="url(#p038fffef92)" style="fill: #ff5349; fill-opacity: 0.4; stroke: #ff5349; stroke-opacity: 0.4; stroke-width: 0.886227"/>
    <path d="M 65.683013 226.12491 
C 66.505618 226.12491 67.294643 225.798085 67.876313 225.216415 
C 68.457983 224.634745 68.784807 223.845721 68.784807 223.023115 
C 68.784807 222.20051 68.457983 221.411485 67.876313 220.829816 
C 67.294643 220.248146 66.505618 219.921321 65.683013 219.921321 
C 64.860408 219.921321 64.071383 220.248146 63.489713 220.829816 
C 62.908043 221.411485 62.581219 222.20051 62.581219 223.023115 
C 62.581219 223.845721 62.908043 224.634745 63.489713 225.216415 
C 64.071383 225.798085 64.860408 226.12491 65.683013 226.12491 
z
" clip-path="url(#p038fffef92)" style="fill: #0072b2; fill-opacity: 0.4; stroke: #0072b2; stroke-opacity: 0.4; stroke-width: 0.886227"/>
    <path d="M 80.760187 159.426958 
C 81.582793 159.426958 82.371817 159.100133 82.953487 158.518463 
C 83.535157 157.936793 83.861982 157.147769 83.861982 156.325163 
C 83.861982 155.502558 83.535157 154.713533 82.953487 154.131864 
C 82.371817 153.550194 81.582793 153.223369 80.760187 153.223369 
C 79.937582 153.223369 79.148558 153.550194 78.566888 154.131864 
C 77.985218 154.713533 77.658393 155.502558 77.658393 156.325163 
C 77.658393 157.147769 77.985218 157.936793 78.566888 158.518463 
C 79.148558 159.100133 79.937582 159.426958 80.760187 159.426958 
z
" clip-path="url(#p038fffef92)" style="fill: #0072b2; fill-opacity: 0.4; stroke: #0072b2; stroke-opacity: 0.4; stroke-width: 0.886227"/>
    <path d="M 69.817793 226.099558 
C 70.640398 226.099558 71.429423 225.772733 72.011093 225.191063 
C 72.592763 224.609394 72.919587 223.820369 72.919587 222.997764 
C 72.919587 222.175158 72.592763 221.386134 72.011093 220.804464 
C 71.429423 220.222794 70.640398 219.895969 69.817793 219.895969 
C 68.995188 219.895969 68.206163 220.222794 67.624493 220.804464 
C 67.042823 221.386134 66.715999 222.175158 66.715999 222.997764 
C 66.715999 223.820369 67.042823 224.609394 67.624493 225.191063 
C 68.206163 225.772733 68.995188 226.099558 69.817793 226.099558 
z
" clip-path="url(#p038fffef92)" style="fill: #0072b2; fill-opacity: 0.4; stroke: #0072b2; stroke-opacity: 0.4; stroke-width: 0.886227"/>
    <path d="M 65.683013 226.12491 
C 66.505618 226.12491 67.294643 225.798085 67.876313 225.216415 
C 68.457983 224.634745 68.784807 223.845721 68.784807 223.023115 
C 68.784807 222.20051 68.457983 221.411485 67.876313 220.829816 
C 67.294643 220.248146 66.505618 219.921321 65.683013 219.921321 
C 64.860408 219.921321 64.071383 220.248146 63.489713 220.829816 
C 62.908043 221.411485 62.581219 222.20051 62.581219 223.023115 
C 62.581219 223.845721 62.908043 224.634745 63.489713 225.216415 
C 64.071383 225.798085 64.860408 226.12491 65.683013 226.12491 
z
" clip-path="url(#p038fffef92)" style="fill: #ff5349; fill-opacity: 0.4; stroke: #ff5349; stroke-opacity: 0.4; stroke-width: 0.886227"/>
    <path d="M 79.762817 225.559469 
C 80.585423 225.559469 81.374447 225.232644 81.956117 224.650974 
C 82.537787 224.069305 82.864612 223.28028 82.864612 222.457675 
C 82.864612 221.635069 82.537787 220.846045 81.956117 220.264375 
C 81.374447 219.682705 80.585423 219.35588 79.762817 219.35588 
C 78.940212 219.35588 78.151188 219.682705 77.569518 220.264375 
C 76.987848 220.846045 76.661023 221.635069 76.661023 222.457675 
C 76.661023 223.28028 76.987848 224.069305 77.569518 224.650974 
C 78.151188 225.232644 78.940212 225.559469 79.762817 225.559469 
z
" clip-path="url(#p038fffef92)" style="fill: #0072b2; fill-opacity: 0.4; stroke: #0072b2; stroke-opacity: 0.4; stroke-width: 0.886227"/>
    <path d="M 65.683013 226.12491 
C 66.505618 226.12491 67.294643 225.798085 67.876313 225.216415 
C 68.457983 224.634745 68.784807 223.845721 68.784807 223.023115 
C 68.784807 222.20051 68.457983 221.411485 67.876313 220.829816 
C 67.294643 220.248146 66.505618 219.921321 65.683013 219.921321 
C 64.860408 219.921321 64.071383 220.248146 63.489713 220.829816 
C 62.908043 221.411485 62.581219 222.20051 62.581219 223.023115 
C 62.581219 223.845721 62.908043 224.634745 63.489713 225.216415 
C 64.071383 225.798085 64.860408 226.12491 65.683013 226.12491 
z
" clip-path="url(#p038fffef92)" style="fill: #ff5349; fill-opacity: 0.4; stroke: #ff5349; stroke-opacity: 0.4; stroke-width: 0.886227"/>
    <path d="M 79.443554 226.026175 
C 80.26616 226.026175 81.055184 225.69935 81.636854 225.11768 
C 82.218524 224.536011 82.545349 223.746986 82.545349 222.924381 
C 82.545349 222.101775 82.218524 221.312751 81.636854 220.731081 
C 81.055184 220.149411 80.26616 219.822586 79.443554 219.822586 
C 78.620949 219.822586 77.831924 220.149411 77.250255 220.731081 
C 76.668585 221.312751 76.34176 222.101775 76.34176 222.924381 
C 76.34176 223.746986 76.668585 224.536011 77.250255 225.11768 
C 77.831924 225.69935 78.620949 226.026175 79.443554 226.026175 
z
" clip-path="url(#p038fffef92)" style="fill: #999999; fill-opacity: 0.4; stroke: #999999; stroke-opacity: 0.4; stroke-width: 0.886227"/>
   </g>
   <g id="patch_3">
    <path d="M 57.949438 230.728931 
L 57.949438 64.408931 
" style="fill: none; stroke: #000000; stroke-linejoin: miter; stroke-linecap: square"/>
   </g>
   <g id="patch_4">
    <path d="M 57.949438 230.728931 
L 225.349437 230.728931 
" style="fill: none; stroke: #000000; stroke-linejoin: miter; stroke-linecap: square"/>
   </g>
   <g id="patch_5">
    <path d="M 232.549437 192.455806 
L 456.541313 192.455806 
L 456.541313 100.522056 
L 232.549437 100.522056 
z
" style="fill: #ffffff"/>
   </g>
   <g id="text_9">
    <!-- Viral mutations -->
    <g transform="translate(244.749437 125.151431)scale(0.12 -0.12)">
     <defs>
      <path id="DejaVuSans-56" d="M 1831 0 
L 50 4666 
L 709 4666 
L 2188 738 
L 3669 4666 
L 4325 4666 
L 2547 0 
L 1831 0 
z
" transform="scale(0.015625)"/>
      <path id="DejaVuSans-6d" d="M 3328 2828 
Q 3544 3216 3844 3400 
Q 4144 3584 4550 3584 
Q 5097 3584 5394 3201 
Q 5691 2819 5691 2113 
L 5691 0 
L 5113 0 
L 5113 2094 
Q 5113 2597 4934 2840 
Q 4756 3084 4391 3084 
Q 3944 3084 3684 2787 
Q 3425 2491 3425 1978 
L 3425 0 
L 2847 0 
L 2847 2094 
Q 2847 2600 2669 2842 
Q 2491 3084 2119 3084 
Q 1678 3084 1418 2786 
Q 1159 2488 1159 1978 
L 1159 0 
L 581 0 
L 581 3500 
L 1159 3500 
L 1159 2956 
Q 1356 3278 1631 3431 
Q 1906 3584 2284 3584 
Q 2666 3584 2933 3390 
Q 3200 3197 3328 2828 
z
" transform="scale(0.015625)"/>
     </defs>
     <use xlink:href="#DejaVuSans-56"/>
     <use xlink:href="#DejaVuSans-69" x="66.158203"/>
     <use xlink:href="#DejaVuSans-72" x="93.941406"/>
     <use xlink:href="#DejaVuSans-61" x="135.054688"/>
     <use xlink:href="#DejaVuSans-6c" x="196.333984"/>
     <use xlink:href="#DejaVuSans-20" x="224.117188"/>
     <use xlink:href="#DejaVuSans-6d" x="255.904297"/>
     <use xlink:href="#DejaVuSans-75" x="353.316406"/>
     <use xlink:href="#DejaVuSans-74" x="416.695312"/>
     <use xlink:href="#DejaVuSans-61" x="455.904297"/>
     <use xlink:href="#DejaVuSans-74" x="517.183594"/>
     <use xlink:href="#DejaVuSans-69" x="556.392578"/>
     <use xlink:href="#DejaVuSans-6f" x="584.175781"/>
     <use xlink:href="#DejaVuSans-6e" x="645.357422"/>
     <use xlink:href="#DejaVuSans-73" x="708.736328"/>
    </g>
   </g>
   <g id="patch_6">
    <path d="M 244.749437 144.575806 
L 260.589437 144.575806 
L 260.589437 128.735806 
L 244.749437 128.735806 
L 244.749437 144.575806 
z
" clip-path="url(#p50ed9e608d)" style="fill: none"/>
   </g>
   <g id="line2d_7">
    <path d="M 252.669437 136.655806 
" clip-path="url(#p50ed9e608d)" style="fill: none; stroke: #1f77b4; stroke-opacity: 0.4; stroke-width: 1.5; stroke-linecap: square"/>
    <defs>
     <path id="m14ce0d8672" d="M 0 3.101794 
C 0.822605 3.101794 1.61163 2.77497 2.1933 2.1933 
C 2.77497 1.61163 3.101794 0.822605 3.101794 0 
C 3.101794 -0.822605 2.77497 -1.61163 2.1933 -2.1933 
C 1.61163 -2.77497 0.822605 -3.101794 0 -3.101794 
C -0.822605 -3.101794 -1.61163 -2.77497 -2.1933 -2.1933 
C -2.77497 -1.61163 -3.101794 -0.822605 -3.101794 0 
C -3.101794 0.822605 -2.77497 1.61163 -2.1933 2.1933 
C -1.61163 2.77497 -0.822605 3.101794 0 3.101794 
z
" style="stroke: #0072b2; stroke-opacity: 0.4; stroke-width: 0.886227"/>
    </defs>
    <g clip-path="url(#p50ed9e608d)">
     <use xlink:href="#m14ce0d8672" x="252.669437" y="136.655806" style="fill: #0072b2; fill-opacity: 0.4; stroke: #0072b2; stroke-opacity: 0.4; stroke-width: 0.886227"/>
    </g>
   </g>
   <g id="text_10">
    <!-- Complete unmutated genome -->
    <g transform="translate(263.589437 139.967056)scale(0.12 -0.12)">
     <defs>
      <path id="DejaVuSans-43" d="M 4122 4306 
L 4122 3641 
Q 3803 3938 3442 4084 
Q 3081 4231 2675 4231 
Q 1875 4231 1450 3742 
Q 1025 3253 1025 2328 
Q 1025 1406 1450 917 
Q 1875 428 2675 428 
Q 3081 428 3442 575 
Q 3803 722 4122 1019 
L 4122 359 
Q 3791 134 3420 21 
Q 3050 -91 2638 -91 
Q 1578 -91 968 557 
Q 359 1206 359 2328 
Q 359 3453 968 4101 
Q 1578 4750 2638 4750 
Q 3056 4750 3426 4639 
Q 3797 4528 4122 4306 
z
" transform="scale(0.015625)"/>
      <path id="DejaVuSans-64" d="M 2906 2969 
L 2906 4863 
L 3481 4863 
L 3481 0 
L 2906 0 
L 2906 525 
Q 2725 213 2448 61 
Q 2172 -91 1784 -91 
Q 1150 -91 751 415 
Q 353 922 353 1747 
Q 353 2572 751 3078 
Q 1150 3584 1784 3584 
Q 2172 3584 2448 3432 
Q 2725 3281 2906 2969 
z
M 947 1747 
Q 947 1113 1208 752 
Q 1469 391 1925 391 
Q 2381 391 2643 752 
Q 2906 1113 2906 1747 
Q 2906 2381 2643 2742 
Q 2381 3103 1925 3103 
Q 1469 3103 1208 2742 
Q 947 2381 947 1747 
z
" transform="scale(0.015625)"/>
     </defs>
     <use xlink:href="#DejaVuSans-43"/>
     <use xlink:href="#DejaVuSans-6f" x="69.824219"/>
     <use xlink:href="#DejaVuSans-6d" x="131.005859"/>
     <use xlink:href="#DejaVuSans-70" x="228.417969"/>
     <use xlink:href="#DejaVuSans-6c" x="291.894531"/>
     <use xlink:href="#DejaVuSans-65" x="319.677734"/>
     <use xlink:href="#DejaVuSans-74" x="381.201172"/>
     <use xlink:href="#DejaVuSans-65" x="420.410156"/>
     <use xlink:href="#DejaVuSans-20" x="481.933594"/>
     <use xlink:href="#DejaVuSans-75" x="513.720703"/>
     <use xlink:href="#DejaVuSans-6e" x="577.099609"/>
     <use xlink:href="#DejaVuSans-6d" x="640.478516"/>
     <use xlink:href="#DejaVuSans-75" x="737.890625"/>
     <use xlink:href="#DejaVuSans-74" x="801.269531"/>
     <use xlink:href="#DejaVuSans-61" x="840.478516"/>
     <use xlink:href="#DejaVuSans-74" x="901.757812"/>
     <use xlink:href="#DejaVuSans-65" x="940.966797"/>
     <use xlink:href="#DejaVuSans-64" x="1002.490234"/>
     <use xlink:href="#DejaVuSans-20" x="1065.966797"/>
     <use xlink:href="#DejaVuSans-67" x="1097.753906"/>
     <use xlink:href="#DejaVuSans-65" x="1161.230469"/>
     <use xlink:href="#DejaVuSans-6e" x="1222.753906"/>
     <use xlink:href="#DejaVuSans-6f" x="1286.132812"/>
     <use xlink:href="#DejaVuSans-6d" x="1347.314453"/>
     <use xlink:href="#DejaVuSans-65" x="1444.726562"/>
    </g>
   </g>
   <g id="patch_7">
    <path d="M 244.749437 162.415806 
L 260.589437 162.415806 
L 260.589437 146.575806 
L 244.749437 146.575806 
L 244.749437 162.415806 
z
" clip-path="url(#p6e99baa3c6)" style="fill: none"/>
   </g>
   <g id="line2d_8">
    <path d="M 252.669437 154.495806 
" clip-path="url(#p6e99baa3c6)" style="fill: none; stroke: #1f77b4; stroke-opacity: 0.4; stroke-width: 1.5; stroke-linecap: square"/>
    <defs>
     <path id="m68b54c939e" d="M 0 3.101794 
C 0.822605 3.101794 1.61163 2.77497 2.1933 2.1933 
C 2.77497 1.61163 3.101794 0.822605 3.101794 0 
C 3.101794 -0.822605 2.77497 -1.61163 2.1933 -2.1933 
C 1.61163 -2.77497 0.822605 -3.101794 0 -3.101794 
C -0.822605 -3.101794 -1.61163 -2.77497 -2.1933 -2.1933 
C -2.77497 -1.61163 -3.101794 -0.822605 -3.101794 0 
C -3.101794 0.822605 -2.77497 1.61163 -2.1933 2.1933 
C -1.61163 2.77497 -0.822605 3.101794 0 3.101794 
z
" style="stroke: #999999; stroke-opacity: 0.4; stroke-width: 0.886227"/>
    </defs>
    <g clip-path="url(#p6e99baa3c6)">
     <use xlink:href="#m68b54c939e" x="252.669437" y="154.495806" style="fill: #999999; fill-opacity: 0.4; stroke: #999999; stroke-opacity: 0.4; stroke-width: 0.886227"/>
    </g>
   </g>
   <g id="text_11">
    <!-- Complete mutated genome -->
    <g transform="translate(263.589437 157.807056)scale(0.12 -0.12)">
     <use xlink:href="#DejaVuSans-43"/>
     <use xlink:href="#DejaVuSans-6f" x="69.824219"/>
     <use xlink:href="#DejaVuSans-6d" x="131.005859"/>
     <use xlink:href="#DejaVuSans-70" x="228.417969"/>
     <use xlink:href="#DejaVuSans-6c" x="291.894531"/>
     <use xlink:href="#DejaVuSans-65" x="319.677734"/>
     <use xlink:href="#DejaVuSans-74" x="381.201172"/>
     <use xlink:href="#DejaVuSans-65" x="420.410156"/>
     <use xlink:href="#DejaVuSans-20" x="481.933594"/>
     <use xlink:href="#DejaVuSans-6d" x="513.720703"/>
     <use xlink:href="#DejaVuSans-75" x="611.132812"/>
     <use xlink:href="#DejaVuSans-74" x="674.511719"/>
     <use xlink:href="#DejaVuSans-61" x="713.720703"/>
     <use xlink:href="#DejaVuSans-74" x="775"/>
     <use xlink:href="#DejaVuSans-65" x="814.208984"/>
     <use xlink:href="#DejaVuSans-64" x="875.732422"/>
     <use xlink:href="#DejaVuSans-20" x="939.208984"/>
     <use xlink:href="#DejaVuSans-67" x="970.996094"/>
     <use xlink:href="#DejaVuSans-65" x="1034.472656"/>
     <use xlink:href="#DejaVuSans-6e" x="1095.996094"/>
     <use xlink:href="#DejaVuSans-6f" x="1159.375"/>
     <use xlink:href="#DejaVuSans-6d" x="1220.556641"/>
     <use xlink:href="#DejaVuSans-65" x="1317.96875"/>
    </g>
   </g>
   <g id="patch_8">
    <path d="M 244.749437 180.255806 
L 260.589437 180.255806 
L 260.589437 164.415806 
L 244.749437 164.415806 
L 244.749437 180.255806 
z
" clip-path="url(#p83e4a671d0)" style="fill: none"/>
   </g>
   <g id="line2d_9">
    <path d="M 252.669437 172.335806 
" clip-path="url(#p83e4a671d0)" style="fill: none; stroke: #1f77b4; stroke-opacity: 0.4; stroke-width: 1.5; stroke-linecap: square"/>
    <defs>
     <path id="m295e111566" d="M 0 3.101794 
C 0.822605 3.101794 1.61163 2.77497 2.1933 2.1933 
C 2.77497 1.61163 3.101794 0.822605 3.101794 0 
C 3.101794 -0.822605 2.77497 -1.61163 2.1933 -2.1933 
C 1.61163 -2.77497 0.822605 -3.101794 0 -3.101794 
C -0.822605 -3.101794 -1.61163 -2.77497 -2.1933 -2.1933 
C -2.77497 -1.61163 -3.101794 -0.822605 -3.101794 0 
C -3.101794 0.822605 -2.77497 1.61163 -2.1933 2.1933 
C -1.61163 2.77497 -0.822605 3.101794 0 3.101794 
z
" style="stroke: #ff5349; stroke-opacity: 0.4; stroke-width: 0.886227"/>
    </defs>
    <g clip-path="url(#p83e4a671d0)">
     <use xlink:href="#m295e111566" x="252.669437" y="172.335806" style="fill: #ff5349; fill-opacity: 0.4; stroke: #ff5349; stroke-opacity: 0.4; stroke-width: 0.886227"/>
    </g>
   </g>
   <g id="text_12">
    <!-- Missing viral gene(s) -->
    <g transform="translate(263.589437 175.647056)scale(0.12 -0.12)">
     <defs>
      <path id="DejaVuSans-4d" d="M 628 4666 
L 1569 4666 
L 2759 1491 
L 3956 4666 
L 4897 4666 
L 4897 0 
L 4281 0 
L 4281 4097 
L 3078 897 
L 2444 897 
L 1241 4097 
L 1241 0 
L 628 0 
L 628 4666 
z
" transform="scale(0.015625)"/>
      <path id="DejaVuSans-76" d="M 191 3500 
L 800 3500 
L 1894 563 
L 2988 3500 
L 3597 3500 
L 2284 0 
L 1503 0 
L 191 3500 
z
" transform="scale(0.015625)"/>
      <path id="DejaVuSans-28" d="M 1984 4856 
Q 1566 4138 1362 3434 
Q 1159 2731 1159 2009 
Q 1159 1288 1364 580 
Q 1569 -128 1984 -844 
L 1484 -844 
Q 1016 -109 783 600 
Q 550 1309 550 2009 
Q 550 2706 781 3412 
Q 1013 4119 1484 4856 
L 1984 4856 
z
" transform="scale(0.015625)"/>
      <path id="DejaVuSans-29" d="M 513 4856 
L 1013 4856 
Q 1481 4119 1714 3412 
Q 1947 2706 1947 2009 
Q 1947 1309 1714 600 
Q 1481 -109 1013 -844 
L 513 -844 
Q 928 -128 1133 580 
Q 1338 1288 1338 2009 
Q 1338 2731 1133 3434 
Q 928 4138 513 4856 
z
" transform="scale(0.015625)"/>
     </defs>
     <use xlink:href="#DejaVuSans-4d"/>
     <use xlink:href="#DejaVuSans-69" x="86.279297"/>
     <use xlink:href="#DejaVuSans-73" x="114.0625"/>
     <use xlink:href="#DejaVuSans-73" x="166.162109"/>
     <use xlink:href="#DejaVuSans-69" x="218.261719"/>
     <use xlink:href="#DejaVuSans-6e" x="246.044922"/>
     <use xlink:href="#DejaVuSans-67" x="309.423828"/>
     <use xlink:href="#DejaVuSans-20" x="372.900391"/>
     <use xlink:href="#DejaVuSans-76" x="404.6875"/>
     <use xlink:href="#DejaVuSans-69" x="463.867188"/>
     <use xlink:href="#DejaVuSans-72" x="491.650391"/>
     <use xlink:href="#DejaVuSans-61" x="532.763672"/>
     <use xlink:href="#DejaVuSans-6c" x="594.042969"/>
     <use xlink:href="#DejaVuSans-20" x="621.826172"/>
     <use xlink:href="#DejaVuSans-67" x="653.613281"/>
     <use xlink:href="#DejaVuSans-65" x="717.089844"/>
     <use xlink:href="#DejaVuSans-6e" x="778.613281"/>
     <use xlink:href="#DejaVuSans-65" x="841.992188"/>
     <use xlink:href="#DejaVuSans-28" x="903.515625"/>
     <use xlink:href="#DejaVuSans-73" x="942.529297"/>
     <use xlink:href="#DejaVuSans-29" x="994.628906"/>
    </g>
   </g>
  </g>
  <g id="text_13">
   <!-- Physical and infectious progeny -->
   <g transform="translate(27.797094 17.837813)scale(0.14 -0.14)">
    <defs>
     <path id="DejaVuSans-50" d="M 1259 4147 
L 1259 2394 
L 2053 2394 
Q 2494 2394 2734 2622 
Q 2975 2850 2975 3272 
Q 2975 3691 2734 3919 
Q 2494 4147 2053 4147 
L 1259 4147 
z
M 628 4666 
L 2053 4666 
Q 2838 4666 3239 4311 
Q 3641 3956 3641 3272 
Q 3641 2581 3239 2228 
Q 2838 1875 2053 1875 
L 1259 1875 
L 1259 0 
L 628 0 
L 628 4666 
z
" transform="scale(0.015625)"/>
    </defs>
    <use xlink:href="#DejaVuSans-50"/>
    <use xlink:href="#DejaVuSans-68" x="60.302734"/>
    <use xlink:href="#DejaVuSans-79" x="123.681641"/>
    <use xlink:href="#DejaVuSans-73" x="182.861328"/>
    <use xlink:href="#DejaVuSans-69" x="234.960938"/>
    <use xlink:href="#DejaVuSans-63" x="262.744141"/>
    <use xlink:href="#DejaVuSans-61" x="317.724609"/>
    <use xlink:href="#DejaVuSans-6c" x="379.003906"/>
    <use xlink:href="#DejaVuSans-20" x="406.787109"/>
    <use xlink:href="#DejaVuSans-61" x="438.574219"/>
    <use xlink:href="#DejaVuSans-6e" x="499.853516"/>
    <use xlink:href="#DejaVuSans-64" x="563.232422"/>
    <use xlink:href="#DejaVuSans-20" x="626.708984"/>
    <use xlink:href="#DejaVuSans-69" x="658.496094"/>
    <use xlink:href="#DejaVuSans-6e" x="686.279297"/>
    <use xlink:href="#DejaVuSans-66" x="749.658203"/>
    <use xlink:href="#DejaVuSans-65" x="784.863281"/>
    <use xlink:href="#DejaVuSans-63" x="846.386719"/>
    <use xlink:href="#DejaVuSans-74" x="901.367188"/>
    <use xlink:href="#DejaVuSans-69" x="940.576172"/>
    <use xlink:href="#DejaVuSans-6f" x="968.359375"/>
    <use xlink:href="#DejaVuSans-75" x="1029.541016"/>
    <use xlink:href="#DejaVuSans-73" x="1092.919922"/>
    <use xlink:href="#DejaVuSans-20" x="1145.019531"/>
    <use xlink:href="#DejaVuSans-70" x="1176.806641"/>
    <use xlink:href="#DejaVuSans-72" x="1240.283203"/>
    <use xlink:href="#DejaVuSans-6f" x="1279.146484"/>
    <use xlink:href="#DejaVuSans-67" x="1340.328125"/>
    <use xlink:href="#DejaVuSans-65" x="1403.804688"/>
    <use xlink:href="#DejaVuSans-6e" x="1465.328125"/>
    <use xlink:href="#DejaVuSans-79" x="1528.707031"/>
   </g>
   <!-- produced by single infected cells -->
   <g transform="translate(23.624437 30.323406)scale(0.14 -0.14)">
    <defs>
     <path id="DejaVuSans-62" d="M 3116 1747 
Q 3116 2381 2855 2742 
Q 2594 3103 2138 3103 
Q 1681 3103 1420 2742 
Q 1159 2381 1159 1747 
Q 1159 1113 1420 752 
Q 1681 391 2138 391 
Q 2594 391 2855 752 
Q 3116 1113 3116 1747 
z
M 1159 2969 
Q 1341 3281 1617 3432 
Q 1894 3584 2278 3584 
Q 2916 3584 3314 3078 
Q 3713 2572 3713 1747 
Q 3713 922 3314 415 
Q 2916 -91 2278 -91 
Q 1894 -91 1617 61 
Q 1341 213 1159 525 
L 1159 0 
L 581 0 
L 581 4863 
L 1159 4863 
L 1159 2969 
z
" transform="scale(0.015625)"/>
    </defs>
    <use xlink:href="#DejaVuSans-70"/>
    <use xlink:href="#DejaVuSans-72" x="63.476562"/>
    <use xlink:href="#DejaVuSans-6f" x="102.339844"/>
    <use xlink:href="#DejaVuSans-64" x="163.521484"/>
    <use xlink:href="#DejaVuSans-75" x="226.998047"/>
    <use xlink:href="#DejaVuSans-63" x="290.376953"/>
    <use xlink:href="#DejaVuSans-65" x="345.357422"/>
    <use xlink:href="#DejaVuSans-64" x="406.880859"/>
    <use xlink:href="#DejaVuSans-20" x="470.357422"/>
    <use xlink:href="#DejaVuSans-62" x="502.144531"/>
    <use xlink:href="#DejaVuSans-79" x="565.621094"/>
    <use xlink:href="#DejaVuSans-20" x="624.800781"/>
    <use xlink:href="#DejaVuSans-73" x="656.587891"/>
    <use xlink:href="#DejaVuSans-69" x="708.6875"/>
    <use xlink:href="#DejaVuSans-6e" x="736.470703"/>
    <use xlink:href="#DejaVuSans-67" x="799.849609"/>
    <use xlink:href="#DejaVuSans-6c" x="863.326172"/>
    <use xlink:href="#DejaVuSans-65" x="891.109375"/>
    <use xlink:href="#DejaVuSans-20" x="952.632812"/>
    <use xlink:href="#DejaVuSans-69" x="984.419922"/>
    <use xlink:href="#DejaVuSans-6e" x="1012.203125"/>
    <use xlink:href="#DejaVuSans-66" x="1075.582031"/>
    <use xlink:href="#DejaVuSans-65" x="1110.787109"/>
    <use xlink:href="#DejaVuSans-63" x="1172.310547"/>
    <use xlink:href="#DejaVuSans-74" x="1227.291016"/>
    <use xlink:href="#DejaVuSans-65" x="1266.5"/>
    <use xlink:href="#DejaVuSans-64" x="1328.023438"/>
    <use xlink:href="#DejaVuSans-20" x="1391.5"/>
    <use xlink:href="#DejaVuSans-63" x="1423.287109"/>
    <use xlink:href="#DejaVuSans-65" x="1478.267578"/>
    <use xlink:href="#DejaVuSans-6c" x="1539.791016"/>
    <use xlink:href="#DejaVuSans-6c" x="1567.574219"/>
    <use xlink:href="#DejaVuSans-73" x="1595.357422"/>
   </g>
   <!--  -->
   <g transform="translate(138.949437 42.809)scale(0.14 -0.14)"/>
   <!-- Low MOI -->
   <g transform="translate(109.324125 55.294594)scale(0.14 -0.14)">
    <defs>
     <path id="DejaVuSans-4c" d="M 628 4666 
L 1259 4666 
L 1259 531 
L 3531 531 
L 3531 0 
L 628 0 
L 628 4666 
z
" transform="scale(0.015625)"/>
     <path id="DejaVuSans-77" d="M 269 3500 
L 844 3500 
L 1563 769 
L 2278 3500 
L 2956 3500 
L 3675 769 
L 4391 3500 
L 4966 3500 
L 4050 0 
L 3372 0 
L 2619 2869 
L 1863 0 
L 1184 0 
L 269 3500 
z
" transform="scale(0.015625)"/>
     <path id="DejaVuSans-4f" d="M 2522 4238 
Q 1834 4238 1429 3725 
Q 1025 3213 1025 2328 
Q 1025 1447 1429 934 
Q 1834 422 2522 422 
Q 3209 422 3611 934 
Q 4013 1447 4013 2328 
Q 4013 3213 3611 3725 
Q 3209 4238 2522 4238 
z
M 2522 4750 
Q 3503 4750 4090 4092 
Q 4678 3434 4678 2328 
Q 4678 1225 4090 567 
Q 3503 -91 2522 -91 
Q 1538 -91 948 565 
Q 359 1222 359 2328 
Q 359 3434 948 4092 
Q 1538 4750 2522 4750 
z
" transform="scale(0.015625)"/>
     <path id="DejaVuSans-49" d="M 628 4666 
L 1259 4666 
L 1259 0 
L 628 0 
L 628 4666 
z
" transform="scale(0.015625)"/>
    </defs>
    <use xlink:href="#DejaVuSans-4c"/>
    <use xlink:href="#DejaVuSans-6f" x="53.962891"/>
    <use xlink:href="#DejaVuSans-77" x="115.144531"/>
    <use xlink:href="#DejaVuSans-20" x="196.931641"/>
    <use xlink:href="#DejaVuSans-4d" x="228.71875"/>
    <use xlink:href="#DejaVuSans-4f" x="314.998047"/>
    <use xlink:href="#DejaVuSans-49" x="393.708984"/>
   </g>
  </g>
 </g>
 <defs>
  <clipPath id="p038fffef92">
   <rect x="57.949438" y="64.408931" width="167.4" height="166.32"/>
  </clipPath>
  <clipPath id="p50ed9e608d">
   <path d="M 244.749437 144.575806 
L 244.749437 128.735806 
L 260.589437 128.735806 
L 260.589437 144.575806 
"/>
  </clipPath>
  <clipPath id="p6e99baa3c6">
   <path d="M 244.749437 162.415806 
L 244.749437 146.575806 
L 260.589437 146.575806 
L 260.589437 162.415806 
"/>
  </clipPath>
  <clipPath id="p83e4a671d0">
   <path d="M 244.749437 180.255806 
L 244.749437 164.415806 
L 260.589437 164.415806 
L 260.589437 180.255806 
"/>
  </clipPath>
 </defs>
</svg>
