<?xml version="1.0" encoding="utf-8" standalone="no"?>
<!DOCTYPE svg PUBLIC "-//W3C//DTD SVG 1.1//EN"
  "http://www.w3.org/Graphics/SVG/1.1/DTD/svg11.dtd">
<svg xmlns:xlink="http://www.w3.org/1999/xlink" width="416.483082pt" height="241.814995pt" viewBox="0 0 416.483082 241.814995" xmlns="http://www.w3.org/2000/svg" version="1.1">
 <metadata>
  <rdf:RDF xmlns:dc="http://purl.org/dc/elements/1.1/" xmlns:cc="http://creativecommons.org/ns#" xmlns:rdf="http://www.w3.org/1999/02/22-rdf-syntax-ns#">
   <cc:Work>
    <dc:type rdf:resource="http://purl.org/dc/dcmitype/StillImage"/>
    <dc:date>2022-12-03T20:00:01.387605</dc:date>
    <dc:format>image/svg+xml</dc:format>
    <dc:creator>
     <cc:Agent>
      <dc:title>Matplotlib v3.5.2, https://matplotlib.org/</dc:title>
     </cc:Agent>
    </dc:creator>
   </cc:Work>
  </rdf:RDF>
 </metadata>
 <defs>
  <style type="text/css">*{stroke-linejoin: round; stroke-linecap: butt}</style>
 </defs>
 <g id="figure_1">
  <g id="patch_1">
   <path d="M -0 241.814995 
L 416.483082 241.814995 
L 416.483082 0 
L -0 0 
z
" style="fill: #ffffff; stroke: #ffffff; stroke-linejoin: miter"/>
  </g>
  <g id="axes_1">
   <g id="patch_2">
    <path d="M 57.949438 202.037495 
L 225.349437 202.037495 
L 225.349437 35.717495 
L 57.949438 35.717495 
z
" style="fill: #ffffff"/>
   </g>
   <g id="matplotlib.axis_1">
    <g id="xtick_1">
     <g id="line2d_1">
      <path d="M 65.558528 202.037495 
" style="fill: none; stroke: #000000; stroke-width: 1.5"/>
      <defs>
       <path id="mcaeddb3768" d="M 0 0 
L 0 2.75 
" style="stroke: #333333"/>
      </defs>
      <g>
       <use xlink:href="#mcaeddb3768" x="65.558528" y="202.037495" style="stroke: #333333"/>
      </g>
     </g>
     <g id="text_1">
      <!-- 0 -->
      <g transform="translate(61.741028 216.10562)scale(0.12 -0.12)">
       <defs>
        <path id="DejaVuSans-30" d="M 2034 4250 
Q 1547 4250 1301 3770 
Q 1056 3291 1056 2328 
Q 1056 1369 1301 889 
Q 1547 409 2034 409 
Q 2525 409 2770 889 
Q 3016 1369 3016 2328 
Q 3016 3291 2770 3770 
Q 2525 4250 2034 4250 
z
M 2034 4750 
Q 2819 4750 3233 4129 
Q 3647 3509 3647 2328 
Q 3647 1150 3233 529 
Q 2819 -91 2034 -91 
Q 1250 -91 836 529 
Q 422 1150 422 2328 
Q 422 3509 836 4129 
Q 1250 4750 2034 4750 
z
" transform="scale(0.015625)"/>
       </defs>
       <use xlink:href="#DejaVuSans-30"/>
      </g>
     </g>
    </g>
    <g id="xtick_2">
     <g id="line2d_2">
      <path d="M 134.732082 202.037495 
" style="fill: none; stroke: #000000; stroke-width: 1.5"/>
      <g>
       <use xlink:href="#mcaeddb3768" x="134.732082" y="202.037495" style="stroke: #333333"/>
      </g>
     </g>
     <g id="text_2">
      <!-- 0.1 -->
      <g transform="translate(125.190207 216.10562)scale(0.12 -0.12)">
       <defs>
        <path id="DejaVuSans-2e" d="M 684 794 
L 1344 794 
L 1344 0 
L 684 0 
L 684 794 
z
" transform="scale(0.015625)"/>
        <path id="DejaVuSans-31" d="M 794 531 
L 1825 531 
L 1825 4091 
L 703 3866 
L 703 4441 
L 1819 4666 
L 2450 4666 
L 2450 531 
L 3481 531 
L 3481 0 
L 794 0 
L 794 531 
z
" transform="scale(0.015625)"/>
       </defs>
       <use xlink:href="#DejaVuSans-30"/>
       <use xlink:href="#DejaVuSans-2e" x="63.623047"/>
       <use xlink:href="#DejaVuSans-31" x="95.410156"/>
      </g>
     </g>
    </g>
    <g id="xtick_3">
     <g id="line2d_3">
      <path d="M 203.905636 202.037495 
" style="fill: none; stroke: #000000; stroke-width: 1.5"/>
      <g>
       <use xlink:href="#mcaeddb3768" x="203.905636" y="202.037495" style="stroke: #333333"/>
      </g>
     </g>
     <g id="text_3">
      <!-- 0.2 -->
      <g transform="translate(194.363761 216.10562)scale(0.12 -0.12)">
       <defs>
        <path id="DejaVuSans-32" d="M 1228 531 
L 3431 531 
L 3431 0 
L 469 0 
L 469 531 
Q 828 903 1448 1529 
Q 2069 2156 2228 2338 
Q 2531 2678 2651 2914 
Q 2772 3150 2772 3378 
Q 2772 3750 2511 3984 
Q 2250 4219 1831 4219 
Q 1534 4219 1204 4116 
Q 875 4013 500 3803 
L 500 4441 
Q 881 4594 1212 4672 
Q 1544 4750 1819 4750 
Q 2544 4750 2975 4387 
Q 3406 4025 3406 3419 
Q 3406 3131 3298 2873 
Q 3191 2616 2906 2266 
Q 2828 2175 2409 1742 
Q 1991 1309 1228 531 
z
" transform="scale(0.015625)"/>
       </defs>
       <use xlink:href="#DejaVuSans-30"/>
       <use xlink:href="#DejaVuSans-2e" x="63.623047"/>
       <use xlink:href="#DejaVuSans-32" x="95.410156"/>
      </g>
     </g>
    </g>
    <g id="xtick_4"/>
    <g id="xtick_5"/>
    <g id="text_4">
     <!-- fraction physical progeny -->
     <g transform="translate(62.8235 232.11937)scale(0.12 -0.12)">
      <defs>
       <path id="DejaVuSans-66" d="M 2375 4863 
L 2375 4384 
L 1825 4384 
Q 1516 4384 1395 4259 
Q 1275 4134 1275 3809 
L 1275 3500 
L 2222 3500 
L 2222 3053 
L 1275 3053 
L 1275 0 
L 697 0 
L 697 3053 
L 147 3053 
L 147 3500 
L 697 3500 
L 697 3744 
Q 697 4328 969 4595 
Q 1241 4863 1831 4863 
L 2375 4863 
z
" transform="scale(0.015625)"/>
       <path id="DejaVuSans-72" d="M 2631 2963 
Q 2534 3019 2420 3045 
Q 2306 3072 2169 3072 
Q 1681 3072 1420 2755 
Q 1159 2438 1159 1844 
L 1159 0 
L 581 0 
L 581 3500 
L 1159 3500 
L 1159 2956 
Q 1341 3275 1631 3429 
Q 1922 3584 2338 3584 
Q 2397 3584 2469 3576 
Q 2541 3569 2628 3553 
L 2631 2963 
z
" transform="scale(0.015625)"/>
       <path id="DejaVuSans-61" d="M 2194 1759 
Q 1497 1759 1228 1600 
Q 959 1441 959 1056 
Q 959 750 1161 570 
Q 1363 391 1709 391 
Q 2188 391 2477 730 
Q 2766 1069 2766 1631 
L 2766 1759 
L 2194 1759 
z
M 3341 1997 
L 3341 0 
L 2766 0 
L 2766 531 
Q 2569 213 2275 61 
Q 1981 -91 1556 -91 
Q 1019 -91 701 211 
Q 384 513 384 1019 
Q 384 1609 779 1909 
Q 1175 2209 1959 2209 
L 2766 2209 
L 2766 2266 
Q 2766 2663 2505 2880 
Q 2244 3097 1772 3097 
Q 1472 3097 1187 3025 
Q 903 2953 641 2809 
L 641 3341 
Q 956 3463 1253 3523 
Q 1550 3584 1831 3584 
Q 2591 3584 2966 3190 
Q 3341 2797 3341 1997 
z
" transform="scale(0.015625)"/>
       <path id="DejaVuSans-63" d="M 3122 3366 
L 3122 2828 
Q 2878 2963 2633 3030 
Q 2388 3097 2138 3097 
Q 1578 3097 1268 2742 
Q 959 2388 959 1747 
Q 959 1106 1268 751 
Q 1578 397 2138 397 
Q 2388 397 2633 464 
Q 2878 531 3122 666 
L 3122 134 
Q 2881 22 2623 -34 
Q 2366 -91 2075 -91 
Q 1284 -91 818 406 
Q 353 903 353 1747 
Q 353 2603 823 3093 
Q 1294 3584 2113 3584 
Q 2378 3584 2631 3529 
Q 2884 3475 3122 3366 
z
" transform="scale(0.015625)"/>
       <path id="DejaVuSans-74" d="M 1172 4494 
L 1172 3500 
L 2356 3500 
L 2356 3053 
L 1172 3053 
L 1172 1153 
Q 1172 725 1289 603 
Q 1406 481 1766 481 
L 2356 481 
L 2356 0 
L 1766 0 
Q 1100 0 847 248 
Q 594 497 594 1153 
L 594 3053 
L 172 3053 
L 172 3500 
L 594 3500 
L 594 4494 
L 1172 4494 
z
" transform="scale(0.015625)"/>
       <path id="DejaVuSans-69" d="M 603 3500 
L 1178 3500 
L 1178 0 
L 603 0 
L 603 3500 
z
M 603 4863 
L 1178 4863 
L 1178 4134 
L 603 4134 
L 603 4863 
z
" transform="scale(0.015625)"/>
       <path id="DejaVuSans-6f" d="M 1959 3097 
Q 1497 3097 1228 2736 
Q 959 2375 959 1747 
Q 959 1119 1226 758 
Q 1494 397 1959 397 
Q 2419 397 2687 759 
Q 2956 1122 2956 1747 
Q 2956 2369 2687 2733 
Q 2419 3097 1959 3097 
z
M 1959 3584 
Q 2709 3584 3137 3096 
Q 3566 2609 3566 1747 
Q 3566 888 3137 398 
Q 2709 -91 1959 -91 
Q 1206 -91 779 398 
Q 353 888 353 1747 
Q 353 2609 779 3096 
Q 1206 3584 1959 3584 
z
" transform="scale(0.015625)"/>
       <path id="DejaVuSans-6e" d="M 3513 2113 
L 3513 0 
L 2938 0 
L 2938 2094 
Q 2938 2591 2744 2837 
Q 2550 3084 2163 3084 
Q 1697 3084 1428 2787 
Q 1159 2491 1159 1978 
L 1159 0 
L 581 0 
L 581 3500 
L 1159 3500 
L 1159 2956 
Q 1366 3272 1645 3428 
Q 1925 3584 2291 3584 
Q 2894 3584 3203 3211 
Q 3513 2838 3513 2113 
z
" transform="scale(0.015625)"/>
       <path id="DejaVuSans-20" transform="scale(0.015625)"/>
       <path id="DejaVuSans-70" d="M 1159 525 
L 1159 -1331 
L 581 -1331 
L 581 3500 
L 1159 3500 
L 1159 2969 
Q 1341 3281 1617 3432 
Q 1894 3584 2278 3584 
Q 2916 3584 3314 3078 
Q 3713 2572 3713 1747 
Q 3713 922 3314 415 
Q 2916 -91 2278 -91 
Q 1894 -91 1617 61 
Q 1341 213 1159 525 
z
M 3116 1747 
Q 3116 2381 2855 2742 
Q 2594 3103 2138 3103 
Q 1681 3103 1420 2742 
Q 1159 2381 1159 1747 
Q 1159 1113 1420 752 
Q 1681 391 2138 391 
Q 2594 391 2855 752 
Q 3116 1113 3116 1747 
z
" transform="scale(0.015625)"/>
       <path id="DejaVuSans-68" d="M 3513 2113 
L 3513 0 
L 2938 0 
L 2938 2094 
Q 2938 2591 2744 2837 
Q 2550 3084 2163 3084 
Q 1697 3084 1428 2787 
Q 1159 2491 1159 1978 
L 1159 0 
L 581 0 
L 581 4863 
L 1159 4863 
L 1159 2956 
Q 1366 3272 1645 3428 
Q 1925 3584 2291 3584 
Q 2894 3584 3203 3211 
Q 3513 2838 3513 2113 
z
" transform="scale(0.015625)"/>
       <path id="DejaVuSans-79" d="M 2059 -325 
Q 1816 -950 1584 -1140 
Q 1353 -1331 966 -1331 
L 506 -1331 
L 506 -850 
L 844 -850 
Q 1081 -850 1212 -737 
Q 1344 -625 1503 -206 
L 1606 56 
L 191 3500 
L 800 3500 
L 1894 763 
L 2988 3500 
L 3597 3500 
L 2059 -325 
z
" transform="scale(0.015625)"/>
       <path id="DejaVuSans-73" d="M 2834 3397 
L 2834 2853 
Q 2591 2978 2328 3040 
Q 2066 3103 1784 3103 
Q 1356 3103 1142 2972 
Q 928 2841 928 2578 
Q 928 2378 1081 2264 
Q 1234 2150 1697 2047 
L 1894 2003 
Q 2506 1872 2764 1633 
Q 3022 1394 3022 966 
Q 3022 478 2636 193 
Q 2250 -91 1575 -91 
Q 1294 -91 989 -36 
Q 684 19 347 128 
L 347 722 
Q 666 556 975 473 
Q 1284 391 1588 391 
Q 1994 391 2212 530 
Q 2431 669 2431 922 
Q 2431 1156 2273 1281 
Q 2116 1406 1581 1522 
L 1381 1569 
Q 847 1681 609 1914 
Q 372 2147 372 2553 
Q 372 3047 722 3315 
Q 1072 3584 1716 3584 
Q 2034 3584 2315 3537 
Q 2597 3491 2834 3397 
z
" transform="scale(0.015625)"/>
       <path id="DejaVuSans-6c" d="M 603 4863 
L 1178 4863 
L 1178 0 
L 603 0 
L 603 4863 
z
" transform="scale(0.015625)"/>
       <path id="DejaVuSans-67" d="M 2906 1791 
Q 2906 2416 2648 2759 
Q 2391 3103 1925 3103 
Q 1463 3103 1205 2759 
Q 947 2416 947 1791 
Q 947 1169 1205 825 
Q 1463 481 1925 481 
Q 2391 481 2648 825 
Q 2906 1169 2906 1791 
z
M 3481 434 
Q 3481 -459 3084 -895 
Q 2688 -1331 1869 -1331 
Q 1566 -1331 1297 -1286 
Q 1028 -1241 775 -1147 
L 775 -588 
Q 1028 -725 1275 -790 
Q 1522 -856 1778 -856 
Q 2344 -856 2625 -561 
Q 2906 -266 2906 331 
L 2906 616 
Q 2728 306 2450 153 
Q 2172 0 1784 0 
Q 1141 0 747 490 
Q 353 981 353 1791 
Q 353 2603 747 3093 
Q 1141 3584 1784 3584 
Q 2172 3584 2450 3431 
Q 2728 3278 2906 2969 
L 2906 3500 
L 3481 3500 
L 3481 434 
z
" transform="scale(0.015625)"/>
       <path id="DejaVuSans-65" d="M 3597 1894 
L 3597 1613 
L 953 1613 
Q 991 1019 1311 708 
Q 1631 397 2203 397 
Q 2534 397 2845 478 
Q 3156 559 3463 722 
L 3463 178 
Q 3153 47 2828 -22 
Q 2503 -91 2169 -91 
Q 1331 -91 842 396 
Q 353 884 353 1716 
Q 353 2575 817 3079 
Q 1281 3584 2069 3584 
Q 2775 3584 3186 3129 
Q 3597 2675 3597 1894 
z
M 3022 2063 
Q 3016 2534 2758 2815 
Q 2500 3097 2075 3097 
Q 1594 3097 1305 2825 
Q 1016 2553 972 2059 
L 3022 2063 
z
" transform="scale(0.015625)"/>
      </defs>
      <use xlink:href="#DejaVuSans-66"/>
      <use xlink:href="#DejaVuSans-72" x="35.205078"/>
      <use xlink:href="#DejaVuSans-61" x="76.318359"/>
      <use xlink:href="#DejaVuSans-63" x="137.597656"/>
      <use xlink:href="#DejaVuSans-74" x="192.578125"/>
      <use xlink:href="#DejaVuSans-69" x="231.787109"/>
      <use xlink:href="#DejaVuSans-6f" x="259.570312"/>
      <use xlink:href="#DejaVuSans-6e" x="320.751953"/>
      <use xlink:href="#DejaVuSans-20" x="384.130859"/>
      <use xlink:href="#DejaVuSans-70" x="415.917969"/>
      <use xlink:href="#DejaVuSans-68" x="479.394531"/>
      <use xlink:href="#DejaVuSans-79" x="542.773438"/>
      <use xlink:href="#DejaVuSans-73" x="601.953125"/>
      <use xlink:href="#DejaVuSans-69" x="654.052734"/>
      <use xlink:href="#DejaVuSans-63" x="681.835938"/>
      <use xlink:href="#DejaVuSans-61" x="736.816406"/>
      <use xlink:href="#DejaVuSans-6c" x="798.095703"/>
      <use xlink:href="#DejaVuSans-20" x="825.878906"/>
      <use xlink:href="#DejaVuSans-70" x="857.666016"/>
      <use xlink:href="#DejaVuSans-72" x="921.142578"/>
      <use xlink:href="#DejaVuSans-6f" x="960.005859"/>
      <use xlink:href="#DejaVuSans-67" x="1021.1875"/>
      <use xlink:href="#DejaVuSans-65" x="1084.664062"/>
      <use xlink:href="#DejaVuSans-6e" x="1146.1875"/>
      <use xlink:href="#DejaVuSans-79" x="1209.566406"/>
     </g>
    </g>
   </g>
   <g id="matplotlib.axis_2">
    <g id="ytick_1">
     <g id="line2d_4">
      <path d="M 57.949438 194.477495 
" style="fill: none; stroke: #000000; stroke-width: 1.5"/>
      <defs>
       <path id="m1752291138" d="M 0 0 
L -2.75 0 
" style="stroke: #333333"/>
      </defs>
      <g>
       <use xlink:href="#m1752291138" x="57.949438" y="194.477495" style="stroke: #333333"/>
      </g>
     </g>
     <g id="text_5">
      <!-- 0 -->
      <g transform="translate(45.364438 197.788745)scale(0.12 -0.12)">
       <use xlink:href="#DejaVuSans-30"/>
      </g>
     </g>
    </g>
    <g id="ytick_2">
     <g id="line2d_5">
      <path d="M 57.949438 125.750222 
" style="fill: none; stroke: #000000; stroke-width: 1.5"/>
      <g>
       <use xlink:href="#m1752291138" x="57.949438" y="125.750222" style="stroke: #333333"/>
      </g>
     </g>
     <g id="text_6">
      <!-- 0.1 -->
      <g transform="translate(33.915688 129.061472)scale(0.12 -0.12)">
       <use xlink:href="#DejaVuSans-30"/>
       <use xlink:href="#DejaVuSans-2e" x="63.623047"/>
       <use xlink:href="#DejaVuSans-31" x="95.410156"/>
      </g>
     </g>
    </g>
    <g id="ytick_3">
     <g id="line2d_6">
      <path d="M 57.949438 57.02295 
" style="fill: none; stroke: #000000; stroke-width: 1.5"/>
      <g>
       <use xlink:href="#m1752291138" x="57.949438" y="57.02295" style="stroke: #333333"/>
      </g>
     </g>
     <g id="text_7">
      <!-- 0.2 -->
      <g transform="translate(33.915688 60.3342)scale(0.12 -0.12)">
       <use xlink:href="#DejaVuSans-30"/>
       <use xlink:href="#DejaVuSans-2e" x="63.623047"/>
       <use xlink:href="#DejaVuSans-32" x="95.410156"/>
      </g>
     </g>
    </g>
    <g id="ytick_4"/>
    <g id="ytick_5"/>
    <g id="text_8">
     <!-- fraction  -->
     <g transform="translate(16.318125 142.75187)rotate(-90)scale(0.12 -0.12)">
      <use xlink:href="#DejaVuSans-66"/>
      <use xlink:href="#DejaVuSans-72" x="35.205078"/>
      <use xlink:href="#DejaVuSans-61" x="76.318359"/>
      <use xlink:href="#DejaVuSans-63" x="137.597656"/>
      <use xlink:href="#DejaVuSans-74" x="192.578125"/>
      <use xlink:href="#DejaVuSans-69" x="231.787109"/>
      <use xlink:href="#DejaVuSans-6f" x="259.570312"/>
      <use xlink:href="#DejaVuSans-6e" x="320.751953"/>
      <use xlink:href="#DejaVuSans-20" x="384.130859"/>
     </g>
     <!-- infectious progeny -->
     <g transform="translate(27.020063 173.56187)rotate(-90)scale(0.12 -0.12)">
      <defs>
       <path id="DejaVuSans-75" d="M 544 1381 
L 544 3500 
L 1119 3500 
L 1119 1403 
Q 1119 906 1312 657 
Q 1506 409 1894 409 
Q 2359 409 2629 706 
Q 2900 1003 2900 1516 
L 2900 3500 
L 3475 3500 
L 3475 0 
L 2900 0 
L 2900 538 
Q 2691 219 2414 64 
Q 2138 -91 1772 -91 
Q 1169 -91 856 284 
Q 544 659 544 1381 
z
M 1991 3584 
L 1991 3584 
z
" transform="scale(0.015625)"/>
      </defs>
      <use xlink:href="#DejaVuSans-69"/>
      <use xlink:href="#DejaVuSans-6e" x="27.783203"/>
      <use xlink:href="#DejaVuSans-66" x="91.162109"/>
      <use xlink:href="#DejaVuSans-65" x="126.367188"/>
      <use xlink:href="#DejaVuSans-63" x="187.890625"/>
      <use xlink:href="#DejaVuSans-74" x="242.871094"/>
      <use xlink:href="#DejaVuSans-69" x="282.080078"/>
      <use xlink:href="#DejaVuSans-6f" x="309.863281"/>
      <use xlink:href="#DejaVuSans-75" x="371.044922"/>
      <use xlink:href="#DejaVuSans-73" x="434.423828"/>
      <use xlink:href="#DejaVuSans-20" x="486.523438"/>
      <use xlink:href="#DejaVuSans-70" x="518.310547"/>
      <use xlink:href="#DejaVuSans-72" x="581.787109"/>
      <use xlink:href="#DejaVuSans-6f" x="620.650391"/>
      <use xlink:href="#DejaVuSans-67" x="681.832031"/>
      <use xlink:href="#DejaVuSans-65" x="745.308594"/>
      <use xlink:href="#DejaVuSans-6e" x="806.832031"/>
      <use xlink:href="#DejaVuSans-79" x="870.210938"/>
     </g>
    </g>
   </g>
   <g id="PathCollection_1">
    <path d="M 65.683013 198.3197 
C 66.740649 198.3197 67.755109 197.899497 68.50297 197.151636 
C 69.250831 196.403775 69.671034 195.389315 69.671034 194.331679 
C 69.671034 193.274044 69.250831 192.259584 68.50297 191.511722 
C 67.755109 190.763861 66.740649 190.343658 65.683013 190.343658 
C 64.625377 190.343658 63.610918 190.763861 62.863056 191.511722 
C 62.115195 192.259584 61.694992 193.274044 61.694992 194.331679 
C 61.694992 195.389315 62.115195 196.403775 62.863056 197.151636 
C 63.610918 197.899497 64.625377 198.3197 65.683013 198.3197 
z
" clip-path="url(#p752c1b38f3)" style="fill: #999999; fill-opacity: 0.4; stroke: #999999; stroke-opacity: 0.4; stroke-width: 0.886227"/>
    <path d="M 67.293546 198.161133 
C 68.351181 198.161133 69.365641 197.74093 70.113503 196.993068 
C 70.861364 196.245207 71.281567 195.230747 71.281567 194.173111 
C 71.281567 193.115476 70.861364 192.101016 70.113503 191.353155 
C 69.365641 190.605293 68.351181 190.18509 67.293546 190.18509 
C 66.23591 190.18509 65.22145 190.605293 64.473589 191.353155 
C 63.725728 192.101016 63.305525 193.115476 63.305525 194.173111 
C 63.305525 195.230747 63.725728 196.245207 64.473589 196.993068 
C 65.22145 197.74093 66.23591 198.161133 67.293546 198.161133 
z
" clip-path="url(#p752c1b38f3)" style="fill: #ff5349; fill-opacity: 0.4; stroke: #ff5349; stroke-opacity: 0.4; stroke-width: 0.886227"/>
    <path d="M 65.89232 195.79951 
C 66.949955 195.79951 67.964415 195.379307 68.712276 194.631446 
C 69.460138 193.883585 69.880341 192.869125 69.880341 191.811489 
C 69.880341 190.753854 69.460138 189.739394 68.712276 188.991533 
C 67.964415 188.243671 66.949955 187.823468 65.89232 187.823468 
C 64.834684 187.823468 63.820224 188.243671 63.072363 188.991533 
C 62.324501 189.739394 61.904298 190.753854 61.904298 191.811489 
C 61.904298 192.869125 62.324501 193.883585 63.072363 194.631446 
C 63.820224 195.379307 64.834684 195.79951 65.89232 195.79951 
z
" clip-path="url(#p752c1b38f3)" style="fill: #ff5349; fill-opacity: 0.4; stroke: #ff5349; stroke-opacity: 0.4; stroke-width: 0.886227"/>
    <path d="M 67.660889 198.135754 
C 68.718525 198.135754 69.732985 197.715551 70.480846 196.96769 
C 71.228707 196.219828 71.648911 195.205368 71.648911 194.147733 
C 71.648911 193.090097 71.228707 192.075637 70.480846 191.327776 
C 69.732985 190.579915 68.718525 190.159712 67.660889 190.159712 
C 66.603254 190.159712 65.588794 190.579915 64.840933 191.327776 
C 64.093071 192.075637 63.672868 193.090097 63.672868 194.147733 
C 63.672868 195.205368 64.093071 196.219828 64.840933 196.96769 
C 65.588794 197.715551 66.603254 198.135754 67.660889 198.135754 
z
" clip-path="url(#p752c1b38f3)" style="fill: #999999; fill-opacity: 0.4; stroke: #999999; stroke-opacity: 0.4; stroke-width: 0.886227"/>
    <path d="M 65.734576 198.259301 
C 66.792212 198.259301 67.806672 197.839098 68.554533 197.091237 
C 69.302394 196.343376 69.722597 195.328916 69.722597 194.27128 
C 69.722597 193.213645 69.302394 192.199185 68.554533 191.451323 
C 67.806672 190.703462 66.792212 190.283259 65.734576 190.283259 
C 64.676941 190.283259 63.662481 190.703462 62.914619 191.451323 
C 62.166758 192.199185 61.746555 193.213645 61.746555 194.27128 
C 61.746555 195.328916 62.166758 196.343376 62.914619 197.091237 
C 63.662481 197.839098 64.676941 198.259301 65.734576 198.259301 
z
" clip-path="url(#p752c1b38f3)" style="fill: #999999; fill-opacity: 0.4; stroke: #999999; stroke-opacity: 0.4; stroke-width: 0.886227"/>
    <path d="M 65.683013 198.3197 
C 66.740649 198.3197 67.755109 197.899497 68.50297 197.151636 
C 69.250831 196.403775 69.671034 195.389315 69.671034 194.331679 
C 69.671034 193.274044 69.250831 192.259584 68.50297 191.511722 
C 67.755109 190.763861 66.740649 190.343658 65.683013 190.343658 
C 64.625377 190.343658 63.610918 190.763861 62.863056 191.511722 
C 62.115195 192.259584 61.694992 193.274044 61.694992 194.331679 
C 61.694992 195.389315 62.115195 196.403775 62.863056 197.151636 
C 63.610918 197.899497 64.625377 198.3197 65.683013 198.3197 
z
" clip-path="url(#p752c1b38f3)" style="fill: #ff5349; fill-opacity: 0.4; stroke: #ff5349; stroke-opacity: 0.4; stroke-width: 0.886227"/>
    <path d="M 66.969876 198.04041 
C 68.027511 198.04041 69.041971 197.620206 69.789833 196.872345 
C 70.537694 196.124484 70.957897 195.110024 70.957897 194.052388 
C 70.957897 192.994753 70.537694 191.980293 69.789833 191.232432 
C 69.041971 190.48457 68.027511 190.064367 66.969876 190.064367 
C 65.91224 190.064367 64.89778 190.48457 64.149919 191.232432 
C 63.402058 191.980293 62.981855 192.994753 62.981855 194.052388 
C 62.981855 195.110024 63.402058 196.124484 64.149919 196.872345 
C 64.89778 197.620206 65.91224 198.04041 66.969876 198.04041 
z
" clip-path="url(#p752c1b38f3)" style="fill: #999999; fill-opacity: 0.4; stroke: #999999; stroke-opacity: 0.4; stroke-width: 0.886227"/>
    <path d="M 90.421925 198.169362 
C 91.479561 198.169362 92.494021 197.749159 93.241882 197.001298 
C 93.989743 196.253436 94.409946 195.238977 94.409946 194.181341 
C 94.409946 193.123705 93.989743 192.109245 93.241882 191.361384 
C 92.494021 190.613523 91.479561 190.19332 90.421925 190.19332 
C 89.364289 190.19332 88.34983 190.613523 87.601968 191.361384 
C 86.854107 192.109245 86.433904 193.123705 86.433904 194.181341 
C 86.433904 195.238977 86.854107 196.253436 87.601968 197.001298 
C 88.34983 197.749159 89.364289 198.169362 90.421925 198.169362 
z
" clip-path="url(#p752c1b38f3)" style="fill: #999999; fill-opacity: 0.4; stroke: #999999; stroke-opacity: 0.4; stroke-width: 0.886227"/>
    <path d="M 69.336684 186.812192 
C 70.39432 186.812192 71.40878 186.391989 72.156641 185.644128 
C 72.904502 184.896267 73.324705 183.881807 73.324705 182.824171 
C 73.324705 181.766536 72.904502 180.752076 72.156641 180.004214 
C 71.40878 179.256353 70.39432 178.83615 69.336684 178.83615 
C 68.279049 178.83615 67.264589 179.256353 66.516727 180.004214 
C 65.768866 180.752076 65.348663 181.766536 65.348663 182.824171 
C 65.348663 183.881807 65.768866 184.896267 66.516727 185.644128 
C 67.264589 186.391989 68.279049 186.812192 69.336684 186.812192 
z
" clip-path="url(#p752c1b38f3)" style="fill: #ff5349; fill-opacity: 0.4; stroke: #ff5349; stroke-opacity: 0.4; stroke-width: 0.886227"/>
    <path d="M 75.056172 193.372325 
C 76.113807 193.372325 77.128267 192.952122 77.876129 192.204261 
C 78.62399 191.456399 79.044193 190.44194 79.044193 189.384304 
C 79.044193 188.326668 78.62399 187.312208 77.876129 186.564347 
C 77.128267 185.816486 76.113807 185.396283 75.056172 185.396283 
C 73.998536 185.396283 72.984076 185.816486 72.236215 186.564347 
C 71.488354 187.312208 71.068151 188.326668 71.068151 189.384304 
C 71.068151 190.44194 71.488354 191.456399 72.236215 192.204261 
C 72.984076 192.952122 73.998536 193.372325 75.056172 193.372325 
z
" clip-path="url(#p752c1b38f3)" style="fill: #999999; fill-opacity: 0.4; stroke: #999999; stroke-opacity: 0.4; stroke-width: 0.886227"/>
    <path d="M 65.683013 198.3197 
C 66.740649 198.3197 67.755109 197.899497 68.50297 197.151636 
C 69.250831 196.403775 69.671034 195.389315 69.671034 194.331679 
C 69.671034 193.274044 69.250831 192.259584 68.50297 191.511722 
C 67.755109 190.763861 66.740649 190.343658 65.683013 190.343658 
C 64.625377 190.343658 63.610918 190.763861 62.863056 191.511722 
C 62.115195 192.259584 61.694992 193.274044 61.694992 194.331679 
C 61.694992 195.389315 62.115195 196.403775 62.863056 197.151636 
C 63.610918 197.899497 64.625377 198.3197 65.683013 198.3197 
z
" clip-path="url(#p752c1b38f3)" style="fill: #999999; fill-opacity: 0.4; stroke: #999999; stroke-opacity: 0.4; stroke-width: 0.886227"/>
    <path d="M 65.734576 198.259301 
C 66.792212 198.259301 67.806672 197.839098 68.554533 197.091237 
C 69.302394 196.343376 69.722597 195.328916 69.722597 194.27128 
C 69.722597 193.213645 69.302394 192.199185 68.554533 191.451323 
C 67.806672 190.703462 66.792212 190.283259 65.734576 190.283259 
C 64.676941 190.283259 63.662481 190.703462 62.914619 191.451323 
C 62.166758 192.199185 61.746555 193.213645 61.746555 194.27128 
C 61.746555 195.328916 62.166758 196.343376 62.914619 197.091237 
C 63.662481 197.839098 64.676941 198.259301 65.734576 198.259301 
z
" clip-path="url(#p752c1b38f3)" style="fill: #999999; fill-opacity: 0.4; stroke: #999999; stroke-opacity: 0.4; stroke-width: 0.886227"/>
    <path d="M 98.819454 126.913295 
C 99.877089 126.913295 100.891549 126.493092 101.639411 125.745231 
C 102.387272 124.997369 102.807475 123.982909 102.807475 122.925274 
C 102.807475 121.867638 102.387272 120.853178 101.639411 120.105317 
C 100.891549 119.357456 99.877089 118.937253 98.819454 118.937253 
C 97.761818 118.937253 96.747358 119.357456 95.999497 120.105317 
C 95.251636 120.853178 94.831433 121.867638 94.831433 122.925274 
C 94.831433 123.982909 95.251636 124.997369 95.999497 125.745231 
C 96.747358 126.493092 97.761818 126.913295 98.819454 126.913295 
z
" clip-path="url(#p752c1b38f3)" style="fill: #ff5349; fill-opacity: 0.4; stroke: #ff5349; stroke-opacity: 0.4; stroke-width: 0.886227"/>
    <path d="M 65.683013 198.3197 
C 66.740649 198.3197 67.755109 197.899497 68.50297 197.151636 
C 69.250831 196.403775 69.671034 195.389315 69.671034 194.331679 
C 69.671034 193.274044 69.250831 192.259584 68.50297 191.511722 
C 67.755109 190.763861 66.740649 190.343658 65.683013 190.343658 
C 64.625377 190.343658 63.610918 190.763861 62.863056 191.511722 
C 62.115195 192.259584 61.694992 193.274044 61.694992 194.331679 
C 61.694992 195.389315 62.115195 196.403775 62.863056 197.151636 
C 63.610918 197.899497 64.625377 198.3197 65.683013 198.3197 
z
" clip-path="url(#p752c1b38f3)" style="fill: #ff5349; fill-opacity: 0.4; stroke: #ff5349; stroke-opacity: 0.4; stroke-width: 0.886227"/>
    <path d="M 87.335463 196.333598 
C 88.393098 196.333598 89.407558 195.913395 90.15542 195.165534 
C 90.903281 194.417672 91.323484 193.403213 91.323484 192.345577 
C 91.323484 191.287941 90.903281 190.273481 90.15542 189.52562 
C 89.407558 188.777759 88.393098 188.357556 87.335463 188.357556 
C 86.277827 188.357556 85.263367 188.777759 84.515506 189.52562 
C 83.767645 190.273481 83.347442 191.287941 83.347442 192.345577 
C 83.347442 193.403213 83.767645 194.417672 84.515506 195.165534 
C 85.263367 195.913395 86.277827 196.333598 87.335463 196.333598 
z
" clip-path="url(#p752c1b38f3)" style="fill: #ff5349; fill-opacity: 0.4; stroke: #ff5349; stroke-opacity: 0.4; stroke-width: 0.886227"/>
    <path d="M 65.807498 198.173885 
C 66.865133 198.173885 67.879593 197.753681 68.627454 197.00582 
C 69.375316 196.257959 69.795519 195.243499 69.795519 194.185863 
C 69.795519 193.128228 69.375316 192.113768 68.627454 191.365907 
C 67.879593 190.618045 66.865133 190.197842 65.807498 190.197842 
C 64.749862 190.197842 63.735402 190.618045 62.987541 191.365907 
C 62.23968 192.113768 61.819476 193.128228 61.819476 194.185863 
C 61.819476 195.243499 62.23968 196.257959 62.987541 197.00582 
C 63.735402 197.753681 64.749862 198.173885 65.807498 198.173885 
z
" clip-path="url(#p752c1b38f3)" style="fill: #999999; fill-opacity: 0.4; stroke: #999999; stroke-opacity: 0.4; stroke-width: 0.886227"/>
    <path d="M 76.65275 193.747452 
C 77.710385 193.747452 78.724845 193.327249 79.472707 192.579388 
C 80.220568 191.831526 80.640771 190.817066 80.640771 189.759431 
C 80.640771 188.701795 80.220568 187.687335 79.472707 186.939474 
C 78.724845 186.191613 77.710385 185.77141 76.65275 185.77141 
C 75.595114 185.77141 74.580654 186.191613 73.832793 186.939474 
C 73.084932 187.687335 72.664729 188.701795 72.664729 189.759431 
C 72.664729 190.817066 73.084932 191.831526 73.832793 192.579388 
C 74.580654 193.327249 75.595114 193.747452 76.65275 193.747452 
z
" clip-path="url(#p752c1b38f3)" style="fill: #999999; fill-opacity: 0.4; stroke: #999999; stroke-opacity: 0.4; stroke-width: 0.886227"/>
    <path d="M 83.281318 194.888225 
C 84.338953 194.888225 85.353413 194.468022 86.101274 193.720161 
C 86.849136 192.9723 87.269339 191.95784 87.269339 190.900204 
C 87.269339 189.842569 86.849136 188.828109 86.101274 188.080247 
C 85.353413 187.332386 84.338953 186.912183 83.281318 186.912183 
C 82.223682 186.912183 81.209222 187.332386 80.461361 188.080247 
C 79.7135 188.828109 79.293297 189.842569 79.293297 190.900204 
C 79.293297 191.95784 79.7135 192.9723 80.461361 193.720161 
C 81.209222 194.468022 82.223682 194.888225 83.281318 194.888225 
z
" clip-path="url(#p752c1b38f3)" style="fill: #ff5349; fill-opacity: 0.4; stroke: #ff5349; stroke-opacity: 0.4; stroke-width: 0.886227"/>
    <path d="M 65.734576 198.259301 
C 66.792212 198.259301 67.806672 197.839098 68.554533 197.091237 
C 69.302394 196.343376 69.722597 195.328916 69.722597 194.27128 
C 69.722597 193.213645 69.302394 192.199185 68.554533 191.451323 
C 67.806672 190.703462 66.792212 190.283259 65.734576 190.283259 
C 64.676941 190.283259 63.662481 190.703462 62.914619 191.451323 
C 62.166758 192.199185 61.746555 193.213645 61.746555 194.27128 
C 61.746555 195.328916 62.166758 196.343376 62.914619 197.091237 
C 63.662481 197.839098 64.676941 198.259301 65.734576 198.259301 
z
" clip-path="url(#p752c1b38f3)" style="fill: #999999; fill-opacity: 0.4; stroke: #999999; stroke-opacity: 0.4; stroke-width: 0.886227"/>
    <path d="M 79.308665 186.997681 
C 80.366301 186.997681 81.380761 186.577478 82.128622 185.829617 
C 82.876484 185.081756 83.296687 184.067296 83.296687 183.00966 
C 83.296687 181.952025 82.876484 180.937565 82.128622 180.189704 
C 81.380761 179.441842 80.366301 179.021639 79.308665 179.021639 
C 78.25103 179.021639 77.23657 179.441842 76.488709 180.189704 
C 75.740847 180.937565 75.320644 181.952025 75.320644 183.00966 
C 75.320644 184.067296 75.740847 185.081756 76.488709 185.829617 
C 77.23657 186.577478 78.25103 186.997681 79.308665 186.997681 
z
" clip-path="url(#p752c1b38f3)" style="fill: #ff5349; fill-opacity: 0.4; stroke: #ff5349; stroke-opacity: 0.4; stroke-width: 0.886227"/>
    <path d="M 65.683013 198.3197 
C 66.740649 198.3197 67.755109 197.899497 68.50297 197.151636 
C 69.250831 196.403775 69.671034 195.389315 69.671034 194.331679 
C 69.671034 193.274044 69.250831 192.259584 68.50297 191.511722 
C 67.755109 190.763861 66.740649 190.343658 65.683013 190.343658 
C 64.625377 190.343658 63.610918 190.763861 62.863056 191.511722 
C 62.115195 192.259584 61.694992 193.274044 61.694992 194.331679 
C 61.694992 195.389315 62.115195 196.403775 62.863056 197.151636 
C 63.610918 197.899497 64.625377 198.3197 65.683013 198.3197 
z
" clip-path="url(#p752c1b38f3)" style="fill: #ff5349; fill-opacity: 0.4; stroke: #ff5349; stroke-opacity: 0.4; stroke-width: 0.886227"/>
    <path d="M 69.051789 198.212956 
C 70.109425 198.212956 71.123885 197.792753 71.871746 197.044891 
C 72.619607 196.29703 73.03981 195.28257 73.03981 194.224935 
C 73.03981 193.167299 72.619607 192.152839 71.871746 191.404978 
C 71.123885 190.657116 70.109425 190.236913 69.051789 190.236913 
C 67.994154 190.236913 66.979694 190.657116 66.231832 191.404978 
C 65.483971 192.152839 65.063768 193.167299 65.063768 194.224935 
C 65.063768 195.28257 65.483971 196.29703 66.231832 197.044891 
C 66.979694 197.792753 67.994154 198.212956 69.051789 198.212956 
z
" clip-path="url(#p752c1b38f3)" style="fill: #ff5349; fill-opacity: 0.4; stroke: #ff5349; stroke-opacity: 0.4; stroke-width: 0.886227"/>
    <path d="M 67.57603 198.3197 
C 68.633665 198.3197 69.648125 197.899497 70.395986 197.151636 
C 71.143848 196.403775 71.564051 195.389315 71.564051 194.331679 
C 71.564051 193.274044 71.143848 192.259584 70.395986 191.511722 
C 69.648125 190.763861 68.633665 190.343658 67.57603 190.343658 
C 66.518394 190.343658 65.503934 190.763861 64.756073 191.511722 
C 64.008212 192.259584 63.588008 193.274044 63.588008 194.331679 
C 63.588008 195.389315 64.008212 196.403775 64.756073 197.151636 
C 65.503934 197.899497 66.518394 198.3197 67.57603 198.3197 
z
" clip-path="url(#p752c1b38f3)" style="fill: #ff5349; fill-opacity: 0.4; stroke: #ff5349; stroke-opacity: 0.4; stroke-width: 0.886227"/>
    <path d="M 76.870704 172.211144 
C 77.92834 172.211144 78.942799 171.79094 79.690661 171.043079 
C 80.438522 170.295218 80.858725 169.280758 80.858725 168.223122 
C 80.858725 167.165487 80.438522 166.151027 79.690661 165.403166 
C 78.942799 164.655304 77.92834 164.235101 76.870704 164.235101 
C 75.813068 164.235101 74.798608 164.655304 74.050747 165.403166 
C 73.302886 166.151027 72.882683 167.165487 72.882683 168.223122 
C 72.882683 169.280758 73.302886 170.295218 74.050747 171.043079 
C 74.798608 171.79094 75.813068 172.211144 76.870704 172.211144 
z
" clip-path="url(#p752c1b38f3)" style="fill: #999999; fill-opacity: 0.4; stroke: #999999; stroke-opacity: 0.4; stroke-width: 0.886227"/>
    <path d="M 74.327471 196.085813 
C 75.385107 196.085813 76.399566 195.66561 77.147428 194.917749 
C 77.895289 194.169888 78.315492 193.155428 78.315492 192.097792 
C 78.315492 191.040157 77.895289 190.025697 77.147428 189.277836 
C 76.399566 188.529974 75.385107 188.109771 74.327471 188.109771 
C 73.269835 188.109771 72.255375 188.529974 71.507514 189.277836 
C 70.759653 190.025697 70.33945 191.040157 70.33945 192.097792 
C 70.33945 193.155428 70.759653 194.169888 71.507514 194.917749 
C 72.255375 195.66561 73.269835 196.085813 74.327471 196.085813 
z
" clip-path="url(#p752c1b38f3)" style="fill: #999999; fill-opacity: 0.4; stroke: #999999; stroke-opacity: 0.4; stroke-width: 0.886227"/>
    <path d="M 66.725048 198.259301 
C 67.782683 198.259301 68.797143 197.839098 69.545005 197.091237 
C 70.292866 196.343376 70.713069 195.328916 70.713069 194.27128 
C 70.713069 193.213645 70.292866 192.199185 69.545005 191.451323 
C 68.797143 190.703462 67.782683 190.283259 66.725048 190.283259 
C 65.667412 190.283259 64.652952 190.703462 63.905091 191.451323 
C 63.15723 192.199185 62.737027 193.213645 62.737027 194.27128 
C 62.737027 195.328916 63.15723 196.343376 63.905091 197.091237 
C 64.652952 197.839098 65.667412 198.259301 66.725048 198.259301 
z
" clip-path="url(#p752c1b38f3)" style="fill: #ff5349; fill-opacity: 0.4; stroke: #ff5349; stroke-opacity: 0.4; stroke-width: 0.886227"/>
    <path d="M 65.683013 198.3197 
C 66.740649 198.3197 67.755109 197.899497 68.50297 197.151636 
C 69.250831 196.403775 69.671034 195.389315 69.671034 194.331679 
C 69.671034 193.274044 69.250831 192.259584 68.50297 191.511722 
C 67.755109 190.763861 66.740649 190.343658 65.683013 190.343658 
C 64.625377 190.343658 63.610918 190.763861 62.863056 191.511722 
C 62.115195 192.259584 61.694992 193.274044 61.694992 194.331679 
C 61.694992 195.389315 62.115195 196.403775 62.863056 197.151636 
C 63.610918 197.899497 64.625377 198.3197 65.683013 198.3197 
z
" clip-path="url(#p752c1b38f3)" style="fill: #ff5349; fill-opacity: 0.4; stroke: #ff5349; stroke-opacity: 0.4; stroke-width: 0.886227"/>
    <path d="M 77.984811 137.781457 
C 79.042446 137.781457 80.056906 137.361254 80.804768 136.613393 
C 81.552629 135.865531 81.972832 134.851071 81.972832 133.793436 
C 81.972832 132.7358 81.552629 131.72134 80.804768 130.973479 
C 80.056906 130.225618 79.042446 129.805415 77.984811 129.805415 
C 76.927175 129.805415 75.912715 130.225618 75.164854 130.973479 
C 74.416993 131.72134 73.99679 132.7358 73.99679 133.793436 
C 73.99679 134.851071 74.416993 135.865531 75.164854 136.613393 
C 75.912715 137.361254 76.927175 137.781457 77.984811 137.781457 
z
" clip-path="url(#p752c1b38f3)" style="fill: #ff5349; fill-opacity: 0.4; stroke: #ff5349; stroke-opacity: 0.4; stroke-width: 0.886227"/>
    <path d="M 66.563844 198.173885 
C 67.621479 198.173885 68.635939 197.753681 69.3838 197.00582 
C 70.131662 196.257959 70.551865 195.243499 70.551865 194.185863 
C 70.551865 193.128228 70.131662 192.113768 69.3838 191.365907 
C 68.635939 190.618045 67.621479 190.197842 66.563844 190.197842 
C 65.506208 190.197842 64.491748 190.618045 63.743887 191.365907 
C 62.996026 192.113768 62.575822 193.128228 62.575822 194.185863 
C 62.575822 195.243499 62.996026 196.257959 63.743887 197.00582 
C 64.491748 197.753681 65.506208 198.173885 66.563844 198.173885 
z
" clip-path="url(#p752c1b38f3)" style="fill: #999999; fill-opacity: 0.4; stroke: #999999; stroke-opacity: 0.4; stroke-width: 0.886227"/>
    <path d="M 71.597585 197.639786 
C 72.65522 197.639786 73.66968 197.219582 74.417541 196.471721 
C 75.165403 195.72386 75.585606 194.7094 75.585606 193.651764 
C 75.585606 192.594129 75.165403 191.579669 74.417541 190.831808 
C 73.66968 190.083946 72.65522 189.663743 71.597585 189.663743 
C 70.539949 189.663743 69.525489 190.083946 68.777628 190.831808 
C 68.029767 191.579669 67.609564 192.594129 67.609564 193.651764 
C 67.609564 194.7094 68.029767 195.72386 68.777628 196.471721 
C 69.525489 197.219582 70.539949 197.639786 71.597585 197.639786 
z
" clip-path="url(#p752c1b38f3)" style="fill: #999999; fill-opacity: 0.4; stroke: #999999; stroke-opacity: 0.4; stroke-width: 0.886227"/>
    <path d="M 211.39032 192.304953 
C 212.447955 192.304953 213.462415 191.88475 214.210277 191.136888 
C 214.958138 190.389027 215.378341 189.374567 215.378341 188.316931 
C 215.378341 187.259296 214.958138 186.244836 214.210277 185.496975 
C 213.462415 184.749113 212.447955 184.32891 211.39032 184.32891 
C 210.332684 184.32891 209.318224 184.749113 208.570363 185.496975 
C 207.822502 186.244836 207.402299 187.259296 207.402299 188.316931 
C 207.402299 189.374567 207.822502 190.389027 208.570363 191.136888 
C 209.318224 191.88475 210.332684 192.304953 211.39032 192.304953 
z
" clip-path="url(#p752c1b38f3)" style="fill: #ff5349; fill-opacity: 0.4; stroke: #ff5349; stroke-opacity: 0.4; stroke-width: 0.886227"/>
    <path d="M 65.894575 198.289234 
C 66.952211 198.289234 67.966671 197.869031 68.714532 197.121169 
C 69.462393 196.373308 69.882596 195.358848 69.882596 194.301212 
C 69.882596 193.243577 69.462393 192.229117 68.714532 191.481256 
C 67.966671 190.733394 66.952211 190.313191 65.894575 190.313191 
C 64.836939 190.313191 63.822479 190.733394 63.074618 191.481256 
C 62.326757 192.229117 61.906554 193.243577 61.906554 194.301212 
C 61.906554 195.358848 62.326757 196.373308 63.074618 197.121169 
C 63.822479 197.869031 64.836939 198.289234 65.894575 198.289234 
z
" clip-path="url(#p752c1b38f3)" style="fill: #999999; fill-opacity: 0.4; stroke: #999999; stroke-opacity: 0.4; stroke-width: 0.886227"/>
    <path d="M 67.208236 198.173885 
C 68.265872 198.173885 69.280332 197.753681 70.028193 197.00582 
C 70.776054 196.257959 71.196257 195.243499 71.196257 194.185863 
C 71.196257 193.128228 70.776054 192.113768 70.028193 191.365907 
C 69.280332 190.618045 68.265872 190.197842 67.208236 190.197842 
C 66.1506 190.197842 65.13614 190.618045 64.388279 191.365907 
C 63.640418 192.113768 63.220215 193.128228 63.220215 194.185863 
C 63.220215 195.243499 63.640418 196.257959 64.388279 197.00582 
C 65.13614 197.753681 66.1506 198.173885 67.208236 198.173885 
z
" clip-path="url(#p752c1b38f3)" style="fill: #999999; fill-opacity: 0.4; stroke: #999999; stroke-opacity: 0.4; stroke-width: 0.886227"/>
    <path d="M 79.340712 197.464108 
C 80.398348 197.464108 81.412808 197.043905 82.160669 196.296044 
C 82.90853 195.548182 83.328733 194.533723 83.328733 193.476087 
C 83.328733 192.418451 82.90853 191.403991 82.160669 190.65613 
C 81.412808 189.908269 80.398348 189.488066 79.340712 189.488066 
C 78.283077 189.488066 77.268617 189.908269 76.520755 190.65613 
C 75.772894 191.403991 75.352691 192.418451 75.352691 193.476087 
C 75.352691 194.533723 75.772894 195.548182 76.520755 196.296044 
C 77.268617 197.043905 78.283077 197.464108 79.340712 197.464108 
z
" clip-path="url(#p752c1b38f3)" style="fill: #999999; fill-opacity: 0.4; stroke: #999999; stroke-opacity: 0.4; stroke-width: 0.886227"/>
    <path d="M 77.356513 197.660752 
C 78.414149 197.660752 79.428609 197.240549 80.17647 196.492687 
C 80.924332 195.744826 81.344535 194.730366 81.344535 193.672731 
C 81.344535 192.615095 80.924332 191.600635 80.17647 190.852774 
C 79.428609 190.104912 78.414149 189.684709 77.356513 189.684709 
C 76.298878 189.684709 75.284418 190.104912 74.536557 190.852774 
C 73.788695 191.600635 73.368492 192.615095 73.368492 193.672731 
C 73.368492 194.730366 73.788695 195.744826 74.536557 196.492687 
C 75.284418 197.240549 76.298878 197.660752 77.356513 197.660752 
z
" clip-path="url(#p752c1b38f3)" style="fill: #999999; fill-opacity: 0.4; stroke: #999999; stroke-opacity: 0.4; stroke-width: 0.886227"/>
    <path d="M 65.807498 198.173885 
C 66.865133 198.173885 67.879593 197.753681 68.627454 197.00582 
C 69.375316 196.257959 69.795519 195.243499 69.795519 194.185863 
C 69.795519 193.128228 69.375316 192.113768 68.627454 191.365907 
C 67.879593 190.618045 66.865133 190.197842 65.807498 190.197842 
C 64.749862 190.197842 63.735402 190.618045 62.987541 191.365907 
C 62.23968 192.113768 61.819476 193.128228 61.819476 194.185863 
C 61.819476 195.243499 62.23968 196.257959 62.987541 197.00582 
C 63.735402 197.753681 64.749862 198.173885 65.807498 198.173885 
z
" clip-path="url(#p752c1b38f3)" style="fill: #999999; fill-opacity: 0.4; stroke: #999999; stroke-opacity: 0.4; stroke-width: 0.886227"/>
    <path d="M 66.836589 197.276314 
C 67.894224 197.276314 68.908684 196.856111 69.656545 196.108249 
C 70.404407 195.360388 70.82461 194.345928 70.82461 193.288293 
C 70.82461 192.230657 70.404407 191.216197 69.656545 190.468336 
C 68.908684 189.720474 67.894224 189.300271 66.836589 189.300271 
C 65.778953 189.300271 64.764493 189.720474 64.016632 190.468336 
C 63.26877 191.216197 62.848567 192.230657 62.848567 193.288293 
C 62.848567 194.345928 63.26877 195.360388 64.016632 196.108249 
C 64.764493 196.856111 65.778953 197.276314 66.836589 197.276314 
z
" clip-path="url(#p752c1b38f3)" style="fill: #999999; fill-opacity: 0.4; stroke: #999999; stroke-opacity: 0.4; stroke-width: 0.886227"/>
    <path d="M 114.652082 196.87499 
C 115.709718 196.87499 116.724178 196.454787 117.472039 195.706926 
C 118.219901 194.959065 118.640104 193.944605 118.640104 192.886969 
C 118.640104 191.829334 118.219901 190.814874 117.472039 190.067012 
C 116.724178 189.319151 115.709718 188.898948 114.652082 188.898948 
C 113.594447 188.898948 112.579987 189.319151 111.832126 190.067012 
C 111.084264 190.814874 110.664061 191.829334 110.664061 192.886969 
C 110.664061 193.944605 111.084264 194.959065 111.832126 195.706926 
C 112.579987 196.454787 113.594447 196.87499 114.652082 196.87499 
z
" clip-path="url(#p752c1b38f3)" style="fill: #ff5349; fill-opacity: 0.4; stroke: #ff5349; stroke-opacity: 0.4; stroke-width: 0.886227"/>
    <path d="M 65.863452 198.108342 
C 66.921088 198.108342 67.935548 197.688139 68.683409 196.940277 
C 69.43127 196.192416 69.851473 195.177956 69.851473 194.120321 
C 69.851473 193.062685 69.43127 192.048225 68.683409 191.300364 
C 67.935548 190.552503 66.921088 190.132299 65.863452 190.132299 
C 64.805817 190.132299 63.791357 190.552503 63.043495 191.300364 
C 62.295634 192.048225 61.875431 193.062685 61.875431 194.120321 
C 61.875431 195.177956 62.295634 196.192416 63.043495 196.940277 
C 63.791357 197.688139 64.805817 198.108342 65.863452 198.108342 
z
" clip-path="url(#p752c1b38f3)" style="fill: #ff5349; fill-opacity: 0.4; stroke: #ff5349; stroke-opacity: 0.4; stroke-width: 0.886227"/>
    <path d="M 66.421858 198.3197 
C 67.479493 198.3197 68.493953 197.899497 69.241815 197.151636 
C 69.989676 196.403775 70.409879 195.389315 70.409879 194.331679 
C 70.409879 193.274044 69.989676 192.259584 69.241815 191.511722 
C 68.493953 190.763861 67.479493 190.343658 66.421858 190.343658 
C 65.364222 190.343658 64.349762 190.763861 63.601901 191.511722 
C 62.85404 192.259584 62.433837 193.274044 62.433837 194.331679 
C 62.433837 195.389315 62.85404 196.403775 63.601901 197.151636 
C 64.349762 197.899497 65.364222 198.3197 66.421858 198.3197 
z
" clip-path="url(#p752c1b38f3)" style="fill: #999999; fill-opacity: 0.4; stroke: #999999; stroke-opacity: 0.4; stroke-width: 0.886227"/>
    <path d="M 66.725048 198.259301 
C 67.782683 198.259301 68.797143 197.839098 69.545005 197.091237 
C 70.292866 196.343376 70.713069 195.328916 70.713069 194.27128 
C 70.713069 193.213645 70.292866 192.199185 69.545005 191.451323 
C 68.797143 190.703462 67.782683 190.283259 66.725048 190.283259 
C 65.667412 190.283259 64.652952 190.703462 63.905091 191.451323 
C 63.15723 192.199185 62.737027 193.213645 62.737027 194.27128 
C 62.737027 195.328916 63.15723 196.343376 63.905091 197.091237 
C 64.652952 197.839098 65.667412 198.259301 66.725048 198.259301 
z
" clip-path="url(#p752c1b38f3)" style="fill: #ff5349; fill-opacity: 0.4; stroke: #ff5349; stroke-opacity: 0.4; stroke-width: 0.886227"/>
    <path d="M 92.711781 183.135187 
C 93.769416 183.135187 94.783876 182.714984 95.531738 181.967122 
C 96.279599 181.219261 96.699802 180.204801 96.699802 179.147165 
C 96.699802 178.08953 96.279599 177.07507 95.531738 176.327209 
C 94.783876 175.579347 93.769416 175.159144 92.711781 175.159144 
C 91.654145 175.159144 90.639685 175.579347 89.891824 176.327209 
C 89.143963 177.07507 88.72376 178.08953 88.72376 179.147165 
C 88.72376 180.204801 89.143963 181.219261 89.891824 181.967122 
C 90.639685 182.714984 91.654145 183.135187 92.711781 183.135187 
z
" clip-path="url(#p752c1b38f3)" style="fill: #ff5349; fill-opacity: 0.4; stroke: #ff5349; stroke-opacity: 0.4; stroke-width: 0.886227"/>
    <path d="M 65.683013 198.3197 
C 66.740649 198.3197 67.755109 197.899497 68.50297 197.151636 
C 69.250831 196.403775 69.671034 195.389315 69.671034 194.331679 
C 69.671034 193.274044 69.250831 192.259584 68.50297 191.511722 
C 67.755109 190.763861 66.740649 190.343658 65.683013 190.343658 
C 64.625377 190.343658 63.610918 190.763861 62.863056 191.511722 
C 62.115195 192.259584 61.694992 193.274044 61.694992 194.331679 
C 61.694992 195.389315 62.115195 196.403775 62.863056 197.151636 
C 63.610918 197.899497 64.625377 198.3197 65.683013 198.3197 
z
" clip-path="url(#p752c1b38f3)" style="fill: #ff5349; fill-opacity: 0.4; stroke: #ff5349; stroke-opacity: 0.4; stroke-width: 0.886227"/>
    <path d="M 65.683013 198.3197 
C 66.740649 198.3197 67.755109 197.899497 68.50297 197.151636 
C 69.250831 196.403775 69.671034 195.389315 69.671034 194.331679 
C 69.671034 193.274044 69.250831 192.259584 68.50297 191.511722 
C 67.755109 190.763861 66.740649 190.343658 65.683013 190.343658 
C 64.625377 190.343658 63.610918 190.763861 62.863056 191.511722 
C 62.115195 192.259584 61.694992 193.274044 61.694992 194.331679 
C 61.694992 195.389315 62.115195 196.403775 62.863056 197.151636 
C 63.610918 197.899497 64.625377 198.3197 65.683013 198.3197 
z
" clip-path="url(#p752c1b38f3)" style="fill: #ff5349; fill-opacity: 0.4; stroke: #ff5349; stroke-opacity: 0.4; stroke-width: 0.886227"/>
    <path d="M 71.300826 198.0761 
C 72.358462 198.0761 73.372922 197.655897 74.120783 196.908036 
C 74.868645 196.160174 75.288848 195.145714 75.288848 194.088079 
C 75.288848 193.030443 74.868645 192.015983 74.120783 191.268122 
C 73.372922 190.520261 72.358462 190.100058 71.300826 190.100058 
C 70.243191 190.100058 69.228731 190.520261 68.48087 191.268122 
C 67.733008 192.015983 67.312805 193.030443 67.312805 194.088079 
C 67.312805 195.145714 67.733008 196.160174 68.48087 196.908036 
C 69.228731 197.655897 70.243191 198.0761 71.300826 198.0761 
z
" clip-path="url(#p752c1b38f3)" style="fill: #999999; fill-opacity: 0.4; stroke: #999999; stroke-opacity: 0.4; stroke-width: 0.886227"/>
    <path d="M 72.327757 195.864598 
C 73.385393 195.864598 74.399853 195.444395 75.147714 194.696534 
C 75.895575 193.948673 76.315778 192.934213 76.315778 191.876577 
C 76.315778 190.818941 75.895575 189.804482 75.147714 189.05662 
C 74.399853 188.308759 73.385393 187.888556 72.327757 187.888556 
C 71.270122 187.888556 70.255662 188.308759 69.5078 189.05662 
C 68.759939 189.804482 68.339736 190.818941 68.339736 191.876577 
C 68.339736 192.934213 68.759939 193.948673 69.5078 194.696534 
C 70.255662 195.444395 71.270122 195.864598 72.327757 195.864598 
z
" clip-path="url(#p752c1b38f3)" style="fill: #ff5349; fill-opacity: 0.4; stroke: #ff5349; stroke-opacity: 0.4; stroke-width: 0.886227"/>
    <path d="M 85.529647 155.892146 
C 86.587282 155.892146 87.601742 155.471943 88.349604 154.724082 
C 89.097465 153.976221 89.517668 152.961761 89.517668 151.904125 
C 89.517668 150.84649 89.097465 149.83203 88.349604 149.084168 
C 87.601742 148.336307 86.587282 147.916104 85.529647 147.916104 
C 84.472011 147.916104 83.457551 148.336307 82.70969 149.084168 
C 81.961829 149.83203 81.541626 150.84649 81.541626 151.904125 
C 81.541626 152.961761 81.961829 153.976221 82.70969 154.724082 
C 83.457551 155.471943 84.472011 155.892146 85.529647 155.892146 
z
" clip-path="url(#p752c1b38f3)" style="fill: #999999; fill-opacity: 0.4; stroke: #999999; stroke-opacity: 0.4; stroke-width: 0.886227"/>
    <path d="M 67.065855 197.850961 
C 68.12349 197.850961 69.13795 197.430758 69.885812 196.682897 
C 70.633673 195.935035 71.053876 194.920576 71.053876 193.86294 
C 71.053876 192.805304 70.633673 191.790844 69.885812 191.042983 
C 69.13795 190.295122 68.12349 189.874919 67.065855 189.874919 
C 66.008219 189.874919 64.993759 190.295122 64.245898 191.042983 
C 63.498037 191.790844 63.077834 192.805304 63.077834 193.86294 
C 63.077834 194.920576 63.498037 195.935035 64.245898 196.682897 
C 64.993759 197.430758 66.008219 197.850961 67.065855 197.850961 
z
" clip-path="url(#p752c1b38f3)" style="fill: #999999; fill-opacity: 0.4; stroke: #999999; stroke-opacity: 0.4; stroke-width: 0.886227"/>
    <path d="M 67.319902 139.886859 
C 68.377538 139.886859 69.391998 139.466656 70.139859 138.718795 
C 70.88772 137.970934 71.307923 136.956474 71.307923 135.898838 
C 71.307923 134.841202 70.88772 133.826743 70.139859 133.078881 
C 69.391998 132.33102 68.377538 131.910817 67.319902 131.910817 
C 66.262267 131.910817 65.247807 132.33102 64.499945 133.078881 
C 63.752084 133.826743 63.331881 134.841202 63.331881 135.898838 
C 63.331881 136.956474 63.752084 137.970934 64.499945 138.718795 
C 65.247807 139.466656 66.262267 139.886859 67.319902 139.886859 
z
" clip-path="url(#p752c1b38f3)" style="fill: #999999; fill-opacity: 0.4; stroke: #999999; stroke-opacity: 0.4; stroke-width: 0.886227"/>
    <path d="M 66.495171 197.925637 
C 67.552806 197.925637 68.567266 197.505434 69.315127 196.757573 
C 70.062989 196.009712 70.483192 194.995252 70.483192 193.937616 
C 70.483192 192.879981 70.062989 191.865521 69.315127 191.117659 
C 68.567266 190.369798 67.552806 189.949595 66.495171 189.949595 
C 65.437535 189.949595 64.423075 190.369798 63.675214 191.117659 
C 62.927352 191.865521 62.507149 192.879981 62.507149 193.937616 
C 62.507149 194.995252 62.927352 196.009712 63.675214 196.757573 
C 64.423075 197.505434 65.437535 197.925637 66.495171 197.925637 
z
" clip-path="url(#p752c1b38f3)" style="fill: #ff5349; fill-opacity: 0.4; stroke: #ff5349; stroke-opacity: 0.4; stroke-width: 0.886227"/>
    <path d="M 66.090653 198.108342 
C 67.148289 198.108342 68.162749 197.688139 68.91061 196.940277 
C 69.658472 196.192416 70.078675 195.177956 70.078675 194.120321 
C 70.078675 193.062685 69.658472 192.048225 68.91061 191.300364 
C 68.162749 190.552503 67.148289 190.132299 66.090653 190.132299 
C 65.033018 190.132299 64.018558 190.552503 63.270697 191.300364 
C 62.522835 192.048225 62.102632 193.062685 62.102632 194.120321 
C 62.102632 195.177956 62.522835 196.192416 63.270697 196.940277 
C 64.018558 197.688139 65.033018 198.108342 66.090653 198.108342 
z
" clip-path="url(#p752c1b38f3)" style="fill: #999999; fill-opacity: 0.4; stroke: #999999; stroke-opacity: 0.4; stroke-width: 0.886227"/>
    <path d="M 65.734576 198.259301 
C 66.792212 198.259301 67.806672 197.839098 68.554533 197.091237 
C 69.302394 196.343376 69.722597 195.328916 69.722597 194.27128 
C 69.722597 193.213645 69.302394 192.199185 68.554533 191.451323 
C 67.806672 190.703462 66.792212 190.283259 65.734576 190.283259 
C 64.676941 190.283259 63.662481 190.703462 62.914619 191.451323 
C 62.166758 192.199185 61.746555 193.213645 61.746555 194.27128 
C 61.746555 195.328916 62.166758 196.343376 62.914619 197.091237 
C 63.662481 197.839098 64.676941 198.259301 65.734576 198.259301 
z
" clip-path="url(#p752c1b38f3)" style="fill: #999999; fill-opacity: 0.4; stroke: #999999; stroke-opacity: 0.4; stroke-width: 0.886227"/>
    <path d="M 67.208236 198.173885 
C 68.265872 198.173885 69.280332 197.753681 70.028193 197.00582 
C 70.776054 196.257959 71.196257 195.243499 71.196257 194.185863 
C 71.196257 193.128228 70.776054 192.113768 70.028193 191.365907 
C 69.280332 190.618045 68.265872 190.197842 67.208236 190.197842 
C 66.1506 190.197842 65.13614 190.618045 64.388279 191.365907 
C 63.640418 192.113768 63.220215 193.128228 63.220215 194.185863 
C 63.220215 195.243499 63.640418 196.257959 64.388279 197.00582 
C 65.13614 197.753681 66.1506 198.173885 67.208236 198.173885 
z
" clip-path="url(#p752c1b38f3)" style="fill: #ff5349; fill-opacity: 0.4; stroke: #ff5349; stroke-opacity: 0.4; stroke-width: 0.886227"/>
    <path d="M 66.810867 195.774589 
C 67.868503 195.774589 68.882962 195.354386 69.630824 194.606525 
C 70.378685 193.858663 70.798888 192.844203 70.798888 191.786568 
C 70.798888 190.728932 70.378685 189.714472 69.630824 188.966611 
C 68.882962 188.21875 67.868503 187.798547 66.810867 187.798547 
C 65.753231 187.798547 64.738771 188.21875 63.99091 188.966611 
C 63.243049 189.714472 62.822846 190.728932 62.822846 191.786568 
C 62.822846 192.844203 63.243049 193.858663 63.99091 194.606525 
C 64.738771 195.354386 65.753231 195.774589 66.810867 195.774589 
z
" clip-path="url(#p752c1b38f3)" style="fill: #999999; fill-opacity: 0.4; stroke: #999999; stroke-opacity: 0.4; stroke-width: 0.886227"/>
    <path d="M 65.683013 198.3197 
C 66.740649 198.3197 67.755109 197.899497 68.50297 197.151636 
C 69.250831 196.403775 69.671034 195.389315 69.671034 194.331679 
C 69.671034 193.274044 69.250831 192.259584 68.50297 191.511722 
C 67.755109 190.763861 66.740649 190.343658 65.683013 190.343658 
C 64.625377 190.343658 63.610918 190.763861 62.863056 191.511722 
C 62.115195 192.259584 61.694992 193.274044 61.694992 194.331679 
C 61.694992 195.389315 62.115195 196.403775 62.863056 197.151636 
C 63.610918 197.899497 64.625377 198.3197 65.683013 198.3197 
z
" clip-path="url(#p752c1b38f3)" style="fill: #ff5349; fill-opacity: 0.4; stroke: #ff5349; stroke-opacity: 0.4; stroke-width: 0.886227"/>
    <path d="M 65.734576 198.259301 
C 66.792212 198.259301 67.806672 197.839098 68.554533 197.091237 
C 69.302394 196.343376 69.722597 195.328916 69.722597 194.27128 
C 69.722597 193.213645 69.302394 192.199185 68.554533 191.451323 
C 67.806672 190.703462 66.792212 190.283259 65.734576 190.283259 
C 64.676941 190.283259 63.662481 190.703462 62.914619 191.451323 
C 62.166758 192.199185 61.746555 193.213645 61.746555 194.27128 
C 61.746555 195.328916 62.166758 196.343376 62.914619 197.091237 
C 63.662481 197.839098 64.676941 198.259301 65.734576 198.259301 
z
" clip-path="url(#p752c1b38f3)" style="fill: #ff5349; fill-opacity: 0.4; stroke: #ff5349; stroke-opacity: 0.4; stroke-width: 0.886227"/>
    <path d="M 69.631431 161.08423 
C 70.689066 161.08423 71.703526 160.664027 72.451388 159.916165 
C 73.199249 159.168304 73.619452 158.153844 73.619452 157.096209 
C 73.619452 156.038573 73.199249 155.024113 72.451388 154.276252 
C 71.703526 153.528391 70.689066 153.108187 69.631431 153.108187 
C 68.573795 153.108187 67.559335 153.528391 66.811474 154.276252 
C 66.063613 155.024113 65.64341 156.038573 65.64341 157.096209 
C 65.64341 158.153844 66.063613 159.168304 66.811474 159.916165 
C 67.559335 160.664027 68.573795 161.08423 69.631431 161.08423 
z
" clip-path="url(#p752c1b38f3)" style="fill: #999999; fill-opacity: 0.4; stroke: #999999; stroke-opacity: 0.4; stroke-width: 0.886227"/>
    <path d="M 109.279909 99.134615 
C 110.337545 99.134615 111.352005 98.714411 112.099866 97.96655 
C 112.847727 97.218689 113.267931 96.204229 113.267931 95.146593 
C 113.267931 94.088958 112.847727 93.074498 112.099866 92.326637 
C 111.352005 91.578775 110.337545 91.158572 109.279909 91.158572 
C 108.222274 91.158572 107.207814 91.578775 106.459953 92.326637 
C 105.712091 93.074498 105.291888 94.088958 105.291888 95.146593 
C 105.291888 96.204229 105.712091 97.218689 106.459953 97.96655 
C 107.207814 98.714411 108.222274 99.134615 109.279909 99.134615 
z
" clip-path="url(#p752c1b38f3)" style="fill: #999999; fill-opacity: 0.4; stroke: #999999; stroke-opacity: 0.4; stroke-width: 0.886227"/>
    <path d="M 77.538542 198.034168 
C 78.596178 198.034168 79.610638 197.613964 80.358499 196.866103 
C 81.106361 196.118242 81.526564 195.103782 81.526564 194.046146 
C 81.526564 192.988511 81.106361 191.974051 80.358499 191.22619 
C 79.610638 190.478328 78.596178 190.058125 77.538542 190.058125 
C 76.480907 190.058125 75.466447 190.478328 74.718586 191.22619 
C 73.970724 191.974051 73.550521 192.988511 73.550521 194.046146 
C 73.550521 195.103782 73.970724 196.118242 74.718586 196.866103 
C 75.466447 197.613964 76.480907 198.034168 77.538542 198.034168 
z
" clip-path="url(#p752c1b38f3)" style="fill: #ff5349; fill-opacity: 0.4; stroke: #ff5349; stroke-opacity: 0.4; stroke-width: 0.886227"/>
    <path d="M 75.056172 193.372325 
C 76.113807 193.372325 77.128267 192.952122 77.876129 192.204261 
C 78.62399 191.456399 79.044193 190.44194 79.044193 189.384304 
C 79.044193 188.326668 78.62399 187.312208 77.876129 186.564347 
C 77.128267 185.816486 76.113807 185.396283 75.056172 185.396283 
C 73.998536 185.396283 72.984076 185.816486 72.236215 186.564347 
C 71.488354 187.312208 71.068151 188.326668 71.068151 189.384304 
C 71.068151 190.44194 71.488354 191.456399 72.236215 192.204261 
C 72.984076 192.952122 73.998536 193.372325 75.056172 193.372325 
z
" clip-path="url(#p752c1b38f3)" style="fill: #999999; fill-opacity: 0.4; stroke: #999999; stroke-opacity: 0.4; stroke-width: 0.886227"/>
    <path d="M 65.683013 198.3197 
C 66.740649 198.3197 67.755109 197.899497 68.50297 197.151636 
C 69.250831 196.403775 69.671034 195.389315 69.671034 194.331679 
C 69.671034 193.274044 69.250831 192.259584 68.50297 191.511722 
C 67.755109 190.763861 66.740649 190.343658 65.683013 190.343658 
C 64.625377 190.343658 63.610918 190.763861 62.863056 191.511722 
C 62.115195 192.259584 61.694992 193.274044 61.694992 194.331679 
C 61.694992 195.389315 62.115195 196.403775 62.863056 197.151636 
C 63.610918 197.899497 64.625377 198.3197 65.683013 198.3197 
z
" clip-path="url(#p752c1b38f3)" style="fill: #999999; fill-opacity: 0.4; stroke: #999999; stroke-opacity: 0.4; stroke-width: 0.886227"/>
    <path d="M 65.683013 198.3197 
C 66.740649 198.3197 67.755109 197.899497 68.50297 197.151636 
C 69.250831 196.403775 69.671034 195.389315 69.671034 194.331679 
C 69.671034 193.274044 69.250831 192.259584 68.50297 191.511722 
C 67.755109 190.763861 66.740649 190.343658 65.683013 190.343658 
C 64.625377 190.343658 63.610918 190.763861 62.863056 191.511722 
C 62.115195 192.259584 61.694992 193.274044 61.694992 194.331679 
C 61.694992 195.389315 62.115195 196.403775 62.863056 197.151636 
C 63.610918 197.899497 64.625377 198.3197 65.683013 198.3197 
z
" clip-path="url(#p752c1b38f3)" style="fill: #999999; fill-opacity: 0.4; stroke: #999999; stroke-opacity: 0.4; stroke-width: 0.886227"/>
    <path d="M 120.710504 71.34419 
C 121.76814 71.34419 122.7826 70.923987 123.530461 70.176125 
C 124.278322 69.428264 124.698525 68.413804 124.698525 67.356169 
C 124.698525 66.298533 124.278322 65.284073 123.530461 64.536212 
C 122.7826 63.788351 121.76814 63.368148 120.710504 63.368148 
C 119.652869 63.368148 118.638409 63.788351 117.890547 64.536212 
C 117.142686 65.284073 116.722483 66.298533 116.722483 67.356169 
C 116.722483 68.413804 117.142686 69.428264 117.890547 70.176125 
C 118.638409 70.923987 119.652869 71.34419 120.710504 71.34419 
z
" clip-path="url(#p752c1b38f3)" style="fill: #999999; fill-opacity: 0.4; stroke: #999999; stroke-opacity: 0.4; stroke-width: 0.886227"/>
    <path d="M 65.683013 198.3197 
C 66.740649 198.3197 67.755109 197.899497 68.50297 197.151636 
C 69.250831 196.403775 69.671034 195.389315 69.671034 194.331679 
C 69.671034 193.274044 69.250831 192.259584 68.50297 191.511722 
C 67.755109 190.763861 66.740649 190.343658 65.683013 190.343658 
C 64.625377 190.343658 63.610918 190.763861 62.863056 191.511722 
C 62.115195 192.259584 61.694992 193.274044 61.694992 194.331679 
C 61.694992 195.389315 62.115195 196.403775 62.863056 197.151636 
C 63.610918 197.899497 64.625377 198.3197 65.683013 198.3197 
z
" clip-path="url(#p752c1b38f3)" style="fill: #999999; fill-opacity: 0.4; stroke: #999999; stroke-opacity: 0.4; stroke-width: 0.886227"/>
    <path d="M 80.760187 131.621748 
C 81.817823 131.621748 82.832283 131.201545 83.580144 130.453684 
C 84.328005 129.705823 84.748209 128.691363 84.748209 127.633727 
C 84.748209 126.576092 84.328005 125.561632 83.580144 124.81377 
C 82.832283 124.065909 81.817823 123.645706 80.760187 123.645706 
C 79.702552 123.645706 78.688092 124.065909 77.940231 124.81377 
C 77.192369 125.561632 76.772166 126.576092 76.772166 127.633727 
C 76.772166 128.691363 77.192369 129.705823 77.940231 130.453684 
C 78.688092 131.201545 79.702552 131.621748 80.760187 131.621748 
z
" clip-path="url(#p752c1b38f3)" style="fill: #999999; fill-opacity: 0.4; stroke: #999999; stroke-opacity: 0.4; stroke-width: 0.886227"/>
    <path d="M 69.817793 198.294349 
C 70.875429 198.294349 71.889889 197.874146 72.63775 197.126284 
C 73.385611 196.378423 73.805814 195.363963 73.805814 194.306328 
C 73.805814 193.248692 73.385611 192.234232 72.63775 191.486371 
C 71.889889 190.738509 70.875429 190.318306 69.817793 190.318306 
C 68.760157 190.318306 67.745698 190.738509 66.997836 191.486371 
C 66.249975 192.234232 65.829772 193.248692 65.829772 194.306328 
C 65.829772 195.363963 66.249975 196.378423 66.997836 197.126284 
C 67.745698 197.874146 68.760157 198.294349 69.817793 198.294349 
z
" clip-path="url(#p752c1b38f3)" style="fill: #999999; fill-opacity: 0.4; stroke: #999999; stroke-opacity: 0.4; stroke-width: 0.886227"/>
    <path d="M 79.762817 197.75426 
C 80.820453 197.75426 81.834913 197.334057 82.582774 196.586195 
C 83.330636 195.838334 83.750839 194.823874 83.750839 193.766239 
C 83.750839 192.708603 83.330636 191.694143 82.582774 190.946282 
C 81.834913 190.198421 80.820453 189.778217 79.762817 189.778217 
C 78.705182 189.778217 77.690722 190.198421 76.942861 190.946282 
C 76.194999 191.694143 75.774796 192.708603 75.774796 193.766239 
C 75.774796 194.823874 76.194999 195.838334 76.942861 196.586195 
C 77.690722 197.334057 78.705182 197.75426 79.762817 197.75426 
z
" clip-path="url(#p752c1b38f3)" style="fill: #999999; fill-opacity: 0.4; stroke: #999999; stroke-opacity: 0.4; stroke-width: 0.886227"/>
    <path d="M 79.443554 198.220966 
C 80.50119 198.220966 81.51565 197.800763 82.263511 197.052901 
C 83.011372 196.30504 83.431575 195.29058 83.431575 194.232945 
C 83.431575 193.175309 83.011372 192.160849 82.263511 191.412988 
C 81.51565 190.665126 80.50119 190.244923 79.443554 190.244923 
C 78.385919 190.244923 77.371459 190.665126 76.623597 191.412988 
C 75.875736 192.160849 75.455533 193.175309 75.455533 194.232945 
C 75.455533 195.29058 75.875736 196.30504 76.623597 197.052901 
C 77.371459 197.800763 78.385919 198.220966 79.443554 198.220966 
z
" clip-path="url(#p752c1b38f3)" style="fill: #ff5349; fill-opacity: 0.4; stroke: #ff5349; stroke-opacity: 0.4; stroke-width: 0.886227"/>
   </g>
   <g id="patch_3">
    <path d="M 57.949438 202.037495 
L 57.949438 35.717495 
" style="fill: none; stroke: #000000; stroke-linejoin: miter; stroke-linecap: square"/>
   </g>
   <g id="patch_4">
    <path d="M 57.949438 202.037495 
L 225.349437 202.037495 
" style="fill: none; stroke: #000000; stroke-linejoin: miter; stroke-linecap: square"/>
   </g>
   <g id="patch_5">
    <path d="M 232.549437 173.142733 
L 409.283082 173.142733 
L 409.283082 62.452257 
L 232.549437 62.452257 
z
" style="fill: #ffffff"/>
   </g>
   <g id="text_9">
    <!-- Viral mutations -->
    <g transform="translate(244.749437 86.045851)scale(0.11 -0.11)">
     <defs>
      <path id="DejaVuSans-56" d="M 1831 0 
L 50 4666 
L 709 4666 
L 2188 738 
L 3669 4666 
L 4325 4666 
L 2547 0 
L 1831 0 
z
" transform="scale(0.015625)"/>
      <path id="DejaVuSans-6d" d="M 3328 2828 
Q 3544 3216 3844 3400 
Q 4144 3584 4550 3584 
Q 5097 3584 5394 3201 
Q 5691 2819 5691 2113 
L 5691 0 
L 5113 0 
L 5113 2094 
Q 5113 2597 4934 2840 
Q 4756 3084 4391 3084 
Q 3944 3084 3684 2787 
Q 3425 2491 3425 1978 
L 3425 0 
L 2847 0 
L 2847 2094 
Q 2847 2600 2669 2842 
Q 2491 3084 2119 3084 
Q 1678 3084 1418 2786 
Q 1159 2488 1159 1978 
L 1159 0 
L 581 0 
L 581 3500 
L 1159 3500 
L 1159 2956 
Q 1356 3278 1631 3431 
Q 1906 3584 2284 3584 
Q 2666 3584 2933 3390 
Q 3200 3197 3328 2828 
z
" transform="scale(0.015625)"/>
     </defs>
     <use xlink:href="#DejaVuSans-56"/>
     <use xlink:href="#DejaVuSans-69" x="66.158203"/>
     <use xlink:href="#DejaVuSans-72" x="93.941406"/>
     <use xlink:href="#DejaVuSans-61" x="135.054688"/>
     <use xlink:href="#DejaVuSans-6c" x="196.333984"/>
     <use xlink:href="#DejaVuSans-20" x="224.117188"/>
     <use xlink:href="#DejaVuSans-6d" x="255.904297"/>
     <use xlink:href="#DejaVuSans-75" x="353.316406"/>
     <use xlink:href="#DejaVuSans-74" x="416.695312"/>
     <use xlink:href="#DejaVuSans-61" x="455.904297"/>
     <use xlink:href="#DejaVuSans-74" x="517.183594"/>
     <use xlink:href="#DejaVuSans-69" x="556.392578"/>
     <use xlink:href="#DejaVuSans-6f" x="584.175781"/>
     <use xlink:href="#DejaVuSans-6e" x="645.357422"/>
     <use xlink:href="#DejaVuSans-73" x="708.736328"/>
    </g>
   </g>
   <g id="patch_6">
    <path d="M 244.749437 106.480464 
L 261.531707 106.480464 
L 261.531707 89.698195 
L 244.749437 89.698195 
L 244.749437 106.480464 
z
" clip-path="url(#pe659c793cb)" style="fill: none"/>
   </g>
   <g id="line2d_7">
    <path d="M 253.140572 98.089329 
" clip-path="url(#pe659c793cb)" style="fill: none; stroke: #1f77b4; stroke-opacity: 0.4; stroke-width: 1.5; stroke-linecap: square"/>
    <defs>
     <path id="m7affa83f4a" d="M 0 3.988021 
C 1.057636 3.988021 2.072096 3.567818 2.819957 2.819957 
C 3.567818 2.072096 3.988021 1.057636 3.988021 0 
C 3.988021 -1.057636 3.567818 -2.072096 2.819957 -2.819957 
C 2.072096 -3.567818 1.057636 -3.988021 0 -3.988021 
C -1.057636 -3.988021 -2.072096 -3.567818 -2.819957 -2.819957 
C -3.567818 -2.072096 -3.988021 -1.057636 -3.988021 0 
C -3.988021 1.057636 -3.567818 2.072096 -2.819957 2.819957 
C -2.072096 3.567818 -1.057636 3.988021 0 3.988021 
z
" style="stroke: #999999; stroke-opacity: 0.4; stroke-width: 0.886227"/>
    </defs>
    <g clip-path="url(#pe659c793cb)">
     <use xlink:href="#m7affa83f4a" x="253.140572" y="98.089329" style="fill: #999999; fill-opacity: 0.4; stroke: #999999; stroke-opacity: 0.4; stroke-width: 0.886227"/>
    </g>
   </g>
   <g id="text_10">
    <!-- Complete unmutated genome -->
    <g transform="translate(264.531707 100.517579)scale(0.088 -0.088)">
     <defs>
      <path id="DejaVuSans-43" d="M 4122 4306 
L 4122 3641 
Q 3803 3938 3442 4084 
Q 3081 4231 2675 4231 
Q 1875 4231 1450 3742 
Q 1025 3253 1025 2328 
Q 1025 1406 1450 917 
Q 1875 428 2675 428 
Q 3081 428 3442 575 
Q 3803 722 4122 1019 
L 4122 359 
Q 3791 134 3420 21 
Q 3050 -91 2638 -91 
Q 1578 -91 968 557 
Q 359 1206 359 2328 
Q 359 3453 968 4101 
Q 1578 4750 2638 4750 
Q 3056 4750 3426 4639 
Q 3797 4528 4122 4306 
z
" transform="scale(0.015625)"/>
      <path id="DejaVuSans-64" d="M 2906 2969 
L 2906 4863 
L 3481 4863 
L 3481 0 
L 2906 0 
L 2906 525 
Q 2725 213 2448 61 
Q 2172 -91 1784 -91 
Q 1150 -91 751 415 
Q 353 922 353 1747 
Q 353 2572 751 3078 
Q 1150 3584 1784 3584 
Q 2172 3584 2448 3432 
Q 2725 3281 2906 2969 
z
M 947 1747 
Q 947 1113 1208 752 
Q 1469 391 1925 391 
Q 2381 391 2643 752 
Q 2906 1113 2906 1747 
Q 2906 2381 2643 2742 
Q 2381 3103 1925 3103 
Q 1469 3103 1208 2742 
Q 947 2381 947 1747 
z
" transform="scale(0.015625)"/>
     </defs>
     <use xlink:href="#DejaVuSans-43"/>
     <use xlink:href="#DejaVuSans-6f" x="69.824219"/>
     <use xlink:href="#DejaVuSans-6d" x="131.005859"/>
     <use xlink:href="#DejaVuSans-70" x="228.417969"/>
     <use xlink:href="#DejaVuSans-6c" x="291.894531"/>
     <use xlink:href="#DejaVuSans-65" x="319.677734"/>
     <use xlink:href="#DejaVuSans-74" x="381.201172"/>
     <use xlink:href="#DejaVuSans-65" x="420.410156"/>
     <use xlink:href="#DejaVuSans-20" x="481.933594"/>
     <use xlink:href="#DejaVuSans-75" x="513.720703"/>
     <use xlink:href="#DejaVuSans-6e" x="577.099609"/>
     <use xlink:href="#DejaVuSans-6d" x="640.478516"/>
     <use xlink:href="#DejaVuSans-75" x="737.890625"/>
     <use xlink:href="#DejaVuSans-74" x="801.269531"/>
     <use xlink:href="#DejaVuSans-61" x="840.478516"/>
     <use xlink:href="#DejaVuSans-74" x="901.757812"/>
     <use xlink:href="#DejaVuSans-65" x="940.966797"/>
     <use xlink:href="#DejaVuSans-64" x="1002.490234"/>
     <use xlink:href="#DejaVuSans-20" x="1065.966797"/>
     <use xlink:href="#DejaVuSans-67" x="1097.753906"/>
     <use xlink:href="#DejaVuSans-65" x="1161.230469"/>
     <use xlink:href="#DejaVuSans-6e" x="1222.753906"/>
     <use xlink:href="#DejaVuSans-6f" x="1286.132812"/>
     <use xlink:href="#DejaVuSans-6d" x="1347.314453"/>
     <use xlink:href="#DejaVuSans-65" x="1444.726562"/>
    </g>
   </g>
   <g id="patch_7">
    <path d="M 244.749437 125.262733 
L 261.531707 125.262733 
L 261.531707 108.480464 
L 244.749437 108.480464 
L 244.749437 125.262733 
z
" clip-path="url(#p61ddc3e3c6)" style="fill: none"/>
   </g>
   <g id="line2d_8">
    <path d="M 253.140572 116.871598 
" clip-path="url(#p61ddc3e3c6)" style="fill: none; stroke: #1f77b4; stroke-opacity: 0.4; stroke-width: 1.5; stroke-linecap: square"/>
    <defs>
     <path id="m76fecffaad" d="M 0 3.988021 
C 1.057636 3.988021 2.072096 3.567818 2.819957 2.819957 
C 3.567818 2.072096 3.988021 1.057636 3.988021 0 
C 3.988021 -1.057636 3.567818 -2.072096 2.819957 -2.819957 
C 2.072096 -3.567818 1.057636 -3.988021 0 -3.988021 
C -1.057636 -3.988021 -2.072096 -3.567818 -2.819957 -2.819957 
C -3.567818 -2.072096 -3.988021 -1.057636 -3.988021 0 
C -3.988021 1.057636 -3.567818 2.072096 -2.819957 2.819957 
C -2.072096 3.567818 -1.057636 3.988021 0 3.988021 
z
" style="stroke: #ff5349; stroke-opacity: 0.4; stroke-width: 0.886227"/>
    </defs>
    <g clip-path="url(#p61ddc3e3c6)">
     <use xlink:href="#m76fecffaad" x="253.140572" y="116.871598" style="fill: #ff5349; fill-opacity: 0.4; stroke: #ff5349; stroke-opacity: 0.4; stroke-width: 0.886227"/>
    </g>
   </g>
   <g id="text_11">
    <!-- Complete mutated genome -->
    <g transform="translate(264.531707 119.299848)scale(0.088 -0.088)">
     <use xlink:href="#DejaVuSans-43"/>
     <use xlink:href="#DejaVuSans-6f" x="69.824219"/>
     <use xlink:href="#DejaVuSans-6d" x="131.005859"/>
     <use xlink:href="#DejaVuSans-70" x="228.417969"/>
     <use xlink:href="#DejaVuSans-6c" x="291.894531"/>
     <use xlink:href="#DejaVuSans-65" x="319.677734"/>
     <use xlink:href="#DejaVuSans-74" x="381.201172"/>
     <use xlink:href="#DejaVuSans-65" x="420.410156"/>
     <use xlink:href="#DejaVuSans-20" x="481.933594"/>
     <use xlink:href="#DejaVuSans-6d" x="513.720703"/>
     <use xlink:href="#DejaVuSans-75" x="611.132812"/>
     <use xlink:href="#DejaVuSans-74" x="674.511719"/>
     <use xlink:href="#DejaVuSans-61" x="713.720703"/>
     <use xlink:href="#DejaVuSans-74" x="775"/>
     <use xlink:href="#DejaVuSans-65" x="814.208984"/>
     <use xlink:href="#DejaVuSans-64" x="875.732422"/>
     <use xlink:href="#DejaVuSans-20" x="939.208984"/>
     <use xlink:href="#DejaVuSans-67" x="970.996094"/>
     <use xlink:href="#DejaVuSans-65" x="1034.472656"/>
     <use xlink:href="#DejaVuSans-6e" x="1095.996094"/>
     <use xlink:href="#DejaVuSans-6f" x="1159.375"/>
     <use xlink:href="#DejaVuSans-6d" x="1220.556641"/>
     <use xlink:href="#DejaVuSans-65" x="1317.96875"/>
    </g>
   </g>
   <g id="patch_8">
    <path d="M 244.749437 143.102733 
L 261.531707 143.102733 
L 261.531707 127.262733 
L 244.749437 127.262733 
L 244.749437 143.102733 
z
" clip-path="url(#p376bf0be02)" style="fill: none"/>
   </g>
   <g id="text_12">
    <!-- Complete genome -->
    <g transform="translate(264.531707 137.610983)scale(0.088 -0.088)">
     <use xlink:href="#DejaVuSans-43"/>
     <use xlink:href="#DejaVuSans-6f" x="69.824219"/>
     <use xlink:href="#DejaVuSans-6d" x="131.005859"/>
     <use xlink:href="#DejaVuSans-70" x="228.417969"/>
     <use xlink:href="#DejaVuSans-6c" x="291.894531"/>
     <use xlink:href="#DejaVuSans-65" x="319.677734"/>
     <use xlink:href="#DejaVuSans-74" x="381.201172"/>
     <use xlink:href="#DejaVuSans-65" x="420.410156"/>
     <use xlink:href="#DejaVuSans-20" x="481.933594"/>
     <use xlink:href="#DejaVuSans-67" x="513.720703"/>
     <use xlink:href="#DejaVuSans-65" x="577.197266"/>
     <use xlink:href="#DejaVuSans-6e" x="638.720703"/>
     <use xlink:href="#DejaVuSans-6f" x="702.099609"/>
     <use xlink:href="#DejaVuSans-6d" x="763.28125"/>
     <use xlink:href="#DejaVuSans-65" x="860.693359"/>
    </g>
   </g>
   <g id="patch_9">
    <path d="M 244.749437 160.942733 
L 261.531707 160.942733 
L 261.531707 145.102733 
L 244.749437 145.102733 
L 244.749437 160.942733 
z
" clip-path="url(#p94e51269d0)" style="fill: none"/>
   </g>
   <g id="text_13">
    <!-- Missing viral gene(s) -->
    <g transform="translate(264.531707 155.450983)scale(0.088 -0.088)">
     <defs>
      <path id="DejaVuSans-4d" d="M 628 4666 
L 1569 4666 
L 2759 1491 
L 3956 4666 
L 4897 4666 
L 4897 0 
L 4281 0 
L 4281 4097 
L 3078 897 
L 2444 897 
L 1241 4097 
L 1241 0 
L 628 0 
L 628 4666 
z
" transform="scale(0.015625)"/>
      <path id="DejaVuSans-76" d="M 191 3500 
L 800 3500 
L 1894 563 
L 2988 3500 
L 3597 3500 
L 2284 0 
L 1503 0 
L 191 3500 
z
" transform="scale(0.015625)"/>
      <path id="DejaVuSans-28" d="M 1984 4856 
Q 1566 4138 1362 3434 
Q 1159 2731 1159 2009 
Q 1159 1288 1364 580 
Q 1569 -128 1984 -844 
L 1484 -844 
Q 1016 -109 783 600 
Q 550 1309 550 2009 
Q 550 2706 781 3412 
Q 1013 4119 1484 4856 
L 1984 4856 
z
" transform="scale(0.015625)"/>
      <path id="DejaVuSans-29" d="M 513 4856 
L 1013 4856 
Q 1481 4119 1714 3412 
Q 1947 2706 1947 2009 
Q 1947 1309 1714 600 
Q 1481 -109 1013 -844 
L 513 -844 
Q 928 -128 1133 580 
Q 1338 1288 1338 2009 
Q 1338 2731 1133 3434 
Q 928 4138 513 4856 
z
" transform="scale(0.015625)"/>
     </defs>
     <use xlink:href="#DejaVuSans-4d"/>
     <use xlink:href="#DejaVuSans-69" x="86.279297"/>
     <use xlink:href="#DejaVuSans-73" x="114.0625"/>
     <use xlink:href="#DejaVuSans-73" x="166.162109"/>
     <use xlink:href="#DejaVuSans-69" x="218.261719"/>
     <use xlink:href="#DejaVuSans-6e" x="246.044922"/>
     <use xlink:href="#DejaVuSans-67" x="309.423828"/>
     <use xlink:href="#DejaVuSans-20" x="372.900391"/>
     <use xlink:href="#DejaVuSans-76" x="404.6875"/>
     <use xlink:href="#DejaVuSans-69" x="463.867188"/>
     <use xlink:href="#DejaVuSans-72" x="491.650391"/>
     <use xlink:href="#DejaVuSans-61" x="532.763672"/>
     <use xlink:href="#DejaVuSans-6c" x="594.042969"/>
     <use xlink:href="#DejaVuSans-20" x="621.826172"/>
     <use xlink:href="#DejaVuSans-67" x="653.613281"/>
     <use xlink:href="#DejaVuSans-65" x="717.089844"/>
     <use xlink:href="#DejaVuSans-6e" x="778.613281"/>
     <use xlink:href="#DejaVuSans-65" x="841.992188"/>
     <use xlink:href="#DejaVuSans-28" x="903.515625"/>
     <use xlink:href="#DejaVuSans-73" x="942.529297"/>
     <use xlink:href="#DejaVuSans-29" x="994.628906"/>
    </g>
   </g>
  </g>
  <g id="text_14">
   <!-- Progeny associated with -->
   <g transform="translate(65.941625 16.318125)scale(0.12 -0.12)">
    <defs>
     <path id="DejaVuSans-50" d="M 1259 4147 
L 1259 2394 
L 2053 2394 
Q 2494 2394 2734 2622 
Q 2975 2850 2975 3272 
Q 2975 3691 2734 3919 
Q 2494 4147 2053 4147 
L 1259 4147 
z
M 628 4666 
L 2053 4666 
Q 2838 4666 3239 4311 
Q 3641 3956 3641 3272 
Q 3641 2581 3239 2228 
Q 2838 1875 2053 1875 
L 1259 1875 
L 1259 0 
L 628 0 
L 628 4666 
z
" transform="scale(0.015625)"/>
     <path id="DejaVuSans-77" d="M 269 3500 
L 844 3500 
L 1563 769 
L 2278 3500 
L 2956 3500 
L 3675 769 
L 4391 3500 
L 4966 3500 
L 4050 0 
L 3372 0 
L 2619 2869 
L 1863 0 
L 1184 0 
L 269 3500 
z
" transform="scale(0.015625)"/>
    </defs>
    <use xlink:href="#DejaVuSans-50"/>
    <use xlink:href="#DejaVuSans-72" x="58.552734"/>
    <use xlink:href="#DejaVuSans-6f" x="97.416016"/>
    <use xlink:href="#DejaVuSans-67" x="158.597656"/>
    <use xlink:href="#DejaVuSans-65" x="222.074219"/>
    <use xlink:href="#DejaVuSans-6e" x="283.597656"/>
    <use xlink:href="#DejaVuSans-79" x="346.976562"/>
    <use xlink:href="#DejaVuSans-20" x="406.15625"/>
    <use xlink:href="#DejaVuSans-61" x="437.943359"/>
    <use xlink:href="#DejaVuSans-73" x="499.222656"/>
    <use xlink:href="#DejaVuSans-73" x="551.322266"/>
    <use xlink:href="#DejaVuSans-6f" x="603.421875"/>
    <use xlink:href="#DejaVuSans-63" x="664.603516"/>
    <use xlink:href="#DejaVuSans-69" x="719.583984"/>
    <use xlink:href="#DejaVuSans-61" x="747.367188"/>
    <use xlink:href="#DejaVuSans-74" x="808.646484"/>
    <use xlink:href="#DejaVuSans-65" x="847.855469"/>
    <use xlink:href="#DejaVuSans-64" x="909.378906"/>
    <use xlink:href="#DejaVuSans-20" x="972.855469"/>
    <use xlink:href="#DejaVuSans-77" x="1004.642578"/>
    <use xlink:href="#DejaVuSans-69" x="1086.429688"/>
    <use xlink:href="#DejaVuSans-74" x="1114.212891"/>
    <use xlink:href="#DejaVuSans-68" x="1153.421875"/>
   </g>
   <!-- single infected cells -->
   <g transform="translate(79.496937 27.020062)scale(0.12 -0.12)">
    <use xlink:href="#DejaVuSans-73"/>
    <use xlink:href="#DejaVuSans-69" x="52.099609"/>
    <use xlink:href="#DejaVuSans-6e" x="79.882812"/>
    <use xlink:href="#DejaVuSans-67" x="143.261719"/>
    <use xlink:href="#DejaVuSans-6c" x="206.738281"/>
    <use xlink:href="#DejaVuSans-65" x="234.521484"/>
    <use xlink:href="#DejaVuSans-20" x="296.044922"/>
    <use xlink:href="#DejaVuSans-69" x="327.832031"/>
    <use xlink:href="#DejaVuSans-6e" x="355.615234"/>
    <use xlink:href="#DejaVuSans-66" x="418.994141"/>
    <use xlink:href="#DejaVuSans-65" x="454.199219"/>
    <use xlink:href="#DejaVuSans-63" x="515.722656"/>
    <use xlink:href="#DejaVuSans-74" x="570.703125"/>
    <use xlink:href="#DejaVuSans-65" x="609.912109"/>
    <use xlink:href="#DejaVuSans-64" x="671.435547"/>
    <use xlink:href="#DejaVuSans-20" x="734.912109"/>
    <use xlink:href="#DejaVuSans-63" x="766.699219"/>
    <use xlink:href="#DejaVuSans-65" x="821.679688"/>
    <use xlink:href="#DejaVuSans-6c" x="883.203125"/>
    <use xlink:href="#DejaVuSans-6c" x="910.986328"/>
    <use xlink:href="#DejaVuSans-73" x="938.769531"/>
   </g>
  </g>
 </g>
 <defs>
  <clipPath id="p752c1b38f3">
   <rect x="57.949438" y="35.717495" width="167.4" height="166.32"/>
  </clipPath>
  <clipPath id="pe659c793cb">
   <path d="M 244.749437 106.480464 
L 244.749437 89.698195 
L 261.531707 89.698195 
L 261.531707 106.480464 
"/>
  </clipPath>
  <clipPath id="p61ddc3e3c6">
   <path d="M 244.749437 125.262733 
L 244.749437 108.480464 
L 261.531707 108.480464 
L 261.531707 125.262733 
"/>
  </clipPath>
  <clipPath id="p376bf0be02">
   <path d="M 244.749437 143.102733 
L 244.749437 127.262733 
L 261.531707 127.262733 
L 261.531707 143.102733 
"/>
  </clipPath>
  <clipPath id="p94e51269d0">
   <path d="M 244.749437 160.942733 
L 244.749437 145.102733 
L 261.531707 145.102733 
L 261.531707 160.942733 
"/>
  </clipPath>
 </defs>
</svg>
