<?xml version="1.0" encoding="utf-8" standalone="no"?>
<!DOCTYPE svg PUBLIC "-//W3C//DTD SVG 1.1//EN"
  "http://www.w3.org/Graphics/SVG/1.1/DTD/svg11.dtd">
<svg xmlns:xlink="http://www.w3.org/1999/xlink" width="415.540813pt" height="263.276584pt" viewBox="0 0 415.540813 263.276584" xmlns="http://www.w3.org/2000/svg" version="1.1">
 <metadata>
  <rdf:RDF xmlns:dc="http://purl.org/dc/elements/1.1/" xmlns:cc="http://creativecommons.org/ns#" xmlns:rdf="http://www.w3.org/1999/02/22-rdf-syntax-ns#">
   <cc:Work>
    <dc:type rdf:resource="http://purl.org/dc/dcmitype/StillImage"/>
    <dc:date>2022-12-05T08:58:04.473739</dc:date>
    <dc:format>image/svg+xml</dc:format>
    <dc:creator>
     <cc:Agent>
      <dc:title>Matplotlib v3.5.2, https://matplotlib.org/</dc:title>
     </cc:Agent>
    </dc:creator>
   </cc:Work>
  </rdf:RDF>
 </metadata>
 <defs>
  <style type="text/css">*{stroke-linejoin: round; stroke-linecap: butt}</style>
 </defs>
 <g id="figure_1">
  <g id="patch_1">
   <path d="M -0 263.276584 
L 415.540813 263.276584 
L 415.540813 0 
L -0 0 
z
" style="fill: #ffffff; stroke: #ffffff; stroke-linejoin: miter"/>
  </g>
  <g id="axes_1">
   <g id="patch_2">
    <path d="M 57.949438 223.499084 
L 225.349437 223.499084 
L 225.349437 57.179084 
L 57.949438 57.179084 
z
" style="fill: #ffffff"/>
   </g>
   <g id="matplotlib.axis_1">
    <g id="xtick_1">
     <g id="line2d_1">
      <path d="M 65.558528 223.499084 
" style="fill: none; stroke: #000000; stroke-width: 1.5"/>
      <defs>
       <path id="m329f1c8779" d="M 0 0 
L 0 2.75 
" style="stroke: #333333"/>
      </defs>
      <g>
       <use xlink:href="#m329f1c8779" x="65.558528" y="223.499084" style="stroke: #333333"/>
      </g>
     </g>
     <g id="text_1">
      <!-- 0 -->
      <g transform="translate(61.741028 237.567209)scale(0.12 -0.12)">
       <defs>
        <path id="DejaVuSans-30" d="M 2034 4250 
Q 1547 4250 1301 3770 
Q 1056 3291 1056 2328 
Q 1056 1369 1301 889 
Q 1547 409 2034 409 
Q 2525 409 2770 889 
Q 3016 1369 3016 2328 
Q 3016 3291 2770 3770 
Q 2525 4250 2034 4250 
z
M 2034 4750 
Q 2819 4750 3233 4129 
Q 3647 3509 3647 2328 
Q 3647 1150 3233 529 
Q 2819 -91 2034 -91 
Q 1250 -91 836 529 
Q 422 1150 422 2328 
Q 422 3509 836 4129 
Q 1250 4750 2034 4750 
z
" transform="scale(0.015625)"/>
       </defs>
       <use xlink:href="#DejaVuSans-30"/>
      </g>
     </g>
    </g>
    <g id="xtick_2">
     <g id="line2d_2">
      <path d="M 134.732082 223.499084 
" style="fill: none; stroke: #000000; stroke-width: 1.5"/>
      <g>
       <use xlink:href="#m329f1c8779" x="134.732082" y="223.499084" style="stroke: #333333"/>
      </g>
     </g>
     <g id="text_2">
      <!-- 0.1 -->
      <g transform="translate(125.190207 237.567209)scale(0.12 -0.12)">
       <defs>
        <path id="DejaVuSans-2e" d="M 684 794 
L 1344 794 
L 1344 0 
L 684 0 
L 684 794 
z
" transform="scale(0.015625)"/>
        <path id="DejaVuSans-31" d="M 794 531 
L 1825 531 
L 1825 4091 
L 703 3866 
L 703 4441 
L 1819 4666 
L 2450 4666 
L 2450 531 
L 3481 531 
L 3481 0 
L 794 0 
L 794 531 
z
" transform="scale(0.015625)"/>
       </defs>
       <use xlink:href="#DejaVuSans-30"/>
       <use xlink:href="#DejaVuSans-2e" x="63.623047"/>
       <use xlink:href="#DejaVuSans-31" x="95.410156"/>
      </g>
     </g>
    </g>
    <g id="xtick_3">
     <g id="line2d_3">
      <path d="M 203.905636 223.499084 
" style="fill: none; stroke: #000000; stroke-width: 1.5"/>
      <g>
       <use xlink:href="#m329f1c8779" x="203.905636" y="223.499084" style="stroke: #333333"/>
      </g>
     </g>
     <g id="text_3">
      <!-- 0.2 -->
      <g transform="translate(194.363761 237.567209)scale(0.12 -0.12)">
       <defs>
        <path id="DejaVuSans-32" d="M 1228 531 
L 3431 531 
L 3431 0 
L 469 0 
L 469 531 
Q 828 903 1448 1529 
Q 2069 2156 2228 2338 
Q 2531 2678 2651 2914 
Q 2772 3150 2772 3378 
Q 2772 3750 2511 3984 
Q 2250 4219 1831 4219 
Q 1534 4219 1204 4116 
Q 875 4013 500 3803 
L 500 4441 
Q 881 4594 1212 4672 
Q 1544 4750 1819 4750 
Q 2544 4750 2975 4387 
Q 3406 4025 3406 3419 
Q 3406 3131 3298 2873 
Q 3191 2616 2906 2266 
Q 2828 2175 2409 1742 
Q 1991 1309 1228 531 
z
" transform="scale(0.015625)"/>
       </defs>
       <use xlink:href="#DejaVuSans-30"/>
       <use xlink:href="#DejaVuSans-2e" x="63.623047"/>
       <use xlink:href="#DejaVuSans-32" x="95.410156"/>
      </g>
     </g>
    </g>
    <g id="xtick_4"/>
    <g id="xtick_5"/>
    <g id="text_4">
     <!-- fraction physical progeny -->
     <g transform="translate(62.8235 253.580959)scale(0.12 -0.12)">
      <defs>
       <path id="DejaVuSans-66" d="M 2375 4863 
L 2375 4384 
L 1825 4384 
Q 1516 4384 1395 4259 
Q 1275 4134 1275 3809 
L 1275 3500 
L 2222 3500 
L 2222 3053 
L 1275 3053 
L 1275 0 
L 697 0 
L 697 3053 
L 147 3053 
L 147 3500 
L 697 3500 
L 697 3744 
Q 697 4328 969 4595 
Q 1241 4863 1831 4863 
L 2375 4863 
z
" transform="scale(0.015625)"/>
       <path id="DejaVuSans-72" d="M 2631 2963 
Q 2534 3019 2420 3045 
Q 2306 3072 2169 3072 
Q 1681 3072 1420 2755 
Q 1159 2438 1159 1844 
L 1159 0 
L 581 0 
L 581 3500 
L 1159 3500 
L 1159 2956 
Q 1341 3275 1631 3429 
Q 1922 3584 2338 3584 
Q 2397 3584 2469 3576 
Q 2541 3569 2628 3553 
L 2631 2963 
z
" transform="scale(0.015625)"/>
       <path id="DejaVuSans-61" d="M 2194 1759 
Q 1497 1759 1228 1600 
Q 959 1441 959 1056 
Q 959 750 1161 570 
Q 1363 391 1709 391 
Q 2188 391 2477 730 
Q 2766 1069 2766 1631 
L 2766 1759 
L 2194 1759 
z
M 3341 1997 
L 3341 0 
L 2766 0 
L 2766 531 
Q 2569 213 2275 61 
Q 1981 -91 1556 -91 
Q 1019 -91 701 211 
Q 384 513 384 1019 
Q 384 1609 779 1909 
Q 1175 2209 1959 2209 
L 2766 2209 
L 2766 2266 
Q 2766 2663 2505 2880 
Q 2244 3097 1772 3097 
Q 1472 3097 1187 3025 
Q 903 2953 641 2809 
L 641 3341 
Q 956 3463 1253 3523 
Q 1550 3584 1831 3584 
Q 2591 3584 2966 3190 
Q 3341 2797 3341 1997 
z
" transform="scale(0.015625)"/>
       <path id="DejaVuSans-63" d="M 3122 3366 
L 3122 2828 
Q 2878 2963 2633 3030 
Q 2388 3097 2138 3097 
Q 1578 3097 1268 2742 
Q 959 2388 959 1747 
Q 959 1106 1268 751 
Q 1578 397 2138 397 
Q 2388 397 2633 464 
Q 2878 531 3122 666 
L 3122 134 
Q 2881 22 2623 -34 
Q 2366 -91 2075 -91 
Q 1284 -91 818 406 
Q 353 903 353 1747 
Q 353 2603 823 3093 
Q 1294 3584 2113 3584 
Q 2378 3584 2631 3529 
Q 2884 3475 3122 3366 
z
" transform="scale(0.015625)"/>
       <path id="DejaVuSans-74" d="M 1172 4494 
L 1172 3500 
L 2356 3500 
L 2356 3053 
L 1172 3053 
L 1172 1153 
Q 1172 725 1289 603 
Q 1406 481 1766 481 
L 2356 481 
L 2356 0 
L 1766 0 
Q 1100 0 847 248 
Q 594 497 594 1153 
L 594 3053 
L 172 3053 
L 172 3500 
L 594 3500 
L 594 4494 
L 1172 4494 
z
" transform="scale(0.015625)"/>
       <path id="DejaVuSans-69" d="M 603 3500 
L 1178 3500 
L 1178 0 
L 603 0 
L 603 3500 
z
M 603 4863 
L 1178 4863 
L 1178 4134 
L 603 4134 
L 603 4863 
z
" transform="scale(0.015625)"/>
       <path id="DejaVuSans-6f" d="M 1959 3097 
Q 1497 3097 1228 2736 
Q 959 2375 959 1747 
Q 959 1119 1226 758 
Q 1494 397 1959 397 
Q 2419 397 2687 759 
Q 2956 1122 2956 1747 
Q 2956 2369 2687 2733 
Q 2419 3097 1959 3097 
z
M 1959 3584 
Q 2709 3584 3137 3096 
Q 3566 2609 3566 1747 
Q 3566 888 3137 398 
Q 2709 -91 1959 -91 
Q 1206 -91 779 398 
Q 353 888 353 1747 
Q 353 2609 779 3096 
Q 1206 3584 1959 3584 
z
" transform="scale(0.015625)"/>
       <path id="DejaVuSans-6e" d="M 3513 2113 
L 3513 0 
L 2938 0 
L 2938 2094 
Q 2938 2591 2744 2837 
Q 2550 3084 2163 3084 
Q 1697 3084 1428 2787 
Q 1159 2491 1159 1978 
L 1159 0 
L 581 0 
L 581 3500 
L 1159 3500 
L 1159 2956 
Q 1366 3272 1645 3428 
Q 1925 3584 2291 3584 
Q 2894 3584 3203 3211 
Q 3513 2838 3513 2113 
z
" transform="scale(0.015625)"/>
       <path id="DejaVuSans-20" transform="scale(0.015625)"/>
       <path id="DejaVuSans-70" d="M 1159 525 
L 1159 -1331 
L 581 -1331 
L 581 3500 
L 1159 3500 
L 1159 2969 
Q 1341 3281 1617 3432 
Q 1894 3584 2278 3584 
Q 2916 3584 3314 3078 
Q 3713 2572 3713 1747 
Q 3713 922 3314 415 
Q 2916 -91 2278 -91 
Q 1894 -91 1617 61 
Q 1341 213 1159 525 
z
M 3116 1747 
Q 3116 2381 2855 2742 
Q 2594 3103 2138 3103 
Q 1681 3103 1420 2742 
Q 1159 2381 1159 1747 
Q 1159 1113 1420 752 
Q 1681 391 2138 391 
Q 2594 391 2855 752 
Q 3116 1113 3116 1747 
z
" transform="scale(0.015625)"/>
       <path id="DejaVuSans-68" d="M 3513 2113 
L 3513 0 
L 2938 0 
L 2938 2094 
Q 2938 2591 2744 2837 
Q 2550 3084 2163 3084 
Q 1697 3084 1428 2787 
Q 1159 2491 1159 1978 
L 1159 0 
L 581 0 
L 581 4863 
L 1159 4863 
L 1159 2956 
Q 1366 3272 1645 3428 
Q 1925 3584 2291 3584 
Q 2894 3584 3203 3211 
Q 3513 2838 3513 2113 
z
" transform="scale(0.015625)"/>
       <path id="DejaVuSans-79" d="M 2059 -325 
Q 1816 -950 1584 -1140 
Q 1353 -1331 966 -1331 
L 506 -1331 
L 506 -850 
L 844 -850 
Q 1081 -850 1212 -737 
Q 1344 -625 1503 -206 
L 1606 56 
L 191 3500 
L 800 3500 
L 1894 763 
L 2988 3500 
L 3597 3500 
L 2059 -325 
z
" transform="scale(0.015625)"/>
       <path id="DejaVuSans-73" d="M 2834 3397 
L 2834 2853 
Q 2591 2978 2328 3040 
Q 2066 3103 1784 3103 
Q 1356 3103 1142 2972 
Q 928 2841 928 2578 
Q 928 2378 1081 2264 
Q 1234 2150 1697 2047 
L 1894 2003 
Q 2506 1872 2764 1633 
Q 3022 1394 3022 966 
Q 3022 478 2636 193 
Q 2250 -91 1575 -91 
Q 1294 -91 989 -36 
Q 684 19 347 128 
L 347 722 
Q 666 556 975 473 
Q 1284 391 1588 391 
Q 1994 391 2212 530 
Q 2431 669 2431 922 
Q 2431 1156 2273 1281 
Q 2116 1406 1581 1522 
L 1381 1569 
Q 847 1681 609 1914 
Q 372 2147 372 2553 
Q 372 3047 722 3315 
Q 1072 3584 1716 3584 
Q 2034 3584 2315 3537 
Q 2597 3491 2834 3397 
z
" transform="scale(0.015625)"/>
       <path id="DejaVuSans-6c" d="M 603 4863 
L 1178 4863 
L 1178 0 
L 603 0 
L 603 4863 
z
" transform="scale(0.015625)"/>
       <path id="DejaVuSans-67" d="M 2906 1791 
Q 2906 2416 2648 2759 
Q 2391 3103 1925 3103 
Q 1463 3103 1205 2759 
Q 947 2416 947 1791 
Q 947 1169 1205 825 
Q 1463 481 1925 481 
Q 2391 481 2648 825 
Q 2906 1169 2906 1791 
z
M 3481 434 
Q 3481 -459 3084 -895 
Q 2688 -1331 1869 -1331 
Q 1566 -1331 1297 -1286 
Q 1028 -1241 775 -1147 
L 775 -588 
Q 1028 -725 1275 -790 
Q 1522 -856 1778 -856 
Q 2344 -856 2625 -561 
Q 2906 -266 2906 331 
L 2906 616 
Q 2728 306 2450 153 
Q 2172 0 1784 0 
Q 1141 0 747 490 
Q 353 981 353 1791 
Q 353 2603 747 3093 
Q 1141 3584 1784 3584 
Q 2172 3584 2450 3431 
Q 2728 3278 2906 2969 
L 2906 3500 
L 3481 3500 
L 3481 434 
z
" transform="scale(0.015625)"/>
       <path id="DejaVuSans-65" d="M 3597 1894 
L 3597 1613 
L 953 1613 
Q 991 1019 1311 708 
Q 1631 397 2203 397 
Q 2534 397 2845 478 
Q 3156 559 3463 722 
L 3463 178 
Q 3153 47 2828 -22 
Q 2503 -91 2169 -91 
Q 1331 -91 842 396 
Q 353 884 353 1716 
Q 353 2575 817 3079 
Q 1281 3584 2069 3584 
Q 2775 3584 3186 3129 
Q 3597 2675 3597 1894 
z
M 3022 2063 
Q 3016 2534 2758 2815 
Q 2500 3097 2075 3097 
Q 1594 3097 1305 2825 
Q 1016 2553 972 2059 
L 3022 2063 
z
" transform="scale(0.015625)"/>
      </defs>
      <use xlink:href="#DejaVuSans-66"/>
      <use xlink:href="#DejaVuSans-72" x="35.205078"/>
      <use xlink:href="#DejaVuSans-61" x="76.318359"/>
      <use xlink:href="#DejaVuSans-63" x="137.597656"/>
      <use xlink:href="#DejaVuSans-74" x="192.578125"/>
      <use xlink:href="#DejaVuSans-69" x="231.787109"/>
      <use xlink:href="#DejaVuSans-6f" x="259.570312"/>
      <use xlink:href="#DejaVuSans-6e" x="320.751953"/>
      <use xlink:href="#DejaVuSans-20" x="384.130859"/>
      <use xlink:href="#DejaVuSans-70" x="415.917969"/>
      <use xlink:href="#DejaVuSans-68" x="479.394531"/>
      <use xlink:href="#DejaVuSans-79" x="542.773438"/>
      <use xlink:href="#DejaVuSans-73" x="601.953125"/>
      <use xlink:href="#DejaVuSans-69" x="654.052734"/>
      <use xlink:href="#DejaVuSans-63" x="681.835938"/>
      <use xlink:href="#DejaVuSans-61" x="736.816406"/>
      <use xlink:href="#DejaVuSans-6c" x="798.095703"/>
      <use xlink:href="#DejaVuSans-20" x="825.878906"/>
      <use xlink:href="#DejaVuSans-70" x="857.666016"/>
      <use xlink:href="#DejaVuSans-72" x="921.142578"/>
      <use xlink:href="#DejaVuSans-6f" x="960.005859"/>
      <use xlink:href="#DejaVuSans-67" x="1021.1875"/>
      <use xlink:href="#DejaVuSans-65" x="1084.664062"/>
      <use xlink:href="#DejaVuSans-6e" x="1146.1875"/>
      <use xlink:href="#DejaVuSans-79" x="1209.566406"/>
     </g>
    </g>
   </g>
   <g id="matplotlib.axis_2">
    <g id="ytick_1">
     <g id="line2d_4">
      <path d="M 57.949438 215.939084 
" style="fill: none; stroke: #000000; stroke-width: 1.5"/>
      <defs>
       <path id="m2294e07921" d="M 0 0 
L -2.75 0 
" style="stroke: #333333"/>
      </defs>
      <g>
       <use xlink:href="#m2294e07921" x="57.949438" y="215.939084" style="stroke: #333333"/>
      </g>
     </g>
     <g id="text_5">
      <!-- 0 -->
      <g transform="translate(45.364438 219.250334)scale(0.12 -0.12)">
       <use xlink:href="#DejaVuSans-30"/>
      </g>
     </g>
    </g>
    <g id="ytick_2">
     <g id="line2d_5">
      <path d="M 57.949438 147.211811 
" style="fill: none; stroke: #000000; stroke-width: 1.5"/>
      <g>
       <use xlink:href="#m2294e07921" x="57.949438" y="147.211811" style="stroke: #333333"/>
      </g>
     </g>
     <g id="text_6">
      <!-- 0.1 -->
      <g transform="translate(33.915688 150.523061)scale(0.12 -0.12)">
       <use xlink:href="#DejaVuSans-30"/>
       <use xlink:href="#DejaVuSans-2e" x="63.623047"/>
       <use xlink:href="#DejaVuSans-31" x="95.410156"/>
      </g>
     </g>
    </g>
    <g id="ytick_3">
     <g id="line2d_6">
      <path d="M 57.949438 78.484538 
" style="fill: none; stroke: #000000; stroke-width: 1.5"/>
      <g>
       <use xlink:href="#m2294e07921" x="57.949438" y="78.484538" style="stroke: #333333"/>
      </g>
     </g>
     <g id="text_7">
      <!-- 0.2 -->
      <g transform="translate(33.915688 81.795788)scale(0.12 -0.12)">
       <use xlink:href="#DejaVuSans-30"/>
       <use xlink:href="#DejaVuSans-2e" x="63.623047"/>
       <use xlink:href="#DejaVuSans-32" x="95.410156"/>
      </g>
     </g>
    </g>
    <g id="ytick_4"/>
    <g id="ytick_5"/>
    <g id="text_8">
     <!-- fraction  -->
     <g transform="translate(16.318125 164.213459)rotate(-90)scale(0.12 -0.12)">
      <use xlink:href="#DejaVuSans-66"/>
      <use xlink:href="#DejaVuSans-72" x="35.205078"/>
      <use xlink:href="#DejaVuSans-61" x="76.318359"/>
      <use xlink:href="#DejaVuSans-63" x="137.597656"/>
      <use xlink:href="#DejaVuSans-74" x="192.578125"/>
      <use xlink:href="#DejaVuSans-69" x="231.787109"/>
      <use xlink:href="#DejaVuSans-6f" x="259.570312"/>
      <use xlink:href="#DejaVuSans-6e" x="320.751953"/>
      <use xlink:href="#DejaVuSans-20" x="384.130859"/>
     </g>
     <!-- infectious progeny -->
     <g transform="translate(27.020063 195.023459)rotate(-90)scale(0.12 -0.12)">
      <defs>
       <path id="DejaVuSans-75" d="M 544 1381 
L 544 3500 
L 1119 3500 
L 1119 1403 
Q 1119 906 1312 657 
Q 1506 409 1894 409 
Q 2359 409 2629 706 
Q 2900 1003 2900 1516 
L 2900 3500 
L 3475 3500 
L 3475 0 
L 2900 0 
L 2900 538 
Q 2691 219 2414 64 
Q 2138 -91 1772 -91 
Q 1169 -91 856 284 
Q 544 659 544 1381 
z
M 1991 3584 
L 1991 3584 
z
" transform="scale(0.015625)"/>
      </defs>
      <use xlink:href="#DejaVuSans-69"/>
      <use xlink:href="#DejaVuSans-6e" x="27.783203"/>
      <use xlink:href="#DejaVuSans-66" x="91.162109"/>
      <use xlink:href="#DejaVuSans-65" x="126.367188"/>
      <use xlink:href="#DejaVuSans-63" x="187.890625"/>
      <use xlink:href="#DejaVuSans-74" x="242.871094"/>
      <use xlink:href="#DejaVuSans-69" x="282.080078"/>
      <use xlink:href="#DejaVuSans-6f" x="309.863281"/>
      <use xlink:href="#DejaVuSans-75" x="371.044922"/>
      <use xlink:href="#DejaVuSans-73" x="434.423828"/>
      <use xlink:href="#DejaVuSans-20" x="486.523438"/>
      <use xlink:href="#DejaVuSans-70" x="518.310547"/>
      <use xlink:href="#DejaVuSans-72" x="581.787109"/>
      <use xlink:href="#DejaVuSans-6f" x="620.650391"/>
      <use xlink:href="#DejaVuSans-67" x="681.832031"/>
      <use xlink:href="#DejaVuSans-65" x="745.308594"/>
      <use xlink:href="#DejaVuSans-6e" x="806.832031"/>
      <use xlink:href="#DejaVuSans-79" x="870.210938"/>
     </g>
    </g>
   </g>
   <g id="PathCollection_1">
    <path d="M 74.151388 218.204142 
C 74.973994 218.204142 75.763018 217.877318 76.344688 217.295648 
C 76.926358 216.713978 77.253183 215.924954 77.253183 215.102348 
C 77.253183 214.279743 76.926358 213.490718 76.344688 212.909048 
C 75.763018 212.327378 74.973994 212.000554 74.151388 212.000554 
C 73.328783 212.000554 72.539759 212.327378 71.958089 212.909048 
C 71.376419 213.490718 71.049594 214.279743 71.049594 215.102348 
C 71.049594 215.924954 71.376419 216.713978 71.958089 217.295648 
C 72.539759 217.877318 73.328783 218.204142 74.151388 218.204142 
z
" clip-path="url(#p1521ee040c)" style="fill: #ff5349; fill-opacity: 0.4; stroke: #ff5349; stroke-opacity: 0.4; stroke-width: 0.886227"/>
    <path d="M 65.683013 218.895062 
C 66.505618 218.895062 67.294643 218.568238 67.876313 217.986568 
C 68.457983 217.404898 68.784807 216.615873 68.784807 215.793268 
C 68.784807 214.970663 68.457983 214.181638 67.876313 213.599968 
C 67.294643 213.018298 66.505618 212.691474 65.683013 212.691474 
C 64.860408 212.691474 64.071383 213.018298 63.489713 213.599968 
C 62.908043 214.181638 62.581219 214.970663 62.581219 215.793268 
C 62.581219 216.615873 62.908043 217.404898 63.489713 217.986568 
C 64.071383 218.568238 64.860408 218.895062 65.683013 218.895062 
z
" clip-path="url(#p1521ee040c)" style="fill: #0072b2; fill-opacity: 0.4; stroke: #0072b2; stroke-opacity: 0.4; stroke-width: 0.886227"/>
    <path d="M 67.293546 218.736494 
C 68.116151 218.736494 68.905176 218.40967 69.486845 217.828 
C 70.068515 217.24633 70.39534 216.457306 70.39534 215.6347 
C 70.39534 214.812095 70.068515 214.02307 69.486845 213.4414 
C 68.905176 212.859731 68.116151 212.532906 67.293546 212.532906 
C 66.47094 212.532906 65.681916 212.859731 65.100246 213.4414 
C 64.518576 214.02307 64.191751 214.812095 64.191751 215.6347 
C 64.191751 216.457306 64.518576 217.24633 65.100246 217.828 
C 65.681916 218.40967 66.47094 218.736494 67.293546 218.736494 
z
" clip-path="url(#p1521ee040c)" style="fill: #999999; fill-opacity: 0.4; stroke: #999999; stroke-opacity: 0.4; stroke-width: 0.886227"/>
    <path d="M 65.89232 216.374872 
C 66.714925 216.374872 67.503949 216.048048 68.085619 215.466378 
C 68.667289 214.884708 68.994114 214.095684 68.994114 213.273078 
C 68.994114 212.450473 68.667289 211.661448 68.085619 211.079778 
C 67.503949 210.498108 66.714925 210.171284 65.89232 210.171284 
C 65.069714 210.171284 64.28069 210.498108 63.69902 211.079778 
C 63.11735 211.661448 62.790525 212.450473 62.790525 213.273078 
C 62.790525 214.095684 63.11735 214.884708 63.69902 215.466378 
C 64.28069 216.048048 65.069714 216.374872 65.89232 216.374872 
z
" clip-path="url(#p1521ee040c)" style="fill: #999999; fill-opacity: 0.4; stroke: #999999; stroke-opacity: 0.4; stroke-width: 0.886227"/>
    <path d="M 65.683013 218.895062 
C 66.505618 218.895062 67.294643 218.568238 67.876313 217.986568 
C 68.457983 217.404898 68.784807 216.615873 68.784807 215.793268 
C 68.784807 214.970663 68.457983 214.181638 67.876313 213.599968 
C 67.294643 213.018298 66.505618 212.691474 65.683013 212.691474 
C 64.860408 212.691474 64.071383 213.018298 63.489713 213.599968 
C 62.908043 214.181638 62.581219 214.970663 62.581219 215.793268 
C 62.581219 216.615873 62.908043 217.404898 63.489713 217.986568 
C 64.071383 218.568238 64.860408 218.895062 65.683013 218.895062 
z
" clip-path="url(#p1521ee040c)" style="fill: #ff5349; fill-opacity: 0.4; stroke: #ff5349; stroke-opacity: 0.4; stroke-width: 0.886227"/>
    <path d="M 67.660889 218.711116 
C 68.483495 218.711116 69.272519 218.384291 69.854189 217.802621 
C 70.435859 217.220952 70.762684 216.431927 70.762684 215.609322 
C 70.762684 214.786716 70.435859 213.997692 69.854189 213.416022 
C 69.272519 212.834352 68.483495 212.507527 67.660889 212.507527 
C 66.838284 212.507527 66.04926 212.834352 65.46759 213.416022 
C 64.88592 213.997692 64.559095 214.786716 64.559095 215.609322 
C 64.559095 216.431927 64.88592 217.220952 65.46759 217.802621 
C 66.04926 218.384291 66.838284 218.711116 67.660889 218.711116 
z
" clip-path="url(#p1521ee040c)" style="fill: #0072b2; fill-opacity: 0.4; stroke: #0072b2; stroke-opacity: 0.4; stroke-width: 0.886227"/>
    <path d="M 65.734576 218.834663 
C 66.557182 218.834663 67.346206 218.507839 67.927876 217.926169 
C 68.509546 217.344499 68.83637 216.555475 68.83637 215.732869 
C 68.83637 214.910264 68.509546 214.121239 67.927876 213.539569 
C 67.346206 212.957899 66.557182 212.631075 65.734576 212.631075 
C 64.911971 212.631075 64.122946 212.957899 63.541277 213.539569 
C 62.959607 214.121239 62.632782 214.910264 62.632782 215.732869 
C 62.632782 216.555475 62.959607 217.344499 63.541277 217.926169 
C 64.122946 218.507839 64.911971 218.834663 65.734576 218.834663 
z
" clip-path="url(#p1521ee040c)" style="fill: #0072b2; fill-opacity: 0.4; stroke: #0072b2; stroke-opacity: 0.4; stroke-width: 0.886227"/>
    <path d="M 65.683013 218.895062 
C 66.505618 218.895062 67.294643 218.568238 67.876313 217.986568 
C 68.457983 217.404898 68.784807 216.615873 68.784807 215.793268 
C 68.784807 214.970663 68.457983 214.181638 67.876313 213.599968 
C 67.294643 213.018298 66.505618 212.691474 65.683013 212.691474 
C 64.860408 212.691474 64.071383 213.018298 63.489713 213.599968 
C 62.908043 214.181638 62.581219 214.970663 62.581219 215.793268 
C 62.581219 216.615873 62.908043 217.404898 63.489713 217.986568 
C 64.071383 218.568238 64.860408 218.895062 65.683013 218.895062 
z
" clip-path="url(#p1521ee040c)" style="fill: #999999; fill-opacity: 0.4; stroke: #999999; stroke-opacity: 0.4; stroke-width: 0.886227"/>
    <path d="M 66.969876 218.615771 
C 67.792481 218.615771 68.581506 218.288947 69.163176 217.707277 
C 69.744845 217.125607 70.07167 216.336583 70.07167 215.513977 
C 70.07167 214.691372 69.744845 213.902347 69.163176 213.320677 
C 68.581506 212.739008 67.792481 212.412183 66.969876 212.412183 
C 66.14727 212.412183 65.358246 212.739008 64.776576 213.320677 
C 64.194906 213.902347 63.868082 214.691372 63.868082 215.513977 
C 63.868082 216.336583 64.194906 217.125607 64.776576 217.707277 
C 65.358246 218.288947 66.14727 218.615771 66.969876 218.615771 
z
" clip-path="url(#p1521ee040c)" style="fill: #0072b2; fill-opacity: 0.4; stroke: #0072b2; stroke-opacity: 0.4; stroke-width: 0.886227"/>
    <path d="M 90.421925 218.744724 
C 91.24453 218.744724 92.033555 218.417899 92.615225 217.836229 
C 93.196895 217.25456 93.523719 216.465535 93.523719 215.64293 
C 93.523719 214.820324 93.196895 214.0313 92.615225 213.44963 
C 92.033555 212.86796 91.24453 212.541136 90.421925 212.541136 
C 89.59932 212.541136 88.810295 212.86796 88.228625 213.44963 
C 87.646955 214.0313 87.320131 214.820324 87.320131 215.64293 
C 87.320131 216.465535 87.646955 217.25456 88.228625 217.836229 
C 88.810295 218.417899 89.59932 218.744724 90.421925 218.744724 
z
" clip-path="url(#p1521ee040c)" style="fill: #0072b2; fill-opacity: 0.4; stroke: #0072b2; stroke-opacity: 0.4; stroke-width: 0.886227"/>
    <path d="M 85.559029 218.209792 
C 86.381635 218.209792 87.170659 217.882968 87.752329 217.301298 
C 88.333999 216.719628 88.660824 215.930603 88.660824 215.107998 
C 88.660824 214.285392 88.333999 213.496368 87.752329 212.914698 
C 87.170659 212.333028 86.381635 212.006204 85.559029 212.006204 
C 84.736424 212.006204 83.947399 212.333028 83.36573 212.914698 
C 82.78406 213.496368 82.457235 214.285392 82.457235 215.107998 
C 82.457235 215.930603 82.78406 216.719628 83.36573 217.301298 
C 83.947399 217.882968 84.736424 218.209792 85.559029 218.209792 
z
" clip-path="url(#p1521ee040c)" style="fill: #ff5349; fill-opacity: 0.4; stroke: #ff5349; stroke-opacity: 0.4; stroke-width: 0.886227"/>
    <path d="M 69.336684 207.387554 
C 70.15929 207.387554 70.948314 207.06073 71.529984 206.47906 
C 72.111654 205.89739 72.438478 205.108365 72.438478 204.28576 
C 72.438478 203.463154 72.111654 202.67413 71.529984 202.09246 
C 70.948314 201.51079 70.15929 201.183966 69.336684 201.183966 
C 68.514079 201.183966 67.725054 201.51079 67.143384 202.09246 
C 66.561714 202.67413 66.23489 203.463154 66.23489 204.28576 
C 66.23489 205.108365 66.561714 205.89739 67.143384 206.47906 
C 67.725054 207.06073 68.514079 207.387554 69.336684 207.387554 
z
" clip-path="url(#p1521ee040c)" style="fill: #999999; fill-opacity: 0.4; stroke: #999999; stroke-opacity: 0.4; stroke-width: 0.886227"/>
    <path d="M 75.056172 213.947687 
C 75.878777 213.947687 76.667802 213.620862 77.249472 213.039193 
C 77.831141 212.457523 78.157966 211.668498 78.157966 210.845893 
C 78.157966 210.023287 77.831141 209.234263 77.249472 208.652593 
C 76.667802 208.070923 75.878777 207.744099 75.056172 207.744099 
C 74.233566 207.744099 73.444542 208.070923 72.862872 208.652593 
C 72.281202 209.234263 71.954378 210.023287 71.954378 210.845893 
C 71.954378 211.668498 72.281202 212.457523 72.862872 213.039193 
C 73.444542 213.620862 74.233566 213.947687 75.056172 213.947687 
z
" clip-path="url(#p1521ee040c)" style="fill: #0072b2; fill-opacity: 0.4; stroke: #0072b2; stroke-opacity: 0.4; stroke-width: 0.886227"/>
    <path d="M 65.683013 218.895062 
C 66.505618 218.895062 67.294643 218.568238 67.876313 217.986568 
C 68.457983 217.404898 68.784807 216.615873 68.784807 215.793268 
C 68.784807 214.970663 68.457983 214.181638 67.876313 213.599968 
C 67.294643 213.018298 66.505618 212.691474 65.683013 212.691474 
C 64.860408 212.691474 64.071383 213.018298 63.489713 213.599968 
C 62.908043 214.181638 62.581219 214.970663 62.581219 215.793268 
C 62.581219 216.615873 62.908043 217.404898 63.489713 217.986568 
C 64.071383 218.568238 64.860408 218.895062 65.683013 218.895062 
z
" clip-path="url(#p1521ee040c)" style="fill: #ff5349; fill-opacity: 0.4; stroke: #ff5349; stroke-opacity: 0.4; stroke-width: 0.886227"/>
    <path d="M 65.683013 218.895062 
C 66.505618 218.895062 67.294643 218.568238 67.876313 217.986568 
C 68.457983 217.404898 68.784807 216.615873 68.784807 215.793268 
C 68.784807 214.970663 68.457983 214.181638 67.876313 213.599968 
C 67.294643 213.018298 66.505618 212.691474 65.683013 212.691474 
C 64.860408 212.691474 64.071383 213.018298 63.489713 213.599968 
C 62.908043 214.181638 62.581219 214.970663 62.581219 215.793268 
C 62.581219 216.615873 62.908043 217.404898 63.489713 217.986568 
C 64.071383 218.568238 64.860408 218.895062 65.683013 218.895062 
z
" clip-path="url(#p1521ee040c)" style="fill: #0072b2; fill-opacity: 0.4; stroke: #0072b2; stroke-opacity: 0.4; stroke-width: 0.886227"/>
    <path d="M 65.734576 218.834663 
C 66.557182 218.834663 67.346206 218.507839 67.927876 217.926169 
C 68.509546 217.344499 68.83637 216.555475 68.83637 215.732869 
C 68.83637 214.910264 68.509546 214.121239 67.927876 213.539569 
C 67.346206 212.957899 66.557182 212.631075 65.734576 212.631075 
C 64.911971 212.631075 64.122946 212.957899 63.541277 213.539569 
C 62.959607 214.121239 62.632782 214.910264 62.632782 215.732869 
C 62.632782 216.555475 62.959607 217.344499 63.541277 217.926169 
C 64.122946 218.507839 64.911971 218.834663 65.734576 218.834663 
z
" clip-path="url(#p1521ee040c)" style="fill: #0072b2; fill-opacity: 0.4; stroke: #0072b2; stroke-opacity: 0.4; stroke-width: 0.886227"/>
    <path d="M 98.819454 147.488657 
C 99.642059 147.488657 100.431084 147.161832 101.012754 146.580162 
C 101.594423 145.998492 101.921248 145.209468 101.921248 144.386863 
C 101.921248 143.564257 101.594423 142.775233 101.012754 142.193563 
C 100.431084 141.611893 99.642059 141.285068 98.819454 141.285068 
C 97.996848 141.285068 97.207824 141.611893 96.626154 142.193563 
C 96.044484 142.775233 95.71766 143.564257 95.71766 144.386863 
C 95.71766 145.209468 96.044484 145.998492 96.626154 146.580162 
C 97.207824 147.161832 97.996848 147.488657 98.819454 147.488657 
z
" clip-path="url(#p1521ee040c)" style="fill: #999999; fill-opacity: 0.4; stroke: #999999; stroke-opacity: 0.4; stroke-width: 0.886227"/>
    <path d="M 65.683013 218.895062 
C 66.505618 218.895062 67.294643 218.568238 67.876313 217.986568 
C 68.457983 217.404898 68.784807 216.615873 68.784807 215.793268 
C 68.784807 214.970663 68.457983 214.181638 67.876313 213.599968 
C 67.294643 213.018298 66.505618 212.691474 65.683013 212.691474 
C 64.860408 212.691474 64.071383 213.018298 63.489713 213.599968 
C 62.908043 214.181638 62.581219 214.970663 62.581219 215.793268 
C 62.581219 216.615873 62.908043 217.404898 63.489713 217.986568 
C 64.071383 218.568238 64.860408 218.895062 65.683013 218.895062 
z
" clip-path="url(#p1521ee040c)" style="fill: #999999; fill-opacity: 0.4; stroke: #999999; stroke-opacity: 0.4; stroke-width: 0.886227"/>
    <path d="M 65.683013 218.895062 
C 66.505618 218.895062 67.294643 218.568238 67.876313 217.986568 
C 68.457983 217.404898 68.784807 216.615873 68.784807 215.793268 
C 68.784807 214.970663 68.457983 214.181638 67.876313 213.599968 
C 67.294643 213.018298 66.505618 212.691474 65.683013 212.691474 
C 64.860408 212.691474 64.071383 213.018298 63.489713 213.599968 
C 62.908043 214.181638 62.581219 214.970663 62.581219 215.793268 
C 62.581219 216.615873 62.908043 217.404898 63.489713 217.986568 
C 64.071383 218.568238 64.860408 218.895062 65.683013 218.895062 
z
" clip-path="url(#p1521ee040c)" style="fill: #ff5349; fill-opacity: 0.4; stroke: #ff5349; stroke-opacity: 0.4; stroke-width: 0.886227"/>
    <path d="M 87.335463 216.90896 
C 88.158068 216.90896 88.947093 216.582135 89.528763 216.000465 
C 90.110432 215.418796 90.437257 214.629771 90.437257 213.807166 
C 90.437257 212.98456 90.110432 212.195536 89.528763 211.613866 
C 88.947093 211.032196 88.158068 210.705371 87.335463 210.705371 
C 86.512857 210.705371 85.723833 211.032196 85.142163 211.613866 
C 84.560493 212.195536 84.233669 212.98456 84.233669 213.807166 
C 84.233669 214.629771 84.560493 215.418796 85.142163 216.000465 
C 85.723833 216.582135 86.512857 216.90896 87.335463 216.90896 
z
" clip-path="url(#p1521ee040c)" style="fill: #999999; fill-opacity: 0.4; stroke: #999999; stroke-opacity: 0.4; stroke-width: 0.886227"/>
    <path d="M 65.807498 218.749246 
C 66.630103 218.749246 67.419128 218.422422 68.000797 217.840752 
C 68.582467 217.259082 68.909292 216.470058 68.909292 215.647452 
C 68.909292 214.824847 68.582467 214.035822 68.000797 213.454152 
C 67.419128 212.872483 66.630103 212.545658 65.807498 212.545658 
C 64.984892 212.545658 64.195868 212.872483 63.614198 213.454152 
C 63.032528 214.035822 62.705703 214.824847 62.705703 215.647452 
C 62.705703 216.470058 63.032528 217.259082 63.614198 217.840752 
C 64.195868 218.422422 64.984892 218.749246 65.807498 218.749246 
z
" clip-path="url(#p1521ee040c)" style="fill: #0072b2; fill-opacity: 0.4; stroke: #0072b2; stroke-opacity: 0.4; stroke-width: 0.886227"/>
    <path d="M 76.65275 214.322814 
C 77.475355 214.322814 78.26438 213.995989 78.84605 213.414319 
C 79.42772 212.83265 79.754544 212.043625 79.754544 211.22102 
C 79.754544 210.398414 79.42772 209.60939 78.84605 209.02772 
C 78.26438 208.44605 77.475355 208.119225 76.65275 208.119225 
C 75.830144 208.119225 75.04112 208.44605 74.45945 209.02772 
C 73.87778 209.60939 73.550956 210.398414 73.550956 211.22102 
C 73.550956 212.043625 73.87778 212.83265 74.45945 213.414319 
C 75.04112 213.995989 75.830144 214.322814 76.65275 214.322814 
z
" clip-path="url(#p1521ee040c)" style="fill: #0072b2; fill-opacity: 0.4; stroke: #0072b2; stroke-opacity: 0.4; stroke-width: 0.886227"/>
    <path d="M 83.281318 215.463587 
C 84.103923 215.463587 84.892948 215.136763 85.474617 214.555093 
C 86.056287 213.973423 86.383112 213.184399 86.383112 212.361793 
C 86.383112 211.539188 86.056287 210.750163 85.474617 210.168493 
C 84.892948 209.586823 84.103923 209.259999 83.281318 209.259999 
C 82.458712 209.259999 81.669688 209.586823 81.088018 210.168493 
C 80.506348 210.750163 80.179523 211.539188 80.179523 212.361793 
C 80.179523 213.184399 80.506348 213.973423 81.088018 214.555093 
C 81.669688 215.136763 82.458712 215.463587 83.281318 215.463587 
z
" clip-path="url(#p1521ee040c)" style="fill: #999999; fill-opacity: 0.4; stroke: #999999; stroke-opacity: 0.4; stroke-width: 0.886227"/>
    <path d="M 65.734576 218.834663 
C 66.557182 218.834663 67.346206 218.507839 67.927876 217.926169 
C 68.509546 217.344499 68.83637 216.555475 68.83637 215.732869 
C 68.83637 214.910264 68.509546 214.121239 67.927876 213.539569 
C 67.346206 212.957899 66.557182 212.631075 65.734576 212.631075 
C 64.911971 212.631075 64.122946 212.957899 63.541277 213.539569 
C 62.959607 214.121239 62.632782 214.910264 62.632782 215.732869 
C 62.632782 216.555475 62.959607 217.344499 63.541277 217.926169 
C 64.122946 218.507839 64.911971 218.834663 65.734576 218.834663 
z
" clip-path="url(#p1521ee040c)" style="fill: #0072b2; fill-opacity: 0.4; stroke: #0072b2; stroke-opacity: 0.4; stroke-width: 0.886227"/>
    <path d="M 79.308665 207.573043 
C 80.131271 207.573043 80.920295 207.246219 81.501965 206.664549 
C 82.083635 206.082879 82.41046 205.293855 82.41046 204.471249 
C 82.41046 203.648644 82.083635 202.859619 81.501965 202.277949 
C 80.920295 201.696279 80.131271 201.369455 79.308665 201.369455 
C 78.48606 201.369455 77.697036 201.696279 77.115366 202.277949 
C 76.533696 202.859619 76.206871 203.648644 76.206871 204.471249 
C 76.206871 205.293855 76.533696 206.082879 77.115366 206.664549 
C 77.697036 207.246219 78.48606 207.573043 79.308665 207.573043 
z
" clip-path="url(#p1521ee040c)" style="fill: #999999; fill-opacity: 0.4; stroke: #999999; stroke-opacity: 0.4; stroke-width: 0.886227"/>
    <path d="M 65.683013 218.895062 
C 66.505618 218.895062 67.294643 218.568238 67.876313 217.986568 
C 68.457983 217.404898 68.784807 216.615873 68.784807 215.793268 
C 68.784807 214.970663 68.457983 214.181638 67.876313 213.599968 
C 67.294643 213.018298 66.505618 212.691474 65.683013 212.691474 
C 64.860408 212.691474 64.071383 213.018298 63.489713 213.599968 
C 62.908043 214.181638 62.581219 214.970663 62.581219 215.793268 
C 62.581219 216.615873 62.908043 217.404898 63.489713 217.986568 
C 64.071383 218.568238 64.860408 218.895062 65.683013 218.895062 
z
" clip-path="url(#p1521ee040c)" style="fill: #ff5349; fill-opacity: 0.4; stroke: #ff5349; stroke-opacity: 0.4; stroke-width: 0.886227"/>
    <path d="M 65.683013 218.895062 
C 66.505618 218.895062 67.294643 218.568238 67.876313 217.986568 
C 68.457983 217.404898 68.784807 216.615873 68.784807 215.793268 
C 68.784807 214.970663 68.457983 214.181638 67.876313 213.599968 
C 67.294643 213.018298 66.505618 212.691474 65.683013 212.691474 
C 64.860408 212.691474 64.071383 213.018298 63.489713 213.599968 
C 62.908043 214.181638 62.581219 214.970663 62.581219 215.793268 
C 62.581219 216.615873 62.908043 217.404898 63.489713 217.986568 
C 64.071383 218.568238 64.860408 218.895062 65.683013 218.895062 
z
" clip-path="url(#p1521ee040c)" style="fill: #999999; fill-opacity: 0.4; stroke: #999999; stroke-opacity: 0.4; stroke-width: 0.886227"/>
    <path d="M 69.051789 218.788318 
C 69.874395 218.788318 70.663419 218.461493 71.245089 217.879823 
C 71.826759 217.298153 72.153583 216.509129 72.153583 215.686523 
C 72.153583 214.863918 71.826759 214.074894 71.245089 213.493224 
C 70.663419 212.911554 69.874395 212.584729 69.051789 212.584729 
C 68.229184 212.584729 67.440159 212.911554 66.858489 213.493224 
C 66.27682 214.074894 65.949995 214.863918 65.949995 215.686523 
C 65.949995 216.509129 66.27682 217.298153 66.858489 217.879823 
C 67.440159 218.461493 68.229184 218.788318 69.051789 218.788318 
z
" clip-path="url(#p1521ee040c)" style="fill: #999999; fill-opacity: 0.4; stroke: #999999; stroke-opacity: 0.4; stroke-width: 0.886227"/>
    <path d="M 67.57603 218.895062 
C 68.398635 218.895062 69.187659 218.568238 69.769329 217.986568 
C 70.350999 217.404898 70.677824 216.615873 70.677824 215.793268 
C 70.677824 214.970663 70.350999 214.181638 69.769329 213.599968 
C 69.187659 213.018298 68.398635 212.691474 67.57603 212.691474 
C 66.753424 212.691474 65.9644 213.018298 65.38273 213.599968 
C 64.80106 214.181638 64.474235 214.970663 64.474235 215.793268 
C 64.474235 216.615873 64.80106 217.404898 65.38273 217.986568 
C 65.9644 218.568238 66.753424 218.895062 67.57603 218.895062 
z
" clip-path="url(#p1521ee040c)" style="fill: #999999; fill-opacity: 0.4; stroke: #999999; stroke-opacity: 0.4; stroke-width: 0.886227"/>
    <path d="M 66.042759 218.749246 
C 66.865364 218.749246 67.654389 218.422422 68.236058 217.840752 
C 68.817728 217.259082 69.144553 216.470058 69.144553 215.647452 
C 69.144553 214.824847 68.817728 214.035822 68.236058 213.454152 
C 67.654389 212.872483 66.865364 212.545658 66.042759 212.545658 
C 65.220153 212.545658 64.431129 212.872483 63.849459 213.454152 
C 63.267789 214.035822 62.940964 214.824847 62.940964 215.647452 
C 62.940964 216.470058 63.267789 217.259082 63.849459 217.840752 
C 64.431129 218.422422 65.220153 218.749246 66.042759 218.749246 
z
" clip-path="url(#p1521ee040c)" style="fill: #ff5349; fill-opacity: 0.4; stroke: #ff5349; stroke-opacity: 0.4; stroke-width: 0.886227"/>
    <path d="M 76.870704 192.786505 
C 77.693309 192.786505 78.482334 192.459681 79.064004 191.878011 
C 79.645674 191.296341 79.972498 190.507317 79.972498 189.684711 
C 79.972498 188.862106 79.645674 188.073081 79.064004 187.491411 
C 78.482334 186.909742 77.693309 186.582917 76.870704 186.582917 
C 76.048099 186.582917 75.259074 186.909742 74.677404 187.491411 
C 74.095734 188.073081 73.76891 188.862106 73.76891 189.684711 
C 73.76891 190.507317 74.095734 191.296341 74.677404 191.878011 
C 75.259074 192.459681 76.048099 192.786505 76.870704 192.786505 
z
" clip-path="url(#p1521ee040c)" style="fill: #0072b2; fill-opacity: 0.4; stroke: #0072b2; stroke-opacity: 0.4; stroke-width: 0.886227"/>
    <path d="M 74.327471 216.661175 
C 75.150076 216.661175 75.939101 216.334351 76.520771 215.752681 
C 77.102441 215.171011 77.429265 214.381987 77.429265 213.559381 
C 77.429265 212.736776 77.102441 211.947751 76.520771 211.366081 
C 75.939101 210.784412 75.150076 210.457587 74.327471 210.457587 
C 73.504866 210.457587 72.715841 210.784412 72.134171 211.366081 
C 71.552501 211.947751 71.225677 212.736776 71.225677 213.559381 
C 71.225677 214.381987 71.552501 215.171011 72.134171 215.752681 
C 72.715841 216.334351 73.504866 216.661175 74.327471 216.661175 
z
" clip-path="url(#p1521ee040c)" style="fill: #0072b2; fill-opacity: 0.4; stroke: #0072b2; stroke-opacity: 0.4; stroke-width: 0.886227"/>
    <path d="M 66.725048 218.834663 
C 67.547653 218.834663 68.336678 218.507839 68.918348 217.926169 
C 69.500017 217.344499 69.826842 216.555475 69.826842 215.732869 
C 69.826842 214.910264 69.500017 214.121239 68.918348 213.539569 
C 68.336678 212.957899 67.547653 212.631075 66.725048 212.631075 
C 65.902442 212.631075 65.113418 212.957899 64.531748 213.539569 
C 63.950078 214.121239 63.623254 214.910264 63.623254 215.732869 
C 63.623254 216.555475 63.950078 217.344499 64.531748 217.926169 
C 65.113418 218.507839 65.902442 218.834663 66.725048 218.834663 
z
" clip-path="url(#p1521ee040c)" style="fill: #999999; fill-opacity: 0.4; stroke: #999999; stroke-opacity: 0.4; stroke-width: 0.886227"/>
    <path d="M 65.683013 218.895062 
C 66.505618 218.895062 67.294643 218.568238 67.876313 217.986568 
C 68.457983 217.404898 68.784807 216.615873 68.784807 215.793268 
C 68.784807 214.970663 68.457983 214.181638 67.876313 213.599968 
C 67.294643 213.018298 66.505618 212.691474 65.683013 212.691474 
C 64.860408 212.691474 64.071383 213.018298 63.489713 213.599968 
C 62.908043 214.181638 62.581219 214.970663 62.581219 215.793268 
C 62.581219 216.615873 62.908043 217.404898 63.489713 217.986568 
C 64.071383 218.568238 64.860408 218.895062 65.683013 218.895062 
z
" clip-path="url(#p1521ee040c)" style="fill: #999999; fill-opacity: 0.4; stroke: #999999; stroke-opacity: 0.4; stroke-width: 0.886227"/>
    <path d="M 77.984811 158.356819 
C 78.807416 158.356819 79.596441 158.029994 80.17811 157.448324 
C 80.75978 156.866654 81.086605 156.07763 81.086605 155.255025 
C 81.086605 154.432419 80.75978 153.643395 80.17811 153.061725 
C 79.596441 152.480055 78.807416 152.15323 77.984811 152.15323 
C 77.162205 152.15323 76.373181 152.480055 75.791511 153.061725 
C 75.209841 153.643395 74.883017 154.432419 74.883017 155.255025 
C 74.883017 156.07763 75.209841 156.866654 75.791511 157.448324 
C 76.373181 158.029994 77.162205 158.356819 77.984811 158.356819 
z
" clip-path="url(#p1521ee040c)" style="fill: #999999; fill-opacity: 0.4; stroke: #999999; stroke-opacity: 0.4; stroke-width: 0.886227"/>
    <path d="M 66.563844 218.749246 
C 67.386449 218.749246 68.175473 218.422422 68.757143 217.840752 
C 69.338813 217.259082 69.665638 216.470058 69.665638 215.647452 
C 69.665638 214.824847 69.338813 214.035822 68.757143 213.454152 
C 68.175473 212.872483 67.386449 212.545658 66.563844 212.545658 
C 65.741238 212.545658 64.952214 212.872483 64.370544 213.454152 
C 63.788874 214.035822 63.462049 214.824847 63.462049 215.647452 
C 63.462049 216.470058 63.788874 217.259082 64.370544 217.840752 
C 64.952214 218.422422 65.741238 218.749246 66.563844 218.749246 
z
" clip-path="url(#p1521ee040c)" style="fill: #0072b2; fill-opacity: 0.4; stroke: #0072b2; stroke-opacity: 0.4; stroke-width: 0.886227"/>
    <path d="M 71.597585 218.215147 
C 72.42019 218.215147 73.209215 217.888323 73.790884 217.306653 
C 74.372554 216.724983 74.699379 215.935959 74.699379 215.113353 
C 74.699379 214.290748 74.372554 213.501723 73.790884 212.920053 
C 73.209215 212.338384 72.42019 212.011559 71.597585 212.011559 
C 70.774979 212.011559 69.985955 212.338384 69.404285 212.920053 
C 68.822615 213.501723 68.49579 214.290748 68.49579 215.113353 
C 68.49579 215.935959 68.822615 216.724983 69.404285 217.306653 
C 69.985955 217.888323 70.774979 218.215147 71.597585 218.215147 
z
" clip-path="url(#p1521ee040c)" style="fill: #0072b2; fill-opacity: 0.4; stroke: #0072b2; stroke-opacity: 0.4; stroke-width: 0.886227"/>
    <path d="M 211.39032 212.880314 
C 212.212925 212.880314 213.00195 212.55349 213.58362 211.97182 
C 214.165289 211.39015 214.492114 210.601126 214.492114 209.77852 
C 214.492114 208.955915 214.165289 208.16689 213.58362 207.58522 
C 213.00195 207.003551 212.212925 206.676726 211.39032 206.676726 
C 210.567714 206.676726 209.77869 207.003551 209.19702 207.58522 
C 208.61535 208.16689 208.288526 208.955915 208.288526 209.77852 
C 208.288526 210.601126 208.61535 211.39015 209.19702 211.97182 
C 209.77869 212.55349 210.567714 212.880314 211.39032 212.880314 
z
" clip-path="url(#p1521ee040c)" style="fill: #999999; fill-opacity: 0.4; stroke: #999999; stroke-opacity: 0.4; stroke-width: 0.886227"/>
    <path d="M 66.080921 218.749246 
C 66.903527 218.749246 67.692551 218.422422 68.274221 217.840752 
C 68.855891 217.259082 69.182715 216.470058 69.182715 215.647452 
C 69.182715 214.824847 68.855891 214.035822 68.274221 213.454152 
C 67.692551 212.872483 66.903527 212.545658 66.080921 212.545658 
C 65.258316 212.545658 64.469291 212.872483 63.887621 213.454152 
C 63.305952 214.035822 62.979127 214.824847 62.979127 215.647452 
C 62.979127 216.470058 63.305952 217.259082 63.887621 217.840752 
C 64.469291 218.422422 65.258316 218.749246 66.080921 218.749246 
z
" clip-path="url(#p1521ee040c)" style="fill: #ff5349; fill-opacity: 0.4; stroke: #ff5349; stroke-opacity: 0.4; stroke-width: 0.886227"/>
    <path d="M 65.894575 218.864596 
C 66.71718 218.864596 67.506205 218.537771 68.087875 217.956101 
C 68.669545 217.374431 68.996369 216.585407 68.996369 215.762801 
C 68.996369 214.940196 68.669545 214.151171 68.087875 213.569502 
C 67.506205 212.987832 66.71718 212.661007 65.894575 212.661007 
C 65.07197 212.661007 64.282945 212.987832 63.701275 213.569502 
C 63.119605 214.151171 62.792781 214.940196 62.792781 215.762801 
C 62.792781 216.585407 63.119605 217.374431 63.701275 217.956101 
C 64.282945 218.537771 65.07197 218.864596 65.894575 218.864596 
z
" clip-path="url(#p1521ee040c)" style="fill: #0072b2; fill-opacity: 0.4; stroke: #0072b2; stroke-opacity: 0.4; stroke-width: 0.886227"/>
    <path d="M 67.208236 218.749246 
C 68.030841 218.749246 68.819866 218.422422 69.401536 217.840752 
C 69.983206 217.259082 70.31003 216.470058 70.31003 215.647452 
C 70.31003 214.824847 69.983206 214.035822 69.401536 213.454152 
C 68.819866 212.872483 68.030841 212.545658 67.208236 212.545658 
C 66.385631 212.545658 65.596606 212.872483 65.014936 213.454152 
C 64.433266 214.035822 64.106442 214.824847 64.106442 215.647452 
C 64.106442 216.470058 64.433266 217.259082 65.014936 217.840752 
C 65.596606 218.422422 66.385631 218.749246 67.208236 218.749246 
z
" clip-path="url(#p1521ee040c)" style="fill: #0072b2; fill-opacity: 0.4; stroke: #0072b2; stroke-opacity: 0.4; stroke-width: 0.886227"/>
    <path d="M 79.340712 218.03947 
C 80.163318 218.03947 80.952342 217.712645 81.534012 217.130975 
C 82.115682 216.549306 82.442506 215.760281 82.442506 214.937676 
C 82.442506 214.11507 82.115682 213.326046 81.534012 212.744376 
C 80.952342 212.162706 80.163318 211.835881 79.340712 211.835881 
C 78.518107 211.835881 77.729082 212.162706 77.147412 212.744376 
C 76.565743 213.326046 76.238918 214.11507 76.238918 214.937676 
C 76.238918 215.760281 76.565743 216.549306 77.147412 217.130975 
C 77.729082 217.712645 78.518107 218.03947 79.340712 218.03947 
z
" clip-path="url(#p1521ee040c)" style="fill: #0072b2; fill-opacity: 0.4; stroke: #0072b2; stroke-opacity: 0.4; stroke-width: 0.886227"/>
    <path d="M 77.356513 218.236114 
C 78.179119 218.236114 78.968143 217.909289 79.549813 217.327619 
C 80.131483 216.745949 80.458308 215.956925 80.458308 215.134319 
C 80.458308 214.311714 80.131483 213.522689 79.549813 212.94102 
C 78.968143 212.35935 78.179119 212.032525 77.356513 212.032525 
C 76.533908 212.032525 75.744884 212.35935 75.163214 212.94102 
C 74.581544 213.522689 74.254719 214.311714 74.254719 215.134319 
C 74.254719 215.956925 74.581544 216.745949 75.163214 217.327619 
C 75.744884 217.909289 76.533908 218.236114 77.356513 218.236114 
z
" clip-path="url(#p1521ee040c)" style="fill: #0072b2; fill-opacity: 0.4; stroke: #0072b2; stroke-opacity: 0.4; stroke-width: 0.886227"/>
    <path d="M 65.807498 218.749246 
C 66.630103 218.749246 67.419128 218.422422 68.000797 217.840752 
C 68.582467 217.259082 68.909292 216.470058 68.909292 215.647452 
C 68.909292 214.824847 68.582467 214.035822 68.000797 213.454152 
C 67.419128 212.872483 66.630103 212.545658 65.807498 212.545658 
C 64.984892 212.545658 64.195868 212.872483 63.614198 213.454152 
C 63.032528 214.035822 62.705703 214.824847 62.705703 215.647452 
C 62.705703 216.470058 63.032528 217.259082 63.614198 217.840752 
C 64.195868 218.422422 64.984892 218.749246 65.807498 218.749246 
z
" clip-path="url(#p1521ee040c)" style="fill: #0072b2; fill-opacity: 0.4; stroke: #0072b2; stroke-opacity: 0.4; stroke-width: 0.886227"/>
    <path d="M 66.836589 217.851676 
C 67.659194 217.851676 68.448218 217.524851 69.029888 216.943181 
C 69.611558 216.361511 69.938383 215.572487 69.938383 214.749881 
C 69.938383 213.927276 69.611558 213.138251 69.029888 212.556582 
C 68.448218 211.974912 67.659194 211.648087 66.836589 211.648087 
C 66.013983 211.648087 65.224959 211.974912 64.643289 212.556582 
C 64.061619 213.138251 63.734794 213.927276 63.734794 214.749881 
C 63.734794 215.572487 64.061619 216.361511 64.643289 216.943181 
C 65.224959 217.524851 66.013983 217.851676 66.836589 217.851676 
z
" clip-path="url(#p1521ee040c)" style="fill: #0072b2; fill-opacity: 0.4; stroke: #0072b2; stroke-opacity: 0.4; stroke-width: 0.886227"/>
    <path d="M 114.652082 217.450352 
C 115.474688 217.450352 116.263712 217.123528 116.845382 216.541858 
C 117.427052 215.960188 117.753877 215.171163 117.753877 214.348558 
C 117.753877 213.525953 117.427052 212.736928 116.845382 212.155258 
C 116.263712 211.573588 115.474688 211.246764 114.652082 211.246764 
C 113.829477 211.246764 113.040453 211.573588 112.458783 212.155258 
C 111.877113 212.736928 111.550288 213.525953 111.550288 214.348558 
C 111.550288 215.171163 111.877113 215.960188 112.458783 216.541858 
C 113.040453 217.123528 113.829477 217.450352 114.652082 217.450352 
z
" clip-path="url(#p1521ee040c)" style="fill: #999999; fill-opacity: 0.4; stroke: #999999; stroke-opacity: 0.4; stroke-width: 0.886227"/>
    <path d="M 65.863452 218.683704 
C 66.686058 218.683704 67.475082 218.356879 68.056752 217.775209 
C 68.638422 217.193539 68.965246 216.404515 68.965246 215.581909 
C 68.965246 214.759304 68.638422 213.97028 68.056752 213.38861 
C 67.475082 212.80694 66.686058 212.480115 65.863452 212.480115 
C 65.040847 212.480115 64.251822 212.80694 63.670152 213.38861 
C 63.088483 213.97028 62.761658 214.759304 62.761658 215.581909 
C 62.761658 216.404515 63.088483 217.193539 63.670152 217.775209 
C 64.251822 218.356879 65.040847 218.683704 65.863452 218.683704 
z
" clip-path="url(#p1521ee040c)" style="fill: #999999; fill-opacity: 0.4; stroke: #999999; stroke-opacity: 0.4; stroke-width: 0.886227"/>
    <path d="M 66.421858 218.895062 
C 67.244463 218.895062 68.033488 218.568238 68.615158 217.986568 
C 69.196827 217.404898 69.523652 216.615873 69.523652 215.793268 
C 69.523652 214.970663 69.196827 214.181638 68.615158 213.599968 
C 68.033488 213.018298 67.244463 212.691474 66.421858 212.691474 
C 65.599252 212.691474 64.810228 213.018298 64.228558 213.599968 
C 63.646888 214.181638 63.320064 214.970663 63.320064 215.793268 
C 63.320064 216.615873 63.646888 217.404898 64.228558 217.986568 
C 64.810228 218.568238 65.599252 218.895062 66.421858 218.895062 
z
" clip-path="url(#p1521ee040c)" style="fill: #0072b2; fill-opacity: 0.4; stroke: #0072b2; stroke-opacity: 0.4; stroke-width: 0.886227"/>
    <path d="M 66.725048 218.834663 
C 67.547653 218.834663 68.336678 218.507839 68.918348 217.926169 
C 69.500017 217.344499 69.826842 216.555475 69.826842 215.732869 
C 69.826842 214.910264 69.500017 214.121239 68.918348 213.539569 
C 68.336678 212.957899 67.547653 212.631075 66.725048 212.631075 
C 65.902442 212.631075 65.113418 212.957899 64.531748 213.539569 
C 63.950078 214.121239 63.623254 214.910264 63.623254 215.732869 
C 63.623254 216.555475 63.950078 217.344499 64.531748 217.926169 
C 65.113418 218.507839 65.902442 218.834663 66.725048 218.834663 
z
" clip-path="url(#p1521ee040c)" style="fill: #999999; fill-opacity: 0.4; stroke: #999999; stroke-opacity: 0.4; stroke-width: 0.886227"/>
    <path d="M 92.711781 203.710548 
C 93.534386 203.710548 94.323411 203.383724 94.90508 202.802054 
C 95.48675 202.220384 95.813575 201.43136 95.813575 200.608754 
C 95.813575 199.786149 95.48675 198.997124 94.90508 198.415454 
C 94.323411 197.833785 93.534386 197.50696 92.711781 197.50696 
C 91.889175 197.50696 91.100151 197.833785 90.518481 198.415454 
C 89.936811 198.997124 89.609986 199.786149 89.609986 200.608754 
C 89.609986 201.43136 89.936811 202.220384 90.518481 202.802054 
C 91.100151 203.383724 91.889175 203.710548 92.711781 203.710548 
z
" clip-path="url(#p1521ee040c)" style="fill: #999999; fill-opacity: 0.4; stroke: #999999; stroke-opacity: 0.4; stroke-width: 0.886227"/>
    <path d="M 65.683013 218.895062 
C 66.505618 218.895062 67.294643 218.568238 67.876313 217.986568 
C 68.457983 217.404898 68.784807 216.615873 68.784807 215.793268 
C 68.784807 214.970663 68.457983 214.181638 67.876313 213.599968 
C 67.294643 213.018298 66.505618 212.691474 65.683013 212.691474 
C 64.860408 212.691474 64.071383 213.018298 63.489713 213.599968 
C 62.908043 214.181638 62.581219 214.970663 62.581219 215.793268 
C 62.581219 216.615873 62.908043 217.404898 63.489713 217.986568 
C 64.071383 218.568238 64.860408 218.895062 65.683013 218.895062 
z
" clip-path="url(#p1521ee040c)" style="fill: #ff5349; fill-opacity: 0.4; stroke: #ff5349; stroke-opacity: 0.4; stroke-width: 0.886227"/>
    <path d="M 65.683013 218.895062 
C 66.505618 218.895062 67.294643 218.568238 67.876313 217.986568 
C 68.457983 217.404898 68.784807 216.615873 68.784807 215.793268 
C 68.784807 214.970663 68.457983 214.181638 67.876313 213.599968 
C 67.294643 213.018298 66.505618 212.691474 65.683013 212.691474 
C 64.860408 212.691474 64.071383 213.018298 63.489713 213.599968 
C 62.908043 214.181638 62.581219 214.970663 62.581219 215.793268 
C 62.581219 216.615873 62.908043 217.404898 63.489713 217.986568 
C 64.071383 218.568238 64.860408 218.895062 65.683013 218.895062 
z
" clip-path="url(#p1521ee040c)" style="fill: #999999; fill-opacity: 0.4; stroke: #999999; stroke-opacity: 0.4; stroke-width: 0.886227"/>
    <path d="M 65.807498 218.749246 
C 66.630103 218.749246 67.419128 218.422422 68.000797 217.840752 
C 68.582467 217.259082 68.909292 216.470058 68.909292 215.647452 
C 68.909292 214.824847 68.582467 214.035822 68.000797 213.454152 
C 67.419128 212.872483 66.630103 212.545658 65.807498 212.545658 
C 64.984892 212.545658 64.195868 212.872483 63.614198 213.454152 
C 63.032528 214.035822 62.705703 214.824847 62.705703 215.647452 
C 62.705703 216.470058 63.032528 217.259082 63.614198 217.840752 
C 64.195868 218.422422 64.984892 218.749246 65.807498 218.749246 
z
" clip-path="url(#p1521ee040c)" style="fill: #ff5349; fill-opacity: 0.4; stroke: #ff5349; stroke-opacity: 0.4; stroke-width: 0.886227"/>
    <path d="M 65.683013 218.895062 
C 66.505618 218.895062 67.294643 218.568238 67.876313 217.986568 
C 68.457983 217.404898 68.784807 216.615873 68.784807 215.793268 
C 68.784807 214.970663 68.457983 214.181638 67.876313 213.599968 
C 67.294643 213.018298 66.505618 212.691474 65.683013 212.691474 
C 64.860408 212.691474 64.071383 213.018298 63.489713 213.599968 
C 62.908043 214.181638 62.581219 214.970663 62.581219 215.793268 
C 62.581219 216.615873 62.908043 217.404898 63.489713 217.986568 
C 64.071383 218.568238 64.860408 218.895062 65.683013 218.895062 
z
" clip-path="url(#p1521ee040c)" style="fill: #999999; fill-opacity: 0.4; stroke: #999999; stroke-opacity: 0.4; stroke-width: 0.886227"/>
    <path d="M 65.683013 218.895062 
C 66.505618 218.895062 67.294643 218.568238 67.876313 217.986568 
C 68.457983 217.404898 68.784807 216.615873 68.784807 215.793268 
C 68.784807 214.970663 68.457983 214.181638 67.876313 213.599968 
C 67.294643 213.018298 66.505618 212.691474 65.683013 212.691474 
C 64.860408 212.691474 64.071383 213.018298 63.489713 213.599968 
C 62.908043 214.181638 62.581219 214.970663 62.581219 215.793268 
C 62.581219 216.615873 62.908043 217.404898 63.489713 217.986568 
C 64.071383 218.568238 64.860408 218.895062 65.683013 218.895062 
z
" clip-path="url(#p1521ee040c)" style="fill: #ff5349; fill-opacity: 0.4; stroke: #ff5349; stroke-opacity: 0.4; stroke-width: 0.886227"/>
    <path d="M 71.300826 218.651462 
C 72.123432 218.651462 72.912456 218.324637 73.494126 217.742967 
C 74.075796 217.161297 74.402621 216.372273 74.402621 215.549668 
C 74.402621 214.727062 74.075796 213.938038 73.494126 213.356368 
C 72.912456 212.774698 72.123432 212.447873 71.300826 212.447873 
C 70.478221 212.447873 69.689197 212.774698 69.107527 213.356368 
C 68.525857 213.938038 68.199032 214.727062 68.199032 215.549668 
C 68.199032 216.372273 68.525857 217.161297 69.107527 217.742967 
C 69.689197 218.324637 70.478221 218.651462 71.300826 218.651462 
z
" clip-path="url(#p1521ee040c)" style="fill: #0072b2; fill-opacity: 0.4; stroke: #0072b2; stroke-opacity: 0.4; stroke-width: 0.886227"/>
    <path d="M 65.683013 218.895062 
C 66.505618 218.895062 67.294643 218.568238 67.876313 217.986568 
C 68.457983 217.404898 68.784807 216.615873 68.784807 215.793268 
C 68.784807 214.970663 68.457983 214.181638 67.876313 213.599968 
C 67.294643 213.018298 66.505618 212.691474 65.683013 212.691474 
C 64.860408 212.691474 64.071383 213.018298 63.489713 213.599968 
C 62.908043 214.181638 62.581219 214.970663 62.581219 215.793268 
C 62.581219 216.615873 62.908043 217.404898 63.489713 217.986568 
C 64.071383 218.568238 64.860408 218.895062 65.683013 218.895062 
z
" clip-path="url(#p1521ee040c)" style="fill: #ff5349; fill-opacity: 0.4; stroke: #ff5349; stroke-opacity: 0.4; stroke-width: 0.886227"/>
    <path d="M 72.327757 216.43996 
C 73.150363 216.43996 73.939387 216.113135 74.521057 215.531466 
C 75.102727 214.949796 75.429551 214.160771 75.429551 213.338166 
C 75.429551 212.51556 75.102727 211.726536 74.521057 211.144866 
C 73.939387 210.563196 73.150363 210.236372 72.327757 210.236372 
C 71.505152 210.236372 70.716127 210.563196 70.134457 211.144866 
C 69.552788 211.726536 69.225963 212.51556 69.225963 213.338166 
C 69.225963 214.160771 69.552788 214.949796 70.134457 215.531466 
C 70.716127 216.113135 71.505152 216.43996 72.327757 216.43996 
z
" clip-path="url(#p1521ee040c)" style="fill: #999999; fill-opacity: 0.4; stroke: #999999; stroke-opacity: 0.4; stroke-width: 0.886227"/>
    <path d="M 85.529647 176.467508 
C 86.352252 176.467508 87.141277 176.140684 87.722947 175.559014 
C 88.304616 174.977344 88.631441 174.18832 88.631441 173.365714 
C 88.631441 172.543109 88.304616 171.754084 87.722947 171.172414 
C 87.141277 170.590744 86.352252 170.26392 85.529647 170.26392 
C 84.707041 170.26392 83.918017 170.590744 83.336347 171.172414 
C 82.754677 171.754084 82.427853 172.543109 82.427853 173.365714 
C 82.427853 174.18832 82.754677 174.977344 83.336347 175.559014 
C 83.918017 176.140684 84.707041 176.467508 85.529647 176.467508 
z
" clip-path="url(#p1521ee040c)" style="fill: #0072b2; fill-opacity: 0.4; stroke: #0072b2; stroke-opacity: 0.4; stroke-width: 0.886227"/>
    <path d="M 67.065855 218.426323 
C 67.88846 218.426323 68.677485 218.099498 69.259154 217.517829 
C 69.840824 216.936159 70.167649 216.147134 70.167649 215.324529 
C 70.167649 214.501923 69.840824 213.712899 69.259154 213.131229 
C 68.677485 212.549559 67.88846 212.222735 67.065855 212.222735 
C 66.243249 212.222735 65.454225 212.549559 64.872555 213.131229 
C 64.290885 213.712899 63.96406 214.501923 63.96406 215.324529 
C 63.96406 216.147134 64.290885 216.936159 64.872555 217.517829 
C 65.454225 218.099498 66.243249 218.426323 67.065855 218.426323 
z
" clip-path="url(#p1521ee040c)" style="fill: #0072b2; fill-opacity: 0.4; stroke: #0072b2; stroke-opacity: 0.4; stroke-width: 0.886227"/>
    <path d="M 65.683013 218.895062 
C 66.505618 218.895062 67.294643 218.568238 67.876313 217.986568 
C 68.457983 217.404898 68.784807 216.615873 68.784807 215.793268 
C 68.784807 214.970663 68.457983 214.181638 67.876313 213.599968 
C 67.294643 213.018298 66.505618 212.691474 65.683013 212.691474 
C 64.860408 212.691474 64.071383 213.018298 63.489713 213.599968 
C 62.908043 214.181638 62.581219 214.970663 62.581219 215.793268 
C 62.581219 216.615873 62.908043 217.404898 63.489713 217.986568 
C 64.071383 218.568238 64.860408 218.895062 65.683013 218.895062 
z
" clip-path="url(#p1521ee040c)" style="fill: #ff5349; fill-opacity: 0.4; stroke: #ff5349; stroke-opacity: 0.4; stroke-width: 0.886227"/>
    <path d="M 65.683013 218.895062 
C 66.505618 218.895062 67.294643 218.568238 67.876313 217.986568 
C 68.457983 217.404898 68.784807 216.615873 68.784807 215.793268 
C 68.784807 214.970663 68.457983 214.181638 67.876313 213.599968 
C 67.294643 213.018298 66.505618 212.691474 65.683013 212.691474 
C 64.860408 212.691474 64.071383 213.018298 63.489713 213.599968 
C 62.908043 214.181638 62.581219 214.970663 62.581219 215.793268 
C 62.581219 216.615873 62.908043 217.404898 63.489713 217.986568 
C 64.071383 218.568238 64.860408 218.895062 65.683013 218.895062 
z
" clip-path="url(#p1521ee040c)" style="fill: #ff5349; fill-opacity: 0.4; stroke: #ff5349; stroke-opacity: 0.4; stroke-width: 0.886227"/>
    <path d="M 67.319902 160.462221 
C 68.142508 160.462221 68.931532 160.135396 69.513202 159.553727 
C 70.094872 158.972057 70.421696 158.183032 70.421696 157.360427 
C 70.421696 156.537821 70.094872 155.748797 69.513202 155.167127 
C 68.931532 154.585457 68.142508 154.258633 67.319902 154.258633 
C 66.497297 154.258633 65.708272 154.585457 65.126602 155.167127 
C 64.544933 155.748797 64.218108 156.537821 64.218108 157.360427 
C 64.218108 158.183032 64.544933 158.972057 65.126602 159.553727 
C 65.708272 160.135396 66.497297 160.462221 67.319902 160.462221 
z
" clip-path="url(#p1521ee040c)" style="fill: #0072b2; fill-opacity: 0.4; stroke: #0072b2; stroke-opacity: 0.4; stroke-width: 0.886227"/>
    <path d="M 67.61796 218.834663 
C 68.440565 218.834663 69.229589 218.507839 69.811259 217.926169 
C 70.392929 217.344499 70.719754 216.555475 70.719754 215.732869 
C 70.719754 214.910264 70.392929 214.121239 69.811259 213.539569 
C 69.229589 212.957899 68.440565 212.631075 67.61796 212.631075 
C 66.795354 212.631075 66.00633 212.957899 65.42466 213.539569 
C 64.84299 214.121239 64.516165 214.910264 64.516165 215.732869 
C 64.516165 216.555475 64.84299 217.344499 65.42466 217.926169 
C 66.00633 218.507839 66.795354 218.834663 67.61796 218.834663 
z
" clip-path="url(#p1521ee040c)" style="fill: #ff5349; fill-opacity: 0.4; stroke: #ff5349; stroke-opacity: 0.4; stroke-width: 0.886227"/>
    <path d="M 66.495171 218.500999 
C 67.317776 218.500999 68.1068 218.174175 68.68847 217.592505 
C 69.27014 217.010835 69.596965 216.22181 69.596965 215.399205 
C 69.596965 214.576599 69.27014 213.787575 68.68847 213.205905 
C 68.1068 212.624235 67.317776 212.297411 66.495171 212.297411 
C 65.672565 212.297411 64.883541 212.624235 64.301871 213.205905 
C 63.720201 213.787575 63.393376 214.576599 63.393376 215.399205 
C 63.393376 216.22181 63.720201 217.010835 64.301871 217.592505 
C 64.883541 218.174175 65.672565 218.500999 66.495171 218.500999 
z
" clip-path="url(#p1521ee040c)" style="fill: #999999; fill-opacity: 0.4; stroke: #999999; stroke-opacity: 0.4; stroke-width: 0.886227"/>
    <path d="M 66.090653 218.683704 
C 66.913259 218.683704 67.702283 218.356879 68.283953 217.775209 
C 68.865623 217.193539 69.192448 216.404515 69.192448 215.581909 
C 69.192448 214.759304 68.865623 213.97028 68.283953 213.38861 
C 67.702283 212.80694 66.913259 212.480115 66.090653 212.480115 
C 65.268048 212.480115 64.479024 212.80694 63.897354 213.38861 
C 63.315684 213.97028 62.988859 214.759304 62.988859 215.581909 
C 62.988859 216.404515 63.315684 217.193539 63.897354 217.775209 
C 64.479024 218.356879 65.268048 218.683704 66.090653 218.683704 
z
" clip-path="url(#p1521ee040c)" style="fill: #0072b2; fill-opacity: 0.4; stroke: #0072b2; stroke-opacity: 0.4; stroke-width: 0.886227"/>
    <path d="M 65.905359 218.895062 
C 66.727965 218.895062 67.516989 218.568238 68.098659 217.986568 
C 68.680329 217.404898 69.007153 216.615873 69.007153 215.793268 
C 69.007153 214.970663 68.680329 214.181638 68.098659 213.599968 
C 67.516989 213.018298 66.727965 212.691474 65.905359 212.691474 
C 65.082754 212.691474 64.293729 213.018298 63.712059 213.599968 
C 63.130389 214.181638 62.803565 214.970663 62.803565 215.793268 
C 62.803565 216.615873 63.130389 217.404898 63.712059 217.986568 
C 64.293729 218.568238 65.082754 218.895062 65.905359 218.895062 
z
" clip-path="url(#p1521ee040c)" style="fill: #ff5349; fill-opacity: 0.4; stroke: #ff5349; stroke-opacity: 0.4; stroke-width: 0.886227"/>
    <path d="M 65.683013 218.895062 
C 66.505618 218.895062 67.294643 218.568238 67.876313 217.986568 
C 68.457983 217.404898 68.784807 216.615873 68.784807 215.793268 
C 68.784807 214.970663 68.457983 214.181638 67.876313 213.599968 
C 67.294643 213.018298 66.505618 212.691474 65.683013 212.691474 
C 64.860408 212.691474 64.071383 213.018298 63.489713 213.599968 
C 62.908043 214.181638 62.581219 214.970663 62.581219 215.793268 
C 62.581219 216.615873 62.908043 217.404898 63.489713 217.986568 
C 64.071383 218.568238 64.860408 218.895062 65.683013 218.895062 
z
" clip-path="url(#p1521ee040c)" style="fill: #ff5349; fill-opacity: 0.4; stroke: #ff5349; stroke-opacity: 0.4; stroke-width: 0.886227"/>
    <path d="M 65.734576 218.834663 
C 66.557182 218.834663 67.346206 218.507839 67.927876 217.926169 
C 68.509546 217.344499 68.83637 216.555475 68.83637 215.732869 
C 68.83637 214.910264 68.509546 214.121239 67.927876 213.539569 
C 67.346206 212.957899 66.557182 212.631075 65.734576 212.631075 
C 64.911971 212.631075 64.122946 212.957899 63.541277 213.539569 
C 62.959607 214.121239 62.632782 214.910264 62.632782 215.732869 
C 62.632782 216.555475 62.959607 217.344499 63.541277 217.926169 
C 64.122946 218.507839 64.911971 218.834663 65.734576 218.834663 
z
" clip-path="url(#p1521ee040c)" style="fill: #0072b2; fill-opacity: 0.4; stroke: #0072b2; stroke-opacity: 0.4; stroke-width: 0.886227"/>
    <path d="M 65.683013 218.895062 
C 66.505618 218.895062 67.294643 218.568238 67.876313 217.986568 
C 68.457983 217.404898 68.784807 216.615873 68.784807 215.793268 
C 68.784807 214.970663 68.457983 214.181638 67.876313 213.599968 
C 67.294643 213.018298 66.505618 212.691474 65.683013 212.691474 
C 64.860408 212.691474 64.071383 213.018298 63.489713 213.599968 
C 62.908043 214.181638 62.581219 214.970663 62.581219 215.793268 
C 62.581219 216.615873 62.908043 217.404898 63.489713 217.986568 
C 64.071383 218.568238 64.860408 218.895062 65.683013 218.895062 
z
" clip-path="url(#p1521ee040c)" style="fill: #ff5349; fill-opacity: 0.4; stroke: #ff5349; stroke-opacity: 0.4; stroke-width: 0.886227"/>
    <path d="M 67.208236 218.749246 
C 68.030841 218.749246 68.819866 218.422422 69.401536 217.840752 
C 69.983206 217.259082 70.31003 216.470058 70.31003 215.647452 
C 70.31003 214.824847 69.983206 214.035822 69.401536 213.454152 
C 68.819866 212.872483 68.030841 212.545658 67.208236 212.545658 
C 66.385631 212.545658 65.596606 212.872483 65.014936 213.454152 
C 64.433266 214.035822 64.106442 214.824847 64.106442 215.647452 
C 64.106442 216.470058 64.433266 217.259082 65.014936 217.840752 
C 65.596606 218.422422 66.385631 218.749246 67.208236 218.749246 
z
" clip-path="url(#p1521ee040c)" style="fill: #999999; fill-opacity: 0.4; stroke: #999999; stroke-opacity: 0.4; stroke-width: 0.886227"/>
    <path d="M 66.810867 216.349951 
C 67.633472 216.349951 68.422497 216.023126 69.004167 215.441456 
C 69.585837 214.859787 69.912661 214.070762 69.912661 213.248157 
C 69.912661 212.425551 69.585837 211.636527 69.004167 211.054857 
C 68.422497 210.473187 67.633472 210.146362 66.810867 210.146362 
C 65.988261 210.146362 65.199237 210.473187 64.617567 211.054857 
C 64.035897 211.636527 63.709073 212.425551 63.709073 213.248157 
C 63.709073 214.070762 64.035897 214.859787 64.617567 215.441456 
C 65.199237 216.023126 65.988261 216.349951 66.810867 216.349951 
z
" clip-path="url(#p1521ee040c)" style="fill: #0072b2; fill-opacity: 0.4; stroke: #0072b2; stroke-opacity: 0.4; stroke-width: 0.886227"/>
    <path d="M 65.683013 218.895062 
C 66.505618 218.895062 67.294643 218.568238 67.876313 217.986568 
C 68.457983 217.404898 68.784807 216.615873 68.784807 215.793268 
C 68.784807 214.970663 68.457983 214.181638 67.876313 213.599968 
C 67.294643 213.018298 66.505618 212.691474 65.683013 212.691474 
C 64.860408 212.691474 64.071383 213.018298 63.489713 213.599968 
C 62.908043 214.181638 62.581219 214.970663 62.581219 215.793268 
C 62.581219 216.615873 62.908043 217.404898 63.489713 217.986568 
C 64.071383 218.568238 64.860408 218.895062 65.683013 218.895062 
z
" clip-path="url(#p1521ee040c)" style="fill: #999999; fill-opacity: 0.4; stroke: #999999; stroke-opacity: 0.4; stroke-width: 0.886227"/>
    <path d="M 65.734576 218.834663 
C 66.557182 218.834663 67.346206 218.507839 67.927876 217.926169 
C 68.509546 217.344499 68.83637 216.555475 68.83637 215.732869 
C 68.83637 214.910264 68.509546 214.121239 67.927876 213.539569 
C 67.346206 212.957899 66.557182 212.631075 65.734576 212.631075 
C 64.911971 212.631075 64.122946 212.957899 63.541277 213.539569 
C 62.959607 214.121239 62.632782 214.910264 62.632782 215.732869 
C 62.632782 216.555475 62.959607 217.344499 63.541277 217.926169 
C 64.122946 218.507839 64.911971 218.834663 65.734576 218.834663 
z
" clip-path="url(#p1521ee040c)" style="fill: #999999; fill-opacity: 0.4; stroke: #999999; stroke-opacity: 0.4; stroke-width: 0.886227"/>
    <path d="M 69.631431 181.659592 
C 70.454036 181.659592 71.243061 181.332767 71.824731 180.751097 
C 72.406401 180.169427 72.733225 179.380403 72.733225 178.557797 
C 72.733225 177.735192 72.406401 176.946168 71.824731 176.364498 
C 71.243061 175.782828 70.454036 175.456003 69.631431 175.456003 
C 68.808825 175.456003 68.019801 175.782828 67.438131 176.364498 
C 66.856461 176.946168 66.529637 177.735192 66.529637 178.557797 
C 66.529637 179.380403 66.856461 180.169427 67.438131 180.751097 
C 68.019801 181.332767 68.808825 181.659592 69.631431 181.659592 
z
" clip-path="url(#p1521ee040c)" style="fill: #0072b2; fill-opacity: 0.4; stroke: #0072b2; stroke-opacity: 0.4; stroke-width: 0.886227"/>
    <path d="M 109.279909 119.709976 
C 110.102515 119.709976 110.891539 119.383152 111.473209 118.801482 
C 112.054879 118.219812 112.381704 117.430788 112.381704 116.608182 
C 112.381704 115.785577 112.054879 114.996552 111.473209 114.414882 
C 110.891539 113.833213 110.102515 113.506388 109.279909 113.506388 
C 108.457304 113.506388 107.66828 113.833213 107.08661 114.414882 
C 106.50494 114.996552 106.178115 115.785577 106.178115 116.608182 
C 106.178115 117.430788 106.50494 118.219812 107.08661 118.801482 
C 107.66828 119.383152 108.457304 119.709976 109.279909 119.709976 
z
" clip-path="url(#p1521ee040c)" style="fill: #0072b2; fill-opacity: 0.4; stroke: #0072b2; stroke-opacity: 0.4; stroke-width: 0.886227"/>
    <path d="M 77.538542 218.609529 
C 78.361148 218.609529 79.150172 218.282705 79.731842 217.701035 
C 80.313512 217.119365 80.640337 216.330341 80.640337 215.507735 
C 80.640337 214.68513 80.313512 213.896105 79.731842 213.314435 
C 79.150172 212.732766 78.361148 212.405941 77.538542 212.405941 
C 76.715937 212.405941 75.926913 212.732766 75.345243 213.314435 
C 74.763573 213.896105 74.436748 214.68513 74.436748 215.507735 
C 74.436748 216.330341 74.763573 217.119365 75.345243 217.701035 
C 75.926913 218.282705 76.715937 218.609529 77.538542 218.609529 
z
" clip-path="url(#p1521ee040c)" style="fill: #999999; fill-opacity: 0.4; stroke: #999999; stroke-opacity: 0.4; stroke-width: 0.886227"/>
    <path d="M 75.056172 213.947687 
C 75.878777 213.947687 76.667802 213.620862 77.249472 213.039193 
C 77.831141 212.457523 78.157966 211.668498 78.157966 210.845893 
C 78.157966 210.023287 77.831141 209.234263 77.249472 208.652593 
C 76.667802 208.070923 75.878777 207.744099 75.056172 207.744099 
C 74.233566 207.744099 73.444542 208.070923 72.862872 208.652593 
C 72.281202 209.234263 71.954378 210.023287 71.954378 210.845893 
C 71.954378 211.668498 72.281202 212.457523 72.862872 213.039193 
C 73.444542 213.620862 74.233566 213.947687 75.056172 213.947687 
z
" clip-path="url(#p1521ee040c)" style="fill: #0072b2; fill-opacity: 0.4; stroke: #0072b2; stroke-opacity: 0.4; stroke-width: 0.886227"/>
    <path d="M 65.683013 218.895062 
C 66.505618 218.895062 67.294643 218.568238 67.876313 217.986568 
C 68.457983 217.404898 68.784807 216.615873 68.784807 215.793268 
C 68.784807 214.970663 68.457983 214.181638 67.876313 213.599968 
C 67.294643 213.018298 66.505618 212.691474 65.683013 212.691474 
C 64.860408 212.691474 64.071383 213.018298 63.489713 213.599968 
C 62.908043 214.181638 62.581219 214.970663 62.581219 215.793268 
C 62.581219 216.615873 62.908043 217.404898 63.489713 217.986568 
C 64.071383 218.568238 64.860408 218.895062 65.683013 218.895062 
z
" clip-path="url(#p1521ee040c)" style="fill: #ff5349; fill-opacity: 0.4; stroke: #ff5349; stroke-opacity: 0.4; stroke-width: 0.886227"/>
    <path d="M 65.683013 218.895062 
C 66.505618 218.895062 67.294643 218.568238 67.876313 217.986568 
C 68.457983 217.404898 68.784807 216.615873 68.784807 215.793268 
C 68.784807 214.970663 68.457983 214.181638 67.876313 213.599968 
C 67.294643 213.018298 66.505618 212.691474 65.683013 212.691474 
C 64.860408 212.691474 64.071383 213.018298 63.489713 213.599968 
C 62.908043 214.181638 62.581219 214.970663 62.581219 215.793268 
C 62.581219 216.615873 62.908043 217.404898 63.489713 217.986568 
C 64.071383 218.568238 64.860408 218.895062 65.683013 218.895062 
z
" clip-path="url(#p1521ee040c)" style="fill: #0072b2; fill-opacity: 0.4; stroke: #0072b2; stroke-opacity: 0.4; stroke-width: 0.886227"/>
    <path d="M 67.265662 218.834663 
C 68.088268 218.834663 68.877292 218.507839 69.458962 217.926169 
C 70.040632 217.344499 70.367456 216.555475 70.367456 215.732869 
C 70.367456 214.910264 70.040632 214.121239 69.458962 213.539569 
C 68.877292 212.957899 68.088268 212.631075 67.265662 212.631075 
C 66.443057 212.631075 65.654032 212.957899 65.072362 213.539569 
C 64.490692 214.121239 64.163868 214.910264 64.163868 215.732869 
C 64.163868 216.555475 64.490692 217.344499 65.072362 217.926169 
C 65.654032 218.507839 66.443057 218.834663 67.265662 218.834663 
z
" clip-path="url(#p1521ee040c)" style="fill: #ff5349; fill-opacity: 0.4; stroke: #ff5349; stroke-opacity: 0.4; stroke-width: 0.886227"/>
    <path d="M 65.683013 218.895062 
C 66.505618 218.895062 67.294643 218.568238 67.876313 217.986568 
C 68.457983 217.404898 68.784807 216.615873 68.784807 215.793268 
C 68.784807 214.970663 68.457983 214.181638 67.876313 213.599968 
C 67.294643 213.018298 66.505618 212.691474 65.683013 212.691474 
C 64.860408 212.691474 64.071383 213.018298 63.489713 213.599968 
C 62.908043 214.181638 62.581219 214.970663 62.581219 215.793268 
C 62.581219 216.615873 62.908043 217.404898 63.489713 217.986568 
C 64.071383 218.568238 64.860408 218.895062 65.683013 218.895062 
z
" clip-path="url(#p1521ee040c)" style="fill: #ff5349; fill-opacity: 0.4; stroke: #ff5349; stroke-opacity: 0.4; stroke-width: 0.886227"/>
    <path d="M 65.683013 218.895062 
C 66.505618 218.895062 67.294643 218.568238 67.876313 217.986568 
C 68.457983 217.404898 68.784807 216.615873 68.784807 215.793268 
C 68.784807 214.970663 68.457983 214.181638 67.876313 213.599968 
C 67.294643 213.018298 66.505618 212.691474 65.683013 212.691474 
C 64.860408 212.691474 64.071383 213.018298 63.489713 213.599968 
C 62.908043 214.181638 62.581219 214.970663 62.581219 215.793268 
C 62.581219 216.615873 62.908043 217.404898 63.489713 217.986568 
C 64.071383 218.568238 64.860408 218.895062 65.683013 218.895062 
z
" clip-path="url(#p1521ee040c)" style="fill: #0072b2; fill-opacity: 0.4; stroke: #0072b2; stroke-opacity: 0.4; stroke-width: 0.886227"/>
    <path d="M 120.710504 91.919552 
C 121.53311 91.919552 122.322134 91.592727 122.903804 91.011057 
C 123.485474 90.429387 123.812298 89.640363 123.812298 88.817757 
C 123.812298 87.995152 123.485474 87.206128 122.903804 86.624458 
C 122.322134 86.042788 121.53311 85.715963 120.710504 85.715963 
C 119.887899 85.715963 119.098874 86.042788 118.517204 86.624458 
C 117.935535 87.206128 117.60871 87.995152 117.60871 88.817757 
C 117.60871 89.640363 117.935535 90.429387 118.517204 91.011057 
C 119.098874 91.592727 119.887899 91.919552 120.710504 91.919552 
z
" clip-path="url(#p1521ee040c)" style="fill: #0072b2; fill-opacity: 0.4; stroke: #0072b2; stroke-opacity: 0.4; stroke-width: 0.886227"/>
    <path d="M 65.683013 218.895062 
C 66.505618 218.895062 67.294643 218.568238 67.876313 217.986568 
C 68.457983 217.404898 68.784807 216.615873 68.784807 215.793268 
C 68.784807 214.970663 68.457983 214.181638 67.876313 213.599968 
C 67.294643 213.018298 66.505618 212.691474 65.683013 212.691474 
C 64.860408 212.691474 64.071383 213.018298 63.489713 213.599968 
C 62.908043 214.181638 62.581219 214.970663 62.581219 215.793268 
C 62.581219 216.615873 62.908043 217.404898 63.489713 217.986568 
C 64.071383 218.568238 64.860408 218.895062 65.683013 218.895062 
z
" clip-path="url(#p1521ee040c)" style="fill: #ff5349; fill-opacity: 0.4; stroke: #ff5349; stroke-opacity: 0.4; stroke-width: 0.886227"/>
    <path d="M 65.683013 218.895062 
C 66.505618 218.895062 67.294643 218.568238 67.876313 217.986568 
C 68.457983 217.404898 68.784807 216.615873 68.784807 215.793268 
C 68.784807 214.970663 68.457983 214.181638 67.876313 213.599968 
C 67.294643 213.018298 66.505618 212.691474 65.683013 212.691474 
C 64.860408 212.691474 64.071383 213.018298 63.489713 213.599968 
C 62.908043 214.181638 62.581219 214.970663 62.581219 215.793268 
C 62.581219 216.615873 62.908043 217.404898 63.489713 217.986568 
C 64.071383 218.568238 64.860408 218.895062 65.683013 218.895062 
z
" clip-path="url(#p1521ee040c)" style="fill: #0072b2; fill-opacity: 0.4; stroke: #0072b2; stroke-opacity: 0.4; stroke-width: 0.886227"/>
    <path d="M 80.760187 152.19711 
C 81.582793 152.19711 82.371817 151.870286 82.953487 151.288616 
C 83.535157 150.706946 83.861982 149.917921 83.861982 149.095316 
C 83.861982 148.272711 83.535157 147.483686 82.953487 146.902016 
C 82.371817 146.320346 81.582793 145.993522 80.760187 145.993522 
C 79.937582 145.993522 79.148558 146.320346 78.566888 146.902016 
C 77.985218 147.483686 77.658393 148.272711 77.658393 149.095316 
C 77.658393 149.917921 77.985218 150.706946 78.566888 151.288616 
C 79.148558 151.870286 79.937582 152.19711 80.760187 152.19711 
z
" clip-path="url(#p1521ee040c)" style="fill: #0072b2; fill-opacity: 0.4; stroke: #0072b2; stroke-opacity: 0.4; stroke-width: 0.886227"/>
    <path d="M 69.817793 218.869711 
C 70.640398 218.869711 71.429423 218.542886 72.011093 217.961216 
C 72.592763 217.379546 72.919587 216.590522 72.919587 215.767916 
C 72.919587 214.945311 72.592763 214.156287 72.011093 213.574617 
C 71.429423 212.992947 70.640398 212.666122 69.817793 212.666122 
C 68.995188 212.666122 68.206163 212.992947 67.624493 213.574617 
C 67.042823 214.156287 66.715999 214.945311 66.715999 215.767916 
C 66.715999 216.590522 67.042823 217.379546 67.624493 217.961216 
C 68.206163 218.542886 68.995188 218.869711 69.817793 218.869711 
z
" clip-path="url(#p1521ee040c)" style="fill: #0072b2; fill-opacity: 0.4; stroke: #0072b2; stroke-opacity: 0.4; stroke-width: 0.886227"/>
    <path d="M 65.683013 218.895062 
C 66.505618 218.895062 67.294643 218.568238 67.876313 217.986568 
C 68.457983 217.404898 68.784807 216.615873 68.784807 215.793268 
C 68.784807 214.970663 68.457983 214.181638 67.876313 213.599968 
C 67.294643 213.018298 66.505618 212.691474 65.683013 212.691474 
C 64.860408 212.691474 64.071383 213.018298 63.489713 213.599968 
C 62.908043 214.181638 62.581219 214.970663 62.581219 215.793268 
C 62.581219 216.615873 62.908043 217.404898 63.489713 217.986568 
C 64.071383 218.568238 64.860408 218.895062 65.683013 218.895062 
z
" clip-path="url(#p1521ee040c)" style="fill: #ff5349; fill-opacity: 0.4; stroke: #ff5349; stroke-opacity: 0.4; stroke-width: 0.886227"/>
    <path d="M 79.762817 218.329622 
C 80.585423 218.329622 81.374447 218.002797 81.956117 217.421127 
C 82.537787 216.839457 82.864612 216.050433 82.864612 215.227827 
C 82.864612 214.405222 82.537787 213.616198 81.956117 213.034528 
C 81.374447 212.452858 80.585423 212.126033 79.762817 212.126033 
C 78.940212 212.126033 78.151188 212.452858 77.569518 213.034528 
C 76.987848 213.616198 76.661023 214.405222 76.661023 215.227827 
C 76.661023 216.050433 76.987848 216.839457 77.569518 217.421127 
C 78.151188 218.002797 78.940212 218.329622 79.762817 218.329622 
z
" clip-path="url(#p1521ee040c)" style="fill: #0072b2; fill-opacity: 0.4; stroke: #0072b2; stroke-opacity: 0.4; stroke-width: 0.886227"/>
    <path d="M 65.683013 218.895062 
C 66.505618 218.895062 67.294643 218.568238 67.876313 217.986568 
C 68.457983 217.404898 68.784807 216.615873 68.784807 215.793268 
C 68.784807 214.970663 68.457983 214.181638 67.876313 213.599968 
C 67.294643 213.018298 66.505618 212.691474 65.683013 212.691474 
C 64.860408 212.691474 64.071383 213.018298 63.489713 213.599968 
C 62.908043 214.181638 62.581219 214.970663 62.581219 215.793268 
C 62.581219 216.615873 62.908043 217.404898 63.489713 217.986568 
C 64.071383 218.568238 64.860408 218.895062 65.683013 218.895062 
z
" clip-path="url(#p1521ee040c)" style="fill: #ff5349; fill-opacity: 0.4; stroke: #ff5349; stroke-opacity: 0.4; stroke-width: 0.886227"/>
    <path d="M 79.443554 218.796328 
C 80.26616 218.796328 81.055184 218.469503 81.636854 217.887833 
C 82.218524 217.306163 82.545349 216.517139 82.545349 215.694533 
C 82.545349 214.871928 82.218524 214.082904 81.636854 213.501234 
C 81.055184 212.919564 80.26616 212.592739 79.443554 212.592739 
C 78.620949 212.592739 77.831924 212.919564 77.250255 213.501234 
C 76.668585 214.082904 76.34176 214.871928 76.34176 215.694533 
C 76.34176 216.517139 76.668585 217.306163 77.250255 217.887833 
C 77.831924 218.469503 78.620949 218.796328 79.443554 218.796328 
z
" clip-path="url(#p1521ee040c)" style="fill: #999999; fill-opacity: 0.4; stroke: #999999; stroke-opacity: 0.4; stroke-width: 0.886227"/>
   </g>
   <g id="patch_3">
    <path d="M 57.949438 223.499084 
L 57.949438 57.179084 
" style="fill: none; stroke: #000000; stroke-linejoin: miter; stroke-linecap: square"/>
   </g>
   <g id="patch_4">
    <path d="M 57.949438 223.499084 
L 225.349437 223.499084 
" style="fill: none; stroke: #000000; stroke-linejoin: miter; stroke-linecap: square"/>
   </g>
   <g id="patch_5">
    <path d="M 232.549437 184.742053 
L 408.340812 184.742053 
L 408.340812 93.776115 
L 232.549437 93.776115 
z
" style="fill: #ffffff"/>
   </g>
   <g id="text_9">
    <!-- Viral mutations -->
    <g transform="translate(244.749437 117.369709)scale(0.11 -0.11)">
     <defs>
      <path id="DejaVuSans-56" d="M 1831 0 
L 50 4666 
L 709 4666 
L 2188 738 
L 3669 4666 
L 4325 4666 
L 2547 0 
L 1831 0 
z
" transform="scale(0.015625)"/>
      <path id="DejaVuSans-6d" d="M 3328 2828 
Q 3544 3216 3844 3400 
Q 4144 3584 4550 3584 
Q 5097 3584 5394 3201 
Q 5691 2819 5691 2113 
L 5691 0 
L 5113 0 
L 5113 2094 
Q 5113 2597 4934 2840 
Q 4756 3084 4391 3084 
Q 3944 3084 3684 2787 
Q 3425 2491 3425 1978 
L 3425 0 
L 2847 0 
L 2847 2094 
Q 2847 2600 2669 2842 
Q 2491 3084 2119 3084 
Q 1678 3084 1418 2786 
Q 1159 2488 1159 1978 
L 1159 0 
L 581 0 
L 581 3500 
L 1159 3500 
L 1159 2956 
Q 1356 3278 1631 3431 
Q 1906 3584 2284 3584 
Q 2666 3584 2933 3390 
Q 3200 3197 3328 2828 
z
" transform="scale(0.015625)"/>
     </defs>
     <use xlink:href="#DejaVuSans-56"/>
     <use xlink:href="#DejaVuSans-69" x="66.158203"/>
     <use xlink:href="#DejaVuSans-72" x="93.941406"/>
     <use xlink:href="#DejaVuSans-61" x="135.054688"/>
     <use xlink:href="#DejaVuSans-6c" x="196.333984"/>
     <use xlink:href="#DejaVuSans-20" x="224.117188"/>
     <use xlink:href="#DejaVuSans-6d" x="255.904297"/>
     <use xlink:href="#DejaVuSans-75" x="353.316406"/>
     <use xlink:href="#DejaVuSans-74" x="416.695312"/>
     <use xlink:href="#DejaVuSans-61" x="455.904297"/>
     <use xlink:href="#DejaVuSans-74" x="517.183594"/>
     <use xlink:href="#DejaVuSans-69" x="556.392578"/>
     <use xlink:href="#DejaVuSans-6f" x="584.175781"/>
     <use xlink:href="#DejaVuSans-6e" x="645.357422"/>
     <use xlink:href="#DejaVuSans-73" x="708.736328"/>
    </g>
   </g>
   <g id="patch_6">
    <path d="M 244.749437 136.862053 
L 260.589437 136.862053 
L 260.589437 121.022053 
L 244.749437 121.022053 
L 244.749437 136.862053 
z
" clip-path="url(#pb5148fd349)" style="fill: none"/>
   </g>
   <g id="line2d_7">
    <path d="M 252.669437 128.942053 
" clip-path="url(#pb5148fd349)" style="fill: none; stroke: #1f77b4; stroke-opacity: 0.4; stroke-width: 1.5; stroke-linecap: square"/>
    <defs>
     <path id="m5d9be74100" d="M 0 3.101794 
C 0.822605 3.101794 1.61163 2.77497 2.1933 2.1933 
C 2.77497 1.61163 3.101794 0.822605 3.101794 0 
C 3.101794 -0.822605 2.77497 -1.61163 2.1933 -2.1933 
C 1.61163 -2.77497 0.822605 -3.101794 0 -3.101794 
C -0.822605 -3.101794 -1.61163 -2.77497 -2.1933 -2.1933 
C -2.77497 -1.61163 -3.101794 -0.822605 -3.101794 0 
C -3.101794 0.822605 -2.77497 1.61163 -2.1933 2.1933 
C -1.61163 2.77497 -0.822605 3.101794 0 3.101794 
z
" style="stroke: #0072b2; stroke-opacity: 0.4; stroke-width: 0.886227"/>
    </defs>
    <g clip-path="url(#pb5148fd349)">
     <use xlink:href="#m5d9be74100" x="252.669437" y="128.942053" style="fill: #0072b2; fill-opacity: 0.4; stroke: #0072b2; stroke-opacity: 0.4; stroke-width: 0.886227"/>
    </g>
   </g>
   <g id="text_10">
    <!-- Complete unmutated genome -->
    <g transform="translate(263.589437 131.370303)scale(0.088 -0.088)">
     <defs>
      <path id="DejaVuSans-43" d="M 4122 4306 
L 4122 3641 
Q 3803 3938 3442 4084 
Q 3081 4231 2675 4231 
Q 1875 4231 1450 3742 
Q 1025 3253 1025 2328 
Q 1025 1406 1450 917 
Q 1875 428 2675 428 
Q 3081 428 3442 575 
Q 3803 722 4122 1019 
L 4122 359 
Q 3791 134 3420 21 
Q 3050 -91 2638 -91 
Q 1578 -91 968 557 
Q 359 1206 359 2328 
Q 359 3453 968 4101 
Q 1578 4750 2638 4750 
Q 3056 4750 3426 4639 
Q 3797 4528 4122 4306 
z
" transform="scale(0.015625)"/>
      <path id="DejaVuSans-64" d="M 2906 2969 
L 2906 4863 
L 3481 4863 
L 3481 0 
L 2906 0 
L 2906 525 
Q 2725 213 2448 61 
Q 2172 -91 1784 -91 
Q 1150 -91 751 415 
Q 353 922 353 1747 
Q 353 2572 751 3078 
Q 1150 3584 1784 3584 
Q 2172 3584 2448 3432 
Q 2725 3281 2906 2969 
z
M 947 1747 
Q 947 1113 1208 752 
Q 1469 391 1925 391 
Q 2381 391 2643 752 
Q 2906 1113 2906 1747 
Q 2906 2381 2643 2742 
Q 2381 3103 1925 3103 
Q 1469 3103 1208 2742 
Q 947 2381 947 1747 
z
" transform="scale(0.015625)"/>
     </defs>
     <use xlink:href="#DejaVuSans-43"/>
     <use xlink:href="#DejaVuSans-6f" x="69.824219"/>
     <use xlink:href="#DejaVuSans-6d" x="131.005859"/>
     <use xlink:href="#DejaVuSans-70" x="228.417969"/>
     <use xlink:href="#DejaVuSans-6c" x="291.894531"/>
     <use xlink:href="#DejaVuSans-65" x="319.677734"/>
     <use xlink:href="#DejaVuSans-74" x="381.201172"/>
     <use xlink:href="#DejaVuSans-65" x="420.410156"/>
     <use xlink:href="#DejaVuSans-20" x="481.933594"/>
     <use xlink:href="#DejaVuSans-75" x="513.720703"/>
     <use xlink:href="#DejaVuSans-6e" x="577.099609"/>
     <use xlink:href="#DejaVuSans-6d" x="640.478516"/>
     <use xlink:href="#DejaVuSans-75" x="737.890625"/>
     <use xlink:href="#DejaVuSans-74" x="801.269531"/>
     <use xlink:href="#DejaVuSans-61" x="840.478516"/>
     <use xlink:href="#DejaVuSans-74" x="901.757812"/>
     <use xlink:href="#DejaVuSans-65" x="940.966797"/>
     <use xlink:href="#DejaVuSans-64" x="1002.490234"/>
     <use xlink:href="#DejaVuSans-20" x="1065.966797"/>
     <use xlink:href="#DejaVuSans-67" x="1097.753906"/>
     <use xlink:href="#DejaVuSans-65" x="1161.230469"/>
     <use xlink:href="#DejaVuSans-6e" x="1222.753906"/>
     <use xlink:href="#DejaVuSans-6f" x="1286.132812"/>
     <use xlink:href="#DejaVuSans-6d" x="1347.314453"/>
     <use xlink:href="#DejaVuSans-65" x="1444.726562"/>
    </g>
   </g>
   <g id="patch_7">
    <path d="M 244.749437 154.702053 
L 260.589437 154.702053 
L 260.589437 138.862053 
L 244.749437 138.862053 
L 244.749437 154.702053 
z
" clip-path="url(#pabf930f0f0)" style="fill: none"/>
   </g>
   <g id="line2d_8">
    <path d="M 252.669437 146.782053 
" clip-path="url(#pabf930f0f0)" style="fill: none; stroke: #1f77b4; stroke-opacity: 0.4; stroke-width: 1.5; stroke-linecap: square"/>
    <defs>
     <path id="m8b2f26162a" d="M 0 3.101794 
C 0.822605 3.101794 1.61163 2.77497 2.1933 2.1933 
C 2.77497 1.61163 3.101794 0.822605 3.101794 0 
C 3.101794 -0.822605 2.77497 -1.61163 2.1933 -2.1933 
C 1.61163 -2.77497 0.822605 -3.101794 0 -3.101794 
C -0.822605 -3.101794 -1.61163 -2.77497 -2.1933 -2.1933 
C -2.77497 -1.61163 -3.101794 -0.822605 -3.101794 0 
C -3.101794 0.822605 -2.77497 1.61163 -2.1933 2.1933 
C -1.61163 2.77497 -0.822605 3.101794 0 3.101794 
z
" style="stroke: #999999; stroke-opacity: 0.4; stroke-width: 0.886227"/>
    </defs>
    <g clip-path="url(#pabf930f0f0)">
     <use xlink:href="#m8b2f26162a" x="252.669437" y="146.782053" style="fill: #999999; fill-opacity: 0.4; stroke: #999999; stroke-opacity: 0.4; stroke-width: 0.886227"/>
    </g>
   </g>
   <g id="text_11">
    <!-- Complete mutated genome -->
    <g transform="translate(263.589437 149.210303)scale(0.088 -0.088)">
     <use xlink:href="#DejaVuSans-43"/>
     <use xlink:href="#DejaVuSans-6f" x="69.824219"/>
     <use xlink:href="#DejaVuSans-6d" x="131.005859"/>
     <use xlink:href="#DejaVuSans-70" x="228.417969"/>
     <use xlink:href="#DejaVuSans-6c" x="291.894531"/>
     <use xlink:href="#DejaVuSans-65" x="319.677734"/>
     <use xlink:href="#DejaVuSans-74" x="381.201172"/>
     <use xlink:href="#DejaVuSans-65" x="420.410156"/>
     <use xlink:href="#DejaVuSans-20" x="481.933594"/>
     <use xlink:href="#DejaVuSans-6d" x="513.720703"/>
     <use xlink:href="#DejaVuSans-75" x="611.132812"/>
     <use xlink:href="#DejaVuSans-74" x="674.511719"/>
     <use xlink:href="#DejaVuSans-61" x="713.720703"/>
     <use xlink:href="#DejaVuSans-74" x="775"/>
     <use xlink:href="#DejaVuSans-65" x="814.208984"/>
     <use xlink:href="#DejaVuSans-64" x="875.732422"/>
     <use xlink:href="#DejaVuSans-20" x="939.208984"/>
     <use xlink:href="#DejaVuSans-67" x="970.996094"/>
     <use xlink:href="#DejaVuSans-65" x="1034.472656"/>
     <use xlink:href="#DejaVuSans-6e" x="1095.996094"/>
     <use xlink:href="#DejaVuSans-6f" x="1159.375"/>
     <use xlink:href="#DejaVuSans-6d" x="1220.556641"/>
     <use xlink:href="#DejaVuSans-65" x="1317.96875"/>
    </g>
   </g>
   <g id="patch_8">
    <path d="M 244.749437 172.542053 
L 260.589437 172.542053 
L 260.589437 156.702053 
L 244.749437 156.702053 
L 244.749437 172.542053 
z
" clip-path="url(#pb5dc4dd8ae)" style="fill: none"/>
   </g>
   <g id="line2d_9">
    <path d="M 252.669437 164.622053 
" clip-path="url(#pb5dc4dd8ae)" style="fill: none; stroke: #1f77b4; stroke-opacity: 0.4; stroke-width: 1.5; stroke-linecap: square"/>
    <defs>
     <path id="mac4cc9401a" d="M 0 3.101794 
C 0.822605 3.101794 1.61163 2.77497 2.1933 2.1933 
C 2.77497 1.61163 3.101794 0.822605 3.101794 0 
C 3.101794 -0.822605 2.77497 -1.61163 2.1933 -2.1933 
C 1.61163 -2.77497 0.822605 -3.101794 0 -3.101794 
C -0.822605 -3.101794 -1.61163 -2.77497 -2.1933 -2.1933 
C -2.77497 -1.61163 -3.101794 -0.822605 -3.101794 0 
C -3.101794 0.822605 -2.77497 1.61163 -2.1933 2.1933 
C -1.61163 2.77497 -0.822605 3.101794 0 3.101794 
z
" style="stroke: #ff5349; stroke-opacity: 0.4; stroke-width: 0.886227"/>
    </defs>
    <g clip-path="url(#pb5dc4dd8ae)">
     <use xlink:href="#mac4cc9401a" x="252.669437" y="164.622053" style="fill: #ff5349; fill-opacity: 0.4; stroke: #ff5349; stroke-opacity: 0.4; stroke-width: 0.886227"/>
    </g>
   </g>
   <g id="text_12">
    <!-- Missing viral gene(s) -->
    <g transform="translate(263.589437 167.050303)scale(0.088 -0.088)">
     <defs>
      <path id="DejaVuSans-4d" d="M 628 4666 
L 1569 4666 
L 2759 1491 
L 3956 4666 
L 4897 4666 
L 4897 0 
L 4281 0 
L 4281 4097 
L 3078 897 
L 2444 897 
L 1241 4097 
L 1241 0 
L 628 0 
L 628 4666 
z
" transform="scale(0.015625)"/>
      <path id="DejaVuSans-76" d="M 191 3500 
L 800 3500 
L 1894 563 
L 2988 3500 
L 3597 3500 
L 2284 0 
L 1503 0 
L 191 3500 
z
" transform="scale(0.015625)"/>
      <path id="DejaVuSans-28" d="M 1984 4856 
Q 1566 4138 1362 3434 
Q 1159 2731 1159 2009 
Q 1159 1288 1364 580 
Q 1569 -128 1984 -844 
L 1484 -844 
Q 1016 -109 783 600 
Q 550 1309 550 2009 
Q 550 2706 781 3412 
Q 1013 4119 1484 4856 
L 1984 4856 
z
" transform="scale(0.015625)"/>
      <path id="DejaVuSans-29" d="M 513 4856 
L 1013 4856 
Q 1481 4119 1714 3412 
Q 1947 2706 1947 2009 
Q 1947 1309 1714 600 
Q 1481 -109 1013 -844 
L 513 -844 
Q 928 -128 1133 580 
Q 1338 1288 1338 2009 
Q 1338 2731 1133 3434 
Q 928 4138 513 4856 
z
" transform="scale(0.015625)"/>
     </defs>
     <use xlink:href="#DejaVuSans-4d"/>
     <use xlink:href="#DejaVuSans-69" x="86.279297"/>
     <use xlink:href="#DejaVuSans-73" x="114.0625"/>
     <use xlink:href="#DejaVuSans-73" x="166.162109"/>
     <use xlink:href="#DejaVuSans-69" x="218.261719"/>
     <use xlink:href="#DejaVuSans-6e" x="246.044922"/>
     <use xlink:href="#DejaVuSans-67" x="309.423828"/>
     <use xlink:href="#DejaVuSans-20" x="372.900391"/>
     <use xlink:href="#DejaVuSans-76" x="404.6875"/>
     <use xlink:href="#DejaVuSans-69" x="463.867188"/>
     <use xlink:href="#DejaVuSans-72" x="491.650391"/>
     <use xlink:href="#DejaVuSans-61" x="532.763672"/>
     <use xlink:href="#DejaVuSans-6c" x="594.042969"/>
     <use xlink:href="#DejaVuSans-20" x="621.826172"/>
     <use xlink:href="#DejaVuSans-67" x="653.613281"/>
     <use xlink:href="#DejaVuSans-65" x="717.089844"/>
     <use xlink:href="#DejaVuSans-6e" x="778.613281"/>
     <use xlink:href="#DejaVuSans-65" x="841.992188"/>
     <use xlink:href="#DejaVuSans-28" x="903.515625"/>
     <use xlink:href="#DejaVuSans-73" x="942.529297"/>
     <use xlink:href="#DejaVuSans-29" x="994.628906"/>
    </g>
   </g>
  </g>
  <g id="text_13">
   <!-- Physical and infectious progeny -->
   <g transform="translate(43.676 16.318125)scale(0.12 -0.12)">
    <defs>
     <path id="DejaVuSans-50" d="M 1259 4147 
L 1259 2394 
L 2053 2394 
Q 2494 2394 2734 2622 
Q 2975 2850 2975 3272 
Q 2975 3691 2734 3919 
Q 2494 4147 2053 4147 
L 1259 4147 
z
M 628 4666 
L 2053 4666 
Q 2838 4666 3239 4311 
Q 3641 3956 3641 3272 
Q 3641 2581 3239 2228 
Q 2838 1875 2053 1875 
L 1259 1875 
L 1259 0 
L 628 0 
L 628 4666 
z
" transform="scale(0.015625)"/>
    </defs>
    <use xlink:href="#DejaVuSans-50"/>
    <use xlink:href="#DejaVuSans-68" x="60.302734"/>
    <use xlink:href="#DejaVuSans-79" x="123.681641"/>
    <use xlink:href="#DejaVuSans-73" x="182.861328"/>
    <use xlink:href="#DejaVuSans-69" x="234.960938"/>
    <use xlink:href="#DejaVuSans-63" x="262.744141"/>
    <use xlink:href="#DejaVuSans-61" x="317.724609"/>
    <use xlink:href="#DejaVuSans-6c" x="379.003906"/>
    <use xlink:href="#DejaVuSans-20" x="406.787109"/>
    <use xlink:href="#DejaVuSans-61" x="438.574219"/>
    <use xlink:href="#DejaVuSans-6e" x="499.853516"/>
    <use xlink:href="#DejaVuSans-64" x="563.232422"/>
    <use xlink:href="#DejaVuSans-20" x="626.708984"/>
    <use xlink:href="#DejaVuSans-69" x="658.496094"/>
    <use xlink:href="#DejaVuSans-6e" x="686.279297"/>
    <use xlink:href="#DejaVuSans-66" x="749.658203"/>
    <use xlink:href="#DejaVuSans-65" x="784.863281"/>
    <use xlink:href="#DejaVuSans-63" x="846.386719"/>
    <use xlink:href="#DejaVuSans-74" x="901.367188"/>
    <use xlink:href="#DejaVuSans-69" x="940.576172"/>
    <use xlink:href="#DejaVuSans-6f" x="968.359375"/>
    <use xlink:href="#DejaVuSans-75" x="1029.541016"/>
    <use xlink:href="#DejaVuSans-73" x="1092.919922"/>
    <use xlink:href="#DejaVuSans-20" x="1145.019531"/>
    <use xlink:href="#DejaVuSans-70" x="1176.806641"/>
    <use xlink:href="#DejaVuSans-72" x="1240.283203"/>
    <use xlink:href="#DejaVuSans-6f" x="1279.146484"/>
    <use xlink:href="#DejaVuSans-67" x="1340.328125"/>
    <use xlink:href="#DejaVuSans-65" x="1403.804688"/>
    <use xlink:href="#DejaVuSans-6e" x="1465.328125"/>
    <use xlink:href="#DejaVuSans-79" x="1528.707031"/>
   </g>
   <!-- produced by single infected cells -->
   <g transform="translate(40.099437 27.020062)scale(0.12 -0.12)">
    <defs>
     <path id="DejaVuSans-62" d="M 3116 1747 
Q 3116 2381 2855 2742 
Q 2594 3103 2138 3103 
Q 1681 3103 1420 2742 
Q 1159 2381 1159 1747 
Q 1159 1113 1420 752 
Q 1681 391 2138 391 
Q 2594 391 2855 752 
Q 3116 1113 3116 1747 
z
M 1159 2969 
Q 1341 3281 1617 3432 
Q 1894 3584 2278 3584 
Q 2916 3584 3314 3078 
Q 3713 2572 3713 1747 
Q 3713 922 3314 415 
Q 2916 -91 2278 -91 
Q 1894 -91 1617 61 
Q 1341 213 1159 525 
L 1159 0 
L 581 0 
L 581 4863 
L 1159 4863 
L 1159 2969 
z
" transform="scale(0.015625)"/>
    </defs>
    <use xlink:href="#DejaVuSans-70"/>
    <use xlink:href="#DejaVuSans-72" x="63.476562"/>
    <use xlink:href="#DejaVuSans-6f" x="102.339844"/>
    <use xlink:href="#DejaVuSans-64" x="163.521484"/>
    <use xlink:href="#DejaVuSans-75" x="226.998047"/>
    <use xlink:href="#DejaVuSans-63" x="290.376953"/>
    <use xlink:href="#DejaVuSans-65" x="345.357422"/>
    <use xlink:href="#DejaVuSans-64" x="406.880859"/>
    <use xlink:href="#DejaVuSans-20" x="470.357422"/>
    <use xlink:href="#DejaVuSans-62" x="502.144531"/>
    <use xlink:href="#DejaVuSans-79" x="565.621094"/>
    <use xlink:href="#DejaVuSans-20" x="624.800781"/>
    <use xlink:href="#DejaVuSans-73" x="656.587891"/>
    <use xlink:href="#DejaVuSans-69" x="708.6875"/>
    <use xlink:href="#DejaVuSans-6e" x="736.470703"/>
    <use xlink:href="#DejaVuSans-67" x="799.849609"/>
    <use xlink:href="#DejaVuSans-6c" x="863.326172"/>
    <use xlink:href="#DejaVuSans-65" x="891.109375"/>
    <use xlink:href="#DejaVuSans-20" x="952.632812"/>
    <use xlink:href="#DejaVuSans-69" x="984.419922"/>
    <use xlink:href="#DejaVuSans-6e" x="1012.203125"/>
    <use xlink:href="#DejaVuSans-66" x="1075.582031"/>
    <use xlink:href="#DejaVuSans-65" x="1110.787109"/>
    <use xlink:href="#DejaVuSans-63" x="1172.310547"/>
    <use xlink:href="#DejaVuSans-74" x="1227.291016"/>
    <use xlink:href="#DejaVuSans-65" x="1266.5"/>
    <use xlink:href="#DejaVuSans-64" x="1328.023438"/>
    <use xlink:href="#DejaVuSans-20" x="1391.5"/>
    <use xlink:href="#DejaVuSans-63" x="1423.287109"/>
    <use xlink:href="#DejaVuSans-65" x="1478.267578"/>
    <use xlink:href="#DejaVuSans-6c" x="1539.791016"/>
    <use xlink:href="#DejaVuSans-6c" x="1567.574219"/>
    <use xlink:href="#DejaVuSans-73" x="1595.357422"/>
   </g>
   <!--  -->
   <g transform="translate(138.949437 37.722)scale(0.12 -0.12)"/>
   <!-- Low MOI -->
   <g transform="translate(113.556312 48.423937)scale(0.12 -0.12)">
    <defs>
     <path id="DejaVuSans-4c" d="M 628 4666 
L 1259 4666 
L 1259 531 
L 3531 531 
L 3531 0 
L 628 0 
L 628 4666 
z
" transform="scale(0.015625)"/>
     <path id="DejaVuSans-77" d="M 269 3500 
L 844 3500 
L 1563 769 
L 2278 3500 
L 2956 3500 
L 3675 769 
L 4391 3500 
L 4966 3500 
L 4050 0 
L 3372 0 
L 2619 2869 
L 1863 0 
L 1184 0 
L 269 3500 
z
" transform="scale(0.015625)"/>
     <path id="DejaVuSans-4f" d="M 2522 4238 
Q 1834 4238 1429 3725 
Q 1025 3213 1025 2328 
Q 1025 1447 1429 934 
Q 1834 422 2522 422 
Q 3209 422 3611 934 
Q 4013 1447 4013 2328 
Q 4013 3213 3611 3725 
Q 3209 4238 2522 4238 
z
M 2522 4750 
Q 3503 4750 4090 4092 
Q 4678 3434 4678 2328 
Q 4678 1225 4090 567 
Q 3503 -91 2522 -91 
Q 1538 -91 948 565 
Q 359 1222 359 2328 
Q 359 3434 948 4092 
Q 1538 4750 2522 4750 
z
" transform="scale(0.015625)"/>
     <path id="DejaVuSans-49" d="M 628 4666 
L 1259 4666 
L 1259 0 
L 628 0 
L 628 4666 
z
" transform="scale(0.015625)"/>
    </defs>
    <use xlink:href="#DejaVuSans-4c"/>
    <use xlink:href="#DejaVuSans-6f" x="53.962891"/>
    <use xlink:href="#DejaVuSans-77" x="115.144531"/>
    <use xlink:href="#DejaVuSans-20" x="196.931641"/>
    <use xlink:href="#DejaVuSans-4d" x="228.71875"/>
    <use xlink:href="#DejaVuSans-4f" x="314.998047"/>
    <use xlink:href="#DejaVuSans-49" x="393.708984"/>
   </g>
  </g>
 </g>
 <defs>
  <clipPath id="p1521ee040c">
   <rect x="57.949438" y="57.179084" width="167.4" height="166.32"/>
  </clipPath>
  <clipPath id="pb5148fd349">
   <path d="M 244.749437 136.862053 
L 244.749437 121.022053 
L 260.589437 121.022053 
L 260.589437 136.862053 
"/>
  </clipPath>
  <clipPath id="pabf930f0f0">
   <path d="M 244.749437 154.702053 
L 244.749437 138.862053 
L 260.589437 138.862053 
L 260.589437 154.702053 
"/>
  </clipPath>
  <clipPath id="pb5dc4dd8ae">
   <path d="M 244.749437 172.542053 
L 244.749437 156.702053 
L 260.589437 156.702053 
L 260.589437 172.542053 
"/>
  </clipPath>
 </defs>
</svg>
