<?xml version='1.0' encoding='ASCII' standalone='yes'?>
<svg xmlns="http://www.w3.org/2000/svg" xmlns:xlink="http://www.w3.org/1999/xlink" version="1.1" width="8.0cm" viewBox="0 0 8.0cm 3.0cm" height="3.0cm">
  <g>
    <g transform="translate(29, 20) scale(1) ">
      <g><metadata>
  <rdf:RDF xmlns:dc="http://purl.org/dc/elements/1.1/" xmlns:cc="http://creativecommons.org/ns#" xmlns:rdf="http://www.w3.org/1999/02/22-rdf-syntax-ns#">
   <cc:Work>
    <dc:type rdf:resource="http://purl.org/dc/dcmitype/StillImage"/>
    <dc:date>2022-12-28T16:40:24.894452</dc:date>
    <dc:format>image/svg+xml</dc:format>
    <dc:creator>
     <cc:Agent>
      <dc:title>Matplotlib v3.5.2, https://matplotlib.org/</dc:title>
     </cc:Agent>
    </dc:creator>
   </cc:Work>
  </rdf:RDF>
 </metadata>
 <defs>
  <style type="text/css">*{stroke-linejoin: round; stroke-linecap: butt}</style>
 </defs>
 <g id="figure_1">
  <g id="patch_1">
   <path d="M 0 100.31  L 62.52 100.31  L 62.52 0  L 0 0  z " style="fill: #ffffff; stroke: #ffffff; stroke-linejoin: miter"/>
  </g>
  <g id="axes_1">
   <g id="patch_2">
    <path d="M 27.42 90.36  L 55.32 90.36  L 55.32 7.2  L 27.42 7.2  z " style="fill: #ffffff"/>
   </g>
   <g id="matplotlib.axis_1">
    <g id="xtick_1">
     <g id="line2d_1">
      <path d="M 41.37 90.36  " style="fill: none; stroke: #000000; stroke-width: 1.5"/>
      <defs>
       <path id="m90f258bdee" d="M 0 0  L 0 2.75  " style="stroke: #333333"/>
      </defs>
      <g>
       <use xlink:href="#m90f258bdee" x="41.37" y="90.36" style="stroke: #333333"/>
      </g>
     </g>
    </g>
   </g>
   <g id="matplotlib.axis_2">
    <g id="ytick_1">
     <g id="line2d_2">
      <path d="M 27.42 86.58  " style="fill: none; stroke: #000000; stroke-width: 1.5"/>
      <defs>
       <path id="m9d78507c1d" d="M 0 0  L -2.75 0  " style="stroke: #333333"/>
      </defs>
      <g>
       <use xlink:href="#m9d78507c1d" x="27.42" y="86.58" style="stroke: #333333"/>
      </g>
     </g>
     <g id="text_1">
      <!-- 0 -->
      <g transform="translate(14.835 89.89125)scale(0.12 -0.12)">
       <defs>
        <path id="DejaVuSans-30" d="M 2034 4250  Q 1547 4250 1301 3770  Q 1056 3291 1056 2328  Q 1056 1369 1301 889  Q 1547 409 2034 409  Q 2525 409 2770 889  Q 3016 1369 3016 2328  Q 3016 3291 2770 3770  Q 2525 4250 2034 4250  z M 2034 4750  Q 2819 4750 3233 4129  Q 3647 3509 3647 2328  Q 3647 1150 3233 529  Q 2819 -91 2034 -91  Q 1250 -91 836 529  Q 422 1150 422 2328  Q 422 3509 836 4129  Q 1250 4750 2034 4750  z " transform="scale(0.015625)"/>
       </defs>
       <use xlink:href="#DejaVuSans-30"/>
      </g>
     </g>
    </g>
    <g id="ytick_2">
     <g id="line2d_3">
      <path d="M 27.42 69.78  " style="fill: none; stroke: #000000; stroke-width: 1.5"/>
      <g>
       <use xlink:href="#m9d78507c1d" x="27.42" y="69.78" style="stroke: #333333"/>
      </g>
     </g>
     <g id="text_2">
      <!-- 10 -->
      <g transform="translate(7.2 73.09125)scale(0.12 -0.12)">
       <defs>
        <path id="DejaVuSans-31" d="M 794 531  L 1825 531  L 1825 4091  L 703 3866  L 703 4441  L 1819 4666  L 2450 4666  L 2450 531  L 3481 531  L 3481 0  L 794 0  L 794 531  z " transform="scale(0.015625)"/>
       </defs>
       <use xlink:href="#DejaVuSans-31"/>
       <use xlink:href="#DejaVuSans-30" x="63.623047"/>
      </g>
     </g>
    </g>
    <g id="ytick_3">
     <g id="line2d_4">
      <path d="M 27.42 52.98  " style="fill: none; stroke: #000000; stroke-width: 1.5"/>
      <g>
       <use xlink:href="#m9d78507c1d" x="27.42" y="52.98" style="stroke: #333333"/>
      </g>
     </g>
     <g id="text_3">
      <!-- 20 -->
      <g transform="translate(7.2 56.29125)scale(0.12 -0.12)">
       <defs>
        <path id="DejaVuSans-32" d="M 1228 531  L 3431 531  L 3431 0  L 469 0  L 469 531  Q 828 903 1448 1529  Q 2069 2156 2228 2338  Q 2531 2678 2651 2914  Q 2772 3150 2772 3378  Q 2772 3750 2511 3984  Q 2250 4219 1831 4219  Q 1534 4219 1204 4116  Q 875 4013 500 3803  L 500 4441  Q 881 4594 1212 4672  Q 1544 4750 1819 4750  Q 2544 4750 2975 4387  Q 3406 4025 3406 3419  Q 3406 3131 3298 2873  Q 3191 2616 2906 2266  Q 2828 2175 2409 1742  Q 1991 1309 1228 531  z " transform="scale(0.015625)"/>
       </defs>
       <use xlink:href="#DejaVuSans-32"/>
       <use xlink:href="#DejaVuSans-30" x="63.623047"/>
      </g>
     </g>
    </g>
    <g id="ytick_4">
     <g id="line2d_5">
      <path d="M 27.42 36.18  " style="fill: none; stroke: #000000; stroke-width: 1.5"/>
      <g>
       <use xlink:href="#m9d78507c1d" x="27.42" y="36.18" style="stroke: #333333"/>
      </g>
     </g>
     <g id="text_4">
      <!-- 30 -->
      <g transform="translate(7.2 39.49125)scale(0.12 -0.12)">
       <defs>
        <path id="DejaVuSans-33" d="M 2597 2516  Q 3050 2419 3304 2112  Q 3559 1806 3559 1356  Q 3559 666 3084 287  Q 2609 -91 1734 -91  Q 1441 -91 1130 -33  Q 819 25 488 141  L 488 750  Q 750 597 1062 519  Q 1375 441 1716 441  Q 2309 441 2620 675  Q 2931 909 2931 1356  Q 2931 1769 2642 2001  Q 2353 2234 1838 2234  L 1294 2234  L 1294 2753  L 1863 2753  Q 2328 2753 2575 2939  Q 2822 3125 2822 3475  Q 2822 3834 2567 4026  Q 2313 4219 1838 4219  Q 1578 4219 1281 4162  Q 984 4106 628 3988  L 628 4550  Q 988 4650 1302 4700  Q 1616 4750 1894 4750  Q 2613 4750 3031 4423  Q 3450 4097 3450 3541  Q 3450 3153 3228 2886  Q 3006 2619 2597 2516  z " transform="scale(0.015625)"/>
       </defs>
       <use xlink:href="#DejaVuSans-33"/>
       <use xlink:href="#DejaVuSans-30" x="63.623047"/>
      </g>
     </g>
    </g>
    <g id="ytick_5">
     <g id="line2d_6">
      <path d="M 27.42 19.38  " style="fill: none; stroke: #000000; stroke-width: 1.5"/>
      <g>
       <use xlink:href="#m9d78507c1d" x="27.42" y="19.38" style="stroke: #333333"/>
      </g>
     </g>
     <g id="text_5">
      <!-- 40 -->
      <g transform="translate(7.2 22.69125)scale(0.12 -0.12)">
       <defs>
        <path id="DejaVuSans-34" d="M 2419 4116  L 825 1625  L 2419 1625  L 2419 4116  z M 2253 4666  L 3047 4666  L 3047 1625  L 3713 1625  L 3713 1100  L 3047 1100  L 3047 0  L 2419 0  L 2419 1100  L 313 1100  L 313 1709  L 2253 4666  z " transform="scale(0.015625)"/>
       </defs>
       <use xlink:href="#DejaVuSans-34"/>
       <use xlink:href="#DejaVuSans-30" x="63.623047"/>
      </g>
     </g>
    </g>
    <g id="ytick_6"/>
    <g id="ytick_7"/>
    <g id="ytick_8"/>
    <g id="ytick_9"/>
    <g id="ytick_10"/>
   </g>
   <g id="PolyCollection_1">
    <path d="M 34.395 86.58  L 34.395 26.1  L 48.345 26.1  L 48.345 86.58  z " clip-path="url(#p8a67474840)" style="fill: #595959"/>
   </g>
   <g id="patch_3">
    <path d="M 27.42 90.36  L 27.42 7.2  " style="fill: none; stroke: #000000; stroke-linejoin: miter; stroke-linecap: square"/>
   </g>
   <g id="patch_4">
    <path d="M 27.42 90.36  L 55.32 90.36  " style="fill: none; stroke: #000000; stroke-linejoin: miter; stroke-linecap: square"/>
   </g>
  </g>
 </g>
 <defs>
  <clipPath id="p8a67474840">
   <rect x="27.42" y="7.2" width="27.9" height="83.16"/>
  </clipPath>
 </defs>
</g>
    </g>
    <g>
      <g transform="translate(80, 20) scale(1) "><metadata>
  <rdf:RDF xmlns:dc="http://purl.org/dc/elements/1.1/" xmlns:cc="http://creativecommons.org/ns#" xmlns:rdf="http://www.w3.org/1999/02/22-rdf-syntax-ns#">
   <cc:Work>
    <dc:type rdf:resource="http://purl.org/dc/dcmitype/StillImage"/>
    <dc:date>2022-12-28T16:35:01.443038</dc:date>
    <dc:format>image/svg+xml</dc:format>
    <dc:creator>
     <cc:Agent>
      <dc:title>Matplotlib v3.5.2, https://matplotlib.org/</dc:title>
     </cc:Agent>
    </dc:creator>
   </cc:Work>
  </rdf:RDF>
 </metadata>
 <defs>
  <style type="text/css">*{stroke-linejoin: round; stroke-linecap: butt}</style>
 </defs>
 <g id="figure_1">
  <g id="patch_1">
   <path d="M 0 100.31  L 200.05 100.31  L 200.05 0  L 0 0  z " style="fill: #ffffff; stroke: #ffffff; stroke-linejoin: miter"/>
  </g>
  <g id="axes_1">
   <g id="patch_2">
    <path d="M 9.95 90.36  L 177.35 90.36  L 177.35 7.2  L 9.95 7.2  z " style="fill: #ffffff"/>
   </g>
   <g id="matplotlib.axis_1">
    <g id="xtick_1">
     <g id="line2d_1">
      <path d="M 80.968182 90.36  " style="fill: none; stroke: #000000; stroke-width: 1.5"/>
      <defs>
       <path id="ma271a20677" d="M 0 0  L 0 2.75  " style="stroke: #333333"/>
      </defs>
      <g>
       <use xlink:href="#ma271a20677" x="80.968182" y="90.36" style="stroke: #333333"/>
      </g>
     </g>
    </g>
    <g id="xtick_2">
     <g id="line2d_2">
      <path d="M 144.377273 90.36  " style="fill: none; stroke: #000000; stroke-width: 1.5"/>
      <g>
       <use xlink:href="#ma271a20677" x="144.377273" y="90.36" style="stroke: #333333"/>
      </g>
     </g>
    </g>
    <g id="xtick_3"/>
   </g>
   <g id="matplotlib.axis_2">
    <g id="ytick_1">
     <g id="line2d_3">
      <path d="M 9.95 86.58  " style="fill: none; stroke: #000000; stroke-width: 1.5"/>
      <defs>
       <path id="m3b2d0f716b" d="M 0 0  L -2.75 0  " style="stroke: #333333"/>
      </defs>
      <g>
       <use xlink:href="#m3b2d0f716b" x="9.95" y="86.58" style="stroke: #333333"/>
      </g>
     </g>
    </g>
    <g id="ytick_2">
     <g id="line2d_4">
      <path d="M 9.95 69.78  " style="fill: none; stroke: #000000; stroke-width: 1.5"/>
      <g>
       <use xlink:href="#m3b2d0f716b" x="9.95" y="69.78" style="stroke: #333333"/>
      </g>
     </g>
    </g>
    <g id="ytick_3">
     <g id="line2d_5">
      <path d="M 9.95 52.98  " style="fill: none; stroke: #000000; stroke-width: 1.5"/>
      <g>
       <use xlink:href="#m3b2d0f716b" x="9.95" y="52.98" style="stroke: #333333"/>
      </g>
     </g>
    </g>
    <g id="ytick_4">
     <g id="line2d_6">
      <path d="M 9.95 36.18  " style="fill: none; stroke: #000000; stroke-width: 1.5"/>
      <g>
       <use xlink:href="#m3b2d0f716b" x="9.95" y="36.18" style="stroke: #333333"/>
      </g>
     </g>
    </g>
    <g id="ytick_5">
     <g id="line2d_7">
      <path d="M 9.95 19.38  " style="fill: none; stroke: #000000; stroke-width: 1.5"/>
      <g>
       <use xlink:href="#m3b2d0f716b" x="9.95" y="19.38" style="stroke: #333333"/>
      </g>
     </g>
    </g>
    <g id="ytick_6"/>
    <g id="ytick_7"/>
    <g id="ytick_8"/>
    <g id="ytick_9"/>
    <g id="ytick_10"/>
   </g>
   <g id="PolyCollection_1">
    <path d="M 17.559091 86.58  L 17.559091 17.7  L 30.240909 17.7  L 30.240909 86.58  z " clip-path="url(#p67801b75ac)" style="fill: #595959"/>
    <path d="M 30.240909 86.58  L 30.240909 71.46  L 42.922727 71.46  L 42.922727 86.58  z " clip-path="url(#p67801b75ac)" style="fill: #595959"/>
    <path d="M 42.922727 86.58  L 42.922727 84.9  L 55.604545 84.9  L 55.604545 86.58  z " clip-path="url(#p67801b75ac)" style="fill: #595959"/>
    <path d="M 55.604545 86.58  L 55.604545 81.54  L 68.286364 81.54  L 68.286364 86.58  z " clip-path="url(#p67801b75ac)" style="fill: #595959"/>
    <path d="M 68.286364 86.58  L 68.286364 86.58  L 80.968182 86.58  L 80.968182 86.58  z " clip-path="url(#p67801b75ac)" style="fill: #595959"/>
    <path d="M 80.968182 86.58  L 80.968182 86.58  L 93.65 86.58  L 93.65 86.58  z " clip-path="url(#p67801b75ac)" style="fill: #595959"/>
    <path d="M 93.65 86.58  L 93.65 86.58  L 106.331818 86.58  L 106.331818 86.58  z " clip-path="url(#p67801b75ac)" style="fill: #595959"/>
    <path d="M 106.331818 86.58  L 106.331818 86.58  L 119.013636 86.58  L 119.013636 86.58  z " clip-path="url(#p67801b75ac)" style="fill: #595959"/>
    <path d="M 119.013636 86.58  L 119.013636 86.58  L 131.695455 86.58  L 131.695455 86.58  z " clip-path="url(#p67801b75ac)" style="fill: #595959"/>
    <path d="M 131.695455 86.58  L 131.695455 86.58  L 144.377273 86.58  L 144.377273 86.58  z " clip-path="url(#p67801b75ac)" style="fill: #595959"/>
    <path d="M 144.377273 86.58  L 144.377273 84.9  L 157.059091 84.9  L 157.059091 86.58  z " clip-path="url(#p67801b75ac)" style="fill: #595959"/>
   </g>
   <g id="text_1">
    <g clip-path="url(#p67801b75ac)">
     <!-- Gini=0.78 -->
     <g transform="translate(101.522955 31.09125)scale(0.12 -0.12)">
      <defs>
       <path id="DejaVuSans-47" d="M 3809 666  L 3809 1919  L 2778 1919  L 2778 2438  L 4434 2438  L 4434 434  Q 4069 175 3628 42  Q 3188 -91 2688 -91  Q 1594 -91 976 548  Q 359 1188 359 2328  Q 359 3472 976 4111  Q 1594 4750 2688 4750  Q 3144 4750 3555 4637  Q 3966 4525 4313 4306  L 4313 3634  Q 3963 3931 3569 4081  Q 3175 4231 2741 4231  Q 1884 4231 1454 3753  Q 1025 3275 1025 2328  Q 1025 1384 1454 906  Q 1884 428 2741 428  Q 3075 428 3337 486  Q 3600 544 3809 666  z " transform="scale(0.015625)"/>
       <path id="DejaVuSans-69" d="M 603 3500  L 1178 3500  L 1178 0  L 603 0  L 603 3500  z M 603 4863  L 1178 4863  L 1178 4134  L 603 4134  L 603 4863  z " transform="scale(0.015625)"/>
       <path id="DejaVuSans-6e" d="M 3513 2113  L 3513 0  L 2938 0  L 2938 2094  Q 2938 2591 2744 2837  Q 2550 3084 2163 3084  Q 1697 3084 1428 2787  Q 1159 2491 1159 1978  L 1159 0  L 581 0  L 581 3500  L 1159 3500  L 1159 2956  Q 1366 3272 1645 3428  Q 1925 3584 2291 3584  Q 2894 3584 3203 3211  Q 3513 2838 3513 2113  z " transform="scale(0.015625)"/>
       <path id="DejaVuSans-3d" d="M 678 2906  L 4684 2906  L 4684 2381  L 678 2381  L 678 2906  z M 678 1631  L 4684 1631  L 4684 1100  L 678 1100  L 678 1631  z " transform="scale(0.015625)"/>
       <path id="DejaVuSans-30" d="M 2034 4250  Q 1547 4250 1301 3770  Q 1056 3291 1056 2328  Q 1056 1369 1301 889  Q 1547 409 2034 409  Q 2525 409 2770 889  Q 3016 1369 3016 2328  Q 3016 3291 2770 3770  Q 2525 4250 2034 4250  z M 2034 4750  Q 2819 4750 3233 4129  Q 3647 3509 3647 2328  Q 3647 1150 3233 529  Q 2819 -91 2034 -91  Q 1250 -91 836 529  Q 422 1150 422 2328  Q 422 3509 836 4129  Q 1250 4750 2034 4750  z " transform="scale(0.015625)"/>
       <path id="DejaVuSans-2e" d="M 684 794  L 1344 794  L 1344 0  L 684 0  L 684 794  z " transform="scale(0.015625)"/>
       <path id="DejaVuSans-37" d="M 525 4666  L 3525 4666  L 3525 4397  L 1831 0  L 1172 0  L 2766 4134  L 525 4134  L 525 4666  z " transform="scale(0.015625)"/>
       <path id="DejaVuSans-38" d="M 2034 2216  Q 1584 2216 1326 1975  Q 1069 1734 1069 1313  Q 1069 891 1326 650  Q 1584 409 2034 409  Q 2484 409 2743 651  Q 3003 894 3003 1313  Q 3003 1734 2745 1975  Q 2488 2216 2034 2216  z M 1403 2484  Q 997 2584 770 2862  Q 544 3141 544 3541  Q 544 4100 942 4425  Q 1341 4750 2034 4750  Q 2731 4750 3128 4425  Q 3525 4100 3525 3541  Q 3525 3141 3298 2862  Q 3072 2584 2669 2484  Q 3125 2378 3379 2068  Q 3634 1759 3634 1313  Q 3634 634 3220 271  Q 2806 -91 2034 -91  Q 1263 -91 848 271  Q 434 634 434 1313  Q 434 1759 690 2068  Q 947 2378 1403 2484  z M 1172 3481  Q 1172 3119 1398 2916  Q 1625 2713 2034 2713  Q 2441 2713 2670 2916  Q 2900 3119 2900 3481  Q 2900 3844 2670 4047  Q 2441 4250 2034 4250  Q 1625 4250 1398 4047  Q 1172 3844 1172 3481  z " transform="scale(0.015625)"/>
      </defs>
      <use xlink:href="#DejaVuSans-47"/>
      <use xlink:href="#DejaVuSans-69" x="77.490234"/>
      <use xlink:href="#DejaVuSans-6e" x="105.273438"/>
      <use xlink:href="#DejaVuSans-69" x="168.652344"/>
      <use xlink:href="#DejaVuSans-3d" x="196.435547"/>
      <use xlink:href="#DejaVuSans-30" x="280.224609"/>
      <use xlink:href="#DejaVuSans-2e" x="343.847656"/>
      <use xlink:href="#DejaVuSans-37" x="375.634766"/>
      <use xlink:href="#DejaVuSans-38" x="439.257812"/>
     </g>
    </g>
   </g>
   <g id="patch_3">
    <path d="M 177.35 90.36  L 192.85 90.36  L 192.85 7.2  L 177.35 7.2  L 177.35 90.36  z " style="fill: none; stroke: #000000; stroke-linejoin: miter"/>
   </g>
   <g id="patch_4">
    <path d="M 9.95 90.36  L 9.95 7.2  " style="fill: none; stroke: #000000; stroke-linejoin: miter; stroke-linecap: square"/>
   </g>
   <g id="patch_5">
    <path d="M 9.95 90.36  L 177.35 90.36  " style="fill: none; stroke: #000000; stroke-linejoin: miter; stroke-linecap: square"/>
   </g>
   <g id="text_2">
    <!-- Low MOI -->
    <g style="fill: #1a1a1a" transform="translate(182.340625 27.619063)rotate(-270)scale(0.1 -0.1)">
     <defs>
      <path id="DejaVuSans-4c" d="M 628 4666  L 1259 4666  L 1259 531  L 3531 531  L 3531 0  L 628 0  L 628 4666  z " transform="scale(0.015625)"/>
      <path id="DejaVuSans-6f" d="M 1959 3097  Q 1497 3097 1228 2736  Q 959 2375 959 1747  Q 959 1119 1226 758  Q 1494 397 1959 397  Q 2419 397 2687 759  Q 2956 1122 2956 1747  Q 2956 2369 2687 2733  Q 2419 3097 1959 3097  z M 1959 3584  Q 2709 3584 3137 3096  Q 3566 2609 3566 1747  Q 3566 888 3137 398  Q 2709 -91 1959 -91  Q 1206 -91 779 398  Q 353 888 353 1747  Q 353 2609 779 3096  Q 1206 3584 1959 3584  z " transform="scale(0.015625)"/>
      <path id="DejaVuSans-77" d="M 269 3500  L 844 3500  L 1563 769  L 2278 3500  L 2956 3500  L 3675 769  L 4391 3500  L 4966 3500  L 4050 0  L 3372 0  L 2619 2869  L 1863 0  L 1184 0  L 269 3500  z " transform="scale(0.015625)"/>
      <path id="DejaVuSans-20" transform="scale(0.015625)"/>
      <path id="DejaVuSans-4d" d="M 628 4666  L 1569 4666  L 2759 1491  L 3956 4666  L 4897 4666  L 4897 0  L 4281 0  L 4281 4097  L 3078 897  L 2444 897  L 1241 4097  L 1241 0  L 628 0  L 628 4666  z " transform="scale(0.015625)"/>
      <path id="DejaVuSans-4f" d="M 2522 4238  Q 1834 4238 1429 3725  Q 1025 3213 1025 2328  Q 1025 1447 1429 934  Q 1834 422 2522 422  Q 3209 422 3611 934  Q 4013 1447 4013 2328  Q 4013 3213 3611 3725  Q 3209 4238 2522 4238  z M 2522 4750  Q 3503 4750 4090 4092  Q 4678 3434 4678 2328  Q 4678 1225 4090 567  Q 3503 -91 2522 -91  Q 1538 -91 948 565  Q 359 1222 359 2328  Q 359 3434 948 4092  Q 1538 4750 2522 4750  z " transform="scale(0.015625)"/>
      <path id="DejaVuSans-49" d="M 628 4666  L 1259 4666  L 1259 0  L 628 0  L 628 4666  z " transform="scale(0.015625)"/>
     </defs>
     <use xlink:href="#DejaVuSans-4c"/>
     <use xlink:href="#DejaVuSans-6f" x="53.962891"/>
     <use xlink:href="#DejaVuSans-77" x="115.144531"/>
     <use xlink:href="#DejaVuSans-20" x="196.931641"/>
     <use xlink:href="#DejaVuSans-4d" x="228.71875"/>
     <use xlink:href="#DejaVuSans-4f" x="314.998047"/>
     <use xlink:href="#DejaVuSans-49" x="393.708984"/>
    </g>
   </g>
  </g>
 </g>
 <defs>
  <clipPath id="p67801b75ac">
   <rect x="9.95" y="7.2" width="167.4" height="83.16"/>
  </clipPath>
 </defs>
</g>
    </g>
    <g>
      <text x="60" y="20" font-size="14" font-family="Verdana" font-weight="normal" letter-spacing="0" text-anchor="start" fill="black">Physical progeny production</text>
    </g>
  </g>
</svg>
